<?xml version="1.0" encoding="utf-8" standalone="no"?>
<!DOCTYPE svg PUBLIC "-//W3C//DTD SVG 1.1//EN"
  "http://www.w3.org/Graphics/SVG/1.1/DTD/svg11.dtd">
<svg xmlns:xlink="http://www.w3.org/1999/xlink" width="860.412812pt" height="453.244198pt" viewBox="0 0 860.412812 453.244198" xmlns="http://www.w3.org/2000/svg" version="1.1">
 <metadata>
  <rdf:RDF xmlns:dc="http://purl.org/dc/elements/1.1/" xmlns:cc="http://creativecommons.org/ns#" xmlns:rdf="http://www.w3.org/1999/02/22-rdf-syntax-ns#">
   <cc:Work>
    <dc:type rdf:resource="http://purl.org/dc/dcmitype/StillImage"/>
    <dc:date>2024-07-22T21:45:03.164505</dc:date>
    <dc:format>image/svg+xml</dc:format>
    <dc:creator>
     <cc:Agent>
      <dc:title>Matplotlib v3.8.4, https://matplotlib.org/</dc:title>
     </cc:Agent>
    </dc:creator>
   </cc:Work>
  </rdf:RDF>
 </metadata>
 <defs>
  <style type="text/css">*{stroke-linejoin: round; stroke-linecap: butt}</style>
 </defs>
 <g id="figure_1">
  <g id="patch_1">
   <path d="M 0 453.244198 
L 860.412812 453.244198 
L 860.412812 0 
L 0 0 
z
" style="fill: #ffffff"/>
  </g>
  <g id="axes_1">
   <g id="patch_2">
    <path d="M 50.14375 354.958125 
L 831.34375 354.958125 
L 831.34375 22.318125 
L 50.14375 22.318125 
z
" style="fill: #ffffff"/>
   </g>
   <g id="PolyCollection_1">
    <defs>
     <path id="m62266a7f72" d="M 85.652841 -281.652846 
L 85.652841 -138.85474 
L 87.772787 -136.762066 
L 89.892732 -138.464542 
L 92.012678 -136.742852 
L 94.132624 -137.418615 
L 96.25257 -137.353162 
L 98.372515 -137.972719 
L 100.492461 -136.377153 
L 102.612407 -137.6598 
L 104.732352 -137.197677 
L 106.852298 -137.335405 
L 108.972244 -136.845488 
L 111.09219 -138.547134 
L 113.212135 -137.794958 
L 115.332081 -138.349549 
L 117.452027 -139.579284 
L 119.571973 -144.140282 
L 121.691918 -150.250388 
L 123.811864 -172.197461 
L 125.93181 -192.194266 
L 128.051755 -199.022757 
L 130.171701 -198.00613 
L 132.291647 -201.292322 
L 134.411593 -201.264834 
L 136.531538 -202.721231 
L 138.651484 -198.859224 
L 140.77143 -201.257824 
L 142.891376 -199.911837 
L 145.011321 -200.98331 
L 147.131267 -198.789525 
L 149.251213 -200.156908 
L 151.371158 -196.394405 
L 153.491104 -198.963776 
L 155.61105 -195.172409 
L 157.730996 -196.500751 
L 159.850941 -190.717967 
L 161.970887 -187.825827 
L 164.090833 -162.624027 
L 166.210778 -160.197218 
L 168.330724 -148.443662 
L 170.45067 -144.564782 
L 172.570616 -142.305073 
L 174.690561 -141.871991 
L 176.810507 -138.216001 
L 178.930453 -140.188232 
L 181.050399 -138.381188 
L 183.170344 -138.81917 
L 185.29029 -137.803075 
L 187.410236 -138.532374 
L 189.530181 -132.581053 
L 191.650127 -139.207977 
L 193.770073 -138.911107 
L 195.890019 -138.789189 
L 198.009964 -137.674357 
L 200.12991 -138.528388 
L 202.249856 -136.475111 
L 204.369802 -137.216826 
L 206.489747 -136.143644 
L 208.609693 -136.985676 
L 210.729639 -135.103396 
L 212.849584 -137.289894 
L 214.96953 -136.37216 
L 217.089476 -137.673471 
L 219.209422 -139.097743 
L 221.329367 -143.752067 
L 223.449313 -155.800238 
L 225.569259 -174.285095 
L 227.689205 -191.624494 
L 229.80915 -199.446797 
L 231.929096 -199.943821 
L 234.049042 -202.178459 
L 236.168987 -201.49708 
L 238.288933 -203.075961 
L 240.408879 -199.322239 
L 242.528825 -202.403527 
L 244.64877 -201.367443 
L 246.768716 -202.628902 
L 248.888662 -201.621987 
L 251.008608 -202.693716 
L 253.128553 -199.277794 
L 255.248499 -200.349481 
L 257.368445 -190.991935 
L 259.48839 -198.823295 
L 261.608336 -196.663878 
L 263.728282 -191.978353 
L 265.848228 -164.326238 
L 267.968173 -161.771728 
L 270.088119 -149.410474 
L 272.208065 -145.931786 
L 274.328011 -142.760342 
L 276.447956 -142.732726 
L 278.567902 -138.239787 
L 280.687848 -141.103729 
L 282.807793 -138.986633 
L 284.927739 -139.458481 
L 287.047685 -137.450364 
L 289.167631 -138.877324 
L 291.287576 -136.066604 
L 293.407522 -137.494374 
L 295.527468 -136.860803 
L 297.647414 -137.269316 
L 299.767359 -132.528968 
L 301.887305 -138.188596 
L 304.007251 -136.669308 
L 306.127196 -139.102559 
L 308.247142 -137.741699 
L 310.367088 -138.19624 
L 312.487034 -137.394493 
L 314.606979 -138.529168 
L 316.726925 -136.435038 
L 318.846871 -138.399685 
L 320.966816 -138.834429 
L 323.086762 -143.911964 
L 325.206708 -155.692744 
L 327.326654 -174.039378 
L 329.446599 -190.057729 
L 331.566545 -198.160267 
L 333.686491 -198.778956 
L 335.806437 -201.344838 
L 337.926382 -200.492508 
L 340.046328 -202.653692 
L 342.166274 -199.400079 
L 344.286219 -201.925506 
L 346.406165 -201.707151 
L 348.526111 -202.73805 
L 350.646057 -200.967307 
L 352.766002 -201.601167 
L 354.885948 -198.252547 
L 357.005894 -200.977867 
L 359.12584 -196.279342 
L 361.245785 -198.55353 
L 363.365731 -193.905218 
L 365.485677 -190.044826 
L 367.605622 -152.576204 
L 369.725568 -160.64031 
L 371.845514 -152.118508 
L 373.96546 -148.21604 
L 376.085405 -143.844014 
L 378.205351 -143.659382 
L 380.325297 -140.445603 
L 382.445243 -141.850936 
L 384.565188 -139.381924 
L 386.685134 -139.583196 
L 388.80508 -138.062176 
L 390.925025 -139.323118 
L 393.044971 -136.351904 
L 395.164917 -138.205793 
L 397.284863 -136.91417 
L 399.404808 -137.698933 
L 401.524754 -136.504391 
L 403.6447 -137.163211 
L 405.764646 -135.343842 
L 407.884591 -137.021343 
L 410.004537 -136.355573 
L 412.124483 -137.340906 
L 414.244428 -136.237051 
L 416.364374 -137.824776 
L 418.48432 -134.795648 
L 420.604266 -138.055546 
L 422.724211 -139.123831 
L 424.844157 -144.495908 
L 426.964103 -155.762435 
L 429.084049 -173.774753 
L 431.203994 -190.89743 
L 433.32394 -199.089129 
L 435.443886 -198.642065 
L 437.563831 -201.440832 
L 439.683777 -200.171741 
L 441.803723 -202.283368 
L 443.923669 -198.456092 
L 446.043614 -201.683472 
L 448.16356 -202.036188 
L 450.283506 -202.678423 
L 452.403451 -199.826846 
L 454.523397 -200.063596 
L 456.643343 -195.852582 
L 458.763289 -198.480936 
L 460.883234 -195.565475 
L 463.00318 -198.684324 
L 465.123126 -193.442818 
L 467.243072 -190.327875 
L 469.363017 -163.334568 
L 471.482963 -161.187493 
L 473.602909 -148.516693 
L 475.722854 -144.856334 
L 477.8428 -142.334551 
L 479.962746 -141.772475 
L 482.082692 -138.011036 
L 484.202637 -140.457474 
L 486.322583 -138.006541 
L 488.442529 -139.290953 
L 490.562475 -136.519568 
L 492.68242 -138.614234 
L 494.802366 -135.841027 
L 496.922312 -137.944893 
L 499.042257 -136.699508 
L 501.162203 -137.346965 
L 503.282149 -136.100864 
L 505.402095 -137.122514 
L 507.52204 -135.187092 
L 509.641986 -136.9681 
L 511.761932 -134.108689 
L 513.881878 -137.481668 
L 516.001823 -136.451028 
L 518.121769 -138.749027 
L 520.241715 -137.120324 
L 522.36166 -138.399986 
L 524.481606 -138.689284 
L 526.601552 -143.648453 
L 528.721498 -155.087878 
L 530.841443 -173.302023 
L 532.961389 -188.633235 
L 535.081335 -196.746569 
L 537.201281 -197.927525 
L 539.321226 -200.78513 
L 541.441172 -199.406971 
L 543.561118 -201.575694 
L 545.681063 -187.810509 
L 547.801009 -199.242303 
L 549.920955 -203.490689 
L 552.040901 -205.223191 
L 554.160846 -199.285048 
L 556.280792 -202.649476 
L 558.400738 -198.591191 
L 560.520684 -201.829754 
L 562.640629 -199.689917 
L 564.760575 -201.573413 
L 566.880521 -196.491198 
L 569.000466 -193.370512 
L 571.120412 -166.719673 
L 573.240358 -165.161005 
L 575.360304 -158.079847 
L 577.480249 -155.929371 
L 579.600195 -152.117887 
L 581.720141 -149.860853 
L 583.840086 -140.896596 
L 585.960032 -142.07664 
L 588.079978 -139.815835 
L 590.199924 -140.424637 
L 592.319869 -138.487833 
L 594.439815 -139.381896 
L 596.559761 -136.389111 
L 598.679707 -138.183174 
L 600.799652 -136.383646 
L 602.919598 -137.389459 
L 605.039544 -133.891198 
L 607.159489 -137.953909 
L 609.279435 -136.264376 
L 611.399381 -138.176225 
L 613.519327 -137.359302 
L 615.639272 -137.855213 
L 617.759218 -136.78205 
L 619.879164 -138.392139 
L 621.99911 -137.501131 
L 624.119055 -138.677678 
L 626.239001 -139.712423 
L 628.358947 -141.509877 
L 630.478892 -147.772352 
L 632.598838 -170.07199 
L 634.718784 -187.587114 
L 636.83873 -194.758844 
L 638.958675 -194.895455 
L 641.078621 -197.867587 
L 643.198567 -197.570599 
L 645.318513 -199.535612 
L 647.438458 -196.585705 
L 649.558404 -199.759746 
L 651.67835 -197.962707 
L 653.798295 -200.311818 
L 655.918241 -194.803302 
L 658.038187 -199.468856 
L 660.158133 -198.663271 
L 662.278078 -199.282732 
L 664.398024 -191.789943 
L 666.51797 -190.703507 
L 668.637916 -169.788119 
L 670.757861 -165.077021 
L 672.877807 -159.897561 
L 674.997753 -161.926918 
L 677.117698 -154.722039 
L 679.237644 -151.9179 
L 681.35759 -149.38153 
L 683.477536 -148.870968 
L 685.597481 -140.115391 
L 687.717427 -141.109116 
L 689.837373 -139.385316 
L 691.957319 -140.085758 
L 694.077264 -138.403542 
L 696.19721 -139.251849 
L 698.317156 -137.223186 
L 700.437101 -138.584529 
L 702.557047 -137.476921 
L 704.676993 -137.766994 
L 706.796939 -137.248684 
L 708.916884 -137.648534 
L 711.03683 -136.587197 
L 713.156776 -137.414394 
L 715.276722 -136.702343 
L 717.396667 -137.620831 
L 719.516613 -137.046493 
L 721.636559 -138.673822 
L 723.756504 -137.505782 
L 725.87645 -139.010157 
L 727.996396 -139.356118 
L 730.116342 -140.286857 
L 732.236287 -145.923156 
L 734.356233 -166.699392 
L 736.476179 -185.652099 
L 738.596124 -193.348114 
L 740.71607 -193.513757 
L 742.836016 -196.771772 
L 744.955962 -198.074366 
L 747.075907 -198.743412 
L 749.195853 -195.350414 
L 751.315799 -196.923928 
L 753.435745 -195.118633 
L 755.55569 -194.298985 
L 757.675636 -187.5699 
L 759.795582 -186.021397 
L 761.915527 -166.398351 
L 764.035473 -162.688415 
L 766.155419 -158.40542 
L 768.275365 -158.648408 
L 770.39531 -154.194338 
L 772.515256 -151.495529 
L 774.635202 -143.679306 
L 776.755148 -143.235011 
L 778.875093 -141.678823 
L 780.995039 -142.094434 
L 783.114985 -138.744536 
L 785.23493 -141.055845 
L 787.354876 -138.40389 
L 789.474822 -140.874691 
L 791.594768 -138.664915 
L 793.714713 -139.64526 
L 795.834659 -137.888438 
L 795.834659 -283.100532 
L 795.834659 -283.100532 
L 793.714713 -281.01486 
L 791.594768 -282.17346 
L 789.474822 -283.363801 
L 787.354876 -284.0857 
L 785.23493 -285.761439 
L 783.114985 -284.18016 
L 780.995039 -286.207073 
L 778.875093 -288.076619 
L 776.755148 -292.788433 
L 774.635202 -297.699077 
L 772.515256 -308.865791 
L 770.39531 -314.940232 
L 768.275365 -343.339925 
L 766.155419 -346.260167 
L 764.035473 -349.327556 
L 761.915527 -357.20255 
L 759.795582 -389.624332 
L 757.675636 -396.511459 
L 755.55569 -398.694608 
L 753.435745 -401.650242 
L 751.315799 -403.711036 
L 749.195853 -400.990763 
L 747.075907 -404.057627 
L 744.955962 -403.320169 
L 742.836016 -402.433477 
L 740.71607 -401.279877 
L 738.596124 -401.957366 
L 736.476179 -397.915007 
L 734.356233 -379.577683 
L 732.236287 -330.117376 
L 730.116342 -299.327537 
L 727.996396 -284.113416 
L 725.87645 -280.427221 
L 723.756504 -279.239234 
L 721.636559 -279.129657 
L 719.516613 -279.56148 
L 717.396667 -279.80205 
L 715.276722 -279.218987 
L 713.156776 -279.978963 
L 711.03683 -280.4815 
L 708.916884 -279.486538 
L 706.796939 -280.281558 
L 704.676993 -279.574079 
L 702.557047 -279.263415 
L 700.437101 -279.979192 
L 698.317156 -279.678708 
L 696.19721 -281.177452 
L 694.077264 -281.31736 
L 691.957319 -281.233159 
L 689.837373 -280.999959 
L 687.717427 -283.471025 
L 685.597481 -283.872895 
L 683.477536 -293.205068 
L 681.35759 -298.076234 
L 679.237644 -303.811807 
L 677.117698 -311.280038 
L 674.997753 -344.046132 
L 672.877807 -348.997862 
L 670.757861 -361.053364 
L 668.637916 -372.777764 
L 666.51797 -397.93676 
L 664.398024 -402.545775 
L 662.278078 -405.775292 
L 660.158133 -406.930424 
L 658.038187 -407.968446 
L 655.918241 -406.95892 
L 653.798295 -407.791585 
L 651.67835 -405.778705 
L 649.558404 -407.332821 
L 647.438458 -406.770756 
L 645.318513 -408.082288 
L 643.198567 -406.957888 
L 641.078621 -406.639394 
L 638.958675 -404.541317 
L 636.83873 -404.78041 
L 634.718784 -400.546759 
L 632.598838 -390.826807 
L 630.478892 -344.77081 
L 628.358947 -305.936992 
L 626.239001 -286.903098 
L 624.119055 -282.028881 
L 621.99911 -281.088324 
L 619.879164 -279.490117 
L 617.759218 -279.628828 
L 615.639272 -280.998381 
L 613.519327 -280.100602 
L 611.399381 -283.2095 
L 609.279435 -284.60878 
L 607.159489 -281.635915 
L 605.039544 -280.739356 
L 602.919598 -279.496617 
L 600.799652 -279.85987 
L 598.679707 -280.689627 
L 596.559761 -280.043328 
L 594.439815 -280.206059 
L 592.319869 -279.501912 
L 590.199924 -281.964383 
L 588.079978 -281.067414 
L 585.960032 -284.569586 
L 583.840086 -287.806812 
L 581.720141 -297.631896 
L 579.600195 -302.605104 
L 577.480249 -311.77901 
L 575.360304 -322.198151 
L 573.240358 -358.326337 
L 571.120412 -371.268523 
L 569.000466 -397.854853 
L 566.880521 -405.540957 
L 564.760575 -408.742897 
L 562.640629 -409.231893 
L 560.520684 -410.008114 
L 558.400738 -408.551425 
L 556.280792 -411.657067 
L 554.160846 -410.551193 
L 552.040901 -415.806073 
L 549.920955 -413.785472 
L 547.801009 -413.996342 
L 545.681063 -407.133496 
L 543.561118 -408.835903 
L 541.441172 -408.879082 
L 539.321226 -410.682435 
L 537.201281 -408.22546 
L 535.081335 -406.718282 
L 532.961389 -402.941875 
L 530.841443 -394.837368 
L 528.721498 -360.641051 
L 526.601552 -323.064415 
L 524.481606 -290.750615 
L 522.36166 -284.372202 
L 520.241715 -281.223087 
L 518.121769 -281.577955 
L 516.001823 -281.050399 
L 513.881878 -281.744308 
L 511.761932 -279.605383 
L 509.641986 -280.40961 
L 507.52204 -281.440383 
L 505.402095 -281.488711 
L 503.282149 -281.084969 
L 501.162203 -280.654024 
L 499.042257 -280.925679 
L 496.922312 -280.926419 
L 494.802366 -281.508419 
L 492.68242 -281.465539 
L 490.562475 -281.433508 
L 488.442529 -284.810222 
L 486.322583 -282.626693 
L 484.202637 -287.11918 
L 482.082692 -287.647311 
L 479.962746 -289.668101 
L 477.8428 -292.503889 
L 475.722854 -299.648051 
L 473.602909 -310.371296 
L 471.482963 -345.916649 
L 469.363017 -357.06998 
L 467.243072 -393.795129 
L 465.123126 -400.659417 
L 463.00318 -406.028781 
L 460.883234 -406.822806 
L 458.763289 -407.754103 
L 456.643343 -406.570723 
L 454.523397 -410.402255 
L 452.403451 -410.745772 
L 450.283506 -412.473386 
L 448.16356 -412.039388 
L 446.043614 -410.112114 
L 443.923669 -408.326863 
L 441.803723 -410.784257 
L 439.683777 -410.334462 
L 437.563831 -411.242425 
L 435.443886 -408.820177 
L 433.32394 -409.599295 
L 431.203994 -405.082596 
L 429.084049 -398.949615 
L 426.964103 -362.855911 
L 424.844157 -323.834094 
L 422.724211 -295.351021 
L 420.604266 -286.245283 
L 418.48432 -280.385969 
L 416.364374 -280.999496 
L 414.244428 -280.014513 
L 412.124483 -279.225354 
L 410.004537 -279.253637 
L 407.884591 -280.600034 
L 405.764646 -280.963808 
L 403.6447 -281.715244 
L 401.524754 -280.513301 
L 399.404808 -280.707254 
L 397.284863 -282.282826 
L 395.164917 -282.513723 
L 393.044971 -281.373811 
L 390.925025 -282.747893 
L 388.80508 -282.758608 
L 386.685134 -285.554385 
L 384.565188 -283.76947 
L 382.445243 -288.629923 
L 380.325297 -289.362432 
L 378.205351 -290.845273 
L 376.085405 -293.707767 
L 373.96546 -304.067831 
L 371.845514 -316.198746 
L 369.725568 -351.121545 
L 367.605622 -355.49429 
L 365.485677 -394.96374 
L 363.365731 -401.885963 
L 361.245785 -406.796482 
L 359.12584 -408.660972 
L 357.005894 -411.737268 
L 354.885948 -410.274038 
L 352.766002 -412.285492 
L 350.646057 -410.891134 
L 348.526111 -413.636746 
L 346.406165 -412.056604 
L 344.286219 -410.143692 
L 342.166274 -410.381554 
L 340.046328 -411.270277 
L 337.926382 -410.513701 
L 335.806437 -410.447015 
L 333.686491 -408.866563 
L 331.566545 -409.674974 
L 329.446599 -403.874237 
L 327.326654 -398.034554 
L 325.206708 -366.20031 
L 323.086762 -322.507916 
L 320.966816 -292.136853 
L 318.846871 -284.506643 
L 316.726925 -282.444309 
L 314.606979 -281.1842 
L 312.487034 -280.385634 
L 310.367088 -280.839736 
L 308.247142 -279.852518 
L 306.127196 -282.38072 
L 304.007251 -283.304001 
L 301.887305 -283.581698 
L 299.767359 -280.599641 
L 297.647414 -280.417445 
L 295.527468 -280.481871 
L 293.407522 -280.732571 
L 291.287576 -279.995952 
L 289.167631 -281.866297 
L 287.047685 -282.680869 
L 284.927739 -281.695136 
L 282.807793 -281.837151 
L 280.687848 -284.541368 
L 278.567902 -285.953244 
L 276.447956 -287.781902 
L 274.328011 -291.671854 
L 272.208065 -297.690634 
L 270.088119 -310.064739 
L 267.968173 -346.954654 
L 265.848228 -360.319861 
L 263.728282 -398.079158 
L 261.608336 -405.9154 
L 259.48839 -408.727822 
L 257.368445 -408.602932 
L 255.248499 -410.57501 
L 253.128553 -411.575433 
L 251.008608 -413.362188 
L 248.888662 -411.972009 
L 246.768716 -412.927694 
L 244.64877 -412.775594 
L 242.528825 -411.870944 
L 240.408879 -410.198198 
L 238.288933 -411.122973 
L 236.168987 -411.056533 
L 234.049042 -409.598219 
L 231.929096 -409.569253 
L 229.80915 -410.373965 
L 227.689205 -405.532349 
L 225.569259 -397.226866 
L 223.449313 -363.098296 
L 221.329367 -322.363066 
L 219.209422 -292.169203 
L 217.089476 -283.715854 
L 214.96953 -282.42415 
L 212.849584 -279.986935 
L 210.729639 -280.336061 
L 208.609693 -279.041185 
L 206.489747 -279.04361 
L 204.369802 -279.076863 
L 202.249856 -279.852439 
L 200.12991 -279.421425 
L 198.009964 -280.306546 
L 195.890019 -283.789227 
L 193.770073 -284.23608 
L 191.650127 -284.771227 
L 189.530181 -280.014159 
L 187.410236 -281.153358 
L 185.29029 -282.265079 
L 183.170344 -281.892124 
L 181.050399 -281.542603 
L 178.930453 -285.818956 
L 176.810507 -285.491898 
L 174.690561 -287.026425 
L 172.570616 -289.298261 
L 170.45067 -297.695766 
L 168.330724 -307.485015 
L 166.210778 -344.117892 
L 164.090833 -356.013193 
L 161.970887 -389.395793 
L 159.850941 -396.840062 
L 157.730996 -400.253356 
L 155.61105 -402.619983 
L 153.491104 -405.218321 
L 151.371158 -403.869713 
L 149.251213 -408.973871 
L 147.131267 -407.508056 
L 145.011321 -408.855803 
L 142.891376 -408.827287 
L 140.77143 -410.213513 
L 138.651484 -407.671317 
L 136.531538 -409.82407 
L 134.411593 -408.411164 
L 132.291647 -408.595158 
L 130.171701 -407.823538 
L 128.051755 -409.292385 
L 125.93181 -406.118562 
L 123.811864 -397.709789 
L 121.691918 -359.647279 
L 119.571973 -317.913557 
L 117.452027 -289.793839 
L 115.332081 -282.829788 
L 113.212135 -280.724595 
L 111.09219 -278.827903 
L 108.972244 -278.805069 
L 106.852298 -280.005543 
L 104.732352 -279.639853 
L 102.612407 -279.641081 
L 100.492461 -280.472629 
L 98.372515 -278.314866 
L 96.25257 -279.750506 
L 94.132624 -279.76594 
L 92.012678 -280.957733 
L 89.892732 -280.673995 
L 87.772787 -280.67716 
L 85.652841 -281.652846 
z
" style="stroke: #ff0000; stroke-opacity: 0.2"/>
    </defs>
    <g clip-path="url(#p3dec0bfebd)">
     <use xlink:href="#m62266a7f72" x="0" y="453.244198" style="fill: #ff0000; fill-opacity: 0.2; stroke: #ff0000; stroke-opacity: 0.2"/>
    </g>
   </g>
   <g id="patch_3">
    <path d="M 85.652841 354.958125 
L 85.652841 22.318125 
L 111.09219 22.318125 
L 111.09219 354.958125 
z
" clip-path="url(#p3dec0bfebd)" style="opacity: 0.3; stroke: #000000; stroke-linejoin: miter"/>
   </g>
   <g id="patch_4">
    <path d="M 161.970887 354.958125 
L 161.970887 22.318125 
L 212.849584 22.318125 
L 212.849584 354.958125 
z
" clip-path="url(#p3dec0bfebd)" style="opacity: 0.3; stroke: #000000; stroke-linejoin: miter"/>
   </g>
   <g id="patch_5">
    <path d="M 263.728282 354.958125 
L 263.728282 22.318125 
L 314.606979 22.318125 
L 314.606979 354.958125 
z
" clip-path="url(#p3dec0bfebd)" style="opacity: 0.3; stroke: #000000; stroke-linejoin: miter"/>
   </g>
   <g id="patch_6">
    <path d="M 365.485677 354.958125 
L 365.485677 22.318125 
L 416.364374 22.318125 
L 416.364374 354.958125 
z
" clip-path="url(#p3dec0bfebd)" style="opacity: 0.3; stroke: #000000; stroke-linejoin: miter"/>
   </g>
   <g id="patch_7">
    <path d="M 467.243072 354.958125 
L 467.243072 22.318125 
L 518.121769 22.318125 
L 518.121769 354.958125 
z
" clip-path="url(#p3dec0bfebd)" style="opacity: 0.3; stroke: #000000; stroke-linejoin: miter"/>
   </g>
   <g id="patch_8">
    <path d="M 569.000466 354.958125 
L 569.000466 22.318125 
L 619.879164 22.318125 
L 619.879164 354.958125 
z
" clip-path="url(#p3dec0bfebd)" style="opacity: 0.3; stroke: #000000; stroke-linejoin: miter"/>
   </g>
   <g id="patch_9">
    <path d="M 670.757861 354.958125 
L 670.757861 22.318125 
L 721.636559 22.318125 
L 721.636559 354.958125 
z
" clip-path="url(#p3dec0bfebd)" style="opacity: 0.3; stroke: #000000; stroke-linejoin: miter"/>
   </g>
   <g id="patch_10">
    <path d="M 772.515256 354.958125 
L 772.515256 22.318125 
L 795.834659 22.318125 
L 795.834659 354.958125 
z
" clip-path="url(#p3dec0bfebd)" style="opacity: 0.3; stroke: #000000; stroke-linejoin: miter"/>
   </g>
   <g id="matplotlib.axis_1">
    <g id="xtick_1">
     <g id="line2d_1">
      <path d="M 85.652841 354.958125 
L 85.652841 22.318125 
" clip-path="url(#p3dec0bfebd)" style="fill: none; stroke: #b0b0b0; stroke-width: 0.8; stroke-linecap: square"/>
     </g>
     <g id="line2d_2">
      <defs>
       <path id="m0a02895a47" d="M 0 0 
L 0 3.5 
" style="stroke: #000000; stroke-width: 0.8"/>
      </defs>
      <g>
       <use xlink:href="#m0a02895a47" x="85.652841" y="354.958125" style="stroke: #000000; stroke-width: 0.8"/>
      </g>
     </g>
     <g id="text_1">
      <!-- Monday 00:00 -->
      <g transform="translate(33.640718 417.872594) rotate(-45) scale(0.1 -0.1)">
       <defs>
        <path id="DejaVuSans-4d" d="M 628 4666 
L 1569 4666 
L 2759 1491 
L 3956 4666 
L 4897 4666 
L 4897 0 
L 4281 0 
L 4281 4097 
L 3078 897 
L 2444 897 
L 1241 4097 
L 1241 0 
L 628 0 
L 628 4666 
z
" transform="scale(0.015625)"/>
        <path id="DejaVuSans-6f" d="M 1959 3097 
Q 1497 3097 1228 2736 
Q 959 2375 959 1747 
Q 959 1119 1226 758 
Q 1494 397 1959 397 
Q 2419 397 2687 759 
Q 2956 1122 2956 1747 
Q 2956 2369 2687 2733 
Q 2419 3097 1959 3097 
z
M 1959 3584 
Q 2709 3584 3137 3096 
Q 3566 2609 3566 1747 
Q 3566 888 3137 398 
Q 2709 -91 1959 -91 
Q 1206 -91 779 398 
Q 353 888 353 1747 
Q 353 2609 779 3096 
Q 1206 3584 1959 3584 
z
" transform="scale(0.015625)"/>
        <path id="DejaVuSans-6e" d="M 3513 2113 
L 3513 0 
L 2938 0 
L 2938 2094 
Q 2938 2591 2744 2837 
Q 2550 3084 2163 3084 
Q 1697 3084 1428 2787 
Q 1159 2491 1159 1978 
L 1159 0 
L 581 0 
L 581 3500 
L 1159 3500 
L 1159 2956 
Q 1366 3272 1645 3428 
Q 1925 3584 2291 3584 
Q 2894 3584 3203 3211 
Q 3513 2838 3513 2113 
z
" transform="scale(0.015625)"/>
        <path id="DejaVuSans-64" d="M 2906 2969 
L 2906 4863 
L 3481 4863 
L 3481 0 
L 2906 0 
L 2906 525 
Q 2725 213 2448 61 
Q 2172 -91 1784 -91 
Q 1150 -91 751 415 
Q 353 922 353 1747 
Q 353 2572 751 3078 
Q 1150 3584 1784 3584 
Q 2172 3584 2448 3432 
Q 2725 3281 2906 2969 
z
M 947 1747 
Q 947 1113 1208 752 
Q 1469 391 1925 391 
Q 2381 391 2643 752 
Q 2906 1113 2906 1747 
Q 2906 2381 2643 2742 
Q 2381 3103 1925 3103 
Q 1469 3103 1208 2742 
Q 947 2381 947 1747 
z
" transform="scale(0.015625)"/>
        <path id="DejaVuSans-61" d="M 2194 1759 
Q 1497 1759 1228 1600 
Q 959 1441 959 1056 
Q 959 750 1161 570 
Q 1363 391 1709 391 
Q 2188 391 2477 730 
Q 2766 1069 2766 1631 
L 2766 1759 
L 2194 1759 
z
M 3341 1997 
L 3341 0 
L 2766 0 
L 2766 531 
Q 2569 213 2275 61 
Q 1981 -91 1556 -91 
Q 1019 -91 701 211 
Q 384 513 384 1019 
Q 384 1609 779 1909 
Q 1175 2209 1959 2209 
L 2766 2209 
L 2766 2266 
Q 2766 2663 2505 2880 
Q 2244 3097 1772 3097 
Q 1472 3097 1187 3025 
Q 903 2953 641 2809 
L 641 3341 
Q 956 3463 1253 3523 
Q 1550 3584 1831 3584 
Q 2591 3584 2966 3190 
Q 3341 2797 3341 1997 
z
" transform="scale(0.015625)"/>
        <path id="DejaVuSans-79" d="M 2059 -325 
Q 1816 -950 1584 -1140 
Q 1353 -1331 966 -1331 
L 506 -1331 
L 506 -850 
L 844 -850 
Q 1081 -850 1212 -737 
Q 1344 -625 1503 -206 
L 1606 56 
L 191 3500 
L 800 3500 
L 1894 763 
L 2988 3500 
L 3597 3500 
L 2059 -325 
z
" transform="scale(0.015625)"/>
        <path id="DejaVuSans-20" transform="scale(0.015625)"/>
        <path id="DejaVuSans-30" d="M 2034 4250 
Q 1547 4250 1301 3770 
Q 1056 3291 1056 2328 
Q 1056 1369 1301 889 
Q 1547 409 2034 409 
Q 2525 409 2770 889 
Q 3016 1369 3016 2328 
Q 3016 3291 2770 3770 
Q 2525 4250 2034 4250 
z
M 2034 4750 
Q 2819 4750 3233 4129 
Q 3647 3509 3647 2328 
Q 3647 1150 3233 529 
Q 2819 -91 2034 -91 
Q 1250 -91 836 529 
Q 422 1150 422 2328 
Q 422 3509 836 4129 
Q 1250 4750 2034 4750 
z
" transform="scale(0.015625)"/>
        <path id="DejaVuSans-3a" d="M 750 794 
L 1409 794 
L 1409 0 
L 750 0 
L 750 794 
z
M 750 3309 
L 1409 3309 
L 1409 2516 
L 750 2516 
L 750 3309 
z
" transform="scale(0.015625)"/>
       </defs>
       <use xlink:href="#DejaVuSans-4d"/>
       <use xlink:href="#DejaVuSans-6f" x="86.279297"/>
       <use xlink:href="#DejaVuSans-6e" x="147.460938"/>
       <use xlink:href="#DejaVuSans-64" x="210.839844"/>
       <use xlink:href="#DejaVuSans-61" x="274.316406"/>
       <use xlink:href="#DejaVuSans-79" x="335.595703"/>
       <use xlink:href="#DejaVuSans-20" x="394.775391"/>
       <use xlink:href="#DejaVuSans-30" x="426.5625"/>
       <use xlink:href="#DejaVuSans-30" x="490.185547"/>
       <use xlink:href="#DejaVuSans-3a" x="553.808594"/>
       <use xlink:href="#DejaVuSans-30" x="587.5"/>
       <use xlink:href="#DejaVuSans-30" x="651.123047"/>
      </g>
     </g>
    </g>
    <g id="xtick_2">
     <g id="line2d_3">
      <path d="M 111.09219 354.958125 
L 111.09219 22.318125 
" clip-path="url(#p3dec0bfebd)" style="fill: none; stroke: #b0b0b0; stroke-width: 0.8; stroke-linecap: square"/>
     </g>
     <g id="line2d_4">
      <g>
       <use xlink:href="#m0a02895a47" x="111.09219" y="354.958125" style="stroke: #000000; stroke-width: 0.8"/>
      </g>
     </g>
     <g id="text_2">
      <!-- 06:00 -->
      <g transform="translate(89.243695 387.708965) rotate(-45) scale(0.1 -0.1)">
       <defs>
        <path id="DejaVuSans-36" d="M 2113 2584 
Q 1688 2584 1439 2293 
Q 1191 2003 1191 1497 
Q 1191 994 1439 701 
Q 1688 409 2113 409 
Q 2538 409 2786 701 
Q 3034 994 3034 1497 
Q 3034 2003 2786 2293 
Q 2538 2584 2113 2584 
z
M 3366 4563 
L 3366 3988 
Q 3128 4100 2886 4159 
Q 2644 4219 2406 4219 
Q 1781 4219 1451 3797 
Q 1122 3375 1075 2522 
Q 1259 2794 1537 2939 
Q 1816 3084 2150 3084 
Q 2853 3084 3261 2657 
Q 3669 2231 3669 1497 
Q 3669 778 3244 343 
Q 2819 -91 2113 -91 
Q 1303 -91 875 529 
Q 447 1150 447 2328 
Q 447 3434 972 4092 
Q 1497 4750 2381 4750 
Q 2619 4750 2861 4703 
Q 3103 4656 3366 4563 
z
" transform="scale(0.015625)"/>
       </defs>
       <use xlink:href="#DejaVuSans-30"/>
       <use xlink:href="#DejaVuSans-36" x="63.623047"/>
       <use xlink:href="#DejaVuSans-3a" x="127.246094"/>
       <use xlink:href="#DejaVuSans-30" x="160.9375"/>
       <use xlink:href="#DejaVuSans-30" x="224.560547"/>
      </g>
     </g>
    </g>
    <g id="xtick_3">
     <g id="line2d_5">
      <path d="M 136.531538 354.958125 
L 136.531538 22.318125 
" clip-path="url(#p3dec0bfebd)" style="fill: none; stroke: #b0b0b0; stroke-width: 0.8; stroke-linecap: square"/>
     </g>
     <g id="line2d_6">
      <g>
       <use xlink:href="#m0a02895a47" x="136.531538" y="354.958125" style="stroke: #000000; stroke-width: 0.8"/>
      </g>
     </g>
     <g id="text_3">
      <!-- 12:00 -->
      <g transform="translate(114.683044 387.708965) rotate(-45) scale(0.1 -0.1)">
       <defs>
        <path id="DejaVuSans-31" d="M 794 531 
L 1825 531 
L 1825 4091 
L 703 3866 
L 703 4441 
L 1819 4666 
L 2450 4666 
L 2450 531 
L 3481 531 
L 3481 0 
L 794 0 
L 794 531 
z
" transform="scale(0.015625)"/>
        <path id="DejaVuSans-32" d="M 1228 531 
L 3431 531 
L 3431 0 
L 469 0 
L 469 531 
Q 828 903 1448 1529 
Q 2069 2156 2228 2338 
Q 2531 2678 2651 2914 
Q 2772 3150 2772 3378 
Q 2772 3750 2511 3984 
Q 2250 4219 1831 4219 
Q 1534 4219 1204 4116 
Q 875 4013 500 3803 
L 500 4441 
Q 881 4594 1212 4672 
Q 1544 4750 1819 4750 
Q 2544 4750 2975 4387 
Q 3406 4025 3406 3419 
Q 3406 3131 3298 2873 
Q 3191 2616 2906 2266 
Q 2828 2175 2409 1742 
Q 1991 1309 1228 531 
z
" transform="scale(0.015625)"/>
       </defs>
       <use xlink:href="#DejaVuSans-31"/>
       <use xlink:href="#DejaVuSans-32" x="63.623047"/>
       <use xlink:href="#DejaVuSans-3a" x="127.246094"/>
       <use xlink:href="#DejaVuSans-30" x="160.9375"/>
       <use xlink:href="#DejaVuSans-30" x="224.560547"/>
      </g>
     </g>
    </g>
    <g id="xtick_4">
     <g id="line2d_7">
      <path d="M 161.970887 354.958125 
L 161.970887 22.318125 
" clip-path="url(#p3dec0bfebd)" style="fill: none; stroke: #b0b0b0; stroke-width: 0.8; stroke-linecap: square"/>
     </g>
     <g id="line2d_8">
      <g>
       <use xlink:href="#m0a02895a47" x="161.970887" y="354.958125" style="stroke: #000000; stroke-width: 0.8"/>
      </g>
     </g>
     <g id="text_4">
      <!-- 18:00 -->
      <g transform="translate(140.122392 387.708965) rotate(-45) scale(0.1 -0.1)">
       <defs>
        <path id="DejaVuSans-38" d="M 2034 2216 
Q 1584 2216 1326 1975 
Q 1069 1734 1069 1313 
Q 1069 891 1326 650 
Q 1584 409 2034 409 
Q 2484 409 2743 651 
Q 3003 894 3003 1313 
Q 3003 1734 2745 1975 
Q 2488 2216 2034 2216 
z
M 1403 2484 
Q 997 2584 770 2862 
Q 544 3141 544 3541 
Q 544 4100 942 4425 
Q 1341 4750 2034 4750 
Q 2731 4750 3128 4425 
Q 3525 4100 3525 3541 
Q 3525 3141 3298 2862 
Q 3072 2584 2669 2484 
Q 3125 2378 3379 2068 
Q 3634 1759 3634 1313 
Q 3634 634 3220 271 
Q 2806 -91 2034 -91 
Q 1263 -91 848 271 
Q 434 634 434 1313 
Q 434 1759 690 2068 
Q 947 2378 1403 2484 
z
M 1172 3481 
Q 1172 3119 1398 2916 
Q 1625 2713 2034 2713 
Q 2441 2713 2670 2916 
Q 2900 3119 2900 3481 
Q 2900 3844 2670 4047 
Q 2441 4250 2034 4250 
Q 1625 4250 1398 4047 
Q 1172 3844 1172 3481 
z
" transform="scale(0.015625)"/>
       </defs>
       <use xlink:href="#DejaVuSans-31"/>
       <use xlink:href="#DejaVuSans-38" x="63.623047"/>
       <use xlink:href="#DejaVuSans-3a" x="127.246094"/>
       <use xlink:href="#DejaVuSans-30" x="160.9375"/>
       <use xlink:href="#DejaVuSans-30" x="224.560547"/>
      </g>
     </g>
    </g>
    <g id="xtick_5">
     <g id="line2d_9">
      <path d="M 187.410236 354.958125 
L 187.410236 22.318125 
" clip-path="url(#p3dec0bfebd)" style="fill: none; stroke: #b0b0b0; stroke-width: 0.8; stroke-linecap: square"/>
     </g>
     <g id="line2d_10">
      <g>
       <use xlink:href="#m0a02895a47" x="187.410236" y="354.958125" style="stroke: #000000; stroke-width: 0.8"/>
      </g>
     </g>
     <g id="text_5">
      <!-- Tuesday 00:00 -->
      <g transform="translate(134.54185 418.728856) rotate(-45) scale(0.1 -0.1)">
       <defs>
        <path id="DejaVuSans-54" d="M -19 4666 
L 3928 4666 
L 3928 4134 
L 2272 4134 
L 2272 0 
L 1638 0 
L 1638 4134 
L -19 4134 
L -19 4666 
z
" transform="scale(0.015625)"/>
        <path id="DejaVuSans-75" d="M 544 1381 
L 544 3500 
L 1119 3500 
L 1119 1403 
Q 1119 906 1312 657 
Q 1506 409 1894 409 
Q 2359 409 2629 706 
Q 2900 1003 2900 1516 
L 2900 3500 
L 3475 3500 
L 3475 0 
L 2900 0 
L 2900 538 
Q 2691 219 2414 64 
Q 2138 -91 1772 -91 
Q 1169 -91 856 284 
Q 544 659 544 1381 
z
M 1991 3584 
L 1991 3584 
z
" transform="scale(0.015625)"/>
        <path id="DejaVuSans-65" d="M 3597 1894 
L 3597 1613 
L 953 1613 
Q 991 1019 1311 708 
Q 1631 397 2203 397 
Q 2534 397 2845 478 
Q 3156 559 3463 722 
L 3463 178 
Q 3153 47 2828 -22 
Q 2503 -91 2169 -91 
Q 1331 -91 842 396 
Q 353 884 353 1716 
Q 353 2575 817 3079 
Q 1281 3584 2069 3584 
Q 2775 3584 3186 3129 
Q 3597 2675 3597 1894 
z
M 3022 2063 
Q 3016 2534 2758 2815 
Q 2500 3097 2075 3097 
Q 1594 3097 1305 2825 
Q 1016 2553 972 2059 
L 3022 2063 
z
" transform="scale(0.015625)"/>
        <path id="DejaVuSans-73" d="M 2834 3397 
L 2834 2853 
Q 2591 2978 2328 3040 
Q 2066 3103 1784 3103 
Q 1356 3103 1142 2972 
Q 928 2841 928 2578 
Q 928 2378 1081 2264 
Q 1234 2150 1697 2047 
L 1894 2003 
Q 2506 1872 2764 1633 
Q 3022 1394 3022 966 
Q 3022 478 2636 193 
Q 2250 -91 1575 -91 
Q 1294 -91 989 -36 
Q 684 19 347 128 
L 347 722 
Q 666 556 975 473 
Q 1284 391 1588 391 
Q 1994 391 2212 530 
Q 2431 669 2431 922 
Q 2431 1156 2273 1281 
Q 2116 1406 1581 1522 
L 1381 1569 
Q 847 1681 609 1914 
Q 372 2147 372 2553 
Q 372 3047 722 3315 
Q 1072 3584 1716 3584 
Q 2034 3584 2315 3537 
Q 2597 3491 2834 3397 
z
" transform="scale(0.015625)"/>
       </defs>
       <use xlink:href="#DejaVuSans-54"/>
       <use xlink:href="#DejaVuSans-75" x="45.958984"/>
       <use xlink:href="#DejaVuSans-65" x="109.337891"/>
       <use xlink:href="#DejaVuSans-73" x="170.861328"/>
       <use xlink:href="#DejaVuSans-64" x="222.960938"/>
       <use xlink:href="#DejaVuSans-61" x="286.4375"/>
       <use xlink:href="#DejaVuSans-79" x="347.716797"/>
       <use xlink:href="#DejaVuSans-20" x="406.896484"/>
       <use xlink:href="#DejaVuSans-30" x="438.683594"/>
       <use xlink:href="#DejaVuSans-30" x="502.306641"/>
       <use xlink:href="#DejaVuSans-3a" x="565.929688"/>
       <use xlink:href="#DejaVuSans-30" x="599.621094"/>
       <use xlink:href="#DejaVuSans-30" x="663.244141"/>
      </g>
     </g>
    </g>
    <g id="xtick_6">
     <g id="line2d_11">
      <path d="M 212.849584 354.958125 
L 212.849584 22.318125 
" clip-path="url(#p3dec0bfebd)" style="fill: none; stroke: #b0b0b0; stroke-width: 0.8; stroke-linecap: square"/>
     </g>
     <g id="line2d_12">
      <g>
       <use xlink:href="#m0a02895a47" x="212.849584" y="354.958125" style="stroke: #000000; stroke-width: 0.8"/>
      </g>
     </g>
     <g id="text_6">
      <!-- 06:00 -->
      <g transform="translate(191.00109 387.708965) rotate(-45) scale(0.1 -0.1)">
       <use xlink:href="#DejaVuSans-30"/>
       <use xlink:href="#DejaVuSans-36" x="63.623047"/>
       <use xlink:href="#DejaVuSans-3a" x="127.246094"/>
       <use xlink:href="#DejaVuSans-30" x="160.9375"/>
       <use xlink:href="#DejaVuSans-30" x="224.560547"/>
      </g>
     </g>
    </g>
    <g id="xtick_7">
     <g id="line2d_13">
      <path d="M 238.288933 354.958125 
L 238.288933 22.318125 
" clip-path="url(#p3dec0bfebd)" style="fill: none; stroke: #b0b0b0; stroke-width: 0.8; stroke-linecap: square"/>
     </g>
     <g id="line2d_14">
      <g>
       <use xlink:href="#m0a02895a47" x="238.288933" y="354.958125" style="stroke: #000000; stroke-width: 0.8"/>
      </g>
     </g>
     <g id="text_7">
      <!-- 12:00 -->
      <g transform="translate(216.440438 387.708965) rotate(-45) scale(0.1 -0.1)">
       <use xlink:href="#DejaVuSans-31"/>
       <use xlink:href="#DejaVuSans-32" x="63.623047"/>
       <use xlink:href="#DejaVuSans-3a" x="127.246094"/>
       <use xlink:href="#DejaVuSans-30" x="160.9375"/>
       <use xlink:href="#DejaVuSans-30" x="224.560547"/>
      </g>
     </g>
    </g>
    <g id="xtick_8">
     <g id="line2d_15">
      <path d="M 263.728282 354.958125 
L 263.728282 22.318125 
" clip-path="url(#p3dec0bfebd)" style="fill: none; stroke: #b0b0b0; stroke-width: 0.8; stroke-linecap: square"/>
     </g>
     <g id="line2d_16">
      <g>
       <use xlink:href="#m0a02895a47" x="263.728282" y="354.958125" style="stroke: #000000; stroke-width: 0.8"/>
      </g>
     </g>
     <g id="text_8">
      <!-- 18:00 -->
      <g transform="translate(241.879787 387.708965) rotate(-45) scale(0.1 -0.1)">
       <use xlink:href="#DejaVuSans-31"/>
       <use xlink:href="#DejaVuSans-38" x="63.623047"/>
       <use xlink:href="#DejaVuSans-3a" x="127.246094"/>
       <use xlink:href="#DejaVuSans-30" x="160.9375"/>
       <use xlink:href="#DejaVuSans-30" x="224.560547"/>
      </g>
     </g>
    </g>
    <g id="xtick_9">
     <g id="line2d_17">
      <path d="M 289.167631 354.958125 
L 289.167631 22.318125 
" clip-path="url(#p3dec0bfebd)" style="fill: none; stroke: #b0b0b0; stroke-width: 0.8; stroke-linecap: square"/>
     </g>
     <g id="line2d_18">
      <g>
       <use xlink:href="#m0a02895a47" x="289.167631" y="354.958125" style="stroke: #000000; stroke-width: 0.8"/>
      </g>
     </g>
     <g id="text_9">
      <!-- Wednesday 00:00 -->
      <g transform="translate(224.132589 430.895512) rotate(-45) scale(0.1 -0.1)">
       <defs>
        <path id="DejaVuSans-57" d="M 213 4666 
L 850 4666 
L 1831 722 
L 2809 4666 
L 3519 4666 
L 4500 722 
L 5478 4666 
L 6119 4666 
L 4947 0 
L 4153 0 
L 3169 4050 
L 2175 0 
L 1381 0 
L 213 4666 
z
" transform="scale(0.015625)"/>
       </defs>
       <use xlink:href="#DejaVuSans-57"/>
       <use xlink:href="#DejaVuSans-65" x="93.001953"/>
       <use xlink:href="#DejaVuSans-64" x="154.525391"/>
       <use xlink:href="#DejaVuSans-6e" x="218.001953"/>
       <use xlink:href="#DejaVuSans-65" x="281.380859"/>
       <use xlink:href="#DejaVuSans-73" x="342.904297"/>
       <use xlink:href="#DejaVuSans-64" x="395.003906"/>
       <use xlink:href="#DejaVuSans-61" x="458.480469"/>
       <use xlink:href="#DejaVuSans-79" x="519.759766"/>
       <use xlink:href="#DejaVuSans-20" x="578.939453"/>
       <use xlink:href="#DejaVuSans-30" x="610.726562"/>
       <use xlink:href="#DejaVuSans-30" x="674.349609"/>
       <use xlink:href="#DejaVuSans-3a" x="737.972656"/>
       <use xlink:href="#DejaVuSans-30" x="771.664062"/>
       <use xlink:href="#DejaVuSans-30" x="835.287109"/>
      </g>
     </g>
    </g>
    <g id="xtick_10">
     <g id="line2d_19">
      <path d="M 314.606979 354.958125 
L 314.606979 22.318125 
" clip-path="url(#p3dec0bfebd)" style="fill: none; stroke: #b0b0b0; stroke-width: 0.8; stroke-linecap: square"/>
     </g>
     <g id="line2d_20">
      <g>
       <use xlink:href="#m0a02895a47" x="314.606979" y="354.958125" style="stroke: #000000; stroke-width: 0.8"/>
      </g>
     </g>
     <g id="text_10">
      <!-- 06:00 -->
      <g transform="translate(292.758485 387.708965) rotate(-45) scale(0.1 -0.1)">
       <use xlink:href="#DejaVuSans-30"/>
       <use xlink:href="#DejaVuSans-36" x="63.623047"/>
       <use xlink:href="#DejaVuSans-3a" x="127.246094"/>
       <use xlink:href="#DejaVuSans-30" x="160.9375"/>
       <use xlink:href="#DejaVuSans-30" x="224.560547"/>
      </g>
     </g>
    </g>
    <g id="xtick_11">
     <g id="line2d_21">
      <path d="M 340.046328 354.958125 
L 340.046328 22.318125 
" clip-path="url(#p3dec0bfebd)" style="fill: none; stroke: #b0b0b0; stroke-width: 0.8; stroke-linecap: square"/>
     </g>
     <g id="line2d_22">
      <g>
       <use xlink:href="#m0a02895a47" x="340.046328" y="354.958125" style="stroke: #000000; stroke-width: 0.8"/>
      </g>
     </g>
     <g id="text_11">
      <!-- 12:00 -->
      <g transform="translate(318.197833 387.708965) rotate(-45) scale(0.1 -0.1)">
       <use xlink:href="#DejaVuSans-31"/>
       <use xlink:href="#DejaVuSans-32" x="63.623047"/>
       <use xlink:href="#DejaVuSans-3a" x="127.246094"/>
       <use xlink:href="#DejaVuSans-30" x="160.9375"/>
       <use xlink:href="#DejaVuSans-30" x="224.560547"/>
      </g>
     </g>
    </g>
    <g id="xtick_12">
     <g id="line2d_23">
      <path d="M 365.485677 354.958125 
L 365.485677 22.318125 
" clip-path="url(#p3dec0bfebd)" style="fill: none; stroke: #b0b0b0; stroke-width: 0.8; stroke-linecap: square"/>
     </g>
     <g id="line2d_24">
      <g>
       <use xlink:href="#m0a02895a47" x="365.485677" y="354.958125" style="stroke: #000000; stroke-width: 0.8"/>
      </g>
     </g>
     <g id="text_12">
      <!-- 18:00 -->
      <g transform="translate(343.637182 387.708965) rotate(-45) scale(0.1 -0.1)">
       <use xlink:href="#DejaVuSans-31"/>
       <use xlink:href="#DejaVuSans-38" x="63.623047"/>
       <use xlink:href="#DejaVuSans-3a" x="127.246094"/>
       <use xlink:href="#DejaVuSans-30" x="160.9375"/>
       <use xlink:href="#DejaVuSans-30" x="224.560547"/>
      </g>
     </g>
    </g>
    <g id="xtick_13">
     <g id="line2d_25">
      <path d="M 390.925025 354.958125 
L 390.925025 22.318125 
" clip-path="url(#p3dec0bfebd)" style="fill: none; stroke: #b0b0b0; stroke-width: 0.8; stroke-linecap: square"/>
     </g>
     <g id="line2d_26">
      <g>
       <use xlink:href="#m0a02895a47" x="390.925025" y="354.958125" style="stroke: #000000; stroke-width: 0.8"/>
      </g>
     </g>
     <g id="text_13">
      <!-- Thursday 00:00 -->
      <g transform="translate(333.949897 422.835599) rotate(-45) scale(0.1 -0.1)">
       <defs>
        <path id="DejaVuSans-68" d="M 3513 2113 
L 3513 0 
L 2938 0 
L 2938 2094 
Q 2938 2591 2744 2837 
Q 2550 3084 2163 3084 
Q 1697 3084 1428 2787 
Q 1159 2491 1159 1978 
L 1159 0 
L 581 0 
L 581 4863 
L 1159 4863 
L 1159 2956 
Q 1366 3272 1645 3428 
Q 1925 3584 2291 3584 
Q 2894 3584 3203 3211 
Q 3513 2838 3513 2113 
z
" transform="scale(0.015625)"/>
        <path id="DejaVuSans-72" d="M 2631 2963 
Q 2534 3019 2420 3045 
Q 2306 3072 2169 3072 
Q 1681 3072 1420 2755 
Q 1159 2438 1159 1844 
L 1159 0 
L 581 0 
L 581 3500 
L 1159 3500 
L 1159 2956 
Q 1341 3275 1631 3429 
Q 1922 3584 2338 3584 
Q 2397 3584 2469 3576 
Q 2541 3569 2628 3553 
L 2631 2963 
z
" transform="scale(0.015625)"/>
       </defs>
       <use xlink:href="#DejaVuSans-54"/>
       <use xlink:href="#DejaVuSans-68" x="61.083984"/>
       <use xlink:href="#DejaVuSans-75" x="124.462891"/>
       <use xlink:href="#DejaVuSans-72" x="187.841797"/>
       <use xlink:href="#DejaVuSans-73" x="228.955078"/>
       <use xlink:href="#DejaVuSans-64" x="281.054688"/>
       <use xlink:href="#DejaVuSans-61" x="344.53125"/>
       <use xlink:href="#DejaVuSans-79" x="405.810547"/>
       <use xlink:href="#DejaVuSans-20" x="464.990234"/>
       <use xlink:href="#DejaVuSans-30" x="496.777344"/>
       <use xlink:href="#DejaVuSans-30" x="560.400391"/>
       <use xlink:href="#DejaVuSans-3a" x="624.023438"/>
       <use xlink:href="#DejaVuSans-30" x="657.714844"/>
       <use xlink:href="#DejaVuSans-30" x="721.337891"/>
      </g>
     </g>
    </g>
    <g id="xtick_14">
     <g id="line2d_27">
      <path d="M 416.364374 354.958125 
L 416.364374 22.318125 
" clip-path="url(#p3dec0bfebd)" style="fill: none; stroke: #b0b0b0; stroke-width: 0.8; stroke-linecap: square"/>
     </g>
     <g id="line2d_28">
      <g>
       <use xlink:href="#m0a02895a47" x="416.364374" y="354.958125" style="stroke: #000000; stroke-width: 0.8"/>
      </g>
     </g>
     <g id="text_14">
      <!-- 06:00 -->
      <g transform="translate(394.515879 387.708965) rotate(-45) scale(0.1 -0.1)">
       <use xlink:href="#DejaVuSans-30"/>
       <use xlink:href="#DejaVuSans-36" x="63.623047"/>
       <use xlink:href="#DejaVuSans-3a" x="127.246094"/>
       <use xlink:href="#DejaVuSans-30" x="160.9375"/>
       <use xlink:href="#DejaVuSans-30" x="224.560547"/>
      </g>
     </g>
    </g>
    <g id="xtick_15">
     <g id="line2d_29">
      <path d="M 441.803723 354.958125 
L 441.803723 22.318125 
" clip-path="url(#p3dec0bfebd)" style="fill: none; stroke: #b0b0b0; stroke-width: 0.8; stroke-linecap: square"/>
     </g>
     <g id="line2d_30">
      <g>
       <use xlink:href="#m0a02895a47" x="441.803723" y="354.958125" style="stroke: #000000; stroke-width: 0.8"/>
      </g>
     </g>
     <g id="text_15">
      <!-- 12:00 -->
      <g transform="translate(419.955228 387.708965) rotate(-45) scale(0.1 -0.1)">
       <use xlink:href="#DejaVuSans-31"/>
       <use xlink:href="#DejaVuSans-32" x="63.623047"/>
       <use xlink:href="#DejaVuSans-3a" x="127.246094"/>
       <use xlink:href="#DejaVuSans-30" x="160.9375"/>
       <use xlink:href="#DejaVuSans-30" x="224.560547"/>
      </g>
     </g>
    </g>
    <g id="xtick_16">
     <g id="line2d_31">
      <path d="M 467.243072 354.958125 
L 467.243072 22.318125 
" clip-path="url(#p3dec0bfebd)" style="fill: none; stroke: #b0b0b0; stroke-width: 0.8; stroke-linecap: square"/>
     </g>
     <g id="line2d_32">
      <g>
       <use xlink:href="#m0a02895a47" x="467.243072" y="354.958125" style="stroke: #000000; stroke-width: 0.8"/>
      </g>
     </g>
     <g id="text_16">
      <!-- 18:00 -->
      <g transform="translate(445.394577 387.708965) rotate(-45) scale(0.1 -0.1)">
       <use xlink:href="#DejaVuSans-31"/>
       <use xlink:href="#DejaVuSans-38" x="63.623047"/>
       <use xlink:href="#DejaVuSans-3a" x="127.246094"/>
       <use xlink:href="#DejaVuSans-30" x="160.9375"/>
       <use xlink:href="#DejaVuSans-30" x="224.560547"/>
      </g>
     </g>
    </g>
    <g id="xtick_17">
     <g id="line2d_33">
      <path d="M 492.68242 354.958125 
L 492.68242 22.318125 
" clip-path="url(#p3dec0bfebd)" style="fill: none; stroke: #b0b0b0; stroke-width: 0.8; stroke-linecap: square"/>
     </g>
     <g id="line2d_34">
      <g>
       <use xlink:href="#m0a02895a47" x="492.68242" y="354.958125" style="stroke: #000000; stroke-width: 0.8"/>
      </g>
     </g>
     <g id="text_17">
      <!-- Friday 00:00 -->
      <g transform="translate(447.153582 411.389308) rotate(-45) scale(0.1 -0.1)">
       <defs>
        <path id="DejaVuSans-46" d="M 628 4666 
L 3309 4666 
L 3309 4134 
L 1259 4134 
L 1259 2759 
L 3109 2759 
L 3109 2228 
L 1259 2228 
L 1259 0 
L 628 0 
L 628 4666 
z
" transform="scale(0.015625)"/>
        <path id="DejaVuSans-69" d="M 603 3500 
L 1178 3500 
L 1178 0 
L 603 0 
L 603 3500 
z
M 603 4863 
L 1178 4863 
L 1178 4134 
L 603 4134 
L 603 4863 
z
" transform="scale(0.015625)"/>
       </defs>
       <use xlink:href="#DejaVuSans-46"/>
       <use xlink:href="#DejaVuSans-72" x="50.269531"/>
       <use xlink:href="#DejaVuSans-69" x="91.382812"/>
       <use xlink:href="#DejaVuSans-64" x="119.166016"/>
       <use xlink:href="#DejaVuSans-61" x="182.642578"/>
       <use xlink:href="#DejaVuSans-79" x="243.921875"/>
       <use xlink:href="#DejaVuSans-20" x="303.101562"/>
       <use xlink:href="#DejaVuSans-30" x="334.888672"/>
       <use xlink:href="#DejaVuSans-30" x="398.511719"/>
       <use xlink:href="#DejaVuSans-3a" x="462.134766"/>
       <use xlink:href="#DejaVuSans-30" x="495.826172"/>
       <use xlink:href="#DejaVuSans-30" x="559.449219"/>
      </g>
     </g>
    </g>
    <g id="xtick_18">
     <g id="line2d_35">
      <path d="M 518.121769 354.958125 
L 518.121769 22.318125 
" clip-path="url(#p3dec0bfebd)" style="fill: none; stroke: #b0b0b0; stroke-width: 0.8; stroke-linecap: square"/>
     </g>
     <g id="line2d_36">
      <g>
       <use xlink:href="#m0a02895a47" x="518.121769" y="354.958125" style="stroke: #000000; stroke-width: 0.8"/>
      </g>
     </g>
     <g id="text_18">
      <!-- 06:00 -->
      <g transform="translate(496.273274 387.708965) rotate(-45) scale(0.1 -0.1)">
       <use xlink:href="#DejaVuSans-30"/>
       <use xlink:href="#DejaVuSans-36" x="63.623047"/>
       <use xlink:href="#DejaVuSans-3a" x="127.246094"/>
       <use xlink:href="#DejaVuSans-30" x="160.9375"/>
       <use xlink:href="#DejaVuSans-30" x="224.560547"/>
      </g>
     </g>
    </g>
    <g id="xtick_19">
     <g id="line2d_37">
      <path d="M 543.561118 354.958125 
L 543.561118 22.318125 
" clip-path="url(#p3dec0bfebd)" style="fill: none; stroke: #b0b0b0; stroke-width: 0.8; stroke-linecap: square"/>
     </g>
     <g id="line2d_38">
      <g>
       <use xlink:href="#m0a02895a47" x="543.561118" y="354.958125" style="stroke: #000000; stroke-width: 0.8"/>
      </g>
     </g>
     <g id="text_19">
      <!-- 12:00 -->
      <g transform="translate(521.712623 387.708965) rotate(-45) scale(0.1 -0.1)">
       <use xlink:href="#DejaVuSans-31"/>
       <use xlink:href="#DejaVuSans-32" x="63.623047"/>
       <use xlink:href="#DejaVuSans-3a" x="127.246094"/>
       <use xlink:href="#DejaVuSans-30" x="160.9375"/>
       <use xlink:href="#DejaVuSans-30" x="224.560547"/>
      </g>
     </g>
    </g>
    <g id="xtick_20">
     <g id="line2d_39">
      <path d="M 569.000466 354.958125 
L 569.000466 22.318125 
" clip-path="url(#p3dec0bfebd)" style="fill: none; stroke: #b0b0b0; stroke-width: 0.8; stroke-linecap: square"/>
     </g>
     <g id="line2d_40">
      <g>
       <use xlink:href="#m0a02895a47" x="569.000466" y="354.958125" style="stroke: #000000; stroke-width: 0.8"/>
      </g>
     </g>
     <g id="text_20">
      <!-- 18:00 -->
      <g transform="translate(547.151972 387.708965) rotate(-45) scale(0.1 -0.1)">
       <use xlink:href="#DejaVuSans-31"/>
       <use xlink:href="#DejaVuSans-38" x="63.623047"/>
       <use xlink:href="#DejaVuSans-3a" x="127.246094"/>
       <use xlink:href="#DejaVuSans-30" x="160.9375"/>
       <use xlink:href="#DejaVuSans-30" x="224.560547"/>
      </g>
     </g>
    </g>
    <g id="xtick_21">
     <g id="line2d_41">
      <path d="M 594.439815 354.958125 
L 594.439815 22.318125 
" clip-path="url(#p3dec0bfebd)" style="fill: none; stroke: #b0b0b0; stroke-width: 0.8; stroke-linecap: square"/>
     </g>
     <g id="line2d_42">
      <g>
       <use xlink:href="#m0a02895a47" x="594.439815" y="354.958125" style="stroke: #000000; stroke-width: 0.8"/>
      </g>
     </g>
     <g id="text_21">
      <!-- Saturday 00:00 -->
      <g transform="translate(538.477838 421.822448) rotate(-45) scale(0.1 -0.1)">
       <defs>
        <path id="DejaVuSans-53" d="M 3425 4513 
L 3425 3897 
Q 3066 4069 2747 4153 
Q 2428 4238 2131 4238 
Q 1616 4238 1336 4038 
Q 1056 3838 1056 3469 
Q 1056 3159 1242 3001 
Q 1428 2844 1947 2747 
L 2328 2669 
Q 3034 2534 3370 2195 
Q 3706 1856 3706 1288 
Q 3706 609 3251 259 
Q 2797 -91 1919 -91 
Q 1588 -91 1214 -16 
Q 841 59 441 206 
L 441 856 
Q 825 641 1194 531 
Q 1563 422 1919 422 
Q 2459 422 2753 634 
Q 3047 847 3047 1241 
Q 3047 1584 2836 1778 
Q 2625 1972 2144 2069 
L 1759 2144 
Q 1053 2284 737 2584 
Q 422 2884 422 3419 
Q 422 4038 858 4394 
Q 1294 4750 2059 4750 
Q 2388 4750 2728 4690 
Q 3069 4631 3425 4513 
z
" transform="scale(0.015625)"/>
        <path id="DejaVuSans-74" d="M 1172 4494 
L 1172 3500 
L 2356 3500 
L 2356 3053 
L 1172 3053 
L 1172 1153 
Q 1172 725 1289 603 
Q 1406 481 1766 481 
L 2356 481 
L 2356 0 
L 1766 0 
Q 1100 0 847 248 
Q 594 497 594 1153 
L 594 3053 
L 172 3053 
L 172 3500 
L 594 3500 
L 594 4494 
L 1172 4494 
z
" transform="scale(0.015625)"/>
       </defs>
       <use xlink:href="#DejaVuSans-53"/>
       <use xlink:href="#DejaVuSans-61" x="63.476562"/>
       <use xlink:href="#DejaVuSans-74" x="124.755859"/>
       <use xlink:href="#DejaVuSans-75" x="163.964844"/>
       <use xlink:href="#DejaVuSans-72" x="227.34375"/>
       <use xlink:href="#DejaVuSans-64" x="266.707031"/>
       <use xlink:href="#DejaVuSans-61" x="330.183594"/>
       <use xlink:href="#DejaVuSans-79" x="391.462891"/>
       <use xlink:href="#DejaVuSans-20" x="450.642578"/>
       <use xlink:href="#DejaVuSans-30" x="482.429688"/>
       <use xlink:href="#DejaVuSans-30" x="546.052734"/>
       <use xlink:href="#DejaVuSans-3a" x="609.675781"/>
       <use xlink:href="#DejaVuSans-30" x="643.367188"/>
       <use xlink:href="#DejaVuSans-30" x="706.990234"/>
      </g>
     </g>
    </g>
    <g id="xtick_22">
     <g id="line2d_43">
      <path d="M 619.879164 354.958125 
L 619.879164 22.318125 
" clip-path="url(#p3dec0bfebd)" style="fill: none; stroke: #b0b0b0; stroke-width: 0.8; stroke-linecap: square"/>
     </g>
     <g id="line2d_44">
      <g>
       <use xlink:href="#m0a02895a47" x="619.879164" y="354.958125" style="stroke: #000000; stroke-width: 0.8"/>
      </g>
     </g>
     <g id="text_22">
      <!-- 06:00 -->
      <g transform="translate(598.030669 387.708965) rotate(-45) scale(0.1 -0.1)">
       <use xlink:href="#DejaVuSans-30"/>
       <use xlink:href="#DejaVuSans-36" x="63.623047"/>
       <use xlink:href="#DejaVuSans-3a" x="127.246094"/>
       <use xlink:href="#DejaVuSans-30" x="160.9375"/>
       <use xlink:href="#DejaVuSans-30" x="224.560547"/>
      </g>
     </g>
    </g>
    <g id="xtick_23">
     <g id="line2d_45">
      <path d="M 645.318513 354.958125 
L 645.318513 22.318125 
" clip-path="url(#p3dec0bfebd)" style="fill: none; stroke: #b0b0b0; stroke-width: 0.8; stroke-linecap: square"/>
     </g>
     <g id="line2d_46">
      <g>
       <use xlink:href="#m0a02895a47" x="645.318513" y="354.958125" style="stroke: #000000; stroke-width: 0.8"/>
      </g>
     </g>
     <g id="text_23">
      <!-- 12:00 -->
      <g transform="translate(623.470018 387.708965) rotate(-45) scale(0.1 -0.1)">
       <use xlink:href="#DejaVuSans-31"/>
       <use xlink:href="#DejaVuSans-32" x="63.623047"/>
       <use xlink:href="#DejaVuSans-3a" x="127.246094"/>
       <use xlink:href="#DejaVuSans-30" x="160.9375"/>
       <use xlink:href="#DejaVuSans-30" x="224.560547"/>
      </g>
     </g>
    </g>
    <g id="xtick_24">
     <g id="line2d_47">
      <path d="M 670.757861 354.958125 
L 670.757861 22.318125 
" clip-path="url(#p3dec0bfebd)" style="fill: none; stroke: #b0b0b0; stroke-width: 0.8; stroke-linecap: square"/>
     </g>
     <g id="line2d_48">
      <g>
       <use xlink:href="#m0a02895a47" x="670.757861" y="354.958125" style="stroke: #000000; stroke-width: 0.8"/>
      </g>
     </g>
     <g id="text_24">
      <!-- 18:00 -->
      <g transform="translate(648.909367 387.708965) rotate(-45) scale(0.1 -0.1)">
       <use xlink:href="#DejaVuSans-31"/>
       <use xlink:href="#DejaVuSans-38" x="63.623047"/>
       <use xlink:href="#DejaVuSans-3a" x="127.246094"/>
       <use xlink:href="#DejaVuSans-30" x="160.9375"/>
       <use xlink:href="#DejaVuSans-30" x="224.560547"/>
      </g>
     </g>
    </g>
    <g id="xtick_25">
     <g id="line2d_49">
      <path d="M 696.19721 354.958125 
L 696.19721 22.318125 
" clip-path="url(#p3dec0bfebd)" style="fill: none; stroke: #b0b0b0; stroke-width: 0.8; stroke-linecap: square"/>
     </g>
     <g id="line2d_50">
      <g>
       <use xlink:href="#m0a02895a47" x="696.19721" y="354.958125" style="stroke: #000000; stroke-width: 0.8"/>
      </g>
     </g>
     <g id="text_25">
      <!-- Sunday 00:00 -->
      <g transform="translate(645.64239 416.415291) rotate(-45) scale(0.1 -0.1)">
       <use xlink:href="#DejaVuSans-53"/>
       <use xlink:href="#DejaVuSans-75" x="63.476562"/>
       <use xlink:href="#DejaVuSans-6e" x="126.855469"/>
       <use xlink:href="#DejaVuSans-64" x="190.234375"/>
       <use xlink:href="#DejaVuSans-61" x="253.710938"/>
       <use xlink:href="#DejaVuSans-79" x="314.990234"/>
       <use xlink:href="#DejaVuSans-20" x="374.169922"/>
       <use xlink:href="#DejaVuSans-30" x="405.957031"/>
       <use xlink:href="#DejaVuSans-30" x="469.580078"/>
       <use xlink:href="#DejaVuSans-3a" x="533.203125"/>
       <use xlink:href="#DejaVuSans-30" x="566.894531"/>
       <use xlink:href="#DejaVuSans-30" x="630.517578"/>
      </g>
     </g>
    </g>
    <g id="xtick_26">
     <g id="line2d_51">
      <path d="M 721.636559 354.958125 
L 721.636559 22.318125 
" clip-path="url(#p3dec0bfebd)" style="fill: none; stroke: #b0b0b0; stroke-width: 0.8; stroke-linecap: square"/>
     </g>
     <g id="line2d_52">
      <g>
       <use xlink:href="#m0a02895a47" x="721.636559" y="354.958125" style="stroke: #000000; stroke-width: 0.8"/>
      </g>
     </g>
     <g id="text_26">
      <!-- 06:00 -->
      <g transform="translate(699.788064 387.708965) rotate(-45) scale(0.1 -0.1)">
       <use xlink:href="#DejaVuSans-30"/>
       <use xlink:href="#DejaVuSans-36" x="63.623047"/>
       <use xlink:href="#DejaVuSans-3a" x="127.246094"/>
       <use xlink:href="#DejaVuSans-30" x="160.9375"/>
       <use xlink:href="#DejaVuSans-30" x="224.560547"/>
      </g>
     </g>
    </g>
    <g id="xtick_27">
     <g id="line2d_53">
      <path d="M 747.075907 354.958125 
L 747.075907 22.318125 
" clip-path="url(#p3dec0bfebd)" style="fill: none; stroke: #b0b0b0; stroke-width: 0.8; stroke-linecap: square"/>
     </g>
     <g id="line2d_54">
      <g>
       <use xlink:href="#m0a02895a47" x="747.075907" y="354.958125" style="stroke: #000000; stroke-width: 0.8"/>
      </g>
     </g>
     <g id="text_27">
      <!-- 12:00 -->
      <g transform="translate(725.227413 387.708965) rotate(-45) scale(0.1 -0.1)">
       <use xlink:href="#DejaVuSans-31"/>
       <use xlink:href="#DejaVuSans-32" x="63.623047"/>
       <use xlink:href="#DejaVuSans-3a" x="127.246094"/>
       <use xlink:href="#DejaVuSans-30" x="160.9375"/>
       <use xlink:href="#DejaVuSans-30" x="224.560547"/>
      </g>
     </g>
    </g>
    <g id="xtick_28">
     <g id="line2d_55">
      <path d="M 772.515256 354.958125 
L 772.515256 22.318125 
" clip-path="url(#p3dec0bfebd)" style="fill: none; stroke: #b0b0b0; stroke-width: 0.8; stroke-linecap: square"/>
     </g>
     <g id="line2d_56">
      <g>
       <use xlink:href="#m0a02895a47" x="772.515256" y="354.958125" style="stroke: #000000; stroke-width: 0.8"/>
      </g>
     </g>
     <g id="text_28">
      <!-- 18:00 -->
      <g transform="translate(750.666761 387.708965) rotate(-45) scale(0.1 -0.1)">
       <use xlink:href="#DejaVuSans-31"/>
       <use xlink:href="#DejaVuSans-38" x="63.623047"/>
       <use xlink:href="#DejaVuSans-3a" x="127.246094"/>
       <use xlink:href="#DejaVuSans-30" x="160.9375"/>
       <use xlink:href="#DejaVuSans-30" x="224.560547"/>
      </g>
     </g>
    </g>
    <g id="text_29">
     <!-- Time -->
     <g transform="translate(428.510156 443.964511) scale(0.1 -0.1)">
      <defs>
       <path id="DejaVuSans-6d" d="M 3328 2828 
Q 3544 3216 3844 3400 
Q 4144 3584 4550 3584 
Q 5097 3584 5394 3201 
Q 5691 2819 5691 2113 
L 5691 0 
L 5113 0 
L 5113 2094 
Q 5113 2597 4934 2840 
Q 4756 3084 4391 3084 
Q 3944 3084 3684 2787 
Q 3425 2491 3425 1978 
L 3425 0 
L 2847 0 
L 2847 2094 
Q 2847 2600 2669 2842 
Q 2491 3084 2119 3084 
Q 1678 3084 1418 2786 
Q 1159 2488 1159 1978 
L 1159 0 
L 581 0 
L 581 3500 
L 1159 3500 
L 1159 2956 
Q 1356 3278 1631 3431 
Q 1906 3584 2284 3584 
Q 2666 3584 2933 3390 
Q 3200 3197 3328 2828 
z
" transform="scale(0.015625)"/>
      </defs>
      <use xlink:href="#DejaVuSans-54"/>
      <use xlink:href="#DejaVuSans-69" x="57.958984"/>
      <use xlink:href="#DejaVuSans-6d" x="85.742188"/>
      <use xlink:href="#DejaVuSans-65" x="183.154297"/>
     </g>
    </g>
   </g>
   <g id="matplotlib.axis_2">
    <g id="ytick_1">
     <g id="line2d_57">
      <path d="M 50.14375 339.838125 
L 831.34375 339.838125 
" clip-path="url(#p3dec0bfebd)" style="fill: none; stroke: #b0b0b0; stroke-width: 0.8; stroke-linecap: square"/>
     </g>
     <g id="line2d_58">
      <defs>
       <path id="m60a0dee6e0" d="M 0 0 
L -3.5 0 
" style="stroke: #000000; stroke-width: 0.8"/>
      </defs>
      <g>
       <use xlink:href="#m60a0dee6e0" x="50.14375" y="339.838125" style="stroke: #000000; stroke-width: 0.8"/>
      </g>
     </g>
     <g id="text_30">
      <!-- 0.0 -->
      <g transform="translate(27.240625 343.637344) scale(0.1 -0.1)">
       <defs>
        <path id="DejaVuSans-2e" d="M 684 794 
L 1344 794 
L 1344 0 
L 684 0 
L 684 794 
z
" transform="scale(0.015625)"/>
       </defs>
       <use xlink:href="#DejaVuSans-30"/>
       <use xlink:href="#DejaVuSans-2e" x="63.623047"/>
       <use xlink:href="#DejaVuSans-30" x="95.410156"/>
      </g>
     </g>
    </g>
    <g id="ytick_2">
     <g id="line2d_59">
      <path d="M 50.14375 294.945412 
L 831.34375 294.945412 
" clip-path="url(#p3dec0bfebd)" style="fill: none; stroke: #b0b0b0; stroke-width: 0.8; stroke-linecap: square"/>
     </g>
     <g id="line2d_60">
      <g>
       <use xlink:href="#m60a0dee6e0" x="50.14375" y="294.945412" style="stroke: #000000; stroke-width: 0.8"/>
      </g>
     </g>
     <g id="text_31">
      <!-- 2.5 -->
      <g transform="translate(27.240625 298.744631) scale(0.1 -0.1)">
       <defs>
        <path id="DejaVuSans-35" d="M 691 4666 
L 3169 4666 
L 3169 4134 
L 1269 4134 
L 1269 2991 
Q 1406 3038 1543 3061 
Q 1681 3084 1819 3084 
Q 2600 3084 3056 2656 
Q 3513 2228 3513 1497 
Q 3513 744 3044 326 
Q 2575 -91 1722 -91 
Q 1428 -91 1123 -41 
Q 819 9 494 109 
L 494 744 
Q 775 591 1075 516 
Q 1375 441 1709 441 
Q 2250 441 2565 725 
Q 2881 1009 2881 1497 
Q 2881 1984 2565 2268 
Q 2250 2553 1709 2553 
Q 1456 2553 1204 2497 
Q 953 2441 691 2322 
L 691 4666 
z
" transform="scale(0.015625)"/>
       </defs>
       <use xlink:href="#DejaVuSans-32"/>
       <use xlink:href="#DejaVuSans-2e" x="63.623047"/>
       <use xlink:href="#DejaVuSans-35" x="95.410156"/>
      </g>
     </g>
    </g>
    <g id="ytick_3">
     <g id="line2d_61">
      <path d="M 50.14375 250.0527 
L 831.34375 250.0527 
" clip-path="url(#p3dec0bfebd)" style="fill: none; stroke: #b0b0b0; stroke-width: 0.8; stroke-linecap: square"/>
     </g>
     <g id="line2d_62">
      <g>
       <use xlink:href="#m60a0dee6e0" x="50.14375" y="250.0527" style="stroke: #000000; stroke-width: 0.8"/>
      </g>
     </g>
     <g id="text_32">
      <!-- 5.0 -->
      <g transform="translate(27.240625 253.851918) scale(0.1 -0.1)">
       <use xlink:href="#DejaVuSans-35"/>
       <use xlink:href="#DejaVuSans-2e" x="63.623047"/>
       <use xlink:href="#DejaVuSans-30" x="95.410156"/>
      </g>
     </g>
    </g>
    <g id="ytick_4">
     <g id="line2d_63">
      <path d="M 50.14375 205.159987 
L 831.34375 205.159987 
" clip-path="url(#p3dec0bfebd)" style="fill: none; stroke: #b0b0b0; stroke-width: 0.8; stroke-linecap: square"/>
     </g>
     <g id="line2d_64">
      <g>
       <use xlink:href="#m60a0dee6e0" x="50.14375" y="205.159987" style="stroke: #000000; stroke-width: 0.8"/>
      </g>
     </g>
     <g id="text_33">
      <!-- 7.5 -->
      <g transform="translate(27.240625 208.959206) scale(0.1 -0.1)">
       <defs>
        <path id="DejaVuSans-37" d="M 525 4666 
L 3525 4666 
L 3525 4397 
L 1831 0 
L 1172 0 
L 2766 4134 
L 525 4134 
L 525 4666 
z
" transform="scale(0.015625)"/>
       </defs>
       <use xlink:href="#DejaVuSans-37"/>
       <use xlink:href="#DejaVuSans-2e" x="63.623047"/>
       <use xlink:href="#DejaVuSans-35" x="95.410156"/>
      </g>
     </g>
    </g>
    <g id="ytick_5">
     <g id="line2d_65">
      <path d="M 50.14375 160.267274 
L 831.34375 160.267274 
" clip-path="url(#p3dec0bfebd)" style="fill: none; stroke: #b0b0b0; stroke-width: 0.8; stroke-linecap: square"/>
     </g>
     <g id="line2d_66">
      <g>
       <use xlink:href="#m60a0dee6e0" x="50.14375" y="160.267274" style="stroke: #000000; stroke-width: 0.8"/>
      </g>
     </g>
     <g id="text_34">
      <!-- 10.0 -->
      <g transform="translate(20.878125 164.066493) scale(0.1 -0.1)">
       <use xlink:href="#DejaVuSans-31"/>
       <use xlink:href="#DejaVuSans-30" x="63.623047"/>
       <use xlink:href="#DejaVuSans-2e" x="127.246094"/>
       <use xlink:href="#DejaVuSans-30" x="159.033203"/>
      </g>
     </g>
    </g>
    <g id="ytick_6">
     <g id="line2d_67">
      <path d="M 50.14375 115.374561 
L 831.34375 115.374561 
" clip-path="url(#p3dec0bfebd)" style="fill: none; stroke: #b0b0b0; stroke-width: 0.8; stroke-linecap: square"/>
     </g>
     <g id="line2d_68">
      <g>
       <use xlink:href="#m60a0dee6e0" x="50.14375" y="115.374561" style="stroke: #000000; stroke-width: 0.8"/>
      </g>
     </g>
     <g id="text_35">
      <!-- 12.5 -->
      <g transform="translate(20.878125 119.17378) scale(0.1 -0.1)">
       <use xlink:href="#DejaVuSans-31"/>
       <use xlink:href="#DejaVuSans-32" x="63.623047"/>
       <use xlink:href="#DejaVuSans-2e" x="127.246094"/>
       <use xlink:href="#DejaVuSans-35" x="159.033203"/>
      </g>
     </g>
    </g>
    <g id="ytick_7">
     <g id="line2d_69">
      <path d="M 50.14375 70.481849 
L 831.34375 70.481849 
" clip-path="url(#p3dec0bfebd)" style="fill: none; stroke: #b0b0b0; stroke-width: 0.8; stroke-linecap: square"/>
     </g>
     <g id="line2d_70">
      <g>
       <use xlink:href="#m60a0dee6e0" x="50.14375" y="70.481849" style="stroke: #000000; stroke-width: 0.8"/>
      </g>
     </g>
     <g id="text_36">
      <!-- 15.0 -->
      <g transform="translate(20.878125 74.281067) scale(0.1 -0.1)">
       <use xlink:href="#DejaVuSans-31"/>
       <use xlink:href="#DejaVuSans-35" x="63.623047"/>
       <use xlink:href="#DejaVuSans-2e" x="127.246094"/>
       <use xlink:href="#DejaVuSans-30" x="159.033203"/>
      </g>
     </g>
    </g>
    <g id="ytick_8">
     <g id="line2d_71">
      <path d="M 50.14375 25.589136 
L 831.34375 25.589136 
" clip-path="url(#p3dec0bfebd)" style="fill: none; stroke: #b0b0b0; stroke-width: 0.8; stroke-linecap: square"/>
     </g>
     <g id="line2d_72">
      <g>
       <use xlink:href="#m60a0dee6e0" x="50.14375" y="25.589136" style="stroke: #000000; stroke-width: 0.8"/>
      </g>
     </g>
     <g id="text_37">
      <!-- 17.5 -->
      <g transform="translate(20.878125 29.388355) scale(0.1 -0.1)">
       <use xlink:href="#DejaVuSans-31"/>
       <use xlink:href="#DejaVuSans-37" x="63.623047"/>
       <use xlink:href="#DejaVuSans-2e" x="127.246094"/>
       <use xlink:href="#DejaVuSans-35" x="159.033203"/>
      </g>
     </g>
    </g>
    <g id="text_38">
     <!-- Power Usage (Wh/m^2, P1) -->
     <g transform="translate(14.798438 257.823281) rotate(-90) scale(0.1 -0.1)">
      <defs>
       <path id="DejaVuSans-50" d="M 1259 4147 
L 1259 2394 
L 2053 2394 
Q 2494 2394 2734 2622 
Q 2975 2850 2975 3272 
Q 2975 3691 2734 3919 
Q 2494 4147 2053 4147 
L 1259 4147 
z
M 628 4666 
L 2053 4666 
Q 2838 4666 3239 4311 
Q 3641 3956 3641 3272 
Q 3641 2581 3239 2228 
Q 2838 1875 2053 1875 
L 1259 1875 
L 1259 0 
L 628 0 
L 628 4666 
z
" transform="scale(0.015625)"/>
       <path id="DejaVuSans-77" d="M 269 3500 
L 844 3500 
L 1563 769 
L 2278 3500 
L 2956 3500 
L 3675 769 
L 4391 3500 
L 4966 3500 
L 4050 0 
L 3372 0 
L 2619 2869 
L 1863 0 
L 1184 0 
L 269 3500 
z
" transform="scale(0.015625)"/>
       <path id="DejaVuSans-55" d="M 556 4666 
L 1191 4666 
L 1191 1831 
Q 1191 1081 1462 751 
Q 1734 422 2344 422 
Q 2950 422 3222 751 
Q 3494 1081 3494 1831 
L 3494 4666 
L 4128 4666 
L 4128 1753 
Q 4128 841 3676 375 
Q 3225 -91 2344 -91 
Q 1459 -91 1007 375 
Q 556 841 556 1753 
L 556 4666 
z
" transform="scale(0.015625)"/>
       <path id="DejaVuSans-67" d="M 2906 1791 
Q 2906 2416 2648 2759 
Q 2391 3103 1925 3103 
Q 1463 3103 1205 2759 
Q 947 2416 947 1791 
Q 947 1169 1205 825 
Q 1463 481 1925 481 
Q 2391 481 2648 825 
Q 2906 1169 2906 1791 
z
M 3481 434 
Q 3481 -459 3084 -895 
Q 2688 -1331 1869 -1331 
Q 1566 -1331 1297 -1286 
Q 1028 -1241 775 -1147 
L 775 -588 
Q 1028 -725 1275 -790 
Q 1522 -856 1778 -856 
Q 2344 -856 2625 -561 
Q 2906 -266 2906 331 
L 2906 616 
Q 2728 306 2450 153 
Q 2172 0 1784 0 
Q 1141 0 747 490 
Q 353 981 353 1791 
Q 353 2603 747 3093 
Q 1141 3584 1784 3584 
Q 2172 3584 2450 3431 
Q 2728 3278 2906 2969 
L 2906 3500 
L 3481 3500 
L 3481 434 
z
" transform="scale(0.015625)"/>
       <path id="DejaVuSans-28" d="M 1984 4856 
Q 1566 4138 1362 3434 
Q 1159 2731 1159 2009 
Q 1159 1288 1364 580 
Q 1569 -128 1984 -844 
L 1484 -844 
Q 1016 -109 783 600 
Q 550 1309 550 2009 
Q 550 2706 781 3412 
Q 1013 4119 1484 4856 
L 1984 4856 
z
" transform="scale(0.015625)"/>
       <path id="DejaVuSans-2f" d="M 1625 4666 
L 2156 4666 
L 531 -594 
L 0 -594 
L 1625 4666 
z
" transform="scale(0.015625)"/>
       <path id="DejaVuSans-5e" d="M 2988 4666 
L 4684 2925 
L 4056 2925 
L 2681 4159 
L 1306 2925 
L 678 2925 
L 2375 4666 
L 2988 4666 
z
" transform="scale(0.015625)"/>
       <path id="DejaVuSans-2c" d="M 750 794 
L 1409 794 
L 1409 256 
L 897 -744 
L 494 -744 
L 750 256 
L 750 794 
z
" transform="scale(0.015625)"/>
       <path id="DejaVuSans-29" d="M 513 4856 
L 1013 4856 
Q 1481 4119 1714 3412 
Q 1947 2706 1947 2009 
Q 1947 1309 1714 600 
Q 1481 -109 1013 -844 
L 513 -844 
Q 928 -128 1133 580 
Q 1338 1288 1338 2009 
Q 1338 2731 1133 3434 
Q 928 4138 513 4856 
z
" transform="scale(0.015625)"/>
      </defs>
      <use xlink:href="#DejaVuSans-50"/>
      <use xlink:href="#DejaVuSans-6f" x="56.677734"/>
      <use xlink:href="#DejaVuSans-77" x="117.859375"/>
      <use xlink:href="#DejaVuSans-65" x="199.646484"/>
      <use xlink:href="#DejaVuSans-72" x="261.169922"/>
      <use xlink:href="#DejaVuSans-20" x="302.283203"/>
      <use xlink:href="#DejaVuSans-55" x="334.070312"/>
      <use xlink:href="#DejaVuSans-73" x="407.263672"/>
      <use xlink:href="#DejaVuSans-61" x="459.363281"/>
      <use xlink:href="#DejaVuSans-67" x="520.642578"/>
      <use xlink:href="#DejaVuSans-65" x="584.119141"/>
      <use xlink:href="#DejaVuSans-20" x="645.642578"/>
      <use xlink:href="#DejaVuSans-28" x="677.429688"/>
      <use xlink:href="#DejaVuSans-57" x="716.443359"/>
      <use xlink:href="#DejaVuSans-68" x="815.320312"/>
      <use xlink:href="#DejaVuSans-2f" x="878.699219"/>
      <use xlink:href="#DejaVuSans-6d" x="912.390625"/>
      <use xlink:href="#DejaVuSans-5e" x="1009.802734"/>
      <use xlink:href="#DejaVuSans-32" x="1093.591797"/>
      <use xlink:href="#DejaVuSans-2c" x="1157.214844"/>
      <use xlink:href="#DejaVuSans-20" x="1189.001953"/>
      <use xlink:href="#DejaVuSans-50" x="1220.789062"/>
      <use xlink:href="#DejaVuSans-31" x="1281.091797"/>
      <use xlink:href="#DejaVuSans-29" x="1344.714844"/>
     </g>
    </g>
   </g>
   <g id="line2d_73">
    <path d="M 85.652841 242.990405 
L 87.772787 244.524585 
L 89.892732 243.67493 
L 92.012678 244.393905 
L 94.132624 244.65192 
L 96.25257 244.692364 
L 98.372515 245.100406 
L 102.612407 244.593758 
L 104.732352 244.825433 
L 106.852298 244.573724 
L 108.972244 245.41892 
L 111.09219 244.55668 
L 113.212135 243.984421 
L 115.332081 242.654529 
L 117.452027 238.557637 
L 119.571973 222.217279 
L 121.691918 198.295365 
L 123.811864 168.290573 
L 125.93181 154.087784 
L 128.051755 149.086627 
L 130.171701 150.329364 
L 132.291647 148.300458 
L 134.411593 148.406199 
L 136.531538 146.971547 
L 138.651484 149.978927 
L 140.77143 147.50853 
L 142.891376 148.874636 
L 145.011321 148.324641 
L 147.131267 150.095408 
L 149.251213 148.678809 
L 151.371158 153.112139 
L 153.491104 151.15315 
L 155.61105 154.348002 
L 157.730996 154.867145 
L 159.850941 159.465184 
L 161.970887 164.633388 
L 164.090833 193.925588 
L 166.210778 201.086643 
L 168.330724 225.27986 
L 170.45067 232.113924 
L 172.570616 237.442531 
L 174.690561 238.79499 
L 176.810507 241.390249 
L 178.930453 240.240604 
L 181.050399 243.282303 
L 183.170344 242.888551 
L 185.29029 243.210121 
L 187.410236 243.401332 
L 189.530181 246.946592 
L 191.650127 241.254596 
L 193.770073 241.670604 
L 195.890019 241.95499 
L 198.009964 244.253747 
L 200.12991 244.269292 
L 202.249856 245.080423 
L 204.369802 245.097353 
L 206.489747 245.650571 
L 208.609693 245.230767 
L 210.729639 245.524469 
L 212.849584 244.605784 
L 214.96953 243.846043 
L 217.089476 242.549535 
L 219.209422 237.610725 
L 221.329367 220.186632 
L 225.569259 167.488217 
L 227.689205 154.665776 
L 229.80915 148.333817 
L 231.929096 148.487661 
L 234.049042 147.355859 
L 236.168987 146.967391 
L 238.288933 146.144731 
L 240.408879 148.48398 
L 242.528825 146.106963 
L 244.64877 146.172679 
L 246.768716 145.4659 
L 248.888662 146.4472 
L 251.008608 145.216246 
L 253.128553 147.817584 
L 255.248499 147.781952 
L 257.368445 153.446764 
L 259.48839 149.46864 
L 261.608336 151.954559 
L 263.728282 158.215443 
L 265.848228 190.921149 
L 267.968173 198.881007 
L 270.088119 223.506591 
L 272.208065 231.432988 
L 274.328011 236.0281 
L 276.447956 237.986884 
L 278.567902 241.147682 
L 280.687848 240.42165 
L 282.807793 242.832306 
L 284.927739 242.66739 
L 287.047685 243.178581 
L 289.167631 242.872387 
L 291.287576 245.21292 
L 293.407522 244.130725 
L 295.527468 244.572861 
L 297.647414 244.400818 
L 299.767359 246.679894 
L 301.887305 242.359051 
L 304.007251 243.257544 
L 306.127196 242.502559 
L 308.247142 244.44709 
L 310.367088 243.72621 
L 312.487034 244.354134 
L 314.606979 243.387514 
L 316.726925 243.804524 
L 318.846871 241.791034 
L 320.966816 237.758557 
L 323.086762 220.034258 
L 325.206708 192.297671 
L 327.326654 167.207232 
L 329.446599 156.278215 
L 331.566545 149.326578 
L 333.686491 149.421439 
L 335.806437 147.348272 
L 337.926382 147.741094 
L 340.046328 146.282214 
L 342.166274 148.353382 
L 344.286219 147.209599 
L 346.406165 146.362321 
L 348.526111 145.0568 
L 350.646057 147.314978 
L 352.766002 146.300868 
L 354.885948 148.980905 
L 357.005894 146.88663 
L 359.12584 150.774041 
L 361.245785 150.569192 
L 363.365731 155.348608 
L 365.485677 160.739915 
L 367.605622 199.208951 
L 369.725568 197.363271 
L 371.845514 219.085571 
L 373.96546 227.102263 
L 376.085405 234.468308 
L 378.205351 235.99187 
L 380.325297 238.340181 
L 382.445243 238.003769 
L 384.565188 241.668501 
L 386.685134 240.675408 
L 388.80508 242.833806 
L 390.925025 242.208693 
L 393.044971 244.38134 
L 395.164917 242.88444 
L 397.284863 243.6457 
L 399.404808 244.041105 
L 401.524754 244.735352 
L 403.6447 243.804971 
L 405.764646 245.090373 
L 407.884591 244.433509 
L 410.004537 245.439593 
L 412.124483 244.961068 
L 414.244428 245.118416 
L 416.364374 243.832062 
L 418.48432 245.65339 
L 420.604266 241.093783 
L 422.724211 236.006772 
L 424.844157 219.079197 
L 426.964103 193.935025 
L 429.084049 166.882014 
L 431.203994 155.254185 
L 433.32394 148.899986 
L 435.443886 149.513077 
L 437.563831 146.90257 
L 439.683777 147.991097 
L 441.803723 146.710386 
L 443.923669 149.852721 
L 446.043614 147.346405 
L 448.16356 146.20641 
L 450.283506 145.668294 
L 452.403451 147.957889 
L 454.523397 148.011273 
L 456.643343 152.032546 
L 458.763289 150.126678 
L 460.883234 152.050058 
L 463.00318 150.887645 
L 465.123126 156.193081 
L 467.243072 161.182696 
L 469.363017 193.041924 
L 471.482963 199.692127 
L 473.602909 223.800203 
L 475.722854 230.992005 
L 477.8428 235.824978 
L 479.962746 237.52391 
L 482.082692 240.415025 
L 484.202637 239.455871 
L 486.322583 242.927581 
L 488.442529 241.193611 
L 490.562475 244.26766 
L 492.68242 243.204311 
L 494.802366 244.569475 
L 496.922312 243.808542 
L 499.042257 244.431605 
L 501.162203 244.243704 
L 503.282149 244.651281 
L 505.402095 243.938585 
L 507.52204 244.93046 
L 509.641986 244.555343 
L 511.761932 246.387162 
L 513.881878 243.63121 
L 516.001823 244.493484 
L 518.121769 243.080707 
L 520.241715 244.072492 
L 522.36166 241.858104 
L 524.481606 238.524248 
L 526.601552 219.887764 
L 528.721498 195.379733 
L 530.841443 169.174503 
L 532.961389 157.456643 
L 535.081335 151.511772 
L 537.201281 150.167705 
L 539.321226 147.510416 
L 541.441172 149.101171 
L 543.561118 148.038399 
L 545.681063 155.772196 
L 547.801009 146.624876 
L 552.040901 142.729566 
L 554.160846 148.326078 
L 556.280792 146.090927 
L 558.400738 149.67289 
L 560.520684 147.325264 
L 562.640629 148.783293 
L 564.760575 148.086043 
L 566.880521 152.22812 
L 569.000466 157.631516 
L 571.120412 184.2501 
L 573.240358 191.500527 
L 575.360304 213.105199 
L 579.600195 225.882703 
L 581.720141 229.497824 
L 583.840086 238.892494 
L 585.960032 239.921085 
L 588.079978 242.802574 
L 590.199924 242.049688 
L 592.319869 244.249325 
L 594.439815 243.45022 
L 596.559761 245.027979 
L 598.679707 243.807797 
L 600.799652 245.12244 
L 602.919598 244.80116 
L 605.039544 245.928921 
L 607.159489 243.449286 
L 609.279435 242.80762 
L 611.399381 242.551336 
L 613.519327 244.514246 
L 615.639272 243.817401 
L 617.759218 245.038759 
L 619.879164 244.30307 
L 621.99911 243.94947 
L 624.119055 242.890918 
L 626.239001 239.936437 
L 628.358947 229.520764 
L 630.478892 206.972617 
L 632.598838 172.7948 
L 634.718784 159.177261 
L 636.83873 153.474571 
L 638.958675 153.525812 
L 641.078621 150.990707 
L 643.198567 150.979954 
L 645.318513 149.435248 
L 647.438458 151.565968 
L 649.558404 149.697914 
L 651.67835 151.373492 
L 653.798295 149.192497 
L 655.918241 152.363087 
L 658.038187 149.525547 
L 660.158133 150.44735 
L 662.278078 150.715186 
L 664.398024 156.076339 
L 666.51797 158.924065 
L 668.637916 181.961257 
L 672.877807 198.796487 
L 674.997753 200.257673 
L 677.117698 220.24316 
L 679.237644 225.379345 
L 681.35759 229.515316 
L 683.477536 232.20618 
L 685.597481 241.250055 
L 687.717427 240.954127 
L 689.837373 243.051561 
L 691.957319 242.584739 
L 694.077264 243.383747 
L 696.19721 243.029548 
L 698.317156 244.793251 
L 700.437101 243.962338 
L 702.557047 244.87403 
L 704.676993 244.573662 
L 706.796939 244.479077 
L 708.916884 244.676662 
L 711.03683 244.70985 
L 713.156776 244.54752 
L 715.276722 245.283533 
L 717.396667 244.532757 
L 719.516613 244.940212 
L 721.636559 244.342459 
L 723.756504 244.87169 
L 725.87645 243.525509 
L 727.996396 241.509431 
L 730.116342 233.437001 
L 732.236287 215.223932 
L 734.356233 180.105661 
L 736.476179 161.460645 
L 738.596124 155.591458 
L 740.71607 155.847381 
L 742.836016 153.641573 
L 744.955962 152.546931 
L 747.075907 151.843678 
L 749.195853 155.07361 
L 751.315799 152.926716 
L 755.55569 156.747402 
L 759.795582 165.421334 
L 761.915527 191.443748 
L 764.035473 197.236212 
L 766.155419 200.911405 
L 768.275365 202.250031 
L 770.39531 218.676913 
L 772.515256 223.063538 
L 774.635202 232.555006 
L 776.755148 235.232476 
L 778.875093 238.366477 
L 780.995039 239.093445 
L 783.114985 241.78185 
L 785.23493 239.835556 
L 787.354876 241.999403 
L 789.474822 241.124952 
L 791.594768 242.825011 
L 793.714713 242.914138 
L 795.834659 242.749713 
L 795.834659 242.749713 
" clip-path="url(#p3dec0bfebd)" style="fill: none; stroke: #ff0000; stroke-opacity: 0.4; stroke-width: 1.5; stroke-linecap: square"/>
   </g>
   <g id="line2d_74">
    <path d="M 85.652841 339.718977 
L 537.201281 339.768524 
L 541.441172 339.838125 
L 545.681063 339.768524 
L 549.920955 339.698923 
L 569.000466 339.698923 
L 571.120412 339.838125 
L 579.600195 339.838125 
L 581.720141 339.698923 
L 605.039544 339.768524 
L 609.279435 339.838125 
L 613.519327 339.768524 
L 615.639272 339.698923 
L 617.759218 339.768524 
L 621.99911 339.698923 
L 636.83873 339.698923 
L 638.958675 339.838125 
L 647.438458 339.768524 
L 649.558404 339.698923 
L 651.67835 339.768524 
L 655.918241 339.698923 
L 795.834659 339.768524 
L 795.834659 339.768524 
" clip-path="url(#p3dec0bfebd)" style="fill: none; stroke: #0000ff; stroke-width: 1.5; stroke-linecap: square"/>
   </g>
   <g id="patch_11">
    <path d="M 50.14375 354.958125 
L 50.14375 22.318125 
" style="fill: none; stroke: #000000; stroke-width: 0.8; stroke-linejoin: miter; stroke-linecap: square"/>
   </g>
   <g id="patch_12">
    <path d="M 831.34375 354.958125 
L 831.34375 22.318125 
" style="fill: none; stroke: #000000; stroke-width: 0.8; stroke-linejoin: miter; stroke-linecap: square"/>
   </g>
   <g id="patch_13">
    <path d="M 50.14375 354.958125 
L 831.34375 354.958125 
" style="fill: none; stroke: #000000; stroke-width: 0.8; stroke-linejoin: miter; stroke-linecap: square"/>
   </g>
   <g id="patch_14">
    <path d="M 50.14375 22.318125 
L 831.34375 22.318125 
" style="fill: none; stroke: #000000; stroke-width: 0.8; stroke-linejoin: miter; stroke-linecap: square"/>
   </g>
   <g id="text_39">
    <!-- benchmarkdata for "Cell phones and supporting services" Market sector using 108 sampled meters, constructed with 2,379,065 samples -->
    <g transform="translate(28.274688 16.318125) scale(0.12 -0.12)">
     <defs>
      <path id="DejaVuSans-62" d="M 3116 1747 
Q 3116 2381 2855 2742 
Q 2594 3103 2138 3103 
Q 1681 3103 1420 2742 
Q 1159 2381 1159 1747 
Q 1159 1113 1420 752 
Q 1681 391 2138 391 
Q 2594 391 2855 752 
Q 3116 1113 3116 1747 
z
M 1159 2969 
Q 1341 3281 1617 3432 
Q 1894 3584 2278 3584 
Q 2916 3584 3314 3078 
Q 3713 2572 3713 1747 
Q 3713 922 3314 415 
Q 2916 -91 2278 -91 
Q 1894 -91 1617 61 
Q 1341 213 1159 525 
L 1159 0 
L 581 0 
L 581 4863 
L 1159 4863 
L 1159 2969 
z
" transform="scale(0.015625)"/>
      <path id="DejaVuSans-63" d="M 3122 3366 
L 3122 2828 
Q 2878 2963 2633 3030 
Q 2388 3097 2138 3097 
Q 1578 3097 1268 2742 
Q 959 2388 959 1747 
Q 959 1106 1268 751 
Q 1578 397 2138 397 
Q 2388 397 2633 464 
Q 2878 531 3122 666 
L 3122 134 
Q 2881 22 2623 -34 
Q 2366 -91 2075 -91 
Q 1284 -91 818 406 
Q 353 903 353 1747 
Q 353 2603 823 3093 
Q 1294 3584 2113 3584 
Q 2378 3584 2631 3529 
Q 2884 3475 3122 3366 
z
" transform="scale(0.015625)"/>
      <path id="DejaVuSans-6b" d="M 581 4863 
L 1159 4863 
L 1159 1991 
L 2875 3500 
L 3609 3500 
L 1753 1863 
L 3688 0 
L 2938 0 
L 1159 1709 
L 1159 0 
L 581 0 
L 581 4863 
z
" transform="scale(0.015625)"/>
      <path id="DejaVuSans-66" d="M 2375 4863 
L 2375 4384 
L 1825 4384 
Q 1516 4384 1395 4259 
Q 1275 4134 1275 3809 
L 1275 3500 
L 2222 3500 
L 2222 3053 
L 1275 3053 
L 1275 0 
L 697 0 
L 697 3053 
L 147 3053 
L 147 3500 
L 697 3500 
L 697 3744 
Q 697 4328 969 4595 
Q 1241 4863 1831 4863 
L 2375 4863 
z
" transform="scale(0.015625)"/>
      <path id="DejaVuSans-22" d="M 1147 4666 
L 1147 2931 
L 616 2931 
L 616 4666 
L 1147 4666 
z
M 2328 4666 
L 2328 2931 
L 1797 2931 
L 1797 4666 
L 2328 4666 
z
" transform="scale(0.015625)"/>
      <path id="DejaVuSans-43" d="M 4122 4306 
L 4122 3641 
Q 3803 3938 3442 4084 
Q 3081 4231 2675 4231 
Q 1875 4231 1450 3742 
Q 1025 3253 1025 2328 
Q 1025 1406 1450 917 
Q 1875 428 2675 428 
Q 3081 428 3442 575 
Q 3803 722 4122 1019 
L 4122 359 
Q 3791 134 3420 21 
Q 3050 -91 2638 -91 
Q 1578 -91 968 557 
Q 359 1206 359 2328 
Q 359 3453 968 4101 
Q 1578 4750 2638 4750 
Q 3056 4750 3426 4639 
Q 3797 4528 4122 4306 
z
" transform="scale(0.015625)"/>
      <path id="DejaVuSans-6c" d="M 603 4863 
L 1178 4863 
L 1178 0 
L 603 0 
L 603 4863 
z
" transform="scale(0.015625)"/>
      <path id="DejaVuSans-70" d="M 1159 525 
L 1159 -1331 
L 581 -1331 
L 581 3500 
L 1159 3500 
L 1159 2969 
Q 1341 3281 1617 3432 
Q 1894 3584 2278 3584 
Q 2916 3584 3314 3078 
Q 3713 2572 3713 1747 
Q 3713 922 3314 415 
Q 2916 -91 2278 -91 
Q 1894 -91 1617 61 
Q 1341 213 1159 525 
z
M 3116 1747 
Q 3116 2381 2855 2742 
Q 2594 3103 2138 3103 
Q 1681 3103 1420 2742 
Q 1159 2381 1159 1747 
Q 1159 1113 1420 752 
Q 1681 391 2138 391 
Q 2594 391 2855 752 
Q 3116 1113 3116 1747 
z
" transform="scale(0.015625)"/>
      <path id="DejaVuSans-76" d="M 191 3500 
L 800 3500 
L 1894 563 
L 2988 3500 
L 3597 3500 
L 2284 0 
L 1503 0 
L 191 3500 
z
" transform="scale(0.015625)"/>
      <path id="DejaVuSans-33" d="M 2597 2516 
Q 3050 2419 3304 2112 
Q 3559 1806 3559 1356 
Q 3559 666 3084 287 
Q 2609 -91 1734 -91 
Q 1441 -91 1130 -33 
Q 819 25 488 141 
L 488 750 
Q 750 597 1062 519 
Q 1375 441 1716 441 
Q 2309 441 2620 675 
Q 2931 909 2931 1356 
Q 2931 1769 2642 2001 
Q 2353 2234 1838 2234 
L 1294 2234 
L 1294 2753 
L 1863 2753 
Q 2328 2753 2575 2939 
Q 2822 3125 2822 3475 
Q 2822 3834 2567 4026 
Q 2313 4219 1838 4219 
Q 1578 4219 1281 4162 
Q 984 4106 628 3988 
L 628 4550 
Q 988 4650 1302 4700 
Q 1616 4750 1894 4750 
Q 2613 4750 3031 4423 
Q 3450 4097 3450 3541 
Q 3450 3153 3228 2886 
Q 3006 2619 2597 2516 
z
" transform="scale(0.015625)"/>
      <path id="DejaVuSans-39" d="M 703 97 
L 703 672 
Q 941 559 1184 500 
Q 1428 441 1663 441 
Q 2288 441 2617 861 
Q 2947 1281 2994 2138 
Q 2813 1869 2534 1725 
Q 2256 1581 1919 1581 
Q 1219 1581 811 2004 
Q 403 2428 403 3163 
Q 403 3881 828 4315 
Q 1253 4750 1959 4750 
Q 2769 4750 3195 4129 
Q 3622 3509 3622 2328 
Q 3622 1225 3098 567 
Q 2575 -91 1691 -91 
Q 1453 -91 1209 -44 
Q 966 3 703 97 
z
M 1959 2075 
Q 2384 2075 2632 2365 
Q 2881 2656 2881 3163 
Q 2881 3666 2632 3958 
Q 2384 4250 1959 4250 
Q 1534 4250 1286 3958 
Q 1038 3666 1038 3163 
Q 1038 2656 1286 2365 
Q 1534 2075 1959 2075 
z
" transform="scale(0.015625)"/>
     </defs>
     <use xlink:href="#DejaVuSans-62"/>
     <use xlink:href="#DejaVuSans-65" x="63.476562"/>
     <use xlink:href="#DejaVuSans-6e" x="125"/>
     <use xlink:href="#DejaVuSans-63" x="188.378906"/>
     <use xlink:href="#DejaVuSans-68" x="243.359375"/>
     <use xlink:href="#DejaVuSans-6d" x="306.738281"/>
     <use xlink:href="#DejaVuSans-61" x="404.150391"/>
     <use xlink:href="#DejaVuSans-72" x="465.429688"/>
     <use xlink:href="#DejaVuSans-6b" x="506.542969"/>
     <use xlink:href="#DejaVuSans-64" x="564.453125"/>
     <use xlink:href="#DejaVuSans-61" x="627.929688"/>
     <use xlink:href="#DejaVuSans-74" x="689.208984"/>
     <use xlink:href="#DejaVuSans-61" x="728.417969"/>
     <use xlink:href="#DejaVuSans-20" x="789.697266"/>
     <use xlink:href="#DejaVuSans-66" x="821.484375"/>
     <use xlink:href="#DejaVuSans-6f" x="856.689453"/>
     <use xlink:href="#DejaVuSans-72" x="917.871094"/>
     <use xlink:href="#DejaVuSans-20" x="958.984375"/>
     <use xlink:href="#DejaVuSans-22" x="990.771484"/>
     <use xlink:href="#DejaVuSans-43" x="1036.767578"/>
     <use xlink:href="#DejaVuSans-65" x="1106.591797"/>
     <use xlink:href="#DejaVuSans-6c" x="1168.115234"/>
     <use xlink:href="#DejaVuSans-6c" x="1195.898438"/>
     <use xlink:href="#DejaVuSans-20" x="1223.681641"/>
     <use xlink:href="#DejaVuSans-70" x="1255.46875"/>
     <use xlink:href="#DejaVuSans-68" x="1318.945312"/>
     <use xlink:href="#DejaVuSans-6f" x="1382.324219"/>
     <use xlink:href="#DejaVuSans-6e" x="1443.505859"/>
     <use xlink:href="#DejaVuSans-65" x="1506.884766"/>
     <use xlink:href="#DejaVuSans-73" x="1568.408203"/>
     <use xlink:href="#DejaVuSans-20" x="1620.507812"/>
     <use xlink:href="#DejaVuSans-61" x="1652.294922"/>
     <use xlink:href="#DejaVuSans-6e" x="1713.574219"/>
     <use xlink:href="#DejaVuSans-64" x="1776.953125"/>
     <use xlink:href="#DejaVuSans-20" x="1840.429688"/>
     <use xlink:href="#DejaVuSans-73" x="1872.216797"/>
     <use xlink:href="#DejaVuSans-75" x="1924.316406"/>
     <use xlink:href="#DejaVuSans-70" x="1987.695312"/>
     <use xlink:href="#DejaVuSans-70" x="2051.171875"/>
     <use xlink:href="#DejaVuSans-6f" x="2114.648438"/>
     <use xlink:href="#DejaVuSans-72" x="2175.830078"/>
     <use xlink:href="#DejaVuSans-74" x="2216.943359"/>
     <use xlink:href="#DejaVuSans-69" x="2256.152344"/>
     <use xlink:href="#DejaVuSans-6e" x="2283.935547"/>
     <use xlink:href="#DejaVuSans-67" x="2347.314453"/>
     <use xlink:href="#DejaVuSans-20" x="2410.791016"/>
     <use xlink:href="#DejaVuSans-73" x="2442.578125"/>
     <use xlink:href="#DejaVuSans-65" x="2494.677734"/>
     <use xlink:href="#DejaVuSans-72" x="2556.201172"/>
     <use xlink:href="#DejaVuSans-76" x="2597.314453"/>
     <use xlink:href="#DejaVuSans-69" x="2656.494141"/>
     <use xlink:href="#DejaVuSans-63" x="2684.277344"/>
     <use xlink:href="#DejaVuSans-65" x="2739.257812"/>
     <use xlink:href="#DejaVuSans-73" x="2800.78125"/>
     <use xlink:href="#DejaVuSans-22" x="2852.880859"/>
     <use xlink:href="#DejaVuSans-20" x="2898.876953"/>
     <use xlink:href="#DejaVuSans-4d" x="2930.664062"/>
     <use xlink:href="#DejaVuSans-61" x="3016.943359"/>
     <use xlink:href="#DejaVuSans-72" x="3078.222656"/>
     <use xlink:href="#DejaVuSans-6b" x="3119.335938"/>
     <use xlink:href="#DejaVuSans-65" x="3173.621094"/>
     <use xlink:href="#DejaVuSans-74" x="3235.144531"/>
     <use xlink:href="#DejaVuSans-20" x="3274.353516"/>
     <use xlink:href="#DejaVuSans-73" x="3306.140625"/>
     <use xlink:href="#DejaVuSans-65" x="3358.240234"/>
     <use xlink:href="#DejaVuSans-63" x="3419.763672"/>
     <use xlink:href="#DejaVuSans-74" x="3474.744141"/>
     <use xlink:href="#DejaVuSans-6f" x="3513.953125"/>
     <use xlink:href="#DejaVuSans-72" x="3575.134766"/>
     <use xlink:href="#DejaVuSans-20" x="3616.248047"/>
     <use xlink:href="#DejaVuSans-75" x="3648.035156"/>
     <use xlink:href="#DejaVuSans-73" x="3711.414062"/>
     <use xlink:href="#DejaVuSans-69" x="3763.513672"/>
     <use xlink:href="#DejaVuSans-6e" x="3791.296875"/>
     <use xlink:href="#DejaVuSans-67" x="3854.675781"/>
     <use xlink:href="#DejaVuSans-20" x="3918.152344"/>
     <use xlink:href="#DejaVuSans-31" x="3949.939453"/>
     <use xlink:href="#DejaVuSans-30" x="4013.5625"/>
     <use xlink:href="#DejaVuSans-38" x="4077.185547"/>
     <use xlink:href="#DejaVuSans-20" x="4140.808594"/>
     <use xlink:href="#DejaVuSans-73" x="4172.595703"/>
     <use xlink:href="#DejaVuSans-61" x="4224.695312"/>
     <use xlink:href="#DejaVuSans-6d" x="4285.974609"/>
     <use xlink:href="#DejaVuSans-70" x="4383.386719"/>
     <use xlink:href="#DejaVuSans-6c" x="4446.863281"/>
     <use xlink:href="#DejaVuSans-65" x="4474.646484"/>
     <use xlink:href="#DejaVuSans-64" x="4536.169922"/>
     <use xlink:href="#DejaVuSans-20" x="4599.646484"/>
     <use xlink:href="#DejaVuSans-6d" x="4631.433594"/>
     <use xlink:href="#DejaVuSans-65" x="4728.845703"/>
     <use xlink:href="#DejaVuSans-74" x="4790.369141"/>
     <use xlink:href="#DejaVuSans-65" x="4829.578125"/>
     <use xlink:href="#DejaVuSans-72" x="4891.101562"/>
     <use xlink:href="#DejaVuSans-73" x="4932.214844"/>
     <use xlink:href="#DejaVuSans-2c" x="4984.314453"/>
     <use xlink:href="#DejaVuSans-20" x="5016.101562"/>
     <use xlink:href="#DejaVuSans-63" x="5047.888672"/>
     <use xlink:href="#DejaVuSans-6f" x="5102.869141"/>
     <use xlink:href="#DejaVuSans-6e" x="5164.050781"/>
     <use xlink:href="#DejaVuSans-73" x="5227.429688"/>
     <use xlink:href="#DejaVuSans-74" x="5279.529297"/>
     <use xlink:href="#DejaVuSans-72" x="5318.738281"/>
     <use xlink:href="#DejaVuSans-75" x="5359.851562"/>
     <use xlink:href="#DejaVuSans-63" x="5423.230469"/>
     <use xlink:href="#DejaVuSans-74" x="5478.210938"/>
     <use xlink:href="#DejaVuSans-65" x="5517.419922"/>
     <use xlink:href="#DejaVuSans-64" x="5578.943359"/>
     <use xlink:href="#DejaVuSans-20" x="5642.419922"/>
     <use xlink:href="#DejaVuSans-77" x="5674.207031"/>
     <use xlink:href="#DejaVuSans-69" x="5755.994141"/>
     <use xlink:href="#DejaVuSans-74" x="5783.777344"/>
     <use xlink:href="#DejaVuSans-68" x="5822.986328"/>
     <use xlink:href="#DejaVuSans-20" x="5886.365234"/>
     <use xlink:href="#DejaVuSans-32" x="5918.152344"/>
     <use xlink:href="#DejaVuSans-2c" x="5981.775391"/>
     <use xlink:href="#DejaVuSans-33" x="6013.5625"/>
     <use xlink:href="#DejaVuSans-37" x="6077.185547"/>
     <use xlink:href="#DejaVuSans-39" x="6140.808594"/>
     <use xlink:href="#DejaVuSans-2c" x="6204.431641"/>
     <use xlink:href="#DejaVuSans-30" x="6236.21875"/>
     <use xlink:href="#DejaVuSans-36" x="6299.841797"/>
     <use xlink:href="#DejaVuSans-35" x="6363.464844"/>
     <use xlink:href="#DejaVuSans-20" x="6427.087891"/>
     <use xlink:href="#DejaVuSans-73" x="6458.875"/>
     <use xlink:href="#DejaVuSans-61" x="6510.974609"/>
     <use xlink:href="#DejaVuSans-6d" x="6572.253906"/>
     <use xlink:href="#DejaVuSans-70" x="6669.666016"/>
     <use xlink:href="#DejaVuSans-6c" x="6733.142578"/>
     <use xlink:href="#DejaVuSans-65" x="6760.925781"/>
     <use xlink:href="#DejaVuSans-73" x="6822.449219"/>
    </g>
   </g>
   <g id="legend_1">
    <g id="patch_15">
     <path d="M 659.38125 85.550313 
L 824.34375 85.550313 
Q 826.34375 85.550313 826.34375 83.550313 
L 826.34375 29.318125 
Q 826.34375 27.318125 824.34375 27.318125 
L 659.38125 27.318125 
Q 657.38125 27.318125 657.38125 29.318125 
L 657.38125 83.550313 
Q 657.38125 85.550313 659.38125 85.550313 
z
" style="fill: #ffffff; opacity: 0.8; stroke: #cccccc; stroke-linejoin: miter"/>
    </g>
    <g id="line2d_75">
     <path d="M 661.38125 35.416562 
L 671.38125 35.416562 
L 681.38125 35.416562 
" style="fill: none; stroke: #ff0000; stroke-opacity: 0.4; stroke-width: 1.5; stroke-linecap: square"/>
    </g>
    <g id="text_40">
     <!-- Mean: 7.554 -->
     <g transform="translate(689.38125 38.916562) scale(0.1 -0.1)">
      <defs>
       <path id="DejaVuSans-34" d="M 2419 4116 
L 825 1625 
L 2419 1625 
L 2419 4116 
z
M 2253 4666 
L 3047 4666 
L 3047 1625 
L 3713 1625 
L 3713 1100 
L 3047 1100 
L 3047 0 
L 2419 0 
L 2419 1100 
L 313 1100 
L 313 1709 
L 2253 4666 
z
" transform="scale(0.015625)"/>
      </defs>
      <use xlink:href="#DejaVuSans-4d"/>
      <use xlink:href="#DejaVuSans-65" x="86.279297"/>
      <use xlink:href="#DejaVuSans-61" x="147.802734"/>
      <use xlink:href="#DejaVuSans-6e" x="209.082031"/>
      <use xlink:href="#DejaVuSans-3a" x="272.460938"/>
      <use xlink:href="#DejaVuSans-20" x="306.152344"/>
      <use xlink:href="#DejaVuSans-37" x="337.939453"/>
      <use xlink:href="#DejaVuSans-2e" x="401.5625"/>
      <use xlink:href="#DejaVuSans-35" x="433.349609"/>
      <use xlink:href="#DejaVuSans-35" x="496.972656"/>
      <use xlink:href="#DejaVuSans-34" x="560.595703"/>
     </g>
    </g>
    <g id="patch_16">
     <path d="M 661.38125 53.594688 
L 681.38125 53.594688 
L 681.38125 46.594688 
L 661.38125 46.594688 
z
" style="fill: #ff0000; fill-opacity: 0.2; stroke: #ff0000; stroke-opacity: 0.2; stroke-linejoin: miter"/>
    </g>
    <g id="text_41">
     <!-- Std Dev: 4.838 -->
     <g transform="translate(689.38125 53.594688) scale(0.1 -0.1)">
      <defs>
       <path id="DejaVuSans-44" d="M 1259 4147 
L 1259 519 
L 2022 519 
Q 2988 519 3436 956 
Q 3884 1394 3884 2338 
Q 3884 3275 3436 3711 
Q 2988 4147 2022 4147 
L 1259 4147 
z
M 628 4666 
L 1925 4666 
Q 3281 4666 3915 4102 
Q 4550 3538 4550 2338 
Q 4550 1131 3912 565 
Q 3275 0 1925 0 
L 628 0 
L 628 4666 
z
" transform="scale(0.015625)"/>
      </defs>
      <use xlink:href="#DejaVuSans-53"/>
      <use xlink:href="#DejaVuSans-74" x="63.476562"/>
      <use xlink:href="#DejaVuSans-64" x="102.685547"/>
      <use xlink:href="#DejaVuSans-20" x="166.162109"/>
      <use xlink:href="#DejaVuSans-44" x="197.949219"/>
      <use xlink:href="#DejaVuSans-65" x="274.951172"/>
      <use xlink:href="#DejaVuSans-76" x="336.474609"/>
      <use xlink:href="#DejaVuSans-3a" x="390.154297"/>
      <use xlink:href="#DejaVuSans-20" x="423.845703"/>
      <use xlink:href="#DejaVuSans-34" x="455.632812"/>
      <use xlink:href="#DejaVuSans-2e" x="519.255859"/>
      <use xlink:href="#DejaVuSans-38" x="551.042969"/>
      <use xlink:href="#DejaVuSans-33" x="614.666016"/>
      <use xlink:href="#DejaVuSans-38" x="678.289062"/>
     </g>
    </g>
    <g id="line2d_76">
     <path d="M 661.38125 71.411563 
L 671.38125 71.411563 
L 681.38125 71.411563 
" style="fill: none; stroke: #0000ff; stroke-width: 1.5; stroke-linecap: square"/>
    </g>
    <g id="text_42">
     <!-- Performance Comparison:  -->
     <g transform="translate(689.38125 68.272812) scale(0.1 -0.1)">
      <use xlink:href="#DejaVuSans-50"/>
      <use xlink:href="#DejaVuSans-65" x="56.677734"/>
      <use xlink:href="#DejaVuSans-72" x="118.201172"/>
      <use xlink:href="#DejaVuSans-66" x="159.314453"/>
      <use xlink:href="#DejaVuSans-6f" x="194.519531"/>
      <use xlink:href="#DejaVuSans-72" x="255.701172"/>
      <use xlink:href="#DejaVuSans-6d" x="295.064453"/>
      <use xlink:href="#DejaVuSans-61" x="392.476562"/>
      <use xlink:href="#DejaVuSans-6e" x="453.755859"/>
      <use xlink:href="#DejaVuSans-63" x="517.134766"/>
      <use xlink:href="#DejaVuSans-65" x="572.115234"/>
      <use xlink:href="#DejaVuSans-20" x="633.638672"/>
      <use xlink:href="#DejaVuSans-43" x="665.425781"/>
      <use xlink:href="#DejaVuSans-6f" x="735.25"/>
      <use xlink:href="#DejaVuSans-6d" x="796.431641"/>
      <use xlink:href="#DejaVuSans-70" x="893.84375"/>
      <use xlink:href="#DejaVuSans-61" x="957.320312"/>
      <use xlink:href="#DejaVuSans-72" x="1018.599609"/>
      <use xlink:href="#DejaVuSans-69" x="1059.712891"/>
      <use xlink:href="#DejaVuSans-73" x="1087.496094"/>
      <use xlink:href="#DejaVuSans-6f" x="1139.595703"/>
      <use xlink:href="#DejaVuSans-6e" x="1200.777344"/>
      <use xlink:href="#DejaVuSans-3a" x="1264.15625"/>
      <use xlink:href="#DejaVuSans-20" x="1297.847656"/>
     </g>
     <!-- Mean: 0.006 -->
     <g transform="translate(689.38125 79.470625) scale(0.1 -0.1)">
      <use xlink:href="#DejaVuSans-4d"/>
      <use xlink:href="#DejaVuSans-65" x="86.279297"/>
      <use xlink:href="#DejaVuSans-61" x="147.802734"/>
      <use xlink:href="#DejaVuSans-6e" x="209.082031"/>
      <use xlink:href="#DejaVuSans-3a" x="272.460938"/>
      <use xlink:href="#DejaVuSans-20" x="306.152344"/>
      <use xlink:href="#DejaVuSans-30" x="337.939453"/>
      <use xlink:href="#DejaVuSans-2e" x="401.5625"/>
      <use xlink:href="#DejaVuSans-30" x="433.349609"/>
      <use xlink:href="#DejaVuSans-30" x="496.972656"/>
      <use xlink:href="#DejaVuSans-36" x="560.595703"/>
     </g>
    </g>
   </g>
  </g>
 </g>
 <defs>
  <clipPath id="p3dec0bfebd">
   <rect x="50.14375" y="22.318125" width="781.2" height="332.64"/>
  </clipPath>
 </defs>
</svg>
