<?xml version="1.0" encoding="utf-8" standalone="no"?>
<!DOCTYPE svg PUBLIC "-//W3C//DTD SVG 1.1//EN"
  "http://www.w3.org/Graphics/SVG/1.1/DTD/svg11.dtd">
<svg xmlns:xlink="http://www.w3.org/1999/xlink" width="822.640625pt" height="453.244198pt" viewBox="0 0 822.640625 453.244198" xmlns="http://www.w3.org/2000/svg" version="1.1">
 <metadata>
  <rdf:RDF xmlns:dc="http://purl.org/dc/elements/1.1/" xmlns:cc="http://creativecommons.org/ns#" xmlns:rdf="http://www.w3.org/1999/02/22-rdf-syntax-ns#">
   <cc:Work>
    <dc:type rdf:resource="http://purl.org/dc/dcmitype/StillImage"/>
    <dc:date>2024-07-22T21:23:26.222946</dc:date>
    <dc:format>image/svg+xml</dc:format>
    <dc:creator>
     <cc:Agent>
      <dc:title>Matplotlib v3.8.4, https://matplotlib.org/</dc:title>
     </cc:Agent>
    </dc:creator>
   </cc:Work>
  </rdf:RDF>
 </metadata>
 <defs>
  <style type="text/css">*{stroke-linejoin: round; stroke-linecap: butt}</style>
 </defs>
 <g id="figure_1">
  <g id="patch_1">
   <path d="M 0 453.244198 
L 822.640625 453.244198 
L 822.640625 0 
L 0 0 
z
" style="fill: #ffffff"/>
  </g>
  <g id="axes_1">
   <g id="patch_2">
    <path d="M 34.240625 354.958125 
L 815.440625 354.958125 
L 815.440625 22.318125 
L 34.240625 22.318125 
z
" style="fill: #ffffff"/>
   </g>
   <g id="PolyCollection_1">
    <defs>
     <path id="m701d94315e" d="M 69.749716 -215.194165 
L 69.749716 -116.248832 
L 71.869662 -116.644089 
L 73.989607 -116.860939 
L 76.109553 -116.553628 
L 78.229499 -116.756159 
L 80.349445 -116.649012 
L 82.46939 -116.432252 
L 84.589336 -116.319079 
L 86.709282 -115.656894 
L 88.829227 -115.267505 
L 90.949173 -115.081922 
L 93.069119 -114.841467 
L 95.189065 -115.768729 
L 97.30901 -116.395733 
L 99.428956 -116.150104 
L 101.548902 -117.144161 
L 103.668848 -121.688028 
L 105.788793 -126.650354 
L 107.908739 -130.30678 
L 110.028685 -134.375291 
L 112.14863 -137.050089 
L 114.268576 -138.244741 
L 116.388522 -140.393951 
L 118.508468 -141.742367 
L 120.628413 -142.966025 
L 122.748359 -142.052828 
L 124.868305 -142.325144 
L 126.988251 -142.37612 
L 129.108196 -142.244002 
L 131.228142 -141.277249 
L 133.348088 -142.171109 
L 135.468033 -142.147974 
L 137.587979 -140.784936 
L 139.707925 -135.633377 
L 141.827871 -132.720461 
L 143.947816 -128.33888 
L 146.067762 -123.652877 
L 148.187708 -121.266697 
L 150.307653 -119.785738 
L 152.427599 -118.065428 
L 154.547545 -117.720192 
L 156.667491 -117.839617 
L 158.787436 -117.857991 
L 160.907382 -117.432876 
L 163.027328 -116.755676 
L 165.147274 -117.459852 
L 167.267219 -117.21416 
L 169.387165 -116.929413 
L 171.507111 -116.963513 
L 173.627056 -117.269766 
L 175.747002 -117.443437 
L 177.866948 -116.849572 
L 179.986894 -116.929858 
L 182.106839 -116.833641 
L 184.226785 -116.913379 
L 186.346731 -116.327003 
L 188.466677 -116.440004 
L 190.586622 -116.121771 
L 192.706568 -115.065874 
L 194.826514 -114.606639 
L 196.946459 -115.820246 
L 199.066405 -116.251514 
L 201.186351 -116.800436 
L 203.306297 -118.686153 
L 205.426242 -123.246918 
L 207.546188 -128.897972 
L 209.666134 -131.021328 
L 211.78608 -134.376239 
L 213.906025 -136.220165 
L 216.025971 -139.910445 
L 218.145917 -141.893773 
L 220.265862 -144.792015 
L 222.385808 -145.768594 
L 224.505754 -144.335075 
L 226.6257 -145.128611 
L 228.745645 -144.959323 
L 230.865591 -144.700578 
L 232.985537 -143.938314 
L 235.105483 -144.870076 
L 237.225428 -144.352322 
L 239.345374 -141.556191 
L 241.46532 -136.559436 
L 243.585265 -133.798598 
L 245.705211 -129.671482 
L 247.825157 -124.477525 
L 249.945103 -122.788573 
L 252.065048 -120.369796 
L 254.184994 -118.619103 
L 256.30494 -117.371277 
L 258.424886 -117.238017 
L 260.544831 -117.367469 
L 262.664777 -117.986012 
L 264.784723 -117.429646 
L 266.904668 -117.663412 
L 269.024614 -117.562623 
L 271.14456 -117.053414 
L 273.264506 -116.732479 
L 275.384451 -116.988426 
L 277.504397 -116.78223 
L 279.624343 -116.736278 
L 281.744289 -116.987845 
L 283.864234 -116.737032 
L 285.98418 -116.737426 
L 288.104126 -116.033075 
L 290.224071 -115.847448 
L 292.344017 -115.97829 
L 294.463963 -115.202888 
L 296.583909 -115.469575 
L 298.703854 -116.049722 
L 300.8238 -116.234182 
L 302.943746 -116.952158 
L 305.063691 -117.836902 
L 307.183637 -122.323483 
L 309.303583 -128.173211 
L 311.423529 -131.331368 
L 313.543474 -135.546289 
L 315.66342 -138.011592 
L 317.783366 -140.380453 
L 319.903312 -144.465381 
L 322.023257 -145.141032 
L 324.143203 -145.820339 
L 326.263149 -144.94809 
L 328.383094 -146.48076 
L 330.50304 -145.820006 
L 332.622986 -144.674542 
L 334.742932 -144.330545 
L 336.862877 -144.165519 
L 338.982823 -143.793702 
L 341.102769 -142.375883 
L 343.222715 -137.852895 
L 345.34266 -134.844828 
L 347.462606 -129.835095 
L 349.582552 -125.203249 
L 351.702497 -122.161177 
L 353.822443 -120.521785 
L 355.942389 -118.901782 
L 358.062335 -117.962971 
L 360.18228 -117.81049 
L 362.302226 -117.965248 
L 364.422172 -117.814688 
L 366.542118 -116.928339 
L 368.662063 -117.624756 
L 370.782009 -117.358879 
L 372.901955 -117.23459 
L 375.0219 -117.064301 
L 377.141846 -116.892494 
L 379.261792 -117.041837 
L 381.381738 -116.84875 
L 383.501683 -116.585252 
L 385.621629 -116.64636 
L 387.741575 -116.239938 
L 389.861521 -116.200058 
L 391.981466 -116.066298 
L 394.101412 -115.951918 
L 396.221358 -115.234219 
L 398.341303 -115.482221 
L 400.461249 -115.711901 
L 402.581195 -116.611799 
L 404.701141 -117.367693 
L 406.821086 -119.613416 
L 408.941032 -123.248023 
L 411.060978 -128.755824 
L 413.180924 -130.794981 
L 415.300869 -133.57295 
L 417.420815 -137.060989 
L 419.540761 -139.302694 
L 421.660706 -143.434874 
L 423.780652 -144.137802 
L 425.900598 -145.468849 
L 428.020544 -143.931326 
L 430.140489 -144.398205 
L 432.260435 -144.876235 
L 434.380381 -144.252816 
L 436.500326 -142.940875 
L 438.620272 -143.17057 
L 440.740218 -142.726255 
L 442.860164 -141.398462 
L 444.980109 -136.158846 
L 447.100055 -133.013007 
L 449.220001 -129.285852 
L 451.339947 -124.579104 
L 453.459892 -121.639246 
L 455.579838 -119.933746 
L 457.699784 -118.106564 
L 459.819729 -117.151158 
L 461.939675 -117.102821 
L 464.059621 -117.439419 
L 466.179567 -117.392535 
L 468.299512 -116.593941 
L 470.419458 -117.043085 
L 472.539404 -116.894244 
L 474.65935 -116.333495 
L 476.779295 -116.520824 
L 478.899241 -116.70108 
L 481.019187 -116.670088 
L 483.139132 -116.342065 
L 485.259078 -116.989696 
L 487.379024 -116.495121 
L 489.49897 -116.285753 
L 491.618915 -116.471372 
L 493.738861 -116.15474 
L 495.858807 -115.898308 
L 497.978753 -115.363493 
L 500.098698 -115.431197 
L 502.218644 -116.041917 
L 504.33859 -116.371737 
L 506.458535 -116.712223 
L 508.578481 -118.78465 
L 510.698427 -122.820477 
L 512.818373 -127.443609 
L 514.938318 -131.084487 
L 517.058264 -133.796518 
L 519.17821 -136.420444 
L 521.298156 -137.488259 
L 523.418101 -139.998055 
L 525.538047 -141.225298 
L 527.657993 -141.948586 
L 529.777938 -140.711491 
L 531.897884 -140.582894 
L 534.01783 -140.598364 
L 536.137776 -139.545425 
L 538.257721 -138.38955 
L 540.377667 -138.170704 
L 542.497613 -136.402865 
L 544.617559 -134.355826 
L 546.737504 -129.929674 
L 548.85745 -127.146797 
L 550.977396 -124.02632 
L 553.097341 -120.523401 
L 555.217287 -118.506655 
L 557.337233 -117.623089 
L 559.457179 -117.639115 
L 561.577124 -117.000232 
L 563.69707 -117.801936 
L 565.817016 -117.879895 
L 567.936961 -117.24137 
L 570.056907 -116.817251 
L 572.176853 -117.133995 
L 574.296799 -116.955522 
L 576.416744 -116.980147 
L 578.53669 -116.673034 
L 580.656636 -116.844322 
L 582.776582 -117.149131 
L 584.896527 -116.63675 
L 587.016473 -116.802074 
L 589.136419 -116.500106 
L 591.256364 -116.891794 
L 593.37631 -116.533871 
L 595.496256 -116.538033 
L 597.616202 -115.933915 
L 599.736147 -116.051995 
L 601.856093 -115.355697 
L 603.976039 -116.237976 
L 606.095985 -116.480913 
L 608.21593 -115.5737 
L 610.335876 -114.752922 
L 612.455822 -114.296345 
L 614.575767 -114.979664 
L 616.695713 -114.622511 
L 618.815659 -114.691334 
L 620.935605 -114.922554 
L 623.05555 -115.705334 
L 625.175496 -115.689443 
L 627.295442 -115.926098 
L 629.415388 -115.412424 
L 631.535333 -116.307062 
L 633.655279 -116.065372 
L 635.775225 -115.816225 
L 637.89517 -115.707096 
L 640.015116 -116.106734 
L 642.135062 -116.153768 
L 644.255008 -115.732316 
L 646.374953 -115.83694 
L 648.494899 -116.450056 
L 650.614845 -115.990641 
L 652.734791 -115.833902 
L 654.854736 -115.725605 
L 656.974682 -116.175985 
L 659.094628 -115.992461 
L 661.214573 -116.125205 
L 663.334519 -116.378706 
L 665.454465 -116.55826 
L 667.574411 -116.931512 
L 669.694356 -116.457913 
L 671.814302 -116.263434 
L 673.934248 -116.575147 
L 676.054194 -116.54795 
L 678.174139 -116.308634 
L 680.294085 -115.96813 
L 682.414031 -116.119733 
L 684.533976 -116.521467 
L 686.653922 -115.995687 
L 688.773868 -116.20168 
L 690.893814 -116.433159 
L 693.013759 -116.63522 
L 695.133705 -116.346854 
L 697.253651 -116.368455 
L 699.373597 -115.965857 
L 701.493542 -115.98951 
L 703.613488 -115.638087 
L 705.733434 -116.139316 
L 707.853379 -116.339828 
L 709.973325 -116.350594 
L 712.093271 -115.660809 
L 714.213217 -114.647049 
L 716.333162 -114.815528 
L 718.453108 -114.118155 
L 720.573054 -113.663158 
L 722.692999 -113.406073 
L 724.812945 -114.222002 
L 726.932891 -113.991362 
L 729.052837 -114.249006 
L 731.172782 -114.262957 
L 733.292728 -114.46579 
L 735.412674 -114.694517 
L 737.53262 -114.83867 
L 739.652565 -114.985892 
L 741.772511 -115.765621 
L 743.892457 -115.43232 
L 746.012402 -115.206031 
L 748.132348 -115.194307 
L 750.252294 -115.626695 
L 752.37224 -116.008352 
L 754.492185 -116.06888 
L 756.612131 -116.424963 
L 758.732077 -116.507533 
L 760.852023 -116.894233 
L 762.971968 -116.650578 
L 765.091914 -116.336222 
L 767.21186 -116.675338 
L 769.331805 -117.109092 
L 771.451751 -117.138226 
L 773.571697 -116.804516 
L 775.691643 -116.781135 
L 777.811588 -116.775594 
L 779.931534 -116.515245 
L 779.931534 -215.339527 
L 779.931534 -215.339527 
L 777.811588 -215.258285 
L 775.691643 -215.380258 
L 773.571697 -214.963666 
L 771.451751 -215.093051 
L 769.331805 -215.553041 
L 767.21186 -215.771814 
L 765.091914 -216.429931 
L 762.971968 -216.034541 
L 760.852023 -216.827716 
L 758.732077 -218.817902 
L 756.612131 -221.712727 
L 754.492185 -223.929784 
L 752.37224 -226.032771 
L 750.252294 -225.672813 
L 748.132348 -226.231643 
L 746.012402 -226.699085 
L 743.892457 -227.526332 
L 741.772511 -228.139621 
L 739.652565 -230.84699 
L 737.53262 -231.971566 
L 735.412674 -230.895243 
L 733.292728 -231.472145 
L 731.172782 -231.144763 
L 729.052837 -231.220656 
L 726.932891 -231.946028 
L 724.812945 -230.278107 
L 722.692999 -230.954445 
L 720.573054 -229.515531 
L 718.453108 -228.417877 
L 716.333162 -226.684354 
L 714.213217 -223.535517 
L 712.093271 -218.268593 
L 709.973325 -215.513604 
L 707.853379 -215.098631 
L 705.733434 -214.538107 
L 703.613488 -217.175662 
L 701.493542 -215.910116 
L 699.373597 -215.452633 
L 697.253651 -214.885861 
L 695.133705 -214.738194 
L 693.013759 -214.418667 
L 690.893814 -215.764604 
L 688.773868 -214.913689 
L 686.653922 -216.282498 
L 684.533976 -215.266459 
L 682.414031 -216.797863 
L 680.294085 -216.190171 
L 678.174139 -216.986949 
L 676.054194 -216.305882 
L 673.934248 -215.811397 
L 671.814302 -216.19668 
L 669.694356 -216.549666 
L 667.574411 -218.417336 
L 665.454465 -218.901248 
L 663.334519 -219.507372 
L 661.214573 -219.897746 
L 659.094628 -221.106299 
L 656.974682 -222.552265 
L 654.854736 -225.225642 
L 652.734791 -226.882472 
L 650.614845 -228.443828 
L 648.494899 -229.440225 
L 646.374953 -233.298488 
L 644.255008 -233.475784 
L 642.135062 -234.015275 
L 640.015116 -234.648421 
L 637.89517 -235.344256 
L 635.775225 -235.986922 
L 633.655279 -236.259057 
L 631.535333 -236.139738 
L 629.415388 -236.177851 
L 627.295442 -236.827063 
L 625.175496 -236.99373 
L 623.05555 -236.726793 
L 620.935605 -236.71255 
L 618.815659 -234.376656 
L 616.695713 -233.778392 
L 614.575767 -232.386507 
L 612.455822 -226.628932 
L 610.335876 -223.070706 
L 608.21593 -219.297556 
L 606.095985 -217.759849 
L 603.976039 -215.472427 
L 601.856093 -218.462362 
L 599.736147 -216.269861 
L 597.616202 -216.526126 
L 595.496256 -214.933187 
L 593.37631 -215.47832 
L 591.256364 -214.590625 
L 589.136419 -215.543837 
L 587.016473 -213.358717 
L 584.896527 -214.818179 
L 582.776582 -213.95316 
L 580.656636 -215.459168 
L 578.53669 -213.744454 
L 576.416744 -214.968376 
L 574.296799 -215.498053 
L 572.176853 -215.317742 
L 570.056907 -216.67227 
L 567.936961 -215.020046 
L 565.817016 -217.943961 
L 563.69707 -221.149282 
L 561.577124 -224.471307 
L 559.457179 -229.710799 
L 557.337233 -236.424112 
L 555.217287 -239.52512 
L 553.097341 -250.946504 
L 550.977396 -260.973891 
L 548.85745 -270.451491 
L 546.737504 -276.801311 
L 544.617559 -283.06132 
L 542.497613 -284.684335 
L 540.377667 -287.889892 
L 538.257721 -288.223968 
L 536.137776 -289.723374 
L 534.01783 -291.634422 
L 531.897884 -291.460916 
L 529.777938 -290.573082 
L 527.657993 -294.347599 
L 525.538047 -292.09854 
L 523.418101 -290.778921 
L 521.298156 -289.11253 
L 519.17821 -289.557279 
L 517.058264 -288.269109 
L 514.938318 -284.443854 
L 512.818373 -272.799183 
L 510.698427 -262.088403 
L 508.578481 -251.11701 
L 506.458535 -238.578584 
L 504.33859 -225.387665 
L 502.218644 -221.18699 
L 500.098698 -220.206602 
L 497.978753 -219.075627 
L 495.858807 -219.165261 
L 493.738861 -219.240406 
L 491.618915 -217.084429 
L 489.49897 -218.397478 
L 487.379024 -219.882318 
L 485.259078 -215.91537 
L 483.139132 -216.756493 
L 481.019187 -217.144182 
L 478.899241 -216.959607 
L 476.779295 -217.784196 
L 474.65935 -218.287645 
L 472.539404 -218.522875 
L 470.419458 -219.023184 
L 468.299512 -220.102947 
L 466.179567 -219.565932 
L 464.059621 -224.26711 
L 461.939675 -227.005817 
L 459.819729 -229.813472 
L 457.699784 -234.422716 
L 455.579838 -240.322015 
L 453.459892 -246.676497 
L 451.339947 -260.574995 
L 449.220001 -271.348043 
L 447.100055 -282.47904 
L 444.980109 -288.305254 
L 442.860164 -293.146958 
L 440.740218 -294.284594 
L 438.620272 -294.341789 
L 436.500326 -294.197848 
L 434.380381 -295.454314 
L 432.260435 -296.683905 
L 430.140489 -295.55693 
L 428.020544 -295.684368 
L 425.900598 -300.49904 
L 423.780652 -298.617558 
L 421.660706 -300.820238 
L 419.540761 -295.498162 
L 417.420815 -296.028813 
L 415.300869 -290.669368 
L 413.180924 -286.419453 
L 411.060978 -278.13603 
L 408.941032 -267.236793 
L 406.821086 -252.868345 
L 404.701141 -239.6751 
L 402.581195 -226.112866 
L 400.461249 -223.162598 
L 398.341303 -223.415146 
L 396.221358 -219.790527 
L 394.101412 -218.759644 
L 391.981466 -219.731485 
L 389.861521 -216.388384 
L 387.741575 -218.085359 
L 385.621629 -220.162864 
L 383.501683 -217.058436 
L 381.381738 -216.43559 
L 379.261792 -216.796268 
L 377.141846 -218.204668 
L 375.0219 -216.586113 
L 372.901955 -217.041408 
L 370.782009 -217.725689 
L 368.662063 -217.744324 
L 366.542118 -220.099251 
L 364.422172 -219.496313 
L 362.302226 -223.093873 
L 360.18228 -227.459036 
L 358.062335 -230.320178 
L 355.942389 -235.267179 
L 353.822443 -242.256416 
L 351.702497 -246.723576 
L 349.582552 -262.316683 
L 347.462606 -271.69755 
L 345.34266 -280.574338 
L 343.222715 -286.829238 
L 341.102769 -294.414238 
L 338.982823 -296.123826 
L 336.862877 -296.419819 
L 334.742932 -295.000005 
L 332.622986 -296.587791 
L 330.50304 -298.001016 
L 328.383094 -297.928413 
L 326.263149 -297.680077 
L 324.143203 -302.351045 
L 322.023257 -302.575227 
L 319.903312 -301.743752 
L 317.783366 -297.344301 
L 315.66342 -296.438 
L 313.543474 -292.385198 
L 311.423529 -288.803047 
L 309.303583 -276.454405 
L 307.183637 -264.092378 
L 305.063691 -251.725268 
L 302.943746 -238.958168 
L 300.8238 -225.414674 
L 298.703854 -219.05289 
L 296.583909 -221.091067 
L 294.463963 -219.853868 
L 292.344017 -217.948349 
L 290.224071 -218.778192 
L 288.104126 -216.144161 
L 285.98418 -218.380311 
L 283.864234 -219.171641 
L 281.744289 -215.822979 
L 279.624343 -216.202751 
L 277.504397 -215.602429 
L 275.384451 -216.527801 
L 273.264506 -215.39522 
L 271.14456 -216.185383 
L 269.024614 -216.754596 
L 266.904668 -217.496285 
L 264.784723 -219.198967 
L 262.664777 -219.3505 
L 260.544831 -223.723651 
L 258.424886 -225.849906 
L 256.30494 -228.991694 
L 254.184994 -233.174 
L 252.065048 -240.153016 
L 249.945103 -247.199891 
L 247.825157 -260.193609 
L 245.705211 -271.889269 
L 243.585265 -283.552634 
L 241.46532 -289.627895 
L 239.345374 -294.713928 
L 237.225428 -296.759484 
L 235.105483 -297.822835 
L 232.985537 -296.725243 
L 230.865591 -297.826081 
L 228.745645 -298.689613 
L 226.6257 -299.582786 
L 224.505754 -298.955685 
L 222.385808 -301.881836 
L 220.265862 -301.560968 
L 218.145917 -296.916836 
L 216.025971 -297.094514 
L 213.906025 -292.676253 
L 211.78608 -293.660533 
L 209.666134 -287.626435 
L 207.546188 -278.205475 
L 205.426242 -266.901247 
L 203.306297 -250.719768 
L 201.186351 -237.52838 
L 199.066405 -224.486988 
L 196.946459 -221.796276 
L 194.826514 -221.918093 
L 192.706568 -220.728837 
L 190.586622 -219.067159 
L 188.466677 -219.608729 
L 186.346731 -217.419581 
L 184.226785 -218.515123 
L 182.106839 -218.345789 
L 179.986894 -216.791679 
L 177.866948 -216.122933 
L 175.747002 -216.155023 
L 173.627056 -217.258142 
L 171.507111 -216.70821 
L 169.387165 -217.829928 
L 167.267219 -217.92284 
L 165.147274 -218.656329 
L 163.027328 -219.660031 
L 160.907382 -219.54298 
L 158.787436 -222.809471 
L 156.667491 -226.115135 
L 154.547545 -229.439706 
L 152.427599 -234.032238 
L 150.307653 -240.057555 
L 148.187708 -246.597774 
L 146.067762 -258.391032 
L 143.947816 -269.540403 
L 141.827871 -279.944053 
L 139.707925 -284.467183 
L 137.587979 -286.946519 
L 135.468033 -288.979784 
L 133.348088 -290.359746 
L 131.228142 -291.589236 
L 129.108196 -293.035004 
L 126.988251 -291.502081 
L 124.868305 -291.727344 
L 122.748359 -291.622461 
L 120.628413 -296.114071 
L 118.508468 -295.533487 
L 116.388522 -294.063942 
L 114.268576 -292.303387 
L 112.14863 -292.218003 
L 110.028685 -289.97104 
L 107.908739 -281.858324 
L 105.788793 -277.825878 
L 103.668848 -264.869747 
L 101.548902 -251.822023 
L 99.428956 -234.384343 
L 97.30901 -224.299549 
L 95.189065 -220.233276 
L 93.069119 -221.384336 
L 90.949173 -217.815713 
L 88.829227 -218.115344 
L 86.709282 -220.507939 
L 84.589336 -216.847302 
L 82.46939 -217.617143 
L 80.349445 -217.753306 
L 78.229499 -214.884399 
L 76.109553 -215.123169 
L 73.989607 -214.743908 
L 71.869662 -216.132629 
L 69.749716 -215.194165 
z
" style="stroke: #ff0000; stroke-opacity: 0.2"/>
    </defs>
    <g clip-path="url(#paee6d7be10)">
     <use xlink:href="#m701d94315e" x="0" y="453.244198" style="fill: #ff0000; fill-opacity: 0.2; stroke: #ff0000; stroke-opacity: 0.2"/>
    </g>
   </g>
   <g id="patch_3">
    <path d="M 69.749716 354.958125 
L 69.749716 22.318125 
L 95.189065 22.318125 
L 95.189065 354.958125 
z
" clip-path="url(#paee6d7be10)" style="opacity: 0.3; stroke: #000000; stroke-linejoin: miter"/>
   </g>
   <g id="patch_4">
    <path d="M 146.067762 354.958125 
L 146.067762 22.318125 
L 196.946459 22.318125 
L 196.946459 354.958125 
z
" clip-path="url(#paee6d7be10)" style="opacity: 0.3; stroke: #000000; stroke-linejoin: miter"/>
   </g>
   <g id="patch_5">
    <path d="M 247.825157 354.958125 
L 247.825157 22.318125 
L 298.703854 22.318125 
L 298.703854 354.958125 
z
" clip-path="url(#paee6d7be10)" style="opacity: 0.3; stroke: #000000; stroke-linejoin: miter"/>
   </g>
   <g id="patch_6">
    <path d="M 349.582552 354.958125 
L 349.582552 22.318125 
L 400.461249 22.318125 
L 400.461249 354.958125 
z
" clip-path="url(#paee6d7be10)" style="opacity: 0.3; stroke: #000000; stroke-linejoin: miter"/>
   </g>
   <g id="patch_7">
    <path d="M 451.339947 354.958125 
L 451.339947 22.318125 
L 502.218644 22.318125 
L 502.218644 354.958125 
z
" clip-path="url(#paee6d7be10)" style="opacity: 0.3; stroke: #000000; stroke-linejoin: miter"/>
   </g>
   <g id="patch_8">
    <path d="M 553.097341 354.958125 
L 553.097341 22.318125 
L 603.976039 22.318125 
L 603.976039 354.958125 
z
" clip-path="url(#paee6d7be10)" style="opacity: 0.3; stroke: #000000; stroke-linejoin: miter"/>
   </g>
   <g id="patch_9">
    <path d="M 654.854736 354.958125 
L 654.854736 22.318125 
L 705.733434 22.318125 
L 705.733434 354.958125 
z
" clip-path="url(#paee6d7be10)" style="opacity: 0.3; stroke: #000000; stroke-linejoin: miter"/>
   </g>
   <g id="patch_10">
    <path d="M 756.612131 354.958125 
L 756.612131 22.318125 
L 779.931534 22.318125 
L 779.931534 354.958125 
z
" clip-path="url(#paee6d7be10)" style="opacity: 0.3; stroke: #000000; stroke-linejoin: miter"/>
   </g>
   <g id="matplotlib.axis_1">
    <g id="xtick_1">
     <g id="line2d_1">
      <path d="M 69.749716 354.958125 
L 69.749716 22.318125 
" clip-path="url(#paee6d7be10)" style="fill: none; stroke: #b0b0b0; stroke-width: 0.8; stroke-linecap: square"/>
     </g>
     <g id="line2d_2">
      <defs>
       <path id="m268a1db8f6" d="M 0 0 
L 0 3.5 
" style="stroke: #000000; stroke-width: 0.8"/>
      </defs>
      <g>
       <use xlink:href="#m268a1db8f6" x="69.749716" y="354.958125" style="stroke: #000000; stroke-width: 0.8"/>
      </g>
     </g>
     <g id="text_1">
      <!-- Monday 00:00 -->
      <g transform="translate(17.737593 417.872594) rotate(-45) scale(0.1 -0.1)">
       <defs>
        <path id="DejaVuSans-4d" d="M 628 4666 
L 1569 4666 
L 2759 1491 
L 3956 4666 
L 4897 4666 
L 4897 0 
L 4281 0 
L 4281 4097 
L 3078 897 
L 2444 897 
L 1241 4097 
L 1241 0 
L 628 0 
L 628 4666 
z
" transform="scale(0.015625)"/>
        <path id="DejaVuSans-6f" d="M 1959 3097 
Q 1497 3097 1228 2736 
Q 959 2375 959 1747 
Q 959 1119 1226 758 
Q 1494 397 1959 397 
Q 2419 397 2687 759 
Q 2956 1122 2956 1747 
Q 2956 2369 2687 2733 
Q 2419 3097 1959 3097 
z
M 1959 3584 
Q 2709 3584 3137 3096 
Q 3566 2609 3566 1747 
Q 3566 888 3137 398 
Q 2709 -91 1959 -91 
Q 1206 -91 779 398 
Q 353 888 353 1747 
Q 353 2609 779 3096 
Q 1206 3584 1959 3584 
z
" transform="scale(0.015625)"/>
        <path id="DejaVuSans-6e" d="M 3513 2113 
L 3513 0 
L 2938 0 
L 2938 2094 
Q 2938 2591 2744 2837 
Q 2550 3084 2163 3084 
Q 1697 3084 1428 2787 
Q 1159 2491 1159 1978 
L 1159 0 
L 581 0 
L 581 3500 
L 1159 3500 
L 1159 2956 
Q 1366 3272 1645 3428 
Q 1925 3584 2291 3584 
Q 2894 3584 3203 3211 
Q 3513 2838 3513 2113 
z
" transform="scale(0.015625)"/>
        <path id="DejaVuSans-64" d="M 2906 2969 
L 2906 4863 
L 3481 4863 
L 3481 0 
L 2906 0 
L 2906 525 
Q 2725 213 2448 61 
Q 2172 -91 1784 -91 
Q 1150 -91 751 415 
Q 353 922 353 1747 
Q 353 2572 751 3078 
Q 1150 3584 1784 3584 
Q 2172 3584 2448 3432 
Q 2725 3281 2906 2969 
z
M 947 1747 
Q 947 1113 1208 752 
Q 1469 391 1925 391 
Q 2381 391 2643 752 
Q 2906 1113 2906 1747 
Q 2906 2381 2643 2742 
Q 2381 3103 1925 3103 
Q 1469 3103 1208 2742 
Q 947 2381 947 1747 
z
" transform="scale(0.015625)"/>
        <path id="DejaVuSans-61" d="M 2194 1759 
Q 1497 1759 1228 1600 
Q 959 1441 959 1056 
Q 959 750 1161 570 
Q 1363 391 1709 391 
Q 2188 391 2477 730 
Q 2766 1069 2766 1631 
L 2766 1759 
L 2194 1759 
z
M 3341 1997 
L 3341 0 
L 2766 0 
L 2766 531 
Q 2569 213 2275 61 
Q 1981 -91 1556 -91 
Q 1019 -91 701 211 
Q 384 513 384 1019 
Q 384 1609 779 1909 
Q 1175 2209 1959 2209 
L 2766 2209 
L 2766 2266 
Q 2766 2663 2505 2880 
Q 2244 3097 1772 3097 
Q 1472 3097 1187 3025 
Q 903 2953 641 2809 
L 641 3341 
Q 956 3463 1253 3523 
Q 1550 3584 1831 3584 
Q 2591 3584 2966 3190 
Q 3341 2797 3341 1997 
z
" transform="scale(0.015625)"/>
        <path id="DejaVuSans-79" d="M 2059 -325 
Q 1816 -950 1584 -1140 
Q 1353 -1331 966 -1331 
L 506 -1331 
L 506 -850 
L 844 -850 
Q 1081 -850 1212 -737 
Q 1344 -625 1503 -206 
L 1606 56 
L 191 3500 
L 800 3500 
L 1894 763 
L 2988 3500 
L 3597 3500 
L 2059 -325 
z
" transform="scale(0.015625)"/>
        <path id="DejaVuSans-20" transform="scale(0.015625)"/>
        <path id="DejaVuSans-30" d="M 2034 4250 
Q 1547 4250 1301 3770 
Q 1056 3291 1056 2328 
Q 1056 1369 1301 889 
Q 1547 409 2034 409 
Q 2525 409 2770 889 
Q 3016 1369 3016 2328 
Q 3016 3291 2770 3770 
Q 2525 4250 2034 4250 
z
M 2034 4750 
Q 2819 4750 3233 4129 
Q 3647 3509 3647 2328 
Q 3647 1150 3233 529 
Q 2819 -91 2034 -91 
Q 1250 -91 836 529 
Q 422 1150 422 2328 
Q 422 3509 836 4129 
Q 1250 4750 2034 4750 
z
" transform="scale(0.015625)"/>
        <path id="DejaVuSans-3a" d="M 750 794 
L 1409 794 
L 1409 0 
L 750 0 
L 750 794 
z
M 750 3309 
L 1409 3309 
L 1409 2516 
L 750 2516 
L 750 3309 
z
" transform="scale(0.015625)"/>
       </defs>
       <use xlink:href="#DejaVuSans-4d"/>
       <use xlink:href="#DejaVuSans-6f" x="86.279297"/>
       <use xlink:href="#DejaVuSans-6e" x="147.460938"/>
       <use xlink:href="#DejaVuSans-64" x="210.839844"/>
       <use xlink:href="#DejaVuSans-61" x="274.316406"/>
       <use xlink:href="#DejaVuSans-79" x="335.595703"/>
       <use xlink:href="#DejaVuSans-20" x="394.775391"/>
       <use xlink:href="#DejaVuSans-30" x="426.5625"/>
       <use xlink:href="#DejaVuSans-30" x="490.185547"/>
       <use xlink:href="#DejaVuSans-3a" x="553.808594"/>
       <use xlink:href="#DejaVuSans-30" x="587.5"/>
       <use xlink:href="#DejaVuSans-30" x="651.123047"/>
      </g>
     </g>
    </g>
    <g id="xtick_2">
     <g id="line2d_3">
      <path d="M 95.189065 354.958125 
L 95.189065 22.318125 
" clip-path="url(#paee6d7be10)" style="fill: none; stroke: #b0b0b0; stroke-width: 0.8; stroke-linecap: square"/>
     </g>
     <g id="line2d_4">
      <g>
       <use xlink:href="#m268a1db8f6" x="95.189065" y="354.958125" style="stroke: #000000; stroke-width: 0.8"/>
      </g>
     </g>
     <g id="text_2">
      <!-- 06:00 -->
      <g transform="translate(73.34057 387.708965) rotate(-45) scale(0.1 -0.1)">
       <defs>
        <path id="DejaVuSans-36" d="M 2113 2584 
Q 1688 2584 1439 2293 
Q 1191 2003 1191 1497 
Q 1191 994 1439 701 
Q 1688 409 2113 409 
Q 2538 409 2786 701 
Q 3034 994 3034 1497 
Q 3034 2003 2786 2293 
Q 2538 2584 2113 2584 
z
M 3366 4563 
L 3366 3988 
Q 3128 4100 2886 4159 
Q 2644 4219 2406 4219 
Q 1781 4219 1451 3797 
Q 1122 3375 1075 2522 
Q 1259 2794 1537 2939 
Q 1816 3084 2150 3084 
Q 2853 3084 3261 2657 
Q 3669 2231 3669 1497 
Q 3669 778 3244 343 
Q 2819 -91 2113 -91 
Q 1303 -91 875 529 
Q 447 1150 447 2328 
Q 447 3434 972 4092 
Q 1497 4750 2381 4750 
Q 2619 4750 2861 4703 
Q 3103 4656 3366 4563 
z
" transform="scale(0.015625)"/>
       </defs>
       <use xlink:href="#DejaVuSans-30"/>
       <use xlink:href="#DejaVuSans-36" x="63.623047"/>
       <use xlink:href="#DejaVuSans-3a" x="127.246094"/>
       <use xlink:href="#DejaVuSans-30" x="160.9375"/>
       <use xlink:href="#DejaVuSans-30" x="224.560547"/>
      </g>
     </g>
    </g>
    <g id="xtick_3">
     <g id="line2d_5">
      <path d="M 120.628413 354.958125 
L 120.628413 22.318125 
" clip-path="url(#paee6d7be10)" style="fill: none; stroke: #b0b0b0; stroke-width: 0.8; stroke-linecap: square"/>
     </g>
     <g id="line2d_6">
      <g>
       <use xlink:href="#m268a1db8f6" x="120.628413" y="354.958125" style="stroke: #000000; stroke-width: 0.8"/>
      </g>
     </g>
     <g id="text_3">
      <!-- 12:00 -->
      <g transform="translate(98.779919 387.708965) rotate(-45) scale(0.1 -0.1)">
       <defs>
        <path id="DejaVuSans-31" d="M 794 531 
L 1825 531 
L 1825 4091 
L 703 3866 
L 703 4441 
L 1819 4666 
L 2450 4666 
L 2450 531 
L 3481 531 
L 3481 0 
L 794 0 
L 794 531 
z
" transform="scale(0.015625)"/>
        <path id="DejaVuSans-32" d="M 1228 531 
L 3431 531 
L 3431 0 
L 469 0 
L 469 531 
Q 828 903 1448 1529 
Q 2069 2156 2228 2338 
Q 2531 2678 2651 2914 
Q 2772 3150 2772 3378 
Q 2772 3750 2511 3984 
Q 2250 4219 1831 4219 
Q 1534 4219 1204 4116 
Q 875 4013 500 3803 
L 500 4441 
Q 881 4594 1212 4672 
Q 1544 4750 1819 4750 
Q 2544 4750 2975 4387 
Q 3406 4025 3406 3419 
Q 3406 3131 3298 2873 
Q 3191 2616 2906 2266 
Q 2828 2175 2409 1742 
Q 1991 1309 1228 531 
z
" transform="scale(0.015625)"/>
       </defs>
       <use xlink:href="#DejaVuSans-31"/>
       <use xlink:href="#DejaVuSans-32" x="63.623047"/>
       <use xlink:href="#DejaVuSans-3a" x="127.246094"/>
       <use xlink:href="#DejaVuSans-30" x="160.9375"/>
       <use xlink:href="#DejaVuSans-30" x="224.560547"/>
      </g>
     </g>
    </g>
    <g id="xtick_4">
     <g id="line2d_7">
      <path d="M 146.067762 354.958125 
L 146.067762 22.318125 
" clip-path="url(#paee6d7be10)" style="fill: none; stroke: #b0b0b0; stroke-width: 0.8; stroke-linecap: square"/>
     </g>
     <g id="line2d_8">
      <g>
       <use xlink:href="#m268a1db8f6" x="146.067762" y="354.958125" style="stroke: #000000; stroke-width: 0.8"/>
      </g>
     </g>
     <g id="text_4">
      <!-- 18:00 -->
      <g transform="translate(124.219267 387.708965) rotate(-45) scale(0.1 -0.1)">
       <defs>
        <path id="DejaVuSans-38" d="M 2034 2216 
Q 1584 2216 1326 1975 
Q 1069 1734 1069 1313 
Q 1069 891 1326 650 
Q 1584 409 2034 409 
Q 2484 409 2743 651 
Q 3003 894 3003 1313 
Q 3003 1734 2745 1975 
Q 2488 2216 2034 2216 
z
M 1403 2484 
Q 997 2584 770 2862 
Q 544 3141 544 3541 
Q 544 4100 942 4425 
Q 1341 4750 2034 4750 
Q 2731 4750 3128 4425 
Q 3525 4100 3525 3541 
Q 3525 3141 3298 2862 
Q 3072 2584 2669 2484 
Q 3125 2378 3379 2068 
Q 3634 1759 3634 1313 
Q 3634 634 3220 271 
Q 2806 -91 2034 -91 
Q 1263 -91 848 271 
Q 434 634 434 1313 
Q 434 1759 690 2068 
Q 947 2378 1403 2484 
z
M 1172 3481 
Q 1172 3119 1398 2916 
Q 1625 2713 2034 2713 
Q 2441 2713 2670 2916 
Q 2900 3119 2900 3481 
Q 2900 3844 2670 4047 
Q 2441 4250 2034 4250 
Q 1625 4250 1398 4047 
Q 1172 3844 1172 3481 
z
" transform="scale(0.015625)"/>
       </defs>
       <use xlink:href="#DejaVuSans-31"/>
       <use xlink:href="#DejaVuSans-38" x="63.623047"/>
       <use xlink:href="#DejaVuSans-3a" x="127.246094"/>
       <use xlink:href="#DejaVuSans-30" x="160.9375"/>
       <use xlink:href="#DejaVuSans-30" x="224.560547"/>
      </g>
     </g>
    </g>
    <g id="xtick_5">
     <g id="line2d_9">
      <path d="M 171.507111 354.958125 
L 171.507111 22.318125 
" clip-path="url(#paee6d7be10)" style="fill: none; stroke: #b0b0b0; stroke-width: 0.8; stroke-linecap: square"/>
     </g>
     <g id="line2d_10">
      <g>
       <use xlink:href="#m268a1db8f6" x="171.507111" y="354.958125" style="stroke: #000000; stroke-width: 0.8"/>
      </g>
     </g>
     <g id="text_5">
      <!-- Tuesday 00:00 -->
      <g transform="translate(118.638725 418.728856) rotate(-45) scale(0.1 -0.1)">
       <defs>
        <path id="DejaVuSans-54" d="M -19 4666 
L 3928 4666 
L 3928 4134 
L 2272 4134 
L 2272 0 
L 1638 0 
L 1638 4134 
L -19 4134 
L -19 4666 
z
" transform="scale(0.015625)"/>
        <path id="DejaVuSans-75" d="M 544 1381 
L 544 3500 
L 1119 3500 
L 1119 1403 
Q 1119 906 1312 657 
Q 1506 409 1894 409 
Q 2359 409 2629 706 
Q 2900 1003 2900 1516 
L 2900 3500 
L 3475 3500 
L 3475 0 
L 2900 0 
L 2900 538 
Q 2691 219 2414 64 
Q 2138 -91 1772 -91 
Q 1169 -91 856 284 
Q 544 659 544 1381 
z
M 1991 3584 
L 1991 3584 
z
" transform="scale(0.015625)"/>
        <path id="DejaVuSans-65" d="M 3597 1894 
L 3597 1613 
L 953 1613 
Q 991 1019 1311 708 
Q 1631 397 2203 397 
Q 2534 397 2845 478 
Q 3156 559 3463 722 
L 3463 178 
Q 3153 47 2828 -22 
Q 2503 -91 2169 -91 
Q 1331 -91 842 396 
Q 353 884 353 1716 
Q 353 2575 817 3079 
Q 1281 3584 2069 3584 
Q 2775 3584 3186 3129 
Q 3597 2675 3597 1894 
z
M 3022 2063 
Q 3016 2534 2758 2815 
Q 2500 3097 2075 3097 
Q 1594 3097 1305 2825 
Q 1016 2553 972 2059 
L 3022 2063 
z
" transform="scale(0.015625)"/>
        <path id="DejaVuSans-73" d="M 2834 3397 
L 2834 2853 
Q 2591 2978 2328 3040 
Q 2066 3103 1784 3103 
Q 1356 3103 1142 2972 
Q 928 2841 928 2578 
Q 928 2378 1081 2264 
Q 1234 2150 1697 2047 
L 1894 2003 
Q 2506 1872 2764 1633 
Q 3022 1394 3022 966 
Q 3022 478 2636 193 
Q 2250 -91 1575 -91 
Q 1294 -91 989 -36 
Q 684 19 347 128 
L 347 722 
Q 666 556 975 473 
Q 1284 391 1588 391 
Q 1994 391 2212 530 
Q 2431 669 2431 922 
Q 2431 1156 2273 1281 
Q 2116 1406 1581 1522 
L 1381 1569 
Q 847 1681 609 1914 
Q 372 2147 372 2553 
Q 372 3047 722 3315 
Q 1072 3584 1716 3584 
Q 2034 3584 2315 3537 
Q 2597 3491 2834 3397 
z
" transform="scale(0.015625)"/>
       </defs>
       <use xlink:href="#DejaVuSans-54"/>
       <use xlink:href="#DejaVuSans-75" x="45.958984"/>
       <use xlink:href="#DejaVuSans-65" x="109.337891"/>
       <use xlink:href="#DejaVuSans-73" x="170.861328"/>
       <use xlink:href="#DejaVuSans-64" x="222.960938"/>
       <use xlink:href="#DejaVuSans-61" x="286.4375"/>
       <use xlink:href="#DejaVuSans-79" x="347.716797"/>
       <use xlink:href="#DejaVuSans-20" x="406.896484"/>
       <use xlink:href="#DejaVuSans-30" x="438.683594"/>
       <use xlink:href="#DejaVuSans-30" x="502.306641"/>
       <use xlink:href="#DejaVuSans-3a" x="565.929688"/>
       <use xlink:href="#DejaVuSans-30" x="599.621094"/>
       <use xlink:href="#DejaVuSans-30" x="663.244141"/>
      </g>
     </g>
    </g>
    <g id="xtick_6">
     <g id="line2d_11">
      <path d="M 196.946459 354.958125 
L 196.946459 22.318125 
" clip-path="url(#paee6d7be10)" style="fill: none; stroke: #b0b0b0; stroke-width: 0.8; stroke-linecap: square"/>
     </g>
     <g id="line2d_12">
      <g>
       <use xlink:href="#m268a1db8f6" x="196.946459" y="354.958125" style="stroke: #000000; stroke-width: 0.8"/>
      </g>
     </g>
     <g id="text_6">
      <!-- 06:00 -->
      <g transform="translate(175.097965 387.708965) rotate(-45) scale(0.1 -0.1)">
       <use xlink:href="#DejaVuSans-30"/>
       <use xlink:href="#DejaVuSans-36" x="63.623047"/>
       <use xlink:href="#DejaVuSans-3a" x="127.246094"/>
       <use xlink:href="#DejaVuSans-30" x="160.9375"/>
       <use xlink:href="#DejaVuSans-30" x="224.560547"/>
      </g>
     </g>
    </g>
    <g id="xtick_7">
     <g id="line2d_13">
      <path d="M 222.385808 354.958125 
L 222.385808 22.318125 
" clip-path="url(#paee6d7be10)" style="fill: none; stroke: #b0b0b0; stroke-width: 0.8; stroke-linecap: square"/>
     </g>
     <g id="line2d_14">
      <g>
       <use xlink:href="#m268a1db8f6" x="222.385808" y="354.958125" style="stroke: #000000; stroke-width: 0.8"/>
      </g>
     </g>
     <g id="text_7">
      <!-- 12:00 -->
      <g transform="translate(200.537313 387.708965) rotate(-45) scale(0.1 -0.1)">
       <use xlink:href="#DejaVuSans-31"/>
       <use xlink:href="#DejaVuSans-32" x="63.623047"/>
       <use xlink:href="#DejaVuSans-3a" x="127.246094"/>
       <use xlink:href="#DejaVuSans-30" x="160.9375"/>
       <use xlink:href="#DejaVuSans-30" x="224.560547"/>
      </g>
     </g>
    </g>
    <g id="xtick_8">
     <g id="line2d_15">
      <path d="M 247.825157 354.958125 
L 247.825157 22.318125 
" clip-path="url(#paee6d7be10)" style="fill: none; stroke: #b0b0b0; stroke-width: 0.8; stroke-linecap: square"/>
     </g>
     <g id="line2d_16">
      <g>
       <use xlink:href="#m268a1db8f6" x="247.825157" y="354.958125" style="stroke: #000000; stroke-width: 0.8"/>
      </g>
     </g>
     <g id="text_8">
      <!-- 18:00 -->
      <g transform="translate(225.976662 387.708965) rotate(-45) scale(0.1 -0.1)">
       <use xlink:href="#DejaVuSans-31"/>
       <use xlink:href="#DejaVuSans-38" x="63.623047"/>
       <use xlink:href="#DejaVuSans-3a" x="127.246094"/>
       <use xlink:href="#DejaVuSans-30" x="160.9375"/>
       <use xlink:href="#DejaVuSans-30" x="224.560547"/>
      </g>
     </g>
    </g>
    <g id="xtick_9">
     <g id="line2d_17">
      <path d="M 273.264506 354.958125 
L 273.264506 22.318125 
" clip-path="url(#paee6d7be10)" style="fill: none; stroke: #b0b0b0; stroke-width: 0.8; stroke-linecap: square"/>
     </g>
     <g id="line2d_18">
      <g>
       <use xlink:href="#m268a1db8f6" x="273.264506" y="354.958125" style="stroke: #000000; stroke-width: 0.8"/>
      </g>
     </g>
     <g id="text_9">
      <!-- Wednesday 00:00 -->
      <g transform="translate(208.229464 430.895512) rotate(-45) scale(0.1 -0.1)">
       <defs>
        <path id="DejaVuSans-57" d="M 213 4666 
L 850 4666 
L 1831 722 
L 2809 4666 
L 3519 4666 
L 4500 722 
L 5478 4666 
L 6119 4666 
L 4947 0 
L 4153 0 
L 3169 4050 
L 2175 0 
L 1381 0 
L 213 4666 
z
" transform="scale(0.015625)"/>
       </defs>
       <use xlink:href="#DejaVuSans-57"/>
       <use xlink:href="#DejaVuSans-65" x="93.001953"/>
       <use xlink:href="#DejaVuSans-64" x="154.525391"/>
       <use xlink:href="#DejaVuSans-6e" x="218.001953"/>
       <use xlink:href="#DejaVuSans-65" x="281.380859"/>
       <use xlink:href="#DejaVuSans-73" x="342.904297"/>
       <use xlink:href="#DejaVuSans-64" x="395.003906"/>
       <use xlink:href="#DejaVuSans-61" x="458.480469"/>
       <use xlink:href="#DejaVuSans-79" x="519.759766"/>
       <use xlink:href="#DejaVuSans-20" x="578.939453"/>
       <use xlink:href="#DejaVuSans-30" x="610.726562"/>
       <use xlink:href="#DejaVuSans-30" x="674.349609"/>
       <use xlink:href="#DejaVuSans-3a" x="737.972656"/>
       <use xlink:href="#DejaVuSans-30" x="771.664062"/>
       <use xlink:href="#DejaVuSans-30" x="835.287109"/>
      </g>
     </g>
    </g>
    <g id="xtick_10">
     <g id="line2d_19">
      <path d="M 298.703854 354.958125 
L 298.703854 22.318125 
" clip-path="url(#paee6d7be10)" style="fill: none; stroke: #b0b0b0; stroke-width: 0.8; stroke-linecap: square"/>
     </g>
     <g id="line2d_20">
      <g>
       <use xlink:href="#m268a1db8f6" x="298.703854" y="354.958125" style="stroke: #000000; stroke-width: 0.8"/>
      </g>
     </g>
     <g id="text_10">
      <!-- 06:00 -->
      <g transform="translate(276.85536 387.708965) rotate(-45) scale(0.1 -0.1)">
       <use xlink:href="#DejaVuSans-30"/>
       <use xlink:href="#DejaVuSans-36" x="63.623047"/>
       <use xlink:href="#DejaVuSans-3a" x="127.246094"/>
       <use xlink:href="#DejaVuSans-30" x="160.9375"/>
       <use xlink:href="#DejaVuSans-30" x="224.560547"/>
      </g>
     </g>
    </g>
    <g id="xtick_11">
     <g id="line2d_21">
      <path d="M 324.143203 354.958125 
L 324.143203 22.318125 
" clip-path="url(#paee6d7be10)" style="fill: none; stroke: #b0b0b0; stroke-width: 0.8; stroke-linecap: square"/>
     </g>
     <g id="line2d_22">
      <g>
       <use xlink:href="#m268a1db8f6" x="324.143203" y="354.958125" style="stroke: #000000; stroke-width: 0.8"/>
      </g>
     </g>
     <g id="text_11">
      <!-- 12:00 -->
      <g transform="translate(302.294708 387.708965) rotate(-45) scale(0.1 -0.1)">
       <use xlink:href="#DejaVuSans-31"/>
       <use xlink:href="#DejaVuSans-32" x="63.623047"/>
       <use xlink:href="#DejaVuSans-3a" x="127.246094"/>
       <use xlink:href="#DejaVuSans-30" x="160.9375"/>
       <use xlink:href="#DejaVuSans-30" x="224.560547"/>
      </g>
     </g>
    </g>
    <g id="xtick_12">
     <g id="line2d_23">
      <path d="M 349.582552 354.958125 
L 349.582552 22.318125 
" clip-path="url(#paee6d7be10)" style="fill: none; stroke: #b0b0b0; stroke-width: 0.8; stroke-linecap: square"/>
     </g>
     <g id="line2d_24">
      <g>
       <use xlink:href="#m268a1db8f6" x="349.582552" y="354.958125" style="stroke: #000000; stroke-width: 0.8"/>
      </g>
     </g>
     <g id="text_12">
      <!-- 18:00 -->
      <g transform="translate(327.734057 387.708965) rotate(-45) scale(0.1 -0.1)">
       <use xlink:href="#DejaVuSans-31"/>
       <use xlink:href="#DejaVuSans-38" x="63.623047"/>
       <use xlink:href="#DejaVuSans-3a" x="127.246094"/>
       <use xlink:href="#DejaVuSans-30" x="160.9375"/>
       <use xlink:href="#DejaVuSans-30" x="224.560547"/>
      </g>
     </g>
    </g>
    <g id="xtick_13">
     <g id="line2d_25">
      <path d="M 375.0219 354.958125 
L 375.0219 22.318125 
" clip-path="url(#paee6d7be10)" style="fill: none; stroke: #b0b0b0; stroke-width: 0.8; stroke-linecap: square"/>
     </g>
     <g id="line2d_26">
      <g>
       <use xlink:href="#m268a1db8f6" x="375.0219" y="354.958125" style="stroke: #000000; stroke-width: 0.8"/>
      </g>
     </g>
     <g id="text_13">
      <!-- Thursday 00:00 -->
      <g transform="translate(318.046772 422.835599) rotate(-45) scale(0.1 -0.1)">
       <defs>
        <path id="DejaVuSans-68" d="M 3513 2113 
L 3513 0 
L 2938 0 
L 2938 2094 
Q 2938 2591 2744 2837 
Q 2550 3084 2163 3084 
Q 1697 3084 1428 2787 
Q 1159 2491 1159 1978 
L 1159 0 
L 581 0 
L 581 4863 
L 1159 4863 
L 1159 2956 
Q 1366 3272 1645 3428 
Q 1925 3584 2291 3584 
Q 2894 3584 3203 3211 
Q 3513 2838 3513 2113 
z
" transform="scale(0.015625)"/>
        <path id="DejaVuSans-72" d="M 2631 2963 
Q 2534 3019 2420 3045 
Q 2306 3072 2169 3072 
Q 1681 3072 1420 2755 
Q 1159 2438 1159 1844 
L 1159 0 
L 581 0 
L 581 3500 
L 1159 3500 
L 1159 2956 
Q 1341 3275 1631 3429 
Q 1922 3584 2338 3584 
Q 2397 3584 2469 3576 
Q 2541 3569 2628 3553 
L 2631 2963 
z
" transform="scale(0.015625)"/>
       </defs>
       <use xlink:href="#DejaVuSans-54"/>
       <use xlink:href="#DejaVuSans-68" x="61.083984"/>
       <use xlink:href="#DejaVuSans-75" x="124.462891"/>
       <use xlink:href="#DejaVuSans-72" x="187.841797"/>
       <use xlink:href="#DejaVuSans-73" x="228.955078"/>
       <use xlink:href="#DejaVuSans-64" x="281.054688"/>
       <use xlink:href="#DejaVuSans-61" x="344.53125"/>
       <use xlink:href="#DejaVuSans-79" x="405.810547"/>
       <use xlink:href="#DejaVuSans-20" x="464.990234"/>
       <use xlink:href="#DejaVuSans-30" x="496.777344"/>
       <use xlink:href="#DejaVuSans-30" x="560.400391"/>
       <use xlink:href="#DejaVuSans-3a" x="624.023438"/>
       <use xlink:href="#DejaVuSans-30" x="657.714844"/>
       <use xlink:href="#DejaVuSans-30" x="721.337891"/>
      </g>
     </g>
    </g>
    <g id="xtick_14">
     <g id="line2d_27">
      <path d="M 400.461249 354.958125 
L 400.461249 22.318125 
" clip-path="url(#paee6d7be10)" style="fill: none; stroke: #b0b0b0; stroke-width: 0.8; stroke-linecap: square"/>
     </g>
     <g id="line2d_28">
      <g>
       <use xlink:href="#m268a1db8f6" x="400.461249" y="354.958125" style="stroke: #000000; stroke-width: 0.8"/>
      </g>
     </g>
     <g id="text_14">
      <!-- 06:00 -->
      <g transform="translate(378.612754 387.708965) rotate(-45) scale(0.1 -0.1)">
       <use xlink:href="#DejaVuSans-30"/>
       <use xlink:href="#DejaVuSans-36" x="63.623047"/>
       <use xlink:href="#DejaVuSans-3a" x="127.246094"/>
       <use xlink:href="#DejaVuSans-30" x="160.9375"/>
       <use xlink:href="#DejaVuSans-30" x="224.560547"/>
      </g>
     </g>
    </g>
    <g id="xtick_15">
     <g id="line2d_29">
      <path d="M 425.900598 354.958125 
L 425.900598 22.318125 
" clip-path="url(#paee6d7be10)" style="fill: none; stroke: #b0b0b0; stroke-width: 0.8; stroke-linecap: square"/>
     </g>
     <g id="line2d_30">
      <g>
       <use xlink:href="#m268a1db8f6" x="425.900598" y="354.958125" style="stroke: #000000; stroke-width: 0.8"/>
      </g>
     </g>
     <g id="text_15">
      <!-- 12:00 -->
      <g transform="translate(404.052103 387.708965) rotate(-45) scale(0.1 -0.1)">
       <use xlink:href="#DejaVuSans-31"/>
       <use xlink:href="#DejaVuSans-32" x="63.623047"/>
       <use xlink:href="#DejaVuSans-3a" x="127.246094"/>
       <use xlink:href="#DejaVuSans-30" x="160.9375"/>
       <use xlink:href="#DejaVuSans-30" x="224.560547"/>
      </g>
     </g>
    </g>
    <g id="xtick_16">
     <g id="line2d_31">
      <path d="M 451.339947 354.958125 
L 451.339947 22.318125 
" clip-path="url(#paee6d7be10)" style="fill: none; stroke: #b0b0b0; stroke-width: 0.8; stroke-linecap: square"/>
     </g>
     <g id="line2d_32">
      <g>
       <use xlink:href="#m268a1db8f6" x="451.339947" y="354.958125" style="stroke: #000000; stroke-width: 0.8"/>
      </g>
     </g>
     <g id="text_16">
      <!-- 18:00 -->
      <g transform="translate(429.491452 387.708965) rotate(-45) scale(0.1 -0.1)">
       <use xlink:href="#DejaVuSans-31"/>
       <use xlink:href="#DejaVuSans-38" x="63.623047"/>
       <use xlink:href="#DejaVuSans-3a" x="127.246094"/>
       <use xlink:href="#DejaVuSans-30" x="160.9375"/>
       <use xlink:href="#DejaVuSans-30" x="224.560547"/>
      </g>
     </g>
    </g>
    <g id="xtick_17">
     <g id="line2d_33">
      <path d="M 476.779295 354.958125 
L 476.779295 22.318125 
" clip-path="url(#paee6d7be10)" style="fill: none; stroke: #b0b0b0; stroke-width: 0.8; stroke-linecap: square"/>
     </g>
     <g id="line2d_34">
      <g>
       <use xlink:href="#m268a1db8f6" x="476.779295" y="354.958125" style="stroke: #000000; stroke-width: 0.8"/>
      </g>
     </g>
     <g id="text_17">
      <!-- Friday 00:00 -->
      <g transform="translate(431.250457 411.389308) rotate(-45) scale(0.1 -0.1)">
       <defs>
        <path id="DejaVuSans-46" d="M 628 4666 
L 3309 4666 
L 3309 4134 
L 1259 4134 
L 1259 2759 
L 3109 2759 
L 3109 2228 
L 1259 2228 
L 1259 0 
L 628 0 
L 628 4666 
z
" transform="scale(0.015625)"/>
        <path id="DejaVuSans-69" d="M 603 3500 
L 1178 3500 
L 1178 0 
L 603 0 
L 603 3500 
z
M 603 4863 
L 1178 4863 
L 1178 4134 
L 603 4134 
L 603 4863 
z
" transform="scale(0.015625)"/>
       </defs>
       <use xlink:href="#DejaVuSans-46"/>
       <use xlink:href="#DejaVuSans-72" x="50.269531"/>
       <use xlink:href="#DejaVuSans-69" x="91.382812"/>
       <use xlink:href="#DejaVuSans-64" x="119.166016"/>
       <use xlink:href="#DejaVuSans-61" x="182.642578"/>
       <use xlink:href="#DejaVuSans-79" x="243.921875"/>
       <use xlink:href="#DejaVuSans-20" x="303.101562"/>
       <use xlink:href="#DejaVuSans-30" x="334.888672"/>
       <use xlink:href="#DejaVuSans-30" x="398.511719"/>
       <use xlink:href="#DejaVuSans-3a" x="462.134766"/>
       <use xlink:href="#DejaVuSans-30" x="495.826172"/>
       <use xlink:href="#DejaVuSans-30" x="559.449219"/>
      </g>
     </g>
    </g>
    <g id="xtick_18">
     <g id="line2d_35">
      <path d="M 502.218644 354.958125 
L 502.218644 22.318125 
" clip-path="url(#paee6d7be10)" style="fill: none; stroke: #b0b0b0; stroke-width: 0.8; stroke-linecap: square"/>
     </g>
     <g id="line2d_36">
      <g>
       <use xlink:href="#m268a1db8f6" x="502.218644" y="354.958125" style="stroke: #000000; stroke-width: 0.8"/>
      </g>
     </g>
     <g id="text_18">
      <!-- 06:00 -->
      <g transform="translate(480.370149 387.708965) rotate(-45) scale(0.1 -0.1)">
       <use xlink:href="#DejaVuSans-30"/>
       <use xlink:href="#DejaVuSans-36" x="63.623047"/>
       <use xlink:href="#DejaVuSans-3a" x="127.246094"/>
       <use xlink:href="#DejaVuSans-30" x="160.9375"/>
       <use xlink:href="#DejaVuSans-30" x="224.560547"/>
      </g>
     </g>
    </g>
    <g id="xtick_19">
     <g id="line2d_37">
      <path d="M 527.657993 354.958125 
L 527.657993 22.318125 
" clip-path="url(#paee6d7be10)" style="fill: none; stroke: #b0b0b0; stroke-width: 0.8; stroke-linecap: square"/>
     </g>
     <g id="line2d_38">
      <g>
       <use xlink:href="#m268a1db8f6" x="527.657993" y="354.958125" style="stroke: #000000; stroke-width: 0.8"/>
      </g>
     </g>
     <g id="text_19">
      <!-- 12:00 -->
      <g transform="translate(505.809498 387.708965) rotate(-45) scale(0.1 -0.1)">
       <use xlink:href="#DejaVuSans-31"/>
       <use xlink:href="#DejaVuSans-32" x="63.623047"/>
       <use xlink:href="#DejaVuSans-3a" x="127.246094"/>
       <use xlink:href="#DejaVuSans-30" x="160.9375"/>
       <use xlink:href="#DejaVuSans-30" x="224.560547"/>
      </g>
     </g>
    </g>
    <g id="xtick_20">
     <g id="line2d_39">
      <path d="M 553.097341 354.958125 
L 553.097341 22.318125 
" clip-path="url(#paee6d7be10)" style="fill: none; stroke: #b0b0b0; stroke-width: 0.8; stroke-linecap: square"/>
     </g>
     <g id="line2d_40">
      <g>
       <use xlink:href="#m268a1db8f6" x="553.097341" y="354.958125" style="stroke: #000000; stroke-width: 0.8"/>
      </g>
     </g>
     <g id="text_20">
      <!-- 18:00 -->
      <g transform="translate(531.248847 387.708965) rotate(-45) scale(0.1 -0.1)">
       <use xlink:href="#DejaVuSans-31"/>
       <use xlink:href="#DejaVuSans-38" x="63.623047"/>
       <use xlink:href="#DejaVuSans-3a" x="127.246094"/>
       <use xlink:href="#DejaVuSans-30" x="160.9375"/>
       <use xlink:href="#DejaVuSans-30" x="224.560547"/>
      </g>
     </g>
    </g>
    <g id="xtick_21">
     <g id="line2d_41">
      <path d="M 578.53669 354.958125 
L 578.53669 22.318125 
" clip-path="url(#paee6d7be10)" style="fill: none; stroke: #b0b0b0; stroke-width: 0.8; stroke-linecap: square"/>
     </g>
     <g id="line2d_42">
      <g>
       <use xlink:href="#m268a1db8f6" x="578.53669" y="354.958125" style="stroke: #000000; stroke-width: 0.8"/>
      </g>
     </g>
     <g id="text_21">
      <!-- Saturday 00:00 -->
      <g transform="translate(522.574713 421.822448) rotate(-45) scale(0.1 -0.1)">
       <defs>
        <path id="DejaVuSans-53" d="M 3425 4513 
L 3425 3897 
Q 3066 4069 2747 4153 
Q 2428 4238 2131 4238 
Q 1616 4238 1336 4038 
Q 1056 3838 1056 3469 
Q 1056 3159 1242 3001 
Q 1428 2844 1947 2747 
L 2328 2669 
Q 3034 2534 3370 2195 
Q 3706 1856 3706 1288 
Q 3706 609 3251 259 
Q 2797 -91 1919 -91 
Q 1588 -91 1214 -16 
Q 841 59 441 206 
L 441 856 
Q 825 641 1194 531 
Q 1563 422 1919 422 
Q 2459 422 2753 634 
Q 3047 847 3047 1241 
Q 3047 1584 2836 1778 
Q 2625 1972 2144 2069 
L 1759 2144 
Q 1053 2284 737 2584 
Q 422 2884 422 3419 
Q 422 4038 858 4394 
Q 1294 4750 2059 4750 
Q 2388 4750 2728 4690 
Q 3069 4631 3425 4513 
z
" transform="scale(0.015625)"/>
        <path id="DejaVuSans-74" d="M 1172 4494 
L 1172 3500 
L 2356 3500 
L 2356 3053 
L 1172 3053 
L 1172 1153 
Q 1172 725 1289 603 
Q 1406 481 1766 481 
L 2356 481 
L 2356 0 
L 1766 0 
Q 1100 0 847 248 
Q 594 497 594 1153 
L 594 3053 
L 172 3053 
L 172 3500 
L 594 3500 
L 594 4494 
L 1172 4494 
z
" transform="scale(0.015625)"/>
       </defs>
       <use xlink:href="#DejaVuSans-53"/>
       <use xlink:href="#DejaVuSans-61" x="63.476562"/>
       <use xlink:href="#DejaVuSans-74" x="124.755859"/>
       <use xlink:href="#DejaVuSans-75" x="163.964844"/>
       <use xlink:href="#DejaVuSans-72" x="227.34375"/>
       <use xlink:href="#DejaVuSans-64" x="266.707031"/>
       <use xlink:href="#DejaVuSans-61" x="330.183594"/>
       <use xlink:href="#DejaVuSans-79" x="391.462891"/>
       <use xlink:href="#DejaVuSans-20" x="450.642578"/>
       <use xlink:href="#DejaVuSans-30" x="482.429688"/>
       <use xlink:href="#DejaVuSans-30" x="546.052734"/>
       <use xlink:href="#DejaVuSans-3a" x="609.675781"/>
       <use xlink:href="#DejaVuSans-30" x="643.367188"/>
       <use xlink:href="#DejaVuSans-30" x="706.990234"/>
      </g>
     </g>
    </g>
    <g id="xtick_22">
     <g id="line2d_43">
      <path d="M 603.976039 354.958125 
L 603.976039 22.318125 
" clip-path="url(#paee6d7be10)" style="fill: none; stroke: #b0b0b0; stroke-width: 0.8; stroke-linecap: square"/>
     </g>
     <g id="line2d_44">
      <g>
       <use xlink:href="#m268a1db8f6" x="603.976039" y="354.958125" style="stroke: #000000; stroke-width: 0.8"/>
      </g>
     </g>
     <g id="text_22">
      <!-- 06:00 -->
      <g transform="translate(582.127544 387.708965) rotate(-45) scale(0.1 -0.1)">
       <use xlink:href="#DejaVuSans-30"/>
       <use xlink:href="#DejaVuSans-36" x="63.623047"/>
       <use xlink:href="#DejaVuSans-3a" x="127.246094"/>
       <use xlink:href="#DejaVuSans-30" x="160.9375"/>
       <use xlink:href="#DejaVuSans-30" x="224.560547"/>
      </g>
     </g>
    </g>
    <g id="xtick_23">
     <g id="line2d_45">
      <path d="M 629.415388 354.958125 
L 629.415388 22.318125 
" clip-path="url(#paee6d7be10)" style="fill: none; stroke: #b0b0b0; stroke-width: 0.8; stroke-linecap: square"/>
     </g>
     <g id="line2d_46">
      <g>
       <use xlink:href="#m268a1db8f6" x="629.415388" y="354.958125" style="stroke: #000000; stroke-width: 0.8"/>
      </g>
     </g>
     <g id="text_23">
      <!-- 12:00 -->
      <g transform="translate(607.566893 387.708965) rotate(-45) scale(0.1 -0.1)">
       <use xlink:href="#DejaVuSans-31"/>
       <use xlink:href="#DejaVuSans-32" x="63.623047"/>
       <use xlink:href="#DejaVuSans-3a" x="127.246094"/>
       <use xlink:href="#DejaVuSans-30" x="160.9375"/>
       <use xlink:href="#DejaVuSans-30" x="224.560547"/>
      </g>
     </g>
    </g>
    <g id="xtick_24">
     <g id="line2d_47">
      <path d="M 654.854736 354.958125 
L 654.854736 22.318125 
" clip-path="url(#paee6d7be10)" style="fill: none; stroke: #b0b0b0; stroke-width: 0.8; stroke-linecap: square"/>
     </g>
     <g id="line2d_48">
      <g>
       <use xlink:href="#m268a1db8f6" x="654.854736" y="354.958125" style="stroke: #000000; stroke-width: 0.8"/>
      </g>
     </g>
     <g id="text_24">
      <!-- 18:00 -->
      <g transform="translate(633.006242 387.708965) rotate(-45) scale(0.1 -0.1)">
       <use xlink:href="#DejaVuSans-31"/>
       <use xlink:href="#DejaVuSans-38" x="63.623047"/>
       <use xlink:href="#DejaVuSans-3a" x="127.246094"/>
       <use xlink:href="#DejaVuSans-30" x="160.9375"/>
       <use xlink:href="#DejaVuSans-30" x="224.560547"/>
      </g>
     </g>
    </g>
    <g id="xtick_25">
     <g id="line2d_49">
      <path d="M 680.294085 354.958125 
L 680.294085 22.318125 
" clip-path="url(#paee6d7be10)" style="fill: none; stroke: #b0b0b0; stroke-width: 0.8; stroke-linecap: square"/>
     </g>
     <g id="line2d_50">
      <g>
       <use xlink:href="#m268a1db8f6" x="680.294085" y="354.958125" style="stroke: #000000; stroke-width: 0.8"/>
      </g>
     </g>
     <g id="text_25">
      <!-- Sunday 00:00 -->
      <g transform="translate(629.739265 416.415291) rotate(-45) scale(0.1 -0.1)">
       <use xlink:href="#DejaVuSans-53"/>
       <use xlink:href="#DejaVuSans-75" x="63.476562"/>
       <use xlink:href="#DejaVuSans-6e" x="126.855469"/>
       <use xlink:href="#DejaVuSans-64" x="190.234375"/>
       <use xlink:href="#DejaVuSans-61" x="253.710938"/>
       <use xlink:href="#DejaVuSans-79" x="314.990234"/>
       <use xlink:href="#DejaVuSans-20" x="374.169922"/>
       <use xlink:href="#DejaVuSans-30" x="405.957031"/>
       <use xlink:href="#DejaVuSans-30" x="469.580078"/>
       <use xlink:href="#DejaVuSans-3a" x="533.203125"/>
       <use xlink:href="#DejaVuSans-30" x="566.894531"/>
       <use xlink:href="#DejaVuSans-30" x="630.517578"/>
      </g>
     </g>
    </g>
    <g id="xtick_26">
     <g id="line2d_51">
      <path d="M 705.733434 354.958125 
L 705.733434 22.318125 
" clip-path="url(#paee6d7be10)" style="fill: none; stroke: #b0b0b0; stroke-width: 0.8; stroke-linecap: square"/>
     </g>
     <g id="line2d_52">
      <g>
       <use xlink:href="#m268a1db8f6" x="705.733434" y="354.958125" style="stroke: #000000; stroke-width: 0.8"/>
      </g>
     </g>
     <g id="text_26">
      <!-- 06:00 -->
      <g transform="translate(683.884939 387.708965) rotate(-45) scale(0.1 -0.1)">
       <use xlink:href="#DejaVuSans-30"/>
       <use xlink:href="#DejaVuSans-36" x="63.623047"/>
       <use xlink:href="#DejaVuSans-3a" x="127.246094"/>
       <use xlink:href="#DejaVuSans-30" x="160.9375"/>
       <use xlink:href="#DejaVuSans-30" x="224.560547"/>
      </g>
     </g>
    </g>
    <g id="xtick_27">
     <g id="line2d_53">
      <path d="M 731.172782 354.958125 
L 731.172782 22.318125 
" clip-path="url(#paee6d7be10)" style="fill: none; stroke: #b0b0b0; stroke-width: 0.8; stroke-linecap: square"/>
     </g>
     <g id="line2d_54">
      <g>
       <use xlink:href="#m268a1db8f6" x="731.172782" y="354.958125" style="stroke: #000000; stroke-width: 0.8"/>
      </g>
     </g>
     <g id="text_27">
      <!-- 12:00 -->
      <g transform="translate(709.324288 387.708965) rotate(-45) scale(0.1 -0.1)">
       <use xlink:href="#DejaVuSans-31"/>
       <use xlink:href="#DejaVuSans-32" x="63.623047"/>
       <use xlink:href="#DejaVuSans-3a" x="127.246094"/>
       <use xlink:href="#DejaVuSans-30" x="160.9375"/>
       <use xlink:href="#DejaVuSans-30" x="224.560547"/>
      </g>
     </g>
    </g>
    <g id="xtick_28">
     <g id="line2d_55">
      <path d="M 756.612131 354.958125 
L 756.612131 22.318125 
" clip-path="url(#paee6d7be10)" style="fill: none; stroke: #b0b0b0; stroke-width: 0.8; stroke-linecap: square"/>
     </g>
     <g id="line2d_56">
      <g>
       <use xlink:href="#m268a1db8f6" x="756.612131" y="354.958125" style="stroke: #000000; stroke-width: 0.8"/>
      </g>
     </g>
     <g id="text_28">
      <!-- 18:00 -->
      <g transform="translate(734.763636 387.708965) rotate(-45) scale(0.1 -0.1)">
       <use xlink:href="#DejaVuSans-31"/>
       <use xlink:href="#DejaVuSans-38" x="63.623047"/>
       <use xlink:href="#DejaVuSans-3a" x="127.246094"/>
       <use xlink:href="#DejaVuSans-30" x="160.9375"/>
       <use xlink:href="#DejaVuSans-30" x="224.560547"/>
      </g>
     </g>
    </g>
    <g id="text_29">
     <!-- Time -->
     <g transform="translate(412.607031 443.964511) scale(0.1 -0.1)">
      <defs>
       <path id="DejaVuSans-6d" d="M 3328 2828 
Q 3544 3216 3844 3400 
Q 4144 3584 4550 3584 
Q 5097 3584 5394 3201 
Q 5691 2819 5691 2113 
L 5691 0 
L 5113 0 
L 5113 2094 
Q 5113 2597 4934 2840 
Q 4756 3084 4391 3084 
Q 3944 3084 3684 2787 
Q 3425 2491 3425 1978 
L 3425 0 
L 2847 0 
L 2847 2094 
Q 2847 2600 2669 2842 
Q 2491 3084 2119 3084 
Q 1678 3084 1418 2786 
Q 1159 2488 1159 1978 
L 1159 0 
L 581 0 
L 581 3500 
L 1159 3500 
L 1159 2956 
Q 1356 3278 1631 3431 
Q 1906 3584 2284 3584 
Q 2666 3584 2933 3390 
Q 3200 3197 3328 2828 
z
" transform="scale(0.015625)"/>
      </defs>
      <use xlink:href="#DejaVuSans-54"/>
      <use xlink:href="#DejaVuSans-69" x="57.958984"/>
      <use xlink:href="#DejaVuSans-6d" x="85.742188"/>
      <use xlink:href="#DejaVuSans-65" x="183.154297"/>
     </g>
    </g>
   </g>
   <g id="matplotlib.axis_2">
    <g id="ytick_1">
     <g id="line2d_57">
      <path d="M 34.240625 333.192291 
L 815.440625 333.192291 
" clip-path="url(#paee6d7be10)" style="fill: none; stroke: #b0b0b0; stroke-width: 0.8; stroke-linecap: square"/>
     </g>
     <g id="line2d_58">
      <defs>
       <path id="mf526345f39" d="M 0 0 
L -3.5 0 
" style="stroke: #000000; stroke-width: 0.8"/>
      </defs>
      <g>
       <use xlink:href="#mf526345f39" x="34.240625" y="333.192291" style="stroke: #000000; stroke-width: 0.8"/>
      </g>
     </g>
     <g id="text_30">
      <!-- 0 -->
      <g transform="translate(20.878125 336.99151) scale(0.1 -0.1)">
       <use xlink:href="#DejaVuSans-30"/>
      </g>
     </g>
    </g>
    <g id="ytick_2">
     <g id="line2d_59">
      <path d="M 34.240625 262.449083 
L 815.440625 262.449083 
" clip-path="url(#paee6d7be10)" style="fill: none; stroke: #b0b0b0; stroke-width: 0.8; stroke-linecap: square"/>
     </g>
     <g id="line2d_60">
      <g>
       <use xlink:href="#mf526345f39" x="34.240625" y="262.449083" style="stroke: #000000; stroke-width: 0.8"/>
      </g>
     </g>
     <g id="text_31">
      <!-- 2 -->
      <g transform="translate(20.878125 266.248302) scale(0.1 -0.1)">
       <use xlink:href="#DejaVuSans-32"/>
      </g>
     </g>
    </g>
    <g id="ytick_3">
     <g id="line2d_61">
      <path d="M 34.240625 191.705876 
L 815.440625 191.705876 
" clip-path="url(#paee6d7be10)" style="fill: none; stroke: #b0b0b0; stroke-width: 0.8; stroke-linecap: square"/>
     </g>
     <g id="line2d_62">
      <g>
       <use xlink:href="#mf526345f39" x="34.240625" y="191.705876" style="stroke: #000000; stroke-width: 0.8"/>
      </g>
     </g>
     <g id="text_32">
      <!-- 4 -->
      <g transform="translate(20.878125 195.505095) scale(0.1 -0.1)">
       <defs>
        <path id="DejaVuSans-34" d="M 2419 4116 
L 825 1625 
L 2419 1625 
L 2419 4116 
z
M 2253 4666 
L 3047 4666 
L 3047 1625 
L 3713 1625 
L 3713 1100 
L 3047 1100 
L 3047 0 
L 2419 0 
L 2419 1100 
L 313 1100 
L 313 1709 
L 2253 4666 
z
" transform="scale(0.015625)"/>
       </defs>
       <use xlink:href="#DejaVuSans-34"/>
      </g>
     </g>
    </g>
    <g id="ytick_4">
     <g id="line2d_63">
      <path d="M 34.240625 120.962668 
L 815.440625 120.962668 
" clip-path="url(#paee6d7be10)" style="fill: none; stroke: #b0b0b0; stroke-width: 0.8; stroke-linecap: square"/>
     </g>
     <g id="line2d_64">
      <g>
       <use xlink:href="#mf526345f39" x="34.240625" y="120.962668" style="stroke: #000000; stroke-width: 0.8"/>
      </g>
     </g>
     <g id="text_33">
      <!-- 6 -->
      <g transform="translate(20.878125 124.761887) scale(0.1 -0.1)">
       <use xlink:href="#DejaVuSans-36"/>
      </g>
     </g>
    </g>
    <g id="ytick_5">
     <g id="line2d_65">
      <path d="M 34.240625 50.219461 
L 815.440625 50.219461 
" clip-path="url(#paee6d7be10)" style="fill: none; stroke: #b0b0b0; stroke-width: 0.8; stroke-linecap: square"/>
     </g>
     <g id="line2d_66">
      <g>
       <use xlink:href="#mf526345f39" x="34.240625" y="50.219461" style="stroke: #000000; stroke-width: 0.8"/>
      </g>
     </g>
     <g id="text_34">
      <!-- 8 -->
      <g transform="translate(20.878125 54.01868) scale(0.1 -0.1)">
       <use xlink:href="#DejaVuSans-38"/>
      </g>
     </g>
    </g>
    <g id="text_35">
     <!-- Power Usage (Wh/m^2, P1) -->
     <g transform="translate(14.798438 257.823281) rotate(-90) scale(0.1 -0.1)">
      <defs>
       <path id="DejaVuSans-50" d="M 1259 4147 
L 1259 2394 
L 2053 2394 
Q 2494 2394 2734 2622 
Q 2975 2850 2975 3272 
Q 2975 3691 2734 3919 
Q 2494 4147 2053 4147 
L 1259 4147 
z
M 628 4666 
L 2053 4666 
Q 2838 4666 3239 4311 
Q 3641 3956 3641 3272 
Q 3641 2581 3239 2228 
Q 2838 1875 2053 1875 
L 1259 1875 
L 1259 0 
L 628 0 
L 628 4666 
z
" transform="scale(0.015625)"/>
       <path id="DejaVuSans-77" d="M 269 3500 
L 844 3500 
L 1563 769 
L 2278 3500 
L 2956 3500 
L 3675 769 
L 4391 3500 
L 4966 3500 
L 4050 0 
L 3372 0 
L 2619 2869 
L 1863 0 
L 1184 0 
L 269 3500 
z
" transform="scale(0.015625)"/>
       <path id="DejaVuSans-55" d="M 556 4666 
L 1191 4666 
L 1191 1831 
Q 1191 1081 1462 751 
Q 1734 422 2344 422 
Q 2950 422 3222 751 
Q 3494 1081 3494 1831 
L 3494 4666 
L 4128 4666 
L 4128 1753 
Q 4128 841 3676 375 
Q 3225 -91 2344 -91 
Q 1459 -91 1007 375 
Q 556 841 556 1753 
L 556 4666 
z
" transform="scale(0.015625)"/>
       <path id="DejaVuSans-67" d="M 2906 1791 
Q 2906 2416 2648 2759 
Q 2391 3103 1925 3103 
Q 1463 3103 1205 2759 
Q 947 2416 947 1791 
Q 947 1169 1205 825 
Q 1463 481 1925 481 
Q 2391 481 2648 825 
Q 2906 1169 2906 1791 
z
M 3481 434 
Q 3481 -459 3084 -895 
Q 2688 -1331 1869 -1331 
Q 1566 -1331 1297 -1286 
Q 1028 -1241 775 -1147 
L 775 -588 
Q 1028 -725 1275 -790 
Q 1522 -856 1778 -856 
Q 2344 -856 2625 -561 
Q 2906 -266 2906 331 
L 2906 616 
Q 2728 306 2450 153 
Q 2172 0 1784 0 
Q 1141 0 747 490 
Q 353 981 353 1791 
Q 353 2603 747 3093 
Q 1141 3584 1784 3584 
Q 2172 3584 2450 3431 
Q 2728 3278 2906 2969 
L 2906 3500 
L 3481 3500 
L 3481 434 
z
" transform="scale(0.015625)"/>
       <path id="DejaVuSans-28" d="M 1984 4856 
Q 1566 4138 1362 3434 
Q 1159 2731 1159 2009 
Q 1159 1288 1364 580 
Q 1569 -128 1984 -844 
L 1484 -844 
Q 1016 -109 783 600 
Q 550 1309 550 2009 
Q 550 2706 781 3412 
Q 1013 4119 1484 4856 
L 1984 4856 
z
" transform="scale(0.015625)"/>
       <path id="DejaVuSans-2f" d="M 1625 4666 
L 2156 4666 
L 531 -594 
L 0 -594 
L 1625 4666 
z
" transform="scale(0.015625)"/>
       <path id="DejaVuSans-5e" d="M 2988 4666 
L 4684 2925 
L 4056 2925 
L 2681 4159 
L 1306 2925 
L 678 2925 
L 2375 4666 
L 2988 4666 
z
" transform="scale(0.015625)"/>
       <path id="DejaVuSans-2c" d="M 750 794 
L 1409 794 
L 1409 256 
L 897 -744 
L 494 -744 
L 750 256 
L 750 794 
z
" transform="scale(0.015625)"/>
       <path id="DejaVuSans-29" d="M 513 4856 
L 1013 4856 
Q 1481 4119 1714 3412 
Q 1947 2706 1947 2009 
Q 1947 1309 1714 600 
Q 1481 -109 1013 -844 
L 513 -844 
Q 928 -128 1133 580 
Q 1338 1288 1338 2009 
Q 1338 2731 1133 3434 
Q 928 4138 513 4856 
z
" transform="scale(0.015625)"/>
      </defs>
      <use xlink:href="#DejaVuSans-50"/>
      <use xlink:href="#DejaVuSans-6f" x="56.677734"/>
      <use xlink:href="#DejaVuSans-77" x="117.859375"/>
      <use xlink:href="#DejaVuSans-65" x="199.646484"/>
      <use xlink:href="#DejaVuSans-72" x="261.169922"/>
      <use xlink:href="#DejaVuSans-20" x="302.283203"/>
      <use xlink:href="#DejaVuSans-55" x="334.070312"/>
      <use xlink:href="#DejaVuSans-73" x="407.263672"/>
      <use xlink:href="#DejaVuSans-61" x="459.363281"/>
      <use xlink:href="#DejaVuSans-67" x="520.642578"/>
      <use xlink:href="#DejaVuSans-65" x="584.119141"/>
      <use xlink:href="#DejaVuSans-20" x="645.642578"/>
      <use xlink:href="#DejaVuSans-28" x="677.429688"/>
      <use xlink:href="#DejaVuSans-57" x="716.443359"/>
      <use xlink:href="#DejaVuSans-68" x="815.320312"/>
      <use xlink:href="#DejaVuSans-2f" x="878.699219"/>
      <use xlink:href="#DejaVuSans-6d" x="912.390625"/>
      <use xlink:href="#DejaVuSans-5e" x="1009.802734"/>
      <use xlink:href="#DejaVuSans-32" x="1093.591797"/>
      <use xlink:href="#DejaVuSans-2c" x="1157.214844"/>
      <use xlink:href="#DejaVuSans-20" x="1189.001953"/>
      <use xlink:href="#DejaVuSans-50" x="1220.789062"/>
      <use xlink:href="#DejaVuSans-31" x="1281.091797"/>
      <use xlink:href="#DejaVuSans-29" x="1344.714844"/>
     </g>
    </g>
   </g>
   <g id="line2d_67">
    <path d="M 69.749716 287.522699 
L 71.869662 286.855839 
L 73.989607 287.441775 
L 78.229499 287.423919 
L 80.349445 286.043039 
L 82.46939 286.219501 
L 84.589336 286.661008 
L 86.709282 285.161782 
L 88.829227 286.552774 
L 90.949173 286.795381 
L 93.069119 285.131296 
L 95.189065 285.243196 
L 97.30901 282.896557 
L 99.428956 277.976974 
L 103.668848 259.965311 
L 105.788793 251.006082 
L 107.908739 247.161646 
L 110.028685 241.071033 
L 112.14863 238.610152 
L 114.268576 237.970134 
L 116.388522 236.015252 
L 118.508468 234.606271 
L 120.628413 233.70415 
L 122.748359 236.406554 
L 124.868305 236.217954 
L 126.988251 236.305097 
L 129.108196 235.604695 
L 131.228142 236.810956 
L 133.348088 236.978771 
L 135.468033 237.680319 
L 137.587979 239.378471 
L 141.827871 246.911941 
L 143.947816 254.304557 
L 146.067762 262.222244 
L 148.187708 269.311963 
L 152.427599 277.195365 
L 154.547545 279.664249 
L 158.787436 282.910467 
L 160.907382 284.75627 
L 163.027328 285.036345 
L 165.147274 285.186108 
L 167.267219 285.675698 
L 169.387165 285.864528 
L 171.507111 286.408336 
L 173.627056 285.980244 
L 175.747002 286.444968 
L 177.866948 286.757946 
L 179.986894 286.383429 
L 182.106839 285.654483 
L 184.226785 285.529947 
L 186.346731 286.370906 
L 188.466677 285.219831 
L 190.586622 285.649733 
L 194.826514 284.981832 
L 196.946459 284.435937 
L 199.066405 282.874947 
L 201.186351 276.07979 
L 203.306297 268.541237 
L 205.426242 258.170116 
L 207.546188 249.692475 
L 209.666134 243.920316 
L 211.78608 239.225812 
L 213.906025 238.795989 
L 216.025971 234.741719 
L 218.145917 233.838894 
L 220.265862 230.067707 
L 222.385808 229.418983 
L 224.505754 231.598818 
L 226.6257 230.8885 
L 230.865591 231.980869 
L 232.985537 232.912419 
L 235.105483 231.897743 
L 237.225428 232.688295 
L 239.345374 235.109139 
L 241.46532 240.150533 
L 243.585265 244.568582 
L 245.705211 252.463822 
L 247.825157 260.908631 
L 249.945103 268.249966 
L 252.065048 272.982792 
L 254.184994 277.347647 
L 256.30494 280.062712 
L 258.424886 281.700236 
L 260.544831 282.698638 
L 262.664777 284.575942 
L 264.784723 284.929891 
L 266.904668 285.664349 
L 269.024614 286.085588 
L 273.264506 287.180349 
L 275.384451 286.486084 
L 277.504397 287.051868 
L 279.624343 286.774683 
L 281.744289 286.838786 
L 283.864234 285.289862 
L 285.98418 285.685329 
L 288.104126 287.15558 
L 290.224071 285.931378 
L 292.344017 286.280879 
L 294.463963 285.71582 
L 296.583909 284.963877 
L 298.703854 285.692892 
L 300.8238 282.41977 
L 305.063691 268.463113 
L 307.183637 260.036268 
L 309.303583 250.93039 
L 311.423529 243.176991 
L 313.543474 239.278455 
L 315.66342 236.019402 
L 317.783366 234.381821 
L 319.903312 230.139632 
L 322.023257 229.386069 
L 324.143203 229.158506 
L 326.263149 231.930115 
L 328.383094 231.039611 
L 330.50304 231.333687 
L 332.622986 232.613032 
L 334.742932 233.578923 
L 336.862877 232.951529 
L 338.982823 233.285434 
L 341.102769 234.849138 
L 343.222715 240.903131 
L 345.34266 245.534615 
L 349.582552 259.484232 
L 351.702497 268.801822 
L 353.822443 271.855098 
L 355.942389 276.159718 
L 358.062335 279.102623 
L 360.18228 280.609435 
L 362.302226 282.714638 
L 364.422172 284.588698 
L 366.542118 284.730403 
L 368.662063 285.559658 
L 370.782009 285.701914 
L 375.0219 286.418991 
L 377.141846 285.695617 
L 379.261792 286.325145 
L 381.381738 286.602028 
L 383.501683 286.422354 
L 385.621629 284.839586 
L 387.741575 286.081549 
L 389.861521 286.949977 
L 391.981466 285.345307 
L 394.101412 285.888417 
L 396.221358 285.731825 
L 398.341303 283.795514 
L 400.461249 283.806949 
L 402.581195 281.881866 
L 404.701141 274.722802 
L 406.821086 267.003317 
L 408.941032 258.00179 
L 411.060978 249.798271 
L 413.180924 244.636981 
L 415.300869 241.123039 
L 417.420815 236.699297 
L 419.540761 235.84377 
L 421.660706 231.116642 
L 423.780652 231.866518 
L 425.900598 230.260253 
L 428.020544 233.436351 
L 430.140489 233.26663 
L 432.260435 232.464128 
L 434.380381 233.390633 
L 436.500326 234.674836 
L 438.620272 234.488018 
L 440.740218 234.738774 
L 442.860164 235.971488 
L 444.980109 241.012148 
L 447.100055 245.498174 
L 451.339947 260.667149 
L 453.459892 269.086326 
L 457.699784 276.979558 
L 459.819729 279.761883 
L 461.939675 281.189879 
L 464.059621 282.390934 
L 466.179567 284.764964 
L 468.299512 284.895754 
L 478.899241 286.413855 
L 481.019187 286.337063 
L 483.139132 286.694919 
L 485.259078 286.791665 
L 487.379024 285.055478 
L 489.49897 285.902583 
L 491.618915 286.466298 
L 493.738861 285.546625 
L 495.858807 285.712414 
L 497.978753 286.024638 
L 500.098698 285.425298 
L 502.218644 284.629744 
L 504.33859 282.364497 
L 506.458535 275.598795 
L 510.698427 260.789758 
L 514.938318 245.480027 
L 517.058264 242.211384 
L 519.17821 240.255337 
L 521.298156 239.943803 
L 523.418101 237.85571 
L 525.538047 236.582279 
L 527.657993 235.096105 
L 529.777938 237.601912 
L 531.897884 237.222293 
L 534.01783 237.127805 
L 536.137776 238.609798 
L 538.257721 239.937439 
L 540.377667 240.2139 
L 542.497613 242.700598 
L 544.617559 244.535625 
L 546.737504 249.878705 
L 548.85745 254.445054 
L 550.977396 260.744093 
L 555.217287 274.22831 
L 557.337233 276.220598 
L 559.457179 279.569241 
L 561.577124 282.508429 
L 563.69707 283.768589 
L 565.817016 285.33227 
L 567.936961 287.11349 
L 570.056907 286.499438 
L 572.176853 287.018329 
L 574.296799 287.01741 
L 576.416744 287.269936 
L 578.53669 288.035454 
L 580.656636 287.092453 
L 582.776582 287.693053 
L 584.896527 287.516733 
L 587.016473 288.163802 
L 589.136419 287.222226 
L 591.256364 287.502989 
L 593.37631 287.238103 
L 595.496256 287.508588 
L 597.616202 287.014178 
L 599.736147 287.08327 
L 601.856093 286.335169 
L 603.976039 287.388997 
L 606.095985 286.123817 
L 608.21593 285.80857 
L 612.455822 282.78156 
L 614.575767 279.561112 
L 616.695713 279.043747 
L 618.815659 278.710203 
L 620.935605 277.426646 
L 623.05555 277.028135 
L 627.295442 276.867618 
L 629.415388 277.449061 
L 631.535333 277.020798 
L 633.655279 277.081983 
L 635.775225 277.342625 
L 637.89517 277.718522 
L 640.015116 277.866621 
L 642.135062 278.159677 
L 644.255008 278.640148 
L 646.374953 278.676484 
L 648.494899 280.299057 
L 650.614845 281.026963 
L 654.854736 282.768574 
L 656.974682 283.880073 
L 659.094628 284.694818 
L 661.214573 285.232723 
L 663.334519 285.301159 
L 665.454465 285.514444 
L 667.574411 285.569774 
L 669.694356 286.740409 
L 671.814302 287.014141 
L 673.934248 287.050926 
L 678.174139 286.596406 
L 680.294085 287.165048 
L 682.414031 286.7854 
L 684.533976 287.350235 
L 686.653922 287.105106 
L 688.773868 287.686514 
L 690.893814 287.145317 
L 693.013759 287.717255 
L 697.253651 287.61704 
L 699.373597 287.534953 
L 701.493542 287.294385 
L 703.613488 286.837323 
L 705.733434 287.905486 
L 707.853379 287.524969 
L 709.973325 287.312099 
L 712.093271 286.279497 
L 714.213217 284.152915 
L 716.333162 282.494257 
L 718.453108 281.976182 
L 720.573054 281.654854 
L 722.692999 281.063939 
L 724.812945 280.994144 
L 726.932891 280.275503 
L 729.052837 280.509367 
L 731.172782 280.540338 
L 733.292728 280.27523 
L 735.412674 280.449318 
L 737.53262 279.83908 
L 739.652565 280.327757 
L 741.772511 281.291577 
L 746.012402 282.29164 
L 748.132348 282.531223 
L 750.252294 282.594444 
L 752.37224 282.223637 
L 756.612131 284.175353 
L 758.732077 285.581481 
L 760.852023 286.383223 
L 762.971968 286.901639 
L 765.091914 286.861121 
L 767.21186 287.020622 
L 769.331805 286.913132 
L 773.571697 287.360107 
L 775.691643 287.163502 
L 779.931534 287.316812 
L 779.931534 287.316812 
" clip-path="url(#paee6d7be10)" style="fill: none; stroke: #ff0000; stroke-opacity: 0.4; stroke-width: 1.5; stroke-linecap: square"/>
   </g>
   <g id="line2d_68">
    <path d="M 69.749716 234.296894 
L 220.265862 234.296894 
L 222.385808 82.915901 
L 226.6257 72.215248 
L 228.745645 67.756643 
L 230.865591 68.648364 
L 232.985537 78.160055 
L 235.105483 81.132459 
L 237.225428 75.782132 
L 239.345374 73.99869 
L 241.46532 78.457296 
L 243.585265 317.735792 
L 245.705211 320.708195 
L 247.825157 320.708195 
L 249.945103 320.410955 
L 252.065048 320.410955 
L 254.184994 320.113715 
L 256.30494 320.410955 
L 258.424886 319.816474 
L 262.664777 320.410955 
L 264.784723 320.113715 
L 266.904668 320.410955 
L 269.024614 320.113715 
L 271.14456 320.410955 
L 273.264506 320.113715 
L 275.384451 320.410955 
L 277.504397 320.113715 
L 279.624343 320.410955 
L 281.744289 320.113715 
L 283.864234 320.410955 
L 285.98418 320.113715 
L 288.104126 320.410955 
L 292.344017 319.816474 
L 294.463963 320.113715 
L 296.583909 320.113715 
L 298.703854 320.410955 
L 300.8238 320.410955 
L 302.943746 320.708195 
L 305.063691 320.708195 
L 307.183637 282.364188 
L 309.303583 91.535872 
L 311.423529 38.329846 
L 313.543474 72.512488 
L 315.66342 68.945604 
L 317.783366 73.70145 
L 319.903312 70.431806 
L 322.023257 71.918008 
L 324.143203 72.809729 
L 326.263149 69.837325 
L 328.383094 75.484892 
L 330.50304 58.542191 
L 332.622986 78.457296 
L 334.742932 77.862815 
L 336.862877 76.673854 
L 338.982823 70.729046 
L 341.102769 72.512488 
L 343.222715 159.901157 
L 345.34266 320.708195 
L 347.462606 320.410955 
L 349.582552 320.708195 
L 351.702497 320.410955 
L 353.822443 320.410955 
L 355.942389 320.113715 
L 358.062335 320.410955 
L 360.18228 319.816474 
L 362.302226 320.113715 
L 368.662063 320.113715 
L 370.782009 320.410955 
L 372.901955 320.113715 
L 375.0219 320.410955 
L 377.141846 320.113715 
L 379.261792 320.113715 
L 381.381738 320.410955 
L 385.621629 319.816474 
L 387.741575 320.113715 
L 391.981466 320.113715 
L 394.101412 320.410955 
L 396.221358 320.113715 
L 398.341303 156.488837 
L 449.220001 156.488837 
L 451.339947 320.708195 
L 453.459892 320.113715 
L 455.579838 320.113715 
L 457.699784 320.410955 
L 459.819729 320.113715 
L 461.939675 320.113715 
L 464.059621 320.410955 
L 466.179567 320.113715 
L 468.299512 320.113715 
L 470.419458 320.410955 
L 472.539404 320.113715 
L 474.65935 320.410955 
L 476.779295 320.113715 
L 478.899241 320.410955 
L 481.019187 320.113715 
L 483.139132 320.113715 
L 485.259078 320.410955 
L 487.379024 319.816474 
L 489.49897 320.113715 
L 495.858807 320.113715 
L 497.978753 320.410955 
L 500.098698 320.113715 
L 502.218644 320.410955 
L 506.458535 320.410955 
L 508.578481 320.708195 
L 510.698427 320.410955 
L 512.818373 178.032819 
L 514.938318 82.321421 
L 517.058264 82.321421 
L 519.17821 75.187652 
L 521.298156 182.491424 
L 523.418101 333.192291 
L 525.538047 333.192291 
L 527.657993 328.139205 
L 529.777938 37.438125 
L 531.897884 63.000797 
L 534.01783 64.784239 
L 536.137776 68.945604 
L 538.257721 76.376613 
L 540.377667 74.890411 
L 542.497613 101.939285 
L 544.617559 320.410955 
L 553.097341 320.410955 
L 555.217287 332.59781 
L 557.337233 333.192291 
L 561.577124 333.192291 
L 563.69707 304.954456 
L 565.817016 284.742111 
L 567.936961 313.574427 
L 570.056907 317.141311 
L 572.176853 318.033032 
L 574.296799 319.221994 
L 580.656636 320.113715 
L 582.776582 320.113715 
L 584.896527 319.816474 
L 587.016473 320.113715 
L 589.136419 331.706089 
L 591.256364 333.192291 
L 595.496256 333.192291 
L 597.616202 289.200716 
L 599.736147 299.306889 
L 601.856093 315.655109 
L 603.976039 317.735792 
L 606.095985 318.627513 
L 608.21593 319.816474 
L 612.455822 320.410955 
L 614.575767 320.410955 
L 616.695713 320.113715 
L 618.815659 320.410955 
L 620.935605 320.410955 
L 623.05555 331.111608 
L 625.175496 333.192291 
L 629.415388 333.192291 
L 631.535333 299.90137 
L 633.655279 293.956562 
L 635.775225 315.060628 
L 637.89517 317.141311 
L 640.015116 318.330273 
L 642.135062 319.221994 
L 644.255008 319.816474 
L 648.494899 320.410955 
L 654.854736 320.410955 
L 656.974682 320.113715 
L 661.214573 320.113715 
L 663.334519 319.816474 
L 665.454465 319.816474 
L 667.574411 320.410955 
L 669.694356 320.113715 
L 684.533976 320.113715 
L 686.653922 320.410955 
L 688.773868 320.113715 
L 690.893814 319.519234 
L 693.013759 320.113715 
L 701.493542 320.113715 
L 703.613488 320.55363 
L 754.492185 320.55363 
L 756.612131 320.708195 
L 758.732077 320.113715 
L 760.852023 320.410955 
L 762.971968 320.113715 
L 767.21186 320.113715 
L 769.331805 320.410955 
L 771.451751 320.113715 
L 773.571697 320.410955 
L 775.691643 320.113715 
L 777.811588 320.410955 
L 779.931534 320.113715 
L 779.931534 320.113715 
" clip-path="url(#paee6d7be10)" style="fill: none; stroke: #0000ff; stroke-width: 1.5; stroke-linecap: square"/>
   </g>
   <g id="patch_11">
    <path d="M 34.240625 354.958125 
L 34.240625 22.318125 
" style="fill: none; stroke: #000000; stroke-width: 0.8; stroke-linejoin: miter; stroke-linecap: square"/>
   </g>
   <g id="patch_12">
    <path d="M 815.440625 354.958125 
L 815.440625 22.318125 
" style="fill: none; stroke: #000000; stroke-width: 0.8; stroke-linejoin: miter; stroke-linecap: square"/>
   </g>
   <g id="patch_13">
    <path d="M 34.240625 354.958125 
L 815.440625 354.958125 
" style="fill: none; stroke: #000000; stroke-width: 0.8; stroke-linejoin: miter; stroke-linecap: square"/>
   </g>
   <g id="patch_14">
    <path d="M 34.240625 22.318125 
L 815.440625 22.318125 
" style="fill: none; stroke: #000000; stroke-width: 0.8; stroke-linejoin: miter; stroke-linecap: square"/>
   </g>
   <g id="text_36">
    <!-- benchmarkdata for "Offices" Market sector using 277 sampled meters, constructed with 4,275,457 samples -->
    <g transform="translate(100.608125 16.318125) scale(0.12 -0.12)">
     <defs>
      <path id="DejaVuSans-62" d="M 3116 1747 
Q 3116 2381 2855 2742 
Q 2594 3103 2138 3103 
Q 1681 3103 1420 2742 
Q 1159 2381 1159 1747 
Q 1159 1113 1420 752 
Q 1681 391 2138 391 
Q 2594 391 2855 752 
Q 3116 1113 3116 1747 
z
M 1159 2969 
Q 1341 3281 1617 3432 
Q 1894 3584 2278 3584 
Q 2916 3584 3314 3078 
Q 3713 2572 3713 1747 
Q 3713 922 3314 415 
Q 2916 -91 2278 -91 
Q 1894 -91 1617 61 
Q 1341 213 1159 525 
L 1159 0 
L 581 0 
L 581 4863 
L 1159 4863 
L 1159 2969 
z
" transform="scale(0.015625)"/>
      <path id="DejaVuSans-63" d="M 3122 3366 
L 3122 2828 
Q 2878 2963 2633 3030 
Q 2388 3097 2138 3097 
Q 1578 3097 1268 2742 
Q 959 2388 959 1747 
Q 959 1106 1268 751 
Q 1578 397 2138 397 
Q 2388 397 2633 464 
Q 2878 531 3122 666 
L 3122 134 
Q 2881 22 2623 -34 
Q 2366 -91 2075 -91 
Q 1284 -91 818 406 
Q 353 903 353 1747 
Q 353 2603 823 3093 
Q 1294 3584 2113 3584 
Q 2378 3584 2631 3529 
Q 2884 3475 3122 3366 
z
" transform="scale(0.015625)"/>
      <path id="DejaVuSans-6b" d="M 581 4863 
L 1159 4863 
L 1159 1991 
L 2875 3500 
L 3609 3500 
L 1753 1863 
L 3688 0 
L 2938 0 
L 1159 1709 
L 1159 0 
L 581 0 
L 581 4863 
z
" transform="scale(0.015625)"/>
      <path id="DejaVuSans-66" d="M 2375 4863 
L 2375 4384 
L 1825 4384 
Q 1516 4384 1395 4259 
Q 1275 4134 1275 3809 
L 1275 3500 
L 2222 3500 
L 2222 3053 
L 1275 3053 
L 1275 0 
L 697 0 
L 697 3053 
L 147 3053 
L 147 3500 
L 697 3500 
L 697 3744 
Q 697 4328 969 4595 
Q 1241 4863 1831 4863 
L 2375 4863 
z
" transform="scale(0.015625)"/>
      <path id="DejaVuSans-22" d="M 1147 4666 
L 1147 2931 
L 616 2931 
L 616 4666 
L 1147 4666 
z
M 2328 4666 
L 2328 2931 
L 1797 2931 
L 1797 4666 
L 2328 4666 
z
" transform="scale(0.015625)"/>
      <path id="DejaVuSans-4f" d="M 2522 4238 
Q 1834 4238 1429 3725 
Q 1025 3213 1025 2328 
Q 1025 1447 1429 934 
Q 1834 422 2522 422 
Q 3209 422 3611 934 
Q 4013 1447 4013 2328 
Q 4013 3213 3611 3725 
Q 3209 4238 2522 4238 
z
M 2522 4750 
Q 3503 4750 4090 4092 
Q 4678 3434 4678 2328 
Q 4678 1225 4090 567 
Q 3503 -91 2522 -91 
Q 1538 -91 948 565 
Q 359 1222 359 2328 
Q 359 3434 948 4092 
Q 1538 4750 2522 4750 
z
" transform="scale(0.015625)"/>
      <path id="DejaVuSans-37" d="M 525 4666 
L 3525 4666 
L 3525 4397 
L 1831 0 
L 1172 0 
L 2766 4134 
L 525 4134 
L 525 4666 
z
" transform="scale(0.015625)"/>
      <path id="DejaVuSans-70" d="M 1159 525 
L 1159 -1331 
L 581 -1331 
L 581 3500 
L 1159 3500 
L 1159 2969 
Q 1341 3281 1617 3432 
Q 1894 3584 2278 3584 
Q 2916 3584 3314 3078 
Q 3713 2572 3713 1747 
Q 3713 922 3314 415 
Q 2916 -91 2278 -91 
Q 1894 -91 1617 61 
Q 1341 213 1159 525 
z
M 3116 1747 
Q 3116 2381 2855 2742 
Q 2594 3103 2138 3103 
Q 1681 3103 1420 2742 
Q 1159 2381 1159 1747 
Q 1159 1113 1420 752 
Q 1681 391 2138 391 
Q 2594 391 2855 752 
Q 3116 1113 3116 1747 
z
" transform="scale(0.015625)"/>
      <path id="DejaVuSans-6c" d="M 603 4863 
L 1178 4863 
L 1178 0 
L 603 0 
L 603 4863 
z
" transform="scale(0.015625)"/>
      <path id="DejaVuSans-35" d="M 691 4666 
L 3169 4666 
L 3169 4134 
L 1269 4134 
L 1269 2991 
Q 1406 3038 1543 3061 
Q 1681 3084 1819 3084 
Q 2600 3084 3056 2656 
Q 3513 2228 3513 1497 
Q 3513 744 3044 326 
Q 2575 -91 1722 -91 
Q 1428 -91 1123 -41 
Q 819 9 494 109 
L 494 744 
Q 775 591 1075 516 
Q 1375 441 1709 441 
Q 2250 441 2565 725 
Q 2881 1009 2881 1497 
Q 2881 1984 2565 2268 
Q 2250 2553 1709 2553 
Q 1456 2553 1204 2497 
Q 953 2441 691 2322 
L 691 4666 
z
" transform="scale(0.015625)"/>
     </defs>
     <use xlink:href="#DejaVuSans-62"/>
     <use xlink:href="#DejaVuSans-65" x="63.476562"/>
     <use xlink:href="#DejaVuSans-6e" x="125"/>
     <use xlink:href="#DejaVuSans-63" x="188.378906"/>
     <use xlink:href="#DejaVuSans-68" x="243.359375"/>
     <use xlink:href="#DejaVuSans-6d" x="306.738281"/>
     <use xlink:href="#DejaVuSans-61" x="404.150391"/>
     <use xlink:href="#DejaVuSans-72" x="465.429688"/>
     <use xlink:href="#DejaVuSans-6b" x="506.542969"/>
     <use xlink:href="#DejaVuSans-64" x="564.453125"/>
     <use xlink:href="#DejaVuSans-61" x="627.929688"/>
     <use xlink:href="#DejaVuSans-74" x="689.208984"/>
     <use xlink:href="#DejaVuSans-61" x="728.417969"/>
     <use xlink:href="#DejaVuSans-20" x="789.697266"/>
     <use xlink:href="#DejaVuSans-66" x="821.484375"/>
     <use xlink:href="#DejaVuSans-6f" x="856.689453"/>
     <use xlink:href="#DejaVuSans-72" x="917.871094"/>
     <use xlink:href="#DejaVuSans-20" x="958.984375"/>
     <use xlink:href="#DejaVuSans-22" x="990.771484"/>
     <use xlink:href="#DejaVuSans-4f" x="1036.767578"/>
     <use xlink:href="#DejaVuSans-66" x="1115.478516"/>
     <use xlink:href="#DejaVuSans-66" x="1150.683594"/>
     <use xlink:href="#DejaVuSans-69" x="1185.888672"/>
     <use xlink:href="#DejaVuSans-63" x="1213.671875"/>
     <use xlink:href="#DejaVuSans-65" x="1268.652344"/>
     <use xlink:href="#DejaVuSans-73" x="1330.175781"/>
     <use xlink:href="#DejaVuSans-22" x="1382.275391"/>
     <use xlink:href="#DejaVuSans-20" x="1428.271484"/>
     <use xlink:href="#DejaVuSans-4d" x="1460.058594"/>
     <use xlink:href="#DejaVuSans-61" x="1546.337891"/>
     <use xlink:href="#DejaVuSans-72" x="1607.617188"/>
     <use xlink:href="#DejaVuSans-6b" x="1648.730469"/>
     <use xlink:href="#DejaVuSans-65" x="1703.015625"/>
     <use xlink:href="#DejaVuSans-74" x="1764.539062"/>
     <use xlink:href="#DejaVuSans-20" x="1803.748047"/>
     <use xlink:href="#DejaVuSans-73" x="1835.535156"/>
     <use xlink:href="#DejaVuSans-65" x="1887.634766"/>
     <use xlink:href="#DejaVuSans-63" x="1949.158203"/>
     <use xlink:href="#DejaVuSans-74" x="2004.138672"/>
     <use xlink:href="#DejaVuSans-6f" x="2043.347656"/>
     <use xlink:href="#DejaVuSans-72" x="2104.529297"/>
     <use xlink:href="#DejaVuSans-20" x="2145.642578"/>
     <use xlink:href="#DejaVuSans-75" x="2177.429688"/>
     <use xlink:href="#DejaVuSans-73" x="2240.808594"/>
     <use xlink:href="#DejaVuSans-69" x="2292.908203"/>
     <use xlink:href="#DejaVuSans-6e" x="2320.691406"/>
     <use xlink:href="#DejaVuSans-67" x="2384.070312"/>
     <use xlink:href="#DejaVuSans-20" x="2447.546875"/>
     <use xlink:href="#DejaVuSans-32" x="2479.333984"/>
     <use xlink:href="#DejaVuSans-37" x="2542.957031"/>
     <use xlink:href="#DejaVuSans-37" x="2606.580078"/>
     <use xlink:href="#DejaVuSans-20" x="2670.203125"/>
     <use xlink:href="#DejaVuSans-73" x="2701.990234"/>
     <use xlink:href="#DejaVuSans-61" x="2754.089844"/>
     <use xlink:href="#DejaVuSans-6d" x="2815.369141"/>
     <use xlink:href="#DejaVuSans-70" x="2912.78125"/>
     <use xlink:href="#DejaVuSans-6c" x="2976.257812"/>
     <use xlink:href="#DejaVuSans-65" x="3004.041016"/>
     <use xlink:href="#DejaVuSans-64" x="3065.564453"/>
     <use xlink:href="#DejaVuSans-20" x="3129.041016"/>
     <use xlink:href="#DejaVuSans-6d" x="3160.828125"/>
     <use xlink:href="#DejaVuSans-65" x="3258.240234"/>
     <use xlink:href="#DejaVuSans-74" x="3319.763672"/>
     <use xlink:href="#DejaVuSans-65" x="3358.972656"/>
     <use xlink:href="#DejaVuSans-72" x="3420.496094"/>
     <use xlink:href="#DejaVuSans-73" x="3461.609375"/>
     <use xlink:href="#DejaVuSans-2c" x="3513.708984"/>
     <use xlink:href="#DejaVuSans-20" x="3545.496094"/>
     <use xlink:href="#DejaVuSans-63" x="3577.283203"/>
     <use xlink:href="#DejaVuSans-6f" x="3632.263672"/>
     <use xlink:href="#DejaVuSans-6e" x="3693.445312"/>
     <use xlink:href="#DejaVuSans-73" x="3756.824219"/>
     <use xlink:href="#DejaVuSans-74" x="3808.923828"/>
     <use xlink:href="#DejaVuSans-72" x="3848.132812"/>
     <use xlink:href="#DejaVuSans-75" x="3889.246094"/>
     <use xlink:href="#DejaVuSans-63" x="3952.625"/>
     <use xlink:href="#DejaVuSans-74" x="4007.605469"/>
     <use xlink:href="#DejaVuSans-65" x="4046.814453"/>
     <use xlink:href="#DejaVuSans-64" x="4108.337891"/>
     <use xlink:href="#DejaVuSans-20" x="4171.814453"/>
     <use xlink:href="#DejaVuSans-77" x="4203.601562"/>
     <use xlink:href="#DejaVuSans-69" x="4285.388672"/>
     <use xlink:href="#DejaVuSans-74" x="4313.171875"/>
     <use xlink:href="#DejaVuSans-68" x="4352.380859"/>
     <use xlink:href="#DejaVuSans-20" x="4415.759766"/>
     <use xlink:href="#DejaVuSans-34" x="4447.546875"/>
     <use xlink:href="#DejaVuSans-2c" x="4511.169922"/>
     <use xlink:href="#DejaVuSans-32" x="4542.957031"/>
     <use xlink:href="#DejaVuSans-37" x="4606.580078"/>
     <use xlink:href="#DejaVuSans-35" x="4670.203125"/>
     <use xlink:href="#DejaVuSans-2c" x="4733.826172"/>
     <use xlink:href="#DejaVuSans-34" x="4765.613281"/>
     <use xlink:href="#DejaVuSans-35" x="4829.236328"/>
     <use xlink:href="#DejaVuSans-37" x="4892.859375"/>
     <use xlink:href="#DejaVuSans-20" x="4956.482422"/>
     <use xlink:href="#DejaVuSans-73" x="4988.269531"/>
     <use xlink:href="#DejaVuSans-61" x="5040.369141"/>
     <use xlink:href="#DejaVuSans-6d" x="5101.648438"/>
     <use xlink:href="#DejaVuSans-70" x="5199.060547"/>
     <use xlink:href="#DejaVuSans-6c" x="5262.537109"/>
     <use xlink:href="#DejaVuSans-65" x="5290.320312"/>
     <use xlink:href="#DejaVuSans-73" x="5351.84375"/>
    </g>
   </g>
   <g id="legend_1">
    <g id="patch_15">
     <path d="M 643.478125 85.550313 
L 808.440625 85.550313 
Q 810.440625 85.550313 810.440625 83.550313 
L 810.440625 29.318125 
Q 810.440625 27.318125 808.440625 27.318125 
L 643.478125 27.318125 
Q 641.478125 27.318125 641.478125 29.318125 
L 641.478125 83.550313 
Q 641.478125 85.550313 643.478125 85.550313 
z
" style="fill: #ffffff; opacity: 0.8; stroke: #cccccc; stroke-linejoin: miter"/>
    </g>
    <g id="line2d_69">
     <path d="M 645.478125 35.416562 
L 655.478125 35.416562 
L 665.478125 35.416562 
" style="fill: none; stroke: #ff0000; stroke-opacity: 0.4; stroke-width: 1.5; stroke-linecap: square"/>
    </g>
    <g id="text_37">
     <!-- Mean: 1.785 -->
     <g transform="translate(673.478125 38.916562) scale(0.1 -0.1)">
      <defs>
       <path id="DejaVuSans-2e" d="M 684 794 
L 1344 794 
L 1344 0 
L 684 0 
L 684 794 
z
" transform="scale(0.015625)"/>
      </defs>
      <use xlink:href="#DejaVuSans-4d"/>
      <use xlink:href="#DejaVuSans-65" x="86.279297"/>
      <use xlink:href="#DejaVuSans-61" x="147.802734"/>
      <use xlink:href="#DejaVuSans-6e" x="209.082031"/>
      <use xlink:href="#DejaVuSans-3a" x="272.460938"/>
      <use xlink:href="#DejaVuSans-20" x="306.152344"/>
      <use xlink:href="#DejaVuSans-31" x="337.939453"/>
      <use xlink:href="#DejaVuSans-2e" x="401.5625"/>
      <use xlink:href="#DejaVuSans-37" x="433.349609"/>
      <use xlink:href="#DejaVuSans-38" x="496.972656"/>
      <use xlink:href="#DejaVuSans-35" x="560.595703"/>
     </g>
    </g>
    <g id="patch_16">
     <path d="M 645.478125 53.594688 
L 665.478125 53.594688 
L 665.478125 46.594688 
L 645.478125 46.594688 
z
" style="fill: #ff0000; fill-opacity: 0.2; stroke: #ff0000; stroke-opacity: 0.2; stroke-linejoin: miter"/>
    </g>
    <g id="text_38">
     <!-- Std Dev: 1.701 -->
     <g transform="translate(673.478125 53.594688) scale(0.1 -0.1)">
      <defs>
       <path id="DejaVuSans-44" d="M 1259 4147 
L 1259 519 
L 2022 519 
Q 2988 519 3436 956 
Q 3884 1394 3884 2338 
Q 3884 3275 3436 3711 
Q 2988 4147 2022 4147 
L 1259 4147 
z
M 628 4666 
L 1925 4666 
Q 3281 4666 3915 4102 
Q 4550 3538 4550 2338 
Q 4550 1131 3912 565 
Q 3275 0 1925 0 
L 628 0 
L 628 4666 
z
" transform="scale(0.015625)"/>
       <path id="DejaVuSans-76" d="M 191 3500 
L 800 3500 
L 1894 563 
L 2988 3500 
L 3597 3500 
L 2284 0 
L 1503 0 
L 191 3500 
z
" transform="scale(0.015625)"/>
      </defs>
      <use xlink:href="#DejaVuSans-53"/>
      <use xlink:href="#DejaVuSans-74" x="63.476562"/>
      <use xlink:href="#DejaVuSans-64" x="102.685547"/>
      <use xlink:href="#DejaVuSans-20" x="166.162109"/>
      <use xlink:href="#DejaVuSans-44" x="197.949219"/>
      <use xlink:href="#DejaVuSans-65" x="274.951172"/>
      <use xlink:href="#DejaVuSans-76" x="336.474609"/>
      <use xlink:href="#DejaVuSans-3a" x="390.154297"/>
      <use xlink:href="#DejaVuSans-20" x="423.845703"/>
      <use xlink:href="#DejaVuSans-31" x="455.632812"/>
      <use xlink:href="#DejaVuSans-2e" x="519.255859"/>
      <use xlink:href="#DejaVuSans-37" x="551.042969"/>
      <use xlink:href="#DejaVuSans-30" x="614.666016"/>
      <use xlink:href="#DejaVuSans-31" x="678.289062"/>
     </g>
    </g>
    <g id="line2d_70">
     <path d="M 645.478125 71.411563 
L 655.478125 71.411563 
L 665.478125 71.411563 
" style="fill: none; stroke: #0000ff; stroke-width: 1.5; stroke-linecap: square"/>
    </g>
    <g id="text_39">
     <!-- Performance Comparison:  -->
     <g transform="translate(673.478125 68.272812) scale(0.1 -0.1)">
      <defs>
       <path id="DejaVuSans-43" d="M 4122 4306 
L 4122 3641 
Q 3803 3938 3442 4084 
Q 3081 4231 2675 4231 
Q 1875 4231 1450 3742 
Q 1025 3253 1025 2328 
Q 1025 1406 1450 917 
Q 1875 428 2675 428 
Q 3081 428 3442 575 
Q 3803 722 4122 1019 
L 4122 359 
Q 3791 134 3420 21 
Q 3050 -91 2638 -91 
Q 1578 -91 968 557 
Q 359 1206 359 2328 
Q 359 3453 968 4101 
Q 1578 4750 2638 4750 
Q 3056 4750 3426 4639 
Q 3797 4528 4122 4306 
z
" transform="scale(0.015625)"/>
      </defs>
      <use xlink:href="#DejaVuSans-50"/>
      <use xlink:href="#DejaVuSans-65" x="56.677734"/>
      <use xlink:href="#DejaVuSans-72" x="118.201172"/>
      <use xlink:href="#DejaVuSans-66" x="159.314453"/>
      <use xlink:href="#DejaVuSans-6f" x="194.519531"/>
      <use xlink:href="#DejaVuSans-72" x="255.701172"/>
      <use xlink:href="#DejaVuSans-6d" x="295.064453"/>
      <use xlink:href="#DejaVuSans-61" x="392.476562"/>
      <use xlink:href="#DejaVuSans-6e" x="453.755859"/>
      <use xlink:href="#DejaVuSans-63" x="517.134766"/>
      <use xlink:href="#DejaVuSans-65" x="572.115234"/>
      <use xlink:href="#DejaVuSans-20" x="633.638672"/>
      <use xlink:href="#DejaVuSans-43" x="665.425781"/>
      <use xlink:href="#DejaVuSans-6f" x="735.25"/>
      <use xlink:href="#DejaVuSans-6d" x="796.431641"/>
      <use xlink:href="#DejaVuSans-70" x="893.84375"/>
      <use xlink:href="#DejaVuSans-61" x="957.320312"/>
      <use xlink:href="#DejaVuSans-72" x="1018.599609"/>
      <use xlink:href="#DejaVuSans-69" x="1059.712891"/>
      <use xlink:href="#DejaVuSans-73" x="1087.496094"/>
      <use xlink:href="#DejaVuSans-6f" x="1139.595703"/>
      <use xlink:href="#DejaVuSans-6e" x="1200.777344"/>
      <use xlink:href="#DejaVuSans-3a" x="1264.15625"/>
      <use xlink:href="#DejaVuSans-20" x="1297.847656"/>
     </g>
     <!-- Mean: 2.020 -->
     <g transform="translate(673.478125 79.470625) scale(0.1 -0.1)">
      <use xlink:href="#DejaVuSans-4d"/>
      <use xlink:href="#DejaVuSans-65" x="86.279297"/>
      <use xlink:href="#DejaVuSans-61" x="147.802734"/>
      <use xlink:href="#DejaVuSans-6e" x="209.082031"/>
      <use xlink:href="#DejaVuSans-3a" x="272.460938"/>
      <use xlink:href="#DejaVuSans-20" x="306.152344"/>
      <use xlink:href="#DejaVuSans-32" x="337.939453"/>
      <use xlink:href="#DejaVuSans-2e" x="401.5625"/>
      <use xlink:href="#DejaVuSans-30" x="433.349609"/>
      <use xlink:href="#DejaVuSans-32" x="496.972656"/>
      <use xlink:href="#DejaVuSans-30" x="560.595703"/>
     </g>
    </g>
   </g>
  </g>
 </g>
 <defs>
  <clipPath id="paee6d7be10">
   <rect x="34.240625" y="22.318125" width="781.2" height="332.64"/>
  </clipPath>
 </defs>
</svg>
