<?xml version="1.0" encoding="utf-8" standalone="no"?>
<!DOCTYPE svg PUBLIC "-//W3C//DTD SVG 1.1//EN"
  "http://www.w3.org/Graphics/SVG/1.1/DTD/svg11.dtd">
<svg xmlns:xlink="http://www.w3.org/1999/xlink" width="829.003125pt" height="453.244198pt" viewBox="0 0 829.003125 453.244198" xmlns="http://www.w3.org/2000/svg" version="1.1">
 <metadata>
  <rdf:RDF xmlns:dc="http://purl.org/dc/elements/1.1/" xmlns:cc="http://creativecommons.org/ns#" xmlns:rdf="http://www.w3.org/1999/02/22-rdf-syntax-ns#">
   <cc:Work>
    <dc:type rdf:resource="http://purl.org/dc/dcmitype/StillImage"/>
    <dc:date>2024-07-22T22:02:28.504164</dc:date>
    <dc:format>image/svg+xml</dc:format>
    <dc:creator>
     <cc:Agent>
      <dc:title>Matplotlib v3.8.4, https://matplotlib.org/</dc:title>
     </cc:Agent>
    </dc:creator>
   </cc:Work>
  </rdf:RDF>
 </metadata>
 <defs>
  <style type="text/css">*{stroke-linejoin: round; stroke-linecap: butt}</style>
 </defs>
 <g id="figure_1">
  <g id="patch_1">
   <path d="M 0 453.244198 
L 829.003125 453.244198 
L 829.003125 0 
L 0 0 
z
" style="fill: #ffffff"/>
  </g>
  <g id="axes_1">
   <g id="patch_2">
    <path d="M 40.603125 354.958125 
L 821.803125 354.958125 
L 821.803125 22.318125 
L 40.603125 22.318125 
z
" style="fill: #ffffff"/>
   </g>
   <g id="PolyCollection_1">
    <defs>
     <path id="m3582f95a35" d="M 76.112216 -248.292453 
L 76.112216 -116.445734 
L 78.232162 -115.571243 
L 80.352107 -116.055352 
L 82.472053 -116.24864 
L 84.591999 -115.234478 
L 86.711945 -116.089578 
L 88.83189 -116.56456 
L 90.951836 -115.63607 
L 93.071782 -116.626251 
L 95.191727 -115.881942 
L 97.311673 -115.984094 
L 99.431619 -116.202089 
L 101.551565 -115.695441 
L 103.67151 -118.665122 
L 105.791456 -118.491142 
L 107.911402 -120.336131 
L 110.031348 -123.129439 
L 112.151293 -123.723252 
L 114.271239 -154.716491 
L 116.391185 -201.915902 
L 118.51113 -216.734055 
L 120.631076 -223.52352 
L 122.751022 -226.738602 
L 124.870968 -226.94245 
L 126.990913 -229.596198 
L 129.110859 -226.259666 
L 131.230805 -231.945335 
L 133.350751 -222.90551 
L 135.470696 -227.227375 
L 137.590642 -226.241238 
L 139.710588 -226.824525 
L 141.830533 -221.06132 
L 143.950479 -222.592972 
L 146.070425 -220.497032 
L 148.190371 -214.31399 
L 150.310316 -208.941011 
L 152.430262 -200.202095 
L 154.550208 -183.830018 
L 156.670153 -169.311098 
L 158.790099 -135.969666 
L 160.910045 -121.287045 
L 163.029991 -119.390398 
L 165.149936 -118.82093 
L 167.269882 -118.962697 
L 169.389828 -116.927389 
L 171.509774 -117.008658 
L 173.629719 -116.774491 
L 175.749665 -114.962493 
L 177.869611 -115.310905 
L 179.989556 -113.406073 
L 182.109502 -115.446664 
L 184.229448 -115.844157 
L 186.349394 -115.202558 
L 188.469339 -115.084407 
L 190.589285 -115.595776 
L 192.709231 -114.393336 
L 194.829177 -114.828455 
L 196.949122 -115.179119 
L 199.069068 -114.854445 
L 201.189014 -114.797858 
L 203.308959 -115.063245 
L 205.428905 -116.922153 
L 207.548851 -118.263455 
L 209.668797 -119.290972 
L 211.788742 -121.40496 
L 213.908688 -125.264489 
L 216.028634 -149.864521 
L 218.14858 -200.378693 
L 220.268525 -220.624797 
L 222.388471 -224.896774 
L 224.508417 -229.740744 
L 226.628362 -227.764352 
L 228.748308 -230.402823 
L 230.868254 -230.548193 
L 232.9882 -231.430032 
L 235.108145 -226.908724 
L 237.228091 -230.807975 
L 239.348037 -230.099564 
L 241.467983 -230.036429 
L 243.587928 -226.410706 
L 245.707874 -225.284155 
L 247.82782 -220.046285 
L 249.947765 -217.210423 
L 252.067711 -214.651752 
L 254.187657 -207.584543 
L 256.307603 -186.904675 
L 258.427548 -174.732572 
L 260.547494 -135.278474 
L 262.66744 -121.504675 
L 264.787386 -120.53809 
L 266.907331 -119.120187 
L 269.027277 -117.656364 
L 271.147223 -117.119324 
L 273.267168 -116.68878 
L 275.387114 -115.942539 
L 277.50706 -115.080207 
L 279.627006 -115.157286 
L 281.746951 -115.455377 
L 283.866897 -115.315362 
L 285.986843 -114.336501 
L 288.106789 -115.006865 
L 290.226734 -113.62811 
L 292.34668 -116.060384 
L 294.466626 -115.285422 
L 296.586571 -115.747943 
L 298.706517 -116.014866 
L 300.826463 -115.104073 
L 302.946409 -114.787082 
L 305.066354 -115.192131 
L 307.1863 -116.499159 
L 309.306246 -117.79317 
L 311.426191 -119.781612 
L 313.546137 -121.048456 
L 315.666083 -128.81145 
L 317.786029 -159.643159 
L 319.905974 -199.521056 
L 322.02592 -219.930455 
L 324.145866 -225.226067 
L 326.265812 -229.546597 
L 328.385757 -226.257895 
L 330.505703 -231.157934 
L 332.625649 -230.15486 
L 334.745594 -231.708222 
L 336.86554 -226.34899 
L 338.985486 -230.883186 
L 341.105432 -229.179011 
L 343.225377 -231.451544 
L 345.345323 -225.590348 
L 347.465269 -227.327508 
L 349.585215 -225.543743 
L 351.70516 -218.920241 
L 353.825106 -214.255816 
L 355.945052 -206.180327 
L 358.064997 -174.451306 
L 360.184943 -171.588801 
L 362.304889 -138.423845 
L 364.424835 -122.828146 
L 366.54478 -121.494312 
L 368.664726 -120.115023 
L 370.784672 -118.857426 
L 372.904618 -118.450635 
L 375.024563 -117.090265 
L 377.144509 -117.705208 
L 379.264455 -115.383992 
L 381.3844 -116.129604 
L 383.504346 -116.596386 
L 385.624292 -115.452427 
L 387.744238 -115.739982 
L 389.864183 -115.857757 
L 391.984129 -115.103804 
L 394.104075 -115.898436 
L 396.224021 -115.430872 
L 398.343966 -115.577662 
L 400.463912 -116.654795 
L 402.583858 -115.399552 
L 404.703803 -115.617057 
L 406.823749 -116.501689 
L 408.943695 -116.064348 
L 411.063641 -118.764952 
L 413.183586 -121.061412 
L 415.303532 -121.475463 
L 417.423478 -126.571142 
L 419.543424 -157.038304 
L 421.663369 -199.967508 
L 423.783315 -215.932672 
L 425.903261 -227.573113 
L 428.023206 -230.033184 
L 430.143152 -225.607442 
L 432.263098 -232.802416 
L 434.383044 -228.885741 
L 436.502989 -231.504475 
L 438.622935 -229.129302 
L 440.742881 -228.122406 
L 442.862826 -232.453013 
L 444.982772 -230.362752 
L 447.102718 -226.741809 
L 449.222664 -224.702637 
L 451.342609 -228.684213 
L 453.462555 -220.787291 
L 455.582501 -212.703377 
L 457.702447 -208.748738 
L 459.822392 -188.277641 
L 461.942338 -177.487001 
L 464.062284 -135.756451 
L 466.182229 -121.77329 
L 468.302175 -120.690687 
L 470.422121 -118.517611 
L 472.542067 -117.958692 
L 474.662012 -116.772148 
L 476.781958 -116.442503 
L 478.901904 -115.841385 
L 481.02185 -115.335515 
L 483.141795 -115.482753 
L 485.261741 -116.057419 
L 487.381687 -115.521639 
L 489.501632 -115.191019 
L 491.621578 -115.116456 
L 493.741524 -114.95369 
L 495.86147 -115.35039 
L 497.981415 -115.310999 
L 500.101361 -115.163348 
L 502.221307 -115.011574 
L 504.341253 -115.965995 
L 506.461198 -115.902947 
L 508.581144 -116.675058 
L 510.70109 -117.694222 
L 512.821035 -118.751664 
L 514.940981 -120.990232 
L 517.060927 -122.318626 
L 519.180873 -130.076771 
L 521.300818 -157.60698 
L 523.420764 -201.344418 
L 525.54071 -219.102376 
L 527.660656 -225.471102 
L 529.780601 -226.670161 
L 531.900547 -229.026514 
L 534.020493 -227.761006 
L 536.140438 -218.392696 
L 538.260384 -225.690151 
L 540.38033 -230.346853 
L 542.500276 -231.521559 
L 544.620221 -228.473553 
L 546.740167 -229.325409 
L 548.860113 -226.294965 
L 550.980059 -228.008006 
L 553.100004 -228.443906 
L 555.21995 -227.187521 
L 557.339896 -221.332571 
L 559.459841 -217.330628 
L 561.579787 -192.470189 
L 563.699733 -180.027231 
L 565.819679 -150.860292 
L 567.939624 -141.193759 
L 570.05957 -136.824569 
L 572.179516 -129.088434 
L 574.299461 -120.9827 
L 576.419407 -118.253632 
L 578.539353 -117.943521 
L 580.659299 -117.491147 
L 582.779244 -116.297726 
L 584.89919 -116.67741 
L 587.019136 -116.719251 
L 589.139082 -116.06983 
L 591.259027 -116.284232 
L 593.378973 -115.892957 
L 595.498919 -115.242442 
L 597.618864 -116.399387 
L 599.73881 -115.677088 
L 601.858756 -116.562342 
L 603.978702 -116.636745 
L 606.098647 -116.022092 
L 608.218593 -115.862016 
L 610.338539 -116.254969 
L 612.458485 -118.121105 
L 614.57843 -118.635747 
L 616.698376 -121.009561 
L 618.818322 -122.192425 
L 620.938267 -126.64879 
L 623.058213 -157.58174 
L 625.178159 -200.654882 
L 627.298105 -213.869862 
L 629.41805 -224.172612 
L 631.537996 -227.852245 
L 633.657942 -224.972296 
L 635.777888 -229.18546 
L 637.897833 -228.703997 
L 640.017779 -228.524969 
L 642.137725 -226.917115 
L 644.25767 -225.795911 
L 646.377616 -225.288366 
L 648.497562 -226.389487 
L 650.617508 -228.548699 
L 652.737453 -220.111626 
L 654.857399 -217.771254 
L 656.977345 -211.245351 
L 659.097291 -195.544985 
L 661.217236 -197.739446 
L 663.337182 -180.939227 
L 665.457128 -176.9796 
L 667.577073 -147.63383 
L 669.697019 -136.207433 
L 671.816965 -134.452134 
L 673.936911 -129.564822 
L 676.056856 -119.361153 
L 678.176802 -119.132551 
L 680.296748 -117.986269 
L 682.416694 -116.844813 
L 684.536639 -116.262677 
L 686.656585 -116.576516 
L 688.776531 -116.34871 
L 690.896476 -116.170532 
L 693.016422 -115.654889 
L 695.136368 -115.891948 
L 697.256314 -116.577733 
L 699.376259 -115.837469 
L 701.496205 -116.274917 
L 703.616151 -116.327537 
L 705.736097 -116.465637 
L 707.856042 -116.429576 
L 709.975988 -116.216586 
L 712.095934 -116.678124 
L 714.215879 -117.9958 
L 716.335825 -118.953252 
L 718.455771 -121.286444 
L 720.575717 -121.490924 
L 722.695662 -123.902485 
L 724.815608 -152.481328 
L 726.935554 -201.517037 
L 729.055499 -213.461295 
L 731.175445 -215.073401 
L 733.295391 -217.848924 
L 735.415337 -219.851214 
L 737.535282 -222.066388 
L 739.655228 -219.601022 
L 741.775174 -219.961331 
L 743.89512 -214.642834 
L 746.015065 -209.589006 
L 748.135011 -211.856574 
L 750.254957 -201.363082 
L 752.374902 -185.901048 
L 754.494848 -175.190618 
L 756.614794 -175.147797 
L 758.73474 -171.567006 
L 760.854685 -162.109091 
L 762.974631 -157.144529 
L 765.094577 -130.992887 
L 767.214523 -120.329795 
L 769.334468 -119.480658 
L 771.454414 -120.310091 
L 773.57436 -119.288999 
L 775.694305 -120.553248 
L 777.814251 -118.951024 
L 779.934197 -117.446772 
L 782.054143 -118.260037 
L 784.174088 -116.930445 
L 786.294034 -116.375357 
L 786.294034 -245.630581 
L 786.294034 -245.630581 
L 784.174088 -247.087657 
L 782.054143 -248.638553 
L 779.934197 -248.368227 
L 777.814251 -252.695934 
L 775.694305 -257.194592 
L 773.57436 -260.157798 
L 771.454414 -265.770909 
L 769.334468 -268.535203 
L 767.214523 -278.753111 
L 765.094577 -319.573981 
L 762.974631 -352.293184 
L 760.854685 -362.507237 
L 758.73474 -381.440138 
L 756.614794 -380.258787 
L 754.494848 -383.160651 
L 752.374902 -383.095101 
L 750.254957 -400.632154 
L 748.135011 -401.099203 
L 746.015065 -404.856929 
L 743.89512 -404.848309 
L 741.775174 -406.850358 
L 739.655228 -408.022352 
L 737.535282 -406.091611 
L 735.415337 -408.930974 
L 733.295391 -406.73907 
L 731.175445 -406.919487 
L 729.055499 -406.104782 
L 726.935554 -398.234926 
L 724.815608 -334.008849 
L 722.695662 -282.502763 
L 720.575717 -266.51505 
L 718.455771 -256.712461 
L 716.335825 -250.841237 
L 714.215879 -249.230291 
L 712.095934 -247.335726 
L 709.975988 -245.432586 
L 707.856042 -245.669776 
L 705.736097 -246.780597 
L 703.616151 -247.099382 
L 701.496205 -246.688798 
L 699.376259 -245.00417 
L 697.256314 -247.571325 
L 695.136368 -247.710563 
L 693.016422 -245.930545 
L 690.896476 -246.37479 
L 688.776531 -248.07466 
L 686.656585 -248.052553 
L 684.536639 -246.852057 
L 682.416694 -248.22826 
L 680.296748 -250.554201 
L 678.176802 -255.389482 
L 676.056856 -257.001663 
L 673.936911 -275.143157 
L 671.816965 -298.79929 
L 669.697019 -317.643144 
L 667.577073 -341.381846 
L 665.457128 -378.00348 
L 663.337182 -385.110505 
L 661.217236 -396.674516 
L 659.097291 -401.836909 
L 656.977345 -401.994659 
L 654.857399 -404.788885 
L 652.737453 -409.381926 
L 650.617508 -408.461421 
L 648.497562 -411.837429 
L 646.377616 -407.743047 
L 644.25767 -410.573578 
L 642.137725 -408.875751 
L 640.017779 -409.140284 
L 637.897833 -408.934368 
L 635.777888 -409.094421 
L 633.657942 -409.700849 
L 631.537996 -406.438742 
L 629.41805 -408.421143 
L 627.298105 -404.805039 
L 625.178159 -397.914507 
L 623.058213 -344.554378 
L 620.938267 -284.98846 
L 618.818322 -272.438868 
L 616.698376 -259.321067 
L 614.57843 -253.903421 
L 612.458485 -251.523044 
L 610.338539 -248.820009 
L 608.218593 -246.710691 
L 606.098647 -244.995289 
L 603.978702 -246.861628 
L 601.858756 -249.589339 
L 599.73881 -246.137621 
L 597.618864 -247.633359 
L 595.498919 -246.304984 
L 593.378973 -245.80401 
L 591.259027 -246.474414 
L 589.139082 -244.644893 
L 587.019136 -246.640126 
L 584.89919 -247.364717 
L 582.779244 -245.740998 
L 580.659299 -249.477364 
L 578.539353 -249.315033 
L 576.419407 -253.69368 
L 574.299461 -261.056251 
L 572.179516 -286.040557 
L 570.05957 -310.53256 
L 567.939624 -327.673478 
L 565.819679 -349.448457 
L 563.699733 -379.032061 
L 561.579787 -387.221268 
L 559.459841 -402.694252 
L 557.339896 -406.464929 
L 555.21995 -407.974777 
L 553.100004 -409.809991 
L 550.980059 -410.325973 
L 548.860113 -409.070935 
L 546.740167 -411.011579 
L 544.620221 -410.79588 
L 542.500276 -415.033888 
L 540.38033 -413.673943 
L 538.260384 -415.806073 
L 536.140438 -411.414148 
L 534.020493 -411.776999 
L 531.900547 -408.466745 
L 529.780601 -411.432369 
L 527.660656 -407.570807 
L 525.54071 -408.592611 
L 523.420764 -401.28887 
L 521.300818 -347.638986 
L 519.180873 -295.848598 
L 517.060927 -274.484588 
L 514.940981 -260.224229 
L 512.821035 -254.844892 
L 510.70109 -249.873141 
L 508.581144 -250.208472 
L 506.461198 -247.276937 
L 504.341253 -247.262481 
L 502.221307 -246.489122 
L 500.101361 -246.403635 
L 497.981415 -246.270058 
L 495.86147 -246.644834 
L 493.741524 -245.119081 
L 491.621578 -247.05318 
L 489.501632 -245.862044 
L 487.381687 -246.181138 
L 485.261741 -247.406634 
L 483.141795 -247.052078 
L 481.02185 -246.843854 
L 478.901904 -248.022718 
L 476.781958 -249.224247 
L 474.662012 -253.845618 
L 472.542067 -255.415571 
L 470.422121 -264.295989 
L 468.302175 -269.934565 
L 466.182229 -277.614808 
L 464.062284 -321.915825 
L 461.942338 -381.86392 
L 459.822392 -387.287453 
L 457.702447 -404.150157 
L 455.582501 -405.80929 
L 453.462555 -407.660203 
L 451.342609 -410.149085 
L 449.222664 -411.721111 
L 447.102718 -408.987157 
L 444.982772 -413.538283 
L 442.862826 -411.332282 
L 440.742881 -413.774221 
L 438.622935 -411.89997 
L 436.502989 -411.801433 
L 434.383044 -412.779595 
L 432.263098 -409.995453 
L 430.143152 -410.569955 
L 428.023206 -409.367758 
L 425.903261 -409.927333 
L 423.783315 -408.906205 
L 421.663369 -399.240014 
L 419.543424 -344.837366 
L 417.423478 -293.204072 
L 415.303532 -275.866943 
L 413.183586 -261.376691 
L 411.063641 -256.062966 
L 408.943695 -249.583499 
L 406.823749 -248.846101 
L 404.703803 -246.732447 
L 402.583858 -243.731708 
L 400.463912 -248.170666 
L 398.343966 -246.124821 
L 396.224021 -245.804823 
L 394.104075 -248.225842 
L 391.984129 -244.895957 
L 389.864183 -248.528448 
L 387.744238 -246.584425 
L 385.624292 -244.640288 
L 383.504346 -247.853496 
L 381.3844 -248.043708 
L 379.264455 -245.930498 
L 377.144509 -251.703442 
L 375.024563 -247.428489 
L 372.904618 -253.467178 
L 370.784672 -257.944204 
L 368.664726 -262.808812 
L 366.54478 -271.071908 
L 364.424835 -279.537618 
L 362.304889 -319.986612 
L 360.184943 -385.89312 
L 358.064997 -386.510235 
L 355.945052 -403.128669 
L 353.825106 -404.970415 
L 351.70516 -409.106861 
L 349.585215 -409.228512 
L 347.465269 -410.832166 
L 345.345323 -410.0331 
L 343.225377 -410.903434 
L 341.105432 -412.203434 
L 338.985486 -410.376536 
L 336.86554 -413.435244 
L 334.745594 -411.431104 
L 332.625649 -413.047811 
L 330.505703 -411.610213 
L 328.385757 -412.841466 
L 326.265812 -411.767987 
L 324.145866 -410.904628 
L 322.02592 -408.122724 
L 319.905974 -398.95805 
L 317.786029 -350.001628 
L 315.666083 -296.263842 
L 313.546137 -272.759466 
L 311.426191 -259.09721 
L 309.306246 -253.106577 
L 307.1863 -251.90613 
L 305.066354 -247.493997 
L 302.946409 -244.504767 
L 300.826463 -244.010012 
L 298.706517 -244.616845 
L 296.586571 -247.237814 
L 294.466626 -246.703993 
L 292.34668 -249.16041 
L 290.226734 -244.781655 
L 288.106789 -246.336475 
L 285.986843 -243.623969 
L 283.866897 -245.461299 
L 281.746951 -245.619517 
L 279.627006 -245.511382 
L 277.50706 -245.994848 
L 275.387114 -246.901061 
L 273.267168 -246.930084 
L 271.147223 -249.382156 
L 269.027277 -253.331727 
L 266.907331 -263.658202 
L 264.787386 -268.731588 
L 262.66744 -271.482018 
L 260.547494 -319.627861 
L 258.427548 -379.689626 
L 256.307603 -388.149314 
L 254.187657 -405.02863 
L 252.067711 -407.214675 
L 249.947765 -410.595309 
L 247.82782 -408.752354 
L 245.707874 -412.018294 
L 243.587928 -410.619322 
L 241.467983 -410.946607 
L 239.348037 -412.938442 
L 237.228091 -411.253176 
L 235.108145 -410.741494 
L 232.9882 -412.55245 
L 230.868254 -413.413724 
L 228.748308 -411.272149 
L 226.628362 -412.545416 
L 224.508417 -410.299973 
L 222.388471 -411.44855 
L 220.268525 -407.830521 
L 218.14858 -398.097751 
L 216.028634 -339.54804 
L 213.908688 -295.701473 
L 211.788742 -274.398078 
L 209.668797 -258.705499 
L 207.548851 -255.32156 
L 205.428905 -252.031238 
L 203.308959 -247.553606 
L 201.189014 -247.217764 
L 199.069068 -246.063145 
L 196.949122 -246.931343 
L 194.829177 -247.224995 
L 192.709231 -245.915546 
L 190.589285 -249.07952 
L 188.469339 -247.212258 
L 186.349394 -249.887483 
L 184.229448 -251.456492 
L 182.109502 -250.947265 
L 179.989556 -247.015892 
L 177.869611 -248.215985 
L 175.749665 -245.443036 
L 173.629719 -249.506339 
L 171.509774 -248.12868 
L 169.389828 -249.439586 
L 167.269882 -255.279541 
L 165.149936 -263.292706 
L 163.029991 -269.221127 
L 160.910045 -274.02735 
L 158.790099 -314.270601 
L 156.670153 -373.899961 
L 154.550208 -380.933068 
L 152.430262 -398.562581 
L 150.310316 -399.158928 
L 148.190371 -403.727619 
L 146.070425 -404.247909 
L 143.950479 -405.566012 
L 141.830533 -405.903234 
L 139.710588 -408.108163 
L 137.590642 -409.438167 
L 135.470696 -407.749194 
L 133.350751 -410.901167 
L 131.230805 -407.452459 
L 129.110859 -411.969917 
L 126.990913 -408.663849 
L 124.870968 -409.328307 
L 122.751022 -407.631859 
L 120.631076 -408.840059 
L 118.51113 -409.374791 
L 116.391185 -401.313392 
L 114.271239 -343.080914 
L 112.151293 -291.863506 
L 110.031348 -274.844181 
L 107.911402 -257.019102 
L 105.791456 -251.721602 
L 103.67151 -250.116519 
L 101.551565 -245.054917 
L 99.431619 -246.205299 
L 97.311673 -244.380864 
L 95.191727 -243.460319 
L 93.071782 -247.782598 
L 90.951836 -244.120587 
L 88.83189 -246.273609 
L 86.711945 -246.026005 
L 84.591999 -244.180908 
L 82.472053 -247.297922 
L 80.352107 -245.850623 
L 78.232162 -245.338691 
L 76.112216 -248.292453 
z
" style="stroke: #ff0000; stroke-opacity: 0.2"/>
    </defs>
    <g clip-path="url(#p8c65ba7662)">
     <use xlink:href="#m3582f95a35" x="0" y="453.244198" style="fill: #ff0000; fill-opacity: 0.2; stroke: #ff0000; stroke-opacity: 0.2"/>
    </g>
   </g>
   <g id="patch_3">
    <path d="M 76.112216 354.958125 
L 76.112216 22.318125 
L 101.551565 22.318125 
L 101.551565 354.958125 
z
" clip-path="url(#p8c65ba7662)" style="opacity: 0.3; stroke: #000000; stroke-linejoin: miter"/>
   </g>
   <g id="patch_4">
    <path d="M 152.430262 354.958125 
L 152.430262 22.318125 
L 203.308959 22.318125 
L 203.308959 354.958125 
z
" clip-path="url(#p8c65ba7662)" style="opacity: 0.3; stroke: #000000; stroke-linejoin: miter"/>
   </g>
   <g id="patch_5">
    <path d="M 254.187657 354.958125 
L 254.187657 22.318125 
L 305.066354 22.318125 
L 305.066354 354.958125 
z
" clip-path="url(#p8c65ba7662)" style="opacity: 0.3; stroke: #000000; stroke-linejoin: miter"/>
   </g>
   <g id="patch_6">
    <path d="M 355.945052 354.958125 
L 355.945052 22.318125 
L 406.823749 22.318125 
L 406.823749 354.958125 
z
" clip-path="url(#p8c65ba7662)" style="opacity: 0.3; stroke: #000000; stroke-linejoin: miter"/>
   </g>
   <g id="patch_7">
    <path d="M 457.702447 354.958125 
L 457.702447 22.318125 
L 508.581144 22.318125 
L 508.581144 354.958125 
z
" clip-path="url(#p8c65ba7662)" style="opacity: 0.3; stroke: #000000; stroke-linejoin: miter"/>
   </g>
   <g id="patch_8">
    <path d="M 559.459841 354.958125 
L 559.459841 22.318125 
L 610.338539 22.318125 
L 610.338539 354.958125 
z
" clip-path="url(#p8c65ba7662)" style="opacity: 0.3; stroke: #000000; stroke-linejoin: miter"/>
   </g>
   <g id="patch_9">
    <path d="M 661.217236 354.958125 
L 661.217236 22.318125 
L 712.095934 22.318125 
L 712.095934 354.958125 
z
" clip-path="url(#p8c65ba7662)" style="opacity: 0.3; stroke: #000000; stroke-linejoin: miter"/>
   </g>
   <g id="patch_10">
    <path d="M 762.974631 354.958125 
L 762.974631 22.318125 
L 786.294034 22.318125 
L 786.294034 354.958125 
z
" clip-path="url(#p8c65ba7662)" style="opacity: 0.3; stroke: #000000; stroke-linejoin: miter"/>
   </g>
   <g id="matplotlib.axis_1">
    <g id="xtick_1">
     <g id="line2d_1">
      <path d="M 76.112216 354.958125 
L 76.112216 22.318125 
" clip-path="url(#p8c65ba7662)" style="fill: none; stroke: #b0b0b0; stroke-width: 0.8; stroke-linecap: square"/>
     </g>
     <g id="line2d_2">
      <defs>
       <path id="m91e3e15dbd" d="M 0 0 
L 0 3.5 
" style="stroke: #000000; stroke-width: 0.8"/>
      </defs>
      <g>
       <use xlink:href="#m91e3e15dbd" x="76.112216" y="354.958125" style="stroke: #000000; stroke-width: 0.8"/>
      </g>
     </g>
     <g id="text_1">
      <!-- Monday 00:00 -->
      <g transform="translate(24.100093 417.872594) rotate(-45) scale(0.1 -0.1)">
       <defs>
        <path id="DejaVuSans-4d" d="M 628 4666 
L 1569 4666 
L 2759 1491 
L 3956 4666 
L 4897 4666 
L 4897 0 
L 4281 0 
L 4281 4097 
L 3078 897 
L 2444 897 
L 1241 4097 
L 1241 0 
L 628 0 
L 628 4666 
z
" transform="scale(0.015625)"/>
        <path id="DejaVuSans-6f" d="M 1959 3097 
Q 1497 3097 1228 2736 
Q 959 2375 959 1747 
Q 959 1119 1226 758 
Q 1494 397 1959 397 
Q 2419 397 2687 759 
Q 2956 1122 2956 1747 
Q 2956 2369 2687 2733 
Q 2419 3097 1959 3097 
z
M 1959 3584 
Q 2709 3584 3137 3096 
Q 3566 2609 3566 1747 
Q 3566 888 3137 398 
Q 2709 -91 1959 -91 
Q 1206 -91 779 398 
Q 353 888 353 1747 
Q 353 2609 779 3096 
Q 1206 3584 1959 3584 
z
" transform="scale(0.015625)"/>
        <path id="DejaVuSans-6e" d="M 3513 2113 
L 3513 0 
L 2938 0 
L 2938 2094 
Q 2938 2591 2744 2837 
Q 2550 3084 2163 3084 
Q 1697 3084 1428 2787 
Q 1159 2491 1159 1978 
L 1159 0 
L 581 0 
L 581 3500 
L 1159 3500 
L 1159 2956 
Q 1366 3272 1645 3428 
Q 1925 3584 2291 3584 
Q 2894 3584 3203 3211 
Q 3513 2838 3513 2113 
z
" transform="scale(0.015625)"/>
        <path id="DejaVuSans-64" d="M 2906 2969 
L 2906 4863 
L 3481 4863 
L 3481 0 
L 2906 0 
L 2906 525 
Q 2725 213 2448 61 
Q 2172 -91 1784 -91 
Q 1150 -91 751 415 
Q 353 922 353 1747 
Q 353 2572 751 3078 
Q 1150 3584 1784 3584 
Q 2172 3584 2448 3432 
Q 2725 3281 2906 2969 
z
M 947 1747 
Q 947 1113 1208 752 
Q 1469 391 1925 391 
Q 2381 391 2643 752 
Q 2906 1113 2906 1747 
Q 2906 2381 2643 2742 
Q 2381 3103 1925 3103 
Q 1469 3103 1208 2742 
Q 947 2381 947 1747 
z
" transform="scale(0.015625)"/>
        <path id="DejaVuSans-61" d="M 2194 1759 
Q 1497 1759 1228 1600 
Q 959 1441 959 1056 
Q 959 750 1161 570 
Q 1363 391 1709 391 
Q 2188 391 2477 730 
Q 2766 1069 2766 1631 
L 2766 1759 
L 2194 1759 
z
M 3341 1997 
L 3341 0 
L 2766 0 
L 2766 531 
Q 2569 213 2275 61 
Q 1981 -91 1556 -91 
Q 1019 -91 701 211 
Q 384 513 384 1019 
Q 384 1609 779 1909 
Q 1175 2209 1959 2209 
L 2766 2209 
L 2766 2266 
Q 2766 2663 2505 2880 
Q 2244 3097 1772 3097 
Q 1472 3097 1187 3025 
Q 903 2953 641 2809 
L 641 3341 
Q 956 3463 1253 3523 
Q 1550 3584 1831 3584 
Q 2591 3584 2966 3190 
Q 3341 2797 3341 1997 
z
" transform="scale(0.015625)"/>
        <path id="DejaVuSans-79" d="M 2059 -325 
Q 1816 -950 1584 -1140 
Q 1353 -1331 966 -1331 
L 506 -1331 
L 506 -850 
L 844 -850 
Q 1081 -850 1212 -737 
Q 1344 -625 1503 -206 
L 1606 56 
L 191 3500 
L 800 3500 
L 1894 763 
L 2988 3500 
L 3597 3500 
L 2059 -325 
z
" transform="scale(0.015625)"/>
        <path id="DejaVuSans-20" transform="scale(0.015625)"/>
        <path id="DejaVuSans-30" d="M 2034 4250 
Q 1547 4250 1301 3770 
Q 1056 3291 1056 2328 
Q 1056 1369 1301 889 
Q 1547 409 2034 409 
Q 2525 409 2770 889 
Q 3016 1369 3016 2328 
Q 3016 3291 2770 3770 
Q 2525 4250 2034 4250 
z
M 2034 4750 
Q 2819 4750 3233 4129 
Q 3647 3509 3647 2328 
Q 3647 1150 3233 529 
Q 2819 -91 2034 -91 
Q 1250 -91 836 529 
Q 422 1150 422 2328 
Q 422 3509 836 4129 
Q 1250 4750 2034 4750 
z
" transform="scale(0.015625)"/>
        <path id="DejaVuSans-3a" d="M 750 794 
L 1409 794 
L 1409 0 
L 750 0 
L 750 794 
z
M 750 3309 
L 1409 3309 
L 1409 2516 
L 750 2516 
L 750 3309 
z
" transform="scale(0.015625)"/>
       </defs>
       <use xlink:href="#DejaVuSans-4d"/>
       <use xlink:href="#DejaVuSans-6f" x="86.279297"/>
       <use xlink:href="#DejaVuSans-6e" x="147.460938"/>
       <use xlink:href="#DejaVuSans-64" x="210.839844"/>
       <use xlink:href="#DejaVuSans-61" x="274.316406"/>
       <use xlink:href="#DejaVuSans-79" x="335.595703"/>
       <use xlink:href="#DejaVuSans-20" x="394.775391"/>
       <use xlink:href="#DejaVuSans-30" x="426.5625"/>
       <use xlink:href="#DejaVuSans-30" x="490.185547"/>
       <use xlink:href="#DejaVuSans-3a" x="553.808594"/>
       <use xlink:href="#DejaVuSans-30" x="587.5"/>
       <use xlink:href="#DejaVuSans-30" x="651.123047"/>
      </g>
     </g>
    </g>
    <g id="xtick_2">
     <g id="line2d_3">
      <path d="M 101.551565 354.958125 
L 101.551565 22.318125 
" clip-path="url(#p8c65ba7662)" style="fill: none; stroke: #b0b0b0; stroke-width: 0.8; stroke-linecap: square"/>
     </g>
     <g id="line2d_4">
      <g>
       <use xlink:href="#m91e3e15dbd" x="101.551565" y="354.958125" style="stroke: #000000; stroke-width: 0.8"/>
      </g>
     </g>
     <g id="text_2">
      <!-- 06:00 -->
      <g transform="translate(79.70307 387.708965) rotate(-45) scale(0.1 -0.1)">
       <defs>
        <path id="DejaVuSans-36" d="M 2113 2584 
Q 1688 2584 1439 2293 
Q 1191 2003 1191 1497 
Q 1191 994 1439 701 
Q 1688 409 2113 409 
Q 2538 409 2786 701 
Q 3034 994 3034 1497 
Q 3034 2003 2786 2293 
Q 2538 2584 2113 2584 
z
M 3366 4563 
L 3366 3988 
Q 3128 4100 2886 4159 
Q 2644 4219 2406 4219 
Q 1781 4219 1451 3797 
Q 1122 3375 1075 2522 
Q 1259 2794 1537 2939 
Q 1816 3084 2150 3084 
Q 2853 3084 3261 2657 
Q 3669 2231 3669 1497 
Q 3669 778 3244 343 
Q 2819 -91 2113 -91 
Q 1303 -91 875 529 
Q 447 1150 447 2328 
Q 447 3434 972 4092 
Q 1497 4750 2381 4750 
Q 2619 4750 2861 4703 
Q 3103 4656 3366 4563 
z
" transform="scale(0.015625)"/>
       </defs>
       <use xlink:href="#DejaVuSans-30"/>
       <use xlink:href="#DejaVuSans-36" x="63.623047"/>
       <use xlink:href="#DejaVuSans-3a" x="127.246094"/>
       <use xlink:href="#DejaVuSans-30" x="160.9375"/>
       <use xlink:href="#DejaVuSans-30" x="224.560547"/>
      </g>
     </g>
    </g>
    <g id="xtick_3">
     <g id="line2d_5">
      <path d="M 126.990913 354.958125 
L 126.990913 22.318125 
" clip-path="url(#p8c65ba7662)" style="fill: none; stroke: #b0b0b0; stroke-width: 0.8; stroke-linecap: square"/>
     </g>
     <g id="line2d_6">
      <g>
       <use xlink:href="#m91e3e15dbd" x="126.990913" y="354.958125" style="stroke: #000000; stroke-width: 0.8"/>
      </g>
     </g>
     <g id="text_3">
      <!-- 12:00 -->
      <g transform="translate(105.142419 387.708965) rotate(-45) scale(0.1 -0.1)">
       <defs>
        <path id="DejaVuSans-31" d="M 794 531 
L 1825 531 
L 1825 4091 
L 703 3866 
L 703 4441 
L 1819 4666 
L 2450 4666 
L 2450 531 
L 3481 531 
L 3481 0 
L 794 0 
L 794 531 
z
" transform="scale(0.015625)"/>
        <path id="DejaVuSans-32" d="M 1228 531 
L 3431 531 
L 3431 0 
L 469 0 
L 469 531 
Q 828 903 1448 1529 
Q 2069 2156 2228 2338 
Q 2531 2678 2651 2914 
Q 2772 3150 2772 3378 
Q 2772 3750 2511 3984 
Q 2250 4219 1831 4219 
Q 1534 4219 1204 4116 
Q 875 4013 500 3803 
L 500 4441 
Q 881 4594 1212 4672 
Q 1544 4750 1819 4750 
Q 2544 4750 2975 4387 
Q 3406 4025 3406 3419 
Q 3406 3131 3298 2873 
Q 3191 2616 2906 2266 
Q 2828 2175 2409 1742 
Q 1991 1309 1228 531 
z
" transform="scale(0.015625)"/>
       </defs>
       <use xlink:href="#DejaVuSans-31"/>
       <use xlink:href="#DejaVuSans-32" x="63.623047"/>
       <use xlink:href="#DejaVuSans-3a" x="127.246094"/>
       <use xlink:href="#DejaVuSans-30" x="160.9375"/>
       <use xlink:href="#DejaVuSans-30" x="224.560547"/>
      </g>
     </g>
    </g>
    <g id="xtick_4">
     <g id="line2d_7">
      <path d="M 152.430262 354.958125 
L 152.430262 22.318125 
" clip-path="url(#p8c65ba7662)" style="fill: none; stroke: #b0b0b0; stroke-width: 0.8; stroke-linecap: square"/>
     </g>
     <g id="line2d_8">
      <g>
       <use xlink:href="#m91e3e15dbd" x="152.430262" y="354.958125" style="stroke: #000000; stroke-width: 0.8"/>
      </g>
     </g>
     <g id="text_4">
      <!-- 18:00 -->
      <g transform="translate(130.581767 387.708965) rotate(-45) scale(0.1 -0.1)">
       <defs>
        <path id="DejaVuSans-38" d="M 2034 2216 
Q 1584 2216 1326 1975 
Q 1069 1734 1069 1313 
Q 1069 891 1326 650 
Q 1584 409 2034 409 
Q 2484 409 2743 651 
Q 3003 894 3003 1313 
Q 3003 1734 2745 1975 
Q 2488 2216 2034 2216 
z
M 1403 2484 
Q 997 2584 770 2862 
Q 544 3141 544 3541 
Q 544 4100 942 4425 
Q 1341 4750 2034 4750 
Q 2731 4750 3128 4425 
Q 3525 4100 3525 3541 
Q 3525 3141 3298 2862 
Q 3072 2584 2669 2484 
Q 3125 2378 3379 2068 
Q 3634 1759 3634 1313 
Q 3634 634 3220 271 
Q 2806 -91 2034 -91 
Q 1263 -91 848 271 
Q 434 634 434 1313 
Q 434 1759 690 2068 
Q 947 2378 1403 2484 
z
M 1172 3481 
Q 1172 3119 1398 2916 
Q 1625 2713 2034 2713 
Q 2441 2713 2670 2916 
Q 2900 3119 2900 3481 
Q 2900 3844 2670 4047 
Q 2441 4250 2034 4250 
Q 1625 4250 1398 4047 
Q 1172 3844 1172 3481 
z
" transform="scale(0.015625)"/>
       </defs>
       <use xlink:href="#DejaVuSans-31"/>
       <use xlink:href="#DejaVuSans-38" x="63.623047"/>
       <use xlink:href="#DejaVuSans-3a" x="127.246094"/>
       <use xlink:href="#DejaVuSans-30" x="160.9375"/>
       <use xlink:href="#DejaVuSans-30" x="224.560547"/>
      </g>
     </g>
    </g>
    <g id="xtick_5">
     <g id="line2d_9">
      <path d="M 177.869611 354.958125 
L 177.869611 22.318125 
" clip-path="url(#p8c65ba7662)" style="fill: none; stroke: #b0b0b0; stroke-width: 0.8; stroke-linecap: square"/>
     </g>
     <g id="line2d_10">
      <g>
       <use xlink:href="#m91e3e15dbd" x="177.869611" y="354.958125" style="stroke: #000000; stroke-width: 0.8"/>
      </g>
     </g>
     <g id="text_5">
      <!-- Tuesday 00:00 -->
      <g transform="translate(125.001225 418.728856) rotate(-45) scale(0.1 -0.1)">
       <defs>
        <path id="DejaVuSans-54" d="M -19 4666 
L 3928 4666 
L 3928 4134 
L 2272 4134 
L 2272 0 
L 1638 0 
L 1638 4134 
L -19 4134 
L -19 4666 
z
" transform="scale(0.015625)"/>
        <path id="DejaVuSans-75" d="M 544 1381 
L 544 3500 
L 1119 3500 
L 1119 1403 
Q 1119 906 1312 657 
Q 1506 409 1894 409 
Q 2359 409 2629 706 
Q 2900 1003 2900 1516 
L 2900 3500 
L 3475 3500 
L 3475 0 
L 2900 0 
L 2900 538 
Q 2691 219 2414 64 
Q 2138 -91 1772 -91 
Q 1169 -91 856 284 
Q 544 659 544 1381 
z
M 1991 3584 
L 1991 3584 
z
" transform="scale(0.015625)"/>
        <path id="DejaVuSans-65" d="M 3597 1894 
L 3597 1613 
L 953 1613 
Q 991 1019 1311 708 
Q 1631 397 2203 397 
Q 2534 397 2845 478 
Q 3156 559 3463 722 
L 3463 178 
Q 3153 47 2828 -22 
Q 2503 -91 2169 -91 
Q 1331 -91 842 396 
Q 353 884 353 1716 
Q 353 2575 817 3079 
Q 1281 3584 2069 3584 
Q 2775 3584 3186 3129 
Q 3597 2675 3597 1894 
z
M 3022 2063 
Q 3016 2534 2758 2815 
Q 2500 3097 2075 3097 
Q 1594 3097 1305 2825 
Q 1016 2553 972 2059 
L 3022 2063 
z
" transform="scale(0.015625)"/>
        <path id="DejaVuSans-73" d="M 2834 3397 
L 2834 2853 
Q 2591 2978 2328 3040 
Q 2066 3103 1784 3103 
Q 1356 3103 1142 2972 
Q 928 2841 928 2578 
Q 928 2378 1081 2264 
Q 1234 2150 1697 2047 
L 1894 2003 
Q 2506 1872 2764 1633 
Q 3022 1394 3022 966 
Q 3022 478 2636 193 
Q 2250 -91 1575 -91 
Q 1294 -91 989 -36 
Q 684 19 347 128 
L 347 722 
Q 666 556 975 473 
Q 1284 391 1588 391 
Q 1994 391 2212 530 
Q 2431 669 2431 922 
Q 2431 1156 2273 1281 
Q 2116 1406 1581 1522 
L 1381 1569 
Q 847 1681 609 1914 
Q 372 2147 372 2553 
Q 372 3047 722 3315 
Q 1072 3584 1716 3584 
Q 2034 3584 2315 3537 
Q 2597 3491 2834 3397 
z
" transform="scale(0.015625)"/>
       </defs>
       <use xlink:href="#DejaVuSans-54"/>
       <use xlink:href="#DejaVuSans-75" x="45.958984"/>
       <use xlink:href="#DejaVuSans-65" x="109.337891"/>
       <use xlink:href="#DejaVuSans-73" x="170.861328"/>
       <use xlink:href="#DejaVuSans-64" x="222.960938"/>
       <use xlink:href="#DejaVuSans-61" x="286.4375"/>
       <use xlink:href="#DejaVuSans-79" x="347.716797"/>
       <use xlink:href="#DejaVuSans-20" x="406.896484"/>
       <use xlink:href="#DejaVuSans-30" x="438.683594"/>
       <use xlink:href="#DejaVuSans-30" x="502.306641"/>
       <use xlink:href="#DejaVuSans-3a" x="565.929688"/>
       <use xlink:href="#DejaVuSans-30" x="599.621094"/>
       <use xlink:href="#DejaVuSans-30" x="663.244141"/>
      </g>
     </g>
    </g>
    <g id="xtick_6">
     <g id="line2d_11">
      <path d="M 203.308959 354.958125 
L 203.308959 22.318125 
" clip-path="url(#p8c65ba7662)" style="fill: none; stroke: #b0b0b0; stroke-width: 0.8; stroke-linecap: square"/>
     </g>
     <g id="line2d_12">
      <g>
       <use xlink:href="#m91e3e15dbd" x="203.308959" y="354.958125" style="stroke: #000000; stroke-width: 0.8"/>
      </g>
     </g>
     <g id="text_6">
      <!-- 06:00 -->
      <g transform="translate(181.460465 387.708965) rotate(-45) scale(0.1 -0.1)">
       <use xlink:href="#DejaVuSans-30"/>
       <use xlink:href="#DejaVuSans-36" x="63.623047"/>
       <use xlink:href="#DejaVuSans-3a" x="127.246094"/>
       <use xlink:href="#DejaVuSans-30" x="160.9375"/>
       <use xlink:href="#DejaVuSans-30" x="224.560547"/>
      </g>
     </g>
    </g>
    <g id="xtick_7">
     <g id="line2d_13">
      <path d="M 228.748308 354.958125 
L 228.748308 22.318125 
" clip-path="url(#p8c65ba7662)" style="fill: none; stroke: #b0b0b0; stroke-width: 0.8; stroke-linecap: square"/>
     </g>
     <g id="line2d_14">
      <g>
       <use xlink:href="#m91e3e15dbd" x="228.748308" y="354.958125" style="stroke: #000000; stroke-width: 0.8"/>
      </g>
     </g>
     <g id="text_7">
      <!-- 12:00 -->
      <g transform="translate(206.899813 387.708965) rotate(-45) scale(0.1 -0.1)">
       <use xlink:href="#DejaVuSans-31"/>
       <use xlink:href="#DejaVuSans-32" x="63.623047"/>
       <use xlink:href="#DejaVuSans-3a" x="127.246094"/>
       <use xlink:href="#DejaVuSans-30" x="160.9375"/>
       <use xlink:href="#DejaVuSans-30" x="224.560547"/>
      </g>
     </g>
    </g>
    <g id="xtick_8">
     <g id="line2d_15">
      <path d="M 254.187657 354.958125 
L 254.187657 22.318125 
" clip-path="url(#p8c65ba7662)" style="fill: none; stroke: #b0b0b0; stroke-width: 0.8; stroke-linecap: square"/>
     </g>
     <g id="line2d_16">
      <g>
       <use xlink:href="#m91e3e15dbd" x="254.187657" y="354.958125" style="stroke: #000000; stroke-width: 0.8"/>
      </g>
     </g>
     <g id="text_8">
      <!-- 18:00 -->
      <g transform="translate(232.339162 387.708965) rotate(-45) scale(0.1 -0.1)">
       <use xlink:href="#DejaVuSans-31"/>
       <use xlink:href="#DejaVuSans-38" x="63.623047"/>
       <use xlink:href="#DejaVuSans-3a" x="127.246094"/>
       <use xlink:href="#DejaVuSans-30" x="160.9375"/>
       <use xlink:href="#DejaVuSans-30" x="224.560547"/>
      </g>
     </g>
    </g>
    <g id="xtick_9">
     <g id="line2d_17">
      <path d="M 279.627006 354.958125 
L 279.627006 22.318125 
" clip-path="url(#p8c65ba7662)" style="fill: none; stroke: #b0b0b0; stroke-width: 0.8; stroke-linecap: square"/>
     </g>
     <g id="line2d_18">
      <g>
       <use xlink:href="#m91e3e15dbd" x="279.627006" y="354.958125" style="stroke: #000000; stroke-width: 0.8"/>
      </g>
     </g>
     <g id="text_9">
      <!-- Wednesday 00:00 -->
      <g transform="translate(214.591964 430.895512) rotate(-45) scale(0.1 -0.1)">
       <defs>
        <path id="DejaVuSans-57" d="M 213 4666 
L 850 4666 
L 1831 722 
L 2809 4666 
L 3519 4666 
L 4500 722 
L 5478 4666 
L 6119 4666 
L 4947 0 
L 4153 0 
L 3169 4050 
L 2175 0 
L 1381 0 
L 213 4666 
z
" transform="scale(0.015625)"/>
       </defs>
       <use xlink:href="#DejaVuSans-57"/>
       <use xlink:href="#DejaVuSans-65" x="93.001953"/>
       <use xlink:href="#DejaVuSans-64" x="154.525391"/>
       <use xlink:href="#DejaVuSans-6e" x="218.001953"/>
       <use xlink:href="#DejaVuSans-65" x="281.380859"/>
       <use xlink:href="#DejaVuSans-73" x="342.904297"/>
       <use xlink:href="#DejaVuSans-64" x="395.003906"/>
       <use xlink:href="#DejaVuSans-61" x="458.480469"/>
       <use xlink:href="#DejaVuSans-79" x="519.759766"/>
       <use xlink:href="#DejaVuSans-20" x="578.939453"/>
       <use xlink:href="#DejaVuSans-30" x="610.726562"/>
       <use xlink:href="#DejaVuSans-30" x="674.349609"/>
       <use xlink:href="#DejaVuSans-3a" x="737.972656"/>
       <use xlink:href="#DejaVuSans-30" x="771.664062"/>
       <use xlink:href="#DejaVuSans-30" x="835.287109"/>
      </g>
     </g>
    </g>
    <g id="xtick_10">
     <g id="line2d_19">
      <path d="M 305.066354 354.958125 
L 305.066354 22.318125 
" clip-path="url(#p8c65ba7662)" style="fill: none; stroke: #b0b0b0; stroke-width: 0.8; stroke-linecap: square"/>
     </g>
     <g id="line2d_20">
      <g>
       <use xlink:href="#m91e3e15dbd" x="305.066354" y="354.958125" style="stroke: #000000; stroke-width: 0.8"/>
      </g>
     </g>
     <g id="text_10">
      <!-- 06:00 -->
      <g transform="translate(283.21786 387.708965) rotate(-45) scale(0.1 -0.1)">
       <use xlink:href="#DejaVuSans-30"/>
       <use xlink:href="#DejaVuSans-36" x="63.623047"/>
       <use xlink:href="#DejaVuSans-3a" x="127.246094"/>
       <use xlink:href="#DejaVuSans-30" x="160.9375"/>
       <use xlink:href="#DejaVuSans-30" x="224.560547"/>
      </g>
     </g>
    </g>
    <g id="xtick_11">
     <g id="line2d_21">
      <path d="M 330.505703 354.958125 
L 330.505703 22.318125 
" clip-path="url(#p8c65ba7662)" style="fill: none; stroke: #b0b0b0; stroke-width: 0.8; stroke-linecap: square"/>
     </g>
     <g id="line2d_22">
      <g>
       <use xlink:href="#m91e3e15dbd" x="330.505703" y="354.958125" style="stroke: #000000; stroke-width: 0.8"/>
      </g>
     </g>
     <g id="text_11">
      <!-- 12:00 -->
      <g transform="translate(308.657208 387.708965) rotate(-45) scale(0.1 -0.1)">
       <use xlink:href="#DejaVuSans-31"/>
       <use xlink:href="#DejaVuSans-32" x="63.623047"/>
       <use xlink:href="#DejaVuSans-3a" x="127.246094"/>
       <use xlink:href="#DejaVuSans-30" x="160.9375"/>
       <use xlink:href="#DejaVuSans-30" x="224.560547"/>
      </g>
     </g>
    </g>
    <g id="xtick_12">
     <g id="line2d_23">
      <path d="M 355.945052 354.958125 
L 355.945052 22.318125 
" clip-path="url(#p8c65ba7662)" style="fill: none; stroke: #b0b0b0; stroke-width: 0.8; stroke-linecap: square"/>
     </g>
     <g id="line2d_24">
      <g>
       <use xlink:href="#m91e3e15dbd" x="355.945052" y="354.958125" style="stroke: #000000; stroke-width: 0.8"/>
      </g>
     </g>
     <g id="text_12">
      <!-- 18:00 -->
      <g transform="translate(334.096557 387.708965) rotate(-45) scale(0.1 -0.1)">
       <use xlink:href="#DejaVuSans-31"/>
       <use xlink:href="#DejaVuSans-38" x="63.623047"/>
       <use xlink:href="#DejaVuSans-3a" x="127.246094"/>
       <use xlink:href="#DejaVuSans-30" x="160.9375"/>
       <use xlink:href="#DejaVuSans-30" x="224.560547"/>
      </g>
     </g>
    </g>
    <g id="xtick_13">
     <g id="line2d_25">
      <path d="M 381.3844 354.958125 
L 381.3844 22.318125 
" clip-path="url(#p8c65ba7662)" style="fill: none; stroke: #b0b0b0; stroke-width: 0.8; stroke-linecap: square"/>
     </g>
     <g id="line2d_26">
      <g>
       <use xlink:href="#m91e3e15dbd" x="381.3844" y="354.958125" style="stroke: #000000; stroke-width: 0.8"/>
      </g>
     </g>
     <g id="text_13">
      <!-- Thursday 00:00 -->
      <g transform="translate(324.409272 422.835599) rotate(-45) scale(0.1 -0.1)">
       <defs>
        <path id="DejaVuSans-68" d="M 3513 2113 
L 3513 0 
L 2938 0 
L 2938 2094 
Q 2938 2591 2744 2837 
Q 2550 3084 2163 3084 
Q 1697 3084 1428 2787 
Q 1159 2491 1159 1978 
L 1159 0 
L 581 0 
L 581 4863 
L 1159 4863 
L 1159 2956 
Q 1366 3272 1645 3428 
Q 1925 3584 2291 3584 
Q 2894 3584 3203 3211 
Q 3513 2838 3513 2113 
z
" transform="scale(0.015625)"/>
        <path id="DejaVuSans-72" d="M 2631 2963 
Q 2534 3019 2420 3045 
Q 2306 3072 2169 3072 
Q 1681 3072 1420 2755 
Q 1159 2438 1159 1844 
L 1159 0 
L 581 0 
L 581 3500 
L 1159 3500 
L 1159 2956 
Q 1341 3275 1631 3429 
Q 1922 3584 2338 3584 
Q 2397 3584 2469 3576 
Q 2541 3569 2628 3553 
L 2631 2963 
z
" transform="scale(0.015625)"/>
       </defs>
       <use xlink:href="#DejaVuSans-54"/>
       <use xlink:href="#DejaVuSans-68" x="61.083984"/>
       <use xlink:href="#DejaVuSans-75" x="124.462891"/>
       <use xlink:href="#DejaVuSans-72" x="187.841797"/>
       <use xlink:href="#DejaVuSans-73" x="228.955078"/>
       <use xlink:href="#DejaVuSans-64" x="281.054688"/>
       <use xlink:href="#DejaVuSans-61" x="344.53125"/>
       <use xlink:href="#DejaVuSans-79" x="405.810547"/>
       <use xlink:href="#DejaVuSans-20" x="464.990234"/>
       <use xlink:href="#DejaVuSans-30" x="496.777344"/>
       <use xlink:href="#DejaVuSans-30" x="560.400391"/>
       <use xlink:href="#DejaVuSans-3a" x="624.023438"/>
       <use xlink:href="#DejaVuSans-30" x="657.714844"/>
       <use xlink:href="#DejaVuSans-30" x="721.337891"/>
      </g>
     </g>
    </g>
    <g id="xtick_14">
     <g id="line2d_27">
      <path d="M 406.823749 354.958125 
L 406.823749 22.318125 
" clip-path="url(#p8c65ba7662)" style="fill: none; stroke: #b0b0b0; stroke-width: 0.8; stroke-linecap: square"/>
     </g>
     <g id="line2d_28">
      <g>
       <use xlink:href="#m91e3e15dbd" x="406.823749" y="354.958125" style="stroke: #000000; stroke-width: 0.8"/>
      </g>
     </g>
     <g id="text_14">
      <!-- 06:00 -->
      <g transform="translate(384.975254 387.708965) rotate(-45) scale(0.1 -0.1)">
       <use xlink:href="#DejaVuSans-30"/>
       <use xlink:href="#DejaVuSans-36" x="63.623047"/>
       <use xlink:href="#DejaVuSans-3a" x="127.246094"/>
       <use xlink:href="#DejaVuSans-30" x="160.9375"/>
       <use xlink:href="#DejaVuSans-30" x="224.560547"/>
      </g>
     </g>
    </g>
    <g id="xtick_15">
     <g id="line2d_29">
      <path d="M 432.263098 354.958125 
L 432.263098 22.318125 
" clip-path="url(#p8c65ba7662)" style="fill: none; stroke: #b0b0b0; stroke-width: 0.8; stroke-linecap: square"/>
     </g>
     <g id="line2d_30">
      <g>
       <use xlink:href="#m91e3e15dbd" x="432.263098" y="354.958125" style="stroke: #000000; stroke-width: 0.8"/>
      </g>
     </g>
     <g id="text_15">
      <!-- 12:00 -->
      <g transform="translate(410.414603 387.708965) rotate(-45) scale(0.1 -0.1)">
       <use xlink:href="#DejaVuSans-31"/>
       <use xlink:href="#DejaVuSans-32" x="63.623047"/>
       <use xlink:href="#DejaVuSans-3a" x="127.246094"/>
       <use xlink:href="#DejaVuSans-30" x="160.9375"/>
       <use xlink:href="#DejaVuSans-30" x="224.560547"/>
      </g>
     </g>
    </g>
    <g id="xtick_16">
     <g id="line2d_31">
      <path d="M 457.702447 354.958125 
L 457.702447 22.318125 
" clip-path="url(#p8c65ba7662)" style="fill: none; stroke: #b0b0b0; stroke-width: 0.8; stroke-linecap: square"/>
     </g>
     <g id="line2d_32">
      <g>
       <use xlink:href="#m91e3e15dbd" x="457.702447" y="354.958125" style="stroke: #000000; stroke-width: 0.8"/>
      </g>
     </g>
     <g id="text_16">
      <!-- 18:00 -->
      <g transform="translate(435.853952 387.708965) rotate(-45) scale(0.1 -0.1)">
       <use xlink:href="#DejaVuSans-31"/>
       <use xlink:href="#DejaVuSans-38" x="63.623047"/>
       <use xlink:href="#DejaVuSans-3a" x="127.246094"/>
       <use xlink:href="#DejaVuSans-30" x="160.9375"/>
       <use xlink:href="#DejaVuSans-30" x="224.560547"/>
      </g>
     </g>
    </g>
    <g id="xtick_17">
     <g id="line2d_33">
      <path d="M 483.141795 354.958125 
L 483.141795 22.318125 
" clip-path="url(#p8c65ba7662)" style="fill: none; stroke: #b0b0b0; stroke-width: 0.8; stroke-linecap: square"/>
     </g>
     <g id="line2d_34">
      <g>
       <use xlink:href="#m91e3e15dbd" x="483.141795" y="354.958125" style="stroke: #000000; stroke-width: 0.8"/>
      </g>
     </g>
     <g id="text_17">
      <!-- Friday 00:00 -->
      <g transform="translate(437.612957 411.389308) rotate(-45) scale(0.1 -0.1)">
       <defs>
        <path id="DejaVuSans-46" d="M 628 4666 
L 3309 4666 
L 3309 4134 
L 1259 4134 
L 1259 2759 
L 3109 2759 
L 3109 2228 
L 1259 2228 
L 1259 0 
L 628 0 
L 628 4666 
z
" transform="scale(0.015625)"/>
        <path id="DejaVuSans-69" d="M 603 3500 
L 1178 3500 
L 1178 0 
L 603 0 
L 603 3500 
z
M 603 4863 
L 1178 4863 
L 1178 4134 
L 603 4134 
L 603 4863 
z
" transform="scale(0.015625)"/>
       </defs>
       <use xlink:href="#DejaVuSans-46"/>
       <use xlink:href="#DejaVuSans-72" x="50.269531"/>
       <use xlink:href="#DejaVuSans-69" x="91.382812"/>
       <use xlink:href="#DejaVuSans-64" x="119.166016"/>
       <use xlink:href="#DejaVuSans-61" x="182.642578"/>
       <use xlink:href="#DejaVuSans-79" x="243.921875"/>
       <use xlink:href="#DejaVuSans-20" x="303.101562"/>
       <use xlink:href="#DejaVuSans-30" x="334.888672"/>
       <use xlink:href="#DejaVuSans-30" x="398.511719"/>
       <use xlink:href="#DejaVuSans-3a" x="462.134766"/>
       <use xlink:href="#DejaVuSans-30" x="495.826172"/>
       <use xlink:href="#DejaVuSans-30" x="559.449219"/>
      </g>
     </g>
    </g>
    <g id="xtick_18">
     <g id="line2d_35">
      <path d="M 508.581144 354.958125 
L 508.581144 22.318125 
" clip-path="url(#p8c65ba7662)" style="fill: none; stroke: #b0b0b0; stroke-width: 0.8; stroke-linecap: square"/>
     </g>
     <g id="line2d_36">
      <g>
       <use xlink:href="#m91e3e15dbd" x="508.581144" y="354.958125" style="stroke: #000000; stroke-width: 0.8"/>
      </g>
     </g>
     <g id="text_18">
      <!-- 06:00 -->
      <g transform="translate(486.732649 387.708965) rotate(-45) scale(0.1 -0.1)">
       <use xlink:href="#DejaVuSans-30"/>
       <use xlink:href="#DejaVuSans-36" x="63.623047"/>
       <use xlink:href="#DejaVuSans-3a" x="127.246094"/>
       <use xlink:href="#DejaVuSans-30" x="160.9375"/>
       <use xlink:href="#DejaVuSans-30" x="224.560547"/>
      </g>
     </g>
    </g>
    <g id="xtick_19">
     <g id="line2d_37">
      <path d="M 534.020493 354.958125 
L 534.020493 22.318125 
" clip-path="url(#p8c65ba7662)" style="fill: none; stroke: #b0b0b0; stroke-width: 0.8; stroke-linecap: square"/>
     </g>
     <g id="line2d_38">
      <g>
       <use xlink:href="#m91e3e15dbd" x="534.020493" y="354.958125" style="stroke: #000000; stroke-width: 0.8"/>
      </g>
     </g>
     <g id="text_19">
      <!-- 12:00 -->
      <g transform="translate(512.171998 387.708965) rotate(-45) scale(0.1 -0.1)">
       <use xlink:href="#DejaVuSans-31"/>
       <use xlink:href="#DejaVuSans-32" x="63.623047"/>
       <use xlink:href="#DejaVuSans-3a" x="127.246094"/>
       <use xlink:href="#DejaVuSans-30" x="160.9375"/>
       <use xlink:href="#DejaVuSans-30" x="224.560547"/>
      </g>
     </g>
    </g>
    <g id="xtick_20">
     <g id="line2d_39">
      <path d="M 559.459841 354.958125 
L 559.459841 22.318125 
" clip-path="url(#p8c65ba7662)" style="fill: none; stroke: #b0b0b0; stroke-width: 0.8; stroke-linecap: square"/>
     </g>
     <g id="line2d_40">
      <g>
       <use xlink:href="#m91e3e15dbd" x="559.459841" y="354.958125" style="stroke: #000000; stroke-width: 0.8"/>
      </g>
     </g>
     <g id="text_20">
      <!-- 18:00 -->
      <g transform="translate(537.611347 387.708965) rotate(-45) scale(0.1 -0.1)">
       <use xlink:href="#DejaVuSans-31"/>
       <use xlink:href="#DejaVuSans-38" x="63.623047"/>
       <use xlink:href="#DejaVuSans-3a" x="127.246094"/>
       <use xlink:href="#DejaVuSans-30" x="160.9375"/>
       <use xlink:href="#DejaVuSans-30" x="224.560547"/>
      </g>
     </g>
    </g>
    <g id="xtick_21">
     <g id="line2d_41">
      <path d="M 584.89919 354.958125 
L 584.89919 22.318125 
" clip-path="url(#p8c65ba7662)" style="fill: none; stroke: #b0b0b0; stroke-width: 0.8; stroke-linecap: square"/>
     </g>
     <g id="line2d_42">
      <g>
       <use xlink:href="#m91e3e15dbd" x="584.89919" y="354.958125" style="stroke: #000000; stroke-width: 0.8"/>
      </g>
     </g>
     <g id="text_21">
      <!-- Saturday 00:00 -->
      <g transform="translate(528.937213 421.822448) rotate(-45) scale(0.1 -0.1)">
       <defs>
        <path id="DejaVuSans-53" d="M 3425 4513 
L 3425 3897 
Q 3066 4069 2747 4153 
Q 2428 4238 2131 4238 
Q 1616 4238 1336 4038 
Q 1056 3838 1056 3469 
Q 1056 3159 1242 3001 
Q 1428 2844 1947 2747 
L 2328 2669 
Q 3034 2534 3370 2195 
Q 3706 1856 3706 1288 
Q 3706 609 3251 259 
Q 2797 -91 1919 -91 
Q 1588 -91 1214 -16 
Q 841 59 441 206 
L 441 856 
Q 825 641 1194 531 
Q 1563 422 1919 422 
Q 2459 422 2753 634 
Q 3047 847 3047 1241 
Q 3047 1584 2836 1778 
Q 2625 1972 2144 2069 
L 1759 2144 
Q 1053 2284 737 2584 
Q 422 2884 422 3419 
Q 422 4038 858 4394 
Q 1294 4750 2059 4750 
Q 2388 4750 2728 4690 
Q 3069 4631 3425 4513 
z
" transform="scale(0.015625)"/>
        <path id="DejaVuSans-74" d="M 1172 4494 
L 1172 3500 
L 2356 3500 
L 2356 3053 
L 1172 3053 
L 1172 1153 
Q 1172 725 1289 603 
Q 1406 481 1766 481 
L 2356 481 
L 2356 0 
L 1766 0 
Q 1100 0 847 248 
Q 594 497 594 1153 
L 594 3053 
L 172 3053 
L 172 3500 
L 594 3500 
L 594 4494 
L 1172 4494 
z
" transform="scale(0.015625)"/>
       </defs>
       <use xlink:href="#DejaVuSans-53"/>
       <use xlink:href="#DejaVuSans-61" x="63.476562"/>
       <use xlink:href="#DejaVuSans-74" x="124.755859"/>
       <use xlink:href="#DejaVuSans-75" x="163.964844"/>
       <use xlink:href="#DejaVuSans-72" x="227.34375"/>
       <use xlink:href="#DejaVuSans-64" x="266.707031"/>
       <use xlink:href="#DejaVuSans-61" x="330.183594"/>
       <use xlink:href="#DejaVuSans-79" x="391.462891"/>
       <use xlink:href="#DejaVuSans-20" x="450.642578"/>
       <use xlink:href="#DejaVuSans-30" x="482.429688"/>
       <use xlink:href="#DejaVuSans-30" x="546.052734"/>
       <use xlink:href="#DejaVuSans-3a" x="609.675781"/>
       <use xlink:href="#DejaVuSans-30" x="643.367188"/>
       <use xlink:href="#DejaVuSans-30" x="706.990234"/>
      </g>
     </g>
    </g>
    <g id="xtick_22">
     <g id="line2d_43">
      <path d="M 610.338539 354.958125 
L 610.338539 22.318125 
" clip-path="url(#p8c65ba7662)" style="fill: none; stroke: #b0b0b0; stroke-width: 0.8; stroke-linecap: square"/>
     </g>
     <g id="line2d_44">
      <g>
       <use xlink:href="#m91e3e15dbd" x="610.338539" y="354.958125" style="stroke: #000000; stroke-width: 0.8"/>
      </g>
     </g>
     <g id="text_22">
      <!-- 06:00 -->
      <g transform="translate(588.490044 387.708965) rotate(-45) scale(0.1 -0.1)">
       <use xlink:href="#DejaVuSans-30"/>
       <use xlink:href="#DejaVuSans-36" x="63.623047"/>
       <use xlink:href="#DejaVuSans-3a" x="127.246094"/>
       <use xlink:href="#DejaVuSans-30" x="160.9375"/>
       <use xlink:href="#DejaVuSans-30" x="224.560547"/>
      </g>
     </g>
    </g>
    <g id="xtick_23">
     <g id="line2d_45">
      <path d="M 635.777888 354.958125 
L 635.777888 22.318125 
" clip-path="url(#p8c65ba7662)" style="fill: none; stroke: #b0b0b0; stroke-width: 0.8; stroke-linecap: square"/>
     </g>
     <g id="line2d_46">
      <g>
       <use xlink:href="#m91e3e15dbd" x="635.777888" y="354.958125" style="stroke: #000000; stroke-width: 0.8"/>
      </g>
     </g>
     <g id="text_23">
      <!-- 12:00 -->
      <g transform="translate(613.929393 387.708965) rotate(-45) scale(0.1 -0.1)">
       <use xlink:href="#DejaVuSans-31"/>
       <use xlink:href="#DejaVuSans-32" x="63.623047"/>
       <use xlink:href="#DejaVuSans-3a" x="127.246094"/>
       <use xlink:href="#DejaVuSans-30" x="160.9375"/>
       <use xlink:href="#DejaVuSans-30" x="224.560547"/>
      </g>
     </g>
    </g>
    <g id="xtick_24">
     <g id="line2d_47">
      <path d="M 661.217236 354.958125 
L 661.217236 22.318125 
" clip-path="url(#p8c65ba7662)" style="fill: none; stroke: #b0b0b0; stroke-width: 0.8; stroke-linecap: square"/>
     </g>
     <g id="line2d_48">
      <g>
       <use xlink:href="#m91e3e15dbd" x="661.217236" y="354.958125" style="stroke: #000000; stroke-width: 0.8"/>
      </g>
     </g>
     <g id="text_24">
      <!-- 18:00 -->
      <g transform="translate(639.368742 387.708965) rotate(-45) scale(0.1 -0.1)">
       <use xlink:href="#DejaVuSans-31"/>
       <use xlink:href="#DejaVuSans-38" x="63.623047"/>
       <use xlink:href="#DejaVuSans-3a" x="127.246094"/>
       <use xlink:href="#DejaVuSans-30" x="160.9375"/>
       <use xlink:href="#DejaVuSans-30" x="224.560547"/>
      </g>
     </g>
    </g>
    <g id="xtick_25">
     <g id="line2d_49">
      <path d="M 686.656585 354.958125 
L 686.656585 22.318125 
" clip-path="url(#p8c65ba7662)" style="fill: none; stroke: #b0b0b0; stroke-width: 0.8; stroke-linecap: square"/>
     </g>
     <g id="line2d_50">
      <g>
       <use xlink:href="#m91e3e15dbd" x="686.656585" y="354.958125" style="stroke: #000000; stroke-width: 0.8"/>
      </g>
     </g>
     <g id="text_25">
      <!-- Sunday 00:00 -->
      <g transform="translate(636.101765 416.415291) rotate(-45) scale(0.1 -0.1)">
       <use xlink:href="#DejaVuSans-53"/>
       <use xlink:href="#DejaVuSans-75" x="63.476562"/>
       <use xlink:href="#DejaVuSans-6e" x="126.855469"/>
       <use xlink:href="#DejaVuSans-64" x="190.234375"/>
       <use xlink:href="#DejaVuSans-61" x="253.710938"/>
       <use xlink:href="#DejaVuSans-79" x="314.990234"/>
       <use xlink:href="#DejaVuSans-20" x="374.169922"/>
       <use xlink:href="#DejaVuSans-30" x="405.957031"/>
       <use xlink:href="#DejaVuSans-30" x="469.580078"/>
       <use xlink:href="#DejaVuSans-3a" x="533.203125"/>
       <use xlink:href="#DejaVuSans-30" x="566.894531"/>
       <use xlink:href="#DejaVuSans-30" x="630.517578"/>
      </g>
     </g>
    </g>
    <g id="xtick_26">
     <g id="line2d_51">
      <path d="M 712.095934 354.958125 
L 712.095934 22.318125 
" clip-path="url(#p8c65ba7662)" style="fill: none; stroke: #b0b0b0; stroke-width: 0.8; stroke-linecap: square"/>
     </g>
     <g id="line2d_52">
      <g>
       <use xlink:href="#m91e3e15dbd" x="712.095934" y="354.958125" style="stroke: #000000; stroke-width: 0.8"/>
      </g>
     </g>
     <g id="text_26">
      <!-- 06:00 -->
      <g transform="translate(690.247439 387.708965) rotate(-45) scale(0.1 -0.1)">
       <use xlink:href="#DejaVuSans-30"/>
       <use xlink:href="#DejaVuSans-36" x="63.623047"/>
       <use xlink:href="#DejaVuSans-3a" x="127.246094"/>
       <use xlink:href="#DejaVuSans-30" x="160.9375"/>
       <use xlink:href="#DejaVuSans-30" x="224.560547"/>
      </g>
     </g>
    </g>
    <g id="xtick_27">
     <g id="line2d_53">
      <path d="M 737.535282 354.958125 
L 737.535282 22.318125 
" clip-path="url(#p8c65ba7662)" style="fill: none; stroke: #b0b0b0; stroke-width: 0.8; stroke-linecap: square"/>
     </g>
     <g id="line2d_54">
      <g>
       <use xlink:href="#m91e3e15dbd" x="737.535282" y="354.958125" style="stroke: #000000; stroke-width: 0.8"/>
      </g>
     </g>
     <g id="text_27">
      <!-- 12:00 -->
      <g transform="translate(715.686788 387.708965) rotate(-45) scale(0.1 -0.1)">
       <use xlink:href="#DejaVuSans-31"/>
       <use xlink:href="#DejaVuSans-32" x="63.623047"/>
       <use xlink:href="#DejaVuSans-3a" x="127.246094"/>
       <use xlink:href="#DejaVuSans-30" x="160.9375"/>
       <use xlink:href="#DejaVuSans-30" x="224.560547"/>
      </g>
     </g>
    </g>
    <g id="xtick_28">
     <g id="line2d_55">
      <path d="M 762.974631 354.958125 
L 762.974631 22.318125 
" clip-path="url(#p8c65ba7662)" style="fill: none; stroke: #b0b0b0; stroke-width: 0.8; stroke-linecap: square"/>
     </g>
     <g id="line2d_56">
      <g>
       <use xlink:href="#m91e3e15dbd" x="762.974631" y="354.958125" style="stroke: #000000; stroke-width: 0.8"/>
      </g>
     </g>
     <g id="text_28">
      <!-- 18:00 -->
      <g transform="translate(741.126136 387.708965) rotate(-45) scale(0.1 -0.1)">
       <use xlink:href="#DejaVuSans-31"/>
       <use xlink:href="#DejaVuSans-38" x="63.623047"/>
       <use xlink:href="#DejaVuSans-3a" x="127.246094"/>
       <use xlink:href="#DejaVuSans-30" x="160.9375"/>
       <use xlink:href="#DejaVuSans-30" x="224.560547"/>
      </g>
     </g>
    </g>
    <g id="text_29">
     <!-- Time -->
     <g transform="translate(418.969531 443.964511) scale(0.1 -0.1)">
      <defs>
       <path id="DejaVuSans-6d" d="M 3328 2828 
Q 3544 3216 3844 3400 
Q 4144 3584 4550 3584 
Q 5097 3584 5394 3201 
Q 5691 2819 5691 2113 
L 5691 0 
L 5113 0 
L 5113 2094 
Q 5113 2597 4934 2840 
Q 4756 3084 4391 3084 
Q 3944 3084 3684 2787 
Q 3425 2491 3425 1978 
L 3425 0 
L 2847 0 
L 2847 2094 
Q 2847 2600 2669 2842 
Q 2491 3084 2119 3084 
Q 1678 3084 1418 2786 
Q 1159 2488 1159 1978 
L 1159 0 
L 581 0 
L 581 3500 
L 1159 3500 
L 1159 2956 
Q 1356 3278 1631 3431 
Q 1906 3584 2284 3584 
Q 2666 3584 2933 3390 
Q 3200 3197 3328 2828 
z
" transform="scale(0.015625)"/>
      </defs>
      <use xlink:href="#DejaVuSans-54"/>
      <use xlink:href="#DejaVuSans-69" x="57.958984"/>
      <use xlink:href="#DejaVuSans-6d" x="85.742188"/>
      <use xlink:href="#DejaVuSans-65" x="183.154297"/>
     </g>
    </g>
   </g>
   <g id="matplotlib.axis_2">
    <g id="ytick_1">
     <g id="line2d_57">
      <path d="M 40.603125 328.578601 
L 821.803125 328.578601 
" clip-path="url(#p8c65ba7662)" style="fill: none; stroke: #b0b0b0; stroke-width: 0.8; stroke-linecap: square"/>
     </g>
     <g id="line2d_58">
      <defs>
       <path id="me69b328e88" d="M 0 0 
L -3.5 0 
" style="stroke: #000000; stroke-width: 0.8"/>
      </defs>
      <g>
       <use xlink:href="#me69b328e88" x="40.603125" y="328.578601" style="stroke: #000000; stroke-width: 0.8"/>
      </g>
     </g>
     <g id="text_30">
      <!-- 0 -->
      <g transform="translate(27.240625 332.37782) scale(0.1 -0.1)">
       <use xlink:href="#DejaVuSans-30"/>
      </g>
     </g>
    </g>
    <g id="ytick_2">
     <g id="line2d_59">
      <path d="M 40.603125 285.488584 
L 821.803125 285.488584 
" clip-path="url(#p8c65ba7662)" style="fill: none; stroke: #b0b0b0; stroke-width: 0.8; stroke-linecap: square"/>
     </g>
     <g id="line2d_60">
      <g>
       <use xlink:href="#me69b328e88" x="40.603125" y="285.488584" style="stroke: #000000; stroke-width: 0.8"/>
      </g>
     </g>
     <g id="text_31">
      <!-- 2 -->
      <g transform="translate(27.240625 289.287803) scale(0.1 -0.1)">
       <use xlink:href="#DejaVuSans-32"/>
      </g>
     </g>
    </g>
    <g id="ytick_3">
     <g id="line2d_61">
      <path d="M 40.603125 242.398567 
L 821.803125 242.398567 
" clip-path="url(#p8c65ba7662)" style="fill: none; stroke: #b0b0b0; stroke-width: 0.8; stroke-linecap: square"/>
     </g>
     <g id="line2d_62">
      <g>
       <use xlink:href="#me69b328e88" x="40.603125" y="242.398567" style="stroke: #000000; stroke-width: 0.8"/>
      </g>
     </g>
     <g id="text_32">
      <!-- 4 -->
      <g transform="translate(27.240625 246.197786) scale(0.1 -0.1)">
       <defs>
        <path id="DejaVuSans-34" d="M 2419 4116 
L 825 1625 
L 2419 1625 
L 2419 4116 
z
M 2253 4666 
L 3047 4666 
L 3047 1625 
L 3713 1625 
L 3713 1100 
L 3047 1100 
L 3047 0 
L 2419 0 
L 2419 1100 
L 313 1100 
L 313 1709 
L 2253 4666 
z
" transform="scale(0.015625)"/>
       </defs>
       <use xlink:href="#DejaVuSans-34"/>
      </g>
     </g>
    </g>
    <g id="ytick_4">
     <g id="line2d_63">
      <path d="M 40.603125 199.30855 
L 821.803125 199.30855 
" clip-path="url(#p8c65ba7662)" style="fill: none; stroke: #b0b0b0; stroke-width: 0.8; stroke-linecap: square"/>
     </g>
     <g id="line2d_64">
      <g>
       <use xlink:href="#me69b328e88" x="40.603125" y="199.30855" style="stroke: #000000; stroke-width: 0.8"/>
      </g>
     </g>
     <g id="text_33">
      <!-- 6 -->
      <g transform="translate(27.240625 203.107769) scale(0.1 -0.1)">
       <use xlink:href="#DejaVuSans-36"/>
      </g>
     </g>
    </g>
    <g id="ytick_5">
     <g id="line2d_65">
      <path d="M 40.603125 156.218534 
L 821.803125 156.218534 
" clip-path="url(#p8c65ba7662)" style="fill: none; stroke: #b0b0b0; stroke-width: 0.8; stroke-linecap: square"/>
     </g>
     <g id="line2d_66">
      <g>
       <use xlink:href="#me69b328e88" x="40.603125" y="156.218534" style="stroke: #000000; stroke-width: 0.8"/>
      </g>
     </g>
     <g id="text_34">
      <!-- 8 -->
      <g transform="translate(27.240625 160.017752) scale(0.1 -0.1)">
       <use xlink:href="#DejaVuSans-38"/>
      </g>
     </g>
    </g>
    <g id="ytick_6">
     <g id="line2d_67">
      <path d="M 40.603125 113.128517 
L 821.803125 113.128517 
" clip-path="url(#p8c65ba7662)" style="fill: none; stroke: #b0b0b0; stroke-width: 0.8; stroke-linecap: square"/>
     </g>
     <g id="line2d_68">
      <g>
       <use xlink:href="#me69b328e88" x="40.603125" y="113.128517" style="stroke: #000000; stroke-width: 0.8"/>
      </g>
     </g>
     <g id="text_35">
      <!-- 10 -->
      <g transform="translate(20.878125 116.927735) scale(0.1 -0.1)">
       <use xlink:href="#DejaVuSans-31"/>
       <use xlink:href="#DejaVuSans-30" x="63.623047"/>
      </g>
     </g>
    </g>
    <g id="ytick_7">
     <g id="line2d_69">
      <path d="M 40.603125 70.0385 
L 821.803125 70.0385 
" clip-path="url(#p8c65ba7662)" style="fill: none; stroke: #b0b0b0; stroke-width: 0.8; stroke-linecap: square"/>
     </g>
     <g id="line2d_70">
      <g>
       <use xlink:href="#me69b328e88" x="40.603125" y="70.0385" style="stroke: #000000; stroke-width: 0.8"/>
      </g>
     </g>
     <g id="text_36">
      <!-- 12 -->
      <g transform="translate(20.878125 73.837718) scale(0.1 -0.1)">
       <use xlink:href="#DejaVuSans-31"/>
       <use xlink:href="#DejaVuSans-32" x="63.623047"/>
      </g>
     </g>
    </g>
    <g id="ytick_8">
     <g id="line2d_71">
      <path d="M 40.603125 26.948483 
L 821.803125 26.948483 
" clip-path="url(#p8c65ba7662)" style="fill: none; stroke: #b0b0b0; stroke-width: 0.8; stroke-linecap: square"/>
     </g>
     <g id="line2d_72">
      <g>
       <use xlink:href="#me69b328e88" x="40.603125" y="26.948483" style="stroke: #000000; stroke-width: 0.8"/>
      </g>
     </g>
     <g id="text_37">
      <!-- 14 -->
      <g transform="translate(20.878125 30.747701) scale(0.1 -0.1)">
       <use xlink:href="#DejaVuSans-31"/>
       <use xlink:href="#DejaVuSans-34" x="63.623047"/>
      </g>
     </g>
    </g>
    <g id="text_38">
     <!-- Power Usage (Wh/m^2, P1) -->
     <g transform="translate(14.798438 257.823281) rotate(-90) scale(0.1 -0.1)">
      <defs>
       <path id="DejaVuSans-50" d="M 1259 4147 
L 1259 2394 
L 2053 2394 
Q 2494 2394 2734 2622 
Q 2975 2850 2975 3272 
Q 2975 3691 2734 3919 
Q 2494 4147 2053 4147 
L 1259 4147 
z
M 628 4666 
L 2053 4666 
Q 2838 4666 3239 4311 
Q 3641 3956 3641 3272 
Q 3641 2581 3239 2228 
Q 2838 1875 2053 1875 
L 1259 1875 
L 1259 0 
L 628 0 
L 628 4666 
z
" transform="scale(0.015625)"/>
       <path id="DejaVuSans-77" d="M 269 3500 
L 844 3500 
L 1563 769 
L 2278 3500 
L 2956 3500 
L 3675 769 
L 4391 3500 
L 4966 3500 
L 4050 0 
L 3372 0 
L 2619 2869 
L 1863 0 
L 1184 0 
L 269 3500 
z
" transform="scale(0.015625)"/>
       <path id="DejaVuSans-55" d="M 556 4666 
L 1191 4666 
L 1191 1831 
Q 1191 1081 1462 751 
Q 1734 422 2344 422 
Q 2950 422 3222 751 
Q 3494 1081 3494 1831 
L 3494 4666 
L 4128 4666 
L 4128 1753 
Q 4128 841 3676 375 
Q 3225 -91 2344 -91 
Q 1459 -91 1007 375 
Q 556 841 556 1753 
L 556 4666 
z
" transform="scale(0.015625)"/>
       <path id="DejaVuSans-67" d="M 2906 1791 
Q 2906 2416 2648 2759 
Q 2391 3103 1925 3103 
Q 1463 3103 1205 2759 
Q 947 2416 947 1791 
Q 947 1169 1205 825 
Q 1463 481 1925 481 
Q 2391 481 2648 825 
Q 2906 1169 2906 1791 
z
M 3481 434 
Q 3481 -459 3084 -895 
Q 2688 -1331 1869 -1331 
Q 1566 -1331 1297 -1286 
Q 1028 -1241 775 -1147 
L 775 -588 
Q 1028 -725 1275 -790 
Q 1522 -856 1778 -856 
Q 2344 -856 2625 -561 
Q 2906 -266 2906 331 
L 2906 616 
Q 2728 306 2450 153 
Q 2172 0 1784 0 
Q 1141 0 747 490 
Q 353 981 353 1791 
Q 353 2603 747 3093 
Q 1141 3584 1784 3584 
Q 2172 3584 2450 3431 
Q 2728 3278 2906 2969 
L 2906 3500 
L 3481 3500 
L 3481 434 
z
" transform="scale(0.015625)"/>
       <path id="DejaVuSans-28" d="M 1984 4856 
Q 1566 4138 1362 3434 
Q 1159 2731 1159 2009 
Q 1159 1288 1364 580 
Q 1569 -128 1984 -844 
L 1484 -844 
Q 1016 -109 783 600 
Q 550 1309 550 2009 
Q 550 2706 781 3412 
Q 1013 4119 1484 4856 
L 1984 4856 
z
" transform="scale(0.015625)"/>
       <path id="DejaVuSans-2f" d="M 1625 4666 
L 2156 4666 
L 531 -594 
L 0 -594 
L 1625 4666 
z
" transform="scale(0.015625)"/>
       <path id="DejaVuSans-5e" d="M 2988 4666 
L 4684 2925 
L 4056 2925 
L 2681 4159 
L 1306 2925 
L 678 2925 
L 2375 4666 
L 2988 4666 
z
" transform="scale(0.015625)"/>
       <path id="DejaVuSans-2c" d="M 750 794 
L 1409 794 
L 1409 256 
L 897 -744 
L 494 -744 
L 750 256 
L 750 794 
z
" transform="scale(0.015625)"/>
       <path id="DejaVuSans-29" d="M 513 4856 
L 1013 4856 
Q 1481 4119 1714 3412 
Q 1947 2706 1947 2009 
Q 1947 1309 1714 600 
Q 1481 -109 1013 -844 
L 513 -844 
Q 928 -128 1133 580 
Q 1338 1288 1338 2009 
Q 1338 2731 1133 3434 
Q 928 4138 513 4856 
z
" transform="scale(0.015625)"/>
      </defs>
      <use xlink:href="#DejaVuSans-50"/>
      <use xlink:href="#DejaVuSans-6f" x="56.677734"/>
      <use xlink:href="#DejaVuSans-77" x="117.859375"/>
      <use xlink:href="#DejaVuSans-65" x="199.646484"/>
      <use xlink:href="#DejaVuSans-72" x="261.169922"/>
      <use xlink:href="#DejaVuSans-20" x="302.283203"/>
      <use xlink:href="#DejaVuSans-55" x="334.070312"/>
      <use xlink:href="#DejaVuSans-73" x="407.263672"/>
      <use xlink:href="#DejaVuSans-61" x="459.363281"/>
      <use xlink:href="#DejaVuSans-67" x="520.642578"/>
      <use xlink:href="#DejaVuSans-65" x="584.119141"/>
      <use xlink:href="#DejaVuSans-20" x="645.642578"/>
      <use xlink:href="#DejaVuSans-28" x="677.429688"/>
      <use xlink:href="#DejaVuSans-57" x="716.443359"/>
      <use xlink:href="#DejaVuSans-68" x="815.320312"/>
      <use xlink:href="#DejaVuSans-2f" x="878.699219"/>
      <use xlink:href="#DejaVuSans-6d" x="912.390625"/>
      <use xlink:href="#DejaVuSans-5e" x="1009.802734"/>
      <use xlink:href="#DejaVuSans-32" x="1093.591797"/>
      <use xlink:href="#DejaVuSans-2c" x="1157.214844"/>
      <use xlink:href="#DejaVuSans-20" x="1189.001953"/>
      <use xlink:href="#DejaVuSans-50" x="1220.789062"/>
      <use xlink:href="#DejaVuSans-31" x="1281.091797"/>
      <use xlink:href="#DejaVuSans-29" x="1344.714844"/>
     </g>
    </g>
   </g>
   <g id="line2d_73">
    <path d="M 76.112216 270.875104 
L 78.232162 272.789231 
L 80.352107 272.291211 
L 82.472053 271.470917 
L 84.591999 273.536505 
L 86.711945 272.186406 
L 88.83189 271.825114 
L 90.951836 273.365869 
L 93.071782 271.039774 
L 95.191727 273.573067 
L 97.311673 273.061719 
L 99.431619 272.040504 
L 101.551565 272.869019 
L 103.67151 268.853377 
L 105.791456 268.137826 
L 107.911402 264.566581 
L 110.031348 254.257388 
L 112.151293 245.450819 
L 114.271239 204.345496 
L 116.391185 151.629551 
L 118.51113 140.189775 
L 120.631076 137.062408 
L 126.990913 134.114175 
L 129.110859 134.129406 
L 131.230805 133.545301 
L 133.350751 136.34086 
L 135.470696 135.755913 
L 137.590642 135.404496 
L 139.710588 135.777854 
L 141.830533 139.761921 
L 143.950479 139.164706 
L 146.070425 140.871728 
L 148.190371 144.223394 
L 150.310316 149.194229 
L 152.430262 153.86186 
L 154.550208 170.862655 
L 156.670153 181.638668 
L 158.790099 228.124064 
L 160.910045 255.587 
L 165.149936 262.18738 
L 169.389828 270.06071 
L 171.509774 270.675529 
L 173.629719 270.103783 
L 175.749665 273.041433 
L 177.869611 271.480753 
L 179.989556 273.033216 
L 182.109502 270.047233 
L 184.229448 269.593873 
L 186.349394 270.699177 
L 188.469339 272.095865 
L 190.589285 270.90655 
L 192.709231 273.089757 
L 194.829177 272.217473 
L 196.949122 272.188967 
L 199.069068 272.785403 
L 201.189014 272.236387 
L 203.308959 271.935773 
L 205.428905 268.767503 
L 209.668797 264.245963 
L 211.788742 255.342679 
L 213.908688 242.761217 
L 216.028634 208.537918 
L 218.14858 154.005976 
L 220.268525 139.016539 
L 222.388471 135.071536 
L 224.508417 133.223839 
L 226.628362 133.089314 
L 228.748308 132.406712 
L 230.868254 131.263239 
L 232.9882 131.252957 
L 235.108145 134.419089 
L 237.228091 132.213622 
L 239.348037 131.725195 
L 241.467983 132.75268 
L 243.587928 134.729184 
L 245.707874 134.592974 
L 247.82782 138.844878 
L 249.947765 139.341332 
L 252.067711 142.310985 
L 254.187657 146.937612 
L 256.307603 165.717204 
L 258.427548 176.033099 
L 260.547494 225.791031 
L 262.66744 256.750851 
L 264.787386 258.609359 
L 266.907331 261.855003 
L 269.027277 267.750153 
L 271.147223 269.993458 
L 273.267168 271.434766 
L 275.387114 271.822398 
L 277.50706 272.706671 
L 279.627006 272.909864 
L 281.746951 272.706751 
L 283.866897 272.855868 
L 285.986843 274.263963 
L 288.106789 272.572528 
L 290.226734 274.039315 
L 292.34668 270.633801 
L 294.466626 272.249491 
L 296.586571 271.75132 
L 298.706517 272.928342 
L 300.826463 273.687156 
L 302.946409 273.598274 
L 305.066354 271.901134 
L 307.1863 269.041553 
L 309.306246 267.794325 
L 311.426191 263.804787 
L 313.546137 256.340237 
L 315.666083 240.706552 
L 319.905974 154.004645 
L 322.02592 139.217609 
L 324.145866 135.178851 
L 326.265812 132.586906 
L 328.385757 133.694517 
L 330.505703 131.860125 
L 332.625649 131.642863 
L 334.745594 131.674535 
L 336.86554 133.352081 
L 338.985486 132.614337 
L 341.105432 132.552975 
L 343.225377 132.066709 
L 345.345323 135.432474 
L 347.465269 134.164361 
L 349.585215 135.85807 
L 351.70516 139.230647 
L 353.825106 143.631082 
L 355.945052 148.5897 
L 358.064997 172.763427 
L 360.184943 174.503238 
L 362.304889 224.038969 
L 364.424835 252.061316 
L 368.664726 261.782281 
L 370.784672 264.843383 
L 372.904618 267.285292 
L 375.024563 270.984821 
L 377.144509 268.539873 
L 379.264455 272.586953 
L 381.3844 271.157542 
L 383.504346 271.019257 
L 385.624292 273.197841 
L 389.864183 271.051096 
L 391.984129 273.244318 
L 394.104075 271.182059 
L 396.224021 272.626351 
L 398.343966 272.392957 
L 400.463912 270.831468 
L 402.583858 273.678568 
L 406.823749 270.570303 
L 408.943695 270.420275 
L 411.063641 265.830239 
L 413.183586 262.025147 
L 415.303532 254.572995 
L 417.423478 243.356591 
L 419.543424 202.306363 
L 421.663369 153.640437 
L 423.783315 140.824759 
L 425.903261 134.493975 
L 428.023206 133.543727 
L 430.143152 135.155499 
L 432.263098 131.845264 
L 434.383044 132.41153 
L 436.502989 131.591244 
L 438.622935 132.729562 
L 440.742881 132.295885 
L 442.862826 131.351551 
L 444.982772 131.29368 
L 447.102718 135.379715 
L 449.222664 135.032324 
L 451.342609 133.827549 
L 455.582501 143.987864 
L 457.702447 146.79475 
L 459.822392 165.461651 
L 461.942338 173.568738 
L 464.062284 224.40806 
L 466.182229 253.550149 
L 468.302175 257.931572 
L 470.422121 261.837398 
L 472.542067 266.557067 
L 474.662012 267.935315 
L 476.781958 270.410823 
L 481.02185 272.154514 
L 483.141795 271.976783 
L 485.261741 271.512172 
L 487.381687 272.39281 
L 489.501632 272.717667 
L 491.621578 272.15938 
L 493.741524 273.207813 
L 495.86147 272.246586 
L 497.981415 272.45367 
L 502.221307 272.49385 
L 504.341253 271.62996 
L 506.461198 271.654256 
L 508.581144 269.802433 
L 510.70109 269.460517 
L 512.821035 266.44592 
L 514.940981 262.636968 
L 517.060927 254.842591 
L 519.180873 240.281514 
L 521.300818 200.621215 
L 523.420764 151.927554 
L 525.54071 139.396705 
L 529.780601 134.192933 
L 531.900547 134.497569 
L 534.020493 133.475196 
L 536.140438 138.340776 
L 538.260384 132.496086 
L 542.500276 129.966474 
L 544.620221 133.609481 
L 546.740167 133.075704 
L 548.860113 135.561248 
L 550.980059 134.077209 
L 553.100004 134.11725 
L 555.21995 135.663049 
L 559.459841 143.231758 
L 561.579787 163.39847 
L 563.699733 173.714552 
L 565.819679 203.089824 
L 567.939624 218.810579 
L 570.05957 229.565634 
L 574.299461 262.224723 
L 576.419407 267.270542 
L 578.539353 269.614921 
L 580.659299 269.759943 
L 582.779244 272.224836 
L 584.89919 271.223135 
L 587.019136 271.56451 
L 589.139082 272.886836 
L 591.259027 271.864875 
L 593.378973 272.395715 
L 595.498919 272.470485 
L 597.618864 271.227825 
L 599.73881 272.336844 
L 601.858756 270.168357 
L 606.098647 272.735507 
L 608.218593 271.957844 
L 610.338539 270.706709 
L 612.458485 268.422124 
L 614.57843 266.974614 
L 616.698376 263.078884 
L 618.818322 255.928552 
L 620.938267 247.425573 
L 623.058213 202.176139 
L 625.178159 153.959504 
L 627.298105 143.906747 
L 629.41805 136.947321 
L 631.537996 136.098704 
L 633.657942 135.907625 
L 635.777888 134.104257 
L 637.897833 134.425015 
L 640.017779 134.411571 
L 642.137725 135.347765 
L 644.25767 135.059454 
L 646.377616 136.728491 
L 648.497562 134.13074 
L 650.617508 134.739138 
L 652.737453 138.497422 
L 654.857399 141.964128 
L 656.977345 146.624193 
L 659.097291 154.553251 
L 661.217236 156.037217 
L 663.337182 170.219332 
L 665.457128 175.752658 
L 667.577073 208.73636 
L 669.697019 226.31891 
L 671.816965 236.618486 
L 676.056856 265.06279 
L 678.176802 265.983182 
L 680.296748 268.973963 
L 682.416694 270.707662 
L 684.536639 271.686831 
L 686.656585 270.929664 
L 688.776531 271.032513 
L 690.896476 271.971537 
L 693.016422 272.451481 
L 695.136368 271.442942 
L 697.256314 271.169669 
L 699.376259 272.823378 
L 701.496205 271.762341 
L 703.616151 271.530739 
L 705.736097 271.621081 
L 707.856042 272.194522 
L 709.975988 272.419612 
L 712.095934 271.237273 
L 714.215879 269.631152 
L 716.335825 268.346954 
L 718.455771 264.244746 
L 720.575717 259.241211 
L 722.695662 250.041574 
L 724.815608 209.99911 
L 726.935554 153.368217 
L 729.055499 143.461159 
L 733.295391 140.950201 
L 735.415337 138.853104 
L 741.775174 139.838354 
L 743.89512 143.498627 
L 746.015065 146.021231 
L 748.135011 146.766309 
L 750.254957 152.24658 
L 752.374902 168.746124 
L 754.494848 174.068564 
L 756.614794 175.540906 
L 758.73474 176.740626 
L 760.854685 190.936034 
L 762.974631 198.525341 
L 765.094577 227.960764 
L 767.214523 253.702745 
L 769.334468 259.236267 
L 771.454414 260.203698 
L 773.57436 263.5208 
L 775.694305 264.370278 
L 779.934197 270.336698 
L 782.054143 269.794903 
L 784.174088 271.235147 
L 786.294034 272.241229 
L 786.294034 272.241229 
" clip-path="url(#p8c65ba7662)" style="fill: none; stroke: #ff0000; stroke-opacity: 0.4; stroke-width: 1.5; stroke-linecap: square"/>
   </g>
   <g id="line2d_74">
    <path d="M 76.112216 328.578601 
L 786.294034 328.578601 
L 786.294034 328.578601 
" clip-path="url(#p8c65ba7662)" style="fill: none; stroke: #0000ff; stroke-width: 1.5; stroke-linecap: square"/>
   </g>
   <g id="patch_11">
    <path d="M 40.603125 354.958125 
L 40.603125 22.318125 
" style="fill: none; stroke: #000000; stroke-width: 0.8; stroke-linejoin: miter; stroke-linecap: square"/>
   </g>
   <g id="patch_12">
    <path d="M 821.803125 354.958125 
L 821.803125 22.318125 
" style="fill: none; stroke: #000000; stroke-width: 0.8; stroke-linejoin: miter; stroke-linecap: square"/>
   </g>
   <g id="patch_13">
    <path d="M 40.603125 354.958125 
L 821.803125 354.958125 
" style="fill: none; stroke: #000000; stroke-width: 0.8; stroke-linejoin: miter; stroke-linecap: square"/>
   </g>
   <g id="patch_14">
    <path d="M 40.603125 22.318125 
L 821.803125 22.318125 
" style="fill: none; stroke: #000000; stroke-width: 0.8; stroke-linejoin: miter; stroke-linecap: square"/>
   </g>
   <g id="text_39">
    <!-- benchmarkdata for "Fashion: Men's Wear" Market sector using 75 sampled meters, constructed with 1,805,883 samples -->
    <g transform="translate(70.17375 16.318125) scale(0.12 -0.12)">
     <defs>
      <path id="DejaVuSans-62" d="M 3116 1747 
Q 3116 2381 2855 2742 
Q 2594 3103 2138 3103 
Q 1681 3103 1420 2742 
Q 1159 2381 1159 1747 
Q 1159 1113 1420 752 
Q 1681 391 2138 391 
Q 2594 391 2855 752 
Q 3116 1113 3116 1747 
z
M 1159 2969 
Q 1341 3281 1617 3432 
Q 1894 3584 2278 3584 
Q 2916 3584 3314 3078 
Q 3713 2572 3713 1747 
Q 3713 922 3314 415 
Q 2916 -91 2278 -91 
Q 1894 -91 1617 61 
Q 1341 213 1159 525 
L 1159 0 
L 581 0 
L 581 4863 
L 1159 4863 
L 1159 2969 
z
" transform="scale(0.015625)"/>
      <path id="DejaVuSans-63" d="M 3122 3366 
L 3122 2828 
Q 2878 2963 2633 3030 
Q 2388 3097 2138 3097 
Q 1578 3097 1268 2742 
Q 959 2388 959 1747 
Q 959 1106 1268 751 
Q 1578 397 2138 397 
Q 2388 397 2633 464 
Q 2878 531 3122 666 
L 3122 134 
Q 2881 22 2623 -34 
Q 2366 -91 2075 -91 
Q 1284 -91 818 406 
Q 353 903 353 1747 
Q 353 2603 823 3093 
Q 1294 3584 2113 3584 
Q 2378 3584 2631 3529 
Q 2884 3475 3122 3366 
z
" transform="scale(0.015625)"/>
      <path id="DejaVuSans-6b" d="M 581 4863 
L 1159 4863 
L 1159 1991 
L 2875 3500 
L 3609 3500 
L 1753 1863 
L 3688 0 
L 2938 0 
L 1159 1709 
L 1159 0 
L 581 0 
L 581 4863 
z
" transform="scale(0.015625)"/>
      <path id="DejaVuSans-66" d="M 2375 4863 
L 2375 4384 
L 1825 4384 
Q 1516 4384 1395 4259 
Q 1275 4134 1275 3809 
L 1275 3500 
L 2222 3500 
L 2222 3053 
L 1275 3053 
L 1275 0 
L 697 0 
L 697 3053 
L 147 3053 
L 147 3500 
L 697 3500 
L 697 3744 
Q 697 4328 969 4595 
Q 1241 4863 1831 4863 
L 2375 4863 
z
" transform="scale(0.015625)"/>
      <path id="DejaVuSans-22" d="M 1147 4666 
L 1147 2931 
L 616 2931 
L 616 4666 
L 1147 4666 
z
M 2328 4666 
L 2328 2931 
L 1797 2931 
L 1797 4666 
L 2328 4666 
z
" transform="scale(0.015625)"/>
      <path id="DejaVuSans-27" d="M 1147 4666 
L 1147 2931 
L 616 2931 
L 616 4666 
L 1147 4666 
z
" transform="scale(0.015625)"/>
      <path id="DejaVuSans-37" d="M 525 4666 
L 3525 4666 
L 3525 4397 
L 1831 0 
L 1172 0 
L 2766 4134 
L 525 4134 
L 525 4666 
z
" transform="scale(0.015625)"/>
      <path id="DejaVuSans-35" d="M 691 4666 
L 3169 4666 
L 3169 4134 
L 1269 4134 
L 1269 2991 
Q 1406 3038 1543 3061 
Q 1681 3084 1819 3084 
Q 2600 3084 3056 2656 
Q 3513 2228 3513 1497 
Q 3513 744 3044 326 
Q 2575 -91 1722 -91 
Q 1428 -91 1123 -41 
Q 819 9 494 109 
L 494 744 
Q 775 591 1075 516 
Q 1375 441 1709 441 
Q 2250 441 2565 725 
Q 2881 1009 2881 1497 
Q 2881 1984 2565 2268 
Q 2250 2553 1709 2553 
Q 1456 2553 1204 2497 
Q 953 2441 691 2322 
L 691 4666 
z
" transform="scale(0.015625)"/>
      <path id="DejaVuSans-70" d="M 1159 525 
L 1159 -1331 
L 581 -1331 
L 581 3500 
L 1159 3500 
L 1159 2969 
Q 1341 3281 1617 3432 
Q 1894 3584 2278 3584 
Q 2916 3584 3314 3078 
Q 3713 2572 3713 1747 
Q 3713 922 3314 415 
Q 2916 -91 2278 -91 
Q 1894 -91 1617 61 
Q 1341 213 1159 525 
z
M 3116 1747 
Q 3116 2381 2855 2742 
Q 2594 3103 2138 3103 
Q 1681 3103 1420 2742 
Q 1159 2381 1159 1747 
Q 1159 1113 1420 752 
Q 1681 391 2138 391 
Q 2594 391 2855 752 
Q 3116 1113 3116 1747 
z
" transform="scale(0.015625)"/>
      <path id="DejaVuSans-6c" d="M 603 4863 
L 1178 4863 
L 1178 0 
L 603 0 
L 603 4863 
z
" transform="scale(0.015625)"/>
      <path id="DejaVuSans-33" d="M 2597 2516 
Q 3050 2419 3304 2112 
Q 3559 1806 3559 1356 
Q 3559 666 3084 287 
Q 2609 -91 1734 -91 
Q 1441 -91 1130 -33 
Q 819 25 488 141 
L 488 750 
Q 750 597 1062 519 
Q 1375 441 1716 441 
Q 2309 441 2620 675 
Q 2931 909 2931 1356 
Q 2931 1769 2642 2001 
Q 2353 2234 1838 2234 
L 1294 2234 
L 1294 2753 
L 1863 2753 
Q 2328 2753 2575 2939 
Q 2822 3125 2822 3475 
Q 2822 3834 2567 4026 
Q 2313 4219 1838 4219 
Q 1578 4219 1281 4162 
Q 984 4106 628 3988 
L 628 4550 
Q 988 4650 1302 4700 
Q 1616 4750 1894 4750 
Q 2613 4750 3031 4423 
Q 3450 4097 3450 3541 
Q 3450 3153 3228 2886 
Q 3006 2619 2597 2516 
z
" transform="scale(0.015625)"/>
     </defs>
     <use xlink:href="#DejaVuSans-62"/>
     <use xlink:href="#DejaVuSans-65" x="63.476562"/>
     <use xlink:href="#DejaVuSans-6e" x="125"/>
     <use xlink:href="#DejaVuSans-63" x="188.378906"/>
     <use xlink:href="#DejaVuSans-68" x="243.359375"/>
     <use xlink:href="#DejaVuSans-6d" x="306.738281"/>
     <use xlink:href="#DejaVuSans-61" x="404.150391"/>
     <use xlink:href="#DejaVuSans-72" x="465.429688"/>
     <use xlink:href="#DejaVuSans-6b" x="506.542969"/>
     <use xlink:href="#DejaVuSans-64" x="564.453125"/>
     <use xlink:href="#DejaVuSans-61" x="627.929688"/>
     <use xlink:href="#DejaVuSans-74" x="689.208984"/>
     <use xlink:href="#DejaVuSans-61" x="728.417969"/>
     <use xlink:href="#DejaVuSans-20" x="789.697266"/>
     <use xlink:href="#DejaVuSans-66" x="821.484375"/>
     <use xlink:href="#DejaVuSans-6f" x="856.689453"/>
     <use xlink:href="#DejaVuSans-72" x="917.871094"/>
     <use xlink:href="#DejaVuSans-20" x="958.984375"/>
     <use xlink:href="#DejaVuSans-22" x="990.771484"/>
     <use xlink:href="#DejaVuSans-46" x="1036.767578"/>
     <use xlink:href="#DejaVuSans-61" x="1085.162109"/>
     <use xlink:href="#DejaVuSans-73" x="1146.441406"/>
     <use xlink:href="#DejaVuSans-68" x="1198.541016"/>
     <use xlink:href="#DejaVuSans-69" x="1261.919922"/>
     <use xlink:href="#DejaVuSans-6f" x="1289.703125"/>
     <use xlink:href="#DejaVuSans-6e" x="1350.884766"/>
     <use xlink:href="#DejaVuSans-3a" x="1414.263672"/>
     <use xlink:href="#DejaVuSans-20" x="1447.955078"/>
     <use xlink:href="#DejaVuSans-4d" x="1479.742188"/>
     <use xlink:href="#DejaVuSans-65" x="1566.021484"/>
     <use xlink:href="#DejaVuSans-6e" x="1627.544922"/>
     <use xlink:href="#DejaVuSans-27" x="1690.923828"/>
     <use xlink:href="#DejaVuSans-73" x="1718.414062"/>
     <use xlink:href="#DejaVuSans-20" x="1770.513672"/>
     <use xlink:href="#DejaVuSans-57" x="1802.300781"/>
     <use xlink:href="#DejaVuSans-65" x="1895.302734"/>
     <use xlink:href="#DejaVuSans-61" x="1956.826172"/>
     <use xlink:href="#DejaVuSans-72" x="2018.105469"/>
     <use xlink:href="#DejaVuSans-22" x="2059.21875"/>
     <use xlink:href="#DejaVuSans-20" x="2105.214844"/>
     <use xlink:href="#DejaVuSans-4d" x="2137.001953"/>
     <use xlink:href="#DejaVuSans-61" x="2223.28125"/>
     <use xlink:href="#DejaVuSans-72" x="2284.560547"/>
     <use xlink:href="#DejaVuSans-6b" x="2325.673828"/>
     <use xlink:href="#DejaVuSans-65" x="2379.958984"/>
     <use xlink:href="#DejaVuSans-74" x="2441.482422"/>
     <use xlink:href="#DejaVuSans-20" x="2480.691406"/>
     <use xlink:href="#DejaVuSans-73" x="2512.478516"/>
     <use xlink:href="#DejaVuSans-65" x="2564.578125"/>
     <use xlink:href="#DejaVuSans-63" x="2626.101562"/>
     <use xlink:href="#DejaVuSans-74" x="2681.082031"/>
     <use xlink:href="#DejaVuSans-6f" x="2720.291016"/>
     <use xlink:href="#DejaVuSans-72" x="2781.472656"/>
     <use xlink:href="#DejaVuSans-20" x="2822.585938"/>
     <use xlink:href="#DejaVuSans-75" x="2854.373047"/>
     <use xlink:href="#DejaVuSans-73" x="2917.751953"/>
     <use xlink:href="#DejaVuSans-69" x="2969.851562"/>
     <use xlink:href="#DejaVuSans-6e" x="2997.634766"/>
     <use xlink:href="#DejaVuSans-67" x="3061.013672"/>
     <use xlink:href="#DejaVuSans-20" x="3124.490234"/>
     <use xlink:href="#DejaVuSans-37" x="3156.277344"/>
     <use xlink:href="#DejaVuSans-35" x="3219.900391"/>
     <use xlink:href="#DejaVuSans-20" x="3283.523438"/>
     <use xlink:href="#DejaVuSans-73" x="3315.310547"/>
     <use xlink:href="#DejaVuSans-61" x="3367.410156"/>
     <use xlink:href="#DejaVuSans-6d" x="3428.689453"/>
     <use xlink:href="#DejaVuSans-70" x="3526.101562"/>
     <use xlink:href="#DejaVuSans-6c" x="3589.578125"/>
     <use xlink:href="#DejaVuSans-65" x="3617.361328"/>
     <use xlink:href="#DejaVuSans-64" x="3678.884766"/>
     <use xlink:href="#DejaVuSans-20" x="3742.361328"/>
     <use xlink:href="#DejaVuSans-6d" x="3774.148438"/>
     <use xlink:href="#DejaVuSans-65" x="3871.560547"/>
     <use xlink:href="#DejaVuSans-74" x="3933.083984"/>
     <use xlink:href="#DejaVuSans-65" x="3972.292969"/>
     <use xlink:href="#DejaVuSans-72" x="4033.816406"/>
     <use xlink:href="#DejaVuSans-73" x="4074.929688"/>
     <use xlink:href="#DejaVuSans-2c" x="4127.029297"/>
     <use xlink:href="#DejaVuSans-20" x="4158.816406"/>
     <use xlink:href="#DejaVuSans-63" x="4190.603516"/>
     <use xlink:href="#DejaVuSans-6f" x="4245.583984"/>
     <use xlink:href="#DejaVuSans-6e" x="4306.765625"/>
     <use xlink:href="#DejaVuSans-73" x="4370.144531"/>
     <use xlink:href="#DejaVuSans-74" x="4422.244141"/>
     <use xlink:href="#DejaVuSans-72" x="4461.453125"/>
     <use xlink:href="#DejaVuSans-75" x="4502.566406"/>
     <use xlink:href="#DejaVuSans-63" x="4565.945312"/>
     <use xlink:href="#DejaVuSans-74" x="4620.925781"/>
     <use xlink:href="#DejaVuSans-65" x="4660.134766"/>
     <use xlink:href="#DejaVuSans-64" x="4721.658203"/>
     <use xlink:href="#DejaVuSans-20" x="4785.134766"/>
     <use xlink:href="#DejaVuSans-77" x="4816.921875"/>
     <use xlink:href="#DejaVuSans-69" x="4898.708984"/>
     <use xlink:href="#DejaVuSans-74" x="4926.492188"/>
     <use xlink:href="#DejaVuSans-68" x="4965.701172"/>
     <use xlink:href="#DejaVuSans-20" x="5029.080078"/>
     <use xlink:href="#DejaVuSans-31" x="5060.867188"/>
     <use xlink:href="#DejaVuSans-2c" x="5124.490234"/>
     <use xlink:href="#DejaVuSans-38" x="5156.277344"/>
     <use xlink:href="#DejaVuSans-30" x="5219.900391"/>
     <use xlink:href="#DejaVuSans-35" x="5283.523438"/>
     <use xlink:href="#DejaVuSans-2c" x="5347.146484"/>
     <use xlink:href="#DejaVuSans-38" x="5378.933594"/>
     <use xlink:href="#DejaVuSans-38" x="5442.556641"/>
     <use xlink:href="#DejaVuSans-33" x="5506.179688"/>
     <use xlink:href="#DejaVuSans-20" x="5569.802734"/>
     <use xlink:href="#DejaVuSans-73" x="5601.589844"/>
     <use xlink:href="#DejaVuSans-61" x="5653.689453"/>
     <use xlink:href="#DejaVuSans-6d" x="5714.96875"/>
     <use xlink:href="#DejaVuSans-70" x="5812.380859"/>
     <use xlink:href="#DejaVuSans-6c" x="5875.857422"/>
     <use xlink:href="#DejaVuSans-65" x="5903.640625"/>
     <use xlink:href="#DejaVuSans-73" x="5965.164062"/>
    </g>
   </g>
   <g id="legend_1">
    <g id="patch_15">
     <path d="M 649.840625 85.550313 
L 814.803125 85.550313 
Q 816.803125 85.550313 816.803125 83.550313 
L 816.803125 29.318125 
Q 816.803125 27.318125 814.803125 27.318125 
L 649.840625 27.318125 
Q 647.840625 27.318125 647.840625 29.318125 
L 647.840625 83.550313 
Q 647.840625 85.550313 649.840625 85.550313 
z
" style="fill: #ffffff; opacity: 0.8; stroke: #cccccc; stroke-linejoin: miter"/>
    </g>
    <g id="line2d_75">
     <path d="M 651.840625 35.416562 
L 661.840625 35.416562 
L 671.840625 35.416562 
" style="fill: none; stroke: #ff0000; stroke-opacity: 0.4; stroke-width: 1.5; stroke-linecap: square"/>
    </g>
    <g id="text_40">
     <!-- Mean: 5.333 -->
     <g transform="translate(679.840625 38.916562) scale(0.1 -0.1)">
      <defs>
       <path id="DejaVuSans-2e" d="M 684 794 
L 1344 794 
L 1344 0 
L 684 0 
L 684 794 
z
" transform="scale(0.015625)"/>
      </defs>
      <use xlink:href="#DejaVuSans-4d"/>
      <use xlink:href="#DejaVuSans-65" x="86.279297"/>
      <use xlink:href="#DejaVuSans-61" x="147.802734"/>
      <use xlink:href="#DejaVuSans-6e" x="209.082031"/>
      <use xlink:href="#DejaVuSans-3a" x="272.460938"/>
      <use xlink:href="#DejaVuSans-20" x="306.152344"/>
      <use xlink:href="#DejaVuSans-35" x="337.939453"/>
      <use xlink:href="#DejaVuSans-2e" x="401.5625"/>
      <use xlink:href="#DejaVuSans-33" x="433.349609"/>
      <use xlink:href="#DejaVuSans-33" x="496.972656"/>
      <use xlink:href="#DejaVuSans-33" x="560.595703"/>
     </g>
    </g>
    <g id="patch_16">
     <path d="M 651.840625 53.594688 
L 671.840625 53.594688 
L 671.840625 46.594688 
L 651.840625 46.594688 
z
" style="fill: #ff0000; fill-opacity: 0.2; stroke: #ff0000; stroke-opacity: 0.2; stroke-linejoin: miter"/>
    </g>
    <g id="text_41">
     <!-- Std Dev: 3.716 -->
     <g transform="translate(679.840625 53.594688) scale(0.1 -0.1)">
      <defs>
       <path id="DejaVuSans-44" d="M 1259 4147 
L 1259 519 
L 2022 519 
Q 2988 519 3436 956 
Q 3884 1394 3884 2338 
Q 3884 3275 3436 3711 
Q 2988 4147 2022 4147 
L 1259 4147 
z
M 628 4666 
L 1925 4666 
Q 3281 4666 3915 4102 
Q 4550 3538 4550 2338 
Q 4550 1131 3912 565 
Q 3275 0 1925 0 
L 628 0 
L 628 4666 
z
" transform="scale(0.015625)"/>
       <path id="DejaVuSans-76" d="M 191 3500 
L 800 3500 
L 1894 563 
L 2988 3500 
L 3597 3500 
L 2284 0 
L 1503 0 
L 191 3500 
z
" transform="scale(0.015625)"/>
      </defs>
      <use xlink:href="#DejaVuSans-53"/>
      <use xlink:href="#DejaVuSans-74" x="63.476562"/>
      <use xlink:href="#DejaVuSans-64" x="102.685547"/>
      <use xlink:href="#DejaVuSans-20" x="166.162109"/>
      <use xlink:href="#DejaVuSans-44" x="197.949219"/>
      <use xlink:href="#DejaVuSans-65" x="274.951172"/>
      <use xlink:href="#DejaVuSans-76" x="336.474609"/>
      <use xlink:href="#DejaVuSans-3a" x="390.154297"/>
      <use xlink:href="#DejaVuSans-20" x="423.845703"/>
      <use xlink:href="#DejaVuSans-33" x="455.632812"/>
      <use xlink:href="#DejaVuSans-2e" x="519.255859"/>
      <use xlink:href="#DejaVuSans-37" x="551.042969"/>
      <use xlink:href="#DejaVuSans-31" x="614.666016"/>
      <use xlink:href="#DejaVuSans-36" x="678.289062"/>
     </g>
    </g>
    <g id="line2d_76">
     <path d="M 651.840625 71.411563 
L 661.840625 71.411563 
L 671.840625 71.411563 
" style="fill: none; stroke: #0000ff; stroke-width: 1.5; stroke-linecap: square"/>
    </g>
    <g id="text_42">
     <!-- Performance Comparison:  -->
     <g transform="translate(679.840625 68.272812) scale(0.1 -0.1)">
      <defs>
       <path id="DejaVuSans-43" d="M 4122 4306 
L 4122 3641 
Q 3803 3938 3442 4084 
Q 3081 4231 2675 4231 
Q 1875 4231 1450 3742 
Q 1025 3253 1025 2328 
Q 1025 1406 1450 917 
Q 1875 428 2675 428 
Q 3081 428 3442 575 
Q 3803 722 4122 1019 
L 4122 359 
Q 3791 134 3420 21 
Q 3050 -91 2638 -91 
Q 1578 -91 968 557 
Q 359 1206 359 2328 
Q 359 3453 968 4101 
Q 1578 4750 2638 4750 
Q 3056 4750 3426 4639 
Q 3797 4528 4122 4306 
z
" transform="scale(0.015625)"/>
      </defs>
      <use xlink:href="#DejaVuSans-50"/>
      <use xlink:href="#DejaVuSans-65" x="56.677734"/>
      <use xlink:href="#DejaVuSans-72" x="118.201172"/>
      <use xlink:href="#DejaVuSans-66" x="159.314453"/>
      <use xlink:href="#DejaVuSans-6f" x="194.519531"/>
      <use xlink:href="#DejaVuSans-72" x="255.701172"/>
      <use xlink:href="#DejaVuSans-6d" x="295.064453"/>
      <use xlink:href="#DejaVuSans-61" x="392.476562"/>
      <use xlink:href="#DejaVuSans-6e" x="453.755859"/>
      <use xlink:href="#DejaVuSans-63" x="517.134766"/>
      <use xlink:href="#DejaVuSans-65" x="572.115234"/>
      <use xlink:href="#DejaVuSans-20" x="633.638672"/>
      <use xlink:href="#DejaVuSans-43" x="665.425781"/>
      <use xlink:href="#DejaVuSans-6f" x="735.25"/>
      <use xlink:href="#DejaVuSans-6d" x="796.431641"/>
      <use xlink:href="#DejaVuSans-70" x="893.84375"/>
      <use xlink:href="#DejaVuSans-61" x="957.320312"/>
      <use xlink:href="#DejaVuSans-72" x="1018.599609"/>
      <use xlink:href="#DejaVuSans-69" x="1059.712891"/>
      <use xlink:href="#DejaVuSans-73" x="1087.496094"/>
      <use xlink:href="#DejaVuSans-6f" x="1139.595703"/>
      <use xlink:href="#DejaVuSans-6e" x="1200.777344"/>
      <use xlink:href="#DejaVuSans-3a" x="1264.15625"/>
      <use xlink:href="#DejaVuSans-20" x="1297.847656"/>
     </g>
     <!-- Mean: 0.000 -->
     <g transform="translate(679.840625 79.470625) scale(0.1 -0.1)">
      <use xlink:href="#DejaVuSans-4d"/>
      <use xlink:href="#DejaVuSans-65" x="86.279297"/>
      <use xlink:href="#DejaVuSans-61" x="147.802734"/>
      <use xlink:href="#DejaVuSans-6e" x="209.082031"/>
      <use xlink:href="#DejaVuSans-3a" x="272.460938"/>
      <use xlink:href="#DejaVuSans-20" x="306.152344"/>
      <use xlink:href="#DejaVuSans-30" x="337.939453"/>
      <use xlink:href="#DejaVuSans-2e" x="401.5625"/>
      <use xlink:href="#DejaVuSans-30" x="433.349609"/>
      <use xlink:href="#DejaVuSans-30" x="496.972656"/>
      <use xlink:href="#DejaVuSans-30" x="560.595703"/>
     </g>
    </g>
   </g>
  </g>
 </g>
 <defs>
  <clipPath id="p8c65ba7662">
   <rect x="40.603125" y="22.318125" width="781.2" height="332.64"/>
  </clipPath>
 </defs>
</svg>
