<?xml version="1.0" encoding="utf-8" standalone="no"?>
<!DOCTYPE svg PUBLIC "-//W3C//DTD SVG 1.1//EN"
  "http://www.w3.org/Graphics/SVG/1.1/DTD/svg11.dtd">
<svg xmlns:xlink="http://www.w3.org/1999/xlink" width="829.003125pt" height="453.244198pt" viewBox="0 0 829.003125 453.244198" xmlns="http://www.w3.org/2000/svg" version="1.1">
 <metadata>
  <rdf:RDF xmlns:dc="http://purl.org/dc/elements/1.1/" xmlns:cc="http://creativecommons.org/ns#" xmlns:rdf="http://www.w3.org/1999/02/22-rdf-syntax-ns#">
   <cc:Work>
    <dc:type rdf:resource="http://purl.org/dc/dcmitype/StillImage"/>
    <dc:date>2024-07-22T22:26:46.564350</dc:date>
    <dc:format>image/svg+xml</dc:format>
    <dc:creator>
     <cc:Agent>
      <dc:title>Matplotlib v3.8.4, https://matplotlib.org/</dc:title>
     </cc:Agent>
    </dc:creator>
   </cc:Work>
  </rdf:RDF>
 </metadata>
 <defs>
  <style type="text/css">*{stroke-linejoin: round; stroke-linecap: butt}</style>
 </defs>
 <g id="figure_1">
  <g id="patch_1">
   <path d="M 0 453.244198 
L 829.003125 453.244198 
L 829.003125 0 
L 0 0 
z
" style="fill: #ffffff"/>
  </g>
  <g id="axes_1">
   <g id="patch_2">
    <path d="M 40.603125 354.958125 
L 821.803125 354.958125 
L 821.803125 22.318125 
L 40.603125 22.318125 
z
" style="fill: #ffffff"/>
   </g>
   <g id="PolyCollection_1">
    <defs>
     <path id="m3ae99f0241" d="M 76.112216 -131.499209 
L 76.112216 -114.02455 
L 78.232162 -114.039994 
L 80.352107 -114.182696 
L 82.472053 -114.08573 
L 84.591999 -114.059594 
L 86.711945 -113.863452 
L 88.83189 -113.617478 
L 90.951836 -113.625628 
L 93.071782 -113.620116 
L 95.191727 -113.618073 
L 97.311673 -113.723809 
L 99.431619 -113.760517 
L 101.551565 -113.702025 
L 103.67151 -113.725539 
L 105.791456 -113.716801 
L 107.911402 -113.523029 
L 110.031348 -113.406073 
L 112.151293 -114.280372 
L 114.271239 -117.949479 
L 116.391185 -123.12798 
L 118.51113 -123.083899 
L 120.631076 -123.379444 
L 122.751022 -123.241696 
L 124.870968 -124.164374 
L 126.990913 -123.614906 
L 129.110859 -123.766972 
L 131.230805 -124.316824 
L 133.350751 -123.801267 
L 135.470696 -124.276687 
L 137.590642 -124.036391 
L 139.710588 -124.44516 
L 141.830533 -123.787699 
L 143.950479 -123.76832 
L 146.070425 -123.801821 
L 148.190371 -123.663618 
L 150.310316 -123.753844 
L 152.430262 -122.436322 
L 154.550208 -119.683355 
L 156.670153 -118.111615 
L 158.790099 -116.456505 
L 160.910045 -114.638221 
L 163.029991 -114.854257 
L 165.149936 -114.819418 
L 167.269882 -114.349152 
L 169.389828 -114.281763 
L 171.509774 -114.309076 
L 173.629719 -114.330765 
L 175.749665 -114.325381 
L 177.869611 -114.373314 
L 179.989556 -113.984199 
L 182.109502 -114.173392 
L 184.229448 -114.095128 
L 186.349394 -113.986101 
L 188.469339 -113.740914 
L 190.589285 -113.89667 
L 192.709231 -113.785133 
L 194.829177 -113.733661 
L 196.949122 -113.735543 
L 199.069068 -113.800149 
L 201.189014 -113.750851 
L 203.308959 -113.761843 
L 205.428905 -113.83124 
L 207.548851 -113.914909 
L 209.668797 -113.746813 
L 211.788742 -113.684468 
L 213.908688 -114.443609 
L 216.028634 -118.096583 
L 218.14858 -123.095175 
L 220.268525 -123.610868 
L 222.388471 -123.445847 
L 224.508417 -124.244249 
L 226.628362 -123.785824 
L 228.748308 -124.110635 
L 230.868254 -123.405424 
L 232.9882 -124.264833 
L 235.108145 -124.108153 
L 237.228091 -123.793279 
L 239.348037 -124.231621 
L 241.467983 -124.42323 
L 243.587928 -123.755646 
L 245.707874 -123.908657 
L 247.82782 -123.845018 
L 249.947765 -124.021211 
L 252.067711 -123.866905 
L 254.187657 -123.42173 
L 256.307603 -120.548639 
L 258.427548 -118.400968 
L 260.547494 -116.040013 
L 262.66744 -115.376283 
L 264.787386 -115.345777 
L 266.907331 -114.886034 
L 269.027277 -114.375922 
L 271.147223 -114.133835 
L 273.267168 -113.971675 
L 275.387114 -113.908875 
L 277.50706 -113.709445 
L 279.627006 -113.946653 
L 281.746951 -113.929604 
L 283.866897 -114.052182 
L 285.986843 -113.872793 
L 288.106789 -113.933253 
L 290.226734 -113.553855 
L 292.34668 -113.833916 
L 294.466626 -113.823273 
L 296.586571 -113.943079 
L 298.706517 -113.801963 
L 300.826463 -113.84169 
L 302.946409 -113.794542 
L 305.066354 -113.787079 
L 307.1863 -113.748067 
L 309.306246 -114.081716 
L 311.426191 -113.789748 
L 313.546137 -114.011958 
L 315.666083 -114.60937 
L 317.786029 -118.076038 
L 319.905974 -123.025353 
L 322.02592 -123.736977 
L 324.145866 -123.44843 
L 326.265812 -123.243713 
L 328.385757 -124.362215 
L 330.505703 -124.006154 
L 332.625649 -123.665124 
L 334.745594 -123.8747 
L 336.86554 -123.938035 
L 338.985486 -124.141866 
L 341.105432 -124.33138 
L 343.225377 -123.683953 
L 345.345323 -123.772583 
L 347.465269 -123.974354 
L 349.585215 -123.837656 
L 351.70516 -123.98515 
L 353.825106 -123.888944 
L 355.945052 -123.132776 
L 358.064997 -119.478368 
L 360.184943 -118.106669 
L 362.304889 -116.586192 
L 364.424835 -114.825006 
L 366.54478 -114.577969 
L 368.664726 -114.64289 
L 370.784672 -114.749345 
L 372.904618 -114.721633 
L 375.024563 -114.554548 
L 377.144509 -114.501235 
L 379.264455 -114.437317 
L 381.3844 -114.455364 
L 383.504346 -114.195291 
L 385.624292 -114.481886 
L 387.744238 -114.304504 
L 389.864183 -114.56254 
L 391.984129 -114.277556 
L 394.104075 -114.198021 
L 396.224021 -113.963407 
L 398.343966 -113.922583 
L 400.463912 -113.895345 
L 402.583858 -113.786501 
L 404.703803 -114.027652 
L 406.823749 -113.950439 
L 408.943695 -113.833917 
L 411.063641 -114.02592 
L 413.183586 -113.828443 
L 415.303532 -113.5761 
L 417.423478 -114.610149 
L 419.543424 -117.83814 
L 421.663369 -122.678616 
L 423.783315 -123.282183 
L 425.903261 -123.136414 
L 428.023206 -123.659086 
L 430.143152 -123.744601 
L 432.263098 -123.605595 
L 434.383044 -124.138572 
L 436.502989 -124.485907 
L 438.622935 -124.247587 
L 440.742881 -124.743463 
L 442.862826 -123.921435 
L 444.982772 -124.087277 
L 447.102718 -123.884185 
L 449.222664 -123.956887 
L 451.342609 -124.100511 
L 453.462555 -123.875472 
L 455.582501 -123.790024 
L 457.702447 -122.934857 
L 459.822392 -120.301304 
L 461.942338 -118.660528 
L 464.062284 -116.043209 
L 466.182229 -115.083021 
L 468.302175 -115.043455 
L 470.422121 -115.356386 
L 472.542067 -114.865758 
L 474.662012 -114.56662 
L 476.781958 -114.461233 
L 478.901904 -114.373321 
L 481.02185 -114.340324 
L 483.141795 -114.226755 
L 485.261741 -113.861319 
L 487.381687 -113.804949 
L 489.501632 -114.002826 
L 491.621578 -113.787169 
L 493.741524 -113.897039 
L 495.86147 -113.876045 
L 497.981415 -113.826909 
L 500.101361 -113.874606 
L 502.221307 -113.636552 
L 504.341253 -113.672478 
L 506.461198 -113.769185 
L 508.581144 -113.562137 
L 510.70109 -113.737269 
L 512.821035 -113.819126 
L 514.940981 -113.519147 
L 517.060927 -113.591762 
L 519.180873 -114.802104 
L 521.300818 -118.722976 
L 523.420764 -123.409797 
L 525.54071 -123.370448 
L 527.660656 -124.226259 
L 529.780601 -124.295296 
L 531.900547 -124.089235 
L 534.020493 -124.347569 
L 536.140438 -123.322659 
L 538.260384 -123.684655 
L 540.38033 -124.362078 
L 542.500276 -124.332688 
L 544.620221 -124.418296 
L 546.740167 -124.626739 
L 548.860113 -124.422626 
L 550.980059 -124.275819 
L 553.100004 -123.969278 
L 555.21995 -124.296157 
L 557.339896 -124.082382 
L 559.459841 -123.544849 
L 561.579787 -121.069948 
L 563.699733 -119.951094 
L 565.819679 -117.526186 
L 567.939624 -116.143606 
L 570.05957 -115.989348 
L 572.179516 -115.558076 
L 574.299461 -115.034835 
L 576.419407 -114.741634 
L 578.539353 -114.549357 
L 580.659299 -114.572788 
L 582.779244 -114.316868 
L 584.89919 -114.119969 
L 587.019136 -114.146722 
L 589.139082 -114.352023 
L 591.259027 -114.121042 
L 593.378973 -114.288132 
L 595.498919 -113.903877 
L 597.618864 -113.652425 
L 599.73881 -113.663176 
L 601.858756 -113.79443 
L 603.978702 -113.773911 
L 606.098647 -113.822441 
L 608.218593 -113.762558 
L 610.338539 -113.79482 
L 612.458485 -113.71752 
L 614.57843 -113.565985 
L 616.698376 -113.781979 
L 618.818322 -113.805254 
L 620.938267 -114.417853 
L 623.058213 -118.943154 
L 625.178159 -123.391332 
L 627.298105 -123.311653 
L 629.41805 -123.454123 
L 631.537996 -124.223626 
L 633.657942 -124.245166 
L 635.777888 -124.159703 
L 637.897833 -124.046366 
L 640.017779 -123.778669 
L 642.137725 -124.079876 
L 644.25767 -124.337774 
L 646.377616 -123.829278 
L 648.497562 -123.957325 
L 650.617508 -123.760815 
L 652.737453 -123.967612 
L 654.857399 -124.127636 
L 656.977345 -123.848423 
L 659.097291 -121.169077 
L 661.217236 -119.472138 
L 663.337182 -118.325924 
L 665.457128 -117.443702 
L 667.577073 -116.241987 
L 669.697019 -116.156262 
L 671.816965 -115.426448 
L 673.936911 -116.061343 
L 676.056856 -114.815229 
L 678.176802 -114.676648 
L 680.296748 -114.590327 
L 682.416694 -114.645209 
L 684.536639 -114.451931 
L 686.656585 -114.458514 
L 688.776531 -114.289092 
L 690.896476 -114.52529 
L 693.016422 -114.435586 
L 695.136368 -114.42684 
L 697.256314 -114.104936 
L 699.376259 -114.0895 
L 701.496205 -114.00724 
L 703.616151 -114.139796 
L 705.736097 -113.806037 
L 707.856042 -113.568154 
L 709.975988 -113.557597 
L 712.095934 -113.630891 
L 714.215879 -113.70022 
L 716.335825 -113.697408 
L 718.455771 -113.61176 
L 720.575717 -113.603927 
L 722.695662 -113.974332 
L 724.815608 -116.942038 
L 726.935554 -122.751402 
L 729.055499 -123.1414 
L 731.175445 -123.349874 
L 733.295391 -123.600354 
L 735.415337 -123.931263 
L 737.535282 -124.010325 
L 739.655228 -123.797904 
L 741.775174 -123.718259 
L 743.89512 -123.670733 
L 746.015065 -123.337309 
L 748.135011 -122.874627 
L 750.254957 -122.704127 
L 752.374902 -120.619377 
L 754.494848 -119.406391 
L 756.614794 -118.301374 
L 758.73474 -117.690159 
L 760.854685 -116.143222 
L 762.974631 -115.584186 
L 765.094577 -114.744659 
L 767.214523 -114.173614 
L 769.334468 -114.90295 
L 771.454414 -115.091923 
L 773.57436 -114.700408 
L 775.694305 -114.497041 
L 777.814251 -114.51549 
L 779.934197 -114.576551 
L 782.054143 -114.3646 
L 784.174088 -114.14882 
L 786.294034 -114.154928 
L 786.294034 -131.559355 
L 786.294034 -131.559355 
L 784.174088 -131.654461 
L 782.054143 -132.174915 
L 779.934197 -131.997462 
L 777.814251 -132.421316 
L 775.694305 -133.701031 
L 773.57436 -134.435529 
L 771.454414 -135.249474 
L 769.334468 -136.443195 
L 767.214523 -137.844533 
L 765.094577 -140.148849 
L 762.974631 -142.702317 
L 760.854685 -143.886949 
L 758.73474 -145.884428 
L 756.614794 -147.391269 
L 754.494848 -148.599449 
L 752.374902 -150.069407 
L 750.254957 -151.681537 
L 748.135011 -151.935255 
L 746.015065 -152.369939 
L 743.89512 -152.489922 
L 741.775174 -152.592258 
L 739.655228 -152.126936 
L 737.535282 -152.527151 
L 735.415337 -152.110108 
L 733.295391 -152.203075 
L 731.175445 -151.940958 
L 729.055499 -151.227955 
L 726.935554 -149.983178 
L 724.815608 -142.680299 
L 722.695662 -138.390501 
L 720.575717 -134.036868 
L 718.455771 -131.883578 
L 716.335825 -131.065263 
L 714.215879 -131.038211 
L 712.095934 -130.883041 
L 709.975988 -130.728577 
L 707.856042 -130.973727 
L 705.736097 -130.613002 
L 703.616151 -130.938323 
L 701.496205 -131.59149 
L 699.376259 -131.281889 
L 697.256314 -131.439434 
L 695.136368 -131.709985 
L 693.016422 -132.018403 
L 690.896476 -132.050935 
L 688.776531 -132.495336 
L 686.656585 -132.119279 
L 684.536639 -132.428655 
L 682.416694 -132.816027 
L 680.296748 -133.243542 
L 678.176802 -133.005521 
L 676.056856 -133.339344 
L 673.936911 -135.546107 
L 671.816965 -137.580677 
L 669.697019 -140.875155 
L 667.577073 -142.775096 
L 665.457128 -144.384864 
L 663.337182 -145.761467 
L 661.217236 -148.537954 
L 659.097291 -150.57239 
L 656.977345 -152.93558 
L 654.857399 -153.876003 
L 652.737453 -153.09746 
L 650.617508 -153.25992 
L 648.497562 -153.119002 
L 646.377616 -153.13375 
L 644.25767 -153.683463 
L 642.137725 -153.809422 
L 640.017779 -153.195409 
L 637.897833 -153.375968 
L 635.777888 -152.992331 
L 633.657942 -153.327538 
L 631.537996 -153.343416 
L 629.41805 -152.553027 
L 627.298105 -151.738044 
L 625.178159 -151.513386 
L 623.058213 -146.677652 
L 620.938267 -141.133354 
L 618.818322 -136.047478 
L 616.698376 -132.664903 
L 614.57843 -131.357434 
L 612.458485 -130.938494 
L 610.338539 -130.614627 
L 608.218593 -130.487364 
L 606.098647 -130.548579 
L 603.978702 -130.616968 
L 601.858756 -130.479152 
L 599.73881 -130.883138 
L 597.618864 -131.088514 
L 595.498919 -131.048438 
L 593.378973 -130.882673 
L 591.259027 -131.196945 
L 589.139082 -131.134166 
L 587.019136 -131.529229 
L 584.89919 -131.623112 
L 582.779244 -132.013723 
L 580.659299 -132.376389 
L 578.539353 -132.729825 
L 576.419407 -133.29395 
L 574.299461 -134.273038 
L 572.179516 -136.820359 
L 570.05957 -139.40889 
L 567.939624 -142.386507 
L 565.819679 -144.120717 
L 563.699733 -147.628991 
L 561.579787 -150.589482 
L 559.459841 -151.782247 
L 557.339896 -152.502427 
L 555.21995 -153.391939 
L 553.100004 -153.543843 
L 550.980059 -153.549468 
L 548.860113 -153.888664 
L 546.740167 -153.709427 
L 544.620221 -153.563267 
L 542.500276 -153.356357 
L 540.38033 -153.7845 
L 538.260384 -153.034267 
L 536.140438 -153.353938 
L 534.020493 -153.513342 
L 531.900547 -153.605744 
L 529.780601 -153.673615 
L 527.660656 -152.81235 
L 525.54071 -152.073584 
L 523.420764 -151.677935 
L 521.300818 -146.407445 
L 519.180873 -141.900726 
L 517.060927 -135.952779 
L 514.940981 -132.667714 
L 512.821035 -130.934654 
L 510.70109 -131.069703 
L 508.581144 -131.064353 
L 506.461198 -130.43476 
L 504.341253 -130.637974 
L 502.221307 -130.512774 
L 500.101361 -130.188048 
L 497.981415 -130.452672 
L 495.86147 -130.276681 
L 493.741524 -130.506391 
L 491.621578 -130.714734 
L 489.501632 -130.788061 
L 487.381687 -130.716454 
L 485.261741 -131.129398 
L 483.141795 -131.267446 
L 481.02185 -131.640215 
L 478.901904 -132.221067 
L 476.781958 -132.42606 
L 474.662012 -133.023171 
L 472.542067 -133.008309 
L 470.422121 -134.538674 
L 468.302175 -136.245597 
L 466.182229 -139.432221 
L 464.062284 -141.640694 
L 461.942338 -145.537608 
L 459.822392 -148.557656 
L 457.702447 -151.206928 
L 455.582501 -152.374531 
L 453.462555 -152.568436 
L 451.342609 -152.476261 
L 449.222664 -153.132687 
L 447.102718 -152.321431 
L 444.982772 -153.042786 
L 442.862826 -152.945044 
L 440.742881 -153.145405 
L 438.622935 -152.912113 
L 436.502989 -153.228707 
L 434.383044 -152.683642 
L 432.263098 -151.852116 
L 430.143152 -152.297787 
L 428.023206 -152.532353 
L 425.903261 -151.711294 
L 423.783315 -151.748785 
L 421.663369 -150.313025 
L 419.543424 -145.863547 
L 417.423478 -141.278727 
L 415.303532 -136.297676 
L 413.183586 -132.369573 
L 411.063641 -130.568002 
L 408.943695 -130.374712 
L 406.823749 -130.25436 
L 404.703803 -129.883732 
L 402.583858 -130.30359 
L 400.463912 -130.098538 
L 398.343966 -130.069191 
L 396.224021 -130.023208 
L 394.104075 -130.246159 
L 391.984129 -130.48213 
L 389.864183 -130.308395 
L 387.744238 -130.526926 
L 385.624292 -130.311726 
L 383.504346 -130.991212 
L 381.3844 -131.134986 
L 379.264455 -131.831036 
L 377.144509 -131.475025 
L 375.024563 -131.656804 
L 372.904618 -131.560728 
L 370.784672 -132.19261 
L 368.664726 -133.262636 
L 366.54478 -136.814806 
L 364.424835 -138.564994 
L 362.304889 -141.845852 
L 360.184943 -145.025356 
L 358.064997 -147.542096 
L 355.945052 -150.658931 
L 353.825106 -151.524133 
L 351.70516 -151.817838 
L 349.585215 -151.897688 
L 347.465269 -152.076988 
L 345.345323 -151.44238 
L 343.225377 -151.71664 
L 341.105432 -151.71938 
L 338.985486 -152.779655 
L 336.86554 -152.317527 
L 334.745594 -152.452531 
L 332.625649 -151.544887 
L 330.505703 -152.195789 
L 328.385757 -152.694077 
L 326.265812 -151.457001 
L 324.145866 -151.578508 
L 322.02592 -151.980203 
L 319.905974 -150.444357 
L 317.786029 -144.536739 
L 315.666083 -139.511943 
L 313.546137 -134.70284 
L 311.426191 -132.38474 
L 309.306246 -131.2659 
L 307.1863 -131.251909 
L 305.066354 -130.825024 
L 302.946409 -130.598525 
L 300.826463 -130.432865 
L 298.706517 -130.788717 
L 296.586571 -130.312126 
L 294.466626 -130.727424 
L 292.34668 -130.45388 
L 290.226734 -130.87103 
L 288.106789 -130.480138 
L 285.986843 -131.032409 
L 283.866897 -130.467967 
L 281.746951 -130.829106 
L 279.627006 -130.877253 
L 277.50706 -131.494618 
L 275.387114 -131.230273 
L 273.267168 -131.267502 
L 271.147223 -131.632521 
L 269.027277 -132.393714 
L 266.907331 -132.768414 
L 264.787386 -135.245601 
L 262.66744 -138.23366 
L 260.547494 -141.197764 
L 258.427548 -145.392225 
L 256.307603 -148.507328 
L 254.187657 -151.298142 
L 252.067711 -151.998727 
L 249.947765 -152.404082 
L 247.82782 -152.493544 
L 245.707874 -152.053257 
L 243.587928 -152.45139 
L 241.467983 -152.465629 
L 239.348037 -152.185354 
L 237.228091 -152.424853 
L 235.108145 -152.313967 
L 232.9882 -152.609648 
L 230.868254 -152.207065 
L 228.748308 -152.568945 
L 226.628362 -152.653956 
L 224.508417 -153.105999 
L 222.388471 -152.281969 
L 220.268525 -151.42489 
L 218.14858 -149.813522 
L 216.028634 -144.636852 
L 213.908688 -141.012611 
L 211.788742 -134.654281 
L 209.668797 -131.948576 
L 207.548851 -130.869282 
L 205.428905 -130.918852 
L 203.308959 -130.576724 
L 201.189014 -130.470009 
L 199.069068 -130.266129 
L 196.949122 -130.341382 
L 194.829177 -130.586768 
L 192.709231 -130.448334 
L 190.589285 -130.543278 
L 188.469339 -131.626562 
L 186.349394 -130.679928 
L 184.229448 -131.063977 
L 182.109502 -131.021196 
L 179.989556 -131.612543 
L 177.869611 -131.308116 
L 175.749665 -131.305227 
L 173.629719 -131.702444 
L 171.509774 -131.667855 
L 169.389828 -132.159074 
L 167.269882 -132.699181 
L 165.149936 -133.557955 
L 163.029991 -134.995232 
L 160.910045 -137.822315 
L 158.790099 -141.353713 
L 156.670153 -144.862882 
L 154.550208 -146.895524 
L 152.430262 -149.746709 
L 150.310316 -151.16037 
L 148.190371 -151.454222 
L 146.070425 -151.863094 
L 143.950479 -151.207618 
L 141.830533 -151.737361 
L 139.710588 -152.28792 
L 137.590642 -151.593527 
L 135.470696 -151.86347 
L 133.350751 -151.518836 
L 131.230805 -151.961743 
L 129.110859 -151.989169 
L 126.990913 -151.834463 
L 124.870968 -152.229008 
L 122.751022 -151.237853 
L 120.631076 -151.14022 
L 118.51113 -150.707362 
L 116.391185 -149.814018 
L 114.271239 -144.5455 
L 112.151293 -139.705267 
L 110.031348 -134.717538 
L 107.911402 -132.520588 
L 105.791456 -131.176283 
L 103.67151 -130.928169 
L 101.551565 -130.57459 
L 99.431619 -130.334109 
L 97.311673 -130.361989 
L 95.191727 -130.578093 
L 93.071782 -130.606119 
L 90.951836 -130.615556 
L 88.83189 -130.737868 
L 86.711945 -130.516413 
L 84.591999 -130.840528 
L 82.472053 -131.254799 
L 80.352107 -131.100545 
L 78.232162 -131.563926 
L 76.112216 -131.499209 
z
" style="stroke: #ff0000; stroke-opacity: 0.2"/>
    </defs>
    <g clip-path="url(#p25b3145e49)">
     <use xlink:href="#m3ae99f0241" x="0" y="453.244198" style="fill: #ff0000; fill-opacity: 0.2; stroke: #ff0000; stroke-opacity: 0.2"/>
    </g>
   </g>
   <g id="patch_3">
    <path d="M 76.112216 354.958125 
L 76.112216 22.318125 
L 101.551565 22.318125 
L 101.551565 354.958125 
z
" clip-path="url(#p25b3145e49)" style="opacity: 0.3; stroke: #000000; stroke-linejoin: miter"/>
   </g>
   <g id="patch_4">
    <path d="M 152.430262 354.958125 
L 152.430262 22.318125 
L 203.308959 22.318125 
L 203.308959 354.958125 
z
" clip-path="url(#p25b3145e49)" style="opacity: 0.3; stroke: #000000; stroke-linejoin: miter"/>
   </g>
   <g id="patch_5">
    <path d="M 254.187657 354.958125 
L 254.187657 22.318125 
L 305.066354 22.318125 
L 305.066354 354.958125 
z
" clip-path="url(#p25b3145e49)" style="opacity: 0.3; stroke: #000000; stroke-linejoin: miter"/>
   </g>
   <g id="patch_6">
    <path d="M 355.945052 354.958125 
L 355.945052 22.318125 
L 406.823749 22.318125 
L 406.823749 354.958125 
z
" clip-path="url(#p25b3145e49)" style="opacity: 0.3; stroke: #000000; stroke-linejoin: miter"/>
   </g>
   <g id="patch_7">
    <path d="M 457.702447 354.958125 
L 457.702447 22.318125 
L 508.581144 22.318125 
L 508.581144 354.958125 
z
" clip-path="url(#p25b3145e49)" style="opacity: 0.3; stroke: #000000; stroke-linejoin: miter"/>
   </g>
   <g id="patch_8">
    <path d="M 559.459841 354.958125 
L 559.459841 22.318125 
L 610.338539 22.318125 
L 610.338539 354.958125 
z
" clip-path="url(#p25b3145e49)" style="opacity: 0.3; stroke: #000000; stroke-linejoin: miter"/>
   </g>
   <g id="patch_9">
    <path d="M 661.217236 354.958125 
L 661.217236 22.318125 
L 712.095934 22.318125 
L 712.095934 354.958125 
z
" clip-path="url(#p25b3145e49)" style="opacity: 0.3; stroke: #000000; stroke-linejoin: miter"/>
   </g>
   <g id="patch_10">
    <path d="M 762.974631 354.958125 
L 762.974631 22.318125 
L 786.294034 22.318125 
L 786.294034 354.958125 
z
" clip-path="url(#p25b3145e49)" style="opacity: 0.3; stroke: #000000; stroke-linejoin: miter"/>
   </g>
   <g id="matplotlib.axis_1">
    <g id="xtick_1">
     <g id="line2d_1">
      <path d="M 76.112216 354.958125 
L 76.112216 22.318125 
" clip-path="url(#p25b3145e49)" style="fill: none; stroke: #b0b0b0; stroke-width: 0.8; stroke-linecap: square"/>
     </g>
     <g id="line2d_2">
      <defs>
       <path id="m2e036d93d9" d="M 0 0 
L 0 3.5 
" style="stroke: #000000; stroke-width: 0.8"/>
      </defs>
      <g>
       <use xlink:href="#m2e036d93d9" x="76.112216" y="354.958125" style="stroke: #000000; stroke-width: 0.8"/>
      </g>
     </g>
     <g id="text_1">
      <!-- Monday 00:00 -->
      <g transform="translate(24.100093 417.872594) rotate(-45) scale(0.1 -0.1)">
       <defs>
        <path id="DejaVuSans-4d" d="M 628 4666 
L 1569 4666 
L 2759 1491 
L 3956 4666 
L 4897 4666 
L 4897 0 
L 4281 0 
L 4281 4097 
L 3078 897 
L 2444 897 
L 1241 4097 
L 1241 0 
L 628 0 
L 628 4666 
z
" transform="scale(0.015625)"/>
        <path id="DejaVuSans-6f" d="M 1959 3097 
Q 1497 3097 1228 2736 
Q 959 2375 959 1747 
Q 959 1119 1226 758 
Q 1494 397 1959 397 
Q 2419 397 2687 759 
Q 2956 1122 2956 1747 
Q 2956 2369 2687 2733 
Q 2419 3097 1959 3097 
z
M 1959 3584 
Q 2709 3584 3137 3096 
Q 3566 2609 3566 1747 
Q 3566 888 3137 398 
Q 2709 -91 1959 -91 
Q 1206 -91 779 398 
Q 353 888 353 1747 
Q 353 2609 779 3096 
Q 1206 3584 1959 3584 
z
" transform="scale(0.015625)"/>
        <path id="DejaVuSans-6e" d="M 3513 2113 
L 3513 0 
L 2938 0 
L 2938 2094 
Q 2938 2591 2744 2837 
Q 2550 3084 2163 3084 
Q 1697 3084 1428 2787 
Q 1159 2491 1159 1978 
L 1159 0 
L 581 0 
L 581 3500 
L 1159 3500 
L 1159 2956 
Q 1366 3272 1645 3428 
Q 1925 3584 2291 3584 
Q 2894 3584 3203 3211 
Q 3513 2838 3513 2113 
z
" transform="scale(0.015625)"/>
        <path id="DejaVuSans-64" d="M 2906 2969 
L 2906 4863 
L 3481 4863 
L 3481 0 
L 2906 0 
L 2906 525 
Q 2725 213 2448 61 
Q 2172 -91 1784 -91 
Q 1150 -91 751 415 
Q 353 922 353 1747 
Q 353 2572 751 3078 
Q 1150 3584 1784 3584 
Q 2172 3584 2448 3432 
Q 2725 3281 2906 2969 
z
M 947 1747 
Q 947 1113 1208 752 
Q 1469 391 1925 391 
Q 2381 391 2643 752 
Q 2906 1113 2906 1747 
Q 2906 2381 2643 2742 
Q 2381 3103 1925 3103 
Q 1469 3103 1208 2742 
Q 947 2381 947 1747 
z
" transform="scale(0.015625)"/>
        <path id="DejaVuSans-61" d="M 2194 1759 
Q 1497 1759 1228 1600 
Q 959 1441 959 1056 
Q 959 750 1161 570 
Q 1363 391 1709 391 
Q 2188 391 2477 730 
Q 2766 1069 2766 1631 
L 2766 1759 
L 2194 1759 
z
M 3341 1997 
L 3341 0 
L 2766 0 
L 2766 531 
Q 2569 213 2275 61 
Q 1981 -91 1556 -91 
Q 1019 -91 701 211 
Q 384 513 384 1019 
Q 384 1609 779 1909 
Q 1175 2209 1959 2209 
L 2766 2209 
L 2766 2266 
Q 2766 2663 2505 2880 
Q 2244 3097 1772 3097 
Q 1472 3097 1187 3025 
Q 903 2953 641 2809 
L 641 3341 
Q 956 3463 1253 3523 
Q 1550 3584 1831 3584 
Q 2591 3584 2966 3190 
Q 3341 2797 3341 1997 
z
" transform="scale(0.015625)"/>
        <path id="DejaVuSans-79" d="M 2059 -325 
Q 1816 -950 1584 -1140 
Q 1353 -1331 966 -1331 
L 506 -1331 
L 506 -850 
L 844 -850 
Q 1081 -850 1212 -737 
Q 1344 -625 1503 -206 
L 1606 56 
L 191 3500 
L 800 3500 
L 1894 763 
L 2988 3500 
L 3597 3500 
L 2059 -325 
z
" transform="scale(0.015625)"/>
        <path id="DejaVuSans-20" transform="scale(0.015625)"/>
        <path id="DejaVuSans-30" d="M 2034 4250 
Q 1547 4250 1301 3770 
Q 1056 3291 1056 2328 
Q 1056 1369 1301 889 
Q 1547 409 2034 409 
Q 2525 409 2770 889 
Q 3016 1369 3016 2328 
Q 3016 3291 2770 3770 
Q 2525 4250 2034 4250 
z
M 2034 4750 
Q 2819 4750 3233 4129 
Q 3647 3509 3647 2328 
Q 3647 1150 3233 529 
Q 2819 -91 2034 -91 
Q 1250 -91 836 529 
Q 422 1150 422 2328 
Q 422 3509 836 4129 
Q 1250 4750 2034 4750 
z
" transform="scale(0.015625)"/>
        <path id="DejaVuSans-3a" d="M 750 794 
L 1409 794 
L 1409 0 
L 750 0 
L 750 794 
z
M 750 3309 
L 1409 3309 
L 1409 2516 
L 750 2516 
L 750 3309 
z
" transform="scale(0.015625)"/>
       </defs>
       <use xlink:href="#DejaVuSans-4d"/>
       <use xlink:href="#DejaVuSans-6f" x="86.279297"/>
       <use xlink:href="#DejaVuSans-6e" x="147.460938"/>
       <use xlink:href="#DejaVuSans-64" x="210.839844"/>
       <use xlink:href="#DejaVuSans-61" x="274.316406"/>
       <use xlink:href="#DejaVuSans-79" x="335.595703"/>
       <use xlink:href="#DejaVuSans-20" x="394.775391"/>
       <use xlink:href="#DejaVuSans-30" x="426.5625"/>
       <use xlink:href="#DejaVuSans-30" x="490.185547"/>
       <use xlink:href="#DejaVuSans-3a" x="553.808594"/>
       <use xlink:href="#DejaVuSans-30" x="587.5"/>
       <use xlink:href="#DejaVuSans-30" x="651.123047"/>
      </g>
     </g>
    </g>
    <g id="xtick_2">
     <g id="line2d_3">
      <path d="M 101.551565 354.958125 
L 101.551565 22.318125 
" clip-path="url(#p25b3145e49)" style="fill: none; stroke: #b0b0b0; stroke-width: 0.8; stroke-linecap: square"/>
     </g>
     <g id="line2d_4">
      <g>
       <use xlink:href="#m2e036d93d9" x="101.551565" y="354.958125" style="stroke: #000000; stroke-width: 0.8"/>
      </g>
     </g>
     <g id="text_2">
      <!-- 06:00 -->
      <g transform="translate(79.70307 387.708965) rotate(-45) scale(0.1 -0.1)">
       <defs>
        <path id="DejaVuSans-36" d="M 2113 2584 
Q 1688 2584 1439 2293 
Q 1191 2003 1191 1497 
Q 1191 994 1439 701 
Q 1688 409 2113 409 
Q 2538 409 2786 701 
Q 3034 994 3034 1497 
Q 3034 2003 2786 2293 
Q 2538 2584 2113 2584 
z
M 3366 4563 
L 3366 3988 
Q 3128 4100 2886 4159 
Q 2644 4219 2406 4219 
Q 1781 4219 1451 3797 
Q 1122 3375 1075 2522 
Q 1259 2794 1537 2939 
Q 1816 3084 2150 3084 
Q 2853 3084 3261 2657 
Q 3669 2231 3669 1497 
Q 3669 778 3244 343 
Q 2819 -91 2113 -91 
Q 1303 -91 875 529 
Q 447 1150 447 2328 
Q 447 3434 972 4092 
Q 1497 4750 2381 4750 
Q 2619 4750 2861 4703 
Q 3103 4656 3366 4563 
z
" transform="scale(0.015625)"/>
       </defs>
       <use xlink:href="#DejaVuSans-30"/>
       <use xlink:href="#DejaVuSans-36" x="63.623047"/>
       <use xlink:href="#DejaVuSans-3a" x="127.246094"/>
       <use xlink:href="#DejaVuSans-30" x="160.9375"/>
       <use xlink:href="#DejaVuSans-30" x="224.560547"/>
      </g>
     </g>
    </g>
    <g id="xtick_3">
     <g id="line2d_5">
      <path d="M 126.990913 354.958125 
L 126.990913 22.318125 
" clip-path="url(#p25b3145e49)" style="fill: none; stroke: #b0b0b0; stroke-width: 0.8; stroke-linecap: square"/>
     </g>
     <g id="line2d_6">
      <g>
       <use xlink:href="#m2e036d93d9" x="126.990913" y="354.958125" style="stroke: #000000; stroke-width: 0.8"/>
      </g>
     </g>
     <g id="text_3">
      <!-- 12:00 -->
      <g transform="translate(105.142419 387.708965) rotate(-45) scale(0.1 -0.1)">
       <defs>
        <path id="DejaVuSans-31" d="M 794 531 
L 1825 531 
L 1825 4091 
L 703 3866 
L 703 4441 
L 1819 4666 
L 2450 4666 
L 2450 531 
L 3481 531 
L 3481 0 
L 794 0 
L 794 531 
z
" transform="scale(0.015625)"/>
        <path id="DejaVuSans-32" d="M 1228 531 
L 3431 531 
L 3431 0 
L 469 0 
L 469 531 
Q 828 903 1448 1529 
Q 2069 2156 2228 2338 
Q 2531 2678 2651 2914 
Q 2772 3150 2772 3378 
Q 2772 3750 2511 3984 
Q 2250 4219 1831 4219 
Q 1534 4219 1204 4116 
Q 875 4013 500 3803 
L 500 4441 
Q 881 4594 1212 4672 
Q 1544 4750 1819 4750 
Q 2544 4750 2975 4387 
Q 3406 4025 3406 3419 
Q 3406 3131 3298 2873 
Q 3191 2616 2906 2266 
Q 2828 2175 2409 1742 
Q 1991 1309 1228 531 
z
" transform="scale(0.015625)"/>
       </defs>
       <use xlink:href="#DejaVuSans-31"/>
       <use xlink:href="#DejaVuSans-32" x="63.623047"/>
       <use xlink:href="#DejaVuSans-3a" x="127.246094"/>
       <use xlink:href="#DejaVuSans-30" x="160.9375"/>
       <use xlink:href="#DejaVuSans-30" x="224.560547"/>
      </g>
     </g>
    </g>
    <g id="xtick_4">
     <g id="line2d_7">
      <path d="M 152.430262 354.958125 
L 152.430262 22.318125 
" clip-path="url(#p25b3145e49)" style="fill: none; stroke: #b0b0b0; stroke-width: 0.8; stroke-linecap: square"/>
     </g>
     <g id="line2d_8">
      <g>
       <use xlink:href="#m2e036d93d9" x="152.430262" y="354.958125" style="stroke: #000000; stroke-width: 0.8"/>
      </g>
     </g>
     <g id="text_4">
      <!-- 18:00 -->
      <g transform="translate(130.581767 387.708965) rotate(-45) scale(0.1 -0.1)">
       <defs>
        <path id="DejaVuSans-38" d="M 2034 2216 
Q 1584 2216 1326 1975 
Q 1069 1734 1069 1313 
Q 1069 891 1326 650 
Q 1584 409 2034 409 
Q 2484 409 2743 651 
Q 3003 894 3003 1313 
Q 3003 1734 2745 1975 
Q 2488 2216 2034 2216 
z
M 1403 2484 
Q 997 2584 770 2862 
Q 544 3141 544 3541 
Q 544 4100 942 4425 
Q 1341 4750 2034 4750 
Q 2731 4750 3128 4425 
Q 3525 4100 3525 3541 
Q 3525 3141 3298 2862 
Q 3072 2584 2669 2484 
Q 3125 2378 3379 2068 
Q 3634 1759 3634 1313 
Q 3634 634 3220 271 
Q 2806 -91 2034 -91 
Q 1263 -91 848 271 
Q 434 634 434 1313 
Q 434 1759 690 2068 
Q 947 2378 1403 2484 
z
M 1172 3481 
Q 1172 3119 1398 2916 
Q 1625 2713 2034 2713 
Q 2441 2713 2670 2916 
Q 2900 3119 2900 3481 
Q 2900 3844 2670 4047 
Q 2441 4250 2034 4250 
Q 1625 4250 1398 4047 
Q 1172 3844 1172 3481 
z
" transform="scale(0.015625)"/>
       </defs>
       <use xlink:href="#DejaVuSans-31"/>
       <use xlink:href="#DejaVuSans-38" x="63.623047"/>
       <use xlink:href="#DejaVuSans-3a" x="127.246094"/>
       <use xlink:href="#DejaVuSans-30" x="160.9375"/>
       <use xlink:href="#DejaVuSans-30" x="224.560547"/>
      </g>
     </g>
    </g>
    <g id="xtick_5">
     <g id="line2d_9">
      <path d="M 177.869611 354.958125 
L 177.869611 22.318125 
" clip-path="url(#p25b3145e49)" style="fill: none; stroke: #b0b0b0; stroke-width: 0.8; stroke-linecap: square"/>
     </g>
     <g id="line2d_10">
      <g>
       <use xlink:href="#m2e036d93d9" x="177.869611" y="354.958125" style="stroke: #000000; stroke-width: 0.8"/>
      </g>
     </g>
     <g id="text_5">
      <!-- Tuesday 00:00 -->
      <g transform="translate(125.001225 418.728856) rotate(-45) scale(0.1 -0.1)">
       <defs>
        <path id="DejaVuSans-54" d="M -19 4666 
L 3928 4666 
L 3928 4134 
L 2272 4134 
L 2272 0 
L 1638 0 
L 1638 4134 
L -19 4134 
L -19 4666 
z
" transform="scale(0.015625)"/>
        <path id="DejaVuSans-75" d="M 544 1381 
L 544 3500 
L 1119 3500 
L 1119 1403 
Q 1119 906 1312 657 
Q 1506 409 1894 409 
Q 2359 409 2629 706 
Q 2900 1003 2900 1516 
L 2900 3500 
L 3475 3500 
L 3475 0 
L 2900 0 
L 2900 538 
Q 2691 219 2414 64 
Q 2138 -91 1772 -91 
Q 1169 -91 856 284 
Q 544 659 544 1381 
z
M 1991 3584 
L 1991 3584 
z
" transform="scale(0.015625)"/>
        <path id="DejaVuSans-65" d="M 3597 1894 
L 3597 1613 
L 953 1613 
Q 991 1019 1311 708 
Q 1631 397 2203 397 
Q 2534 397 2845 478 
Q 3156 559 3463 722 
L 3463 178 
Q 3153 47 2828 -22 
Q 2503 -91 2169 -91 
Q 1331 -91 842 396 
Q 353 884 353 1716 
Q 353 2575 817 3079 
Q 1281 3584 2069 3584 
Q 2775 3584 3186 3129 
Q 3597 2675 3597 1894 
z
M 3022 2063 
Q 3016 2534 2758 2815 
Q 2500 3097 2075 3097 
Q 1594 3097 1305 2825 
Q 1016 2553 972 2059 
L 3022 2063 
z
" transform="scale(0.015625)"/>
        <path id="DejaVuSans-73" d="M 2834 3397 
L 2834 2853 
Q 2591 2978 2328 3040 
Q 2066 3103 1784 3103 
Q 1356 3103 1142 2972 
Q 928 2841 928 2578 
Q 928 2378 1081 2264 
Q 1234 2150 1697 2047 
L 1894 2003 
Q 2506 1872 2764 1633 
Q 3022 1394 3022 966 
Q 3022 478 2636 193 
Q 2250 -91 1575 -91 
Q 1294 -91 989 -36 
Q 684 19 347 128 
L 347 722 
Q 666 556 975 473 
Q 1284 391 1588 391 
Q 1994 391 2212 530 
Q 2431 669 2431 922 
Q 2431 1156 2273 1281 
Q 2116 1406 1581 1522 
L 1381 1569 
Q 847 1681 609 1914 
Q 372 2147 372 2553 
Q 372 3047 722 3315 
Q 1072 3584 1716 3584 
Q 2034 3584 2315 3537 
Q 2597 3491 2834 3397 
z
" transform="scale(0.015625)"/>
       </defs>
       <use xlink:href="#DejaVuSans-54"/>
       <use xlink:href="#DejaVuSans-75" x="45.958984"/>
       <use xlink:href="#DejaVuSans-65" x="109.337891"/>
       <use xlink:href="#DejaVuSans-73" x="170.861328"/>
       <use xlink:href="#DejaVuSans-64" x="222.960938"/>
       <use xlink:href="#DejaVuSans-61" x="286.4375"/>
       <use xlink:href="#DejaVuSans-79" x="347.716797"/>
       <use xlink:href="#DejaVuSans-20" x="406.896484"/>
       <use xlink:href="#DejaVuSans-30" x="438.683594"/>
       <use xlink:href="#DejaVuSans-30" x="502.306641"/>
       <use xlink:href="#DejaVuSans-3a" x="565.929688"/>
       <use xlink:href="#DejaVuSans-30" x="599.621094"/>
       <use xlink:href="#DejaVuSans-30" x="663.244141"/>
      </g>
     </g>
    </g>
    <g id="xtick_6">
     <g id="line2d_11">
      <path d="M 203.308959 354.958125 
L 203.308959 22.318125 
" clip-path="url(#p25b3145e49)" style="fill: none; stroke: #b0b0b0; stroke-width: 0.8; stroke-linecap: square"/>
     </g>
     <g id="line2d_12">
      <g>
       <use xlink:href="#m2e036d93d9" x="203.308959" y="354.958125" style="stroke: #000000; stroke-width: 0.8"/>
      </g>
     </g>
     <g id="text_6">
      <!-- 06:00 -->
      <g transform="translate(181.460465 387.708965) rotate(-45) scale(0.1 -0.1)">
       <use xlink:href="#DejaVuSans-30"/>
       <use xlink:href="#DejaVuSans-36" x="63.623047"/>
       <use xlink:href="#DejaVuSans-3a" x="127.246094"/>
       <use xlink:href="#DejaVuSans-30" x="160.9375"/>
       <use xlink:href="#DejaVuSans-30" x="224.560547"/>
      </g>
     </g>
    </g>
    <g id="xtick_7">
     <g id="line2d_13">
      <path d="M 228.748308 354.958125 
L 228.748308 22.318125 
" clip-path="url(#p25b3145e49)" style="fill: none; stroke: #b0b0b0; stroke-width: 0.8; stroke-linecap: square"/>
     </g>
     <g id="line2d_14">
      <g>
       <use xlink:href="#m2e036d93d9" x="228.748308" y="354.958125" style="stroke: #000000; stroke-width: 0.8"/>
      </g>
     </g>
     <g id="text_7">
      <!-- 12:00 -->
      <g transform="translate(206.899813 387.708965) rotate(-45) scale(0.1 -0.1)">
       <use xlink:href="#DejaVuSans-31"/>
       <use xlink:href="#DejaVuSans-32" x="63.623047"/>
       <use xlink:href="#DejaVuSans-3a" x="127.246094"/>
       <use xlink:href="#DejaVuSans-30" x="160.9375"/>
       <use xlink:href="#DejaVuSans-30" x="224.560547"/>
      </g>
     </g>
    </g>
    <g id="xtick_8">
     <g id="line2d_15">
      <path d="M 254.187657 354.958125 
L 254.187657 22.318125 
" clip-path="url(#p25b3145e49)" style="fill: none; stroke: #b0b0b0; stroke-width: 0.8; stroke-linecap: square"/>
     </g>
     <g id="line2d_16">
      <g>
       <use xlink:href="#m2e036d93d9" x="254.187657" y="354.958125" style="stroke: #000000; stroke-width: 0.8"/>
      </g>
     </g>
     <g id="text_8">
      <!-- 18:00 -->
      <g transform="translate(232.339162 387.708965) rotate(-45) scale(0.1 -0.1)">
       <use xlink:href="#DejaVuSans-31"/>
       <use xlink:href="#DejaVuSans-38" x="63.623047"/>
       <use xlink:href="#DejaVuSans-3a" x="127.246094"/>
       <use xlink:href="#DejaVuSans-30" x="160.9375"/>
       <use xlink:href="#DejaVuSans-30" x="224.560547"/>
      </g>
     </g>
    </g>
    <g id="xtick_9">
     <g id="line2d_17">
      <path d="M 279.627006 354.958125 
L 279.627006 22.318125 
" clip-path="url(#p25b3145e49)" style="fill: none; stroke: #b0b0b0; stroke-width: 0.8; stroke-linecap: square"/>
     </g>
     <g id="line2d_18">
      <g>
       <use xlink:href="#m2e036d93d9" x="279.627006" y="354.958125" style="stroke: #000000; stroke-width: 0.8"/>
      </g>
     </g>
     <g id="text_9">
      <!-- Wednesday 00:00 -->
      <g transform="translate(214.591964 430.895512) rotate(-45) scale(0.1 -0.1)">
       <defs>
        <path id="DejaVuSans-57" d="M 213 4666 
L 850 4666 
L 1831 722 
L 2809 4666 
L 3519 4666 
L 4500 722 
L 5478 4666 
L 6119 4666 
L 4947 0 
L 4153 0 
L 3169 4050 
L 2175 0 
L 1381 0 
L 213 4666 
z
" transform="scale(0.015625)"/>
       </defs>
       <use xlink:href="#DejaVuSans-57"/>
       <use xlink:href="#DejaVuSans-65" x="93.001953"/>
       <use xlink:href="#DejaVuSans-64" x="154.525391"/>
       <use xlink:href="#DejaVuSans-6e" x="218.001953"/>
       <use xlink:href="#DejaVuSans-65" x="281.380859"/>
       <use xlink:href="#DejaVuSans-73" x="342.904297"/>
       <use xlink:href="#DejaVuSans-64" x="395.003906"/>
       <use xlink:href="#DejaVuSans-61" x="458.480469"/>
       <use xlink:href="#DejaVuSans-79" x="519.759766"/>
       <use xlink:href="#DejaVuSans-20" x="578.939453"/>
       <use xlink:href="#DejaVuSans-30" x="610.726562"/>
       <use xlink:href="#DejaVuSans-30" x="674.349609"/>
       <use xlink:href="#DejaVuSans-3a" x="737.972656"/>
       <use xlink:href="#DejaVuSans-30" x="771.664062"/>
       <use xlink:href="#DejaVuSans-30" x="835.287109"/>
      </g>
     </g>
    </g>
    <g id="xtick_10">
     <g id="line2d_19">
      <path d="M 305.066354 354.958125 
L 305.066354 22.318125 
" clip-path="url(#p25b3145e49)" style="fill: none; stroke: #b0b0b0; stroke-width: 0.8; stroke-linecap: square"/>
     </g>
     <g id="line2d_20">
      <g>
       <use xlink:href="#m2e036d93d9" x="305.066354" y="354.958125" style="stroke: #000000; stroke-width: 0.8"/>
      </g>
     </g>
     <g id="text_10">
      <!-- 06:00 -->
      <g transform="translate(283.21786 387.708965) rotate(-45) scale(0.1 -0.1)">
       <use xlink:href="#DejaVuSans-30"/>
       <use xlink:href="#DejaVuSans-36" x="63.623047"/>
       <use xlink:href="#DejaVuSans-3a" x="127.246094"/>
       <use xlink:href="#DejaVuSans-30" x="160.9375"/>
       <use xlink:href="#DejaVuSans-30" x="224.560547"/>
      </g>
     </g>
    </g>
    <g id="xtick_11">
     <g id="line2d_21">
      <path d="M 330.505703 354.958125 
L 330.505703 22.318125 
" clip-path="url(#p25b3145e49)" style="fill: none; stroke: #b0b0b0; stroke-width: 0.8; stroke-linecap: square"/>
     </g>
     <g id="line2d_22">
      <g>
       <use xlink:href="#m2e036d93d9" x="330.505703" y="354.958125" style="stroke: #000000; stroke-width: 0.8"/>
      </g>
     </g>
     <g id="text_11">
      <!-- 12:00 -->
      <g transform="translate(308.657208 387.708965) rotate(-45) scale(0.1 -0.1)">
       <use xlink:href="#DejaVuSans-31"/>
       <use xlink:href="#DejaVuSans-32" x="63.623047"/>
       <use xlink:href="#DejaVuSans-3a" x="127.246094"/>
       <use xlink:href="#DejaVuSans-30" x="160.9375"/>
       <use xlink:href="#DejaVuSans-30" x="224.560547"/>
      </g>
     </g>
    </g>
    <g id="xtick_12">
     <g id="line2d_23">
      <path d="M 355.945052 354.958125 
L 355.945052 22.318125 
" clip-path="url(#p25b3145e49)" style="fill: none; stroke: #b0b0b0; stroke-width: 0.8; stroke-linecap: square"/>
     </g>
     <g id="line2d_24">
      <g>
       <use xlink:href="#m2e036d93d9" x="355.945052" y="354.958125" style="stroke: #000000; stroke-width: 0.8"/>
      </g>
     </g>
     <g id="text_12">
      <!-- 18:00 -->
      <g transform="translate(334.096557 387.708965) rotate(-45) scale(0.1 -0.1)">
       <use xlink:href="#DejaVuSans-31"/>
       <use xlink:href="#DejaVuSans-38" x="63.623047"/>
       <use xlink:href="#DejaVuSans-3a" x="127.246094"/>
       <use xlink:href="#DejaVuSans-30" x="160.9375"/>
       <use xlink:href="#DejaVuSans-30" x="224.560547"/>
      </g>
     </g>
    </g>
    <g id="xtick_13">
     <g id="line2d_25">
      <path d="M 381.3844 354.958125 
L 381.3844 22.318125 
" clip-path="url(#p25b3145e49)" style="fill: none; stroke: #b0b0b0; stroke-width: 0.8; stroke-linecap: square"/>
     </g>
     <g id="line2d_26">
      <g>
       <use xlink:href="#m2e036d93d9" x="381.3844" y="354.958125" style="stroke: #000000; stroke-width: 0.8"/>
      </g>
     </g>
     <g id="text_13">
      <!-- Thursday 00:00 -->
      <g transform="translate(324.409272 422.835599) rotate(-45) scale(0.1 -0.1)">
       <defs>
        <path id="DejaVuSans-68" d="M 3513 2113 
L 3513 0 
L 2938 0 
L 2938 2094 
Q 2938 2591 2744 2837 
Q 2550 3084 2163 3084 
Q 1697 3084 1428 2787 
Q 1159 2491 1159 1978 
L 1159 0 
L 581 0 
L 581 4863 
L 1159 4863 
L 1159 2956 
Q 1366 3272 1645 3428 
Q 1925 3584 2291 3584 
Q 2894 3584 3203 3211 
Q 3513 2838 3513 2113 
z
" transform="scale(0.015625)"/>
        <path id="DejaVuSans-72" d="M 2631 2963 
Q 2534 3019 2420 3045 
Q 2306 3072 2169 3072 
Q 1681 3072 1420 2755 
Q 1159 2438 1159 1844 
L 1159 0 
L 581 0 
L 581 3500 
L 1159 3500 
L 1159 2956 
Q 1341 3275 1631 3429 
Q 1922 3584 2338 3584 
Q 2397 3584 2469 3576 
Q 2541 3569 2628 3553 
L 2631 2963 
z
" transform="scale(0.015625)"/>
       </defs>
       <use xlink:href="#DejaVuSans-54"/>
       <use xlink:href="#DejaVuSans-68" x="61.083984"/>
       <use xlink:href="#DejaVuSans-75" x="124.462891"/>
       <use xlink:href="#DejaVuSans-72" x="187.841797"/>
       <use xlink:href="#DejaVuSans-73" x="228.955078"/>
       <use xlink:href="#DejaVuSans-64" x="281.054688"/>
       <use xlink:href="#DejaVuSans-61" x="344.53125"/>
       <use xlink:href="#DejaVuSans-79" x="405.810547"/>
       <use xlink:href="#DejaVuSans-20" x="464.990234"/>
       <use xlink:href="#DejaVuSans-30" x="496.777344"/>
       <use xlink:href="#DejaVuSans-30" x="560.400391"/>
       <use xlink:href="#DejaVuSans-3a" x="624.023438"/>
       <use xlink:href="#DejaVuSans-30" x="657.714844"/>
       <use xlink:href="#DejaVuSans-30" x="721.337891"/>
      </g>
     </g>
    </g>
    <g id="xtick_14">
     <g id="line2d_27">
      <path d="M 406.823749 354.958125 
L 406.823749 22.318125 
" clip-path="url(#p25b3145e49)" style="fill: none; stroke: #b0b0b0; stroke-width: 0.8; stroke-linecap: square"/>
     </g>
     <g id="line2d_28">
      <g>
       <use xlink:href="#m2e036d93d9" x="406.823749" y="354.958125" style="stroke: #000000; stroke-width: 0.8"/>
      </g>
     </g>
     <g id="text_14">
      <!-- 06:00 -->
      <g transform="translate(384.975254 387.708965) rotate(-45) scale(0.1 -0.1)">
       <use xlink:href="#DejaVuSans-30"/>
       <use xlink:href="#DejaVuSans-36" x="63.623047"/>
       <use xlink:href="#DejaVuSans-3a" x="127.246094"/>
       <use xlink:href="#DejaVuSans-30" x="160.9375"/>
       <use xlink:href="#DejaVuSans-30" x="224.560547"/>
      </g>
     </g>
    </g>
    <g id="xtick_15">
     <g id="line2d_29">
      <path d="M 432.263098 354.958125 
L 432.263098 22.318125 
" clip-path="url(#p25b3145e49)" style="fill: none; stroke: #b0b0b0; stroke-width: 0.8; stroke-linecap: square"/>
     </g>
     <g id="line2d_30">
      <g>
       <use xlink:href="#m2e036d93d9" x="432.263098" y="354.958125" style="stroke: #000000; stroke-width: 0.8"/>
      </g>
     </g>
     <g id="text_15">
      <!-- 12:00 -->
      <g transform="translate(410.414603 387.708965) rotate(-45) scale(0.1 -0.1)">
       <use xlink:href="#DejaVuSans-31"/>
       <use xlink:href="#DejaVuSans-32" x="63.623047"/>
       <use xlink:href="#DejaVuSans-3a" x="127.246094"/>
       <use xlink:href="#DejaVuSans-30" x="160.9375"/>
       <use xlink:href="#DejaVuSans-30" x="224.560547"/>
      </g>
     </g>
    </g>
    <g id="xtick_16">
     <g id="line2d_31">
      <path d="M 457.702447 354.958125 
L 457.702447 22.318125 
" clip-path="url(#p25b3145e49)" style="fill: none; stroke: #b0b0b0; stroke-width: 0.8; stroke-linecap: square"/>
     </g>
     <g id="line2d_32">
      <g>
       <use xlink:href="#m2e036d93d9" x="457.702447" y="354.958125" style="stroke: #000000; stroke-width: 0.8"/>
      </g>
     </g>
     <g id="text_16">
      <!-- 18:00 -->
      <g transform="translate(435.853952 387.708965) rotate(-45) scale(0.1 -0.1)">
       <use xlink:href="#DejaVuSans-31"/>
       <use xlink:href="#DejaVuSans-38" x="63.623047"/>
       <use xlink:href="#DejaVuSans-3a" x="127.246094"/>
       <use xlink:href="#DejaVuSans-30" x="160.9375"/>
       <use xlink:href="#DejaVuSans-30" x="224.560547"/>
      </g>
     </g>
    </g>
    <g id="xtick_17">
     <g id="line2d_33">
      <path d="M 483.141795 354.958125 
L 483.141795 22.318125 
" clip-path="url(#p25b3145e49)" style="fill: none; stroke: #b0b0b0; stroke-width: 0.8; stroke-linecap: square"/>
     </g>
     <g id="line2d_34">
      <g>
       <use xlink:href="#m2e036d93d9" x="483.141795" y="354.958125" style="stroke: #000000; stroke-width: 0.8"/>
      </g>
     </g>
     <g id="text_17">
      <!-- Friday 00:00 -->
      <g transform="translate(437.612957 411.389308) rotate(-45) scale(0.1 -0.1)">
       <defs>
        <path id="DejaVuSans-46" d="M 628 4666 
L 3309 4666 
L 3309 4134 
L 1259 4134 
L 1259 2759 
L 3109 2759 
L 3109 2228 
L 1259 2228 
L 1259 0 
L 628 0 
L 628 4666 
z
" transform="scale(0.015625)"/>
        <path id="DejaVuSans-69" d="M 603 3500 
L 1178 3500 
L 1178 0 
L 603 0 
L 603 3500 
z
M 603 4863 
L 1178 4863 
L 1178 4134 
L 603 4134 
L 603 4863 
z
" transform="scale(0.015625)"/>
       </defs>
       <use xlink:href="#DejaVuSans-46"/>
       <use xlink:href="#DejaVuSans-72" x="50.269531"/>
       <use xlink:href="#DejaVuSans-69" x="91.382812"/>
       <use xlink:href="#DejaVuSans-64" x="119.166016"/>
       <use xlink:href="#DejaVuSans-61" x="182.642578"/>
       <use xlink:href="#DejaVuSans-79" x="243.921875"/>
       <use xlink:href="#DejaVuSans-20" x="303.101562"/>
       <use xlink:href="#DejaVuSans-30" x="334.888672"/>
       <use xlink:href="#DejaVuSans-30" x="398.511719"/>
       <use xlink:href="#DejaVuSans-3a" x="462.134766"/>
       <use xlink:href="#DejaVuSans-30" x="495.826172"/>
       <use xlink:href="#DejaVuSans-30" x="559.449219"/>
      </g>
     </g>
    </g>
    <g id="xtick_18">
     <g id="line2d_35">
      <path d="M 508.581144 354.958125 
L 508.581144 22.318125 
" clip-path="url(#p25b3145e49)" style="fill: none; stroke: #b0b0b0; stroke-width: 0.8; stroke-linecap: square"/>
     </g>
     <g id="line2d_36">
      <g>
       <use xlink:href="#m2e036d93d9" x="508.581144" y="354.958125" style="stroke: #000000; stroke-width: 0.8"/>
      </g>
     </g>
     <g id="text_18">
      <!-- 06:00 -->
      <g transform="translate(486.732649 387.708965) rotate(-45) scale(0.1 -0.1)">
       <use xlink:href="#DejaVuSans-30"/>
       <use xlink:href="#DejaVuSans-36" x="63.623047"/>
       <use xlink:href="#DejaVuSans-3a" x="127.246094"/>
       <use xlink:href="#DejaVuSans-30" x="160.9375"/>
       <use xlink:href="#DejaVuSans-30" x="224.560547"/>
      </g>
     </g>
    </g>
    <g id="xtick_19">
     <g id="line2d_37">
      <path d="M 534.020493 354.958125 
L 534.020493 22.318125 
" clip-path="url(#p25b3145e49)" style="fill: none; stroke: #b0b0b0; stroke-width: 0.8; stroke-linecap: square"/>
     </g>
     <g id="line2d_38">
      <g>
       <use xlink:href="#m2e036d93d9" x="534.020493" y="354.958125" style="stroke: #000000; stroke-width: 0.8"/>
      </g>
     </g>
     <g id="text_19">
      <!-- 12:00 -->
      <g transform="translate(512.171998 387.708965) rotate(-45) scale(0.1 -0.1)">
       <use xlink:href="#DejaVuSans-31"/>
       <use xlink:href="#DejaVuSans-32" x="63.623047"/>
       <use xlink:href="#DejaVuSans-3a" x="127.246094"/>
       <use xlink:href="#DejaVuSans-30" x="160.9375"/>
       <use xlink:href="#DejaVuSans-30" x="224.560547"/>
      </g>
     </g>
    </g>
    <g id="xtick_20">
     <g id="line2d_39">
      <path d="M 559.459841 354.958125 
L 559.459841 22.318125 
" clip-path="url(#p25b3145e49)" style="fill: none; stroke: #b0b0b0; stroke-width: 0.8; stroke-linecap: square"/>
     </g>
     <g id="line2d_40">
      <g>
       <use xlink:href="#m2e036d93d9" x="559.459841" y="354.958125" style="stroke: #000000; stroke-width: 0.8"/>
      </g>
     </g>
     <g id="text_20">
      <!-- 18:00 -->
      <g transform="translate(537.611347 387.708965) rotate(-45) scale(0.1 -0.1)">
       <use xlink:href="#DejaVuSans-31"/>
       <use xlink:href="#DejaVuSans-38" x="63.623047"/>
       <use xlink:href="#DejaVuSans-3a" x="127.246094"/>
       <use xlink:href="#DejaVuSans-30" x="160.9375"/>
       <use xlink:href="#DejaVuSans-30" x="224.560547"/>
      </g>
     </g>
    </g>
    <g id="xtick_21">
     <g id="line2d_41">
      <path d="M 584.89919 354.958125 
L 584.89919 22.318125 
" clip-path="url(#p25b3145e49)" style="fill: none; stroke: #b0b0b0; stroke-width: 0.8; stroke-linecap: square"/>
     </g>
     <g id="line2d_42">
      <g>
       <use xlink:href="#m2e036d93d9" x="584.89919" y="354.958125" style="stroke: #000000; stroke-width: 0.8"/>
      </g>
     </g>
     <g id="text_21">
      <!-- Saturday 00:00 -->
      <g transform="translate(528.937213 421.822448) rotate(-45) scale(0.1 -0.1)">
       <defs>
        <path id="DejaVuSans-53" d="M 3425 4513 
L 3425 3897 
Q 3066 4069 2747 4153 
Q 2428 4238 2131 4238 
Q 1616 4238 1336 4038 
Q 1056 3838 1056 3469 
Q 1056 3159 1242 3001 
Q 1428 2844 1947 2747 
L 2328 2669 
Q 3034 2534 3370 2195 
Q 3706 1856 3706 1288 
Q 3706 609 3251 259 
Q 2797 -91 1919 -91 
Q 1588 -91 1214 -16 
Q 841 59 441 206 
L 441 856 
Q 825 641 1194 531 
Q 1563 422 1919 422 
Q 2459 422 2753 634 
Q 3047 847 3047 1241 
Q 3047 1584 2836 1778 
Q 2625 1972 2144 2069 
L 1759 2144 
Q 1053 2284 737 2584 
Q 422 2884 422 3419 
Q 422 4038 858 4394 
Q 1294 4750 2059 4750 
Q 2388 4750 2728 4690 
Q 3069 4631 3425 4513 
z
" transform="scale(0.015625)"/>
        <path id="DejaVuSans-74" d="M 1172 4494 
L 1172 3500 
L 2356 3500 
L 2356 3053 
L 1172 3053 
L 1172 1153 
Q 1172 725 1289 603 
Q 1406 481 1766 481 
L 2356 481 
L 2356 0 
L 1766 0 
Q 1100 0 847 248 
Q 594 497 594 1153 
L 594 3053 
L 172 3053 
L 172 3500 
L 594 3500 
L 594 4494 
L 1172 4494 
z
" transform="scale(0.015625)"/>
       </defs>
       <use xlink:href="#DejaVuSans-53"/>
       <use xlink:href="#DejaVuSans-61" x="63.476562"/>
       <use xlink:href="#DejaVuSans-74" x="124.755859"/>
       <use xlink:href="#DejaVuSans-75" x="163.964844"/>
       <use xlink:href="#DejaVuSans-72" x="227.34375"/>
       <use xlink:href="#DejaVuSans-64" x="266.707031"/>
       <use xlink:href="#DejaVuSans-61" x="330.183594"/>
       <use xlink:href="#DejaVuSans-79" x="391.462891"/>
       <use xlink:href="#DejaVuSans-20" x="450.642578"/>
       <use xlink:href="#DejaVuSans-30" x="482.429688"/>
       <use xlink:href="#DejaVuSans-30" x="546.052734"/>
       <use xlink:href="#DejaVuSans-3a" x="609.675781"/>
       <use xlink:href="#DejaVuSans-30" x="643.367188"/>
       <use xlink:href="#DejaVuSans-30" x="706.990234"/>
      </g>
     </g>
    </g>
    <g id="xtick_22">
     <g id="line2d_43">
      <path d="M 610.338539 354.958125 
L 610.338539 22.318125 
" clip-path="url(#p25b3145e49)" style="fill: none; stroke: #b0b0b0; stroke-width: 0.8; stroke-linecap: square"/>
     </g>
     <g id="line2d_44">
      <g>
       <use xlink:href="#m2e036d93d9" x="610.338539" y="354.958125" style="stroke: #000000; stroke-width: 0.8"/>
      </g>
     </g>
     <g id="text_22">
      <!-- 06:00 -->
      <g transform="translate(588.490044 387.708965) rotate(-45) scale(0.1 -0.1)">
       <use xlink:href="#DejaVuSans-30"/>
       <use xlink:href="#DejaVuSans-36" x="63.623047"/>
       <use xlink:href="#DejaVuSans-3a" x="127.246094"/>
       <use xlink:href="#DejaVuSans-30" x="160.9375"/>
       <use xlink:href="#DejaVuSans-30" x="224.560547"/>
      </g>
     </g>
    </g>
    <g id="xtick_23">
     <g id="line2d_45">
      <path d="M 635.777888 354.958125 
L 635.777888 22.318125 
" clip-path="url(#p25b3145e49)" style="fill: none; stroke: #b0b0b0; stroke-width: 0.8; stroke-linecap: square"/>
     </g>
     <g id="line2d_46">
      <g>
       <use xlink:href="#m2e036d93d9" x="635.777888" y="354.958125" style="stroke: #000000; stroke-width: 0.8"/>
      </g>
     </g>
     <g id="text_23">
      <!-- 12:00 -->
      <g transform="translate(613.929393 387.708965) rotate(-45) scale(0.1 -0.1)">
       <use xlink:href="#DejaVuSans-31"/>
       <use xlink:href="#DejaVuSans-32" x="63.623047"/>
       <use xlink:href="#DejaVuSans-3a" x="127.246094"/>
       <use xlink:href="#DejaVuSans-30" x="160.9375"/>
       <use xlink:href="#DejaVuSans-30" x="224.560547"/>
      </g>
     </g>
    </g>
    <g id="xtick_24">
     <g id="line2d_47">
      <path d="M 661.217236 354.958125 
L 661.217236 22.318125 
" clip-path="url(#p25b3145e49)" style="fill: none; stroke: #b0b0b0; stroke-width: 0.8; stroke-linecap: square"/>
     </g>
     <g id="line2d_48">
      <g>
       <use xlink:href="#m2e036d93d9" x="661.217236" y="354.958125" style="stroke: #000000; stroke-width: 0.8"/>
      </g>
     </g>
     <g id="text_24">
      <!-- 18:00 -->
      <g transform="translate(639.368742 387.708965) rotate(-45) scale(0.1 -0.1)">
       <use xlink:href="#DejaVuSans-31"/>
       <use xlink:href="#DejaVuSans-38" x="63.623047"/>
       <use xlink:href="#DejaVuSans-3a" x="127.246094"/>
       <use xlink:href="#DejaVuSans-30" x="160.9375"/>
       <use xlink:href="#DejaVuSans-30" x="224.560547"/>
      </g>
     </g>
    </g>
    <g id="xtick_25">
     <g id="line2d_49">
      <path d="M 686.656585 354.958125 
L 686.656585 22.318125 
" clip-path="url(#p25b3145e49)" style="fill: none; stroke: #b0b0b0; stroke-width: 0.8; stroke-linecap: square"/>
     </g>
     <g id="line2d_50">
      <g>
       <use xlink:href="#m2e036d93d9" x="686.656585" y="354.958125" style="stroke: #000000; stroke-width: 0.8"/>
      </g>
     </g>
     <g id="text_25">
      <!-- Sunday 00:00 -->
      <g transform="translate(636.101765 416.415291) rotate(-45) scale(0.1 -0.1)">
       <use xlink:href="#DejaVuSans-53"/>
       <use xlink:href="#DejaVuSans-75" x="63.476562"/>
       <use xlink:href="#DejaVuSans-6e" x="126.855469"/>
       <use xlink:href="#DejaVuSans-64" x="190.234375"/>
       <use xlink:href="#DejaVuSans-61" x="253.710938"/>
       <use xlink:href="#DejaVuSans-79" x="314.990234"/>
       <use xlink:href="#DejaVuSans-20" x="374.169922"/>
       <use xlink:href="#DejaVuSans-30" x="405.957031"/>
       <use xlink:href="#DejaVuSans-30" x="469.580078"/>
       <use xlink:href="#DejaVuSans-3a" x="533.203125"/>
       <use xlink:href="#DejaVuSans-30" x="566.894531"/>
       <use xlink:href="#DejaVuSans-30" x="630.517578"/>
      </g>
     </g>
    </g>
    <g id="xtick_26">
     <g id="line2d_51">
      <path d="M 712.095934 354.958125 
L 712.095934 22.318125 
" clip-path="url(#p25b3145e49)" style="fill: none; stroke: #b0b0b0; stroke-width: 0.8; stroke-linecap: square"/>
     </g>
     <g id="line2d_52">
      <g>
       <use xlink:href="#m2e036d93d9" x="712.095934" y="354.958125" style="stroke: #000000; stroke-width: 0.8"/>
      </g>
     </g>
     <g id="text_26">
      <!-- 06:00 -->
      <g transform="translate(690.247439 387.708965) rotate(-45) scale(0.1 -0.1)">
       <use xlink:href="#DejaVuSans-30"/>
       <use xlink:href="#DejaVuSans-36" x="63.623047"/>
       <use xlink:href="#DejaVuSans-3a" x="127.246094"/>
       <use xlink:href="#DejaVuSans-30" x="160.9375"/>
       <use xlink:href="#DejaVuSans-30" x="224.560547"/>
      </g>
     </g>
    </g>
    <g id="xtick_27">
     <g id="line2d_53">
      <path d="M 737.535282 354.958125 
L 737.535282 22.318125 
" clip-path="url(#p25b3145e49)" style="fill: none; stroke: #b0b0b0; stroke-width: 0.8; stroke-linecap: square"/>
     </g>
     <g id="line2d_54">
      <g>
       <use xlink:href="#m2e036d93d9" x="737.535282" y="354.958125" style="stroke: #000000; stroke-width: 0.8"/>
      </g>
     </g>
     <g id="text_27">
      <!-- 12:00 -->
      <g transform="translate(715.686788 387.708965) rotate(-45) scale(0.1 -0.1)">
       <use xlink:href="#DejaVuSans-31"/>
       <use xlink:href="#DejaVuSans-32" x="63.623047"/>
       <use xlink:href="#DejaVuSans-3a" x="127.246094"/>
       <use xlink:href="#DejaVuSans-30" x="160.9375"/>
       <use xlink:href="#DejaVuSans-30" x="224.560547"/>
      </g>
     </g>
    </g>
    <g id="xtick_28">
     <g id="line2d_55">
      <path d="M 762.974631 354.958125 
L 762.974631 22.318125 
" clip-path="url(#p25b3145e49)" style="fill: none; stroke: #b0b0b0; stroke-width: 0.8; stroke-linecap: square"/>
     </g>
     <g id="line2d_56">
      <g>
       <use xlink:href="#m2e036d93d9" x="762.974631" y="354.958125" style="stroke: #000000; stroke-width: 0.8"/>
      </g>
     </g>
     <g id="text_28">
      <!-- 18:00 -->
      <g transform="translate(741.126136 387.708965) rotate(-45) scale(0.1 -0.1)">
       <use xlink:href="#DejaVuSans-31"/>
       <use xlink:href="#DejaVuSans-38" x="63.623047"/>
       <use xlink:href="#DejaVuSans-3a" x="127.246094"/>
       <use xlink:href="#DejaVuSans-30" x="160.9375"/>
       <use xlink:href="#DejaVuSans-30" x="224.560547"/>
      </g>
     </g>
    </g>
    <g id="text_29">
     <!-- Time -->
     <g transform="translate(418.969531 443.964511) scale(0.1 -0.1)">
      <defs>
       <path id="DejaVuSans-6d" d="M 3328 2828 
Q 3544 3216 3844 3400 
Q 4144 3584 4550 3584 
Q 5097 3584 5394 3201 
Q 5691 2819 5691 2113 
L 5691 0 
L 5113 0 
L 5113 2094 
Q 5113 2597 4934 2840 
Q 4756 3084 4391 3084 
Q 3944 3084 3684 2787 
Q 3425 2491 3425 1978 
L 3425 0 
L 2847 0 
L 2847 2094 
Q 2847 2600 2669 2842 
Q 2491 3084 2119 3084 
Q 1678 3084 1418 2786 
Q 1159 2488 1159 1978 
L 1159 0 
L 581 0 
L 581 3500 
L 1159 3500 
L 1159 2956 
Q 1356 3278 1631 3431 
Q 1906 3584 2284 3584 
Q 2666 3584 2933 3390 
Q 3200 3197 3328 2828 
z
" transform="scale(0.015625)"/>
      </defs>
      <use xlink:href="#DejaVuSans-54"/>
      <use xlink:href="#DejaVuSans-69" x="57.958984"/>
      <use xlink:href="#DejaVuSans-6d" x="85.742188"/>
      <use xlink:href="#DejaVuSans-65" x="183.154297"/>
     </g>
    </g>
   </g>
   <g id="matplotlib.axis_2">
    <g id="ytick_1">
     <g id="line2d_57">
      <path d="M 40.603125 337.763277 
L 821.803125 337.763277 
" clip-path="url(#p25b3145e49)" style="fill: none; stroke: #b0b0b0; stroke-width: 0.8; stroke-linecap: square"/>
     </g>
     <g id="line2d_58">
      <defs>
       <path id="m9e62f1988b" d="M 0 0 
L -3.5 0 
" style="stroke: #000000; stroke-width: 0.8"/>
      </defs>
      <g>
       <use xlink:href="#m9e62f1988b" x="40.603125" y="337.763277" style="stroke: #000000; stroke-width: 0.8"/>
      </g>
     </g>
     <g id="text_30">
      <!-- 0 -->
      <g transform="translate(27.240625 341.562496) scale(0.1 -0.1)">
       <use xlink:href="#DejaVuSans-30"/>
      </g>
     </g>
    </g>
    <g id="ytick_2">
     <g id="line2d_59">
      <path d="M 40.603125 274.244408 
L 821.803125 274.244408 
" clip-path="url(#p25b3145e49)" style="fill: none; stroke: #b0b0b0; stroke-width: 0.8; stroke-linecap: square"/>
     </g>
     <g id="line2d_60">
      <g>
       <use xlink:href="#m9e62f1988b" x="40.603125" y="274.244408" style="stroke: #000000; stroke-width: 0.8"/>
      </g>
     </g>
     <g id="text_31">
      <!-- 20 -->
      <g transform="translate(20.878125 278.043627) scale(0.1 -0.1)">
       <use xlink:href="#DejaVuSans-32"/>
       <use xlink:href="#DejaVuSans-30" x="63.623047"/>
      </g>
     </g>
    </g>
    <g id="ytick_3">
     <g id="line2d_61">
      <path d="M 40.603125 210.725539 
L 821.803125 210.725539 
" clip-path="url(#p25b3145e49)" style="fill: none; stroke: #b0b0b0; stroke-width: 0.8; stroke-linecap: square"/>
     </g>
     <g id="line2d_62">
      <g>
       <use xlink:href="#m9e62f1988b" x="40.603125" y="210.725539" style="stroke: #000000; stroke-width: 0.8"/>
      </g>
     </g>
     <g id="text_32">
      <!-- 40 -->
      <g transform="translate(20.878125 214.524758) scale(0.1 -0.1)">
       <defs>
        <path id="DejaVuSans-34" d="M 2419 4116 
L 825 1625 
L 2419 1625 
L 2419 4116 
z
M 2253 4666 
L 3047 4666 
L 3047 1625 
L 3713 1625 
L 3713 1100 
L 3047 1100 
L 3047 0 
L 2419 0 
L 2419 1100 
L 313 1100 
L 313 1709 
L 2253 4666 
z
" transform="scale(0.015625)"/>
       </defs>
       <use xlink:href="#DejaVuSans-34"/>
       <use xlink:href="#DejaVuSans-30" x="63.623047"/>
      </g>
     </g>
    </g>
    <g id="ytick_4">
     <g id="line2d_63">
      <path d="M 40.603125 147.20667 
L 821.803125 147.20667 
" clip-path="url(#p25b3145e49)" style="fill: none; stroke: #b0b0b0; stroke-width: 0.8; stroke-linecap: square"/>
     </g>
     <g id="line2d_64">
      <g>
       <use xlink:href="#m9e62f1988b" x="40.603125" y="147.20667" style="stroke: #000000; stroke-width: 0.8"/>
      </g>
     </g>
     <g id="text_33">
      <!-- 60 -->
      <g transform="translate(20.878125 151.005889) scale(0.1 -0.1)">
       <use xlink:href="#DejaVuSans-36"/>
       <use xlink:href="#DejaVuSans-30" x="63.623047"/>
      </g>
     </g>
    </g>
    <g id="ytick_5">
     <g id="line2d_65">
      <path d="M 40.603125 83.687801 
L 821.803125 83.687801 
" clip-path="url(#p25b3145e49)" style="fill: none; stroke: #b0b0b0; stroke-width: 0.8; stroke-linecap: square"/>
     </g>
     <g id="line2d_66">
      <g>
       <use xlink:href="#m9e62f1988b" x="40.603125" y="83.687801" style="stroke: #000000; stroke-width: 0.8"/>
      </g>
     </g>
     <g id="text_34">
      <!-- 80 -->
      <g transform="translate(20.878125 87.48702) scale(0.1 -0.1)">
       <use xlink:href="#DejaVuSans-38"/>
       <use xlink:href="#DejaVuSans-30" x="63.623047"/>
      </g>
     </g>
    </g>
    <g id="text_35">
     <!-- Power Usage (Wh/m^2, P1) -->
     <g transform="translate(14.798438 257.823281) rotate(-90) scale(0.1 -0.1)">
      <defs>
       <path id="DejaVuSans-50" d="M 1259 4147 
L 1259 2394 
L 2053 2394 
Q 2494 2394 2734 2622 
Q 2975 2850 2975 3272 
Q 2975 3691 2734 3919 
Q 2494 4147 2053 4147 
L 1259 4147 
z
M 628 4666 
L 2053 4666 
Q 2838 4666 3239 4311 
Q 3641 3956 3641 3272 
Q 3641 2581 3239 2228 
Q 2838 1875 2053 1875 
L 1259 1875 
L 1259 0 
L 628 0 
L 628 4666 
z
" transform="scale(0.015625)"/>
       <path id="DejaVuSans-77" d="M 269 3500 
L 844 3500 
L 1563 769 
L 2278 3500 
L 2956 3500 
L 3675 769 
L 4391 3500 
L 4966 3500 
L 4050 0 
L 3372 0 
L 2619 2869 
L 1863 0 
L 1184 0 
L 269 3500 
z
" transform="scale(0.015625)"/>
       <path id="DejaVuSans-55" d="M 556 4666 
L 1191 4666 
L 1191 1831 
Q 1191 1081 1462 751 
Q 1734 422 2344 422 
Q 2950 422 3222 751 
Q 3494 1081 3494 1831 
L 3494 4666 
L 4128 4666 
L 4128 1753 
Q 4128 841 3676 375 
Q 3225 -91 2344 -91 
Q 1459 -91 1007 375 
Q 556 841 556 1753 
L 556 4666 
z
" transform="scale(0.015625)"/>
       <path id="DejaVuSans-67" d="M 2906 1791 
Q 2906 2416 2648 2759 
Q 2391 3103 1925 3103 
Q 1463 3103 1205 2759 
Q 947 2416 947 1791 
Q 947 1169 1205 825 
Q 1463 481 1925 481 
Q 2391 481 2648 825 
Q 2906 1169 2906 1791 
z
M 3481 434 
Q 3481 -459 3084 -895 
Q 2688 -1331 1869 -1331 
Q 1566 -1331 1297 -1286 
Q 1028 -1241 775 -1147 
L 775 -588 
Q 1028 -725 1275 -790 
Q 1522 -856 1778 -856 
Q 2344 -856 2625 -561 
Q 2906 -266 2906 331 
L 2906 616 
Q 2728 306 2450 153 
Q 2172 0 1784 0 
Q 1141 0 747 490 
Q 353 981 353 1791 
Q 353 2603 747 3093 
Q 1141 3584 1784 3584 
Q 2172 3584 2450 3431 
Q 2728 3278 2906 2969 
L 2906 3500 
L 3481 3500 
L 3481 434 
z
" transform="scale(0.015625)"/>
       <path id="DejaVuSans-28" d="M 1984 4856 
Q 1566 4138 1362 3434 
Q 1159 2731 1159 2009 
Q 1159 1288 1364 580 
Q 1569 -128 1984 -844 
L 1484 -844 
Q 1016 -109 783 600 
Q 550 1309 550 2009 
Q 550 2706 781 3412 
Q 1013 4119 1484 4856 
L 1984 4856 
z
" transform="scale(0.015625)"/>
       <path id="DejaVuSans-2f" d="M 1625 4666 
L 2156 4666 
L 531 -594 
L 0 -594 
L 1625 4666 
z
" transform="scale(0.015625)"/>
       <path id="DejaVuSans-5e" d="M 2988 4666 
L 4684 2925 
L 4056 2925 
L 2681 4159 
L 1306 2925 
L 678 2925 
L 2375 4666 
L 2988 4666 
z
" transform="scale(0.015625)"/>
       <path id="DejaVuSans-2c" d="M 750 794 
L 1409 794 
L 1409 256 
L 897 -744 
L 494 -744 
L 750 256 
L 750 794 
z
" transform="scale(0.015625)"/>
       <path id="DejaVuSans-29" d="M 513 4856 
L 1013 4856 
Q 1481 4119 1714 3412 
Q 1947 2706 1947 2009 
Q 1947 1309 1714 600 
Q 1481 -109 1013 -844 
L 513 -844 
Q 928 -128 1133 580 
Q 1338 1288 1338 2009 
Q 1338 2731 1133 3434 
Q 928 4138 513 4856 
z
" transform="scale(0.015625)"/>
      </defs>
      <use xlink:href="#DejaVuSans-50"/>
      <use xlink:href="#DejaVuSans-6f" x="56.677734"/>
      <use xlink:href="#DejaVuSans-77" x="117.859375"/>
      <use xlink:href="#DejaVuSans-65" x="199.646484"/>
      <use xlink:href="#DejaVuSans-72" x="261.169922"/>
      <use xlink:href="#DejaVuSans-20" x="302.283203"/>
      <use xlink:href="#DejaVuSans-55" x="334.070312"/>
      <use xlink:href="#DejaVuSans-73" x="407.263672"/>
      <use xlink:href="#DejaVuSans-61" x="459.363281"/>
      <use xlink:href="#DejaVuSans-67" x="520.642578"/>
      <use xlink:href="#DejaVuSans-65" x="584.119141"/>
      <use xlink:href="#DejaVuSans-20" x="645.642578"/>
      <use xlink:href="#DejaVuSans-28" x="677.429688"/>
      <use xlink:href="#DejaVuSans-57" x="716.443359"/>
      <use xlink:href="#DejaVuSans-68" x="815.320312"/>
      <use xlink:href="#DejaVuSans-2f" x="878.699219"/>
      <use xlink:href="#DejaVuSans-6d" x="912.390625"/>
      <use xlink:href="#DejaVuSans-5e" x="1009.802734"/>
      <use xlink:href="#DejaVuSans-32" x="1093.591797"/>
      <use xlink:href="#DejaVuSans-2c" x="1157.214844"/>
      <use xlink:href="#DejaVuSans-20" x="1189.001953"/>
      <use xlink:href="#DejaVuSans-50" x="1220.789062"/>
      <use xlink:href="#DejaVuSans-31" x="1281.091797"/>
      <use xlink:href="#DejaVuSans-29" x="1344.714844"/>
     </g>
    </g>
   </g>
   <g id="line2d_67">
    <path d="M 76.112216 330.482319 
L 78.232162 330.442238 
L 80.352107 330.602578 
L 82.472053 330.573934 
L 86.711945 331.054266 
L 101.551565 331.10589 
L 105.791456 330.797656 
L 107.911402 330.22239 
L 110.031348 329.182393 
L 112.151293 326.251379 
L 114.271239 321.996709 
L 116.391185 316.773199 
L 120.631076 315.984366 
L 122.751022 316.004424 
L 124.870968 315.047507 
L 126.990913 315.519513 
L 131.230805 315.104915 
L 133.350751 315.584147 
L 135.470696 315.174119 
L 137.590642 315.429239 
L 139.710588 314.877658 
L 141.830533 315.481668 
L 143.950479 315.756229 
L 146.070425 315.41174 
L 148.190371 315.685278 
L 150.310316 315.787091 
L 152.430262 317.152682 
L 154.550208 319.954759 
L 156.670153 321.75695 
L 160.910045 327.01393 
L 163.029991 328.319454 
L 167.269882 329.720031 
L 171.509774 330.255733 
L 173.629719 330.227593 
L 175.749665 330.428894 
L 179.989556 330.445827 
L 182.109502 330.646904 
L 184.229448 330.664645 
L 186.349394 330.911183 
L 188.469339 330.56046 
L 190.589285 331.024224 
L 192.709231 331.127464 
L 194.829177 331.083984 
L 196.949122 331.205736 
L 201.189014 331.133768 
L 203.308959 331.074915 
L 205.428905 330.869152 
L 207.548851 330.852103 
L 209.668797 330.396503 
L 211.788742 329.074824 
L 216.028634 321.877481 
L 218.14858 316.789849 
L 220.268525 315.726319 
L 222.388471 315.38029 
L 224.508417 314.569074 
L 226.628362 315.024308 
L 228.748308 314.904408 
L 230.868254 315.437954 
L 232.9882 314.806958 
L 235.108145 315.033138 
L 237.228091 315.135132 
L 239.348037 315.035711 
L 241.467983 314.799768 
L 243.587928 315.14068 
L 245.707874 315.263241 
L 247.82782 315.074917 
L 249.947765 315.031552 
L 252.067711 315.311382 
L 254.187657 315.884262 
L 256.307603 318.716215 
L 258.427548 321.347602 
L 260.547494 324.625309 
L 262.66744 326.439227 
L 266.907331 329.416974 
L 271.147223 330.36102 
L 273.267168 330.62461 
L 283.866897 330.984123 
L 285.986843 330.791597 
L 288.106789 331.037503 
L 305.066354 330.938146 
L 309.306246 330.57039 
L 311.426191 330.156954 
L 313.546137 328.886799 
L 315.666083 326.183541 
L 317.786029 321.937809 
L 319.905974 316.509343 
L 322.02592 315.385608 
L 324.145866 315.730729 
L 326.265812 315.893841 
L 328.385757 314.716052 
L 332.625649 315.639193 
L 334.745594 315.080583 
L 336.86554 315.116417 
L 338.985486 314.783438 
L 343.225377 315.543902 
L 345.345323 315.636717 
L 347.465269 315.218527 
L 349.585215 315.376526 
L 351.70516 315.342704 
L 353.825106 315.537659 
L 355.945052 316.348345 
L 358.064997 319.733966 
L 360.184943 321.678185 
L 362.304889 324.028176 
L 364.424835 326.549198 
L 366.54478 327.54781 
L 368.664726 329.291435 
L 370.784672 329.77322 
L 372.904618 330.103018 
L 379.264455 330.110021 
L 381.3844 330.449023 
L 385.624292 330.847392 
L 391.984129 330.864355 
L 398.343966 331.248311 
L 408.943695 331.139884 
L 411.063641 330.947237 
L 413.183586 330.14519 
L 415.303532 328.30731 
L 417.423478 325.29976 
L 419.543424 321.393354 
L 421.663369 316.748378 
L 423.783315 315.728714 
L 425.903261 315.820344 
L 428.023206 315.148479 
L 430.143152 315.223004 
L 432.263098 315.515343 
L 434.383044 314.833091 
L 436.502989 314.386891 
L 438.622935 314.664348 
L 440.742881 314.299764 
L 442.862826 314.810958 
L 444.982772 314.679167 
L 447.102718 315.14139 
L 449.222664 314.699411 
L 451.342609 314.955812 
L 455.582501 315.161921 
L 457.702447 316.173305 
L 459.822392 318.814718 
L 461.942338 321.14513 
L 464.062284 324.402247 
L 468.302175 327.599672 
L 470.422121 328.296668 
L 472.542067 329.307165 
L 474.662012 329.449303 
L 476.781958 329.800552 
L 478.901904 329.947004 
L 483.141795 330.497097 
L 487.381687 330.983496 
L 489.501632 330.848754 
L 493.741524 331.042483 
L 495.86147 331.167835 
L 497.981415 331.104407 
L 500.101361 331.212871 
L 508.581144 330.930953 
L 510.70109 330.840712 
L 512.821035 330.867308 
L 514.940981 330.150768 
L 517.060927 328.471927 
L 519.180873 324.892783 
L 521.300818 320.678987 
L 523.420764 315.700332 
L 525.54071 315.522182 
L 527.660656 314.724893 
L 529.780601 314.259743 
L 531.900547 314.396708 
L 534.020493 314.313742 
L 536.140438 314.9059 
L 538.260384 314.884737 
L 540.38033 314.170909 
L 542.500276 314.399676 
L 546.740167 314.076115 
L 548.860113 314.088553 
L 553.100004 314.487638 
L 555.21995 314.40015 
L 559.459841 315.58065 
L 561.579787 317.414483 
L 563.699733 319.454156 
L 565.819679 322.420747 
L 574.299461 328.590262 
L 576.419407 329.226406 
L 578.539353 329.604607 
L 580.659299 329.769609 
L 584.89919 330.372657 
L 589.139082 330.501104 
L 603.978702 331.048759 
L 610.338539 331.039475 
L 614.57843 330.782488 
L 616.698376 330.020757 
L 618.818322 328.317832 
L 620.938267 325.468595 
L 623.058213 320.433795 
L 625.178159 315.791839 
L 627.298105 315.71935 
L 629.41805 315.240623 
L 631.537996 314.460677 
L 633.657942 314.457846 
L 635.777888 314.668181 
L 637.897833 314.533031 
L 640.017779 314.757159 
L 642.137725 314.299549 
L 644.25767 314.23358 
L 646.377616 314.762684 
L 650.617508 314.733831 
L 652.737453 314.711662 
L 654.857399 314.242378 
L 656.977345 314.852197 
L 659.097291 317.373465 
L 663.337182 321.200502 
L 665.457128 322.329915 
L 667.577073 323.735657 
L 669.697019 324.72849 
L 671.816965 326.740635 
L 673.936911 327.440473 
L 676.056856 329.166912 
L 678.176802 329.403114 
L 680.296748 329.327264 
L 686.656585 329.955302 
L 688.776531 329.851984 
L 695.136368 330.175786 
L 697.256314 330.472013 
L 699.376259 330.558504 
L 701.496205 330.444833 
L 705.736097 331.034678 
L 707.856042 330.973257 
L 709.975988 331.101111 
L 716.335825 330.862863 
L 718.455771 330.496529 
L 720.575717 329.423801 
L 722.695662 327.061781 
L 724.815608 323.433029 
L 726.935554 316.876908 
L 729.055499 316.059521 
L 731.175445 315.598782 
L 733.295391 315.342484 
L 735.415337 315.223513 
L 737.535282 314.97546 
L 739.655228 315.281778 
L 741.775174 315.088939 
L 743.89512 315.163871 
L 746.015065 315.390574 
L 748.135011 315.839257 
L 750.254957 316.051366 
L 752.374902 317.899806 
L 754.494848 319.241278 
L 758.73474 321.456905 
L 760.854685 323.229112 
L 762.974631 324.100947 
L 765.094577 325.797444 
L 767.214523 327.235124 
L 769.334468 327.571126 
L 775.694305 329.145162 
L 777.814251 329.775795 
L 779.934197 329.957192 
L 782.054143 329.97444 
L 784.174088 330.342557 
L 786.294034 330.387057 
L 786.294034 330.387057 
" clip-path="url(#p25b3145e49)" style="fill: none; stroke: #ff0000; stroke-opacity: 0.4; stroke-width: 1.5; stroke-linecap: square"/>
   </g>
   <g id="line2d_68">
    <path d="M 76.112216 325.787324 
L 78.232162 325.919655 
L 80.352107 324.067021 
L 82.472053 324.133186 
L 84.591999 303.621885 
L 86.711945 324.265517 
L 90.951836 324.331683 
L 93.071782 324.927172 
L 95.191727 325.721158 
L 97.311673 325.787324 
L 99.431619 327.242964 
L 101.551565 327.242964 
L 103.67151 327.375295 
L 105.791456 326.382813 
L 107.911402 325.654993 
L 112.151293 325.787324 
L 114.271239 304.018878 
L 116.391185 317.516638 
L 118.51113 282.779756 
L 120.631076 290.984277 
L 122.751022 239.507527 
L 124.870968 240.301513 
L 126.990913 277.486517 
L 129.110859 303.621885 
L 131.230805 318.50912 
L 133.350751 283.176749 
L 135.470696 317.318141 
L 137.590642 317.979796 
L 139.710588 317.582803 
L 141.830533 317.648968 
L 143.950479 283.904569 
L 146.070425 274.442905 
L 148.190371 284.63239 
L 150.310316 277.221855 
L 152.430262 319.104609 
L 154.550208 325.919655 
L 156.670153 325.98582 
L 158.790099 296.542178 
L 160.910045 325.456496 
L 169.389828 325.721158 
L 171.509774 326.184316 
L 173.629719 325.787324 
L 175.749665 325.787324 
L 177.869611 325.919655 
L 179.989556 327.30913 
L 182.109502 303.754216 
L 184.229448 327.30913 
L 186.349394 327.375295 
L 188.469339 327.30913 
L 190.589285 326.051986 
L 192.709231 325.654993 
L 194.829177 325.721158 
L 196.949122 326.118151 
L 199.069068 325.721158 
L 201.189014 326.118151 
L 203.308959 325.787324 
L 205.428905 325.853489 
L 207.548851 327.242964 
L 209.668797 327.375295 
L 211.788742 306.996325 
L 213.908688 309.245951 
L 216.028634 287.676002 
L 218.14858 206.954106 
L 220.268525 250.75566 
L 222.388471 227.663904 
L 224.508417 158.123976 
L 226.628362 231.236841 
L 228.748308 246.190241 
L 230.868254 160.505933 
L 232.9882 136.884854 
L 235.108145 230.707517 
L 237.228091 182.40671 
L 239.348037 244.271442 
L 241.467983 248.638364 
L 243.587928 315.002349 
L 245.707874 318.906113 
L 247.82782 259.357173 
L 249.947765 261.937627 
L 252.067711 161.43225 
L 254.187657 169.570605 
L 256.307603 321.685063 
L 258.427548 324.265517 
L 260.547494 293.763227 
L 262.66744 324.331683 
L 264.787386 326.250482 
L 266.907331 325.787324 
L 271.147223 325.853489 
L 273.267168 326.978302 
L 275.387114 327.441461 
L 279.627006 327.375295 
L 281.746951 299.58579 
L 283.866897 327.375295 
L 285.986843 325.721158 
L 292.34668 325.787324 
L 296.586571 325.853489 
L 298.706517 326.316647 
L 300.826463 326.051986 
L 302.946409 327.375295 
L 305.066354 327.30913 
L 307.1863 327.441461 
L 311.426191 327.507626 
L 313.546137 326.647475 
L 315.666083 232.692481 
L 317.786029 297.799322 
L 319.905974 216.415771 
L 322.02592 238.316548 
L 324.145866 221.775176 
L 326.265812 233.486467 
L 328.385757 209.997719 
L 330.505703 200.999212 
L 332.625649 227.531573 
L 334.745594 174.268355 
L 336.86554 238.316548 
L 338.985486 264.584247 
L 341.105432 225.67894 
L 343.225377 245.594752 
L 345.345323 206.02779 
L 347.465269 225.480443 
L 349.585215 215.55562 
L 351.70516 316.259493 
L 353.825106 283.242914 
L 355.945052 169.702936 
L 358.064997 319.700099 
L 360.184943 324.464014 
L 364.424835 324.397848 
L 366.54478 296.939171 
L 368.664726 325.721158 
L 372.904618 325.787324 
L 375.024563 326.382813 
L 377.144509 325.787324 
L 389.864183 325.853489 
L 391.984129 303.555719 
L 394.104075 325.787324 
L 396.224021 325.853489 
L 398.343966 325.787324 
L 400.463912 326.316647 
L 402.583858 325.787324 
L 404.703803 244.848405 
L 455.582501 244.848405 
L 457.702447 264.518081 
L 459.822392 325.125669 
L 461.942338 327.30913 
L 464.062284 327.375295 
L 466.182229 327.30913 
L 470.422121 327.375295 
L 472.542067 327.30913 
L 474.662012 297.203833 
L 476.781958 327.375295 
L 478.901904 327.441461 
L 481.02185 327.375295 
L 483.141795 327.441461 
L 485.261741 327.375295 
L 487.381687 327.441461 
L 491.621578 327.375295 
L 493.741524 327.441461 
L 497.981415 327.30913 
L 504.341253 327.441461 
L 506.461198 327.441461 
L 508.581144 307.922642 
L 510.70109 327.375295 
L 517.060927 327.441461 
L 519.180873 323.736193 
L 521.300818 267.297032 
L 523.420764 156.932997 
L 525.54071 246.719565 
L 527.660656 282.118101 
L 529.780601 275.83238 
L 531.900547 106.250233 
L 534.020493 73.829144 
L 536.140438 154.154047 
L 538.260384 122.394612 
L 540.38033 220.98119 
L 542.500276 305.408353 
L 544.620221 159.116458 
L 546.740167 237.919555 
L 548.860113 226.009767 
L 550.980059 149.2578 
L 553.100004 263.790261 
L 555.21995 129.341988 
L 557.339896 199.874399 
L 559.459841 260.548152 
L 561.579787 291.579766 
L 563.699733 325.919655 
L 567.939624 325.853489 
L 570.05957 326.515144 
L 572.179516 297.005336 
L 574.299461 327.375295 
L 595.498919 327.441461 
L 597.618864 306.136173 
L 599.73881 325.588827 
L 601.858756 327.30913 
L 606.098647 327.375295 
L 616.698376 327.441461 
L 618.818322 327.507626 
L 620.938267 253.336114 
L 623.058213 213.769152 
L 625.178159 154.418709 
L 627.298105 55.898296 
L 629.41805 135.561544 
L 631.537996 189.15559 
L 633.657942 208.475913 
L 635.777888 225.348112 
L 637.897833 141.05328 
L 640.017779 37.438125 
L 642.137725 103.537448 
L 644.25767 139.399143 
L 646.377616 273.913581 
L 648.497562 277.685013 
L 650.617508 121.203633 
L 652.737453 149.919455 
L 654.857399 152.036751 
L 656.977345 270.605306 
L 659.097291 238.316548 
L 661.217236 324.464014 
L 663.337182 325.98582 
L 665.457128 325.787324 
L 667.577073 296.21135 
L 669.697019 325.787324 
L 671.816965 325.98582 
L 690.896476 325.98582 
L 693.016422 301.438424 
L 695.136368 325.98582 
L 697.256314 326.382813 
L 699.376259 326.581309 
L 701.496205 326.382813 
L 705.736097 326.382813 
L 707.856042 326.581309 
L 709.975988 263.341032 
L 748.135011 263.341032 
L 750.254957 284.103066 
L 752.374902 325.191834 
L 756.614794 324.993338 
L 758.73474 325.125669 
L 760.854685 324.993338 
L 762.974631 325.059503 
L 765.094577 326.515144 
L 767.214523 296.674509 
L 769.334468 326.581309 
L 771.454414 326.382813 
L 773.57436 326.515144 
L 777.814251 326.448978 
L 782.054143 326.515144 
L 786.294034 326.647475 
L 786.294034 326.647475 
" clip-path="url(#p25b3145e49)" style="fill: none; stroke: #0000ff; stroke-width: 1.5; stroke-linecap: square"/>
   </g>
   <g id="patch_11">
    <path d="M 40.603125 354.958125 
L 40.603125 22.318125 
" style="fill: none; stroke: #000000; stroke-width: 0.8; stroke-linejoin: miter; stroke-linecap: square"/>
   </g>
   <g id="patch_12">
    <path d="M 821.803125 354.958125 
L 821.803125 22.318125 
" style="fill: none; stroke: #000000; stroke-width: 0.8; stroke-linejoin: miter; stroke-linecap: square"/>
   </g>
   <g id="patch_13">
    <path d="M 40.603125 354.958125 
L 821.803125 354.958125 
" style="fill: none; stroke: #000000; stroke-width: 0.8; stroke-linejoin: miter; stroke-linecap: square"/>
   </g>
   <g id="patch_14">
    <path d="M 40.603125 22.318125 
L 821.803125 22.318125 
" style="fill: none; stroke: #000000; stroke-width: 0.8; stroke-linejoin: miter; stroke-linecap: square"/>
   </g>
   <g id="text_36">
    <!-- benchmarkdata for "Hairdresser" Market sector using 46 sampled meters, constructed with 965,648 samples -->
    <g transform="translate(102.78375 16.318125) scale(0.12 -0.12)">
     <defs>
      <path id="DejaVuSans-62" d="M 3116 1747 
Q 3116 2381 2855 2742 
Q 2594 3103 2138 3103 
Q 1681 3103 1420 2742 
Q 1159 2381 1159 1747 
Q 1159 1113 1420 752 
Q 1681 391 2138 391 
Q 2594 391 2855 752 
Q 3116 1113 3116 1747 
z
M 1159 2969 
Q 1341 3281 1617 3432 
Q 1894 3584 2278 3584 
Q 2916 3584 3314 3078 
Q 3713 2572 3713 1747 
Q 3713 922 3314 415 
Q 2916 -91 2278 -91 
Q 1894 -91 1617 61 
Q 1341 213 1159 525 
L 1159 0 
L 581 0 
L 581 4863 
L 1159 4863 
L 1159 2969 
z
" transform="scale(0.015625)"/>
      <path id="DejaVuSans-63" d="M 3122 3366 
L 3122 2828 
Q 2878 2963 2633 3030 
Q 2388 3097 2138 3097 
Q 1578 3097 1268 2742 
Q 959 2388 959 1747 
Q 959 1106 1268 751 
Q 1578 397 2138 397 
Q 2388 397 2633 464 
Q 2878 531 3122 666 
L 3122 134 
Q 2881 22 2623 -34 
Q 2366 -91 2075 -91 
Q 1284 -91 818 406 
Q 353 903 353 1747 
Q 353 2603 823 3093 
Q 1294 3584 2113 3584 
Q 2378 3584 2631 3529 
Q 2884 3475 3122 3366 
z
" transform="scale(0.015625)"/>
      <path id="DejaVuSans-6b" d="M 581 4863 
L 1159 4863 
L 1159 1991 
L 2875 3500 
L 3609 3500 
L 1753 1863 
L 3688 0 
L 2938 0 
L 1159 1709 
L 1159 0 
L 581 0 
L 581 4863 
z
" transform="scale(0.015625)"/>
      <path id="DejaVuSans-66" d="M 2375 4863 
L 2375 4384 
L 1825 4384 
Q 1516 4384 1395 4259 
Q 1275 4134 1275 3809 
L 1275 3500 
L 2222 3500 
L 2222 3053 
L 1275 3053 
L 1275 0 
L 697 0 
L 697 3053 
L 147 3053 
L 147 3500 
L 697 3500 
L 697 3744 
Q 697 4328 969 4595 
Q 1241 4863 1831 4863 
L 2375 4863 
z
" transform="scale(0.015625)"/>
      <path id="DejaVuSans-22" d="M 1147 4666 
L 1147 2931 
L 616 2931 
L 616 4666 
L 1147 4666 
z
M 2328 4666 
L 2328 2931 
L 1797 2931 
L 1797 4666 
L 2328 4666 
z
" transform="scale(0.015625)"/>
      <path id="DejaVuSans-48" d="M 628 4666 
L 1259 4666 
L 1259 2753 
L 3553 2753 
L 3553 4666 
L 4184 4666 
L 4184 0 
L 3553 0 
L 3553 2222 
L 1259 2222 
L 1259 0 
L 628 0 
L 628 4666 
z
" transform="scale(0.015625)"/>
      <path id="DejaVuSans-70" d="M 1159 525 
L 1159 -1331 
L 581 -1331 
L 581 3500 
L 1159 3500 
L 1159 2969 
Q 1341 3281 1617 3432 
Q 1894 3584 2278 3584 
Q 2916 3584 3314 3078 
Q 3713 2572 3713 1747 
Q 3713 922 3314 415 
Q 2916 -91 2278 -91 
Q 1894 -91 1617 61 
Q 1341 213 1159 525 
z
M 3116 1747 
Q 3116 2381 2855 2742 
Q 2594 3103 2138 3103 
Q 1681 3103 1420 2742 
Q 1159 2381 1159 1747 
Q 1159 1113 1420 752 
Q 1681 391 2138 391 
Q 2594 391 2855 752 
Q 3116 1113 3116 1747 
z
" transform="scale(0.015625)"/>
      <path id="DejaVuSans-6c" d="M 603 4863 
L 1178 4863 
L 1178 0 
L 603 0 
L 603 4863 
z
" transform="scale(0.015625)"/>
      <path id="DejaVuSans-39" d="M 703 97 
L 703 672 
Q 941 559 1184 500 
Q 1428 441 1663 441 
Q 2288 441 2617 861 
Q 2947 1281 2994 2138 
Q 2813 1869 2534 1725 
Q 2256 1581 1919 1581 
Q 1219 1581 811 2004 
Q 403 2428 403 3163 
Q 403 3881 828 4315 
Q 1253 4750 1959 4750 
Q 2769 4750 3195 4129 
Q 3622 3509 3622 2328 
Q 3622 1225 3098 567 
Q 2575 -91 1691 -91 
Q 1453 -91 1209 -44 
Q 966 3 703 97 
z
M 1959 2075 
Q 2384 2075 2632 2365 
Q 2881 2656 2881 3163 
Q 2881 3666 2632 3958 
Q 2384 4250 1959 4250 
Q 1534 4250 1286 3958 
Q 1038 3666 1038 3163 
Q 1038 2656 1286 2365 
Q 1534 2075 1959 2075 
z
" transform="scale(0.015625)"/>
      <path id="DejaVuSans-35" d="M 691 4666 
L 3169 4666 
L 3169 4134 
L 1269 4134 
L 1269 2991 
Q 1406 3038 1543 3061 
Q 1681 3084 1819 3084 
Q 2600 3084 3056 2656 
Q 3513 2228 3513 1497 
Q 3513 744 3044 326 
Q 2575 -91 1722 -91 
Q 1428 -91 1123 -41 
Q 819 9 494 109 
L 494 744 
Q 775 591 1075 516 
Q 1375 441 1709 441 
Q 2250 441 2565 725 
Q 2881 1009 2881 1497 
Q 2881 1984 2565 2268 
Q 2250 2553 1709 2553 
Q 1456 2553 1204 2497 
Q 953 2441 691 2322 
L 691 4666 
z
" transform="scale(0.015625)"/>
     </defs>
     <use xlink:href="#DejaVuSans-62"/>
     <use xlink:href="#DejaVuSans-65" x="63.476562"/>
     <use xlink:href="#DejaVuSans-6e" x="125"/>
     <use xlink:href="#DejaVuSans-63" x="188.378906"/>
     <use xlink:href="#DejaVuSans-68" x="243.359375"/>
     <use xlink:href="#DejaVuSans-6d" x="306.738281"/>
     <use xlink:href="#DejaVuSans-61" x="404.150391"/>
     <use xlink:href="#DejaVuSans-72" x="465.429688"/>
     <use xlink:href="#DejaVuSans-6b" x="506.542969"/>
     <use xlink:href="#DejaVuSans-64" x="564.453125"/>
     <use xlink:href="#DejaVuSans-61" x="627.929688"/>
     <use xlink:href="#DejaVuSans-74" x="689.208984"/>
     <use xlink:href="#DejaVuSans-61" x="728.417969"/>
     <use xlink:href="#DejaVuSans-20" x="789.697266"/>
     <use xlink:href="#DejaVuSans-66" x="821.484375"/>
     <use xlink:href="#DejaVuSans-6f" x="856.689453"/>
     <use xlink:href="#DejaVuSans-72" x="917.871094"/>
     <use xlink:href="#DejaVuSans-20" x="958.984375"/>
     <use xlink:href="#DejaVuSans-22" x="990.771484"/>
     <use xlink:href="#DejaVuSans-48" x="1036.767578"/>
     <use xlink:href="#DejaVuSans-61" x="1111.962891"/>
     <use xlink:href="#DejaVuSans-69" x="1173.242188"/>
     <use xlink:href="#DejaVuSans-72" x="1201.025391"/>
     <use xlink:href="#DejaVuSans-64" x="1240.388672"/>
     <use xlink:href="#DejaVuSans-72" x="1303.865234"/>
     <use xlink:href="#DejaVuSans-65" x="1342.728516"/>
     <use xlink:href="#DejaVuSans-73" x="1404.251953"/>
     <use xlink:href="#DejaVuSans-73" x="1456.351562"/>
     <use xlink:href="#DejaVuSans-65" x="1508.451172"/>
     <use xlink:href="#DejaVuSans-72" x="1569.974609"/>
     <use xlink:href="#DejaVuSans-22" x="1611.087891"/>
     <use xlink:href="#DejaVuSans-20" x="1657.083984"/>
     <use xlink:href="#DejaVuSans-4d" x="1688.871094"/>
     <use xlink:href="#DejaVuSans-61" x="1775.150391"/>
     <use xlink:href="#DejaVuSans-72" x="1836.429688"/>
     <use xlink:href="#DejaVuSans-6b" x="1877.542969"/>
     <use xlink:href="#DejaVuSans-65" x="1931.828125"/>
     <use xlink:href="#DejaVuSans-74" x="1993.351562"/>
     <use xlink:href="#DejaVuSans-20" x="2032.560547"/>
     <use xlink:href="#DejaVuSans-73" x="2064.347656"/>
     <use xlink:href="#DejaVuSans-65" x="2116.447266"/>
     <use xlink:href="#DejaVuSans-63" x="2177.970703"/>
     <use xlink:href="#DejaVuSans-74" x="2232.951172"/>
     <use xlink:href="#DejaVuSans-6f" x="2272.160156"/>
     <use xlink:href="#DejaVuSans-72" x="2333.341797"/>
     <use xlink:href="#DejaVuSans-20" x="2374.455078"/>
     <use xlink:href="#DejaVuSans-75" x="2406.242188"/>
     <use xlink:href="#DejaVuSans-73" x="2469.621094"/>
     <use xlink:href="#DejaVuSans-69" x="2521.720703"/>
     <use xlink:href="#DejaVuSans-6e" x="2549.503906"/>
     <use xlink:href="#DejaVuSans-67" x="2612.882812"/>
     <use xlink:href="#DejaVuSans-20" x="2676.359375"/>
     <use xlink:href="#DejaVuSans-34" x="2708.146484"/>
     <use xlink:href="#DejaVuSans-36" x="2771.769531"/>
     <use xlink:href="#DejaVuSans-20" x="2835.392578"/>
     <use xlink:href="#DejaVuSans-73" x="2867.179688"/>
     <use xlink:href="#DejaVuSans-61" x="2919.279297"/>
     <use xlink:href="#DejaVuSans-6d" x="2980.558594"/>
     <use xlink:href="#DejaVuSans-70" x="3077.970703"/>
     <use xlink:href="#DejaVuSans-6c" x="3141.447266"/>
     <use xlink:href="#DejaVuSans-65" x="3169.230469"/>
     <use xlink:href="#DejaVuSans-64" x="3230.753906"/>
     <use xlink:href="#DejaVuSans-20" x="3294.230469"/>
     <use xlink:href="#DejaVuSans-6d" x="3326.017578"/>
     <use xlink:href="#DejaVuSans-65" x="3423.429688"/>
     <use xlink:href="#DejaVuSans-74" x="3484.953125"/>
     <use xlink:href="#DejaVuSans-65" x="3524.162109"/>
     <use xlink:href="#DejaVuSans-72" x="3585.685547"/>
     <use xlink:href="#DejaVuSans-73" x="3626.798828"/>
     <use xlink:href="#DejaVuSans-2c" x="3678.898438"/>
     <use xlink:href="#DejaVuSans-20" x="3710.685547"/>
     <use xlink:href="#DejaVuSans-63" x="3742.472656"/>
     <use xlink:href="#DejaVuSans-6f" x="3797.453125"/>
     <use xlink:href="#DejaVuSans-6e" x="3858.634766"/>
     <use xlink:href="#DejaVuSans-73" x="3922.013672"/>
     <use xlink:href="#DejaVuSans-74" x="3974.113281"/>
     <use xlink:href="#DejaVuSans-72" x="4013.322266"/>
     <use xlink:href="#DejaVuSans-75" x="4054.435547"/>
     <use xlink:href="#DejaVuSans-63" x="4117.814453"/>
     <use xlink:href="#DejaVuSans-74" x="4172.794922"/>
     <use xlink:href="#DejaVuSans-65" x="4212.003906"/>
     <use xlink:href="#DejaVuSans-64" x="4273.527344"/>
     <use xlink:href="#DejaVuSans-20" x="4337.003906"/>
     <use xlink:href="#DejaVuSans-77" x="4368.791016"/>
     <use xlink:href="#DejaVuSans-69" x="4450.578125"/>
     <use xlink:href="#DejaVuSans-74" x="4478.361328"/>
     <use xlink:href="#DejaVuSans-68" x="4517.570312"/>
     <use xlink:href="#DejaVuSans-20" x="4580.949219"/>
     <use xlink:href="#DejaVuSans-39" x="4612.736328"/>
     <use xlink:href="#DejaVuSans-36" x="4676.359375"/>
     <use xlink:href="#DejaVuSans-35" x="4739.982422"/>
     <use xlink:href="#DejaVuSans-2c" x="4803.605469"/>
     <use xlink:href="#DejaVuSans-36" x="4835.392578"/>
     <use xlink:href="#DejaVuSans-34" x="4899.015625"/>
     <use xlink:href="#DejaVuSans-38" x="4962.638672"/>
     <use xlink:href="#DejaVuSans-20" x="5026.261719"/>
     <use xlink:href="#DejaVuSans-73" x="5058.048828"/>
     <use xlink:href="#DejaVuSans-61" x="5110.148438"/>
     <use xlink:href="#DejaVuSans-6d" x="5171.427734"/>
     <use xlink:href="#DejaVuSans-70" x="5268.839844"/>
     <use xlink:href="#DejaVuSans-6c" x="5332.316406"/>
     <use xlink:href="#DejaVuSans-65" x="5360.099609"/>
     <use xlink:href="#DejaVuSans-73" x="5421.623047"/>
    </g>
   </g>
   <g id="legend_1">
    <g id="patch_15">
     <path d="M 649.840625 85.550313 
L 814.803125 85.550313 
Q 816.803125 85.550313 816.803125 83.550313 
L 816.803125 29.318125 
Q 816.803125 27.318125 814.803125 27.318125 
L 649.840625 27.318125 
Q 647.840625 27.318125 647.840625 29.318125 
L 647.840625 83.550313 
Q 647.840625 85.550313 649.840625 85.550313 
z
" style="fill: #ffffff; opacity: 0.8; stroke: #cccccc; stroke-linejoin: miter"/>
    </g>
    <g id="line2d_69">
     <path d="M 651.840625 35.416562 
L 661.840625 35.416562 
L 671.840625 35.416562 
" style="fill: none; stroke: #ff0000; stroke-opacity: 0.4; stroke-width: 1.5; stroke-linecap: square"/>
    </g>
    <g id="text_37">
     <!-- Mean: 4.362 -->
     <g transform="translate(679.840625 38.916562) scale(0.1 -0.1)">
      <defs>
       <path id="DejaVuSans-2e" d="M 684 794 
L 1344 794 
L 1344 0 
L 684 0 
L 684 794 
z
" transform="scale(0.015625)"/>
       <path id="DejaVuSans-33" d="M 2597 2516 
Q 3050 2419 3304 2112 
Q 3559 1806 3559 1356 
Q 3559 666 3084 287 
Q 2609 -91 1734 -91 
Q 1441 -91 1130 -33 
Q 819 25 488 141 
L 488 750 
Q 750 597 1062 519 
Q 1375 441 1716 441 
Q 2309 441 2620 675 
Q 2931 909 2931 1356 
Q 2931 1769 2642 2001 
Q 2353 2234 1838 2234 
L 1294 2234 
L 1294 2753 
L 1863 2753 
Q 2328 2753 2575 2939 
Q 2822 3125 2822 3475 
Q 2822 3834 2567 4026 
Q 2313 4219 1838 4219 
Q 1578 4219 1281 4162 
Q 984 4106 628 3988 
L 628 4550 
Q 988 4650 1302 4700 
Q 1616 4750 1894 4750 
Q 2613 4750 3031 4423 
Q 3450 4097 3450 3541 
Q 3450 3153 3228 2886 
Q 3006 2619 2597 2516 
z
" transform="scale(0.015625)"/>
      </defs>
      <use xlink:href="#DejaVuSans-4d"/>
      <use xlink:href="#DejaVuSans-65" x="86.279297"/>
      <use xlink:href="#DejaVuSans-61" x="147.802734"/>
      <use xlink:href="#DejaVuSans-6e" x="209.082031"/>
      <use xlink:href="#DejaVuSans-3a" x="272.460938"/>
      <use xlink:href="#DejaVuSans-20" x="306.152344"/>
      <use xlink:href="#DejaVuSans-34" x="337.939453"/>
      <use xlink:href="#DejaVuSans-2e" x="401.5625"/>
      <use xlink:href="#DejaVuSans-33" x="433.349609"/>
      <use xlink:href="#DejaVuSans-36" x="496.972656"/>
      <use xlink:href="#DejaVuSans-32" x="560.595703"/>
     </g>
    </g>
    <g id="patch_16">
     <path d="M 651.840625 53.594688 
L 671.840625 53.594688 
L 671.840625 46.594688 
L 651.840625 46.594688 
z
" style="fill: #ff0000; fill-opacity: 0.2; stroke: #ff0000; stroke-opacity: 0.2; stroke-linejoin: miter"/>
    </g>
    <g id="text_38">
     <!-- Std Dev: 3.581 -->
     <g transform="translate(679.840625 53.594688) scale(0.1 -0.1)">
      <defs>
       <path id="DejaVuSans-44" d="M 1259 4147 
L 1259 519 
L 2022 519 
Q 2988 519 3436 956 
Q 3884 1394 3884 2338 
Q 3884 3275 3436 3711 
Q 2988 4147 2022 4147 
L 1259 4147 
z
M 628 4666 
L 1925 4666 
Q 3281 4666 3915 4102 
Q 4550 3538 4550 2338 
Q 4550 1131 3912 565 
Q 3275 0 1925 0 
L 628 0 
L 628 4666 
z
" transform="scale(0.015625)"/>
       <path id="DejaVuSans-76" d="M 191 3500 
L 800 3500 
L 1894 563 
L 2988 3500 
L 3597 3500 
L 2284 0 
L 1503 0 
L 191 3500 
z
" transform="scale(0.015625)"/>
      </defs>
      <use xlink:href="#DejaVuSans-53"/>
      <use xlink:href="#DejaVuSans-74" x="63.476562"/>
      <use xlink:href="#DejaVuSans-64" x="102.685547"/>
      <use xlink:href="#DejaVuSans-20" x="166.162109"/>
      <use xlink:href="#DejaVuSans-44" x="197.949219"/>
      <use xlink:href="#DejaVuSans-65" x="274.951172"/>
      <use xlink:href="#DejaVuSans-76" x="336.474609"/>
      <use xlink:href="#DejaVuSans-3a" x="390.154297"/>
      <use xlink:href="#DejaVuSans-20" x="423.845703"/>
      <use xlink:href="#DejaVuSans-33" x="455.632812"/>
      <use xlink:href="#DejaVuSans-2e" x="519.255859"/>
      <use xlink:href="#DejaVuSans-35" x="551.042969"/>
      <use xlink:href="#DejaVuSans-38" x="614.666016"/>
      <use xlink:href="#DejaVuSans-31" x="678.289062"/>
     </g>
    </g>
    <g id="line2d_70">
     <path d="M 651.840625 71.411563 
L 661.840625 71.411563 
L 671.840625 71.411563 
" style="fill: none; stroke: #0000ff; stroke-width: 1.5; stroke-linecap: square"/>
    </g>
    <g id="text_39">
     <!-- Performance Comparison:  -->
     <g transform="translate(679.840625 68.272812) scale(0.1 -0.1)">
      <defs>
       <path id="DejaVuSans-43" d="M 4122 4306 
L 4122 3641 
Q 3803 3938 3442 4084 
Q 3081 4231 2675 4231 
Q 1875 4231 1450 3742 
Q 1025 3253 1025 2328 
Q 1025 1406 1450 917 
Q 1875 428 2675 428 
Q 3081 428 3442 575 
Q 3803 722 4122 1019 
L 4122 359 
Q 3791 134 3420 21 
Q 3050 -91 2638 -91 
Q 1578 -91 968 557 
Q 359 1206 359 2328 
Q 359 3453 968 4101 
Q 1578 4750 2638 4750 
Q 3056 4750 3426 4639 
Q 3797 4528 4122 4306 
z
" transform="scale(0.015625)"/>
      </defs>
      <use xlink:href="#DejaVuSans-50"/>
      <use xlink:href="#DejaVuSans-65" x="56.677734"/>
      <use xlink:href="#DejaVuSans-72" x="118.201172"/>
      <use xlink:href="#DejaVuSans-66" x="159.314453"/>
      <use xlink:href="#DejaVuSans-6f" x="194.519531"/>
      <use xlink:href="#DejaVuSans-72" x="255.701172"/>
      <use xlink:href="#DejaVuSans-6d" x="295.064453"/>
      <use xlink:href="#DejaVuSans-61" x="392.476562"/>
      <use xlink:href="#DejaVuSans-6e" x="453.755859"/>
      <use xlink:href="#DejaVuSans-63" x="517.134766"/>
      <use xlink:href="#DejaVuSans-65" x="572.115234"/>
      <use xlink:href="#DejaVuSans-20" x="633.638672"/>
      <use xlink:href="#DejaVuSans-43" x="665.425781"/>
      <use xlink:href="#DejaVuSans-6f" x="735.25"/>
      <use xlink:href="#DejaVuSans-6d" x="796.431641"/>
      <use xlink:href="#DejaVuSans-70" x="893.84375"/>
      <use xlink:href="#DejaVuSans-61" x="957.320312"/>
      <use xlink:href="#DejaVuSans-72" x="1018.599609"/>
      <use xlink:href="#DejaVuSans-69" x="1059.712891"/>
      <use xlink:href="#DejaVuSans-73" x="1087.496094"/>
      <use xlink:href="#DejaVuSans-6f" x="1139.595703"/>
      <use xlink:href="#DejaVuSans-6e" x="1200.777344"/>
      <use xlink:href="#DejaVuSans-3a" x="1264.15625"/>
      <use xlink:href="#DejaVuSans-20" x="1297.847656"/>
     </g>
     <!-- Mean: 16.182 -->
     <g transform="translate(679.840625 79.470625) scale(0.1 -0.1)">
      <use xlink:href="#DejaVuSans-4d"/>
      <use xlink:href="#DejaVuSans-65" x="86.279297"/>
      <use xlink:href="#DejaVuSans-61" x="147.802734"/>
      <use xlink:href="#DejaVuSans-6e" x="209.082031"/>
      <use xlink:href="#DejaVuSans-3a" x="272.460938"/>
      <use xlink:href="#DejaVuSans-20" x="306.152344"/>
      <use xlink:href="#DejaVuSans-31" x="337.939453"/>
      <use xlink:href="#DejaVuSans-36" x="401.5625"/>
      <use xlink:href="#DejaVuSans-2e" x="465.185547"/>
      <use xlink:href="#DejaVuSans-31" x="496.972656"/>
      <use xlink:href="#DejaVuSans-38" x="560.595703"/>
      <use xlink:href="#DejaVuSans-32" x="624.21875"/>
     </g>
    </g>
   </g>
  </g>
 </g>
 <defs>
  <clipPath id="p25b3145e49">
   <rect x="40.603125" y="22.318125" width="781.2" height="332.64"/>
  </clipPath>
 </defs>
</svg>
