<?xml version="1.0" encoding="utf-8" standalone="no"?>
<!DOCTYPE svg PUBLIC "-//W3C//DTD SVG 1.1//EN"
  "http://www.w3.org/Graphics/SVG/1.1/DTD/svg11.dtd">
<svg xmlns:xlink="http://www.w3.org/1999/xlink" width="832.18125pt" height="453.244198pt" viewBox="0 0 832.18125 453.244198" xmlns="http://www.w3.org/2000/svg" version="1.1">
 <metadata>
  <rdf:RDF xmlns:dc="http://purl.org/dc/elements/1.1/" xmlns:cc="http://creativecommons.org/ns#" xmlns:rdf="http://www.w3.org/1999/02/22-rdf-syntax-ns#">
   <cc:Work>
    <dc:type rdf:resource="http://purl.org/dc/dcmitype/StillImage"/>
    <dc:date>2024-07-22T21:27:44.361900</dc:date>
    <dc:format>image/svg+xml</dc:format>
    <dc:creator>
     <cc:Agent>
      <dc:title>Matplotlib v3.8.4, https://matplotlib.org/</dc:title>
     </cc:Agent>
    </dc:creator>
   </cc:Work>
  </rdf:RDF>
 </metadata>
 <defs>
  <style type="text/css">*{stroke-linejoin: round; stroke-linecap: butt}</style>
 </defs>
 <g id="figure_1">
  <g id="patch_1">
   <path d="M 0 453.244198 
L 832.18125 453.244198 
L 832.18125 0 
L 0 0 
z
" style="fill: #ffffff"/>
  </g>
  <g id="axes_1">
   <g id="patch_2">
    <path d="M 43.78125 354.958125 
L 824.98125 354.958125 
L 824.98125 22.318125 
L 43.78125 22.318125 
z
" style="fill: #ffffff"/>
   </g>
   <g id="PolyCollection_1">
    <defs>
     <path id="m000736acc2" d="M 79.290341 -390.258506 
L 79.290341 -130.630465 
L 81.410287 -128.940227 
L 83.530232 -128.948327 
L 85.650178 -129.806805 
L 87.770124 -129.832079 
L 89.89007 -129.534141 
L 92.010015 -128.55915 
L 94.129961 -128.840119 
L 96.249907 -129.433735 
L 98.369852 -130.653063 
L 100.489798 -129.823876 
L 102.609744 -130.076035 
L 104.72969 -133.078561 
L 106.849635 -132.667017 
L 108.969581 -132.834432 
L 111.089527 -129.073085 
L 113.209473 -129.543945 
L 115.329418 -128.912159 
L 117.449364 -127.120524 
L 119.56931 -126.490113 
L 121.689255 -125.513621 
L 123.809201 -125.668031 
L 125.929147 -121.007163 
L 128.049093 -121.626642 
L 130.169038 -123.159965 
L 132.288984 -121.95031 
L 134.40893 -124.631974 
L 136.528876 -123.231912 
L 138.648821 -124.021207 
L 140.768767 -123.036821 
L 142.888713 -123.641525 
L 145.008658 -124.655207 
L 147.128604 -124.161159 
L 149.24855 -122.857729 
L 151.368496 -121.539722 
L 153.488441 -120.102823 
L 155.608387 -124.401242 
L 157.728333 -130.582666 
L 159.848278 -124.5823 
L 161.968224 -131.312836 
L 164.08817 -132.248022 
L 166.208116 -131.405572 
L 168.328061 -132.021075 
L 170.448007 -131.311201 
L 172.567953 -133.815295 
L 174.687899 -133.458402 
L 176.807844 -131.427212 
L 178.92779 -128.747533 
L 181.047736 -130.606614 
L 183.167681 -125.325059 
L 185.287627 -129.070889 
L 187.407573 -129.809168 
L 189.527519 -128.44467 
L 191.647464 -129.404561 
L 193.76741 -129.713899 
L 195.887356 -128.179975 
L 198.007302 -128.380668 
L 200.127247 -130.253199 
L 202.247193 -129.067665 
L 204.367139 -129.649662 
L 206.487084 -131.566572 
L 208.60703 -130.631637 
L 210.726976 -130.865554 
L 212.846922 -127.584758 
L 214.966867 -127.815053 
L 217.086813 -128.444232 
L 219.206759 -127.948892 
L 221.326705 -126.674665 
L 223.44665 -127.149691 
L 225.566596 -124.151263 
L 227.686542 -123.337542 
L 229.806487 -123.068371 
L 231.926433 -124.088695 
L 234.046379 -124.605601 
L 236.166325 -123.243932 
L 238.28627 -124.086431 
L 240.406216 -123.923729 
L 242.526162 -124.66721 
L 244.646108 -124.569033 
L 246.766053 -123.875062 
L 248.885999 -124.654523 
L 251.005945 -123.952033 
L 253.12589 -120.460154 
L 255.245836 -124.06398 
L 257.365782 -120.286909 
L 259.485728 -125.337975 
L 261.605673 -125.73151 
L 263.725619 -134.233675 
L 265.845565 -133.340212 
L 267.965511 -132.421349 
L 270.085456 -132.063539 
L 272.205402 -131.706559 
L 274.325348 -133.408942 
L 276.445293 -133.520834 
L 278.565239 -130.845907 
L 280.685185 -128.651435 
L 282.805131 -129.9275 
L 284.925076 -129.076573 
L 287.045022 -128.866576 
L 289.164968 -128.952501 
L 291.284914 -129.345331 
L 293.404859 -125.779515 
L 295.524805 -128.029365 
L 297.644751 -127.863461 
L 299.764696 -129.097722 
L 301.884642 -128.664743 
L 304.004588 -129.773583 
L 306.124534 -129.110921 
L 308.244479 -133.082816 
L 310.364425 -131.96881 
L 312.484371 -132.794395 
L 314.604316 -128.83737 
L 316.724262 -128.970833 
L 318.844208 -129.986182 
L 320.964154 -127.67639 
L 323.084099 -123.176528 
L 325.204045 -123.714097 
L 327.323991 -123.637235 
L 329.443937 -122.452872 
L 331.563882 -123.133859 
L 333.683828 -123.529745 
L 335.803774 -123.271076 
L 337.923719 -123.130357 
L 340.043665 -124.137181 
L 342.163611 -123.677301 
L 344.283557 -124.103782 
L 346.403502 -123.867214 
L 348.523448 -123.574844 
L 350.643394 -123.544592 
L 352.76334 -123.250339 
L 354.883285 -122.017629 
L 357.003231 -119.757631 
L 359.123177 -120.414912 
L 361.243122 -125.383615 
L 363.363068 -127.380968 
L 365.483014 -131.441949 
L 367.60296 -132.075796 
L 369.722905 -130.395512 
L 371.842851 -131.312988 
L 373.962797 -130.590506 
L 376.082743 -133.527166 
L 378.202688 -131.989593 
L 380.322634 -130.967461 
L 382.44258 -128.292935 
L 384.562525 -129.601315 
L 386.682471 -127.909377 
L 388.802417 -128.169839 
L 390.922363 -129.021145 
L 393.042308 -128.46854 
L 395.162254 -129.02116 
L 397.2822 -127.765489 
L 399.402146 -127.463734 
L 401.522091 -127.629061 
L 403.642037 -128.450273 
L 405.761983 -128.142085 
L 407.881928 -128.08732 
L 410.001874 -130.153303 
L 412.12182 -127.41706 
L 414.241766 -130.245929 
L 416.361711 -127.717268 
L 418.481657 -127.50809 
L 420.601603 -130.842526 
L 422.721549 -131.68683 
L 424.841494 -125.305481 
L 426.96144 -125.724319 
L 429.081386 -123.788603 
L 431.201331 -122.752415 
L 433.321277 -122.870036 
L 435.441223 -123.18513 
L 437.561169 -122.652953 
L 439.681114 -122.574876 
L 441.80106 -122.707266 
L 443.921006 -123.672663 
L 446.040951 -124.301926 
L 448.160897 -123.260489 
L 450.280843 -123.499373 
L 452.400789 -122.655535 
L 454.520734 -122.439877 
L 456.64068 -120.671984 
L 458.760626 -119.072652 
L 460.880572 -119.122323 
L 463.000517 -125.398436 
L 465.120463 -125.239881 
L 467.240409 -130.481156 
L 469.360354 -133.120494 
L 471.4803 -135.304085 
L 473.600246 -131.911377 
L 475.720192 -132.402634 
L 477.840137 -133.21852 
L 479.960083 -132.151239 
L 482.080029 -131.579563 
L 484.199975 -127.707706 
L 486.31992 -131.254662 
L 488.439866 -129.622222 
L 490.559812 -128.512969 
L 492.679757 -129.146626 
L 494.799703 -128.956623 
L 496.919649 -129.769526 
L 499.039595 -128.763998 
L 501.15954 -129.223147 
L 503.279486 -128.898245 
L 505.399432 -128.359882 
L 507.519378 -129.068734 
L 509.639323 -129.815552 
L 511.759269 -132.587931 
L 513.879215 -132.20659 
L 515.99916 -132.049588 
L 518.119106 -128.929695 
L 520.239052 -127.413984 
L 522.358998 -130.011302 
L 524.478943 -125.208401 
L 526.598889 -126.227191 
L 528.718835 -123.562553 
L 530.838781 -122.660736 
L 532.958726 -121.121255 
L 535.078672 -120.590605 
L 537.198618 -121.655385 
L 539.318563 -122.53372 
L 541.438509 -122.163406 
L 543.558455 -125.37703 
L 545.678401 -125.785061 
L 547.798346 -121.656731 
L 549.918292 -120.717855 
L 552.038238 -120.373417 
L 554.158184 -120.735188 
L 556.278129 -122.033001 
L 558.398075 -118.770715 
L 560.518021 -120.144567 
L 562.637966 -116.926032 
L 564.757912 -122.715763 
L 566.877858 -121.131078 
L 568.997804 -127.669551 
L 571.117749 -125.997697 
L 573.237695 -127.283432 
L 575.357641 -129.015068 
L 577.477586 -131.443208 
L 579.597532 -133.997202 
L 581.717478 -132.743619 
L 583.837424 -131.41483 
L 585.957369 -129.355984 
L 588.077315 -130.776903 
L 590.197261 -129.72553 
L 592.317207 -129.422663 
L 594.437152 -129.813944 
L 596.557098 -130.126048 
L 598.677044 -127.733652 
L 600.796989 -128.789859 
L 602.916935 -129.006596 
L 605.036881 -130.210446 
L 607.156827 -129.478443 
L 609.276772 -129.478509 
L 611.396718 -129.029752 
L 613.516664 -130.476587 
L 615.63661 -131.083284 
L 617.756555 -129.962718 
L 619.876501 -127.958912 
L 621.996447 -128.210979 
L 624.116392 -128.858784 
L 626.236338 -121.194765 
L 628.356284 -116.039984 
L 630.47623 -116.026497 
L 632.596175 -117.414463 
L 634.716121 -115.46783 
L 636.836067 -116.777851 
L 638.956013 -117.333693 
L 641.075958 -119.075585 
L 643.195904 -115.472933 
L 645.31585 -117.496724 
L 647.435795 -116.843849 
L 649.555741 -117.791032 
L 651.675687 -118.035368 
L 653.795633 -117.408113 
L 655.915578 -120.291236 
L 658.035524 -119.018065 
L 660.15547 -116.933208 
L 662.275416 -119.588945 
L 664.395361 -119.886333 
L 666.515307 -123.673808 
L 668.635253 -119.065021 
L 670.755198 -123.882749 
L 672.875144 -124.756035 
L 674.99509 -126.33975 
L 677.115036 -128.338638 
L 679.234981 -129.658439 
L 681.354927 -132.792951 
L 683.474873 -132.074588 
L 685.594819 -130.131651 
L 687.714764 -128.709665 
L 689.83471 -130.346178 
L 691.954656 -129.409223 
L 694.074601 -129.117064 
L 696.194547 -129.227054 
L 698.314493 -129.544751 
L 700.434439 -128.969172 
L 702.554384 -129.242726 
L 704.67433 -128.806889 
L 706.794276 -129.228042 
L 708.914222 -130.384799 
L 711.034167 -129.873793 
L 713.154113 -129.998295 
L 715.274059 -131.582799 
L 717.394004 -131.781469 
L 719.51395 -132.074992 
L 721.633896 -129.273497 
L 723.753842 -129.368374 
L 725.873787 -127.148684 
L 727.993733 -119.233806 
L 730.113679 -116.762061 
L 732.233624 -115.655467 
L 734.35357 -115.826112 
L 736.473516 -113.803784 
L 738.593462 -113.406073 
L 740.713407 -115.015806 
L 742.833353 -113.874401 
L 744.953299 -114.313139 
L 747.073245 -113.555332 
L 749.19319 -114.358131 
L 751.313136 -116.419603 
L 753.433082 -118.289266 
L 755.553027 -122.613146 
L 757.672973 -120.684931 
L 759.792919 -121.631173 
L 761.912865 -120.125558 
L 764.03281 -124.227837 
L 766.152756 -127.124442 
L 768.272702 -131.027911 
L 770.392648 -131.619693 
L 772.512593 -131.348852 
L 774.632539 -131.978239 
L 776.752485 -130.968535 
L 778.87243 -132.174557 
L 780.992376 -129.347673 
L 783.112322 -132.428337 
L 785.232268 -132.689849 
L 787.352213 -131.331588 
L 789.472159 -129.037303 
L 789.472159 -388.967085 
L 789.472159 -388.967085 
L 787.352213 -390.904669 
L 785.232268 -391.932542 
L 783.112322 -400.669709 
L 780.992376 -397.07919 
L 778.87243 -402.675207 
L 776.752485 -400.839259 
L 774.632539 -405.722125 
L 772.512593 -403.935996 
L 770.392648 -407.877282 
L 768.272702 -410.766593 
L 766.152756 -410.981393 
L 764.03281 -404.080209 
L 761.912865 -395.267823 
L 759.792919 -393.497482 
L 757.672973 -393.565549 
L 755.553027 -394.693729 
L 753.433082 -371.128347 
L 751.313136 -367.854348 
L 749.19319 -364.925944 
L 747.073245 -363.521821 
L 744.953299 -367.127847 
L 742.833353 -365.772784 
L 740.713407 -366.739826 
L 738.593462 -364.814015 
L 736.473516 -359.73897 
L 734.35357 -362.808318 
L 732.233624 -361.064433 
L 730.113679 -365.829743 
L 727.993733 -387.399197 
L 725.873787 -394.993934 
L 723.753842 -398.264768 
L 721.633896 -398.715619 
L 719.51395 -390.815354 
L 717.394004 -388.466777 
L 715.274059 -388.223725 
L 713.154113 -384.710398 
L 711.034167 -387.144961 
L 708.914222 -387.813641 
L 706.794276 -388.010957 
L 704.67433 -385.880921 
L 702.554384 -385.574551 
L 700.434439 -385.926324 
L 698.314493 -389.12714 
L 696.194547 -391.092286 
L 694.074601 -387.070054 
L 691.954656 -385.790465 
L 689.83471 -387.296763 
L 687.714764 -386.213591 
L 685.594819 -388.494307 
L 683.474873 -390.832705 
L 681.354927 -401.015081 
L 679.234981 -400.372352 
L 677.115036 -403.104333 
L 674.99509 -403.636349 
L 672.875144 -400.853874 
L 670.755198 -401.278124 
L 668.635253 -392.203968 
L 666.515307 -398.520767 
L 664.395361 -385.306206 
L 662.275416 -380.696242 
L 660.15547 -373.710915 
L 658.035524 -377.530852 
L 655.915578 -375.450053 
L 653.795633 -366.373202 
L 651.675687 -367.939142 
L 649.555741 -364.460833 
L 647.435795 -366.603231 
L 645.31585 -366.849919 
L 643.195904 -369.199002 
L 641.075958 -369.845035 
L 638.956013 -366.475499 
L 636.836067 -369.693042 
L 634.716121 -365.667498 
L 632.596175 -371.36719 
L 630.47623 -372.554625 
L 628.356284 -377.210641 
L 626.236338 -385.041502 
L 624.116392 -398.109963 
L 621.996447 -397.407642 
L 619.876501 -398.417613 
L 617.756555 -390.473263 
L 615.63661 -388.848516 
L 613.516664 -388.430688 
L 611.396718 -389.177849 
L 609.276772 -390.755503 
L 607.156827 -387.944201 
L 605.036881 -387.24959 
L 602.916935 -386.118111 
L 600.796989 -385.241992 
L 598.677044 -384.469171 
L 596.557098 -388.299833 
L 594.437152 -390.415543 
L 592.317207 -388.459674 
L 590.197261 -386.216421 
L 588.077315 -387.656388 
L 585.957369 -384.862538 
L 583.837424 -388.247024 
L 581.717478 -387.618246 
L 579.597532 -400.579442 
L 577.477586 -401.757244 
L 575.357641 -400.589197 
L 573.237695 -401.426849 
L 571.117749 -403.581953 
L 568.997804 -406.076382 
L 566.877858 -396.260243 
L 564.757912 -395.24566 
L 562.637966 -372.373511 
L 560.518021 -366.818442 
L 558.398075 -371.765027 
L 556.278129 -379.251494 
L 554.158184 -374.702196 
L 552.038238 -371.071624 
L 549.918292 -378.935035 
L 547.798346 -381.996758 
L 545.678401 -384.944641 
L 543.558455 -381.032438 
L 541.438509 -379.74085 
L 539.318563 -375.231718 
L 537.198618 -381.94333 
L 535.078672 -376.341151 
L 532.958726 -378.130599 
L 530.838781 -381.125414 
L 528.718835 -374.407567 
L 526.598889 -391.920837 
L 524.478943 -387.024432 
L 522.358998 -392.064722 
L 520.239052 -395.49218 
L 518.119106 -401.920831 
L 515.99916 -395.266272 
L 513.879215 -391.452108 
L 511.759269 -390.824838 
L 509.639323 -387.179182 
L 507.519378 -387.281218 
L 505.399432 -385.660578 
L 503.279486 -387.512575 
L 501.15954 -385.506094 
L 499.039595 -387.721572 
L 496.919649 -387.69561 
L 494.799703 -387.278634 
L 492.679757 -389.813551 
L 490.559812 -389.396585 
L 488.439866 -387.136486 
L 486.31992 -390.069689 
L 484.199975 -385.942076 
L 482.080029 -392.686588 
L 479.960083 -391.313812 
L 477.840137 -402.459098 
L 475.720192 -399.217246 
L 473.600246 -400.72291 
L 471.4803 -405.655732 
L 469.360354 -406.491434 
L 467.240409 -406.958341 
L 465.120463 -403.245534 
L 463.000517 -404.575228 
L 460.880572 -382.663677 
L 458.760626 -371.828964 
L 456.64068 -379.14375 
L 454.520734 -378.90903 
L 452.400789 -378.956318 
L 450.280843 -377.518312 
L 448.160897 -380.774581 
L 446.040951 -383.676594 
L 443.921006 -380.544693 
L 441.80106 -380.702185 
L 439.681114 -381.043259 
L 437.561169 -379.654124 
L 435.441223 -381.090667 
L 433.321277 -379.793332 
L 431.201331 -376.206527 
L 429.081386 -379.454636 
L 426.96144 -376.386408 
L 424.841494 -385.742368 
L 422.721549 -398.560591 
L 420.601603 -397.188459 
L 418.481657 -396.782342 
L 416.361711 -402.538287 
L 414.241766 -392.898711 
L 412.12182 -388.070518 
L 410.001874 -392.88891 
L 407.881928 -388.272506 
L 405.761983 -389.264466 
L 403.642037 -389.790369 
L 401.522091 -389.465049 
L 399.402146 -389.185144 
L 397.2822 -390.067561 
L 395.162254 -391.089806 
L 393.042308 -391.622347 
L 390.922363 -386.410563 
L 388.802417 -392.667525 
L 386.682471 -390.127494 
L 384.562525 -394.225713 
L 382.44258 -392.807108 
L 380.322634 -397.428174 
L 378.202688 -398.497453 
L 376.082743 -408.440139 
L 373.962797 -406.041895 
L 371.842851 -408.383534 
L 369.722905 -409.725967 
L 367.60296 -405.757503 
L 365.483014 -411.488825 
L 363.363068 -407.112524 
L 361.243122 -397.12644 
L 359.123177 -387.821059 
L 357.003231 -368.824138 
L 354.883285 -376.246465 
L 352.76334 -377.898407 
L 350.643394 -377.740783 
L 348.523448 -381.335978 
L 346.403502 -378.827448 
L 344.283557 -381.761147 
L 342.163611 -382.412925 
L 340.043665 -378.229768 
L 337.923719 -383.457342 
L 335.803774 -380.939266 
L 333.683828 -383.417153 
L 331.563882 -381.909871 
L 329.443937 -380.252874 
L 327.323991 -376.939083 
L 325.204045 -380.515254 
L 323.084099 -385.007753 
L 320.964154 -392.668796 
L 318.844208 -396.281746 
L 316.724262 -399.166497 
L 314.604316 -404.365187 
L 312.484371 -397.124002 
L 310.364425 -394.268619 
L 308.244479 -394.117078 
L 306.124534 -391.624904 
L 304.004588 -393.512578 
L 301.884642 -393.443191 
L 299.764696 -390.565818 
L 297.644751 -386.648701 
L 295.524805 -386.767234 
L 293.404859 -381.387637 
L 291.284914 -386.619445 
L 289.164968 -389.528998 
L 287.045022 -386.710014 
L 284.925076 -385.264837 
L 282.805131 -388.952117 
L 280.685185 -387.245302 
L 278.565239 -388.71197 
L 276.445293 -391.363109 
L 274.325348 -400.542151 
L 272.205402 -397.452423 
L 270.085456 -401.220238 
L 267.965511 -405.298259 
L 265.845565 -407.524343 
L 263.725619 -415.806073 
L 261.605673 -404.571475 
L 259.485728 -403.111602 
L 257.365782 -381.987154 
L 255.245836 -373.130047 
L 253.12589 -376.84395 
L 251.005945 -378.39669 
L 248.885999 -381.856524 
L 246.766053 -380.806159 
L 244.646108 -380.442459 
L 242.526162 -379.042677 
L 240.406216 -377.121789 
L 238.28627 -377.365689 
L 236.166325 -385.110317 
L 234.046379 -379.721714 
L 231.926433 -380.382893 
L 229.806487 -378.710286 
L 227.686542 -374.809899 
L 225.566596 -373.195057 
L 223.44665 -374.861807 
L 221.326705 -383.272812 
L 219.206759 -391.02874 
L 217.086813 -393.88057 
L 214.966867 -399.280886 
L 212.846922 -406.572673 
L 210.726976 -396.12038 
L 208.60703 -393.057903 
L 206.487084 -393.965217 
L 204.367139 -390.419295 
L 202.247193 -392.050826 
L 200.127247 -392.119985 
L 198.007302 -390.251107 
L 195.887356 -390.548269 
L 193.76741 -392.614237 
L 191.647464 -391.229923 
L 189.527519 -387.866694 
L 187.407573 -388.895343 
L 185.287627 -387.947863 
L 183.167681 -381.790336 
L 181.047736 -385.620318 
L 178.92779 -386.707621 
L 176.807844 -388.34832 
L 174.687899 -390.476908 
L 172.567953 -399.931893 
L 170.448007 -397.608153 
L 168.328061 -401.080316 
L 166.208116 -403.291399 
L 164.08817 -405.713244 
L 161.968224 -412.532804 
L 159.848278 -404.782142 
L 157.728333 -410.818269 
L 155.608387 -386.003435 
L 153.488441 -371.84513 
L 151.368496 -378.129862 
L 149.24855 -377.060046 
L 147.128604 -381.057801 
L 145.008658 -379.839366 
L 142.888713 -377.758715 
L 140.768767 -377.899917 
L 138.648821 -380.33647 
L 136.528876 -378.979964 
L 134.40893 -383.486943 
L 132.288984 -376.507519 
L 130.169038 -380.060713 
L 128.049093 -378.371842 
L 125.929147 -375.395659 
L 123.809201 -383.128573 
L 121.689255 -380.362168 
L 119.56931 -385.436618 
L 117.449364 -390.256596 
L 115.329418 -388.619956 
L 113.209473 -396.525329 
L 111.089527 -402.191269 
L 108.969581 -393.831981 
L 106.849635 -391.806042 
L 104.72969 -393.185714 
L 102.609744 -389.50589 
L 100.489798 -390.668591 
L 98.369852 -391.11676 
L 96.249907 -388.920525 
L 94.129961 -389.541871 
L 92.010015 -387.667455 
L 89.89007 -388.015454 
L 87.770124 -388.940016 
L 85.650178 -388.848382 
L 83.530232 -391.73573 
L 81.410287 -388.440466 
L 79.290341 -390.258506 
z
" style="stroke: #ff0000; stroke-opacity: 0.2"/>
    </defs>
    <g clip-path="url(#p84c60f4405)">
     <use xlink:href="#m000736acc2" x="0" y="453.244198" style="fill: #ff0000; fill-opacity: 0.2; stroke: #ff0000; stroke-opacity: 0.2"/>
    </g>
   </g>
   <g id="patch_3">
    <path d="M 79.290341 354.958125 
L 79.290341 22.318125 
L 104.72969 22.318125 
L 104.72969 354.958125 
z
" clip-path="url(#p84c60f4405)" style="opacity: 0.3; stroke: #000000; stroke-linejoin: miter"/>
   </g>
   <g id="patch_4">
    <path d="M 155.608387 354.958125 
L 155.608387 22.318125 
L 206.487084 22.318125 
L 206.487084 354.958125 
z
" clip-path="url(#p84c60f4405)" style="opacity: 0.3; stroke: #000000; stroke-linejoin: miter"/>
   </g>
   <g id="patch_5">
    <path d="M 257.365782 354.958125 
L 257.365782 22.318125 
L 308.244479 22.318125 
L 308.244479 354.958125 
z
" clip-path="url(#p84c60f4405)" style="opacity: 0.3; stroke: #000000; stroke-linejoin: miter"/>
   </g>
   <g id="patch_6">
    <path d="M 359.123177 354.958125 
L 359.123177 22.318125 
L 410.001874 22.318125 
L 410.001874 354.958125 
z
" clip-path="url(#p84c60f4405)" style="opacity: 0.3; stroke: #000000; stroke-linejoin: miter"/>
   </g>
   <g id="patch_7">
    <path d="M 460.880572 354.958125 
L 460.880572 22.318125 
L 511.759269 22.318125 
L 511.759269 354.958125 
z
" clip-path="url(#p84c60f4405)" style="opacity: 0.3; stroke: #000000; stroke-linejoin: miter"/>
   </g>
   <g id="patch_8">
    <path d="M 562.637966 354.958125 
L 562.637966 22.318125 
L 613.516664 22.318125 
L 613.516664 354.958125 
z
" clip-path="url(#p84c60f4405)" style="opacity: 0.3; stroke: #000000; stroke-linejoin: miter"/>
   </g>
   <g id="patch_9">
    <path d="M 664.395361 354.958125 
L 664.395361 22.318125 
L 715.274059 22.318125 
L 715.274059 354.958125 
z
" clip-path="url(#p84c60f4405)" style="opacity: 0.3; stroke: #000000; stroke-linejoin: miter"/>
   </g>
   <g id="patch_10">
    <path d="M 766.152756 354.958125 
L 766.152756 22.318125 
L 789.472159 22.318125 
L 789.472159 354.958125 
z
" clip-path="url(#p84c60f4405)" style="opacity: 0.3; stroke: #000000; stroke-linejoin: miter"/>
   </g>
   <g id="matplotlib.axis_1">
    <g id="xtick_1">
     <g id="line2d_1">
      <path d="M 79.290341 354.958125 
L 79.290341 22.318125 
" clip-path="url(#p84c60f4405)" style="fill: none; stroke: #b0b0b0; stroke-width: 0.8; stroke-linecap: square"/>
     </g>
     <g id="line2d_2">
      <defs>
       <path id="md4316a5f32" d="M 0 0 
L 0 3.5 
" style="stroke: #000000; stroke-width: 0.8"/>
      </defs>
      <g>
       <use xlink:href="#md4316a5f32" x="79.290341" y="354.958125" style="stroke: #000000; stroke-width: 0.8"/>
      </g>
     </g>
     <g id="text_1">
      <!-- Monday 00:00 -->
      <g transform="translate(27.278218 417.872594) rotate(-45) scale(0.1 -0.1)">
       <defs>
        <path id="DejaVuSans-4d" d="M 628 4666 
L 1569 4666 
L 2759 1491 
L 3956 4666 
L 4897 4666 
L 4897 0 
L 4281 0 
L 4281 4097 
L 3078 897 
L 2444 897 
L 1241 4097 
L 1241 0 
L 628 0 
L 628 4666 
z
" transform="scale(0.015625)"/>
        <path id="DejaVuSans-6f" d="M 1959 3097 
Q 1497 3097 1228 2736 
Q 959 2375 959 1747 
Q 959 1119 1226 758 
Q 1494 397 1959 397 
Q 2419 397 2687 759 
Q 2956 1122 2956 1747 
Q 2956 2369 2687 2733 
Q 2419 3097 1959 3097 
z
M 1959 3584 
Q 2709 3584 3137 3096 
Q 3566 2609 3566 1747 
Q 3566 888 3137 398 
Q 2709 -91 1959 -91 
Q 1206 -91 779 398 
Q 353 888 353 1747 
Q 353 2609 779 3096 
Q 1206 3584 1959 3584 
z
" transform="scale(0.015625)"/>
        <path id="DejaVuSans-6e" d="M 3513 2113 
L 3513 0 
L 2938 0 
L 2938 2094 
Q 2938 2591 2744 2837 
Q 2550 3084 2163 3084 
Q 1697 3084 1428 2787 
Q 1159 2491 1159 1978 
L 1159 0 
L 581 0 
L 581 3500 
L 1159 3500 
L 1159 2956 
Q 1366 3272 1645 3428 
Q 1925 3584 2291 3584 
Q 2894 3584 3203 3211 
Q 3513 2838 3513 2113 
z
" transform="scale(0.015625)"/>
        <path id="DejaVuSans-64" d="M 2906 2969 
L 2906 4863 
L 3481 4863 
L 3481 0 
L 2906 0 
L 2906 525 
Q 2725 213 2448 61 
Q 2172 -91 1784 -91 
Q 1150 -91 751 415 
Q 353 922 353 1747 
Q 353 2572 751 3078 
Q 1150 3584 1784 3584 
Q 2172 3584 2448 3432 
Q 2725 3281 2906 2969 
z
M 947 1747 
Q 947 1113 1208 752 
Q 1469 391 1925 391 
Q 2381 391 2643 752 
Q 2906 1113 2906 1747 
Q 2906 2381 2643 2742 
Q 2381 3103 1925 3103 
Q 1469 3103 1208 2742 
Q 947 2381 947 1747 
z
" transform="scale(0.015625)"/>
        <path id="DejaVuSans-61" d="M 2194 1759 
Q 1497 1759 1228 1600 
Q 959 1441 959 1056 
Q 959 750 1161 570 
Q 1363 391 1709 391 
Q 2188 391 2477 730 
Q 2766 1069 2766 1631 
L 2766 1759 
L 2194 1759 
z
M 3341 1997 
L 3341 0 
L 2766 0 
L 2766 531 
Q 2569 213 2275 61 
Q 1981 -91 1556 -91 
Q 1019 -91 701 211 
Q 384 513 384 1019 
Q 384 1609 779 1909 
Q 1175 2209 1959 2209 
L 2766 2209 
L 2766 2266 
Q 2766 2663 2505 2880 
Q 2244 3097 1772 3097 
Q 1472 3097 1187 3025 
Q 903 2953 641 2809 
L 641 3341 
Q 956 3463 1253 3523 
Q 1550 3584 1831 3584 
Q 2591 3584 2966 3190 
Q 3341 2797 3341 1997 
z
" transform="scale(0.015625)"/>
        <path id="DejaVuSans-79" d="M 2059 -325 
Q 1816 -950 1584 -1140 
Q 1353 -1331 966 -1331 
L 506 -1331 
L 506 -850 
L 844 -850 
Q 1081 -850 1212 -737 
Q 1344 -625 1503 -206 
L 1606 56 
L 191 3500 
L 800 3500 
L 1894 763 
L 2988 3500 
L 3597 3500 
L 2059 -325 
z
" transform="scale(0.015625)"/>
        <path id="DejaVuSans-20" transform="scale(0.015625)"/>
        <path id="DejaVuSans-30" d="M 2034 4250 
Q 1547 4250 1301 3770 
Q 1056 3291 1056 2328 
Q 1056 1369 1301 889 
Q 1547 409 2034 409 
Q 2525 409 2770 889 
Q 3016 1369 3016 2328 
Q 3016 3291 2770 3770 
Q 2525 4250 2034 4250 
z
M 2034 4750 
Q 2819 4750 3233 4129 
Q 3647 3509 3647 2328 
Q 3647 1150 3233 529 
Q 2819 -91 2034 -91 
Q 1250 -91 836 529 
Q 422 1150 422 2328 
Q 422 3509 836 4129 
Q 1250 4750 2034 4750 
z
" transform="scale(0.015625)"/>
        <path id="DejaVuSans-3a" d="M 750 794 
L 1409 794 
L 1409 0 
L 750 0 
L 750 794 
z
M 750 3309 
L 1409 3309 
L 1409 2516 
L 750 2516 
L 750 3309 
z
" transform="scale(0.015625)"/>
       </defs>
       <use xlink:href="#DejaVuSans-4d"/>
       <use xlink:href="#DejaVuSans-6f" x="86.279297"/>
       <use xlink:href="#DejaVuSans-6e" x="147.460938"/>
       <use xlink:href="#DejaVuSans-64" x="210.839844"/>
       <use xlink:href="#DejaVuSans-61" x="274.316406"/>
       <use xlink:href="#DejaVuSans-79" x="335.595703"/>
       <use xlink:href="#DejaVuSans-20" x="394.775391"/>
       <use xlink:href="#DejaVuSans-30" x="426.5625"/>
       <use xlink:href="#DejaVuSans-30" x="490.185547"/>
       <use xlink:href="#DejaVuSans-3a" x="553.808594"/>
       <use xlink:href="#DejaVuSans-30" x="587.5"/>
       <use xlink:href="#DejaVuSans-30" x="651.123047"/>
      </g>
     </g>
    </g>
    <g id="xtick_2">
     <g id="line2d_3">
      <path d="M 104.72969 354.958125 
L 104.72969 22.318125 
" clip-path="url(#p84c60f4405)" style="fill: none; stroke: #b0b0b0; stroke-width: 0.8; stroke-linecap: square"/>
     </g>
     <g id="line2d_4">
      <g>
       <use xlink:href="#md4316a5f32" x="104.72969" y="354.958125" style="stroke: #000000; stroke-width: 0.8"/>
      </g>
     </g>
     <g id="text_2">
      <!-- 06:00 -->
      <g transform="translate(82.881195 387.708965) rotate(-45) scale(0.1 -0.1)">
       <defs>
        <path id="DejaVuSans-36" d="M 2113 2584 
Q 1688 2584 1439 2293 
Q 1191 2003 1191 1497 
Q 1191 994 1439 701 
Q 1688 409 2113 409 
Q 2538 409 2786 701 
Q 3034 994 3034 1497 
Q 3034 2003 2786 2293 
Q 2538 2584 2113 2584 
z
M 3366 4563 
L 3366 3988 
Q 3128 4100 2886 4159 
Q 2644 4219 2406 4219 
Q 1781 4219 1451 3797 
Q 1122 3375 1075 2522 
Q 1259 2794 1537 2939 
Q 1816 3084 2150 3084 
Q 2853 3084 3261 2657 
Q 3669 2231 3669 1497 
Q 3669 778 3244 343 
Q 2819 -91 2113 -91 
Q 1303 -91 875 529 
Q 447 1150 447 2328 
Q 447 3434 972 4092 
Q 1497 4750 2381 4750 
Q 2619 4750 2861 4703 
Q 3103 4656 3366 4563 
z
" transform="scale(0.015625)"/>
       </defs>
       <use xlink:href="#DejaVuSans-30"/>
       <use xlink:href="#DejaVuSans-36" x="63.623047"/>
       <use xlink:href="#DejaVuSans-3a" x="127.246094"/>
       <use xlink:href="#DejaVuSans-30" x="160.9375"/>
       <use xlink:href="#DejaVuSans-30" x="224.560547"/>
      </g>
     </g>
    </g>
    <g id="xtick_3">
     <g id="line2d_5">
      <path d="M 130.169038 354.958125 
L 130.169038 22.318125 
" clip-path="url(#p84c60f4405)" style="fill: none; stroke: #b0b0b0; stroke-width: 0.8; stroke-linecap: square"/>
     </g>
     <g id="line2d_6">
      <g>
       <use xlink:href="#md4316a5f32" x="130.169038" y="354.958125" style="stroke: #000000; stroke-width: 0.8"/>
      </g>
     </g>
     <g id="text_3">
      <!-- 12:00 -->
      <g transform="translate(108.320544 387.708965) rotate(-45) scale(0.1 -0.1)">
       <defs>
        <path id="DejaVuSans-31" d="M 794 531 
L 1825 531 
L 1825 4091 
L 703 3866 
L 703 4441 
L 1819 4666 
L 2450 4666 
L 2450 531 
L 3481 531 
L 3481 0 
L 794 0 
L 794 531 
z
" transform="scale(0.015625)"/>
        <path id="DejaVuSans-32" d="M 1228 531 
L 3431 531 
L 3431 0 
L 469 0 
L 469 531 
Q 828 903 1448 1529 
Q 2069 2156 2228 2338 
Q 2531 2678 2651 2914 
Q 2772 3150 2772 3378 
Q 2772 3750 2511 3984 
Q 2250 4219 1831 4219 
Q 1534 4219 1204 4116 
Q 875 4013 500 3803 
L 500 4441 
Q 881 4594 1212 4672 
Q 1544 4750 1819 4750 
Q 2544 4750 2975 4387 
Q 3406 4025 3406 3419 
Q 3406 3131 3298 2873 
Q 3191 2616 2906 2266 
Q 2828 2175 2409 1742 
Q 1991 1309 1228 531 
z
" transform="scale(0.015625)"/>
       </defs>
       <use xlink:href="#DejaVuSans-31"/>
       <use xlink:href="#DejaVuSans-32" x="63.623047"/>
       <use xlink:href="#DejaVuSans-3a" x="127.246094"/>
       <use xlink:href="#DejaVuSans-30" x="160.9375"/>
       <use xlink:href="#DejaVuSans-30" x="224.560547"/>
      </g>
     </g>
    </g>
    <g id="xtick_4">
     <g id="line2d_7">
      <path d="M 155.608387 354.958125 
L 155.608387 22.318125 
" clip-path="url(#p84c60f4405)" style="fill: none; stroke: #b0b0b0; stroke-width: 0.8; stroke-linecap: square"/>
     </g>
     <g id="line2d_8">
      <g>
       <use xlink:href="#md4316a5f32" x="155.608387" y="354.958125" style="stroke: #000000; stroke-width: 0.8"/>
      </g>
     </g>
     <g id="text_4">
      <!-- 18:00 -->
      <g transform="translate(133.759892 387.708965) rotate(-45) scale(0.1 -0.1)">
       <defs>
        <path id="DejaVuSans-38" d="M 2034 2216 
Q 1584 2216 1326 1975 
Q 1069 1734 1069 1313 
Q 1069 891 1326 650 
Q 1584 409 2034 409 
Q 2484 409 2743 651 
Q 3003 894 3003 1313 
Q 3003 1734 2745 1975 
Q 2488 2216 2034 2216 
z
M 1403 2484 
Q 997 2584 770 2862 
Q 544 3141 544 3541 
Q 544 4100 942 4425 
Q 1341 4750 2034 4750 
Q 2731 4750 3128 4425 
Q 3525 4100 3525 3541 
Q 3525 3141 3298 2862 
Q 3072 2584 2669 2484 
Q 3125 2378 3379 2068 
Q 3634 1759 3634 1313 
Q 3634 634 3220 271 
Q 2806 -91 2034 -91 
Q 1263 -91 848 271 
Q 434 634 434 1313 
Q 434 1759 690 2068 
Q 947 2378 1403 2484 
z
M 1172 3481 
Q 1172 3119 1398 2916 
Q 1625 2713 2034 2713 
Q 2441 2713 2670 2916 
Q 2900 3119 2900 3481 
Q 2900 3844 2670 4047 
Q 2441 4250 2034 4250 
Q 1625 4250 1398 4047 
Q 1172 3844 1172 3481 
z
" transform="scale(0.015625)"/>
       </defs>
       <use xlink:href="#DejaVuSans-31"/>
       <use xlink:href="#DejaVuSans-38" x="63.623047"/>
       <use xlink:href="#DejaVuSans-3a" x="127.246094"/>
       <use xlink:href="#DejaVuSans-30" x="160.9375"/>
       <use xlink:href="#DejaVuSans-30" x="224.560547"/>
      </g>
     </g>
    </g>
    <g id="xtick_5">
     <g id="line2d_9">
      <path d="M 181.047736 354.958125 
L 181.047736 22.318125 
" clip-path="url(#p84c60f4405)" style="fill: none; stroke: #b0b0b0; stroke-width: 0.8; stroke-linecap: square"/>
     </g>
     <g id="line2d_10">
      <g>
       <use xlink:href="#md4316a5f32" x="181.047736" y="354.958125" style="stroke: #000000; stroke-width: 0.8"/>
      </g>
     </g>
     <g id="text_5">
      <!-- Tuesday 00:00 -->
      <g transform="translate(128.17935 418.728856) rotate(-45) scale(0.1 -0.1)">
       <defs>
        <path id="DejaVuSans-54" d="M -19 4666 
L 3928 4666 
L 3928 4134 
L 2272 4134 
L 2272 0 
L 1638 0 
L 1638 4134 
L -19 4134 
L -19 4666 
z
" transform="scale(0.015625)"/>
        <path id="DejaVuSans-75" d="M 544 1381 
L 544 3500 
L 1119 3500 
L 1119 1403 
Q 1119 906 1312 657 
Q 1506 409 1894 409 
Q 2359 409 2629 706 
Q 2900 1003 2900 1516 
L 2900 3500 
L 3475 3500 
L 3475 0 
L 2900 0 
L 2900 538 
Q 2691 219 2414 64 
Q 2138 -91 1772 -91 
Q 1169 -91 856 284 
Q 544 659 544 1381 
z
M 1991 3584 
L 1991 3584 
z
" transform="scale(0.015625)"/>
        <path id="DejaVuSans-65" d="M 3597 1894 
L 3597 1613 
L 953 1613 
Q 991 1019 1311 708 
Q 1631 397 2203 397 
Q 2534 397 2845 478 
Q 3156 559 3463 722 
L 3463 178 
Q 3153 47 2828 -22 
Q 2503 -91 2169 -91 
Q 1331 -91 842 396 
Q 353 884 353 1716 
Q 353 2575 817 3079 
Q 1281 3584 2069 3584 
Q 2775 3584 3186 3129 
Q 3597 2675 3597 1894 
z
M 3022 2063 
Q 3016 2534 2758 2815 
Q 2500 3097 2075 3097 
Q 1594 3097 1305 2825 
Q 1016 2553 972 2059 
L 3022 2063 
z
" transform="scale(0.015625)"/>
        <path id="DejaVuSans-73" d="M 2834 3397 
L 2834 2853 
Q 2591 2978 2328 3040 
Q 2066 3103 1784 3103 
Q 1356 3103 1142 2972 
Q 928 2841 928 2578 
Q 928 2378 1081 2264 
Q 1234 2150 1697 2047 
L 1894 2003 
Q 2506 1872 2764 1633 
Q 3022 1394 3022 966 
Q 3022 478 2636 193 
Q 2250 -91 1575 -91 
Q 1294 -91 989 -36 
Q 684 19 347 128 
L 347 722 
Q 666 556 975 473 
Q 1284 391 1588 391 
Q 1994 391 2212 530 
Q 2431 669 2431 922 
Q 2431 1156 2273 1281 
Q 2116 1406 1581 1522 
L 1381 1569 
Q 847 1681 609 1914 
Q 372 2147 372 2553 
Q 372 3047 722 3315 
Q 1072 3584 1716 3584 
Q 2034 3584 2315 3537 
Q 2597 3491 2834 3397 
z
" transform="scale(0.015625)"/>
       </defs>
       <use xlink:href="#DejaVuSans-54"/>
       <use xlink:href="#DejaVuSans-75" x="45.958984"/>
       <use xlink:href="#DejaVuSans-65" x="109.337891"/>
       <use xlink:href="#DejaVuSans-73" x="170.861328"/>
       <use xlink:href="#DejaVuSans-64" x="222.960938"/>
       <use xlink:href="#DejaVuSans-61" x="286.4375"/>
       <use xlink:href="#DejaVuSans-79" x="347.716797"/>
       <use xlink:href="#DejaVuSans-20" x="406.896484"/>
       <use xlink:href="#DejaVuSans-30" x="438.683594"/>
       <use xlink:href="#DejaVuSans-30" x="502.306641"/>
       <use xlink:href="#DejaVuSans-3a" x="565.929688"/>
       <use xlink:href="#DejaVuSans-30" x="599.621094"/>
       <use xlink:href="#DejaVuSans-30" x="663.244141"/>
      </g>
     </g>
    </g>
    <g id="xtick_6">
     <g id="line2d_11">
      <path d="M 206.487084 354.958125 
L 206.487084 22.318125 
" clip-path="url(#p84c60f4405)" style="fill: none; stroke: #b0b0b0; stroke-width: 0.8; stroke-linecap: square"/>
     </g>
     <g id="line2d_12">
      <g>
       <use xlink:href="#md4316a5f32" x="206.487084" y="354.958125" style="stroke: #000000; stroke-width: 0.8"/>
      </g>
     </g>
     <g id="text_6">
      <!-- 06:00 -->
      <g transform="translate(184.63859 387.708965) rotate(-45) scale(0.1 -0.1)">
       <use xlink:href="#DejaVuSans-30"/>
       <use xlink:href="#DejaVuSans-36" x="63.623047"/>
       <use xlink:href="#DejaVuSans-3a" x="127.246094"/>
       <use xlink:href="#DejaVuSans-30" x="160.9375"/>
       <use xlink:href="#DejaVuSans-30" x="224.560547"/>
      </g>
     </g>
    </g>
    <g id="xtick_7">
     <g id="line2d_13">
      <path d="M 231.926433 354.958125 
L 231.926433 22.318125 
" clip-path="url(#p84c60f4405)" style="fill: none; stroke: #b0b0b0; stroke-width: 0.8; stroke-linecap: square"/>
     </g>
     <g id="line2d_14">
      <g>
       <use xlink:href="#md4316a5f32" x="231.926433" y="354.958125" style="stroke: #000000; stroke-width: 0.8"/>
      </g>
     </g>
     <g id="text_7">
      <!-- 12:00 -->
      <g transform="translate(210.077938 387.708965) rotate(-45) scale(0.1 -0.1)">
       <use xlink:href="#DejaVuSans-31"/>
       <use xlink:href="#DejaVuSans-32" x="63.623047"/>
       <use xlink:href="#DejaVuSans-3a" x="127.246094"/>
       <use xlink:href="#DejaVuSans-30" x="160.9375"/>
       <use xlink:href="#DejaVuSans-30" x="224.560547"/>
      </g>
     </g>
    </g>
    <g id="xtick_8">
     <g id="line2d_15">
      <path d="M 257.365782 354.958125 
L 257.365782 22.318125 
" clip-path="url(#p84c60f4405)" style="fill: none; stroke: #b0b0b0; stroke-width: 0.8; stroke-linecap: square"/>
     </g>
     <g id="line2d_16">
      <g>
       <use xlink:href="#md4316a5f32" x="257.365782" y="354.958125" style="stroke: #000000; stroke-width: 0.8"/>
      </g>
     </g>
     <g id="text_8">
      <!-- 18:00 -->
      <g transform="translate(235.517287 387.708965) rotate(-45) scale(0.1 -0.1)">
       <use xlink:href="#DejaVuSans-31"/>
       <use xlink:href="#DejaVuSans-38" x="63.623047"/>
       <use xlink:href="#DejaVuSans-3a" x="127.246094"/>
       <use xlink:href="#DejaVuSans-30" x="160.9375"/>
       <use xlink:href="#DejaVuSans-30" x="224.560547"/>
      </g>
     </g>
    </g>
    <g id="xtick_9">
     <g id="line2d_17">
      <path d="M 282.805131 354.958125 
L 282.805131 22.318125 
" clip-path="url(#p84c60f4405)" style="fill: none; stroke: #b0b0b0; stroke-width: 0.8; stroke-linecap: square"/>
     </g>
     <g id="line2d_18">
      <g>
       <use xlink:href="#md4316a5f32" x="282.805131" y="354.958125" style="stroke: #000000; stroke-width: 0.8"/>
      </g>
     </g>
     <g id="text_9">
      <!-- Wednesday 00:00 -->
      <g transform="translate(217.770089 430.895512) rotate(-45) scale(0.1 -0.1)">
       <defs>
        <path id="DejaVuSans-57" d="M 213 4666 
L 850 4666 
L 1831 722 
L 2809 4666 
L 3519 4666 
L 4500 722 
L 5478 4666 
L 6119 4666 
L 4947 0 
L 4153 0 
L 3169 4050 
L 2175 0 
L 1381 0 
L 213 4666 
z
" transform="scale(0.015625)"/>
       </defs>
       <use xlink:href="#DejaVuSans-57"/>
       <use xlink:href="#DejaVuSans-65" x="93.001953"/>
       <use xlink:href="#DejaVuSans-64" x="154.525391"/>
       <use xlink:href="#DejaVuSans-6e" x="218.001953"/>
       <use xlink:href="#DejaVuSans-65" x="281.380859"/>
       <use xlink:href="#DejaVuSans-73" x="342.904297"/>
       <use xlink:href="#DejaVuSans-64" x="395.003906"/>
       <use xlink:href="#DejaVuSans-61" x="458.480469"/>
       <use xlink:href="#DejaVuSans-79" x="519.759766"/>
       <use xlink:href="#DejaVuSans-20" x="578.939453"/>
       <use xlink:href="#DejaVuSans-30" x="610.726562"/>
       <use xlink:href="#DejaVuSans-30" x="674.349609"/>
       <use xlink:href="#DejaVuSans-3a" x="737.972656"/>
       <use xlink:href="#DejaVuSans-30" x="771.664062"/>
       <use xlink:href="#DejaVuSans-30" x="835.287109"/>
      </g>
     </g>
    </g>
    <g id="xtick_10">
     <g id="line2d_19">
      <path d="M 308.244479 354.958125 
L 308.244479 22.318125 
" clip-path="url(#p84c60f4405)" style="fill: none; stroke: #b0b0b0; stroke-width: 0.8; stroke-linecap: square"/>
     </g>
     <g id="line2d_20">
      <g>
       <use xlink:href="#md4316a5f32" x="308.244479" y="354.958125" style="stroke: #000000; stroke-width: 0.8"/>
      </g>
     </g>
     <g id="text_10">
      <!-- 06:00 -->
      <g transform="translate(286.395985 387.708965) rotate(-45) scale(0.1 -0.1)">
       <use xlink:href="#DejaVuSans-30"/>
       <use xlink:href="#DejaVuSans-36" x="63.623047"/>
       <use xlink:href="#DejaVuSans-3a" x="127.246094"/>
       <use xlink:href="#DejaVuSans-30" x="160.9375"/>
       <use xlink:href="#DejaVuSans-30" x="224.560547"/>
      </g>
     </g>
    </g>
    <g id="xtick_11">
     <g id="line2d_21">
      <path d="M 333.683828 354.958125 
L 333.683828 22.318125 
" clip-path="url(#p84c60f4405)" style="fill: none; stroke: #b0b0b0; stroke-width: 0.8; stroke-linecap: square"/>
     </g>
     <g id="line2d_22">
      <g>
       <use xlink:href="#md4316a5f32" x="333.683828" y="354.958125" style="stroke: #000000; stroke-width: 0.8"/>
      </g>
     </g>
     <g id="text_11">
      <!-- 12:00 -->
      <g transform="translate(311.835333 387.708965) rotate(-45) scale(0.1 -0.1)">
       <use xlink:href="#DejaVuSans-31"/>
       <use xlink:href="#DejaVuSans-32" x="63.623047"/>
       <use xlink:href="#DejaVuSans-3a" x="127.246094"/>
       <use xlink:href="#DejaVuSans-30" x="160.9375"/>
       <use xlink:href="#DejaVuSans-30" x="224.560547"/>
      </g>
     </g>
    </g>
    <g id="xtick_12">
     <g id="line2d_23">
      <path d="M 359.123177 354.958125 
L 359.123177 22.318125 
" clip-path="url(#p84c60f4405)" style="fill: none; stroke: #b0b0b0; stroke-width: 0.8; stroke-linecap: square"/>
     </g>
     <g id="line2d_24">
      <g>
       <use xlink:href="#md4316a5f32" x="359.123177" y="354.958125" style="stroke: #000000; stroke-width: 0.8"/>
      </g>
     </g>
     <g id="text_12">
      <!-- 18:00 -->
      <g transform="translate(337.274682 387.708965) rotate(-45) scale(0.1 -0.1)">
       <use xlink:href="#DejaVuSans-31"/>
       <use xlink:href="#DejaVuSans-38" x="63.623047"/>
       <use xlink:href="#DejaVuSans-3a" x="127.246094"/>
       <use xlink:href="#DejaVuSans-30" x="160.9375"/>
       <use xlink:href="#DejaVuSans-30" x="224.560547"/>
      </g>
     </g>
    </g>
    <g id="xtick_13">
     <g id="line2d_25">
      <path d="M 384.562525 354.958125 
L 384.562525 22.318125 
" clip-path="url(#p84c60f4405)" style="fill: none; stroke: #b0b0b0; stroke-width: 0.8; stroke-linecap: square"/>
     </g>
     <g id="line2d_26">
      <g>
       <use xlink:href="#md4316a5f32" x="384.562525" y="354.958125" style="stroke: #000000; stroke-width: 0.8"/>
      </g>
     </g>
     <g id="text_13">
      <!-- Thursday 00:00 -->
      <g transform="translate(327.587397 422.835599) rotate(-45) scale(0.1 -0.1)">
       <defs>
        <path id="DejaVuSans-68" d="M 3513 2113 
L 3513 0 
L 2938 0 
L 2938 2094 
Q 2938 2591 2744 2837 
Q 2550 3084 2163 3084 
Q 1697 3084 1428 2787 
Q 1159 2491 1159 1978 
L 1159 0 
L 581 0 
L 581 4863 
L 1159 4863 
L 1159 2956 
Q 1366 3272 1645 3428 
Q 1925 3584 2291 3584 
Q 2894 3584 3203 3211 
Q 3513 2838 3513 2113 
z
" transform="scale(0.015625)"/>
        <path id="DejaVuSans-72" d="M 2631 2963 
Q 2534 3019 2420 3045 
Q 2306 3072 2169 3072 
Q 1681 3072 1420 2755 
Q 1159 2438 1159 1844 
L 1159 0 
L 581 0 
L 581 3500 
L 1159 3500 
L 1159 2956 
Q 1341 3275 1631 3429 
Q 1922 3584 2338 3584 
Q 2397 3584 2469 3576 
Q 2541 3569 2628 3553 
L 2631 2963 
z
" transform="scale(0.015625)"/>
       </defs>
       <use xlink:href="#DejaVuSans-54"/>
       <use xlink:href="#DejaVuSans-68" x="61.083984"/>
       <use xlink:href="#DejaVuSans-75" x="124.462891"/>
       <use xlink:href="#DejaVuSans-72" x="187.841797"/>
       <use xlink:href="#DejaVuSans-73" x="228.955078"/>
       <use xlink:href="#DejaVuSans-64" x="281.054688"/>
       <use xlink:href="#DejaVuSans-61" x="344.53125"/>
       <use xlink:href="#DejaVuSans-79" x="405.810547"/>
       <use xlink:href="#DejaVuSans-20" x="464.990234"/>
       <use xlink:href="#DejaVuSans-30" x="496.777344"/>
       <use xlink:href="#DejaVuSans-30" x="560.400391"/>
       <use xlink:href="#DejaVuSans-3a" x="624.023438"/>
       <use xlink:href="#DejaVuSans-30" x="657.714844"/>
       <use xlink:href="#DejaVuSans-30" x="721.337891"/>
      </g>
     </g>
    </g>
    <g id="xtick_14">
     <g id="line2d_27">
      <path d="M 410.001874 354.958125 
L 410.001874 22.318125 
" clip-path="url(#p84c60f4405)" style="fill: none; stroke: #b0b0b0; stroke-width: 0.8; stroke-linecap: square"/>
     </g>
     <g id="line2d_28">
      <g>
       <use xlink:href="#md4316a5f32" x="410.001874" y="354.958125" style="stroke: #000000; stroke-width: 0.8"/>
      </g>
     </g>
     <g id="text_14">
      <!-- 06:00 -->
      <g transform="translate(388.153379 387.708965) rotate(-45) scale(0.1 -0.1)">
       <use xlink:href="#DejaVuSans-30"/>
       <use xlink:href="#DejaVuSans-36" x="63.623047"/>
       <use xlink:href="#DejaVuSans-3a" x="127.246094"/>
       <use xlink:href="#DejaVuSans-30" x="160.9375"/>
       <use xlink:href="#DejaVuSans-30" x="224.560547"/>
      </g>
     </g>
    </g>
    <g id="xtick_15">
     <g id="line2d_29">
      <path d="M 435.441223 354.958125 
L 435.441223 22.318125 
" clip-path="url(#p84c60f4405)" style="fill: none; stroke: #b0b0b0; stroke-width: 0.8; stroke-linecap: square"/>
     </g>
     <g id="line2d_30">
      <g>
       <use xlink:href="#md4316a5f32" x="435.441223" y="354.958125" style="stroke: #000000; stroke-width: 0.8"/>
      </g>
     </g>
     <g id="text_15">
      <!-- 12:00 -->
      <g transform="translate(413.592728 387.708965) rotate(-45) scale(0.1 -0.1)">
       <use xlink:href="#DejaVuSans-31"/>
       <use xlink:href="#DejaVuSans-32" x="63.623047"/>
       <use xlink:href="#DejaVuSans-3a" x="127.246094"/>
       <use xlink:href="#DejaVuSans-30" x="160.9375"/>
       <use xlink:href="#DejaVuSans-30" x="224.560547"/>
      </g>
     </g>
    </g>
    <g id="xtick_16">
     <g id="line2d_31">
      <path d="M 460.880572 354.958125 
L 460.880572 22.318125 
" clip-path="url(#p84c60f4405)" style="fill: none; stroke: #b0b0b0; stroke-width: 0.8; stroke-linecap: square"/>
     </g>
     <g id="line2d_32">
      <g>
       <use xlink:href="#md4316a5f32" x="460.880572" y="354.958125" style="stroke: #000000; stroke-width: 0.8"/>
      </g>
     </g>
     <g id="text_16">
      <!-- 18:00 -->
      <g transform="translate(439.032077 387.708965) rotate(-45) scale(0.1 -0.1)">
       <use xlink:href="#DejaVuSans-31"/>
       <use xlink:href="#DejaVuSans-38" x="63.623047"/>
       <use xlink:href="#DejaVuSans-3a" x="127.246094"/>
       <use xlink:href="#DejaVuSans-30" x="160.9375"/>
       <use xlink:href="#DejaVuSans-30" x="224.560547"/>
      </g>
     </g>
    </g>
    <g id="xtick_17">
     <g id="line2d_33">
      <path d="M 486.31992 354.958125 
L 486.31992 22.318125 
" clip-path="url(#p84c60f4405)" style="fill: none; stroke: #b0b0b0; stroke-width: 0.8; stroke-linecap: square"/>
     </g>
     <g id="line2d_34">
      <g>
       <use xlink:href="#md4316a5f32" x="486.31992" y="354.958125" style="stroke: #000000; stroke-width: 0.8"/>
      </g>
     </g>
     <g id="text_17">
      <!-- Friday 00:00 -->
      <g transform="translate(440.791082 411.389308) rotate(-45) scale(0.1 -0.1)">
       <defs>
        <path id="DejaVuSans-46" d="M 628 4666 
L 3309 4666 
L 3309 4134 
L 1259 4134 
L 1259 2759 
L 3109 2759 
L 3109 2228 
L 1259 2228 
L 1259 0 
L 628 0 
L 628 4666 
z
" transform="scale(0.015625)"/>
        <path id="DejaVuSans-69" d="M 603 3500 
L 1178 3500 
L 1178 0 
L 603 0 
L 603 3500 
z
M 603 4863 
L 1178 4863 
L 1178 4134 
L 603 4134 
L 603 4863 
z
" transform="scale(0.015625)"/>
       </defs>
       <use xlink:href="#DejaVuSans-46"/>
       <use xlink:href="#DejaVuSans-72" x="50.269531"/>
       <use xlink:href="#DejaVuSans-69" x="91.382812"/>
       <use xlink:href="#DejaVuSans-64" x="119.166016"/>
       <use xlink:href="#DejaVuSans-61" x="182.642578"/>
       <use xlink:href="#DejaVuSans-79" x="243.921875"/>
       <use xlink:href="#DejaVuSans-20" x="303.101562"/>
       <use xlink:href="#DejaVuSans-30" x="334.888672"/>
       <use xlink:href="#DejaVuSans-30" x="398.511719"/>
       <use xlink:href="#DejaVuSans-3a" x="462.134766"/>
       <use xlink:href="#DejaVuSans-30" x="495.826172"/>
       <use xlink:href="#DejaVuSans-30" x="559.449219"/>
      </g>
     </g>
    </g>
    <g id="xtick_18">
     <g id="line2d_35">
      <path d="M 511.759269 354.958125 
L 511.759269 22.318125 
" clip-path="url(#p84c60f4405)" style="fill: none; stroke: #b0b0b0; stroke-width: 0.8; stroke-linecap: square"/>
     </g>
     <g id="line2d_36">
      <g>
       <use xlink:href="#md4316a5f32" x="511.759269" y="354.958125" style="stroke: #000000; stroke-width: 0.8"/>
      </g>
     </g>
     <g id="text_18">
      <!-- 06:00 -->
      <g transform="translate(489.910774 387.708965) rotate(-45) scale(0.1 -0.1)">
       <use xlink:href="#DejaVuSans-30"/>
       <use xlink:href="#DejaVuSans-36" x="63.623047"/>
       <use xlink:href="#DejaVuSans-3a" x="127.246094"/>
       <use xlink:href="#DejaVuSans-30" x="160.9375"/>
       <use xlink:href="#DejaVuSans-30" x="224.560547"/>
      </g>
     </g>
    </g>
    <g id="xtick_19">
     <g id="line2d_37">
      <path d="M 537.198618 354.958125 
L 537.198618 22.318125 
" clip-path="url(#p84c60f4405)" style="fill: none; stroke: #b0b0b0; stroke-width: 0.8; stroke-linecap: square"/>
     </g>
     <g id="line2d_38">
      <g>
       <use xlink:href="#md4316a5f32" x="537.198618" y="354.958125" style="stroke: #000000; stroke-width: 0.8"/>
      </g>
     </g>
     <g id="text_19">
      <!-- 12:00 -->
      <g transform="translate(515.350123 387.708965) rotate(-45) scale(0.1 -0.1)">
       <use xlink:href="#DejaVuSans-31"/>
       <use xlink:href="#DejaVuSans-32" x="63.623047"/>
       <use xlink:href="#DejaVuSans-3a" x="127.246094"/>
       <use xlink:href="#DejaVuSans-30" x="160.9375"/>
       <use xlink:href="#DejaVuSans-30" x="224.560547"/>
      </g>
     </g>
    </g>
    <g id="xtick_20">
     <g id="line2d_39">
      <path d="M 562.637966 354.958125 
L 562.637966 22.318125 
" clip-path="url(#p84c60f4405)" style="fill: none; stroke: #b0b0b0; stroke-width: 0.8; stroke-linecap: square"/>
     </g>
     <g id="line2d_40">
      <g>
       <use xlink:href="#md4316a5f32" x="562.637966" y="354.958125" style="stroke: #000000; stroke-width: 0.8"/>
      </g>
     </g>
     <g id="text_20">
      <!-- 18:00 -->
      <g transform="translate(540.789472 387.708965) rotate(-45) scale(0.1 -0.1)">
       <use xlink:href="#DejaVuSans-31"/>
       <use xlink:href="#DejaVuSans-38" x="63.623047"/>
       <use xlink:href="#DejaVuSans-3a" x="127.246094"/>
       <use xlink:href="#DejaVuSans-30" x="160.9375"/>
       <use xlink:href="#DejaVuSans-30" x="224.560547"/>
      </g>
     </g>
    </g>
    <g id="xtick_21">
     <g id="line2d_41">
      <path d="M 588.077315 354.958125 
L 588.077315 22.318125 
" clip-path="url(#p84c60f4405)" style="fill: none; stroke: #b0b0b0; stroke-width: 0.8; stroke-linecap: square"/>
     </g>
     <g id="line2d_42">
      <g>
       <use xlink:href="#md4316a5f32" x="588.077315" y="354.958125" style="stroke: #000000; stroke-width: 0.8"/>
      </g>
     </g>
     <g id="text_21">
      <!-- Saturday 00:00 -->
      <g transform="translate(532.115338 421.822448) rotate(-45) scale(0.1 -0.1)">
       <defs>
        <path id="DejaVuSans-53" d="M 3425 4513 
L 3425 3897 
Q 3066 4069 2747 4153 
Q 2428 4238 2131 4238 
Q 1616 4238 1336 4038 
Q 1056 3838 1056 3469 
Q 1056 3159 1242 3001 
Q 1428 2844 1947 2747 
L 2328 2669 
Q 3034 2534 3370 2195 
Q 3706 1856 3706 1288 
Q 3706 609 3251 259 
Q 2797 -91 1919 -91 
Q 1588 -91 1214 -16 
Q 841 59 441 206 
L 441 856 
Q 825 641 1194 531 
Q 1563 422 1919 422 
Q 2459 422 2753 634 
Q 3047 847 3047 1241 
Q 3047 1584 2836 1778 
Q 2625 1972 2144 2069 
L 1759 2144 
Q 1053 2284 737 2584 
Q 422 2884 422 3419 
Q 422 4038 858 4394 
Q 1294 4750 2059 4750 
Q 2388 4750 2728 4690 
Q 3069 4631 3425 4513 
z
" transform="scale(0.015625)"/>
        <path id="DejaVuSans-74" d="M 1172 4494 
L 1172 3500 
L 2356 3500 
L 2356 3053 
L 1172 3053 
L 1172 1153 
Q 1172 725 1289 603 
Q 1406 481 1766 481 
L 2356 481 
L 2356 0 
L 1766 0 
Q 1100 0 847 248 
Q 594 497 594 1153 
L 594 3053 
L 172 3053 
L 172 3500 
L 594 3500 
L 594 4494 
L 1172 4494 
z
" transform="scale(0.015625)"/>
       </defs>
       <use xlink:href="#DejaVuSans-53"/>
       <use xlink:href="#DejaVuSans-61" x="63.476562"/>
       <use xlink:href="#DejaVuSans-74" x="124.755859"/>
       <use xlink:href="#DejaVuSans-75" x="163.964844"/>
       <use xlink:href="#DejaVuSans-72" x="227.34375"/>
       <use xlink:href="#DejaVuSans-64" x="266.707031"/>
       <use xlink:href="#DejaVuSans-61" x="330.183594"/>
       <use xlink:href="#DejaVuSans-79" x="391.462891"/>
       <use xlink:href="#DejaVuSans-20" x="450.642578"/>
       <use xlink:href="#DejaVuSans-30" x="482.429688"/>
       <use xlink:href="#DejaVuSans-30" x="546.052734"/>
       <use xlink:href="#DejaVuSans-3a" x="609.675781"/>
       <use xlink:href="#DejaVuSans-30" x="643.367188"/>
       <use xlink:href="#DejaVuSans-30" x="706.990234"/>
      </g>
     </g>
    </g>
    <g id="xtick_22">
     <g id="line2d_43">
      <path d="M 613.516664 354.958125 
L 613.516664 22.318125 
" clip-path="url(#p84c60f4405)" style="fill: none; stroke: #b0b0b0; stroke-width: 0.8; stroke-linecap: square"/>
     </g>
     <g id="line2d_44">
      <g>
       <use xlink:href="#md4316a5f32" x="613.516664" y="354.958125" style="stroke: #000000; stroke-width: 0.8"/>
      </g>
     </g>
     <g id="text_22">
      <!-- 06:00 -->
      <g transform="translate(591.668169 387.708965) rotate(-45) scale(0.1 -0.1)">
       <use xlink:href="#DejaVuSans-30"/>
       <use xlink:href="#DejaVuSans-36" x="63.623047"/>
       <use xlink:href="#DejaVuSans-3a" x="127.246094"/>
       <use xlink:href="#DejaVuSans-30" x="160.9375"/>
       <use xlink:href="#DejaVuSans-30" x="224.560547"/>
      </g>
     </g>
    </g>
    <g id="xtick_23">
     <g id="line2d_45">
      <path d="M 638.956013 354.958125 
L 638.956013 22.318125 
" clip-path="url(#p84c60f4405)" style="fill: none; stroke: #b0b0b0; stroke-width: 0.8; stroke-linecap: square"/>
     </g>
     <g id="line2d_46">
      <g>
       <use xlink:href="#md4316a5f32" x="638.956013" y="354.958125" style="stroke: #000000; stroke-width: 0.8"/>
      </g>
     </g>
     <g id="text_23">
      <!-- 12:00 -->
      <g transform="translate(617.107518 387.708965) rotate(-45) scale(0.1 -0.1)">
       <use xlink:href="#DejaVuSans-31"/>
       <use xlink:href="#DejaVuSans-32" x="63.623047"/>
       <use xlink:href="#DejaVuSans-3a" x="127.246094"/>
       <use xlink:href="#DejaVuSans-30" x="160.9375"/>
       <use xlink:href="#DejaVuSans-30" x="224.560547"/>
      </g>
     </g>
    </g>
    <g id="xtick_24">
     <g id="line2d_47">
      <path d="M 664.395361 354.958125 
L 664.395361 22.318125 
" clip-path="url(#p84c60f4405)" style="fill: none; stroke: #b0b0b0; stroke-width: 0.8; stroke-linecap: square"/>
     </g>
     <g id="line2d_48">
      <g>
       <use xlink:href="#md4316a5f32" x="664.395361" y="354.958125" style="stroke: #000000; stroke-width: 0.8"/>
      </g>
     </g>
     <g id="text_24">
      <!-- 18:00 -->
      <g transform="translate(642.546867 387.708965) rotate(-45) scale(0.1 -0.1)">
       <use xlink:href="#DejaVuSans-31"/>
       <use xlink:href="#DejaVuSans-38" x="63.623047"/>
       <use xlink:href="#DejaVuSans-3a" x="127.246094"/>
       <use xlink:href="#DejaVuSans-30" x="160.9375"/>
       <use xlink:href="#DejaVuSans-30" x="224.560547"/>
      </g>
     </g>
    </g>
    <g id="xtick_25">
     <g id="line2d_49">
      <path d="M 689.83471 354.958125 
L 689.83471 22.318125 
" clip-path="url(#p84c60f4405)" style="fill: none; stroke: #b0b0b0; stroke-width: 0.8; stroke-linecap: square"/>
     </g>
     <g id="line2d_50">
      <g>
       <use xlink:href="#md4316a5f32" x="689.83471" y="354.958125" style="stroke: #000000; stroke-width: 0.8"/>
      </g>
     </g>
     <g id="text_25">
      <!-- Sunday 00:00 -->
      <g transform="translate(639.27989 416.415291) rotate(-45) scale(0.1 -0.1)">
       <use xlink:href="#DejaVuSans-53"/>
       <use xlink:href="#DejaVuSans-75" x="63.476562"/>
       <use xlink:href="#DejaVuSans-6e" x="126.855469"/>
       <use xlink:href="#DejaVuSans-64" x="190.234375"/>
       <use xlink:href="#DejaVuSans-61" x="253.710938"/>
       <use xlink:href="#DejaVuSans-79" x="314.990234"/>
       <use xlink:href="#DejaVuSans-20" x="374.169922"/>
       <use xlink:href="#DejaVuSans-30" x="405.957031"/>
       <use xlink:href="#DejaVuSans-30" x="469.580078"/>
       <use xlink:href="#DejaVuSans-3a" x="533.203125"/>
       <use xlink:href="#DejaVuSans-30" x="566.894531"/>
       <use xlink:href="#DejaVuSans-30" x="630.517578"/>
      </g>
     </g>
    </g>
    <g id="xtick_26">
     <g id="line2d_51">
      <path d="M 715.274059 354.958125 
L 715.274059 22.318125 
" clip-path="url(#p84c60f4405)" style="fill: none; stroke: #b0b0b0; stroke-width: 0.8; stroke-linecap: square"/>
     </g>
     <g id="line2d_52">
      <g>
       <use xlink:href="#md4316a5f32" x="715.274059" y="354.958125" style="stroke: #000000; stroke-width: 0.8"/>
      </g>
     </g>
     <g id="text_26">
      <!-- 06:00 -->
      <g transform="translate(693.425564 387.708965) rotate(-45) scale(0.1 -0.1)">
       <use xlink:href="#DejaVuSans-30"/>
       <use xlink:href="#DejaVuSans-36" x="63.623047"/>
       <use xlink:href="#DejaVuSans-3a" x="127.246094"/>
       <use xlink:href="#DejaVuSans-30" x="160.9375"/>
       <use xlink:href="#DejaVuSans-30" x="224.560547"/>
      </g>
     </g>
    </g>
    <g id="xtick_27">
     <g id="line2d_53">
      <path d="M 740.713407 354.958125 
L 740.713407 22.318125 
" clip-path="url(#p84c60f4405)" style="fill: none; stroke: #b0b0b0; stroke-width: 0.8; stroke-linecap: square"/>
     </g>
     <g id="line2d_54">
      <g>
       <use xlink:href="#md4316a5f32" x="740.713407" y="354.958125" style="stroke: #000000; stroke-width: 0.8"/>
      </g>
     </g>
     <g id="text_27">
      <!-- 12:00 -->
      <g transform="translate(718.864913 387.708965) rotate(-45) scale(0.1 -0.1)">
       <use xlink:href="#DejaVuSans-31"/>
       <use xlink:href="#DejaVuSans-32" x="63.623047"/>
       <use xlink:href="#DejaVuSans-3a" x="127.246094"/>
       <use xlink:href="#DejaVuSans-30" x="160.9375"/>
       <use xlink:href="#DejaVuSans-30" x="224.560547"/>
      </g>
     </g>
    </g>
    <g id="xtick_28">
     <g id="line2d_55">
      <path d="M 766.152756 354.958125 
L 766.152756 22.318125 
" clip-path="url(#p84c60f4405)" style="fill: none; stroke: #b0b0b0; stroke-width: 0.8; stroke-linecap: square"/>
     </g>
     <g id="line2d_56">
      <g>
       <use xlink:href="#md4316a5f32" x="766.152756" y="354.958125" style="stroke: #000000; stroke-width: 0.8"/>
      </g>
     </g>
     <g id="text_28">
      <!-- 18:00 -->
      <g transform="translate(744.304261 387.708965) rotate(-45) scale(0.1 -0.1)">
       <use xlink:href="#DejaVuSans-31"/>
       <use xlink:href="#DejaVuSans-38" x="63.623047"/>
       <use xlink:href="#DejaVuSans-3a" x="127.246094"/>
       <use xlink:href="#DejaVuSans-30" x="160.9375"/>
       <use xlink:href="#DejaVuSans-30" x="224.560547"/>
      </g>
     </g>
    </g>
    <g id="text_29">
     <!-- Time -->
     <g transform="translate(422.147656 443.964511) scale(0.1 -0.1)">
      <defs>
       <path id="DejaVuSans-6d" d="M 3328 2828 
Q 3544 3216 3844 3400 
Q 4144 3584 4550 3584 
Q 5097 3584 5394 3201 
Q 5691 2819 5691 2113 
L 5691 0 
L 5113 0 
L 5113 2094 
Q 5113 2597 4934 2840 
Q 4756 3084 4391 3084 
Q 3944 3084 3684 2787 
Q 3425 2491 3425 1978 
L 3425 0 
L 2847 0 
L 2847 2094 
Q 2847 2600 2669 2842 
Q 2491 3084 2119 3084 
Q 1678 3084 1418 2786 
Q 1159 2488 1159 1978 
L 1159 0 
L 581 0 
L 581 3500 
L 1159 3500 
L 1159 2956 
Q 1356 3278 1631 3431 
Q 1906 3584 2284 3584 
Q 2666 3584 2933 3390 
Q 3200 3197 3328 2828 
z
" transform="scale(0.015625)"/>
      </defs>
      <use xlink:href="#DejaVuSans-54"/>
      <use xlink:href="#DejaVuSans-69" x="57.958984"/>
      <use xlink:href="#DejaVuSans-6d" x="85.742188"/>
      <use xlink:href="#DejaVuSans-65" x="183.154297"/>
     </g>
    </g>
   </g>
   <g id="matplotlib.axis_2">
    <g id="ytick_1">
     <g id="line2d_57">
      <path d="M 43.78125 311.690154 
L 824.98125 311.690154 
" clip-path="url(#p84c60f4405)" style="fill: none; stroke: #b0b0b0; stroke-width: 0.8; stroke-linecap: square"/>
     </g>
     <g id="line2d_58">
      <defs>
       <path id="mcd54621c18" d="M 0 0 
L -3.5 0 
" style="stroke: #000000; stroke-width: 0.8"/>
      </defs>
      <g>
       <use xlink:href="#mcd54621c18" x="43.78125" y="311.690154" style="stroke: #000000; stroke-width: 0.8"/>
      </g>
     </g>
     <g id="text_30">
      <!-- 0.0 -->
      <g transform="translate(20.878125 315.489372) scale(0.1 -0.1)">
       <defs>
        <path id="DejaVuSans-2e" d="M 684 794 
L 1344 794 
L 1344 0 
L 684 0 
L 684 794 
z
" transform="scale(0.015625)"/>
       </defs>
       <use xlink:href="#DejaVuSans-30"/>
       <use xlink:href="#DejaVuSans-2e" x="63.623047"/>
       <use xlink:href="#DejaVuSans-30" x="95.410156"/>
      </g>
     </g>
    </g>
    <g id="ytick_2">
     <g id="line2d_59">
      <path d="M 43.78125 251.272981 
L 824.98125 251.272981 
" clip-path="url(#p84c60f4405)" style="fill: none; stroke: #b0b0b0; stroke-width: 0.8; stroke-linecap: square"/>
     </g>
     <g id="line2d_60">
      <g>
       <use xlink:href="#mcd54621c18" x="43.78125" y="251.272981" style="stroke: #000000; stroke-width: 0.8"/>
      </g>
     </g>
     <g id="text_31">
      <!-- 0.5 -->
      <g transform="translate(20.878125 255.072199) scale(0.1 -0.1)">
       <defs>
        <path id="DejaVuSans-35" d="M 691 4666 
L 3169 4666 
L 3169 4134 
L 1269 4134 
L 1269 2991 
Q 1406 3038 1543 3061 
Q 1681 3084 1819 3084 
Q 2600 3084 3056 2656 
Q 3513 2228 3513 1497 
Q 3513 744 3044 326 
Q 2575 -91 1722 -91 
Q 1428 -91 1123 -41 
Q 819 9 494 109 
L 494 744 
Q 775 591 1075 516 
Q 1375 441 1709 441 
Q 2250 441 2565 725 
Q 2881 1009 2881 1497 
Q 2881 1984 2565 2268 
Q 2250 2553 1709 2553 
Q 1456 2553 1204 2497 
Q 953 2441 691 2322 
L 691 4666 
z
" transform="scale(0.015625)"/>
       </defs>
       <use xlink:href="#DejaVuSans-30"/>
       <use xlink:href="#DejaVuSans-2e" x="63.623047"/>
       <use xlink:href="#DejaVuSans-35" x="95.410156"/>
      </g>
     </g>
    </g>
    <g id="ytick_3">
     <g id="line2d_61">
      <path d="M 43.78125 190.855807 
L 824.98125 190.855807 
" clip-path="url(#p84c60f4405)" style="fill: none; stroke: #b0b0b0; stroke-width: 0.8; stroke-linecap: square"/>
     </g>
     <g id="line2d_62">
      <g>
       <use xlink:href="#mcd54621c18" x="43.78125" y="190.855807" style="stroke: #000000; stroke-width: 0.8"/>
      </g>
     </g>
     <g id="text_32">
      <!-- 1.0 -->
      <g transform="translate(20.878125 194.655026) scale(0.1 -0.1)">
       <use xlink:href="#DejaVuSans-31"/>
       <use xlink:href="#DejaVuSans-2e" x="63.623047"/>
       <use xlink:href="#DejaVuSans-30" x="95.410156"/>
      </g>
     </g>
    </g>
    <g id="ytick_4">
     <g id="line2d_63">
      <path d="M 43.78125 130.438634 
L 824.98125 130.438634 
" clip-path="url(#p84c60f4405)" style="fill: none; stroke: #b0b0b0; stroke-width: 0.8; stroke-linecap: square"/>
     </g>
     <g id="line2d_64">
      <g>
       <use xlink:href="#mcd54621c18" x="43.78125" y="130.438634" style="stroke: #000000; stroke-width: 0.8"/>
      </g>
     </g>
     <g id="text_33">
      <!-- 1.5 -->
      <g transform="translate(20.878125 134.237853) scale(0.1 -0.1)">
       <use xlink:href="#DejaVuSans-31"/>
       <use xlink:href="#DejaVuSans-2e" x="63.623047"/>
       <use xlink:href="#DejaVuSans-35" x="95.410156"/>
      </g>
     </g>
    </g>
    <g id="ytick_5">
     <g id="line2d_65">
      <path d="M 43.78125 70.021461 
L 824.98125 70.021461 
" clip-path="url(#p84c60f4405)" style="fill: none; stroke: #b0b0b0; stroke-width: 0.8; stroke-linecap: square"/>
     </g>
     <g id="line2d_66">
      <g>
       <use xlink:href="#mcd54621c18" x="43.78125" y="70.021461" style="stroke: #000000; stroke-width: 0.8"/>
      </g>
     </g>
     <g id="text_34">
      <!-- 2.0 -->
      <g transform="translate(20.878125 73.82068) scale(0.1 -0.1)">
       <use xlink:href="#DejaVuSans-32"/>
       <use xlink:href="#DejaVuSans-2e" x="63.623047"/>
       <use xlink:href="#DejaVuSans-30" x="95.410156"/>
      </g>
     </g>
    </g>
    <g id="text_35">
     <!-- Power Usage (Wh/m^2, P1) -->
     <g transform="translate(14.798438 257.823281) rotate(-90) scale(0.1 -0.1)">
      <defs>
       <path id="DejaVuSans-50" d="M 1259 4147 
L 1259 2394 
L 2053 2394 
Q 2494 2394 2734 2622 
Q 2975 2850 2975 3272 
Q 2975 3691 2734 3919 
Q 2494 4147 2053 4147 
L 1259 4147 
z
M 628 4666 
L 2053 4666 
Q 2838 4666 3239 4311 
Q 3641 3956 3641 3272 
Q 3641 2581 3239 2228 
Q 2838 1875 2053 1875 
L 1259 1875 
L 1259 0 
L 628 0 
L 628 4666 
z
" transform="scale(0.015625)"/>
       <path id="DejaVuSans-77" d="M 269 3500 
L 844 3500 
L 1563 769 
L 2278 3500 
L 2956 3500 
L 3675 769 
L 4391 3500 
L 4966 3500 
L 4050 0 
L 3372 0 
L 2619 2869 
L 1863 0 
L 1184 0 
L 269 3500 
z
" transform="scale(0.015625)"/>
       <path id="DejaVuSans-55" d="M 556 4666 
L 1191 4666 
L 1191 1831 
Q 1191 1081 1462 751 
Q 1734 422 2344 422 
Q 2950 422 3222 751 
Q 3494 1081 3494 1831 
L 3494 4666 
L 4128 4666 
L 4128 1753 
Q 4128 841 3676 375 
Q 3225 -91 2344 -91 
Q 1459 -91 1007 375 
Q 556 841 556 1753 
L 556 4666 
z
" transform="scale(0.015625)"/>
       <path id="DejaVuSans-67" d="M 2906 1791 
Q 2906 2416 2648 2759 
Q 2391 3103 1925 3103 
Q 1463 3103 1205 2759 
Q 947 2416 947 1791 
Q 947 1169 1205 825 
Q 1463 481 1925 481 
Q 2391 481 2648 825 
Q 2906 1169 2906 1791 
z
M 3481 434 
Q 3481 -459 3084 -895 
Q 2688 -1331 1869 -1331 
Q 1566 -1331 1297 -1286 
Q 1028 -1241 775 -1147 
L 775 -588 
Q 1028 -725 1275 -790 
Q 1522 -856 1778 -856 
Q 2344 -856 2625 -561 
Q 2906 -266 2906 331 
L 2906 616 
Q 2728 306 2450 153 
Q 2172 0 1784 0 
Q 1141 0 747 490 
Q 353 981 353 1791 
Q 353 2603 747 3093 
Q 1141 3584 1784 3584 
Q 2172 3584 2450 3431 
Q 2728 3278 2906 2969 
L 2906 3500 
L 3481 3500 
L 3481 434 
z
" transform="scale(0.015625)"/>
       <path id="DejaVuSans-28" d="M 1984 4856 
Q 1566 4138 1362 3434 
Q 1159 2731 1159 2009 
Q 1159 1288 1364 580 
Q 1569 -128 1984 -844 
L 1484 -844 
Q 1016 -109 783 600 
Q 550 1309 550 2009 
Q 550 2706 781 3412 
Q 1013 4119 1484 4856 
L 1984 4856 
z
" transform="scale(0.015625)"/>
       <path id="DejaVuSans-2f" d="M 1625 4666 
L 2156 4666 
L 531 -594 
L 0 -594 
L 1625 4666 
z
" transform="scale(0.015625)"/>
       <path id="DejaVuSans-5e" d="M 2988 4666 
L 4684 2925 
L 4056 2925 
L 2681 4159 
L 1306 2925 
L 678 2925 
L 2375 4666 
L 2988 4666 
z
" transform="scale(0.015625)"/>
       <path id="DejaVuSans-2c" d="M 750 794 
L 1409 794 
L 1409 256 
L 897 -744 
L 494 -744 
L 750 256 
L 750 794 
z
" transform="scale(0.015625)"/>
       <path id="DejaVuSans-29" d="M 513 4856 
L 1013 4856 
Q 1481 4119 1714 3412 
Q 1947 2706 1947 2009 
Q 1947 1309 1714 600 
Q 1481 -109 1013 -844 
L 513 -844 
Q 928 -128 1133 580 
Q 1338 1288 1338 2009 
Q 1338 2731 1133 3434 
Q 928 4138 513 4856 
z
" transform="scale(0.015625)"/>
      </defs>
      <use xlink:href="#DejaVuSans-50"/>
      <use xlink:href="#DejaVuSans-6f" x="56.677734"/>
      <use xlink:href="#DejaVuSans-77" x="117.859375"/>
      <use xlink:href="#DejaVuSans-65" x="199.646484"/>
      <use xlink:href="#DejaVuSans-72" x="261.169922"/>
      <use xlink:href="#DejaVuSans-20" x="302.283203"/>
      <use xlink:href="#DejaVuSans-55" x="334.070312"/>
      <use xlink:href="#DejaVuSans-73" x="407.263672"/>
      <use xlink:href="#DejaVuSans-61" x="459.363281"/>
      <use xlink:href="#DejaVuSans-67" x="520.642578"/>
      <use xlink:href="#DejaVuSans-65" x="584.119141"/>
      <use xlink:href="#DejaVuSans-20" x="645.642578"/>
      <use xlink:href="#DejaVuSans-28" x="677.429688"/>
      <use xlink:href="#DejaVuSans-57" x="716.443359"/>
      <use xlink:href="#DejaVuSans-68" x="815.320312"/>
      <use xlink:href="#DejaVuSans-2f" x="878.699219"/>
      <use xlink:href="#DejaVuSans-6d" x="912.390625"/>
      <use xlink:href="#DejaVuSans-5e" x="1009.802734"/>
      <use xlink:href="#DejaVuSans-32" x="1093.591797"/>
      <use xlink:href="#DejaVuSans-2c" x="1157.214844"/>
      <use xlink:href="#DejaVuSans-20" x="1189.001953"/>
      <use xlink:href="#DejaVuSans-50" x="1220.789062"/>
      <use xlink:href="#DejaVuSans-31" x="1281.091797"/>
      <use xlink:href="#DejaVuSans-29" x="1344.714844"/>
     </g>
    </g>
   </g>
   <g id="line2d_67">
    <path d="M 79.290341 192.799713 
L 81.410287 194.553852 
L 83.530232 192.902169 
L 85.650178 193.916605 
L 87.770124 193.85815 
L 92.010015 195.130896 
L 94.129961 194.053203 
L 96.249907 194.067068 
L 98.369852 192.359286 
L 100.489798 192.997965 
L 102.609744 193.453236 
L 104.72969 190.112061 
L 106.849635 191.007669 
L 108.969581 189.910992 
L 111.089527 187.612021 
L 113.209473 190.209561 
L 115.329418 194.47814 
L 117.449364 194.555638 
L 119.56931 197.280832 
L 121.689255 200.306303 
L 123.809201 198.845896 
L 125.929147 205.042787 
L 128.049093 203.244957 
L 130.169038 201.633859 
L 132.288984 204.015284 
L 134.40893 199.18474 
L 136.528876 202.13826 
L 138.648821 201.06536 
L 140.768767 202.775829 
L 142.888713 202.544078 
L 145.008658 200.996912 
L 147.128604 200.634718 
L 149.24855 203.285311 
L 151.368496 203.409406 
L 153.488441 207.270221 
L 155.608387 198.04186 
L 157.728333 182.54373 
L 159.848278 188.561977 
L 161.968224 181.321378 
L 164.08817 184.263565 
L 166.208116 185.895713 
L 168.328061 186.693502 
L 170.448007 188.784521 
L 172.567953 186.370604 
L 174.687899 191.276543 
L 178.92779 195.516621 
L 181.047736 195.130732 
L 183.167681 199.686501 
L 185.287627 194.734822 
L 187.407573 193.891943 
L 189.527519 195.088516 
L 191.647464 192.926956 
L 193.76741 192.08013 
L 195.887356 193.880076 
L 198.007302 193.92831 
L 200.127247 192.057606 
L 204.367139 193.20972 
L 206.487084 190.478303 
L 208.60703 191.399428 
L 210.726976 189.751231 
L 212.846922 186.165483 
L 214.966867 189.696229 
L 217.086813 192.081797 
L 219.206759 193.755382 
L 221.326705 198.27046 
L 223.44665 202.238449 
L 225.566596 204.571038 
L 227.686542 204.170478 
L 229.806487 202.35487 
L 231.926433 201.008404 
L 234.046379 201.08054 
L 236.166325 199.067074 
L 238.28627 202.518138 
L 240.406216 202.721439 
L 242.526162 201.389254 
L 244.646108 200.738452 
L 246.766053 200.903588 
L 248.885999 199.988675 
L 251.005945 202.069837 
L 253.12589 204.592146 
L 255.245836 204.647184 
L 257.365782 202.107167 
L 259.485728 189.019409 
L 261.605673 188.092706 
L 263.725619 178.224324 
L 265.845565 182.811921 
L 267.965511 184.384394 
L 272.205402 188.664707 
L 274.325348 186.268652 
L 276.445293 190.802226 
L 278.565239 193.46526 
L 280.685185 195.295829 
L 282.805131 193.804389 
L 284.925076 196.073493 
L 287.045022 195.455903 
L 289.164968 194.003448 
L 291.284914 195.26181 
L 293.404859 199.660622 
L 295.524805 195.845898 
L 297.644751 195.988117 
L 299.764696 193.412428 
L 301.884642 192.190231 
L 304.004588 191.601117 
L 306.124534 192.876286 
L 308.244479 189.644251 
L 310.364425 190.125483 
L 312.484371 188.285 
L 314.604316 186.642919 
L 316.724262 189.175533 
L 318.844208 190.110234 
L 320.964154 193.071605 
L 323.084099 199.152057 
L 327.323991 202.956039 
L 333.683828 199.770749 
L 335.803774 201.139027 
L 337.923719 199.950348 
L 340.043665 202.060724 
L 342.163611 200.199085 
L 344.283557 200.311733 
L 346.403502 201.896867 
L 348.523448 200.788787 
L 350.643394 202.601511 
L 352.76334 202.669825 
L 354.883285 204.112151 
L 357.003231 208.953314 
L 359.123177 199.126212 
L 361.243122 191.98917 
L 363.363068 185.997452 
L 365.483014 181.778811 
L 367.60296 184.327549 
L 369.722905 183.183458 
L 371.842851 183.395937 
L 373.962797 184.927997 
L 376.082743 182.260546 
L 378.202688 188.000675 
L 380.322634 189.046381 
L 382.44258 192.694176 
L 384.562525 191.330684 
L 386.682471 194.225763 
L 388.802417 192.825516 
L 390.922363 195.528344 
L 393.042308 193.198755 
L 395.162254 193.188715 
L 397.2822 194.327673 
L 399.402146 194.919759 
L 401.522091 194.697143 
L 403.642037 194.123877 
L 407.881928 195.064285 
L 410.001874 191.723092 
L 412.12182 195.500409 
L 414.241766 191.671878 
L 416.361711 188.11642 
L 418.481657 191.098982 
L 420.601603 189.228705 
L 422.721549 188.120487 
L 424.841494 197.720273 
L 426.96144 202.188834 
L 429.081386 201.622578 
L 431.201331 203.764727 
L 433.321277 201.912514 
L 435.441223 201.1063 
L 437.561169 202.090659 
L 439.681114 201.435131 
L 441.80106 201.539473 
L 443.921006 201.13552 
L 446.040951 199.254938 
L 448.160897 201.226663 
L 450.280843 202.735355 
L 452.400789 202.438272 
L 454.520734 202.569745 
L 456.64068 203.336331 
L 458.760626 207.793391 
L 460.880572 202.351198 
L 463.000517 188.257366 
L 465.120463 189.001491 
L 467.240409 184.524449 
L 469.360354 183.438234 
L 471.4803 182.76429 
L 473.600246 186.927055 
L 475.720192 187.434258 
L 477.840137 185.405389 
L 479.960083 191.511673 
L 482.080029 191.111123 
L 484.199975 196.419307 
L 486.31992 192.582022 
L 488.439866 194.864844 
L 492.679757 193.76411 
L 494.799703 195.126569 
L 496.919649 194.51163 
L 499.039595 195.001413 
L 501.15954 195.879578 
L 503.279486 195.038788 
L 505.399432 196.233968 
L 507.519378 195.069222 
L 509.639323 194.746831 
L 511.759269 191.537813 
L 513.879215 191.414849 
L 518.119106 187.818935 
L 520.239052 191.791116 
L 522.358998 192.206186 
L 524.478943 197.127782 
L 526.598889 194.170184 
L 528.718835 204.259138 
L 530.838781 201.351123 
L 532.958726 203.618271 
L 535.078672 204.77832 
L 537.198618 201.444841 
L 539.318563 204.361479 
L 541.438509 202.29207 
L 545.678401 197.879347 
L 547.798346 201.417453 
L 549.918292 203.417753 
L 552.038238 207.521677 
L 554.158184 205.525506 
L 556.278129 202.60195 
L 558.398075 207.976327 
L 560.518021 209.762693 
L 562.637966 208.594426 
L 564.757912 194.263486 
L 566.877858 194.548538 
L 568.997804 186.371231 
L 571.117749 188.454373 
L 573.237695 188.889058 
L 575.357641 188.442066 
L 577.477586 186.643972 
L 579.597532 185.955876 
L 581.717478 193.063265 
L 583.837424 193.413271 
L 585.957369 196.134937 
L 588.077315 194.027553 
L 590.197261 195.273223 
L 592.317207 194.30303 
L 594.437152 193.129454 
L 596.557098 194.031257 
L 598.677044 197.142786 
L 600.796989 196.228272 
L 602.916935 195.681845 
L 605.036881 194.51418 
L 607.156827 194.532876 
L 609.276772 193.127192 
L 611.396718 194.140398 
L 613.516664 193.790561 
L 615.63661 193.278298 
L 617.756555 193.026207 
L 619.876501 190.055936 
L 621.996447 190.434887 
L 624.116392 189.759824 
L 626.236338 200.126064 
L 628.356284 206.618885 
L 630.47623 208.953637 
L 632.596175 208.853372 
L 634.716121 212.676534 
L 636.836067 210.008751 
L 638.956013 211.339602 
L 641.075958 208.783888 
L 643.195904 210.908231 
L 645.31585 211.070876 
L 647.435795 211.520658 
L 649.555741 212.118265 
L 651.675687 210.256943 
L 653.795633 211.35354 
L 655.915578 205.373553 
L 658.035524 204.96974 
L 660.15547 207.922136 
L 662.275416 203.101605 
L 664.395361 200.647929 
L 666.515307 192.14691 
L 668.635253 197.609703 
L 670.755198 190.663761 
L 672.875144 190.439244 
L 674.99509 188.256148 
L 677.115036 187.522713 
L 679.234981 188.228803 
L 681.354927 186.340182 
L 683.474873 191.790552 
L 685.594819 193.931219 
L 687.714764 195.78257 
L 689.83471 194.422727 
L 691.954656 195.644354 
L 694.074601 195.150639 
L 696.194547 193.084528 
L 698.314493 193.908252 
L 700.434439 195.79645 
L 704.67433 195.900293 
L 706.794276 194.624699 
L 708.914222 194.144978 
L 711.034167 194.734821 
L 713.154113 195.889851 
L 715.274059 193.340936 
L 717.394004 193.120075 
L 719.51395 191.799025 
L 721.633896 189.24964 
L 723.753842 189.427627 
L 725.873787 192.172889 
L 727.993733 199.927697 
L 730.113679 211.948296 
L 732.233624 214.884248 
L 734.35357 213.926983 
L 736.473516 216.472821 
L 738.593462 214.134154 
L 740.713407 212.366382 
L 742.833353 213.420606 
L 744.953299 212.523705 
L 747.073245 214.705622 
L 749.19319 213.602161 
L 753.433082 208.535392 
L 755.553027 194.590761 
L 757.672973 196.118958 
L 759.792919 195.679871 
L 761.912865 195.547507 
L 764.03281 189.090175 
L 766.152756 184.191281 
L 768.272702 182.346946 
L 770.392648 183.495711 
L 772.512593 185.601774 
L 774.632539 184.394016 
L 776.752485 187.340301 
L 778.87243 185.819316 
L 780.992376 190.030767 
L 783.112322 186.695175 
L 785.232268 190.933002 
L 787.352213 192.126069 
L 789.472159 194.242004 
L 789.472159 194.242004 
" clip-path="url(#p84c60f4405)" style="fill: none; stroke: #ff0000; stroke-opacity: 0.4; stroke-width: 1.5; stroke-linecap: square"/>
   </g>
   <g id="line2d_68">
    <path d="M 79.290341 311.690154 
L 123.809201 311.690154 
L 125.929147 300.621359 
L 128.049093 311.690154 
L 140.768767 311.690154 
L 142.888713 300.621359 
L 145.008658 311.690154 
L 189.527519 311.690154 
L 191.647464 300.621359 
L 193.76741 311.690154 
L 238.28627 311.690154 
L 240.406216 300.621359 
L 242.526162 311.690154 
L 255.245836 311.690154 
L 257.365782 300.621359 
L 259.485728 311.690154 
L 335.803774 311.690154 
L 337.923719 300.621359 
L 340.043665 311.690154 
L 350.643394 311.690154 
L 352.76334 300.621359 
L 354.883285 311.690154 
L 431.201331 311.690154 
L 433.321277 300.621359 
L 435.441223 311.690154 
L 448.160897 311.690154 
L 450.280843 300.621359 
L 452.400789 311.690154 
L 537.198618 311.690154 
L 539.318563 300.621359 
L 541.438509 311.690154 
L 554.158184 311.690154 
L 556.278129 300.621359 
L 558.398075 311.690154 
L 630.47623 311.690154 
L 632.596175 300.621359 
L 634.716121 311.690154 
L 649.555741 311.690154 
L 651.675687 300.621359 
L 653.795633 311.690154 
L 666.515307 311.690154 
L 668.635253 300.621359 
L 670.755198 311.690154 
L 738.593462 311.690154 
L 740.713407 300.621359 
L 742.833353 311.690154 
L 757.672973 311.690154 
L 759.792919 300.621359 
L 761.912865 311.690154 
L 789.472159 311.690154 
L 789.472159 311.690154 
" clip-path="url(#p84c60f4405)" style="fill: none; stroke: #0000ff; stroke-width: 1.5; stroke-linecap: square"/>
   </g>
   <g id="patch_11">
    <path d="M 43.78125 354.958125 
L 43.78125 22.318125 
" style="fill: none; stroke: #000000; stroke-width: 0.8; stroke-linejoin: miter; stroke-linecap: square"/>
   </g>
   <g id="patch_12">
    <path d="M 824.98125 354.958125 
L 824.98125 22.318125 
" style="fill: none; stroke: #000000; stroke-width: 0.8; stroke-linejoin: miter; stroke-linecap: square"/>
   </g>
   <g id="patch_13">
    <path d="M 43.78125 354.958125 
L 824.98125 354.958125 
" style="fill: none; stroke: #000000; stroke-width: 0.8; stroke-linejoin: miter; stroke-linecap: square"/>
   </g>
   <g id="patch_14">
    <path d="M 43.78125 22.318125 
L 824.98125 22.318125 
" style="fill: none; stroke: #000000; stroke-width: 0.8; stroke-linejoin: miter; stroke-linecap: square"/>
   </g>
   <g id="text_36">
    <!-- benchmarkdata for "Vacant Shops" Market sector using 234 sampled meters, constructed with 1,559,400 samples -->
    <g transform="translate(90.308438 16.318125) scale(0.12 -0.12)">
     <defs>
      <path id="DejaVuSans-62" d="M 3116 1747 
Q 3116 2381 2855 2742 
Q 2594 3103 2138 3103 
Q 1681 3103 1420 2742 
Q 1159 2381 1159 1747 
Q 1159 1113 1420 752 
Q 1681 391 2138 391 
Q 2594 391 2855 752 
Q 3116 1113 3116 1747 
z
M 1159 2969 
Q 1341 3281 1617 3432 
Q 1894 3584 2278 3584 
Q 2916 3584 3314 3078 
Q 3713 2572 3713 1747 
Q 3713 922 3314 415 
Q 2916 -91 2278 -91 
Q 1894 -91 1617 61 
Q 1341 213 1159 525 
L 1159 0 
L 581 0 
L 581 4863 
L 1159 4863 
L 1159 2969 
z
" transform="scale(0.015625)"/>
      <path id="DejaVuSans-63" d="M 3122 3366 
L 3122 2828 
Q 2878 2963 2633 3030 
Q 2388 3097 2138 3097 
Q 1578 3097 1268 2742 
Q 959 2388 959 1747 
Q 959 1106 1268 751 
Q 1578 397 2138 397 
Q 2388 397 2633 464 
Q 2878 531 3122 666 
L 3122 134 
Q 2881 22 2623 -34 
Q 2366 -91 2075 -91 
Q 1284 -91 818 406 
Q 353 903 353 1747 
Q 353 2603 823 3093 
Q 1294 3584 2113 3584 
Q 2378 3584 2631 3529 
Q 2884 3475 3122 3366 
z
" transform="scale(0.015625)"/>
      <path id="DejaVuSans-6b" d="M 581 4863 
L 1159 4863 
L 1159 1991 
L 2875 3500 
L 3609 3500 
L 1753 1863 
L 3688 0 
L 2938 0 
L 1159 1709 
L 1159 0 
L 581 0 
L 581 4863 
z
" transform="scale(0.015625)"/>
      <path id="DejaVuSans-66" d="M 2375 4863 
L 2375 4384 
L 1825 4384 
Q 1516 4384 1395 4259 
Q 1275 4134 1275 3809 
L 1275 3500 
L 2222 3500 
L 2222 3053 
L 1275 3053 
L 1275 0 
L 697 0 
L 697 3053 
L 147 3053 
L 147 3500 
L 697 3500 
L 697 3744 
Q 697 4328 969 4595 
Q 1241 4863 1831 4863 
L 2375 4863 
z
" transform="scale(0.015625)"/>
      <path id="DejaVuSans-22" d="M 1147 4666 
L 1147 2931 
L 616 2931 
L 616 4666 
L 1147 4666 
z
M 2328 4666 
L 2328 2931 
L 1797 2931 
L 1797 4666 
L 2328 4666 
z
" transform="scale(0.015625)"/>
      <path id="DejaVuSans-56" d="M 1831 0 
L 50 4666 
L 709 4666 
L 2188 738 
L 3669 4666 
L 4325 4666 
L 2547 0 
L 1831 0 
z
" transform="scale(0.015625)"/>
      <path id="DejaVuSans-70" d="M 1159 525 
L 1159 -1331 
L 581 -1331 
L 581 3500 
L 1159 3500 
L 1159 2969 
Q 1341 3281 1617 3432 
Q 1894 3584 2278 3584 
Q 2916 3584 3314 3078 
Q 3713 2572 3713 1747 
Q 3713 922 3314 415 
Q 2916 -91 2278 -91 
Q 1894 -91 1617 61 
Q 1341 213 1159 525 
z
M 3116 1747 
Q 3116 2381 2855 2742 
Q 2594 3103 2138 3103 
Q 1681 3103 1420 2742 
Q 1159 2381 1159 1747 
Q 1159 1113 1420 752 
Q 1681 391 2138 391 
Q 2594 391 2855 752 
Q 3116 1113 3116 1747 
z
" transform="scale(0.015625)"/>
      <path id="DejaVuSans-33" d="M 2597 2516 
Q 3050 2419 3304 2112 
Q 3559 1806 3559 1356 
Q 3559 666 3084 287 
Q 2609 -91 1734 -91 
Q 1441 -91 1130 -33 
Q 819 25 488 141 
L 488 750 
Q 750 597 1062 519 
Q 1375 441 1716 441 
Q 2309 441 2620 675 
Q 2931 909 2931 1356 
Q 2931 1769 2642 2001 
Q 2353 2234 1838 2234 
L 1294 2234 
L 1294 2753 
L 1863 2753 
Q 2328 2753 2575 2939 
Q 2822 3125 2822 3475 
Q 2822 3834 2567 4026 
Q 2313 4219 1838 4219 
Q 1578 4219 1281 4162 
Q 984 4106 628 3988 
L 628 4550 
Q 988 4650 1302 4700 
Q 1616 4750 1894 4750 
Q 2613 4750 3031 4423 
Q 3450 4097 3450 3541 
Q 3450 3153 3228 2886 
Q 3006 2619 2597 2516 
z
" transform="scale(0.015625)"/>
      <path id="DejaVuSans-34" d="M 2419 4116 
L 825 1625 
L 2419 1625 
L 2419 4116 
z
M 2253 4666 
L 3047 4666 
L 3047 1625 
L 3713 1625 
L 3713 1100 
L 3047 1100 
L 3047 0 
L 2419 0 
L 2419 1100 
L 313 1100 
L 313 1709 
L 2253 4666 
z
" transform="scale(0.015625)"/>
      <path id="DejaVuSans-6c" d="M 603 4863 
L 1178 4863 
L 1178 0 
L 603 0 
L 603 4863 
z
" transform="scale(0.015625)"/>
      <path id="DejaVuSans-39" d="M 703 97 
L 703 672 
Q 941 559 1184 500 
Q 1428 441 1663 441 
Q 2288 441 2617 861 
Q 2947 1281 2994 2138 
Q 2813 1869 2534 1725 
Q 2256 1581 1919 1581 
Q 1219 1581 811 2004 
Q 403 2428 403 3163 
Q 403 3881 828 4315 
Q 1253 4750 1959 4750 
Q 2769 4750 3195 4129 
Q 3622 3509 3622 2328 
Q 3622 1225 3098 567 
Q 2575 -91 1691 -91 
Q 1453 -91 1209 -44 
Q 966 3 703 97 
z
M 1959 2075 
Q 2384 2075 2632 2365 
Q 2881 2656 2881 3163 
Q 2881 3666 2632 3958 
Q 2384 4250 1959 4250 
Q 1534 4250 1286 3958 
Q 1038 3666 1038 3163 
Q 1038 2656 1286 2365 
Q 1534 2075 1959 2075 
z
" transform="scale(0.015625)"/>
     </defs>
     <use xlink:href="#DejaVuSans-62"/>
     <use xlink:href="#DejaVuSans-65" x="63.476562"/>
     <use xlink:href="#DejaVuSans-6e" x="125"/>
     <use xlink:href="#DejaVuSans-63" x="188.378906"/>
     <use xlink:href="#DejaVuSans-68" x="243.359375"/>
     <use xlink:href="#DejaVuSans-6d" x="306.738281"/>
     <use xlink:href="#DejaVuSans-61" x="404.150391"/>
     <use xlink:href="#DejaVuSans-72" x="465.429688"/>
     <use xlink:href="#DejaVuSans-6b" x="506.542969"/>
     <use xlink:href="#DejaVuSans-64" x="564.453125"/>
     <use xlink:href="#DejaVuSans-61" x="627.929688"/>
     <use xlink:href="#DejaVuSans-74" x="689.208984"/>
     <use xlink:href="#DejaVuSans-61" x="728.417969"/>
     <use xlink:href="#DejaVuSans-20" x="789.697266"/>
     <use xlink:href="#DejaVuSans-66" x="821.484375"/>
     <use xlink:href="#DejaVuSans-6f" x="856.689453"/>
     <use xlink:href="#DejaVuSans-72" x="917.871094"/>
     <use xlink:href="#DejaVuSans-20" x="958.984375"/>
     <use xlink:href="#DejaVuSans-22" x="990.771484"/>
     <use xlink:href="#DejaVuSans-56" x="1036.767578"/>
     <use xlink:href="#DejaVuSans-61" x="1097.425781"/>
     <use xlink:href="#DejaVuSans-63" x="1158.705078"/>
     <use xlink:href="#DejaVuSans-61" x="1213.685547"/>
     <use xlink:href="#DejaVuSans-6e" x="1274.964844"/>
     <use xlink:href="#DejaVuSans-74" x="1338.34375"/>
     <use xlink:href="#DejaVuSans-20" x="1377.552734"/>
     <use xlink:href="#DejaVuSans-53" x="1409.339844"/>
     <use xlink:href="#DejaVuSans-68" x="1472.816406"/>
     <use xlink:href="#DejaVuSans-6f" x="1536.195312"/>
     <use xlink:href="#DejaVuSans-70" x="1597.376953"/>
     <use xlink:href="#DejaVuSans-73" x="1660.853516"/>
     <use xlink:href="#DejaVuSans-22" x="1712.953125"/>
     <use xlink:href="#DejaVuSans-20" x="1758.949219"/>
     <use xlink:href="#DejaVuSans-4d" x="1790.736328"/>
     <use xlink:href="#DejaVuSans-61" x="1877.015625"/>
     <use xlink:href="#DejaVuSans-72" x="1938.294922"/>
     <use xlink:href="#DejaVuSans-6b" x="1979.408203"/>
     <use xlink:href="#DejaVuSans-65" x="2033.693359"/>
     <use xlink:href="#DejaVuSans-74" x="2095.216797"/>
     <use xlink:href="#DejaVuSans-20" x="2134.425781"/>
     <use xlink:href="#DejaVuSans-73" x="2166.212891"/>
     <use xlink:href="#DejaVuSans-65" x="2218.3125"/>
     <use xlink:href="#DejaVuSans-63" x="2279.835938"/>
     <use xlink:href="#DejaVuSans-74" x="2334.816406"/>
     <use xlink:href="#DejaVuSans-6f" x="2374.025391"/>
     <use xlink:href="#DejaVuSans-72" x="2435.207031"/>
     <use xlink:href="#DejaVuSans-20" x="2476.320312"/>
     <use xlink:href="#DejaVuSans-75" x="2508.107422"/>
     <use xlink:href="#DejaVuSans-73" x="2571.486328"/>
     <use xlink:href="#DejaVuSans-69" x="2623.585938"/>
     <use xlink:href="#DejaVuSans-6e" x="2651.369141"/>
     <use xlink:href="#DejaVuSans-67" x="2714.748047"/>
     <use xlink:href="#DejaVuSans-20" x="2778.224609"/>
     <use xlink:href="#DejaVuSans-32" x="2810.011719"/>
     <use xlink:href="#DejaVuSans-33" x="2873.634766"/>
     <use xlink:href="#DejaVuSans-34" x="2937.257812"/>
     <use xlink:href="#DejaVuSans-20" x="3000.880859"/>
     <use xlink:href="#DejaVuSans-73" x="3032.667969"/>
     <use xlink:href="#DejaVuSans-61" x="3084.767578"/>
     <use xlink:href="#DejaVuSans-6d" x="3146.046875"/>
     <use xlink:href="#DejaVuSans-70" x="3243.458984"/>
     <use xlink:href="#DejaVuSans-6c" x="3306.935547"/>
     <use xlink:href="#DejaVuSans-65" x="3334.71875"/>
     <use xlink:href="#DejaVuSans-64" x="3396.242188"/>
     <use xlink:href="#DejaVuSans-20" x="3459.71875"/>
     <use xlink:href="#DejaVuSans-6d" x="3491.505859"/>
     <use xlink:href="#DejaVuSans-65" x="3588.917969"/>
     <use xlink:href="#DejaVuSans-74" x="3650.441406"/>
     <use xlink:href="#DejaVuSans-65" x="3689.650391"/>
     <use xlink:href="#DejaVuSans-72" x="3751.173828"/>
     <use xlink:href="#DejaVuSans-73" x="3792.287109"/>
     <use xlink:href="#DejaVuSans-2c" x="3844.386719"/>
     <use xlink:href="#DejaVuSans-20" x="3876.173828"/>
     <use xlink:href="#DejaVuSans-63" x="3907.960938"/>
     <use xlink:href="#DejaVuSans-6f" x="3962.941406"/>
     <use xlink:href="#DejaVuSans-6e" x="4024.123047"/>
     <use xlink:href="#DejaVuSans-73" x="4087.501953"/>
     <use xlink:href="#DejaVuSans-74" x="4139.601562"/>
     <use xlink:href="#DejaVuSans-72" x="4178.810547"/>
     <use xlink:href="#DejaVuSans-75" x="4219.923828"/>
     <use xlink:href="#DejaVuSans-63" x="4283.302734"/>
     <use xlink:href="#DejaVuSans-74" x="4338.283203"/>
     <use xlink:href="#DejaVuSans-65" x="4377.492188"/>
     <use xlink:href="#DejaVuSans-64" x="4439.015625"/>
     <use xlink:href="#DejaVuSans-20" x="4502.492188"/>
     <use xlink:href="#DejaVuSans-77" x="4534.279297"/>
     <use xlink:href="#DejaVuSans-69" x="4616.066406"/>
     <use xlink:href="#DejaVuSans-74" x="4643.849609"/>
     <use xlink:href="#DejaVuSans-68" x="4683.058594"/>
     <use xlink:href="#DejaVuSans-20" x="4746.4375"/>
     <use xlink:href="#DejaVuSans-31" x="4778.224609"/>
     <use xlink:href="#DejaVuSans-2c" x="4841.847656"/>
     <use xlink:href="#DejaVuSans-35" x="4873.634766"/>
     <use xlink:href="#DejaVuSans-35" x="4937.257812"/>
     <use xlink:href="#DejaVuSans-39" x="5000.880859"/>
     <use xlink:href="#DejaVuSans-2c" x="5064.503906"/>
     <use xlink:href="#DejaVuSans-34" x="5096.291016"/>
     <use xlink:href="#DejaVuSans-30" x="5159.914062"/>
     <use xlink:href="#DejaVuSans-30" x="5223.537109"/>
     <use xlink:href="#DejaVuSans-20" x="5287.160156"/>
     <use xlink:href="#DejaVuSans-73" x="5318.947266"/>
     <use xlink:href="#DejaVuSans-61" x="5371.046875"/>
     <use xlink:href="#DejaVuSans-6d" x="5432.326172"/>
     <use xlink:href="#DejaVuSans-70" x="5529.738281"/>
     <use xlink:href="#DejaVuSans-6c" x="5593.214844"/>
     <use xlink:href="#DejaVuSans-65" x="5620.998047"/>
     <use xlink:href="#DejaVuSans-73" x="5682.521484"/>
    </g>
   </g>
   <g id="legend_1">
    <g id="patch_15">
     <path d="M 653.01875 85.550313 
L 817.98125 85.550313 
Q 819.98125 85.550313 819.98125 83.550313 
L 819.98125 29.318125 
Q 819.98125 27.318125 817.98125 27.318125 
L 653.01875 27.318125 
Q 651.01875 27.318125 651.01875 29.318125 
L 651.01875 83.550313 
Q 651.01875 85.550313 653.01875 85.550313 
z
" style="fill: #ffffff; opacity: 0.8; stroke: #cccccc; stroke-linejoin: miter"/>
    </g>
    <g id="line2d_69">
     <path d="M 655.01875 35.416562 
L 665.01875 35.416562 
L 675.01875 35.416562 
" style="fill: none; stroke: #ff0000; stroke-opacity: 0.4; stroke-width: 1.5; stroke-linecap: square"/>
    </g>
    <g id="text_37">
     <!-- Mean: 0.957 -->
     <g transform="translate(683.01875 38.916562) scale(0.1 -0.1)">
      <defs>
       <path id="DejaVuSans-37" d="M 525 4666 
L 3525 4666 
L 3525 4397 
L 1831 0 
L 1172 0 
L 2766 4134 
L 525 4134 
L 525 4666 
z
" transform="scale(0.015625)"/>
      </defs>
      <use xlink:href="#DejaVuSans-4d"/>
      <use xlink:href="#DejaVuSans-65" x="86.279297"/>
      <use xlink:href="#DejaVuSans-61" x="147.802734"/>
      <use xlink:href="#DejaVuSans-6e" x="209.082031"/>
      <use xlink:href="#DejaVuSans-3a" x="272.460938"/>
      <use xlink:href="#DejaVuSans-20" x="306.152344"/>
      <use xlink:href="#DejaVuSans-30" x="337.939453"/>
      <use xlink:href="#DejaVuSans-2e" x="401.5625"/>
      <use xlink:href="#DejaVuSans-39" x="433.349609"/>
      <use xlink:href="#DejaVuSans-35" x="496.972656"/>
      <use xlink:href="#DejaVuSans-37" x="560.595703"/>
     </g>
    </g>
    <g id="patch_16">
     <path d="M 655.01875 53.594688 
L 675.01875 53.594688 
L 675.01875 46.594688 
L 655.01875 46.594688 
z
" style="fill: #ff0000; fill-opacity: 0.2; stroke: #ff0000; stroke-opacity: 0.2; stroke-linejoin: miter"/>
    </g>
    <g id="text_38">
     <!-- Std Dev: 1.082 -->
     <g transform="translate(683.01875 53.594688) scale(0.1 -0.1)">
      <defs>
       <path id="DejaVuSans-44" d="M 1259 4147 
L 1259 519 
L 2022 519 
Q 2988 519 3436 956 
Q 3884 1394 3884 2338 
Q 3884 3275 3436 3711 
Q 2988 4147 2022 4147 
L 1259 4147 
z
M 628 4666 
L 1925 4666 
Q 3281 4666 3915 4102 
Q 4550 3538 4550 2338 
Q 4550 1131 3912 565 
Q 3275 0 1925 0 
L 628 0 
L 628 4666 
z
" transform="scale(0.015625)"/>
       <path id="DejaVuSans-76" d="M 191 3500 
L 800 3500 
L 1894 563 
L 2988 3500 
L 3597 3500 
L 2284 0 
L 1503 0 
L 191 3500 
z
" transform="scale(0.015625)"/>
      </defs>
      <use xlink:href="#DejaVuSans-53"/>
      <use xlink:href="#DejaVuSans-74" x="63.476562"/>
      <use xlink:href="#DejaVuSans-64" x="102.685547"/>
      <use xlink:href="#DejaVuSans-20" x="166.162109"/>
      <use xlink:href="#DejaVuSans-44" x="197.949219"/>
      <use xlink:href="#DejaVuSans-65" x="274.951172"/>
      <use xlink:href="#DejaVuSans-76" x="336.474609"/>
      <use xlink:href="#DejaVuSans-3a" x="390.154297"/>
      <use xlink:href="#DejaVuSans-20" x="423.845703"/>
      <use xlink:href="#DejaVuSans-31" x="455.632812"/>
      <use xlink:href="#DejaVuSans-2e" x="519.255859"/>
      <use xlink:href="#DejaVuSans-30" x="551.042969"/>
      <use xlink:href="#DejaVuSans-38" x="614.666016"/>
      <use xlink:href="#DejaVuSans-32" x="678.289062"/>
     </g>
    </g>
    <g id="line2d_70">
     <path d="M 655.01875 71.411563 
L 665.01875 71.411563 
L 675.01875 71.411563 
" style="fill: none; stroke: #0000ff; stroke-width: 1.5; stroke-linecap: square"/>
    </g>
    <g id="text_39">
     <!-- Performance Comparison:  -->
     <g transform="translate(683.01875 68.272812) scale(0.1 -0.1)">
      <defs>
       <path id="DejaVuSans-43" d="M 4122 4306 
L 4122 3641 
Q 3803 3938 3442 4084 
Q 3081 4231 2675 4231 
Q 1875 4231 1450 3742 
Q 1025 3253 1025 2328 
Q 1025 1406 1450 917 
Q 1875 428 2675 428 
Q 3081 428 3442 575 
Q 3803 722 4122 1019 
L 4122 359 
Q 3791 134 3420 21 
Q 3050 -91 2638 -91 
Q 1578 -91 968 557 
Q 359 1206 359 2328 
Q 359 3453 968 4101 
Q 1578 4750 2638 4750 
Q 3056 4750 3426 4639 
Q 3797 4528 4122 4306 
z
" transform="scale(0.015625)"/>
      </defs>
      <use xlink:href="#DejaVuSans-50"/>
      <use xlink:href="#DejaVuSans-65" x="56.677734"/>
      <use xlink:href="#DejaVuSans-72" x="118.201172"/>
      <use xlink:href="#DejaVuSans-66" x="159.314453"/>
      <use xlink:href="#DejaVuSans-6f" x="194.519531"/>
      <use xlink:href="#DejaVuSans-72" x="255.701172"/>
      <use xlink:href="#DejaVuSans-6d" x="295.064453"/>
      <use xlink:href="#DejaVuSans-61" x="392.476562"/>
      <use xlink:href="#DejaVuSans-6e" x="453.755859"/>
      <use xlink:href="#DejaVuSans-63" x="517.134766"/>
      <use xlink:href="#DejaVuSans-65" x="572.115234"/>
      <use xlink:href="#DejaVuSans-20" x="633.638672"/>
      <use xlink:href="#DejaVuSans-43" x="665.425781"/>
      <use xlink:href="#DejaVuSans-6f" x="735.25"/>
      <use xlink:href="#DejaVuSans-6d" x="796.431641"/>
      <use xlink:href="#DejaVuSans-70" x="893.84375"/>
      <use xlink:href="#DejaVuSans-61" x="957.320312"/>
      <use xlink:href="#DejaVuSans-72" x="1018.599609"/>
      <use xlink:href="#DejaVuSans-69" x="1059.712891"/>
      <use xlink:href="#DejaVuSans-73" x="1087.496094"/>
      <use xlink:href="#DejaVuSans-6f" x="1139.595703"/>
      <use xlink:href="#DejaVuSans-6e" x="1200.777344"/>
      <use xlink:href="#DejaVuSans-3a" x="1264.15625"/>
      <use xlink:href="#DejaVuSans-20" x="1297.847656"/>
     </g>
     <!-- Mean: 0.004 -->
     <g transform="translate(683.01875 79.470625) scale(0.1 -0.1)">
      <use xlink:href="#DejaVuSans-4d"/>
      <use xlink:href="#DejaVuSans-65" x="86.279297"/>
      <use xlink:href="#DejaVuSans-61" x="147.802734"/>
      <use xlink:href="#DejaVuSans-6e" x="209.082031"/>
      <use xlink:href="#DejaVuSans-3a" x="272.460938"/>
      <use xlink:href="#DejaVuSans-20" x="306.152344"/>
      <use xlink:href="#DejaVuSans-30" x="337.939453"/>
      <use xlink:href="#DejaVuSans-2e" x="401.5625"/>
      <use xlink:href="#DejaVuSans-30" x="433.349609"/>
      <use xlink:href="#DejaVuSans-30" x="496.972656"/>
      <use xlink:href="#DejaVuSans-34" x="560.595703"/>
     </g>
    </g>
   </g>
  </g>
 </g>
 <defs>
  <clipPath id="p84c60f4405">
   <rect x="43.78125" y="22.318125" width="781.2" height="332.64"/>
  </clipPath>
 </defs>
</svg>
