<?xml version="1.0" encoding="utf-8" standalone="no"?>
<!DOCTYPE svg PUBLIC "-//W3C//DTD SVG 1.1//EN"
  "http://www.w3.org/Graphics/SVG/1.1/DTD/svg11.dtd">
<svg xmlns:xlink="http://www.w3.org/1999/xlink" width="829.003125pt" height="453.244198pt" viewBox="0 0 829.003125 453.244198" xmlns="http://www.w3.org/2000/svg" version="1.1">
 <metadata>
  <rdf:RDF xmlns:dc="http://purl.org/dc/elements/1.1/" xmlns:cc="http://creativecommons.org/ns#" xmlns:rdf="http://www.w3.org/1999/02/22-rdf-syntax-ns#">
   <cc:Work>
    <dc:type rdf:resource="http://purl.org/dc/dcmitype/StillImage"/>
    <dc:date>2024-07-22T23:19:45.976183</dc:date>
    <dc:format>image/svg+xml</dc:format>
    <dc:creator>
     <cc:Agent>
      <dc:title>Matplotlib v3.8.4, https://matplotlib.org/</dc:title>
     </cc:Agent>
    </dc:creator>
   </cc:Work>
  </rdf:RDF>
 </metadata>
 <defs>
  <style type="text/css">*{stroke-linejoin: round; stroke-linecap: butt}</style>
 </defs>
 <g id="figure_1">
  <g id="patch_1">
   <path d="M 0 453.244198 
L 829.003125 453.244198 
L 829.003125 0 
L 0 0 
z
" style="fill: #ffffff"/>
  </g>
  <g id="axes_1">
   <g id="patch_2">
    <path d="M 40.603125 354.958125 
L 821.803125 354.958125 
L 821.803125 22.318125 
L 40.603125 22.318125 
z
" style="fill: #ffffff"/>
   </g>
   <g id="PolyCollection_1">
    <defs>
     <path id="md76ad38034" d="M 76.112216 -275.038403 
L 76.112216 -115.03171 
L 78.232162 -114.486066 
L 80.352107 -114.811956 
L 82.472053 -114.076328 
L 84.591999 -114.980887 
L 86.711945 -114.882739 
L 88.83189 -114.968335 
L 90.951836 -115.201742 
L 93.071782 -115.295522 
L 95.191727 -114.930143 
L 97.311673 -114.989532 
L 99.431619 -114.20839 
L 101.551565 -114.572857 
L 103.67151 -115.183586 
L 105.791456 -115.069557 
L 107.911402 -115.559963 
L 110.031348 -122.01224 
L 112.151293 -138.377134 
L 114.271239 -198.394348 
L 116.391185 -229.643586 
L 118.51113 -234.811279 
L 120.631076 -235.242265 
L 122.751022 -237.883737 
L 124.870968 -234.164837 
L 126.990913 -236.464154 
L 129.110859 -234.006037 
L 131.230805 -236.293362 
L 133.350751 -231.067882 
L 135.470696 -231.316058 
L 137.590642 -230.66978 
L 139.710588 -231.919103 
L 141.830533 -225.538865 
L 143.950479 -226.492965 
L 146.070425 -222.458302 
L 148.190371 -215.229027 
L 150.310316 -207.671955 
L 152.430262 -197.440539 
L 154.550208 -156.102146 
L 156.670153 -144.436469 
L 158.790099 -131.160231 
L 160.910045 -121.498567 
L 163.029991 -119.819657 
L 165.149936 -120.409724 
L 167.269882 -114.361417 
L 169.389828 -114.409415 
L 171.509774 -114.462772 
L 173.629719 -115.006719 
L 175.749665 -114.270303 
L 177.869611 -115.196737 
L 179.989556 -113.491845 
L 182.109502 -115.722853 
L 184.229448 -115.493056 
L 186.349394 -116.384778 
L 188.469339 -115.682267 
L 190.589285 -115.723988 
L 192.709231 -114.936149 
L 194.829177 -115.39824 
L 196.949122 -114.848564 
L 199.069068 -115.047841 
L 201.189014 -113.720669 
L 203.308959 -115.213078 
L 205.428905 -115.261423 
L 207.548851 -115.513191 
L 209.668797 -116.672178 
L 211.788742 -124.143897 
L 213.908688 -141.820055 
L 216.028634 -199.146024 
L 218.14858 -227.821115 
L 220.268525 -233.584132 
L 222.388471 -234.216587 
L 224.508417 -235.154862 
L 226.628362 -232.161856 
L 228.748308 -233.342435 
L 230.868254 -233.761155 
L 232.9882 -237.226868 
L 235.108145 -230.44213 
L 237.228091 -232.185926 
L 239.348037 -232.112459 
L 241.467983 -234.327998 
L 243.587928 -229.325241 
L 245.707874 -230.168647 
L 247.82782 -219.593842 
L 249.947765 -214.143417 
L 252.067711 -211.927592 
L 254.187657 -199.445977 
L 256.307603 -158.437713 
L 258.427548 -145.359924 
L 260.547494 -131.555095 
L 262.66744 -121.344704 
L 264.787386 -119.647898 
L 266.907331 -120.351916 
L 269.027277 -114.14675 
L 271.147223 -114.353835 
L 273.267168 -114.453232 
L 275.387114 -114.532308 
L 277.50706 -113.959817 
L 279.627006 -114.751618 
L 281.746951 -114.304288 
L 283.866897 -114.551882 
L 285.986843 -114.288818 
L 288.106789 -114.897504 
L 290.226734 -113.406073 
L 292.34668 -115.745663 
L 294.466626 -115.235815 
L 296.586571 -115.908554 
L 298.706517 -115.249841 
L 300.826463 -115.412516 
L 302.946409 -114.804036 
L 305.066354 -115.50019 
L 307.1863 -115.737313 
L 309.306246 -115.919131 
L 311.426191 -116.373208 
L 313.546137 -124.447229 
L 315.666083 -142.769778 
L 317.786029 -200.861344 
L 319.905974 -226.249749 
L 322.02592 -231.136589 
L 324.145866 -232.190275 
L 326.265812 -235.415524 
L 328.385757 -230.352434 
L 330.505703 -234.286728 
L 332.625649 -234.083373 
L 334.745594 -236.272918 
L 336.86554 -232.794171 
L 338.985486 -233.800631 
L 341.105432 -233.799228 
L 343.225377 -235.094659 
L 345.345323 -229.829915 
L 347.465269 -231.143836 
L 349.585215 -227.526408 
L 351.70516 -218.451189 
L 353.825106 -212.336176 
L 355.945052 -202.571574 
L 358.064997 -151.098771 
L 360.184943 -138.683007 
L 362.304889 -131.18008 
L 364.424835 -124.318626 
L 366.54478 -120.519449 
L 368.664726 -120.990562 
L 370.784672 -115.786294 
L 372.904618 -115.803427 
L 375.024563 -115.757838 
L 377.144509 -115.758356 
L 379.264455 -114.739089 
L 381.3844 -116.039183 
L 383.504346 -115.5961 
L 385.624292 -115.556812 
L 387.744238 -115.231687 
L 389.864183 -115.712864 
L 391.984129 -115.716662 
L 394.104075 -116.113887 
L 396.224021 -114.818297 
L 398.343966 -115.978465 
L 400.463912 -115.468291 
L 402.583858 -115.838101 
L 404.703803 -114.730608 
L 406.823749 -116.102085 
L 408.943695 -115.174694 
L 411.063641 -117.202563 
L 413.183586 -118.245293 
L 415.303532 -125.078853 
L 417.423478 -144.191236 
L 419.543424 -199.756872 
L 421.663369 -226.815242 
L 423.783315 -231.482627 
L 425.903261 -232.987769 
L 428.023206 -235.864712 
L 430.143152 -229.717092 
L 432.263098 -232.888375 
L 434.383044 -233.047845 
L 436.502989 -235.81538 
L 438.622935 -232.142778 
L 440.742881 -233.205618 
L 442.862826 -232.369664 
L 444.982772 -234.11743 
L 447.102718 -225.558979 
L 449.222664 -229.083128 
L 451.342609 -224.859233 
L 453.462555 -218.12949 
L 455.582501 -209.930317 
L 457.702447 -200.082018 
L 459.822392 -160.413388 
L 461.942338 -146.583612 
L 464.062284 -131.625069 
L 466.182229 -122.057117 
L 468.302175 -119.370588 
L 470.422121 -119.694967 
L 472.542067 -114.730456 
L 474.662012 -114.75068 
L 476.781958 -114.657156 
L 478.901904 -115.314247 
L 481.02185 -113.73888 
L 483.141795 -115.501988 
L 485.261741 -114.679127 
L 487.381687 -114.984326 
L 489.501632 -113.988754 
L 491.621578 -114.871821 
L 493.741524 -115.037992 
L 495.86147 -114.893634 
L 497.981415 -114.800506 
L 500.101361 -115.49408 
L 502.221307 -114.338364 
L 504.341253 -115.898917 
L 506.461198 -114.799679 
L 508.581144 -115.566333 
L 510.70109 -115.626686 
L 512.821035 -116.11327 
L 514.940981 -118.073709 
L 517.060927 -128.214367 
L 519.180873 -151.214027 
L 521.300818 -205.091804 
L 523.420764 -227.379734 
L 525.54071 -233.045155 
L 527.660656 -233.606388 
L 529.780601 -236.936416 
L 531.900547 -230.122032 
L 534.020493 -233.101938 
L 536.140438 -225.723974 
L 538.260384 -231.168026 
L 540.38033 -232.410088 
L 542.500276 -234.605933 
L 544.620221 -231.515456 
L 546.740167 -235.553469 
L 548.860113 -228.780595 
L 550.980059 -230.154712 
L 553.100004 -229.777507 
L 555.21995 -232.664626 
L 557.339896 -224.472734 
L 559.459841 -215.186909 
L 561.579787 -175.840669 
L 563.699733 -151.973557 
L 565.819679 -137.582333 
L 567.939624 -134.663425 
L 570.05957 -130.996494 
L 572.179516 -131.248988 
L 574.299461 -120.002816 
L 576.419407 -115.000735 
L 578.539353 -115.084324 
L 580.659299 -114.83631 
L 582.779244 -114.24714 
L 584.89919 -115.290556 
L 587.019136 -114.954509 
L 589.139082 -115.407517 
L 591.259027 -114.578627 
L 593.378973 -115.550704 
L 595.498919 -114.504448 
L 597.618864 -115.306194 
L 599.73881 -115.739559 
L 601.858756 -116.274047 
L 603.978702 -115.794479 
L 606.098647 -116.140155 
L 608.218593 -115.163926 
L 610.338539 -115.751639 
L 612.458485 -115.599621 
L 614.57843 -116.657248 
L 616.698376 -119.316884 
L 618.818322 -129.366454 
L 620.938267 -152.051145 
L 623.058213 -202.506108 
L 625.178159 -225.169934 
L 627.298105 -231.255691 
L 629.41805 -233.550501 
L 631.537996 -236.428689 
L 633.657942 -233.007351 
L 635.777888 -235.166309 
L 637.897833 -234.515386 
L 640.017779 -236.645621 
L 642.137725 -231.157565 
L 644.25767 -233.292831 
L 646.377616 -229.038956 
L 648.497562 -232.172678 
L 650.617508 -231.739152 
L 652.737453 -220.936985 
L 654.857399 -216.429059 
L 656.977345 -208.02026 
L 659.097291 -182.969326 
L 661.217236 -174.344281 
L 663.337182 -152.805663 
L 665.457128 -145.864212 
L 667.577073 -137.08689 
L 669.697019 -133.502552 
L 671.816965 -130.974595 
L 673.936911 -131.091527 
L 676.056856 -119.379068 
L 678.176802 -114.689401 
L 680.296748 -114.331229 
L 682.416694 -114.707986 
L 684.536639 -114.410028 
L 686.656585 -115.378188 
L 688.776531 -115.243048 
L 690.896476 -115.465932 
L 693.016422 -114.68754 
L 695.136368 -115.590054 
L 697.256314 -115.475281 
L 699.376259 -115.511409 
L 701.496205 -115.638329 
L 703.616151 -115.791933 
L 705.736097 -115.261202 
L 707.856042 -115.780139 
L 709.975988 -114.703332 
L 712.095934 -115.828775 
L 714.215879 -115.833095 
L 716.335825 -116.185744 
L 718.455771 -116.878026 
L 720.575717 -122.935198 
L 722.695662 -142.048933 
L 724.815608 -198.268012 
L 726.935554 -226.767132 
L 729.055499 -234.17286 
L 731.175445 -235.412123 
L 733.295391 -238.147799 
L 735.415337 -236.066841 
L 737.535282 -236.280431 
L 739.655228 -235.837089 
L 741.775174 -237.375593 
L 743.89512 -231.636535 
L 746.015065 -222.051713 
L 748.135011 -219.207851 
L 750.254957 -207.384739 
L 752.374902 -171.062976 
L 754.494848 -155.205135 
L 756.614794 -146.986852 
L 758.73474 -145.475758 
L 760.854685 -137.401758 
L 762.974631 -137.980979 
L 765.094577 -132.053172 
L 767.214523 -123.059242 
L 769.334468 -119.681543 
L 771.454414 -119.561267 
L 773.57436 -118.121325 
L 775.694305 -120.049136 
L 777.814251 -114.269075 
L 779.934197 -115.152976 
L 782.054143 -114.316337 
L 784.174088 -114.473621 
L 786.294034 -114.466467 
L 786.294034 -274.05187 
L 786.294034 -274.05187 
L 784.174088 -276.66722 
L 782.054143 -277.527454 
L 779.934197 -282.769014 
L 777.814251 -281.765764 
L 775.694305 -290.457524 
L 773.57436 -291.963365 
L 771.454414 -296.585461 
L 769.334468 -297.231049 
L 767.214523 -307.536628 
L 765.094577 -329.518603 
L 762.974631 -350.01822 
L 760.854685 -350.784202 
L 758.73474 -354.285347 
L 756.614794 -354.653167 
L 754.494848 -361.058738 
L 752.374902 -371.245465 
L 750.254957 -407.098353 
L 748.135011 -409.566322 
L 746.015065 -409.620082 
L 743.89512 -411.227262 
L 741.775174 -412.993651 
L 739.655228 -412.573599 
L 737.535282 -414.359935 
L 735.415337 -413.084968 
L 733.295391 -412.869374 
L 731.175445 -412.130978 
L 729.055499 -413.011873 
L 726.935554 -410.222628 
L 724.815608 -386.493165 
L 722.695662 -325.402273 
L 720.575717 -294.493937 
L 718.455771 -274.563457 
L 716.335825 -273.708042 
L 714.215879 -272.426893 
L 712.095934 -272.841029 
L 709.975988 -271.496269 
L 707.856042 -272.677212 
L 705.736097 -272.532052 
L 703.616151 -272.713441 
L 701.496205 -272.697556 
L 699.376259 -272.837102 
L 697.256314 -272.730534 
L 695.136368 -275.480585 
L 693.016422 -273.357774 
L 690.896476 -273.805267 
L 688.776531 -273.843066 
L 686.656585 -275.853875 
L 684.536639 -274.911013 
L 682.416694 -278.773381 
L 680.296748 -283.799858 
L 678.176802 -288.735047 
L 676.056856 -298.122883 
L 673.936911 -312.191789 
L 671.816965 -317.121958 
L 669.697019 -329.572438 
L 667.577073 -337.741005 
L 665.457128 -353.219157 
L 663.337182 -357.422282 
L 661.217236 -397.288193 
L 659.097291 -397.637375 
L 656.977345 -409.331501 
L 654.857399 -408.913154 
L 652.737453 -409.474438 
L 650.617508 -410.670894 
L 648.497562 -411.986074 
L 646.377616 -411.142342 
L 644.25767 -412.660681 
L 642.137725 -411.448319 
L 640.017779 -413.44678 
L 637.897833 -414.108996 
L 635.777888 -414.824236 
L 633.657942 -412.441145 
L 631.537996 -411.857367 
L 629.41805 -411.032538 
L 627.298105 -412.655441 
L 625.178159 -410.00765 
L 623.058213 -393.106521 
L 620.938267 -352.414769 
L 618.818322 -309.157071 
L 616.698376 -283.957262 
L 614.57843 -275.139753 
L 612.458485 -274.188669 
L 610.338539 -274.112002 
L 608.218593 -272.700059 
L 606.098647 -273.561151 
L 603.978702 -272.389175 
L 601.858756 -275.6371 
L 599.73881 -275.450657 
L 597.618864 -277.103264 
L 595.498919 -274.01675 
L 593.378973 -276.244754 
L 591.259027 -273.498919 
L 589.139082 -275.399334 
L 587.019136 -275.191035 
L 584.89919 -277.052077 
L 582.779244 -275.908556 
L 580.659299 -279.873551 
L 578.539353 -282.521625 
L 576.419407 -288.613595 
L 574.299461 -299.833835 
L 572.179516 -316.446134 
L 570.05957 -322.183862 
L 567.939624 -334.721968 
L 565.819679 -340.657488 
L 563.699733 -359.629631 
L 561.579787 -371.105452 
L 559.459841 -410.324589 
L 557.339896 -408.826099 
L 555.21995 -411.090551 
L 553.100004 -411.363038 
L 550.980059 -413.163724 
L 548.860113 -411.453752 
L 546.740167 -414.184735 
L 544.620221 -413.423416 
L 542.500276 -415.806073 
L 540.38033 -413.906367 
L 538.260384 -415.083858 
L 536.140438 -413.34131 
L 534.020493 -413.594306 
L 531.900547 -412.176171 
L 529.780601 -412.391973 
L 527.660656 -411.575773 
L 525.54071 -413.530023 
L 523.420764 -410.374719 
L 521.300818 -391.935187 
L 519.180873 -350.336365 
L 517.060927 -308.310576 
L 514.940981 -279.755931 
L 512.821035 -276.64164 
L 510.70109 -272.129143 
L 508.581144 -273.814974 
L 506.461198 -272.67033 
L 504.341253 -274.246401 
L 502.221307 -272.931939 
L 500.101361 -273.342994 
L 497.981415 -271.874575 
L 495.86147 -272.633344 
L 493.741524 -271.610759 
L 491.621578 -273.888471 
L 489.501632 -272.438109 
L 487.381687 -274.137112 
L 485.261741 -273.568848 
L 483.141795 -276.585378 
L 481.02185 -274.236114 
L 478.901904 -277.089741 
L 476.781958 -277.154313 
L 474.662012 -282.623383 
L 472.542067 -287.901826 
L 470.422121 -296.484947 
L 468.302175 -297.842291 
L 466.182229 -303.515962 
L 464.062284 -324.755597 
L 461.942338 -353.614786 
L 459.822392 -360.090291 
L 457.702447 -408.997098 
L 455.582501 -406.703168 
L 453.462555 -408.191721 
L 451.342609 -408.954094 
L 449.222664 -411.135786 
L 447.102718 -410.439513 
L 444.982772 -413.74715 
L 442.862826 -412.569755 
L 440.742881 -413.258604 
L 438.622935 -412.754611 
L 436.502989 -413.154079 
L 434.383044 -412.632496 
L 432.263098 -414.024555 
L 430.143152 -412.421147 
L 428.023206 -412.533557 
L 425.903261 -411.746638 
L 423.783315 -412.238557 
L 421.663369 -408.884343 
L 419.543424 -382.790462 
L 417.423478 -332.727611 
L 415.303532 -302.862655 
L 413.183586 -287.202328 
L 411.063641 -279.52741 
L 408.943695 -274.960049 
L 406.823749 -275.958027 
L 404.703803 -274.076718 
L 402.583858 -275.925438 
L 400.463912 -275.035372 
L 398.343966 -275.905977 
L 396.224021 -274.90857 
L 394.104075 -274.741689 
L 391.984129 -275.337706 
L 389.864183 -276.107009 
L 387.744238 -274.988673 
L 385.624292 -276.618199 
L 383.504346 -276.345302 
L 381.3844 -277.931117 
L 379.264455 -277.202369 
L 377.144509 -280.061503 
L 375.024563 -279.033188 
L 372.904618 -285.444976 
L 370.784672 -290.781605 
L 368.664726 -297.713905 
L 366.54478 -298.872139 
L 364.424835 -308.04004 
L 362.304889 -325.413336 
L 360.184943 -350.977842 
L 358.064997 -356.877757 
L 355.945052 -409.74955 
L 353.825106 -407.89948 
L 351.70516 -408.112116 
L 349.585215 -409.150228 
L 347.465269 -412.382179 
L 345.345323 -411.182314 
L 343.225377 -413.188262 
L 341.105432 -412.86868 
L 338.985486 -413.903118 
L 336.86554 -412.868958 
L 334.745594 -413.430535 
L 332.625649 -413.073559 
L 330.505703 -414.716958 
L 328.385757 -413.4499 
L 326.265812 -412.270565 
L 324.145866 -411.249063 
L 322.02592 -412.217183 
L 319.905974 -408.565804 
L 317.786029 -381.733964 
L 315.666083 -329.236358 
L 313.546137 -301.628322 
L 311.426191 -277.910586 
L 309.306246 -275.496932 
L 307.1863 -272.216173 
L 305.066354 -272.328792 
L 302.946409 -271.127287 
L 300.826463 -271.858296 
L 298.706517 -271.62095 
L 296.586571 -276.659583 
L 294.466626 -275.488564 
L 292.34668 -276.368508 
L 290.226734 -272.33407 
L 288.106789 -274.239029 
L 285.986843 -273.197785 
L 283.866897 -274.573515 
L 281.746951 -274.059048 
L 279.627006 -276.816602 
L 277.50706 -275.737795 
L 275.387114 -278.006463 
L 273.267168 -278.668069 
L 271.147223 -284.249663 
L 269.027277 -287.686124 
L 266.907331 -297.149776 
L 264.787386 -298.190834 
L 262.66744 -304.239791 
L 260.547494 -324.773985 
L 258.427548 -353.4281 
L 256.307603 -359.968819 
L 254.187657 -411.503312 
L 252.067711 -409.514424 
L 249.947765 -408.335271 
L 247.82782 -408.125961 
L 245.707874 -412.681763 
L 243.587928 -411.25789 
L 241.467983 -413.179733 
L 239.348037 -413.175788 
L 237.228091 -414.207272 
L 235.108145 -411.844661 
L 232.9882 -413.800998 
L 230.868254 -414.032527 
L 228.748308 -413.738318 
L 226.628362 -412.478999 
L 224.508417 -411.892398 
L 222.388471 -411.552238 
L 220.268525 -412.048719 
L 218.14858 -409.465942 
L 216.028634 -382.696272 
L 213.908688 -331.255569 
L 211.788742 -299.070086 
L 209.668797 -279.696218 
L 207.548851 -277.132934 
L 205.428905 -273.749462 
L 203.308959 -273.566314 
L 201.189014 -272.853969 
L 199.069068 -274.092454 
L 196.949122 -273.069819 
L 194.829177 -274.521394 
L 192.709231 -273.040494 
L 190.589285 -273.723575 
L 188.469339 -273.928975 
L 186.349394 -277.173295 
L 184.229448 -277.417642 
L 182.109502 -279.429011 
L 179.989556 -274.58117 
L 177.869611 -276.679549 
L 175.749665 -276.21881 
L 173.629719 -279.440422 
L 171.509774 -280.02673 
L 169.389828 -285.447336 
L 167.269882 -288.961388 
L 165.149936 -296.528908 
L 163.029991 -298.578319 
L 160.910045 -301.988086 
L 158.790099 -321.18223 
L 156.670153 -348.807934 
L 154.550208 -355.267923 
L 152.430262 -404.9901 
L 150.310316 -403.237847 
L 148.190371 -405.386839 
L 146.070425 -406.403258 
L 143.950479 -408.614322 
L 141.830533 -406.606117 
L 139.710588 -411.859049 
L 137.590642 -411.39701 
L 135.470696 -412.935876 
L 133.350751 -411.617661 
L 131.230805 -413.244645 
L 129.110859 -412.46947 
L 126.990913 -413.610323 
L 124.870968 -413.911337 
L 122.751022 -413.564227 
L 120.631076 -413.189231 
L 118.51113 -414.648208 
L 116.391185 -412.426617 
L 114.271239 -386.362017 
L 112.151293 -326.704281 
L 110.031348 -298.012314 
L 107.911402 -277.750564 
L 105.791456 -273.919942 
L 103.67151 -270.720125 
L 101.551565 -272.308998 
L 99.431619 -270.471602 
L 97.311673 -270.935152 
L 95.191727 -270.784598 
L 93.071782 -273.308042 
L 90.951836 -273.156829 
L 88.83189 -274.947844 
L 86.711945 -273.693446 
L 84.591999 -275.070859 
L 82.472053 -274.159045 
L 80.352107 -274.946645 
L 78.232162 -274.243461 
L 76.112216 -275.038403 
z
" style="stroke: #ff0000; stroke-opacity: 0.2"/>
    </defs>
    <g clip-path="url(#pfc492b7d28)">
     <use xlink:href="#md76ad38034" x="0" y="453.244198" style="fill: #ff0000; fill-opacity: 0.2; stroke: #ff0000; stroke-opacity: 0.2"/>
    </g>
   </g>
   <g id="patch_3">
    <path d="M 76.112216 354.958125 
L 76.112216 22.318125 
L 101.551565 22.318125 
L 101.551565 354.958125 
z
" clip-path="url(#pfc492b7d28)" style="opacity: 0.3; stroke: #000000; stroke-linejoin: miter"/>
   </g>
   <g id="patch_4">
    <path d="M 152.430262 354.958125 
L 152.430262 22.318125 
L 203.308959 22.318125 
L 203.308959 354.958125 
z
" clip-path="url(#pfc492b7d28)" style="opacity: 0.3; stroke: #000000; stroke-linejoin: miter"/>
   </g>
   <g id="patch_5">
    <path d="M 254.187657 354.958125 
L 254.187657 22.318125 
L 305.066354 22.318125 
L 305.066354 354.958125 
z
" clip-path="url(#pfc492b7d28)" style="opacity: 0.3; stroke: #000000; stroke-linejoin: miter"/>
   </g>
   <g id="patch_6">
    <path d="M 355.945052 354.958125 
L 355.945052 22.318125 
L 406.823749 22.318125 
L 406.823749 354.958125 
z
" clip-path="url(#pfc492b7d28)" style="opacity: 0.3; stroke: #000000; stroke-linejoin: miter"/>
   </g>
   <g id="patch_7">
    <path d="M 457.702447 354.958125 
L 457.702447 22.318125 
L 508.581144 22.318125 
L 508.581144 354.958125 
z
" clip-path="url(#pfc492b7d28)" style="opacity: 0.3; stroke: #000000; stroke-linejoin: miter"/>
   </g>
   <g id="patch_8">
    <path d="M 559.459841 354.958125 
L 559.459841 22.318125 
L 610.338539 22.318125 
L 610.338539 354.958125 
z
" clip-path="url(#pfc492b7d28)" style="opacity: 0.3; stroke: #000000; stroke-linejoin: miter"/>
   </g>
   <g id="patch_9">
    <path d="M 661.217236 354.958125 
L 661.217236 22.318125 
L 712.095934 22.318125 
L 712.095934 354.958125 
z
" clip-path="url(#pfc492b7d28)" style="opacity: 0.3; stroke: #000000; stroke-linejoin: miter"/>
   </g>
   <g id="patch_10">
    <path d="M 762.974631 354.958125 
L 762.974631 22.318125 
L 786.294034 22.318125 
L 786.294034 354.958125 
z
" clip-path="url(#pfc492b7d28)" style="opacity: 0.3; stroke: #000000; stroke-linejoin: miter"/>
   </g>
   <g id="matplotlib.axis_1">
    <g id="xtick_1">
     <g id="line2d_1">
      <path d="M 76.112216 354.958125 
L 76.112216 22.318125 
" clip-path="url(#pfc492b7d28)" style="fill: none; stroke: #b0b0b0; stroke-width: 0.8; stroke-linecap: square"/>
     </g>
     <g id="line2d_2">
      <defs>
       <path id="m63af5dc5e8" d="M 0 0 
L 0 3.5 
" style="stroke: #000000; stroke-width: 0.8"/>
      </defs>
      <g>
       <use xlink:href="#m63af5dc5e8" x="76.112216" y="354.958125" style="stroke: #000000; stroke-width: 0.8"/>
      </g>
     </g>
     <g id="text_1">
      <!-- Monday 00:00 -->
      <g transform="translate(24.100093 417.872594) rotate(-45) scale(0.1 -0.1)">
       <defs>
        <path id="DejaVuSans-4d" d="M 628 4666 
L 1569 4666 
L 2759 1491 
L 3956 4666 
L 4897 4666 
L 4897 0 
L 4281 0 
L 4281 4097 
L 3078 897 
L 2444 897 
L 1241 4097 
L 1241 0 
L 628 0 
L 628 4666 
z
" transform="scale(0.015625)"/>
        <path id="DejaVuSans-6f" d="M 1959 3097 
Q 1497 3097 1228 2736 
Q 959 2375 959 1747 
Q 959 1119 1226 758 
Q 1494 397 1959 397 
Q 2419 397 2687 759 
Q 2956 1122 2956 1747 
Q 2956 2369 2687 2733 
Q 2419 3097 1959 3097 
z
M 1959 3584 
Q 2709 3584 3137 3096 
Q 3566 2609 3566 1747 
Q 3566 888 3137 398 
Q 2709 -91 1959 -91 
Q 1206 -91 779 398 
Q 353 888 353 1747 
Q 353 2609 779 3096 
Q 1206 3584 1959 3584 
z
" transform="scale(0.015625)"/>
        <path id="DejaVuSans-6e" d="M 3513 2113 
L 3513 0 
L 2938 0 
L 2938 2094 
Q 2938 2591 2744 2837 
Q 2550 3084 2163 3084 
Q 1697 3084 1428 2787 
Q 1159 2491 1159 1978 
L 1159 0 
L 581 0 
L 581 3500 
L 1159 3500 
L 1159 2956 
Q 1366 3272 1645 3428 
Q 1925 3584 2291 3584 
Q 2894 3584 3203 3211 
Q 3513 2838 3513 2113 
z
" transform="scale(0.015625)"/>
        <path id="DejaVuSans-64" d="M 2906 2969 
L 2906 4863 
L 3481 4863 
L 3481 0 
L 2906 0 
L 2906 525 
Q 2725 213 2448 61 
Q 2172 -91 1784 -91 
Q 1150 -91 751 415 
Q 353 922 353 1747 
Q 353 2572 751 3078 
Q 1150 3584 1784 3584 
Q 2172 3584 2448 3432 
Q 2725 3281 2906 2969 
z
M 947 1747 
Q 947 1113 1208 752 
Q 1469 391 1925 391 
Q 2381 391 2643 752 
Q 2906 1113 2906 1747 
Q 2906 2381 2643 2742 
Q 2381 3103 1925 3103 
Q 1469 3103 1208 2742 
Q 947 2381 947 1747 
z
" transform="scale(0.015625)"/>
        <path id="DejaVuSans-61" d="M 2194 1759 
Q 1497 1759 1228 1600 
Q 959 1441 959 1056 
Q 959 750 1161 570 
Q 1363 391 1709 391 
Q 2188 391 2477 730 
Q 2766 1069 2766 1631 
L 2766 1759 
L 2194 1759 
z
M 3341 1997 
L 3341 0 
L 2766 0 
L 2766 531 
Q 2569 213 2275 61 
Q 1981 -91 1556 -91 
Q 1019 -91 701 211 
Q 384 513 384 1019 
Q 384 1609 779 1909 
Q 1175 2209 1959 2209 
L 2766 2209 
L 2766 2266 
Q 2766 2663 2505 2880 
Q 2244 3097 1772 3097 
Q 1472 3097 1187 3025 
Q 903 2953 641 2809 
L 641 3341 
Q 956 3463 1253 3523 
Q 1550 3584 1831 3584 
Q 2591 3584 2966 3190 
Q 3341 2797 3341 1997 
z
" transform="scale(0.015625)"/>
        <path id="DejaVuSans-79" d="M 2059 -325 
Q 1816 -950 1584 -1140 
Q 1353 -1331 966 -1331 
L 506 -1331 
L 506 -850 
L 844 -850 
Q 1081 -850 1212 -737 
Q 1344 -625 1503 -206 
L 1606 56 
L 191 3500 
L 800 3500 
L 1894 763 
L 2988 3500 
L 3597 3500 
L 2059 -325 
z
" transform="scale(0.015625)"/>
        <path id="DejaVuSans-20" transform="scale(0.015625)"/>
        <path id="DejaVuSans-30" d="M 2034 4250 
Q 1547 4250 1301 3770 
Q 1056 3291 1056 2328 
Q 1056 1369 1301 889 
Q 1547 409 2034 409 
Q 2525 409 2770 889 
Q 3016 1369 3016 2328 
Q 3016 3291 2770 3770 
Q 2525 4250 2034 4250 
z
M 2034 4750 
Q 2819 4750 3233 4129 
Q 3647 3509 3647 2328 
Q 3647 1150 3233 529 
Q 2819 -91 2034 -91 
Q 1250 -91 836 529 
Q 422 1150 422 2328 
Q 422 3509 836 4129 
Q 1250 4750 2034 4750 
z
" transform="scale(0.015625)"/>
        <path id="DejaVuSans-3a" d="M 750 794 
L 1409 794 
L 1409 0 
L 750 0 
L 750 794 
z
M 750 3309 
L 1409 3309 
L 1409 2516 
L 750 2516 
L 750 3309 
z
" transform="scale(0.015625)"/>
       </defs>
       <use xlink:href="#DejaVuSans-4d"/>
       <use xlink:href="#DejaVuSans-6f" x="86.279297"/>
       <use xlink:href="#DejaVuSans-6e" x="147.460938"/>
       <use xlink:href="#DejaVuSans-64" x="210.839844"/>
       <use xlink:href="#DejaVuSans-61" x="274.316406"/>
       <use xlink:href="#DejaVuSans-79" x="335.595703"/>
       <use xlink:href="#DejaVuSans-20" x="394.775391"/>
       <use xlink:href="#DejaVuSans-30" x="426.5625"/>
       <use xlink:href="#DejaVuSans-30" x="490.185547"/>
       <use xlink:href="#DejaVuSans-3a" x="553.808594"/>
       <use xlink:href="#DejaVuSans-30" x="587.5"/>
       <use xlink:href="#DejaVuSans-30" x="651.123047"/>
      </g>
     </g>
    </g>
    <g id="xtick_2">
     <g id="line2d_3">
      <path d="M 101.551565 354.958125 
L 101.551565 22.318125 
" clip-path="url(#pfc492b7d28)" style="fill: none; stroke: #b0b0b0; stroke-width: 0.8; stroke-linecap: square"/>
     </g>
     <g id="line2d_4">
      <g>
       <use xlink:href="#m63af5dc5e8" x="101.551565" y="354.958125" style="stroke: #000000; stroke-width: 0.8"/>
      </g>
     </g>
     <g id="text_2">
      <!-- 06:00 -->
      <g transform="translate(79.70307 387.708965) rotate(-45) scale(0.1 -0.1)">
       <defs>
        <path id="DejaVuSans-36" d="M 2113 2584 
Q 1688 2584 1439 2293 
Q 1191 2003 1191 1497 
Q 1191 994 1439 701 
Q 1688 409 2113 409 
Q 2538 409 2786 701 
Q 3034 994 3034 1497 
Q 3034 2003 2786 2293 
Q 2538 2584 2113 2584 
z
M 3366 4563 
L 3366 3988 
Q 3128 4100 2886 4159 
Q 2644 4219 2406 4219 
Q 1781 4219 1451 3797 
Q 1122 3375 1075 2522 
Q 1259 2794 1537 2939 
Q 1816 3084 2150 3084 
Q 2853 3084 3261 2657 
Q 3669 2231 3669 1497 
Q 3669 778 3244 343 
Q 2819 -91 2113 -91 
Q 1303 -91 875 529 
Q 447 1150 447 2328 
Q 447 3434 972 4092 
Q 1497 4750 2381 4750 
Q 2619 4750 2861 4703 
Q 3103 4656 3366 4563 
z
" transform="scale(0.015625)"/>
       </defs>
       <use xlink:href="#DejaVuSans-30"/>
       <use xlink:href="#DejaVuSans-36" x="63.623047"/>
       <use xlink:href="#DejaVuSans-3a" x="127.246094"/>
       <use xlink:href="#DejaVuSans-30" x="160.9375"/>
       <use xlink:href="#DejaVuSans-30" x="224.560547"/>
      </g>
     </g>
    </g>
    <g id="xtick_3">
     <g id="line2d_5">
      <path d="M 126.990913 354.958125 
L 126.990913 22.318125 
" clip-path="url(#pfc492b7d28)" style="fill: none; stroke: #b0b0b0; stroke-width: 0.8; stroke-linecap: square"/>
     </g>
     <g id="line2d_6">
      <g>
       <use xlink:href="#m63af5dc5e8" x="126.990913" y="354.958125" style="stroke: #000000; stroke-width: 0.8"/>
      </g>
     </g>
     <g id="text_3">
      <!-- 12:00 -->
      <g transform="translate(105.142419 387.708965) rotate(-45) scale(0.1 -0.1)">
       <defs>
        <path id="DejaVuSans-31" d="M 794 531 
L 1825 531 
L 1825 4091 
L 703 3866 
L 703 4441 
L 1819 4666 
L 2450 4666 
L 2450 531 
L 3481 531 
L 3481 0 
L 794 0 
L 794 531 
z
" transform="scale(0.015625)"/>
        <path id="DejaVuSans-32" d="M 1228 531 
L 3431 531 
L 3431 0 
L 469 0 
L 469 531 
Q 828 903 1448 1529 
Q 2069 2156 2228 2338 
Q 2531 2678 2651 2914 
Q 2772 3150 2772 3378 
Q 2772 3750 2511 3984 
Q 2250 4219 1831 4219 
Q 1534 4219 1204 4116 
Q 875 4013 500 3803 
L 500 4441 
Q 881 4594 1212 4672 
Q 1544 4750 1819 4750 
Q 2544 4750 2975 4387 
Q 3406 4025 3406 3419 
Q 3406 3131 3298 2873 
Q 3191 2616 2906 2266 
Q 2828 2175 2409 1742 
Q 1991 1309 1228 531 
z
" transform="scale(0.015625)"/>
       </defs>
       <use xlink:href="#DejaVuSans-31"/>
       <use xlink:href="#DejaVuSans-32" x="63.623047"/>
       <use xlink:href="#DejaVuSans-3a" x="127.246094"/>
       <use xlink:href="#DejaVuSans-30" x="160.9375"/>
       <use xlink:href="#DejaVuSans-30" x="224.560547"/>
      </g>
     </g>
    </g>
    <g id="xtick_4">
     <g id="line2d_7">
      <path d="M 152.430262 354.958125 
L 152.430262 22.318125 
" clip-path="url(#pfc492b7d28)" style="fill: none; stroke: #b0b0b0; stroke-width: 0.8; stroke-linecap: square"/>
     </g>
     <g id="line2d_8">
      <g>
       <use xlink:href="#m63af5dc5e8" x="152.430262" y="354.958125" style="stroke: #000000; stroke-width: 0.8"/>
      </g>
     </g>
     <g id="text_4">
      <!-- 18:00 -->
      <g transform="translate(130.581767 387.708965) rotate(-45) scale(0.1 -0.1)">
       <defs>
        <path id="DejaVuSans-38" d="M 2034 2216 
Q 1584 2216 1326 1975 
Q 1069 1734 1069 1313 
Q 1069 891 1326 650 
Q 1584 409 2034 409 
Q 2484 409 2743 651 
Q 3003 894 3003 1313 
Q 3003 1734 2745 1975 
Q 2488 2216 2034 2216 
z
M 1403 2484 
Q 997 2584 770 2862 
Q 544 3141 544 3541 
Q 544 4100 942 4425 
Q 1341 4750 2034 4750 
Q 2731 4750 3128 4425 
Q 3525 4100 3525 3541 
Q 3525 3141 3298 2862 
Q 3072 2584 2669 2484 
Q 3125 2378 3379 2068 
Q 3634 1759 3634 1313 
Q 3634 634 3220 271 
Q 2806 -91 2034 -91 
Q 1263 -91 848 271 
Q 434 634 434 1313 
Q 434 1759 690 2068 
Q 947 2378 1403 2484 
z
M 1172 3481 
Q 1172 3119 1398 2916 
Q 1625 2713 2034 2713 
Q 2441 2713 2670 2916 
Q 2900 3119 2900 3481 
Q 2900 3844 2670 4047 
Q 2441 4250 2034 4250 
Q 1625 4250 1398 4047 
Q 1172 3844 1172 3481 
z
" transform="scale(0.015625)"/>
       </defs>
       <use xlink:href="#DejaVuSans-31"/>
       <use xlink:href="#DejaVuSans-38" x="63.623047"/>
       <use xlink:href="#DejaVuSans-3a" x="127.246094"/>
       <use xlink:href="#DejaVuSans-30" x="160.9375"/>
       <use xlink:href="#DejaVuSans-30" x="224.560547"/>
      </g>
     </g>
    </g>
    <g id="xtick_5">
     <g id="line2d_9">
      <path d="M 177.869611 354.958125 
L 177.869611 22.318125 
" clip-path="url(#pfc492b7d28)" style="fill: none; stroke: #b0b0b0; stroke-width: 0.8; stroke-linecap: square"/>
     </g>
     <g id="line2d_10">
      <g>
       <use xlink:href="#m63af5dc5e8" x="177.869611" y="354.958125" style="stroke: #000000; stroke-width: 0.8"/>
      </g>
     </g>
     <g id="text_5">
      <!-- Tuesday 00:00 -->
      <g transform="translate(125.001225 418.728856) rotate(-45) scale(0.1 -0.1)">
       <defs>
        <path id="DejaVuSans-54" d="M -19 4666 
L 3928 4666 
L 3928 4134 
L 2272 4134 
L 2272 0 
L 1638 0 
L 1638 4134 
L -19 4134 
L -19 4666 
z
" transform="scale(0.015625)"/>
        <path id="DejaVuSans-75" d="M 544 1381 
L 544 3500 
L 1119 3500 
L 1119 1403 
Q 1119 906 1312 657 
Q 1506 409 1894 409 
Q 2359 409 2629 706 
Q 2900 1003 2900 1516 
L 2900 3500 
L 3475 3500 
L 3475 0 
L 2900 0 
L 2900 538 
Q 2691 219 2414 64 
Q 2138 -91 1772 -91 
Q 1169 -91 856 284 
Q 544 659 544 1381 
z
M 1991 3584 
L 1991 3584 
z
" transform="scale(0.015625)"/>
        <path id="DejaVuSans-65" d="M 3597 1894 
L 3597 1613 
L 953 1613 
Q 991 1019 1311 708 
Q 1631 397 2203 397 
Q 2534 397 2845 478 
Q 3156 559 3463 722 
L 3463 178 
Q 3153 47 2828 -22 
Q 2503 -91 2169 -91 
Q 1331 -91 842 396 
Q 353 884 353 1716 
Q 353 2575 817 3079 
Q 1281 3584 2069 3584 
Q 2775 3584 3186 3129 
Q 3597 2675 3597 1894 
z
M 3022 2063 
Q 3016 2534 2758 2815 
Q 2500 3097 2075 3097 
Q 1594 3097 1305 2825 
Q 1016 2553 972 2059 
L 3022 2063 
z
" transform="scale(0.015625)"/>
        <path id="DejaVuSans-73" d="M 2834 3397 
L 2834 2853 
Q 2591 2978 2328 3040 
Q 2066 3103 1784 3103 
Q 1356 3103 1142 2972 
Q 928 2841 928 2578 
Q 928 2378 1081 2264 
Q 1234 2150 1697 2047 
L 1894 2003 
Q 2506 1872 2764 1633 
Q 3022 1394 3022 966 
Q 3022 478 2636 193 
Q 2250 -91 1575 -91 
Q 1294 -91 989 -36 
Q 684 19 347 128 
L 347 722 
Q 666 556 975 473 
Q 1284 391 1588 391 
Q 1994 391 2212 530 
Q 2431 669 2431 922 
Q 2431 1156 2273 1281 
Q 2116 1406 1581 1522 
L 1381 1569 
Q 847 1681 609 1914 
Q 372 2147 372 2553 
Q 372 3047 722 3315 
Q 1072 3584 1716 3584 
Q 2034 3584 2315 3537 
Q 2597 3491 2834 3397 
z
" transform="scale(0.015625)"/>
       </defs>
       <use xlink:href="#DejaVuSans-54"/>
       <use xlink:href="#DejaVuSans-75" x="45.958984"/>
       <use xlink:href="#DejaVuSans-65" x="109.337891"/>
       <use xlink:href="#DejaVuSans-73" x="170.861328"/>
       <use xlink:href="#DejaVuSans-64" x="222.960938"/>
       <use xlink:href="#DejaVuSans-61" x="286.4375"/>
       <use xlink:href="#DejaVuSans-79" x="347.716797"/>
       <use xlink:href="#DejaVuSans-20" x="406.896484"/>
       <use xlink:href="#DejaVuSans-30" x="438.683594"/>
       <use xlink:href="#DejaVuSans-30" x="502.306641"/>
       <use xlink:href="#DejaVuSans-3a" x="565.929688"/>
       <use xlink:href="#DejaVuSans-30" x="599.621094"/>
       <use xlink:href="#DejaVuSans-30" x="663.244141"/>
      </g>
     </g>
    </g>
    <g id="xtick_6">
     <g id="line2d_11">
      <path d="M 203.308959 354.958125 
L 203.308959 22.318125 
" clip-path="url(#pfc492b7d28)" style="fill: none; stroke: #b0b0b0; stroke-width: 0.8; stroke-linecap: square"/>
     </g>
     <g id="line2d_12">
      <g>
       <use xlink:href="#m63af5dc5e8" x="203.308959" y="354.958125" style="stroke: #000000; stroke-width: 0.8"/>
      </g>
     </g>
     <g id="text_6">
      <!-- 06:00 -->
      <g transform="translate(181.460465 387.708965) rotate(-45) scale(0.1 -0.1)">
       <use xlink:href="#DejaVuSans-30"/>
       <use xlink:href="#DejaVuSans-36" x="63.623047"/>
       <use xlink:href="#DejaVuSans-3a" x="127.246094"/>
       <use xlink:href="#DejaVuSans-30" x="160.9375"/>
       <use xlink:href="#DejaVuSans-30" x="224.560547"/>
      </g>
     </g>
    </g>
    <g id="xtick_7">
     <g id="line2d_13">
      <path d="M 228.748308 354.958125 
L 228.748308 22.318125 
" clip-path="url(#pfc492b7d28)" style="fill: none; stroke: #b0b0b0; stroke-width: 0.8; stroke-linecap: square"/>
     </g>
     <g id="line2d_14">
      <g>
       <use xlink:href="#m63af5dc5e8" x="228.748308" y="354.958125" style="stroke: #000000; stroke-width: 0.8"/>
      </g>
     </g>
     <g id="text_7">
      <!-- 12:00 -->
      <g transform="translate(206.899813 387.708965) rotate(-45) scale(0.1 -0.1)">
       <use xlink:href="#DejaVuSans-31"/>
       <use xlink:href="#DejaVuSans-32" x="63.623047"/>
       <use xlink:href="#DejaVuSans-3a" x="127.246094"/>
       <use xlink:href="#DejaVuSans-30" x="160.9375"/>
       <use xlink:href="#DejaVuSans-30" x="224.560547"/>
      </g>
     </g>
    </g>
    <g id="xtick_8">
     <g id="line2d_15">
      <path d="M 254.187657 354.958125 
L 254.187657 22.318125 
" clip-path="url(#pfc492b7d28)" style="fill: none; stroke: #b0b0b0; stroke-width: 0.8; stroke-linecap: square"/>
     </g>
     <g id="line2d_16">
      <g>
       <use xlink:href="#m63af5dc5e8" x="254.187657" y="354.958125" style="stroke: #000000; stroke-width: 0.8"/>
      </g>
     </g>
     <g id="text_8">
      <!-- 18:00 -->
      <g transform="translate(232.339162 387.708965) rotate(-45) scale(0.1 -0.1)">
       <use xlink:href="#DejaVuSans-31"/>
       <use xlink:href="#DejaVuSans-38" x="63.623047"/>
       <use xlink:href="#DejaVuSans-3a" x="127.246094"/>
       <use xlink:href="#DejaVuSans-30" x="160.9375"/>
       <use xlink:href="#DejaVuSans-30" x="224.560547"/>
      </g>
     </g>
    </g>
    <g id="xtick_9">
     <g id="line2d_17">
      <path d="M 279.627006 354.958125 
L 279.627006 22.318125 
" clip-path="url(#pfc492b7d28)" style="fill: none; stroke: #b0b0b0; stroke-width: 0.8; stroke-linecap: square"/>
     </g>
     <g id="line2d_18">
      <g>
       <use xlink:href="#m63af5dc5e8" x="279.627006" y="354.958125" style="stroke: #000000; stroke-width: 0.8"/>
      </g>
     </g>
     <g id="text_9">
      <!-- Wednesday 00:00 -->
      <g transform="translate(214.591964 430.895512) rotate(-45) scale(0.1 -0.1)">
       <defs>
        <path id="DejaVuSans-57" d="M 213 4666 
L 850 4666 
L 1831 722 
L 2809 4666 
L 3519 4666 
L 4500 722 
L 5478 4666 
L 6119 4666 
L 4947 0 
L 4153 0 
L 3169 4050 
L 2175 0 
L 1381 0 
L 213 4666 
z
" transform="scale(0.015625)"/>
       </defs>
       <use xlink:href="#DejaVuSans-57"/>
       <use xlink:href="#DejaVuSans-65" x="93.001953"/>
       <use xlink:href="#DejaVuSans-64" x="154.525391"/>
       <use xlink:href="#DejaVuSans-6e" x="218.001953"/>
       <use xlink:href="#DejaVuSans-65" x="281.380859"/>
       <use xlink:href="#DejaVuSans-73" x="342.904297"/>
       <use xlink:href="#DejaVuSans-64" x="395.003906"/>
       <use xlink:href="#DejaVuSans-61" x="458.480469"/>
       <use xlink:href="#DejaVuSans-79" x="519.759766"/>
       <use xlink:href="#DejaVuSans-20" x="578.939453"/>
       <use xlink:href="#DejaVuSans-30" x="610.726562"/>
       <use xlink:href="#DejaVuSans-30" x="674.349609"/>
       <use xlink:href="#DejaVuSans-3a" x="737.972656"/>
       <use xlink:href="#DejaVuSans-30" x="771.664062"/>
       <use xlink:href="#DejaVuSans-30" x="835.287109"/>
      </g>
     </g>
    </g>
    <g id="xtick_10">
     <g id="line2d_19">
      <path d="M 305.066354 354.958125 
L 305.066354 22.318125 
" clip-path="url(#pfc492b7d28)" style="fill: none; stroke: #b0b0b0; stroke-width: 0.8; stroke-linecap: square"/>
     </g>
     <g id="line2d_20">
      <g>
       <use xlink:href="#m63af5dc5e8" x="305.066354" y="354.958125" style="stroke: #000000; stroke-width: 0.8"/>
      </g>
     </g>
     <g id="text_10">
      <!-- 06:00 -->
      <g transform="translate(283.21786 387.708965) rotate(-45) scale(0.1 -0.1)">
       <use xlink:href="#DejaVuSans-30"/>
       <use xlink:href="#DejaVuSans-36" x="63.623047"/>
       <use xlink:href="#DejaVuSans-3a" x="127.246094"/>
       <use xlink:href="#DejaVuSans-30" x="160.9375"/>
       <use xlink:href="#DejaVuSans-30" x="224.560547"/>
      </g>
     </g>
    </g>
    <g id="xtick_11">
     <g id="line2d_21">
      <path d="M 330.505703 354.958125 
L 330.505703 22.318125 
" clip-path="url(#pfc492b7d28)" style="fill: none; stroke: #b0b0b0; stroke-width: 0.8; stroke-linecap: square"/>
     </g>
     <g id="line2d_22">
      <g>
       <use xlink:href="#m63af5dc5e8" x="330.505703" y="354.958125" style="stroke: #000000; stroke-width: 0.8"/>
      </g>
     </g>
     <g id="text_11">
      <!-- 12:00 -->
      <g transform="translate(308.657208 387.708965) rotate(-45) scale(0.1 -0.1)">
       <use xlink:href="#DejaVuSans-31"/>
       <use xlink:href="#DejaVuSans-32" x="63.623047"/>
       <use xlink:href="#DejaVuSans-3a" x="127.246094"/>
       <use xlink:href="#DejaVuSans-30" x="160.9375"/>
       <use xlink:href="#DejaVuSans-30" x="224.560547"/>
      </g>
     </g>
    </g>
    <g id="xtick_12">
     <g id="line2d_23">
      <path d="M 355.945052 354.958125 
L 355.945052 22.318125 
" clip-path="url(#pfc492b7d28)" style="fill: none; stroke: #b0b0b0; stroke-width: 0.8; stroke-linecap: square"/>
     </g>
     <g id="line2d_24">
      <g>
       <use xlink:href="#m63af5dc5e8" x="355.945052" y="354.958125" style="stroke: #000000; stroke-width: 0.8"/>
      </g>
     </g>
     <g id="text_12">
      <!-- 18:00 -->
      <g transform="translate(334.096557 387.708965) rotate(-45) scale(0.1 -0.1)">
       <use xlink:href="#DejaVuSans-31"/>
       <use xlink:href="#DejaVuSans-38" x="63.623047"/>
       <use xlink:href="#DejaVuSans-3a" x="127.246094"/>
       <use xlink:href="#DejaVuSans-30" x="160.9375"/>
       <use xlink:href="#DejaVuSans-30" x="224.560547"/>
      </g>
     </g>
    </g>
    <g id="xtick_13">
     <g id="line2d_25">
      <path d="M 381.3844 354.958125 
L 381.3844 22.318125 
" clip-path="url(#pfc492b7d28)" style="fill: none; stroke: #b0b0b0; stroke-width: 0.8; stroke-linecap: square"/>
     </g>
     <g id="line2d_26">
      <g>
       <use xlink:href="#m63af5dc5e8" x="381.3844" y="354.958125" style="stroke: #000000; stroke-width: 0.8"/>
      </g>
     </g>
     <g id="text_13">
      <!-- Thursday 00:00 -->
      <g transform="translate(324.409272 422.835599) rotate(-45) scale(0.1 -0.1)">
       <defs>
        <path id="DejaVuSans-68" d="M 3513 2113 
L 3513 0 
L 2938 0 
L 2938 2094 
Q 2938 2591 2744 2837 
Q 2550 3084 2163 3084 
Q 1697 3084 1428 2787 
Q 1159 2491 1159 1978 
L 1159 0 
L 581 0 
L 581 4863 
L 1159 4863 
L 1159 2956 
Q 1366 3272 1645 3428 
Q 1925 3584 2291 3584 
Q 2894 3584 3203 3211 
Q 3513 2838 3513 2113 
z
" transform="scale(0.015625)"/>
        <path id="DejaVuSans-72" d="M 2631 2963 
Q 2534 3019 2420 3045 
Q 2306 3072 2169 3072 
Q 1681 3072 1420 2755 
Q 1159 2438 1159 1844 
L 1159 0 
L 581 0 
L 581 3500 
L 1159 3500 
L 1159 2956 
Q 1341 3275 1631 3429 
Q 1922 3584 2338 3584 
Q 2397 3584 2469 3576 
Q 2541 3569 2628 3553 
L 2631 2963 
z
" transform="scale(0.015625)"/>
       </defs>
       <use xlink:href="#DejaVuSans-54"/>
       <use xlink:href="#DejaVuSans-68" x="61.083984"/>
       <use xlink:href="#DejaVuSans-75" x="124.462891"/>
       <use xlink:href="#DejaVuSans-72" x="187.841797"/>
       <use xlink:href="#DejaVuSans-73" x="228.955078"/>
       <use xlink:href="#DejaVuSans-64" x="281.054688"/>
       <use xlink:href="#DejaVuSans-61" x="344.53125"/>
       <use xlink:href="#DejaVuSans-79" x="405.810547"/>
       <use xlink:href="#DejaVuSans-20" x="464.990234"/>
       <use xlink:href="#DejaVuSans-30" x="496.777344"/>
       <use xlink:href="#DejaVuSans-30" x="560.400391"/>
       <use xlink:href="#DejaVuSans-3a" x="624.023438"/>
       <use xlink:href="#DejaVuSans-30" x="657.714844"/>
       <use xlink:href="#DejaVuSans-30" x="721.337891"/>
      </g>
     </g>
    </g>
    <g id="xtick_14">
     <g id="line2d_27">
      <path d="M 406.823749 354.958125 
L 406.823749 22.318125 
" clip-path="url(#pfc492b7d28)" style="fill: none; stroke: #b0b0b0; stroke-width: 0.8; stroke-linecap: square"/>
     </g>
     <g id="line2d_28">
      <g>
       <use xlink:href="#m63af5dc5e8" x="406.823749" y="354.958125" style="stroke: #000000; stroke-width: 0.8"/>
      </g>
     </g>
     <g id="text_14">
      <!-- 06:00 -->
      <g transform="translate(384.975254 387.708965) rotate(-45) scale(0.1 -0.1)">
       <use xlink:href="#DejaVuSans-30"/>
       <use xlink:href="#DejaVuSans-36" x="63.623047"/>
       <use xlink:href="#DejaVuSans-3a" x="127.246094"/>
       <use xlink:href="#DejaVuSans-30" x="160.9375"/>
       <use xlink:href="#DejaVuSans-30" x="224.560547"/>
      </g>
     </g>
    </g>
    <g id="xtick_15">
     <g id="line2d_29">
      <path d="M 432.263098 354.958125 
L 432.263098 22.318125 
" clip-path="url(#pfc492b7d28)" style="fill: none; stroke: #b0b0b0; stroke-width: 0.8; stroke-linecap: square"/>
     </g>
     <g id="line2d_30">
      <g>
       <use xlink:href="#m63af5dc5e8" x="432.263098" y="354.958125" style="stroke: #000000; stroke-width: 0.8"/>
      </g>
     </g>
     <g id="text_15">
      <!-- 12:00 -->
      <g transform="translate(410.414603 387.708965) rotate(-45) scale(0.1 -0.1)">
       <use xlink:href="#DejaVuSans-31"/>
       <use xlink:href="#DejaVuSans-32" x="63.623047"/>
       <use xlink:href="#DejaVuSans-3a" x="127.246094"/>
       <use xlink:href="#DejaVuSans-30" x="160.9375"/>
       <use xlink:href="#DejaVuSans-30" x="224.560547"/>
      </g>
     </g>
    </g>
    <g id="xtick_16">
     <g id="line2d_31">
      <path d="M 457.702447 354.958125 
L 457.702447 22.318125 
" clip-path="url(#pfc492b7d28)" style="fill: none; stroke: #b0b0b0; stroke-width: 0.8; stroke-linecap: square"/>
     </g>
     <g id="line2d_32">
      <g>
       <use xlink:href="#m63af5dc5e8" x="457.702447" y="354.958125" style="stroke: #000000; stroke-width: 0.8"/>
      </g>
     </g>
     <g id="text_16">
      <!-- 18:00 -->
      <g transform="translate(435.853952 387.708965) rotate(-45) scale(0.1 -0.1)">
       <use xlink:href="#DejaVuSans-31"/>
       <use xlink:href="#DejaVuSans-38" x="63.623047"/>
       <use xlink:href="#DejaVuSans-3a" x="127.246094"/>
       <use xlink:href="#DejaVuSans-30" x="160.9375"/>
       <use xlink:href="#DejaVuSans-30" x="224.560547"/>
      </g>
     </g>
    </g>
    <g id="xtick_17">
     <g id="line2d_33">
      <path d="M 483.141795 354.958125 
L 483.141795 22.318125 
" clip-path="url(#pfc492b7d28)" style="fill: none; stroke: #b0b0b0; stroke-width: 0.8; stroke-linecap: square"/>
     </g>
     <g id="line2d_34">
      <g>
       <use xlink:href="#m63af5dc5e8" x="483.141795" y="354.958125" style="stroke: #000000; stroke-width: 0.8"/>
      </g>
     </g>
     <g id="text_17">
      <!-- Friday 00:00 -->
      <g transform="translate(437.612957 411.389308) rotate(-45) scale(0.1 -0.1)">
       <defs>
        <path id="DejaVuSans-46" d="M 628 4666 
L 3309 4666 
L 3309 4134 
L 1259 4134 
L 1259 2759 
L 3109 2759 
L 3109 2228 
L 1259 2228 
L 1259 0 
L 628 0 
L 628 4666 
z
" transform="scale(0.015625)"/>
        <path id="DejaVuSans-69" d="M 603 3500 
L 1178 3500 
L 1178 0 
L 603 0 
L 603 3500 
z
M 603 4863 
L 1178 4863 
L 1178 4134 
L 603 4134 
L 603 4863 
z
" transform="scale(0.015625)"/>
       </defs>
       <use xlink:href="#DejaVuSans-46"/>
       <use xlink:href="#DejaVuSans-72" x="50.269531"/>
       <use xlink:href="#DejaVuSans-69" x="91.382812"/>
       <use xlink:href="#DejaVuSans-64" x="119.166016"/>
       <use xlink:href="#DejaVuSans-61" x="182.642578"/>
       <use xlink:href="#DejaVuSans-79" x="243.921875"/>
       <use xlink:href="#DejaVuSans-20" x="303.101562"/>
       <use xlink:href="#DejaVuSans-30" x="334.888672"/>
       <use xlink:href="#DejaVuSans-30" x="398.511719"/>
       <use xlink:href="#DejaVuSans-3a" x="462.134766"/>
       <use xlink:href="#DejaVuSans-30" x="495.826172"/>
       <use xlink:href="#DejaVuSans-30" x="559.449219"/>
      </g>
     </g>
    </g>
    <g id="xtick_18">
     <g id="line2d_35">
      <path d="M 508.581144 354.958125 
L 508.581144 22.318125 
" clip-path="url(#pfc492b7d28)" style="fill: none; stroke: #b0b0b0; stroke-width: 0.8; stroke-linecap: square"/>
     </g>
     <g id="line2d_36">
      <g>
       <use xlink:href="#m63af5dc5e8" x="508.581144" y="354.958125" style="stroke: #000000; stroke-width: 0.8"/>
      </g>
     </g>
     <g id="text_18">
      <!-- 06:00 -->
      <g transform="translate(486.732649 387.708965) rotate(-45) scale(0.1 -0.1)">
       <use xlink:href="#DejaVuSans-30"/>
       <use xlink:href="#DejaVuSans-36" x="63.623047"/>
       <use xlink:href="#DejaVuSans-3a" x="127.246094"/>
       <use xlink:href="#DejaVuSans-30" x="160.9375"/>
       <use xlink:href="#DejaVuSans-30" x="224.560547"/>
      </g>
     </g>
    </g>
    <g id="xtick_19">
     <g id="line2d_37">
      <path d="M 534.020493 354.958125 
L 534.020493 22.318125 
" clip-path="url(#pfc492b7d28)" style="fill: none; stroke: #b0b0b0; stroke-width: 0.8; stroke-linecap: square"/>
     </g>
     <g id="line2d_38">
      <g>
       <use xlink:href="#m63af5dc5e8" x="534.020493" y="354.958125" style="stroke: #000000; stroke-width: 0.8"/>
      </g>
     </g>
     <g id="text_19">
      <!-- 12:00 -->
      <g transform="translate(512.171998 387.708965) rotate(-45) scale(0.1 -0.1)">
       <use xlink:href="#DejaVuSans-31"/>
       <use xlink:href="#DejaVuSans-32" x="63.623047"/>
       <use xlink:href="#DejaVuSans-3a" x="127.246094"/>
       <use xlink:href="#DejaVuSans-30" x="160.9375"/>
       <use xlink:href="#DejaVuSans-30" x="224.560547"/>
      </g>
     </g>
    </g>
    <g id="xtick_20">
     <g id="line2d_39">
      <path d="M 559.459841 354.958125 
L 559.459841 22.318125 
" clip-path="url(#pfc492b7d28)" style="fill: none; stroke: #b0b0b0; stroke-width: 0.8; stroke-linecap: square"/>
     </g>
     <g id="line2d_40">
      <g>
       <use xlink:href="#m63af5dc5e8" x="559.459841" y="354.958125" style="stroke: #000000; stroke-width: 0.8"/>
      </g>
     </g>
     <g id="text_20">
      <!-- 18:00 -->
      <g transform="translate(537.611347 387.708965) rotate(-45) scale(0.1 -0.1)">
       <use xlink:href="#DejaVuSans-31"/>
       <use xlink:href="#DejaVuSans-38" x="63.623047"/>
       <use xlink:href="#DejaVuSans-3a" x="127.246094"/>
       <use xlink:href="#DejaVuSans-30" x="160.9375"/>
       <use xlink:href="#DejaVuSans-30" x="224.560547"/>
      </g>
     </g>
    </g>
    <g id="xtick_21">
     <g id="line2d_41">
      <path d="M 584.89919 354.958125 
L 584.89919 22.318125 
" clip-path="url(#pfc492b7d28)" style="fill: none; stroke: #b0b0b0; stroke-width: 0.8; stroke-linecap: square"/>
     </g>
     <g id="line2d_42">
      <g>
       <use xlink:href="#m63af5dc5e8" x="584.89919" y="354.958125" style="stroke: #000000; stroke-width: 0.8"/>
      </g>
     </g>
     <g id="text_21">
      <!-- Saturday 00:00 -->
      <g transform="translate(528.937213 421.822448) rotate(-45) scale(0.1 -0.1)">
       <defs>
        <path id="DejaVuSans-53" d="M 3425 4513 
L 3425 3897 
Q 3066 4069 2747 4153 
Q 2428 4238 2131 4238 
Q 1616 4238 1336 4038 
Q 1056 3838 1056 3469 
Q 1056 3159 1242 3001 
Q 1428 2844 1947 2747 
L 2328 2669 
Q 3034 2534 3370 2195 
Q 3706 1856 3706 1288 
Q 3706 609 3251 259 
Q 2797 -91 1919 -91 
Q 1588 -91 1214 -16 
Q 841 59 441 206 
L 441 856 
Q 825 641 1194 531 
Q 1563 422 1919 422 
Q 2459 422 2753 634 
Q 3047 847 3047 1241 
Q 3047 1584 2836 1778 
Q 2625 1972 2144 2069 
L 1759 2144 
Q 1053 2284 737 2584 
Q 422 2884 422 3419 
Q 422 4038 858 4394 
Q 1294 4750 2059 4750 
Q 2388 4750 2728 4690 
Q 3069 4631 3425 4513 
z
" transform="scale(0.015625)"/>
        <path id="DejaVuSans-74" d="M 1172 4494 
L 1172 3500 
L 2356 3500 
L 2356 3053 
L 1172 3053 
L 1172 1153 
Q 1172 725 1289 603 
Q 1406 481 1766 481 
L 2356 481 
L 2356 0 
L 1766 0 
Q 1100 0 847 248 
Q 594 497 594 1153 
L 594 3053 
L 172 3053 
L 172 3500 
L 594 3500 
L 594 4494 
L 1172 4494 
z
" transform="scale(0.015625)"/>
       </defs>
       <use xlink:href="#DejaVuSans-53"/>
       <use xlink:href="#DejaVuSans-61" x="63.476562"/>
       <use xlink:href="#DejaVuSans-74" x="124.755859"/>
       <use xlink:href="#DejaVuSans-75" x="163.964844"/>
       <use xlink:href="#DejaVuSans-72" x="227.34375"/>
       <use xlink:href="#DejaVuSans-64" x="266.707031"/>
       <use xlink:href="#DejaVuSans-61" x="330.183594"/>
       <use xlink:href="#DejaVuSans-79" x="391.462891"/>
       <use xlink:href="#DejaVuSans-20" x="450.642578"/>
       <use xlink:href="#DejaVuSans-30" x="482.429688"/>
       <use xlink:href="#DejaVuSans-30" x="546.052734"/>
       <use xlink:href="#DejaVuSans-3a" x="609.675781"/>
       <use xlink:href="#DejaVuSans-30" x="643.367188"/>
       <use xlink:href="#DejaVuSans-30" x="706.990234"/>
      </g>
     </g>
    </g>
    <g id="xtick_22">
     <g id="line2d_43">
      <path d="M 610.338539 354.958125 
L 610.338539 22.318125 
" clip-path="url(#pfc492b7d28)" style="fill: none; stroke: #b0b0b0; stroke-width: 0.8; stroke-linecap: square"/>
     </g>
     <g id="line2d_44">
      <g>
       <use xlink:href="#m63af5dc5e8" x="610.338539" y="354.958125" style="stroke: #000000; stroke-width: 0.8"/>
      </g>
     </g>
     <g id="text_22">
      <!-- 06:00 -->
      <g transform="translate(588.490044 387.708965) rotate(-45) scale(0.1 -0.1)">
       <use xlink:href="#DejaVuSans-30"/>
       <use xlink:href="#DejaVuSans-36" x="63.623047"/>
       <use xlink:href="#DejaVuSans-3a" x="127.246094"/>
       <use xlink:href="#DejaVuSans-30" x="160.9375"/>
       <use xlink:href="#DejaVuSans-30" x="224.560547"/>
      </g>
     </g>
    </g>
    <g id="xtick_23">
     <g id="line2d_45">
      <path d="M 635.777888 354.958125 
L 635.777888 22.318125 
" clip-path="url(#pfc492b7d28)" style="fill: none; stroke: #b0b0b0; stroke-width: 0.8; stroke-linecap: square"/>
     </g>
     <g id="line2d_46">
      <g>
       <use xlink:href="#m63af5dc5e8" x="635.777888" y="354.958125" style="stroke: #000000; stroke-width: 0.8"/>
      </g>
     </g>
     <g id="text_23">
      <!-- 12:00 -->
      <g transform="translate(613.929393 387.708965) rotate(-45) scale(0.1 -0.1)">
       <use xlink:href="#DejaVuSans-31"/>
       <use xlink:href="#DejaVuSans-32" x="63.623047"/>
       <use xlink:href="#DejaVuSans-3a" x="127.246094"/>
       <use xlink:href="#DejaVuSans-30" x="160.9375"/>
       <use xlink:href="#DejaVuSans-30" x="224.560547"/>
      </g>
     </g>
    </g>
    <g id="xtick_24">
     <g id="line2d_47">
      <path d="M 661.217236 354.958125 
L 661.217236 22.318125 
" clip-path="url(#pfc492b7d28)" style="fill: none; stroke: #b0b0b0; stroke-width: 0.8; stroke-linecap: square"/>
     </g>
     <g id="line2d_48">
      <g>
       <use xlink:href="#m63af5dc5e8" x="661.217236" y="354.958125" style="stroke: #000000; stroke-width: 0.8"/>
      </g>
     </g>
     <g id="text_24">
      <!-- 18:00 -->
      <g transform="translate(639.368742 387.708965) rotate(-45) scale(0.1 -0.1)">
       <use xlink:href="#DejaVuSans-31"/>
       <use xlink:href="#DejaVuSans-38" x="63.623047"/>
       <use xlink:href="#DejaVuSans-3a" x="127.246094"/>
       <use xlink:href="#DejaVuSans-30" x="160.9375"/>
       <use xlink:href="#DejaVuSans-30" x="224.560547"/>
      </g>
     </g>
    </g>
    <g id="xtick_25">
     <g id="line2d_49">
      <path d="M 686.656585 354.958125 
L 686.656585 22.318125 
" clip-path="url(#pfc492b7d28)" style="fill: none; stroke: #b0b0b0; stroke-width: 0.8; stroke-linecap: square"/>
     </g>
     <g id="line2d_50">
      <g>
       <use xlink:href="#m63af5dc5e8" x="686.656585" y="354.958125" style="stroke: #000000; stroke-width: 0.8"/>
      </g>
     </g>
     <g id="text_25">
      <!-- Sunday 00:00 -->
      <g transform="translate(636.101765 416.415291) rotate(-45) scale(0.1 -0.1)">
       <use xlink:href="#DejaVuSans-53"/>
       <use xlink:href="#DejaVuSans-75" x="63.476562"/>
       <use xlink:href="#DejaVuSans-6e" x="126.855469"/>
       <use xlink:href="#DejaVuSans-64" x="190.234375"/>
       <use xlink:href="#DejaVuSans-61" x="253.710938"/>
       <use xlink:href="#DejaVuSans-79" x="314.990234"/>
       <use xlink:href="#DejaVuSans-20" x="374.169922"/>
       <use xlink:href="#DejaVuSans-30" x="405.957031"/>
       <use xlink:href="#DejaVuSans-30" x="469.580078"/>
       <use xlink:href="#DejaVuSans-3a" x="533.203125"/>
       <use xlink:href="#DejaVuSans-30" x="566.894531"/>
       <use xlink:href="#DejaVuSans-30" x="630.517578"/>
      </g>
     </g>
    </g>
    <g id="xtick_26">
     <g id="line2d_51">
      <path d="M 712.095934 354.958125 
L 712.095934 22.318125 
" clip-path="url(#pfc492b7d28)" style="fill: none; stroke: #b0b0b0; stroke-width: 0.8; stroke-linecap: square"/>
     </g>
     <g id="line2d_52">
      <g>
       <use xlink:href="#m63af5dc5e8" x="712.095934" y="354.958125" style="stroke: #000000; stroke-width: 0.8"/>
      </g>
     </g>
     <g id="text_26">
      <!-- 06:00 -->
      <g transform="translate(690.247439 387.708965) rotate(-45) scale(0.1 -0.1)">
       <use xlink:href="#DejaVuSans-30"/>
       <use xlink:href="#DejaVuSans-36" x="63.623047"/>
       <use xlink:href="#DejaVuSans-3a" x="127.246094"/>
       <use xlink:href="#DejaVuSans-30" x="160.9375"/>
       <use xlink:href="#DejaVuSans-30" x="224.560547"/>
      </g>
     </g>
    </g>
    <g id="xtick_27">
     <g id="line2d_53">
      <path d="M 737.535282 354.958125 
L 737.535282 22.318125 
" clip-path="url(#pfc492b7d28)" style="fill: none; stroke: #b0b0b0; stroke-width: 0.8; stroke-linecap: square"/>
     </g>
     <g id="line2d_54">
      <g>
       <use xlink:href="#m63af5dc5e8" x="737.535282" y="354.958125" style="stroke: #000000; stroke-width: 0.8"/>
      </g>
     </g>
     <g id="text_27">
      <!-- 12:00 -->
      <g transform="translate(715.686788 387.708965) rotate(-45) scale(0.1 -0.1)">
       <use xlink:href="#DejaVuSans-31"/>
       <use xlink:href="#DejaVuSans-32" x="63.623047"/>
       <use xlink:href="#DejaVuSans-3a" x="127.246094"/>
       <use xlink:href="#DejaVuSans-30" x="160.9375"/>
       <use xlink:href="#DejaVuSans-30" x="224.560547"/>
      </g>
     </g>
    </g>
    <g id="xtick_28">
     <g id="line2d_55">
      <path d="M 762.974631 354.958125 
L 762.974631 22.318125 
" clip-path="url(#pfc492b7d28)" style="fill: none; stroke: #b0b0b0; stroke-width: 0.8; stroke-linecap: square"/>
     </g>
     <g id="line2d_56">
      <g>
       <use xlink:href="#m63af5dc5e8" x="762.974631" y="354.958125" style="stroke: #000000; stroke-width: 0.8"/>
      </g>
     </g>
     <g id="text_28">
      <!-- 18:00 -->
      <g transform="translate(741.126136 387.708965) rotate(-45) scale(0.1 -0.1)">
       <use xlink:href="#DejaVuSans-31"/>
       <use xlink:href="#DejaVuSans-38" x="63.623047"/>
       <use xlink:href="#DejaVuSans-3a" x="127.246094"/>
       <use xlink:href="#DejaVuSans-30" x="160.9375"/>
       <use xlink:href="#DejaVuSans-30" x="224.560547"/>
      </g>
     </g>
    </g>
    <g id="text_29">
     <!-- Time -->
     <g transform="translate(418.969531 443.964511) scale(0.1 -0.1)">
      <defs>
       <path id="DejaVuSans-6d" d="M 3328 2828 
Q 3544 3216 3844 3400 
Q 4144 3584 4550 3584 
Q 5097 3584 5394 3201 
Q 5691 2819 5691 2113 
L 5691 0 
L 5113 0 
L 5113 2094 
Q 5113 2597 4934 2840 
Q 4756 3084 4391 3084 
Q 3944 3084 3684 2787 
Q 3425 2491 3425 1978 
L 3425 0 
L 2847 0 
L 2847 2094 
Q 2847 2600 2669 2842 
Q 2491 3084 2119 3084 
Q 1678 3084 1418 2786 
Q 1159 2488 1159 1978 
L 1159 0 
L 581 0 
L 581 3500 
L 1159 3500 
L 1159 2956 
Q 1356 3278 1631 3431 
Q 1906 3584 2284 3584 
Q 2666 3584 2933 3390 
Q 3200 3197 3328 2828 
z
" transform="scale(0.015625)"/>
      </defs>
      <use xlink:href="#DejaVuSans-54"/>
      <use xlink:href="#DejaVuSans-69" x="57.958984"/>
      <use xlink:href="#DejaVuSans-6d" x="85.742188"/>
      <use xlink:href="#DejaVuSans-65" x="183.154297"/>
     </g>
    </g>
   </g>
   <g id="matplotlib.axis_2">
    <g id="ytick_1">
     <g id="line2d_57">
      <path d="M 40.603125 324.887886 
L 821.803125 324.887886 
" clip-path="url(#pfc492b7d28)" style="fill: none; stroke: #b0b0b0; stroke-width: 0.8; stroke-linecap: square"/>
     </g>
     <g id="line2d_58">
      <defs>
       <path id="m12c86c4269" d="M 0 0 
L -3.5 0 
" style="stroke: #000000; stroke-width: 0.8"/>
      </defs>
      <g>
       <use xlink:href="#m12c86c4269" x="40.603125" y="324.887886" style="stroke: #000000; stroke-width: 0.8"/>
      </g>
     </g>
     <g id="text_30">
      <!-- 0 -->
      <g transform="translate(27.240625 328.687104) scale(0.1 -0.1)">
       <use xlink:href="#DejaVuSans-30"/>
      </g>
     </g>
    </g>
    <g id="ytick_2">
     <g id="line2d_59">
      <path d="M 40.603125 256.148836 
L 821.803125 256.148836 
" clip-path="url(#pfc492b7d28)" style="fill: none; stroke: #b0b0b0; stroke-width: 0.8; stroke-linecap: square"/>
     </g>
     <g id="line2d_60">
      <g>
       <use xlink:href="#m12c86c4269" x="40.603125" y="256.148836" style="stroke: #000000; stroke-width: 0.8"/>
      </g>
     </g>
     <g id="text_31">
      <!-- 5 -->
      <g transform="translate(27.240625 259.948054) scale(0.1 -0.1)">
       <defs>
        <path id="DejaVuSans-35" d="M 691 4666 
L 3169 4666 
L 3169 4134 
L 1269 4134 
L 1269 2991 
Q 1406 3038 1543 3061 
Q 1681 3084 1819 3084 
Q 2600 3084 3056 2656 
Q 3513 2228 3513 1497 
Q 3513 744 3044 326 
Q 2575 -91 1722 -91 
Q 1428 -91 1123 -41 
Q 819 9 494 109 
L 494 744 
Q 775 591 1075 516 
Q 1375 441 1709 441 
Q 2250 441 2565 725 
Q 2881 1009 2881 1497 
Q 2881 1984 2565 2268 
Q 2250 2553 1709 2553 
Q 1456 2553 1204 2497 
Q 953 2441 691 2322 
L 691 4666 
z
" transform="scale(0.015625)"/>
       </defs>
       <use xlink:href="#DejaVuSans-35"/>
      </g>
     </g>
    </g>
    <g id="ytick_3">
     <g id="line2d_61">
      <path d="M 40.603125 187.409785 
L 821.803125 187.409785 
" clip-path="url(#pfc492b7d28)" style="fill: none; stroke: #b0b0b0; stroke-width: 0.8; stroke-linecap: square"/>
     </g>
     <g id="line2d_62">
      <g>
       <use xlink:href="#m12c86c4269" x="40.603125" y="187.409785" style="stroke: #000000; stroke-width: 0.8"/>
      </g>
     </g>
     <g id="text_32">
      <!-- 10 -->
      <g transform="translate(20.878125 191.209004) scale(0.1 -0.1)">
       <use xlink:href="#DejaVuSans-31"/>
       <use xlink:href="#DejaVuSans-30" x="63.623047"/>
      </g>
     </g>
    </g>
    <g id="ytick_4">
     <g id="line2d_63">
      <path d="M 40.603125 118.670735 
L 821.803125 118.670735 
" clip-path="url(#pfc492b7d28)" style="fill: none; stroke: #b0b0b0; stroke-width: 0.8; stroke-linecap: square"/>
     </g>
     <g id="line2d_64">
      <g>
       <use xlink:href="#m12c86c4269" x="40.603125" y="118.670735" style="stroke: #000000; stroke-width: 0.8"/>
      </g>
     </g>
     <g id="text_33">
      <!-- 15 -->
      <g transform="translate(20.878125 122.469954) scale(0.1 -0.1)">
       <use xlink:href="#DejaVuSans-31"/>
       <use xlink:href="#DejaVuSans-35" x="63.623047"/>
      </g>
     </g>
    </g>
    <g id="ytick_5">
     <g id="line2d_65">
      <path d="M 40.603125 49.931685 
L 821.803125 49.931685 
" clip-path="url(#pfc492b7d28)" style="fill: none; stroke: #b0b0b0; stroke-width: 0.8; stroke-linecap: square"/>
     </g>
     <g id="line2d_66">
      <g>
       <use xlink:href="#m12c86c4269" x="40.603125" y="49.931685" style="stroke: #000000; stroke-width: 0.8"/>
      </g>
     </g>
     <g id="text_34">
      <!-- 20 -->
      <g transform="translate(20.878125 53.730904) scale(0.1 -0.1)">
       <use xlink:href="#DejaVuSans-32"/>
       <use xlink:href="#DejaVuSans-30" x="63.623047"/>
      </g>
     </g>
    </g>
    <g id="text_35">
     <!-- Power Usage (Wh/m^2, P1) -->
     <g transform="translate(14.798438 257.823281) rotate(-90) scale(0.1 -0.1)">
      <defs>
       <path id="DejaVuSans-50" d="M 1259 4147 
L 1259 2394 
L 2053 2394 
Q 2494 2394 2734 2622 
Q 2975 2850 2975 3272 
Q 2975 3691 2734 3919 
Q 2494 4147 2053 4147 
L 1259 4147 
z
M 628 4666 
L 2053 4666 
Q 2838 4666 3239 4311 
Q 3641 3956 3641 3272 
Q 3641 2581 3239 2228 
Q 2838 1875 2053 1875 
L 1259 1875 
L 1259 0 
L 628 0 
L 628 4666 
z
" transform="scale(0.015625)"/>
       <path id="DejaVuSans-77" d="M 269 3500 
L 844 3500 
L 1563 769 
L 2278 3500 
L 2956 3500 
L 3675 769 
L 4391 3500 
L 4966 3500 
L 4050 0 
L 3372 0 
L 2619 2869 
L 1863 0 
L 1184 0 
L 269 3500 
z
" transform="scale(0.015625)"/>
       <path id="DejaVuSans-55" d="M 556 4666 
L 1191 4666 
L 1191 1831 
Q 1191 1081 1462 751 
Q 1734 422 2344 422 
Q 2950 422 3222 751 
Q 3494 1081 3494 1831 
L 3494 4666 
L 4128 4666 
L 4128 1753 
Q 4128 841 3676 375 
Q 3225 -91 2344 -91 
Q 1459 -91 1007 375 
Q 556 841 556 1753 
L 556 4666 
z
" transform="scale(0.015625)"/>
       <path id="DejaVuSans-67" d="M 2906 1791 
Q 2906 2416 2648 2759 
Q 2391 3103 1925 3103 
Q 1463 3103 1205 2759 
Q 947 2416 947 1791 
Q 947 1169 1205 825 
Q 1463 481 1925 481 
Q 2391 481 2648 825 
Q 2906 1169 2906 1791 
z
M 3481 434 
Q 3481 -459 3084 -895 
Q 2688 -1331 1869 -1331 
Q 1566 -1331 1297 -1286 
Q 1028 -1241 775 -1147 
L 775 -588 
Q 1028 -725 1275 -790 
Q 1522 -856 1778 -856 
Q 2344 -856 2625 -561 
Q 2906 -266 2906 331 
L 2906 616 
Q 2728 306 2450 153 
Q 2172 0 1784 0 
Q 1141 0 747 490 
Q 353 981 353 1791 
Q 353 2603 747 3093 
Q 1141 3584 1784 3584 
Q 2172 3584 2450 3431 
Q 2728 3278 2906 2969 
L 2906 3500 
L 3481 3500 
L 3481 434 
z
" transform="scale(0.015625)"/>
       <path id="DejaVuSans-28" d="M 1984 4856 
Q 1566 4138 1362 3434 
Q 1159 2731 1159 2009 
Q 1159 1288 1364 580 
Q 1569 -128 1984 -844 
L 1484 -844 
Q 1016 -109 783 600 
Q 550 1309 550 2009 
Q 550 2706 781 3412 
Q 1013 4119 1484 4856 
L 1984 4856 
z
" transform="scale(0.015625)"/>
       <path id="DejaVuSans-2f" d="M 1625 4666 
L 2156 4666 
L 531 -594 
L 0 -594 
L 1625 4666 
z
" transform="scale(0.015625)"/>
       <path id="DejaVuSans-5e" d="M 2988 4666 
L 4684 2925 
L 4056 2925 
L 2681 4159 
L 1306 2925 
L 678 2925 
L 2375 4666 
L 2988 4666 
z
" transform="scale(0.015625)"/>
       <path id="DejaVuSans-2c" d="M 750 794 
L 1409 794 
L 1409 256 
L 897 -744 
L 494 -744 
L 750 256 
L 750 794 
z
" transform="scale(0.015625)"/>
       <path id="DejaVuSans-29" d="M 513 4856 
L 1013 4856 
Q 1481 4119 1714 3412 
Q 1947 2706 1947 2009 
Q 1947 1309 1714 600 
Q 1481 -109 1013 -844 
L 513 -844 
Q 928 -128 1133 580 
Q 1338 1288 1338 2009 
Q 1338 2731 1133 3434 
Q 928 4138 513 4856 
z
" transform="scale(0.015625)"/>
      </defs>
      <use xlink:href="#DejaVuSans-50"/>
      <use xlink:href="#DejaVuSans-6f" x="56.677734"/>
      <use xlink:href="#DejaVuSans-77" x="117.859375"/>
      <use xlink:href="#DejaVuSans-65" x="199.646484"/>
      <use xlink:href="#DejaVuSans-72" x="261.169922"/>
      <use xlink:href="#DejaVuSans-20" x="302.283203"/>
      <use xlink:href="#DejaVuSans-55" x="334.070312"/>
      <use xlink:href="#DejaVuSans-73" x="407.263672"/>
      <use xlink:href="#DejaVuSans-61" x="459.363281"/>
      <use xlink:href="#DejaVuSans-67" x="520.642578"/>
      <use xlink:href="#DejaVuSans-65" x="584.119141"/>
      <use xlink:href="#DejaVuSans-20" x="645.642578"/>
      <use xlink:href="#DejaVuSans-28" x="677.429688"/>
      <use xlink:href="#DejaVuSans-57" x="716.443359"/>
      <use xlink:href="#DejaVuSans-68" x="815.320312"/>
      <use xlink:href="#DejaVuSans-2f" x="878.699219"/>
      <use xlink:href="#DejaVuSans-6d" x="912.390625"/>
      <use xlink:href="#DejaVuSans-5e" x="1009.802734"/>
      <use xlink:href="#DejaVuSans-32" x="1093.591797"/>
      <use xlink:href="#DejaVuSans-2c" x="1157.214844"/>
      <use xlink:href="#DejaVuSans-20" x="1189.001953"/>
      <use xlink:href="#DejaVuSans-50" x="1220.789062"/>
      <use xlink:href="#DejaVuSans-31" x="1281.091797"/>
      <use xlink:href="#DejaVuSans-29" x="1344.714844"/>
     </g>
    </g>
   </g>
   <g id="line2d_67">
    <path d="M 76.112216 258.209141 
L 78.232162 258.879435 
L 80.352107 258.364898 
L 82.472053 259.126512 
L 84.591999 258.218325 
L 86.711945 258.956106 
L 88.83189 258.286109 
L 90.951836 259.064912 
L 93.071782 258.942416 
L 95.191727 260.386827 
L 97.311673 260.281856 
L 99.431619 260.904202 
L 101.551565 259.803271 
L 103.67151 260.292343 
L 105.791456 258.749449 
L 107.911402 256.588935 
L 110.031348 243.231921 
L 112.151293 220.70349 
L 114.271239 160.866015 
L 116.391185 132.209096 
L 118.51113 128.514455 
L 120.631076 129.02845 
L 122.751022 127.520216 
L 124.870968 129.206111 
L 126.990913 128.206959 
L 129.110859 130.006445 
L 131.230805 128.475194 
L 133.350751 131.901427 
L 135.470696 131.118231 
L 137.590642 132.210803 
L 139.710588 131.355122 
L 141.830533 137.171707 
L 143.950479 135.690555 
L 146.070425 138.813418 
L 148.190371 142.936265 
L 150.310316 147.789297 
L 152.430262 152.028879 
L 154.550208 197.559164 
L 156.670153 206.621997 
L 158.790099 227.072968 
L 160.910045 241.500872 
L 163.029991 244.04521 
L 165.149936 244.774882 
L 167.269882 251.582796 
L 169.389828 253.315822 
L 171.509774 255.999447 
L 173.629719 256.020627 
L 175.749665 257.999641 
L 177.869611 257.306055 
L 179.989556 259.207691 
L 182.109502 255.668266 
L 184.229448 256.788849 
L 186.349394 256.465161 
L 188.469339 258.438577 
L 190.589285 258.520417 
L 192.709231 259.255877 
L 194.829177 258.284381 
L 196.949122 259.285007 
L 199.069068 258.674051 
L 201.189014 259.956879 
L 203.308959 258.854502 
L 205.428905 258.738756 
L 209.668797 255.06 
L 211.788742 241.637207 
L 213.908688 216.706386 
L 216.028634 162.32305 
L 218.14858 134.600669 
L 220.268525 130.427772 
L 222.388471 130.359786 
L 224.508417 129.720568 
L 226.628362 130.923771 
L 228.748308 129.703822 
L 230.868254 129.347357 
L 232.9882 127.730265 
L 235.108145 132.100802 
L 237.228091 130.0476 
L 239.348037 130.600075 
L 241.467983 129.490333 
L 243.587928 132.952633 
L 245.707874 131.818993 
L 247.82782 139.384296 
L 249.947765 142.004854 
L 252.067711 142.52319 
L 254.187657 147.769553 
L 256.307603 194.040932 
L 258.427548 203.850186 
L 260.547494 225.079658 
L 262.66744 240.45195 
L 264.787386 244.324832 
L 266.907331 244.493352 
L 269.027277 252.327761 
L 271.147223 253.942449 
L 273.267168 256.683547 
L 275.387114 256.974812 
L 277.50706 258.395392 
L 279.627006 257.460088 
L 281.746951 259.06253 
L 283.866897 258.681499 
L 285.986843 259.500896 
L 288.106789 258.675931 
L 290.226734 260.374127 
L 292.34668 257.187113 
L 294.466626 257.882009 
L 296.586571 256.96013 
L 298.706517 259.808802 
L 300.826463 259.608792 
L 302.946409 260.278537 
L 305.066354 259.329707 
L 307.1863 259.267455 
L 309.306246 257.536166 
L 311.426191 256.102301 
L 313.546137 240.206423 
L 315.666083 217.24113 
L 317.786029 161.946544 
L 319.905974 135.836422 
L 322.02592 131.567312 
L 324.145866 131.524529 
L 326.265812 129.401154 
L 328.385757 131.343031 
L 330.505703 128.742355 
L 332.625649 129.665732 
L 334.745594 128.392471 
L 336.86554 130.412633 
L 338.985486 129.392324 
L 341.105432 129.910244 
L 343.225377 129.102738 
L 345.345323 132.738084 
L 347.465269 131.48119 
L 349.585215 134.90588 
L 351.70516 139.962546 
L 353.825106 143.12637 
L 355.945052 147.083636 
L 358.064997 199.255934 
L 360.184943 208.413774 
L 362.304889 224.94749 
L 364.424835 237.064865 
L 366.54478 243.548404 
L 368.664726 243.891964 
L 370.784672 249.960249 
L 372.904618 252.619997 
L 375.024563 255.848685 
L 377.144509 255.334269 
L 379.264455 257.273469 
L 381.3844 256.259048 
L 383.504346 257.273497 
L 385.624292 257.156692 
L 387.744238 258.134018 
L 389.864183 257.334261 
L 391.984129 257.717014 
L 394.104075 257.81641 
L 396.224021 258.380765 
L 398.343966 257.301977 
L 400.463912 257.992367 
L 402.583858 257.362429 
L 404.703803 258.840535 
L 406.823749 257.214142 
L 408.943695 258.176827 
L 411.063641 254.879211 
L 413.183586 250.520387 
L 415.303532 239.273444 
L 417.423478 214.784774 
L 419.543424 161.970531 
L 421.663369 135.394406 
L 423.783315 131.383606 
L 425.903261 130.876994 
L 428.023206 129.045064 
L 430.143152 132.175079 
L 432.263098 129.787733 
L 434.383044 130.404028 
L 436.502989 128.759469 
L 438.622935 130.795504 
L 440.742881 130.012087 
L 442.862826 130.774488 
L 444.982772 129.311908 
L 447.102718 135.244952 
L 449.222664 133.134741 
L 451.342609 136.337534 
L 453.462555 140.083593 
L 455.582501 144.927456 
L 457.702447 148.70464 
L 459.822392 192.992359 
L 461.942338 203.144999 
L 464.062284 225.053865 
L 466.182229 240.457659 
L 468.302175 244.637758 
L 470.422121 245.154241 
L 472.542067 251.928057 
L 476.781958 257.338464 
L 478.901904 257.042204 
L 481.02185 259.256701 
L 483.141795 257.200515 
L 485.261741 259.12021 
L 487.381687 258.683479 
L 489.501632 260.030766 
L 491.621578 258.864052 
L 493.741524 259.919823 
L 495.86147 259.480709 
L 497.981415 259.906658 
L 500.101361 258.825661 
L 502.221307 259.609046 
L 504.341253 258.171539 
L 506.461198 259.509194 
L 508.581144 258.553545 
L 510.70109 259.366283 
L 514.940981 254.329378 
L 517.060927 234.981727 
L 519.180873 202.469002 
L 521.300818 154.730703 
L 523.420764 134.366972 
L 525.54071 129.956609 
L 527.660656 130.653118 
L 529.780601 128.580003 
L 531.900547 132.095096 
L 534.020493 129.896076 
L 536.140438 133.711556 
L 538.260384 130.118256 
L 540.38033 130.08597 
L 542.500276 128.038195 
L 544.620221 130.774762 
L 546.740167 128.375096 
L 548.860113 133.127024 
L 550.980059 131.584981 
L 553.100004 132.673925 
L 555.21995 131.366609 
L 557.339896 136.594782 
L 559.459841 140.488449 
L 561.579787 179.771137 
L 563.699733 197.442604 
L 565.819679 214.124287 
L 567.939624 218.551501 
L 570.05957 226.65402 
L 572.179516 229.396637 
L 574.299461 243.325873 
L 576.419407 251.437033 
L 578.539353 254.441223 
L 580.659299 255.889268 
L 582.779244 258.16635 
L 584.89919 257.072882 
L 587.019136 258.171426 
L 589.139082 257.840773 
L 591.259027 259.205425 
L 593.378973 257.346469 
L 595.498919 258.983599 
L 597.618864 257.039469 
L 599.73881 257.64909 
L 601.858756 257.288624 
L 603.978702 259.152371 
L 606.098647 258.393545 
L 608.218593 259.312205 
L 610.338539 258.312378 
L 612.458485 258.350053 
L 614.57843 257.345697 
L 616.698376 251.607125 
L 618.818322 233.982435 
L 620.938267 201.011241 
L 623.058213 155.437884 
L 625.178159 135.655406 
L 627.298105 131.288632 
L 629.41805 130.952678 
L 631.537996 129.10117 
L 633.657942 130.51995 
L 635.777888 128.248925 
L 637.897833 128.932007 
L 640.017779 128.197998 
L 642.137725 131.941256 
L 644.25767 130.267442 
L 646.377616 133.153549 
L 648.497562 131.164822 
L 650.617508 132.039175 
L 652.737453 138.038487 
L 654.857399 140.573091 
L 656.977345 144.568317 
L 659.097291 162.940848 
L 661.217236 167.427961 
L 663.337182 198.130226 
L 665.457128 203.702513 
L 667.577073 215.830251 
L 669.697019 221.706703 
L 671.816965 229.195921 
L 673.936911 231.60254 
L 676.056856 244.493222 
L 678.176802 251.531974 
L 680.296748 254.178655 
L 682.416694 256.503515 
L 684.536639 258.583677 
L 686.656585 257.628167 
L 688.776531 258.701141 
L 690.896476 258.608598 
L 693.016422 259.221541 
L 695.136368 257.708879 
L 697.256314 259.141291 
L 703.616151 258.991511 
L 705.736097 259.347571 
L 707.856042 259.015523 
L 709.975988 260.144397 
L 712.095934 258.909296 
L 714.215879 259.114204 
L 718.455771 257.523456 
L 720.575717 244.529631 
L 722.695662 219.518595 
L 724.815608 160.863609 
L 726.935554 134.749318 
L 729.055499 129.651831 
L 731.175445 129.472647 
L 733.295391 127.735612 
L 735.415337 128.668294 
L 737.535282 127.924015 
L 739.655228 129.038854 
L 741.775174 128.059576 
L 743.89512 131.8123 
L 746.015065 137.408301 
L 748.135011 138.857112 
L 750.254957 146.002652 
L 752.374902 182.089978 
L 754.494848 195.112262 
L 756.614794 202.424189 
L 758.73474 203.363646 
L 760.854685 209.151218 
L 762.974631 209.244599 
L 765.094577 222.458311 
L 767.214523 237.946263 
L 769.334468 244.787902 
L 771.454414 245.170834 
L 773.57436 248.201853 
L 775.694305 247.990868 
L 777.814251 255.226778 
L 779.934197 254.283203 
L 782.054143 257.322302 
L 784.174088 257.673778 
L 786.294034 258.98503 
L 786.294034 258.98503 
" clip-path="url(#pfc492b7d28)" style="fill: none; stroke: #ff0000; stroke-opacity: 0.4; stroke-width: 1.5; stroke-linecap: square"/>
   </g>
   <g id="line2d_68">
    <path d="M 76.112216 324.887886 
L 786.294034 324.887886 
L 786.294034 324.887886 
" clip-path="url(#pfc492b7d28)" style="fill: none; stroke: #0000ff; stroke-width: 1.5; stroke-linecap: square"/>
   </g>
   <g id="patch_11">
    <path d="M 40.603125 354.958125 
L 40.603125 22.318125 
" style="fill: none; stroke: #000000; stroke-width: 0.8; stroke-linejoin: miter; stroke-linecap: square"/>
   </g>
   <g id="patch_12">
    <path d="M 821.803125 354.958125 
L 821.803125 22.318125 
" style="fill: none; stroke: #000000; stroke-width: 0.8; stroke-linejoin: miter; stroke-linecap: square"/>
   </g>
   <g id="patch_13">
    <path d="M 40.603125 354.958125 
L 821.803125 354.958125 
" style="fill: none; stroke: #000000; stroke-width: 0.8; stroke-linejoin: miter; stroke-linecap: square"/>
   </g>
   <g id="patch_14">
    <path d="M 40.603125 22.318125 
L 821.803125 22.318125 
" style="fill: none; stroke: #000000; stroke-width: 0.8; stroke-linejoin: miter; stroke-linecap: square"/>
   </g>
   <g id="text_36">
    <!-- benchmarkdata for "Accessories" Market sector using 25 sampled meters, constructed with 621,949 samples -->
    <g transform="translate(102.080625 16.318125) scale(0.12 -0.12)">
     <defs>
      <path id="DejaVuSans-62" d="M 3116 1747 
Q 3116 2381 2855 2742 
Q 2594 3103 2138 3103 
Q 1681 3103 1420 2742 
Q 1159 2381 1159 1747 
Q 1159 1113 1420 752 
Q 1681 391 2138 391 
Q 2594 391 2855 752 
Q 3116 1113 3116 1747 
z
M 1159 2969 
Q 1341 3281 1617 3432 
Q 1894 3584 2278 3584 
Q 2916 3584 3314 3078 
Q 3713 2572 3713 1747 
Q 3713 922 3314 415 
Q 2916 -91 2278 -91 
Q 1894 -91 1617 61 
Q 1341 213 1159 525 
L 1159 0 
L 581 0 
L 581 4863 
L 1159 4863 
L 1159 2969 
z
" transform="scale(0.015625)"/>
      <path id="DejaVuSans-63" d="M 3122 3366 
L 3122 2828 
Q 2878 2963 2633 3030 
Q 2388 3097 2138 3097 
Q 1578 3097 1268 2742 
Q 959 2388 959 1747 
Q 959 1106 1268 751 
Q 1578 397 2138 397 
Q 2388 397 2633 464 
Q 2878 531 3122 666 
L 3122 134 
Q 2881 22 2623 -34 
Q 2366 -91 2075 -91 
Q 1284 -91 818 406 
Q 353 903 353 1747 
Q 353 2603 823 3093 
Q 1294 3584 2113 3584 
Q 2378 3584 2631 3529 
Q 2884 3475 3122 3366 
z
" transform="scale(0.015625)"/>
      <path id="DejaVuSans-6b" d="M 581 4863 
L 1159 4863 
L 1159 1991 
L 2875 3500 
L 3609 3500 
L 1753 1863 
L 3688 0 
L 2938 0 
L 1159 1709 
L 1159 0 
L 581 0 
L 581 4863 
z
" transform="scale(0.015625)"/>
      <path id="DejaVuSans-66" d="M 2375 4863 
L 2375 4384 
L 1825 4384 
Q 1516 4384 1395 4259 
Q 1275 4134 1275 3809 
L 1275 3500 
L 2222 3500 
L 2222 3053 
L 1275 3053 
L 1275 0 
L 697 0 
L 697 3053 
L 147 3053 
L 147 3500 
L 697 3500 
L 697 3744 
Q 697 4328 969 4595 
Q 1241 4863 1831 4863 
L 2375 4863 
z
" transform="scale(0.015625)"/>
      <path id="DejaVuSans-22" d="M 1147 4666 
L 1147 2931 
L 616 2931 
L 616 4666 
L 1147 4666 
z
M 2328 4666 
L 2328 2931 
L 1797 2931 
L 1797 4666 
L 2328 4666 
z
" transform="scale(0.015625)"/>
      <path id="DejaVuSans-41" d="M 2188 4044 
L 1331 1722 
L 3047 1722 
L 2188 4044 
z
M 1831 4666 
L 2547 4666 
L 4325 0 
L 3669 0 
L 3244 1197 
L 1141 1197 
L 716 0 
L 50 0 
L 1831 4666 
z
" transform="scale(0.015625)"/>
      <path id="DejaVuSans-70" d="M 1159 525 
L 1159 -1331 
L 581 -1331 
L 581 3500 
L 1159 3500 
L 1159 2969 
Q 1341 3281 1617 3432 
Q 1894 3584 2278 3584 
Q 2916 3584 3314 3078 
Q 3713 2572 3713 1747 
Q 3713 922 3314 415 
Q 2916 -91 2278 -91 
Q 1894 -91 1617 61 
Q 1341 213 1159 525 
z
M 3116 1747 
Q 3116 2381 2855 2742 
Q 2594 3103 2138 3103 
Q 1681 3103 1420 2742 
Q 1159 2381 1159 1747 
Q 1159 1113 1420 752 
Q 1681 391 2138 391 
Q 2594 391 2855 752 
Q 3116 1113 3116 1747 
z
" transform="scale(0.015625)"/>
      <path id="DejaVuSans-6c" d="M 603 4863 
L 1178 4863 
L 1178 0 
L 603 0 
L 603 4863 
z
" transform="scale(0.015625)"/>
      <path id="DejaVuSans-39" d="M 703 97 
L 703 672 
Q 941 559 1184 500 
Q 1428 441 1663 441 
Q 2288 441 2617 861 
Q 2947 1281 2994 2138 
Q 2813 1869 2534 1725 
Q 2256 1581 1919 1581 
Q 1219 1581 811 2004 
Q 403 2428 403 3163 
Q 403 3881 828 4315 
Q 1253 4750 1959 4750 
Q 2769 4750 3195 4129 
Q 3622 3509 3622 2328 
Q 3622 1225 3098 567 
Q 2575 -91 1691 -91 
Q 1453 -91 1209 -44 
Q 966 3 703 97 
z
M 1959 2075 
Q 2384 2075 2632 2365 
Q 2881 2656 2881 3163 
Q 2881 3666 2632 3958 
Q 2384 4250 1959 4250 
Q 1534 4250 1286 3958 
Q 1038 3666 1038 3163 
Q 1038 2656 1286 2365 
Q 1534 2075 1959 2075 
z
" transform="scale(0.015625)"/>
      <path id="DejaVuSans-34" d="M 2419 4116 
L 825 1625 
L 2419 1625 
L 2419 4116 
z
M 2253 4666 
L 3047 4666 
L 3047 1625 
L 3713 1625 
L 3713 1100 
L 3047 1100 
L 3047 0 
L 2419 0 
L 2419 1100 
L 313 1100 
L 313 1709 
L 2253 4666 
z
" transform="scale(0.015625)"/>
     </defs>
     <use xlink:href="#DejaVuSans-62"/>
     <use xlink:href="#DejaVuSans-65" x="63.476562"/>
     <use xlink:href="#DejaVuSans-6e" x="125"/>
     <use xlink:href="#DejaVuSans-63" x="188.378906"/>
     <use xlink:href="#DejaVuSans-68" x="243.359375"/>
     <use xlink:href="#DejaVuSans-6d" x="306.738281"/>
     <use xlink:href="#DejaVuSans-61" x="404.150391"/>
     <use xlink:href="#DejaVuSans-72" x="465.429688"/>
     <use xlink:href="#DejaVuSans-6b" x="506.542969"/>
     <use xlink:href="#DejaVuSans-64" x="564.453125"/>
     <use xlink:href="#DejaVuSans-61" x="627.929688"/>
     <use xlink:href="#DejaVuSans-74" x="689.208984"/>
     <use xlink:href="#DejaVuSans-61" x="728.417969"/>
     <use xlink:href="#DejaVuSans-20" x="789.697266"/>
     <use xlink:href="#DejaVuSans-66" x="821.484375"/>
     <use xlink:href="#DejaVuSans-6f" x="856.689453"/>
     <use xlink:href="#DejaVuSans-72" x="917.871094"/>
     <use xlink:href="#DejaVuSans-20" x="958.984375"/>
     <use xlink:href="#DejaVuSans-22" x="990.771484"/>
     <use xlink:href="#DejaVuSans-41" x="1036.767578"/>
     <use xlink:href="#DejaVuSans-63" x="1103.425781"/>
     <use xlink:href="#DejaVuSans-63" x="1158.40625"/>
     <use xlink:href="#DejaVuSans-65" x="1213.386719"/>
     <use xlink:href="#DejaVuSans-73" x="1274.910156"/>
     <use xlink:href="#DejaVuSans-73" x="1327.009766"/>
     <use xlink:href="#DejaVuSans-6f" x="1379.109375"/>
     <use xlink:href="#DejaVuSans-72" x="1440.291016"/>
     <use xlink:href="#DejaVuSans-69" x="1481.404297"/>
     <use xlink:href="#DejaVuSans-65" x="1509.1875"/>
     <use xlink:href="#DejaVuSans-73" x="1570.710938"/>
     <use xlink:href="#DejaVuSans-22" x="1622.810547"/>
     <use xlink:href="#DejaVuSans-20" x="1668.806641"/>
     <use xlink:href="#DejaVuSans-4d" x="1700.59375"/>
     <use xlink:href="#DejaVuSans-61" x="1786.873047"/>
     <use xlink:href="#DejaVuSans-72" x="1848.152344"/>
     <use xlink:href="#DejaVuSans-6b" x="1889.265625"/>
     <use xlink:href="#DejaVuSans-65" x="1943.550781"/>
     <use xlink:href="#DejaVuSans-74" x="2005.074219"/>
     <use xlink:href="#DejaVuSans-20" x="2044.283203"/>
     <use xlink:href="#DejaVuSans-73" x="2076.070312"/>
     <use xlink:href="#DejaVuSans-65" x="2128.169922"/>
     <use xlink:href="#DejaVuSans-63" x="2189.693359"/>
     <use xlink:href="#DejaVuSans-74" x="2244.673828"/>
     <use xlink:href="#DejaVuSans-6f" x="2283.882812"/>
     <use xlink:href="#DejaVuSans-72" x="2345.064453"/>
     <use xlink:href="#DejaVuSans-20" x="2386.177734"/>
     <use xlink:href="#DejaVuSans-75" x="2417.964844"/>
     <use xlink:href="#DejaVuSans-73" x="2481.34375"/>
     <use xlink:href="#DejaVuSans-69" x="2533.443359"/>
     <use xlink:href="#DejaVuSans-6e" x="2561.226562"/>
     <use xlink:href="#DejaVuSans-67" x="2624.605469"/>
     <use xlink:href="#DejaVuSans-20" x="2688.082031"/>
     <use xlink:href="#DejaVuSans-32" x="2719.869141"/>
     <use xlink:href="#DejaVuSans-35" x="2783.492188"/>
     <use xlink:href="#DejaVuSans-20" x="2847.115234"/>
     <use xlink:href="#DejaVuSans-73" x="2878.902344"/>
     <use xlink:href="#DejaVuSans-61" x="2931.001953"/>
     <use xlink:href="#DejaVuSans-6d" x="2992.28125"/>
     <use xlink:href="#DejaVuSans-70" x="3089.693359"/>
     <use xlink:href="#DejaVuSans-6c" x="3153.169922"/>
     <use xlink:href="#DejaVuSans-65" x="3180.953125"/>
     <use xlink:href="#DejaVuSans-64" x="3242.476562"/>
     <use xlink:href="#DejaVuSans-20" x="3305.953125"/>
     <use xlink:href="#DejaVuSans-6d" x="3337.740234"/>
     <use xlink:href="#DejaVuSans-65" x="3435.152344"/>
     <use xlink:href="#DejaVuSans-74" x="3496.675781"/>
     <use xlink:href="#DejaVuSans-65" x="3535.884766"/>
     <use xlink:href="#DejaVuSans-72" x="3597.408203"/>
     <use xlink:href="#DejaVuSans-73" x="3638.521484"/>
     <use xlink:href="#DejaVuSans-2c" x="3690.621094"/>
     <use xlink:href="#DejaVuSans-20" x="3722.408203"/>
     <use xlink:href="#DejaVuSans-63" x="3754.195312"/>
     <use xlink:href="#DejaVuSans-6f" x="3809.175781"/>
     <use xlink:href="#DejaVuSans-6e" x="3870.357422"/>
     <use xlink:href="#DejaVuSans-73" x="3933.736328"/>
     <use xlink:href="#DejaVuSans-74" x="3985.835938"/>
     <use xlink:href="#DejaVuSans-72" x="4025.044922"/>
     <use xlink:href="#DejaVuSans-75" x="4066.158203"/>
     <use xlink:href="#DejaVuSans-63" x="4129.537109"/>
     <use xlink:href="#DejaVuSans-74" x="4184.517578"/>
     <use xlink:href="#DejaVuSans-65" x="4223.726562"/>
     <use xlink:href="#DejaVuSans-64" x="4285.25"/>
     <use xlink:href="#DejaVuSans-20" x="4348.726562"/>
     <use xlink:href="#DejaVuSans-77" x="4380.513672"/>
     <use xlink:href="#DejaVuSans-69" x="4462.300781"/>
     <use xlink:href="#DejaVuSans-74" x="4490.083984"/>
     <use xlink:href="#DejaVuSans-68" x="4529.292969"/>
     <use xlink:href="#DejaVuSans-20" x="4592.671875"/>
     <use xlink:href="#DejaVuSans-36" x="4624.458984"/>
     <use xlink:href="#DejaVuSans-32" x="4688.082031"/>
     <use xlink:href="#DejaVuSans-31" x="4751.705078"/>
     <use xlink:href="#DejaVuSans-2c" x="4815.328125"/>
     <use xlink:href="#DejaVuSans-39" x="4847.115234"/>
     <use xlink:href="#DejaVuSans-34" x="4910.738281"/>
     <use xlink:href="#DejaVuSans-39" x="4974.361328"/>
     <use xlink:href="#DejaVuSans-20" x="5037.984375"/>
     <use xlink:href="#DejaVuSans-73" x="5069.771484"/>
     <use xlink:href="#DejaVuSans-61" x="5121.871094"/>
     <use xlink:href="#DejaVuSans-6d" x="5183.150391"/>
     <use xlink:href="#DejaVuSans-70" x="5280.5625"/>
     <use xlink:href="#DejaVuSans-6c" x="5344.039062"/>
     <use xlink:href="#DejaVuSans-65" x="5371.822266"/>
     <use xlink:href="#DejaVuSans-73" x="5433.345703"/>
    </g>
   </g>
   <g id="legend_1">
    <g id="patch_15">
     <path d="M 649.840625 85.550313 
L 814.803125 85.550313 
Q 816.803125 85.550313 816.803125 83.550313 
L 816.803125 29.318125 
Q 816.803125 27.318125 814.803125 27.318125 
L 649.840625 27.318125 
Q 647.840625 27.318125 647.840625 29.318125 
L 647.840625 83.550313 
Q 647.840625 85.550313 649.840625 85.550313 
z
" style="fill: #ffffff; opacity: 0.8; stroke: #cccccc; stroke-linejoin: miter"/>
    </g>
    <g id="line2d_69">
     <path d="M 651.840625 35.416562 
L 661.840625 35.416562 
L 671.840625 35.416562 
" style="fill: none; stroke: #ff0000; stroke-opacity: 0.4; stroke-width: 1.5; stroke-linecap: square"/>
    </g>
    <g id="text_37">
     <!-- Mean: 8.738 -->
     <g transform="translate(679.840625 38.916562) scale(0.1 -0.1)">
      <defs>
       <path id="DejaVuSans-2e" d="M 684 794 
L 1344 794 
L 1344 0 
L 684 0 
L 684 794 
z
" transform="scale(0.015625)"/>
       <path id="DejaVuSans-37" d="M 525 4666 
L 3525 4666 
L 3525 4397 
L 1831 0 
L 1172 0 
L 2766 4134 
L 525 4134 
L 525 4666 
z
" transform="scale(0.015625)"/>
       <path id="DejaVuSans-33" d="M 2597 2516 
Q 3050 2419 3304 2112 
Q 3559 1806 3559 1356 
Q 3559 666 3084 287 
Q 2609 -91 1734 -91 
Q 1441 -91 1130 -33 
Q 819 25 488 141 
L 488 750 
Q 750 597 1062 519 
Q 1375 441 1716 441 
Q 2309 441 2620 675 
Q 2931 909 2931 1356 
Q 2931 1769 2642 2001 
Q 2353 2234 1838 2234 
L 1294 2234 
L 1294 2753 
L 1863 2753 
Q 2328 2753 2575 2939 
Q 2822 3125 2822 3475 
Q 2822 3834 2567 4026 
Q 2313 4219 1838 4219 
Q 1578 4219 1281 4162 
Q 984 4106 628 3988 
L 628 4550 
Q 988 4650 1302 4700 
Q 1616 4750 1894 4750 
Q 2613 4750 3031 4423 
Q 3450 4097 3450 3541 
Q 3450 3153 3228 2886 
Q 3006 2619 2597 2516 
z
" transform="scale(0.015625)"/>
      </defs>
      <use xlink:href="#DejaVuSans-4d"/>
      <use xlink:href="#DejaVuSans-65" x="86.279297"/>
      <use xlink:href="#DejaVuSans-61" x="147.802734"/>
      <use xlink:href="#DejaVuSans-6e" x="209.082031"/>
      <use xlink:href="#DejaVuSans-3a" x="272.460938"/>
      <use xlink:href="#DejaVuSans-20" x="306.152344"/>
      <use xlink:href="#DejaVuSans-38" x="337.939453"/>
      <use xlink:href="#DejaVuSans-2e" x="401.5625"/>
      <use xlink:href="#DejaVuSans-37" x="433.349609"/>
      <use xlink:href="#DejaVuSans-33" x="496.972656"/>
      <use xlink:href="#DejaVuSans-38" x="560.595703"/>
     </g>
    </g>
    <g id="patch_16">
     <path d="M 651.840625 53.594688 
L 671.840625 53.594688 
L 671.840625 46.594688 
L 651.840625 46.594688 
z
" style="fill: #ff0000; fill-opacity: 0.2; stroke: #ff0000; stroke-opacity: 0.2; stroke-linejoin: miter"/>
    </g>
    <g id="text_38">
     <!-- Std Dev: 6.366 -->
     <g transform="translate(679.840625 53.594688) scale(0.1 -0.1)">
      <defs>
       <path id="DejaVuSans-44" d="M 1259 4147 
L 1259 519 
L 2022 519 
Q 2988 519 3436 956 
Q 3884 1394 3884 2338 
Q 3884 3275 3436 3711 
Q 2988 4147 2022 4147 
L 1259 4147 
z
M 628 4666 
L 1925 4666 
Q 3281 4666 3915 4102 
Q 4550 3538 4550 2338 
Q 4550 1131 3912 565 
Q 3275 0 1925 0 
L 628 0 
L 628 4666 
z
" transform="scale(0.015625)"/>
       <path id="DejaVuSans-76" d="M 191 3500 
L 800 3500 
L 1894 563 
L 2988 3500 
L 3597 3500 
L 2284 0 
L 1503 0 
L 191 3500 
z
" transform="scale(0.015625)"/>
      </defs>
      <use xlink:href="#DejaVuSans-53"/>
      <use xlink:href="#DejaVuSans-74" x="63.476562"/>
      <use xlink:href="#DejaVuSans-64" x="102.685547"/>
      <use xlink:href="#DejaVuSans-20" x="166.162109"/>
      <use xlink:href="#DejaVuSans-44" x="197.949219"/>
      <use xlink:href="#DejaVuSans-65" x="274.951172"/>
      <use xlink:href="#DejaVuSans-76" x="336.474609"/>
      <use xlink:href="#DejaVuSans-3a" x="390.154297"/>
      <use xlink:href="#DejaVuSans-20" x="423.845703"/>
      <use xlink:href="#DejaVuSans-36" x="455.632812"/>
      <use xlink:href="#DejaVuSans-2e" x="519.255859"/>
      <use xlink:href="#DejaVuSans-33" x="551.042969"/>
      <use xlink:href="#DejaVuSans-36" x="614.666016"/>
      <use xlink:href="#DejaVuSans-36" x="678.289062"/>
     </g>
    </g>
    <g id="line2d_70">
     <path d="M 651.840625 71.411563 
L 661.840625 71.411563 
L 671.840625 71.411563 
" style="fill: none; stroke: #0000ff; stroke-width: 1.5; stroke-linecap: square"/>
    </g>
    <g id="text_39">
     <!-- Performance Comparison:  -->
     <g transform="translate(679.840625 68.272812) scale(0.1 -0.1)">
      <defs>
       <path id="DejaVuSans-43" d="M 4122 4306 
L 4122 3641 
Q 3803 3938 3442 4084 
Q 3081 4231 2675 4231 
Q 1875 4231 1450 3742 
Q 1025 3253 1025 2328 
Q 1025 1406 1450 917 
Q 1875 428 2675 428 
Q 3081 428 3442 575 
Q 3803 722 4122 1019 
L 4122 359 
Q 3791 134 3420 21 
Q 3050 -91 2638 -91 
Q 1578 -91 968 557 
Q 359 1206 359 2328 
Q 359 3453 968 4101 
Q 1578 4750 2638 4750 
Q 3056 4750 3426 4639 
Q 3797 4528 4122 4306 
z
" transform="scale(0.015625)"/>
      </defs>
      <use xlink:href="#DejaVuSans-50"/>
      <use xlink:href="#DejaVuSans-65" x="56.677734"/>
      <use xlink:href="#DejaVuSans-72" x="118.201172"/>
      <use xlink:href="#DejaVuSans-66" x="159.314453"/>
      <use xlink:href="#DejaVuSans-6f" x="194.519531"/>
      <use xlink:href="#DejaVuSans-72" x="255.701172"/>
      <use xlink:href="#DejaVuSans-6d" x="295.064453"/>
      <use xlink:href="#DejaVuSans-61" x="392.476562"/>
      <use xlink:href="#DejaVuSans-6e" x="453.755859"/>
      <use xlink:href="#DejaVuSans-63" x="517.134766"/>
      <use xlink:href="#DejaVuSans-65" x="572.115234"/>
      <use xlink:href="#DejaVuSans-20" x="633.638672"/>
      <use xlink:href="#DejaVuSans-43" x="665.425781"/>
      <use xlink:href="#DejaVuSans-6f" x="735.25"/>
      <use xlink:href="#DejaVuSans-6d" x="796.431641"/>
      <use xlink:href="#DejaVuSans-70" x="893.84375"/>
      <use xlink:href="#DejaVuSans-61" x="957.320312"/>
      <use xlink:href="#DejaVuSans-72" x="1018.599609"/>
      <use xlink:href="#DejaVuSans-69" x="1059.712891"/>
      <use xlink:href="#DejaVuSans-73" x="1087.496094"/>
      <use xlink:href="#DejaVuSans-6f" x="1139.595703"/>
      <use xlink:href="#DejaVuSans-6e" x="1200.777344"/>
      <use xlink:href="#DejaVuSans-3a" x="1264.15625"/>
      <use xlink:href="#DejaVuSans-20" x="1297.847656"/>
     </g>
     <!-- Mean: 0.000 -->
     <g transform="translate(679.840625 79.470625) scale(0.1 -0.1)">
      <use xlink:href="#DejaVuSans-4d"/>
      <use xlink:href="#DejaVuSans-65" x="86.279297"/>
      <use xlink:href="#DejaVuSans-61" x="147.802734"/>
      <use xlink:href="#DejaVuSans-6e" x="209.082031"/>
      <use xlink:href="#DejaVuSans-3a" x="272.460938"/>
      <use xlink:href="#DejaVuSans-20" x="306.152344"/>
      <use xlink:href="#DejaVuSans-30" x="337.939453"/>
      <use xlink:href="#DejaVuSans-2e" x="401.5625"/>
      <use xlink:href="#DejaVuSans-30" x="433.349609"/>
      <use xlink:href="#DejaVuSans-30" x="496.972656"/>
      <use xlink:href="#DejaVuSans-30" x="560.595703"/>
     </g>
    </g>
   </g>
  </g>
 </g>
 <defs>
  <clipPath id="pfc492b7d28">
   <rect x="40.603125" y="22.318125" width="781.2" height="332.64"/>
  </clipPath>
 </defs>
</svg>
