<?xml version="1.0" encoding="utf-8" standalone="no"?>
<!DOCTYPE svg PUBLIC "-//W3C//DTD SVG 1.1//EN"
  "http://www.w3.org/Graphics/SVG/1.1/DTD/svg11.dtd">
<svg xmlns:xlink="http://www.w3.org/1999/xlink" width="822.640625pt" height="453.244198pt" viewBox="0 0 822.640625 453.244198" xmlns="http://www.w3.org/2000/svg" version="1.1">
 <metadata>
  <rdf:RDF xmlns:dc="http://purl.org/dc/elements/1.1/" xmlns:cc="http://creativecommons.org/ns#" xmlns:rdf="http://www.w3.org/1999/02/22-rdf-syntax-ns#">
   <cc:Work>
    <dc:type rdf:resource="http://purl.org/dc/dcmitype/StillImage"/>
    <dc:date>2024-07-22T23:03:37.646641</dc:date>
    <dc:format>image/svg+xml</dc:format>
    <dc:creator>
     <cc:Agent>
      <dc:title>Matplotlib v3.8.4, https://matplotlib.org/</dc:title>
     </cc:Agent>
    </dc:creator>
   </cc:Work>
  </rdf:RDF>
 </metadata>
 <defs>
  <style type="text/css">*{stroke-linejoin: round; stroke-linecap: butt}</style>
 </defs>
 <g id="figure_1">
  <g id="patch_1">
   <path d="M 0 453.244198 
L 822.640625 453.244198 
L 822.640625 0 
L 0 0 
z
" style="fill: #ffffff"/>
  </g>
  <g id="axes_1">
   <g id="patch_2">
    <path d="M 34.240625 354.958125 
L 815.440625 354.958125 
L 815.440625 22.318125 
L 34.240625 22.318125 
z
" style="fill: #ffffff"/>
   </g>
   <g id="PolyCollection_1">
    <defs>
     <path id="m8fa10ead19" d="M 69.749716 -287.886321 
L 69.749716 -120.554495 
L 71.869662 -121.187833 
L 73.989607 -121.424037 
L 76.109553 -120.765456 
L 78.229499 -120.519773 
L 80.349445 -121.352484 
L 82.46939 -120.304119 
L 84.589336 -119.094847 
L 86.709282 -120.415654 
L 88.829227 -120.401204 
L 90.949173 -121.296528 
L 93.069119 -117.866673 
L 95.189065 -120.059655 
L 97.30901 -117.605834 
L 99.428956 -122.355441 
L 101.548902 -123.976253 
L 103.668848 -121.398912 
L 105.788793 -119.053931 
L 107.908739 -128.622935 
L 110.028685 -144.326436 
L 112.14863 -143.703975 
L 114.268576 -145.333698 
L 116.388522 -147.855823 
L 118.508468 -149.801514 
L 120.628413 -151.264433 
L 122.748359 -149.652703 
L 124.868305 -153.061945 
L 126.988251 -152.474341 
L 129.108196 -151.865812 
L 131.228142 -146.563065 
L 133.348088 -150.101198 
L 135.468033 -147.461357 
L 137.587979 -149.012818 
L 139.707925 -145.224682 
L 141.827871 -146.725584 
L 143.947816 -139.924693 
L 146.067762 -129.117076 
L 148.187708 -126.648162 
L 150.307653 -129.369593 
L 152.427599 -126.023165 
L 154.547545 -127.099702 
L 156.667491 -126.104852 
L 158.787436 -129.616102 
L 160.907382 -130.517298 
L 163.027328 -129.408822 
L 165.147274 -127.96447 
L 167.267219 -124.352597 
L 169.387165 -121.965147 
L 171.507111 -122.954349 
L 173.627056 -120.700559 
L 175.747002 -122.802549 
L 177.866948 -122.454408 
L 179.986894 -122.143989 
L 182.106839 -120.325358 
L 184.226785 -118.242134 
L 186.346731 -120.462535 
L 188.466677 -120.40682 
L 190.586622 -120.592027 
L 192.706568 -122.389701 
L 194.826514 -121.175826 
L 196.946459 -120.400325 
L 199.066405 -118.71458 
L 201.186351 -121.791414 
L 203.306297 -125.873713 
L 205.426242 -126.486917 
L 207.546188 -120.96602 
L 209.666134 -128.022467 
L 211.78608 -143.89152 
L 213.906025 -147.194107 
L 216.025971 -149.899037 
L 218.145917 -150.471333 
L 220.265862 -152.046511 
L 222.385808 -152.44343 
L 224.505754 -151.591595 
L 226.6257 -153.234257 
L 228.745645 -153.255926 
L 230.865591 -153.197035 
L 232.985537 -150.979228 
L 235.105483 -151.063574 
L 237.225428 -150.673518 
L 239.345374 -149.40118 
L 241.46532 -148.567216 
L 243.585265 -146.626497 
L 245.705211 -140.680883 
L 247.825157 -132.450506 
L 249.945103 -124.274307 
L 252.065048 -129.89025 
L 254.184994 -130.864074 
L 256.30494 -130.088471 
L 258.424886 -129.400098 
L 260.544831 -130.67106 
L 262.664777 -131.655872 
L 264.784723 -130.44128 
L 266.904668 -126.439551 
L 269.024614 -124.299092 
L 271.14456 -121.609841 
L 273.264506 -122.587339 
L 275.384451 -120.480913 
L 277.504397 -120.590038 
L 279.624343 -120.90881 
L 281.744289 -119.501075 
L 283.864234 -121.154095 
L 285.98418 -120.496434 
L 288.104126 -120.471395 
L 290.224071 -121.659995 
L 292.344017 -121.137243 
L 294.463963 -122.316397 
L 296.583909 -119.011281 
L 298.703854 -120.734291 
L 300.8238 -119.33474 
L 302.943746 -120.732393 
L 305.063691 -125.778818 
L 307.183637 -123.909764 
L 309.303583 -118.833048 
L 311.423529 -128.579172 
L 313.543474 -143.572206 
L 315.66342 -144.752763 
L 317.783366 -146.495792 
L 319.903312 -149.705367 
L 322.023257 -152.318802 
L 324.143203 -150.03903 
L 326.263149 -148.32784 
L 328.383094 -148.845157 
L 330.50304 -149.71234 
L 332.622986 -150.132991 
L 334.742932 -148.936999 
L 336.862877 -150.638004 
L 338.982823 -150.122184 
L 341.102769 -149.688764 
L 343.222715 -148.806733 
L 345.34266 -147.029039 
L 347.462606 -142.589054 
L 349.582552 -131.099843 
L 351.702497 -124.41327 
L 353.822443 -128.975706 
L 355.942389 -128.37359 
L 358.062335 -129.803649 
L 360.18228 -128.231469 
L 362.302226 -130.147116 
L 364.422172 -131.118668 
L 366.542118 -130.665086 
L 368.662063 -127.687868 
L 370.782009 -124.485948 
L 372.901955 -124.298602 
L 375.0219 -123.462375 
L 377.141846 -122.373706 
L 379.261792 -122.486405 
L 381.381738 -121.994838 
L 383.501683 -121.235482 
L 385.621629 -119.543203 
L 387.741575 -122.282169 
L 389.861521 -122.854503 
L 391.981466 -123.86084 
L 394.101412 -123.000521 
L 396.221358 -122.765411 
L 398.341303 -120.777951 
L 400.461249 -122.236733 
L 402.581195 -120.739817 
L 404.701141 -125.416755 
L 406.821086 -123.228948 
L 408.941032 -125.176154 
L 411.060978 -124.06816 
L 413.180924 -129.277236 
L 415.300869 -148.353467 
L 417.420815 -151.043678 
L 419.540761 -149.055572 
L 421.660706 -152.02518 
L 423.780652 -152.1267 
L 425.900598 -152.520293 
L 428.020544 -151.236103 
L 430.140489 -154.355694 
L 432.260435 -153.565376 
L 434.380381 -152.440323 
L 436.500326 -151.303307 
L 438.620272 -152.705261 
L 440.740218 -151.347609 
L 442.860164 -152.973719 
L 444.980109 -146.708932 
L 447.100055 -153.170375 
L 449.220001 -143.232387 
L 451.339947 -131.649179 
L 453.459892 -124.984693 
L 455.579838 -130.205631 
L 457.699784 -126.932418 
L 459.819729 -130.297694 
L 461.939675 -129.555867 
L 464.059621 -130.560335 
L 466.179567 -132.247425 
L 468.299512 -129.271323 
L 470.419458 -127.196437 
L 472.539404 -125.294448 
L 474.65935 -123.486405 
L 476.779295 -122.863499 
L 478.899241 -122.126033 
L 481.019187 -122.099529 
L 483.139132 -122.336922 
L 485.259078 -120.759954 
L 487.379024 -118.449218 
L 489.49897 -121.53547 
L 491.618915 -121.244202 
L 493.738861 -121.812411 
L 495.858807 -120.507598 
L 497.978753 -120.017723 
L 500.098698 -120.551441 
L 502.218644 -120.004349 
L 504.33859 -118.617988 
L 506.458535 -122.872125 
L 508.578481 -120.546583 
L 510.698427 -121.107215 
L 512.818373 -118.216098 
L 514.938318 -127.997318 
L 517.058264 -141.852451 
L 519.17821 -141.974831 
L 521.298156 -139.824833 
L 523.418101 -141.92457 
L 525.538047 -141.1786 
L 527.657993 -144.215643 
L 529.777938 -144.94805 
L 531.897884 -146.727411 
L 534.01783 -149.701279 
L 536.137776 -151.439715 
L 538.257721 -149.630557 
L 540.377667 -148.34404 
L 542.497613 -149.652158 
L 544.617559 -147.667853 
L 546.737504 -145.922616 
L 548.85745 -145.671593 
L 550.977396 -138.976707 
L 553.097341 -130.089356 
L 555.217287 -123.451779 
L 557.337233 -128.361641 
L 559.457179 -128.225841 
L 561.577124 -130.202649 
L 563.69707 -129.368709 
L 565.817016 -130.200172 
L 567.936961 -130.016982 
L 570.056907 -130.835683 
L 572.176853 -128.467864 
L 574.296799 -125.040181 
L 576.416744 -122.142797 
L 578.53669 -121.809354 
L 580.656636 -120.704639 
L 582.776582 -122.102151 
L 584.896527 -122.702995 
L 587.016473 -120.336942 
L 589.136419 -119.95723 
L 591.256364 -119.674517 
L 593.37631 -117.817775 
L 595.496256 -119.686035 
L 597.616202 -120.708022 
L 599.736147 -119.626453 
L 601.856093 -120.364925 
L 603.976039 -118.65118 
L 606.095985 -119.069046 
L 608.21593 -123.4572 
L 610.335876 -125.533385 
L 612.455822 -123.228069 
L 614.575767 -113.406073 
L 616.695713 -114.578 
L 618.815659 -127.207589 
L 620.935605 -127.66014 
L 623.05555 -129.411079 
L 625.175496 -128.924084 
L 627.295442 -131.533488 
L 629.415388 -130.315556 
L 631.535333 -129.481223 
L 633.655279 -132.2036 
L 635.775225 -131.240996 
L 637.89517 -130.048466 
L 640.015116 -127.367304 
L 642.135062 -128.054654 
L 644.255008 -127.138339 
L 646.374953 -128.219257 
L 648.494899 -127.27386 
L 650.614845 -127.948531 
L 652.734791 -123.289574 
L 654.854736 -127.931095 
L 656.974682 -132.576501 
L 659.094628 -133.440225 
L 661.214573 -126.51247 
L 663.334519 -129.982271 
L 665.454465 -129.365173 
L 667.574411 -131.002058 
L 669.694356 -132.473678 
L 671.814302 -133.059981 
L 673.934248 -130.911638 
L 676.054194 -127.087601 
L 678.174139 -124.244297 
L 680.294085 -122.319499 
L 682.414031 -120.817251 
L 684.533976 -121.281349 
L 686.653922 -123.285466 
L 688.773868 -121.614299 
L 690.893814 -119.102611 
L 693.013759 -120.142629 
L 695.133705 -120.168012 
L 697.253651 -120.930114 
L 699.373597 -121.28548 
L 701.493542 -121.425309 
L 703.613488 -122.116916 
L 705.733434 -121.891351 
L 707.853379 -118.024452 
L 709.973325 -118.383342 
L 712.093271 -120.059512 
L 714.213217 -121.542612 
L 716.333162 -116.343057 
L 718.453108 -115.62946 
L 720.573054 -126.617731 
L 722.692999 -126.237304 
L 724.812945 -128.064851 
L 726.932891 -128.529997 
L 729.052837 -130.731728 
L 731.172782 -130.045055 
L 733.292728 -128.717477 
L 735.412674 -130.74052 
L 737.53262 -130.042507 
L 739.652565 -129.30678 
L 741.772511 -128.27067 
L 743.892457 -127.498679 
L 746.012402 -119.959651 
L 748.132348 -117.154837 
L 750.252294 -131.00173 
L 752.37224 -131.725687 
L 754.492185 -128.187828 
L 756.612131 -130.851096 
L 758.732077 -132.711622 
L 760.852023 -132.52489 
L 762.971968 -130.849468 
L 765.091914 -131.503961 
L 767.21186 -128.140055 
L 769.331805 -130.904499 
L 771.451751 -130.977869 
L 773.571697 -129.888232 
L 775.691643 -127.044972 
L 777.811588 -123.353056 
L 779.931534 -120.345017 
L 779.931534 -289.21524 
L 779.931534 -289.21524 
L 777.811588 -291.187742 
L 775.691643 -297.716037 
L 773.571697 -296.03915 
L 771.451751 -293.828251 
L 769.331805 -289.41053 
L 767.21186 -290.29328 
L 765.091914 -285.760239 
L 762.971968 -286.581723 
L 760.852023 -288.661197 
L 758.732077 -286.956283 
L 756.612131 -296.640092 
L 754.492185 -305.882729 
L 752.37224 -287.445558 
L 750.252294 -299.572565 
L 748.132348 -369.691258 
L 746.012402 -393.721047 
L 743.892457 -392.02837 
L 741.772511 -391.177467 
L 739.652565 -399.728663 
L 737.53262 -394.117584 
L 735.412674 -393.924145 
L 733.292728 -393.720738 
L 731.172782 -396.58314 
L 729.052837 -398.374537 
L 726.932891 -395.654841 
L 724.812945 -393.771007 
L 722.692999 -394.486226 
L 720.573054 -391.689858 
L 718.453108 -374.138508 
L 716.333162 -320.838211 
L 714.213217 -326.400429 
L 712.093271 -302.433804 
L 709.973325 -290.535328 
L 707.853379 -289.942069 
L 705.733434 -284.941214 
L 703.613488 -286.547946 
L 701.493542 -285.114085 
L 699.373597 -282.200807 
L 697.253651 -288.251207 
L 695.133705 -290.800426 
L 693.013759 -288.811605 
L 690.893814 -289.460956 
L 688.773868 -284.555816 
L 686.653922 -283.30964 
L 684.533976 -288.838197 
L 682.414031 -285.13751 
L 680.294085 -284.42251 
L 678.174139 -279.986158 
L 676.054194 -281.384234 
L 673.934248 -282.483283 
L 671.814302 -281.91745 
L 669.694356 -287.621132 
L 667.574411 -284.555609 
L 665.454465 -286.221838 
L 663.334519 -287.248763 
L 661.214573 -302.872597 
L 659.094628 -281.435786 
L 656.974682 -285.925565 
L 654.854736 -317.964993 
L 652.734791 -358.711055 
L 650.614845 -399.114363 
L 648.494899 -390.322292 
L 646.374953 -396.752057 
L 644.255008 -400.450296 
L 642.135062 -394.019465 
L 640.015116 -391.867589 
L 637.89517 -394.174606 
L 635.775225 -394.158108 
L 633.655279 -390.641374 
L 631.535333 -384.921769 
L 629.415388 -391.322048 
L 627.295442 -392.018583 
L 625.175496 -395.61475 
L 623.05555 -387.963401 
L 620.935605 -393.494465 
L 618.815659 -394.967381 
L 616.695713 -382.604809 
L 614.575767 -340.521333 
L 612.455822 -324.626469 
L 610.335876 -285.314026 
L 608.21593 -277.428417 
L 606.095985 -287.777287 
L 603.976039 -292.413705 
L 601.856093 -289.716081 
L 599.736147 -289.249761 
L 597.616202 -281.974169 
L 595.496256 -287.412612 
L 593.37631 -293.789027 
L 591.256364 -289.634847 
L 589.136419 -285.784098 
L 587.016473 -289.411689 
L 584.896527 -285.523941 
L 582.776582 -286.256287 
L 580.656636 -286.910144 
L 578.53669 -287.331663 
L 576.416744 -287.803402 
L 574.296799 -286.0561 
L 572.176853 -287.566657 
L 570.056907 -286.360844 
L 567.936961 -291.808981 
L 565.817016 -295.170712 
L 563.69707 -295.190753 
L 561.577124 -298.563242 
L 559.457179 -314.708858 
L 557.337233 -311.198713 
L 555.217287 -352.506195 
L 553.097341 -394.716458 
L 550.977396 -395.699651 
L 548.85745 -399.048387 
L 546.737504 -401.060936 
L 544.617559 -409.350512 
L 542.497613 -406.450898 
L 540.377667 -406.708666 
L 538.257721 -399.181693 
L 536.137776 -401.043669 
L 534.01783 -396.186243 
L 531.897884 -398.404776 
L 529.777938 -393.169013 
L 527.657993 -401.201856 
L 525.538047 -399.033442 
L 523.418101 -401.253788 
L 521.298156 -399.177476 
L 519.17821 -402.933457 
L 517.058264 -404.525117 
L 514.938318 -397.771002 
L 512.818373 -352.802947 
L 510.698427 -347.911473 
L 508.578481 -304.88848 
L 506.458535 -283.686088 
L 504.33859 -293.364193 
L 502.218644 -292.241875 
L 500.098698 -290.250341 
L 497.978753 -291.952559 
L 495.858807 -287.538963 
L 493.738861 -288.130796 
L 491.618915 -292.362087 
L 489.49897 -288.256072 
L 487.379024 -293.845311 
L 485.259078 -292.324244 
L 483.139132 -288.682995 
L 481.019187 -288.962402 
L 478.899241 -284.785821 
L 476.779295 -288.983932 
L 474.65935 -290.591665 
L 472.539404 -294.552872 
L 470.419458 -295.397587 
L 468.299512 -294.404913 
L 466.179567 -288.38426 
L 464.059621 -292.449918 
L 461.939675 -289.248572 
L 459.819729 -291.581165 
L 457.699784 -316.052239 
L 455.579838 -312.960205 
L 453.459892 -356.081506 
L 451.339947 -394.302005 
L 449.220001 -396.118363 
L 447.100055 -399.658992 
L 444.980109 -396.274663 
L 442.860164 -404.302898 
L 440.740218 -405.115877 
L 438.620272 -406.073224 
L 436.500326 -400.885297 
L 434.380381 -404.671274 
L 432.260435 -405.724521 
L 430.140489 -410.919416 
L 428.020544 -399.894376 
L 425.900598 -405.389611 
L 423.780652 -403.387862 
L 421.660706 -398.525395 
L 419.540761 -396.822335 
L 417.420815 -406.192773 
L 415.300869 -415.806073 
L 413.180924 -409.595872 
L 411.060978 -364.827435 
L 408.941032 -329.842522 
L 406.821086 -296.536069 
L 404.701141 -277.923502 
L 402.581195 -290.832822 
L 400.461249 -287.547045 
L 398.341303 -292.114 
L 396.221358 -290.373903 
L 394.101412 -284.200723 
L 391.981466 -285.923707 
L 389.861521 -288.585831 
L 387.741575 -289.907313 
L 385.621629 -292.352885 
L 383.501683 -291.344671 
L 381.381738 -288.765308 
L 379.261792 -287.519169 
L 377.141846 -282.641199 
L 375.0219 -287.14798 
L 372.901955 -288.323125 
L 370.782009 -295.208838 
L 368.662063 -292.163618 
L 366.542118 -292.375484 
L 364.422172 -291.821997 
L 362.302226 -292.193326 
L 360.18228 -294.574546 
L 358.062335 -297.641116 
L 355.942389 -313.808711 
L 353.822443 -314.983759 
L 351.702497 -354.24267 
L 349.582552 -392.193003 
L 347.462606 -393.866496 
L 345.34266 -397.571975 
L 343.222715 -395.907563 
L 341.102769 -403.153452 
L 338.982823 -397.797881 
L 336.862877 -400.161646 
L 334.742932 -399.953451 
L 332.622986 -406.056278 
L 330.50304 -403.268949 
L 328.383094 -399.86969 
L 326.263149 -398.614012 
L 324.143203 -403.369967 
L 322.023257 -405.905207 
L 319.903312 -401.537578 
L 317.783366 -405.966765 
L 315.66342 -404.513239 
L 313.543474 -404.520449 
L 311.423529 -399.307008 
L 309.303583 -371.684743 
L 307.183637 -335.560318 
L 305.063691 -289.672489 
L 302.943746 -286.641478 
L 300.8238 -290.734105 
L 298.703854 -290.848871 
L 296.583909 -293.724111 
L 294.463963 -285.306772 
L 292.344017 -285.254355 
L 290.224071 -286.732082 
L 288.104126 -292.917489 
L 285.98418 -291.848472 
L 283.864234 -287.110268 
L 281.744289 -295.503482 
L 279.624343 -292.279462 
L 277.504397 -290.574014 
L 275.384451 -286.467334 
L 273.264506 -284.456017 
L 271.14456 -287.713103 
L 269.024614 -291.992828 
L 266.904668 -295.286063 
L 264.784723 -289.004546 
L 262.664777 -286.773855 
L 260.544831 -292.259163 
L 258.424886 -287.979631 
L 256.30494 -292.670773 
L 254.184994 -300.104631 
L 252.065048 -312.242711 
L 249.945103 -352.165 
L 247.825157 -393.215741 
L 245.705211 -391.985322 
L 243.585265 -398.355341 
L 241.46532 -402.693855 
L 239.345374 -402.975119 
L 237.225428 -407.019717 
L 235.105483 -411.302446 
L 232.985537 -403.053009 
L 230.865591 -408.731168 
L 228.745645 -403.65175 
L 226.6257 -400.672292 
L 224.505754 -402.123766 
L 222.385808 -399.673039 
L 220.265862 -402.801244 
L 218.145917 -402.803399 
L 216.025971 -397.065425 
L 213.906025 -401.027976 
L 211.78608 -413.420029 
L 209.666134 -410.499934 
L 207.546188 -352.359221 
L 205.426242 -332.457628 
L 203.306297 -290.874255 
L 201.186351 -282.156822 
L 199.066405 -293.392612 
L 196.946459 -291.205648 
L 194.826514 -291.53348 
L 192.706568 -284.704387 
L 190.586622 -286.361445 
L 188.466677 -288.219198 
L 186.346731 -289.548919 
L 184.226785 -295.141441 
L 182.106839 -286.793636 
L 179.986894 -285.565309 
L 177.866948 -284.218671 
L 175.747002 -284.004413 
L 173.627056 -284.024273 
L 171.507111 -283.926559 
L 169.387165 -288.665602 
L 167.267219 -288.969107 
L 165.147274 -292.629887 
L 163.027328 -290.243054 
L 160.907382 -292.163484 
L 158.787436 -294.689782 
L 156.667491 -295.261116 
L 154.547545 -297.917813 
L 152.427599 -304.190948 
L 150.307653 -310.630858 
L 148.187708 -346.820282 
L 146.067762 -387.31397 
L 143.947816 -384.87335 
L 141.827871 -390.377814 
L 139.707925 -394.305837 
L 137.587979 -393.871687 
L 135.468033 -396.287302 
L 133.348088 -397.730592 
L 131.228142 -398.884977 
L 129.108196 -396.287893 
L 126.988251 -403.655693 
L 124.868305 -398.400439 
L 122.748359 -398.497322 
L 120.628413 -404.581847 
L 118.508468 -406.151538 
L 116.388522 -409.965342 
L 114.268576 -402.484833 
L 112.14863 -405.721056 
L 110.028685 -412.388711 
L 107.908739 -410.356513 
L 105.788793 -346.399917 
L 103.668848 -331.847965 
L 101.548902 -293.191757 
L 99.428956 -281.497465 
L 97.30901 -292.678803 
L 95.189065 -288.429488 
L 93.069119 -292.842314 
L 90.949173 -284.409309 
L 88.829227 -285.515368 
L 86.709282 -285.794356 
L 84.589336 -292.126685 
L 82.46939 -287.121662 
L 80.349445 -282.801531 
L 78.229499 -286.428948 
L 76.109553 -288.083559 
L 73.989607 -284.916823 
L 71.869662 -284.960177 
L 69.749716 -287.886321 
z
" style="stroke: #ff0000; stroke-opacity: 0.2"/>
    </defs>
    <g clip-path="url(#p3915814156)">
     <use xlink:href="#m8fa10ead19" x="0" y="453.244198" style="fill: #ff0000; fill-opacity: 0.2; stroke: #ff0000; stroke-opacity: 0.2"/>
    </g>
   </g>
   <g id="patch_3">
    <path d="M 69.749716 354.958125 
L 69.749716 22.318125 
L 95.189065 22.318125 
L 95.189065 354.958125 
z
" clip-path="url(#p3915814156)" style="opacity: 0.3; stroke: #000000; stroke-linejoin: miter"/>
   </g>
   <g id="patch_4">
    <path d="M 146.067762 354.958125 
L 146.067762 22.318125 
L 196.946459 22.318125 
L 196.946459 354.958125 
z
" clip-path="url(#p3915814156)" style="opacity: 0.3; stroke: #000000; stroke-linejoin: miter"/>
   </g>
   <g id="patch_5">
    <path d="M 247.825157 354.958125 
L 247.825157 22.318125 
L 298.703854 22.318125 
L 298.703854 354.958125 
z
" clip-path="url(#p3915814156)" style="opacity: 0.3; stroke: #000000; stroke-linejoin: miter"/>
   </g>
   <g id="patch_6">
    <path d="M 349.582552 354.958125 
L 349.582552 22.318125 
L 400.461249 22.318125 
L 400.461249 354.958125 
z
" clip-path="url(#p3915814156)" style="opacity: 0.3; stroke: #000000; stroke-linejoin: miter"/>
   </g>
   <g id="patch_7">
    <path d="M 451.339947 354.958125 
L 451.339947 22.318125 
L 502.218644 22.318125 
L 502.218644 354.958125 
z
" clip-path="url(#p3915814156)" style="opacity: 0.3; stroke: #000000; stroke-linejoin: miter"/>
   </g>
   <g id="patch_8">
    <path d="M 553.097341 354.958125 
L 553.097341 22.318125 
L 603.976039 22.318125 
L 603.976039 354.958125 
z
" clip-path="url(#p3915814156)" style="opacity: 0.3; stroke: #000000; stroke-linejoin: miter"/>
   </g>
   <g id="patch_9">
    <path d="M 654.854736 354.958125 
L 654.854736 22.318125 
L 705.733434 22.318125 
L 705.733434 354.958125 
z
" clip-path="url(#p3915814156)" style="opacity: 0.3; stroke: #000000; stroke-linejoin: miter"/>
   </g>
   <g id="patch_10">
    <path d="M 756.612131 354.958125 
L 756.612131 22.318125 
L 779.931534 22.318125 
L 779.931534 354.958125 
z
" clip-path="url(#p3915814156)" style="opacity: 0.3; stroke: #000000; stroke-linejoin: miter"/>
   </g>
   <g id="matplotlib.axis_1">
    <g id="xtick_1">
     <g id="line2d_1">
      <path d="M 69.749716 354.958125 
L 69.749716 22.318125 
" clip-path="url(#p3915814156)" style="fill: none; stroke: #b0b0b0; stroke-width: 0.8; stroke-linecap: square"/>
     </g>
     <g id="line2d_2">
      <defs>
       <path id="m0850b445de" d="M 0 0 
L 0 3.5 
" style="stroke: #000000; stroke-width: 0.8"/>
      </defs>
      <g>
       <use xlink:href="#m0850b445de" x="69.749716" y="354.958125" style="stroke: #000000; stroke-width: 0.8"/>
      </g>
     </g>
     <g id="text_1">
      <!-- Monday 00:00 -->
      <g transform="translate(17.737593 417.872594) rotate(-45) scale(0.1 -0.1)">
       <defs>
        <path id="DejaVuSans-4d" d="M 628 4666 
L 1569 4666 
L 2759 1491 
L 3956 4666 
L 4897 4666 
L 4897 0 
L 4281 0 
L 4281 4097 
L 3078 897 
L 2444 897 
L 1241 4097 
L 1241 0 
L 628 0 
L 628 4666 
z
" transform="scale(0.015625)"/>
        <path id="DejaVuSans-6f" d="M 1959 3097 
Q 1497 3097 1228 2736 
Q 959 2375 959 1747 
Q 959 1119 1226 758 
Q 1494 397 1959 397 
Q 2419 397 2687 759 
Q 2956 1122 2956 1747 
Q 2956 2369 2687 2733 
Q 2419 3097 1959 3097 
z
M 1959 3584 
Q 2709 3584 3137 3096 
Q 3566 2609 3566 1747 
Q 3566 888 3137 398 
Q 2709 -91 1959 -91 
Q 1206 -91 779 398 
Q 353 888 353 1747 
Q 353 2609 779 3096 
Q 1206 3584 1959 3584 
z
" transform="scale(0.015625)"/>
        <path id="DejaVuSans-6e" d="M 3513 2113 
L 3513 0 
L 2938 0 
L 2938 2094 
Q 2938 2591 2744 2837 
Q 2550 3084 2163 3084 
Q 1697 3084 1428 2787 
Q 1159 2491 1159 1978 
L 1159 0 
L 581 0 
L 581 3500 
L 1159 3500 
L 1159 2956 
Q 1366 3272 1645 3428 
Q 1925 3584 2291 3584 
Q 2894 3584 3203 3211 
Q 3513 2838 3513 2113 
z
" transform="scale(0.015625)"/>
        <path id="DejaVuSans-64" d="M 2906 2969 
L 2906 4863 
L 3481 4863 
L 3481 0 
L 2906 0 
L 2906 525 
Q 2725 213 2448 61 
Q 2172 -91 1784 -91 
Q 1150 -91 751 415 
Q 353 922 353 1747 
Q 353 2572 751 3078 
Q 1150 3584 1784 3584 
Q 2172 3584 2448 3432 
Q 2725 3281 2906 2969 
z
M 947 1747 
Q 947 1113 1208 752 
Q 1469 391 1925 391 
Q 2381 391 2643 752 
Q 2906 1113 2906 1747 
Q 2906 2381 2643 2742 
Q 2381 3103 1925 3103 
Q 1469 3103 1208 2742 
Q 947 2381 947 1747 
z
" transform="scale(0.015625)"/>
        <path id="DejaVuSans-61" d="M 2194 1759 
Q 1497 1759 1228 1600 
Q 959 1441 959 1056 
Q 959 750 1161 570 
Q 1363 391 1709 391 
Q 2188 391 2477 730 
Q 2766 1069 2766 1631 
L 2766 1759 
L 2194 1759 
z
M 3341 1997 
L 3341 0 
L 2766 0 
L 2766 531 
Q 2569 213 2275 61 
Q 1981 -91 1556 -91 
Q 1019 -91 701 211 
Q 384 513 384 1019 
Q 384 1609 779 1909 
Q 1175 2209 1959 2209 
L 2766 2209 
L 2766 2266 
Q 2766 2663 2505 2880 
Q 2244 3097 1772 3097 
Q 1472 3097 1187 3025 
Q 903 2953 641 2809 
L 641 3341 
Q 956 3463 1253 3523 
Q 1550 3584 1831 3584 
Q 2591 3584 2966 3190 
Q 3341 2797 3341 1997 
z
" transform="scale(0.015625)"/>
        <path id="DejaVuSans-79" d="M 2059 -325 
Q 1816 -950 1584 -1140 
Q 1353 -1331 966 -1331 
L 506 -1331 
L 506 -850 
L 844 -850 
Q 1081 -850 1212 -737 
Q 1344 -625 1503 -206 
L 1606 56 
L 191 3500 
L 800 3500 
L 1894 763 
L 2988 3500 
L 3597 3500 
L 2059 -325 
z
" transform="scale(0.015625)"/>
        <path id="DejaVuSans-20" transform="scale(0.015625)"/>
        <path id="DejaVuSans-30" d="M 2034 4250 
Q 1547 4250 1301 3770 
Q 1056 3291 1056 2328 
Q 1056 1369 1301 889 
Q 1547 409 2034 409 
Q 2525 409 2770 889 
Q 3016 1369 3016 2328 
Q 3016 3291 2770 3770 
Q 2525 4250 2034 4250 
z
M 2034 4750 
Q 2819 4750 3233 4129 
Q 3647 3509 3647 2328 
Q 3647 1150 3233 529 
Q 2819 -91 2034 -91 
Q 1250 -91 836 529 
Q 422 1150 422 2328 
Q 422 3509 836 4129 
Q 1250 4750 2034 4750 
z
" transform="scale(0.015625)"/>
        <path id="DejaVuSans-3a" d="M 750 794 
L 1409 794 
L 1409 0 
L 750 0 
L 750 794 
z
M 750 3309 
L 1409 3309 
L 1409 2516 
L 750 2516 
L 750 3309 
z
" transform="scale(0.015625)"/>
       </defs>
       <use xlink:href="#DejaVuSans-4d"/>
       <use xlink:href="#DejaVuSans-6f" x="86.279297"/>
       <use xlink:href="#DejaVuSans-6e" x="147.460938"/>
       <use xlink:href="#DejaVuSans-64" x="210.839844"/>
       <use xlink:href="#DejaVuSans-61" x="274.316406"/>
       <use xlink:href="#DejaVuSans-79" x="335.595703"/>
       <use xlink:href="#DejaVuSans-20" x="394.775391"/>
       <use xlink:href="#DejaVuSans-30" x="426.5625"/>
       <use xlink:href="#DejaVuSans-30" x="490.185547"/>
       <use xlink:href="#DejaVuSans-3a" x="553.808594"/>
       <use xlink:href="#DejaVuSans-30" x="587.5"/>
       <use xlink:href="#DejaVuSans-30" x="651.123047"/>
      </g>
     </g>
    </g>
    <g id="xtick_2">
     <g id="line2d_3">
      <path d="M 95.189065 354.958125 
L 95.189065 22.318125 
" clip-path="url(#p3915814156)" style="fill: none; stroke: #b0b0b0; stroke-width: 0.8; stroke-linecap: square"/>
     </g>
     <g id="line2d_4">
      <g>
       <use xlink:href="#m0850b445de" x="95.189065" y="354.958125" style="stroke: #000000; stroke-width: 0.8"/>
      </g>
     </g>
     <g id="text_2">
      <!-- 06:00 -->
      <g transform="translate(73.34057 387.708965) rotate(-45) scale(0.1 -0.1)">
       <defs>
        <path id="DejaVuSans-36" d="M 2113 2584 
Q 1688 2584 1439 2293 
Q 1191 2003 1191 1497 
Q 1191 994 1439 701 
Q 1688 409 2113 409 
Q 2538 409 2786 701 
Q 3034 994 3034 1497 
Q 3034 2003 2786 2293 
Q 2538 2584 2113 2584 
z
M 3366 4563 
L 3366 3988 
Q 3128 4100 2886 4159 
Q 2644 4219 2406 4219 
Q 1781 4219 1451 3797 
Q 1122 3375 1075 2522 
Q 1259 2794 1537 2939 
Q 1816 3084 2150 3084 
Q 2853 3084 3261 2657 
Q 3669 2231 3669 1497 
Q 3669 778 3244 343 
Q 2819 -91 2113 -91 
Q 1303 -91 875 529 
Q 447 1150 447 2328 
Q 447 3434 972 4092 
Q 1497 4750 2381 4750 
Q 2619 4750 2861 4703 
Q 3103 4656 3366 4563 
z
" transform="scale(0.015625)"/>
       </defs>
       <use xlink:href="#DejaVuSans-30"/>
       <use xlink:href="#DejaVuSans-36" x="63.623047"/>
       <use xlink:href="#DejaVuSans-3a" x="127.246094"/>
       <use xlink:href="#DejaVuSans-30" x="160.9375"/>
       <use xlink:href="#DejaVuSans-30" x="224.560547"/>
      </g>
     </g>
    </g>
    <g id="xtick_3">
     <g id="line2d_5">
      <path d="M 120.628413 354.958125 
L 120.628413 22.318125 
" clip-path="url(#p3915814156)" style="fill: none; stroke: #b0b0b0; stroke-width: 0.8; stroke-linecap: square"/>
     </g>
     <g id="line2d_6">
      <g>
       <use xlink:href="#m0850b445de" x="120.628413" y="354.958125" style="stroke: #000000; stroke-width: 0.8"/>
      </g>
     </g>
     <g id="text_3">
      <!-- 12:00 -->
      <g transform="translate(98.779919 387.708965) rotate(-45) scale(0.1 -0.1)">
       <defs>
        <path id="DejaVuSans-31" d="M 794 531 
L 1825 531 
L 1825 4091 
L 703 3866 
L 703 4441 
L 1819 4666 
L 2450 4666 
L 2450 531 
L 3481 531 
L 3481 0 
L 794 0 
L 794 531 
z
" transform="scale(0.015625)"/>
        <path id="DejaVuSans-32" d="M 1228 531 
L 3431 531 
L 3431 0 
L 469 0 
L 469 531 
Q 828 903 1448 1529 
Q 2069 2156 2228 2338 
Q 2531 2678 2651 2914 
Q 2772 3150 2772 3378 
Q 2772 3750 2511 3984 
Q 2250 4219 1831 4219 
Q 1534 4219 1204 4116 
Q 875 4013 500 3803 
L 500 4441 
Q 881 4594 1212 4672 
Q 1544 4750 1819 4750 
Q 2544 4750 2975 4387 
Q 3406 4025 3406 3419 
Q 3406 3131 3298 2873 
Q 3191 2616 2906 2266 
Q 2828 2175 2409 1742 
Q 1991 1309 1228 531 
z
" transform="scale(0.015625)"/>
       </defs>
       <use xlink:href="#DejaVuSans-31"/>
       <use xlink:href="#DejaVuSans-32" x="63.623047"/>
       <use xlink:href="#DejaVuSans-3a" x="127.246094"/>
       <use xlink:href="#DejaVuSans-30" x="160.9375"/>
       <use xlink:href="#DejaVuSans-30" x="224.560547"/>
      </g>
     </g>
    </g>
    <g id="xtick_4">
     <g id="line2d_7">
      <path d="M 146.067762 354.958125 
L 146.067762 22.318125 
" clip-path="url(#p3915814156)" style="fill: none; stroke: #b0b0b0; stroke-width: 0.8; stroke-linecap: square"/>
     </g>
     <g id="line2d_8">
      <g>
       <use xlink:href="#m0850b445de" x="146.067762" y="354.958125" style="stroke: #000000; stroke-width: 0.8"/>
      </g>
     </g>
     <g id="text_4">
      <!-- 18:00 -->
      <g transform="translate(124.219267 387.708965) rotate(-45) scale(0.1 -0.1)">
       <defs>
        <path id="DejaVuSans-38" d="M 2034 2216 
Q 1584 2216 1326 1975 
Q 1069 1734 1069 1313 
Q 1069 891 1326 650 
Q 1584 409 2034 409 
Q 2484 409 2743 651 
Q 3003 894 3003 1313 
Q 3003 1734 2745 1975 
Q 2488 2216 2034 2216 
z
M 1403 2484 
Q 997 2584 770 2862 
Q 544 3141 544 3541 
Q 544 4100 942 4425 
Q 1341 4750 2034 4750 
Q 2731 4750 3128 4425 
Q 3525 4100 3525 3541 
Q 3525 3141 3298 2862 
Q 3072 2584 2669 2484 
Q 3125 2378 3379 2068 
Q 3634 1759 3634 1313 
Q 3634 634 3220 271 
Q 2806 -91 2034 -91 
Q 1263 -91 848 271 
Q 434 634 434 1313 
Q 434 1759 690 2068 
Q 947 2378 1403 2484 
z
M 1172 3481 
Q 1172 3119 1398 2916 
Q 1625 2713 2034 2713 
Q 2441 2713 2670 2916 
Q 2900 3119 2900 3481 
Q 2900 3844 2670 4047 
Q 2441 4250 2034 4250 
Q 1625 4250 1398 4047 
Q 1172 3844 1172 3481 
z
" transform="scale(0.015625)"/>
       </defs>
       <use xlink:href="#DejaVuSans-31"/>
       <use xlink:href="#DejaVuSans-38" x="63.623047"/>
       <use xlink:href="#DejaVuSans-3a" x="127.246094"/>
       <use xlink:href="#DejaVuSans-30" x="160.9375"/>
       <use xlink:href="#DejaVuSans-30" x="224.560547"/>
      </g>
     </g>
    </g>
    <g id="xtick_5">
     <g id="line2d_9">
      <path d="M 171.507111 354.958125 
L 171.507111 22.318125 
" clip-path="url(#p3915814156)" style="fill: none; stroke: #b0b0b0; stroke-width: 0.8; stroke-linecap: square"/>
     </g>
     <g id="line2d_10">
      <g>
       <use xlink:href="#m0850b445de" x="171.507111" y="354.958125" style="stroke: #000000; stroke-width: 0.8"/>
      </g>
     </g>
     <g id="text_5">
      <!-- Tuesday 00:00 -->
      <g transform="translate(118.638725 418.728856) rotate(-45) scale(0.1 -0.1)">
       <defs>
        <path id="DejaVuSans-54" d="M -19 4666 
L 3928 4666 
L 3928 4134 
L 2272 4134 
L 2272 0 
L 1638 0 
L 1638 4134 
L -19 4134 
L -19 4666 
z
" transform="scale(0.015625)"/>
        <path id="DejaVuSans-75" d="M 544 1381 
L 544 3500 
L 1119 3500 
L 1119 1403 
Q 1119 906 1312 657 
Q 1506 409 1894 409 
Q 2359 409 2629 706 
Q 2900 1003 2900 1516 
L 2900 3500 
L 3475 3500 
L 3475 0 
L 2900 0 
L 2900 538 
Q 2691 219 2414 64 
Q 2138 -91 1772 -91 
Q 1169 -91 856 284 
Q 544 659 544 1381 
z
M 1991 3584 
L 1991 3584 
z
" transform="scale(0.015625)"/>
        <path id="DejaVuSans-65" d="M 3597 1894 
L 3597 1613 
L 953 1613 
Q 991 1019 1311 708 
Q 1631 397 2203 397 
Q 2534 397 2845 478 
Q 3156 559 3463 722 
L 3463 178 
Q 3153 47 2828 -22 
Q 2503 -91 2169 -91 
Q 1331 -91 842 396 
Q 353 884 353 1716 
Q 353 2575 817 3079 
Q 1281 3584 2069 3584 
Q 2775 3584 3186 3129 
Q 3597 2675 3597 1894 
z
M 3022 2063 
Q 3016 2534 2758 2815 
Q 2500 3097 2075 3097 
Q 1594 3097 1305 2825 
Q 1016 2553 972 2059 
L 3022 2063 
z
" transform="scale(0.015625)"/>
        <path id="DejaVuSans-73" d="M 2834 3397 
L 2834 2853 
Q 2591 2978 2328 3040 
Q 2066 3103 1784 3103 
Q 1356 3103 1142 2972 
Q 928 2841 928 2578 
Q 928 2378 1081 2264 
Q 1234 2150 1697 2047 
L 1894 2003 
Q 2506 1872 2764 1633 
Q 3022 1394 3022 966 
Q 3022 478 2636 193 
Q 2250 -91 1575 -91 
Q 1294 -91 989 -36 
Q 684 19 347 128 
L 347 722 
Q 666 556 975 473 
Q 1284 391 1588 391 
Q 1994 391 2212 530 
Q 2431 669 2431 922 
Q 2431 1156 2273 1281 
Q 2116 1406 1581 1522 
L 1381 1569 
Q 847 1681 609 1914 
Q 372 2147 372 2553 
Q 372 3047 722 3315 
Q 1072 3584 1716 3584 
Q 2034 3584 2315 3537 
Q 2597 3491 2834 3397 
z
" transform="scale(0.015625)"/>
       </defs>
       <use xlink:href="#DejaVuSans-54"/>
       <use xlink:href="#DejaVuSans-75" x="45.958984"/>
       <use xlink:href="#DejaVuSans-65" x="109.337891"/>
       <use xlink:href="#DejaVuSans-73" x="170.861328"/>
       <use xlink:href="#DejaVuSans-64" x="222.960938"/>
       <use xlink:href="#DejaVuSans-61" x="286.4375"/>
       <use xlink:href="#DejaVuSans-79" x="347.716797"/>
       <use xlink:href="#DejaVuSans-20" x="406.896484"/>
       <use xlink:href="#DejaVuSans-30" x="438.683594"/>
       <use xlink:href="#DejaVuSans-30" x="502.306641"/>
       <use xlink:href="#DejaVuSans-3a" x="565.929688"/>
       <use xlink:href="#DejaVuSans-30" x="599.621094"/>
       <use xlink:href="#DejaVuSans-30" x="663.244141"/>
      </g>
     </g>
    </g>
    <g id="xtick_6">
     <g id="line2d_11">
      <path d="M 196.946459 354.958125 
L 196.946459 22.318125 
" clip-path="url(#p3915814156)" style="fill: none; stroke: #b0b0b0; stroke-width: 0.8; stroke-linecap: square"/>
     </g>
     <g id="line2d_12">
      <g>
       <use xlink:href="#m0850b445de" x="196.946459" y="354.958125" style="stroke: #000000; stroke-width: 0.8"/>
      </g>
     </g>
     <g id="text_6">
      <!-- 06:00 -->
      <g transform="translate(175.097965 387.708965) rotate(-45) scale(0.1 -0.1)">
       <use xlink:href="#DejaVuSans-30"/>
       <use xlink:href="#DejaVuSans-36" x="63.623047"/>
       <use xlink:href="#DejaVuSans-3a" x="127.246094"/>
       <use xlink:href="#DejaVuSans-30" x="160.9375"/>
       <use xlink:href="#DejaVuSans-30" x="224.560547"/>
      </g>
     </g>
    </g>
    <g id="xtick_7">
     <g id="line2d_13">
      <path d="M 222.385808 354.958125 
L 222.385808 22.318125 
" clip-path="url(#p3915814156)" style="fill: none; stroke: #b0b0b0; stroke-width: 0.8; stroke-linecap: square"/>
     </g>
     <g id="line2d_14">
      <g>
       <use xlink:href="#m0850b445de" x="222.385808" y="354.958125" style="stroke: #000000; stroke-width: 0.8"/>
      </g>
     </g>
     <g id="text_7">
      <!-- 12:00 -->
      <g transform="translate(200.537313 387.708965) rotate(-45) scale(0.1 -0.1)">
       <use xlink:href="#DejaVuSans-31"/>
       <use xlink:href="#DejaVuSans-32" x="63.623047"/>
       <use xlink:href="#DejaVuSans-3a" x="127.246094"/>
       <use xlink:href="#DejaVuSans-30" x="160.9375"/>
       <use xlink:href="#DejaVuSans-30" x="224.560547"/>
      </g>
     </g>
    </g>
    <g id="xtick_8">
     <g id="line2d_15">
      <path d="M 247.825157 354.958125 
L 247.825157 22.318125 
" clip-path="url(#p3915814156)" style="fill: none; stroke: #b0b0b0; stroke-width: 0.8; stroke-linecap: square"/>
     </g>
     <g id="line2d_16">
      <g>
       <use xlink:href="#m0850b445de" x="247.825157" y="354.958125" style="stroke: #000000; stroke-width: 0.8"/>
      </g>
     </g>
     <g id="text_8">
      <!-- 18:00 -->
      <g transform="translate(225.976662 387.708965) rotate(-45) scale(0.1 -0.1)">
       <use xlink:href="#DejaVuSans-31"/>
       <use xlink:href="#DejaVuSans-38" x="63.623047"/>
       <use xlink:href="#DejaVuSans-3a" x="127.246094"/>
       <use xlink:href="#DejaVuSans-30" x="160.9375"/>
       <use xlink:href="#DejaVuSans-30" x="224.560547"/>
      </g>
     </g>
    </g>
    <g id="xtick_9">
     <g id="line2d_17">
      <path d="M 273.264506 354.958125 
L 273.264506 22.318125 
" clip-path="url(#p3915814156)" style="fill: none; stroke: #b0b0b0; stroke-width: 0.8; stroke-linecap: square"/>
     </g>
     <g id="line2d_18">
      <g>
       <use xlink:href="#m0850b445de" x="273.264506" y="354.958125" style="stroke: #000000; stroke-width: 0.8"/>
      </g>
     </g>
     <g id="text_9">
      <!-- Wednesday 00:00 -->
      <g transform="translate(208.229464 430.895512) rotate(-45) scale(0.1 -0.1)">
       <defs>
        <path id="DejaVuSans-57" d="M 213 4666 
L 850 4666 
L 1831 722 
L 2809 4666 
L 3519 4666 
L 4500 722 
L 5478 4666 
L 6119 4666 
L 4947 0 
L 4153 0 
L 3169 4050 
L 2175 0 
L 1381 0 
L 213 4666 
z
" transform="scale(0.015625)"/>
       </defs>
       <use xlink:href="#DejaVuSans-57"/>
       <use xlink:href="#DejaVuSans-65" x="93.001953"/>
       <use xlink:href="#DejaVuSans-64" x="154.525391"/>
       <use xlink:href="#DejaVuSans-6e" x="218.001953"/>
       <use xlink:href="#DejaVuSans-65" x="281.380859"/>
       <use xlink:href="#DejaVuSans-73" x="342.904297"/>
       <use xlink:href="#DejaVuSans-64" x="395.003906"/>
       <use xlink:href="#DejaVuSans-61" x="458.480469"/>
       <use xlink:href="#DejaVuSans-79" x="519.759766"/>
       <use xlink:href="#DejaVuSans-20" x="578.939453"/>
       <use xlink:href="#DejaVuSans-30" x="610.726562"/>
       <use xlink:href="#DejaVuSans-30" x="674.349609"/>
       <use xlink:href="#DejaVuSans-3a" x="737.972656"/>
       <use xlink:href="#DejaVuSans-30" x="771.664062"/>
       <use xlink:href="#DejaVuSans-30" x="835.287109"/>
      </g>
     </g>
    </g>
    <g id="xtick_10">
     <g id="line2d_19">
      <path d="M 298.703854 354.958125 
L 298.703854 22.318125 
" clip-path="url(#p3915814156)" style="fill: none; stroke: #b0b0b0; stroke-width: 0.8; stroke-linecap: square"/>
     </g>
     <g id="line2d_20">
      <g>
       <use xlink:href="#m0850b445de" x="298.703854" y="354.958125" style="stroke: #000000; stroke-width: 0.8"/>
      </g>
     </g>
     <g id="text_10">
      <!-- 06:00 -->
      <g transform="translate(276.85536 387.708965) rotate(-45) scale(0.1 -0.1)">
       <use xlink:href="#DejaVuSans-30"/>
       <use xlink:href="#DejaVuSans-36" x="63.623047"/>
       <use xlink:href="#DejaVuSans-3a" x="127.246094"/>
       <use xlink:href="#DejaVuSans-30" x="160.9375"/>
       <use xlink:href="#DejaVuSans-30" x="224.560547"/>
      </g>
     </g>
    </g>
    <g id="xtick_11">
     <g id="line2d_21">
      <path d="M 324.143203 354.958125 
L 324.143203 22.318125 
" clip-path="url(#p3915814156)" style="fill: none; stroke: #b0b0b0; stroke-width: 0.8; stroke-linecap: square"/>
     </g>
     <g id="line2d_22">
      <g>
       <use xlink:href="#m0850b445de" x="324.143203" y="354.958125" style="stroke: #000000; stroke-width: 0.8"/>
      </g>
     </g>
     <g id="text_11">
      <!-- 12:00 -->
      <g transform="translate(302.294708 387.708965) rotate(-45) scale(0.1 -0.1)">
       <use xlink:href="#DejaVuSans-31"/>
       <use xlink:href="#DejaVuSans-32" x="63.623047"/>
       <use xlink:href="#DejaVuSans-3a" x="127.246094"/>
       <use xlink:href="#DejaVuSans-30" x="160.9375"/>
       <use xlink:href="#DejaVuSans-30" x="224.560547"/>
      </g>
     </g>
    </g>
    <g id="xtick_12">
     <g id="line2d_23">
      <path d="M 349.582552 354.958125 
L 349.582552 22.318125 
" clip-path="url(#p3915814156)" style="fill: none; stroke: #b0b0b0; stroke-width: 0.8; stroke-linecap: square"/>
     </g>
     <g id="line2d_24">
      <g>
       <use xlink:href="#m0850b445de" x="349.582552" y="354.958125" style="stroke: #000000; stroke-width: 0.8"/>
      </g>
     </g>
     <g id="text_12">
      <!-- 18:00 -->
      <g transform="translate(327.734057 387.708965) rotate(-45) scale(0.1 -0.1)">
       <use xlink:href="#DejaVuSans-31"/>
       <use xlink:href="#DejaVuSans-38" x="63.623047"/>
       <use xlink:href="#DejaVuSans-3a" x="127.246094"/>
       <use xlink:href="#DejaVuSans-30" x="160.9375"/>
       <use xlink:href="#DejaVuSans-30" x="224.560547"/>
      </g>
     </g>
    </g>
    <g id="xtick_13">
     <g id="line2d_25">
      <path d="M 375.0219 354.958125 
L 375.0219 22.318125 
" clip-path="url(#p3915814156)" style="fill: none; stroke: #b0b0b0; stroke-width: 0.8; stroke-linecap: square"/>
     </g>
     <g id="line2d_26">
      <g>
       <use xlink:href="#m0850b445de" x="375.0219" y="354.958125" style="stroke: #000000; stroke-width: 0.8"/>
      </g>
     </g>
     <g id="text_13">
      <!-- Thursday 00:00 -->
      <g transform="translate(318.046772 422.835599) rotate(-45) scale(0.1 -0.1)">
       <defs>
        <path id="DejaVuSans-68" d="M 3513 2113 
L 3513 0 
L 2938 0 
L 2938 2094 
Q 2938 2591 2744 2837 
Q 2550 3084 2163 3084 
Q 1697 3084 1428 2787 
Q 1159 2491 1159 1978 
L 1159 0 
L 581 0 
L 581 4863 
L 1159 4863 
L 1159 2956 
Q 1366 3272 1645 3428 
Q 1925 3584 2291 3584 
Q 2894 3584 3203 3211 
Q 3513 2838 3513 2113 
z
" transform="scale(0.015625)"/>
        <path id="DejaVuSans-72" d="M 2631 2963 
Q 2534 3019 2420 3045 
Q 2306 3072 2169 3072 
Q 1681 3072 1420 2755 
Q 1159 2438 1159 1844 
L 1159 0 
L 581 0 
L 581 3500 
L 1159 3500 
L 1159 2956 
Q 1341 3275 1631 3429 
Q 1922 3584 2338 3584 
Q 2397 3584 2469 3576 
Q 2541 3569 2628 3553 
L 2631 2963 
z
" transform="scale(0.015625)"/>
       </defs>
       <use xlink:href="#DejaVuSans-54"/>
       <use xlink:href="#DejaVuSans-68" x="61.083984"/>
       <use xlink:href="#DejaVuSans-75" x="124.462891"/>
       <use xlink:href="#DejaVuSans-72" x="187.841797"/>
       <use xlink:href="#DejaVuSans-73" x="228.955078"/>
       <use xlink:href="#DejaVuSans-64" x="281.054688"/>
       <use xlink:href="#DejaVuSans-61" x="344.53125"/>
       <use xlink:href="#DejaVuSans-79" x="405.810547"/>
       <use xlink:href="#DejaVuSans-20" x="464.990234"/>
       <use xlink:href="#DejaVuSans-30" x="496.777344"/>
       <use xlink:href="#DejaVuSans-30" x="560.400391"/>
       <use xlink:href="#DejaVuSans-3a" x="624.023438"/>
       <use xlink:href="#DejaVuSans-30" x="657.714844"/>
       <use xlink:href="#DejaVuSans-30" x="721.337891"/>
      </g>
     </g>
    </g>
    <g id="xtick_14">
     <g id="line2d_27">
      <path d="M 400.461249 354.958125 
L 400.461249 22.318125 
" clip-path="url(#p3915814156)" style="fill: none; stroke: #b0b0b0; stroke-width: 0.8; stroke-linecap: square"/>
     </g>
     <g id="line2d_28">
      <g>
       <use xlink:href="#m0850b445de" x="400.461249" y="354.958125" style="stroke: #000000; stroke-width: 0.8"/>
      </g>
     </g>
     <g id="text_14">
      <!-- 06:00 -->
      <g transform="translate(378.612754 387.708965) rotate(-45) scale(0.1 -0.1)">
       <use xlink:href="#DejaVuSans-30"/>
       <use xlink:href="#DejaVuSans-36" x="63.623047"/>
       <use xlink:href="#DejaVuSans-3a" x="127.246094"/>
       <use xlink:href="#DejaVuSans-30" x="160.9375"/>
       <use xlink:href="#DejaVuSans-30" x="224.560547"/>
      </g>
     </g>
    </g>
    <g id="xtick_15">
     <g id="line2d_29">
      <path d="M 425.900598 354.958125 
L 425.900598 22.318125 
" clip-path="url(#p3915814156)" style="fill: none; stroke: #b0b0b0; stroke-width: 0.8; stroke-linecap: square"/>
     </g>
     <g id="line2d_30">
      <g>
       <use xlink:href="#m0850b445de" x="425.900598" y="354.958125" style="stroke: #000000; stroke-width: 0.8"/>
      </g>
     </g>
     <g id="text_15">
      <!-- 12:00 -->
      <g transform="translate(404.052103 387.708965) rotate(-45) scale(0.1 -0.1)">
       <use xlink:href="#DejaVuSans-31"/>
       <use xlink:href="#DejaVuSans-32" x="63.623047"/>
       <use xlink:href="#DejaVuSans-3a" x="127.246094"/>
       <use xlink:href="#DejaVuSans-30" x="160.9375"/>
       <use xlink:href="#DejaVuSans-30" x="224.560547"/>
      </g>
     </g>
    </g>
    <g id="xtick_16">
     <g id="line2d_31">
      <path d="M 451.339947 354.958125 
L 451.339947 22.318125 
" clip-path="url(#p3915814156)" style="fill: none; stroke: #b0b0b0; stroke-width: 0.8; stroke-linecap: square"/>
     </g>
     <g id="line2d_32">
      <g>
       <use xlink:href="#m0850b445de" x="451.339947" y="354.958125" style="stroke: #000000; stroke-width: 0.8"/>
      </g>
     </g>
     <g id="text_16">
      <!-- 18:00 -->
      <g transform="translate(429.491452 387.708965) rotate(-45) scale(0.1 -0.1)">
       <use xlink:href="#DejaVuSans-31"/>
       <use xlink:href="#DejaVuSans-38" x="63.623047"/>
       <use xlink:href="#DejaVuSans-3a" x="127.246094"/>
       <use xlink:href="#DejaVuSans-30" x="160.9375"/>
       <use xlink:href="#DejaVuSans-30" x="224.560547"/>
      </g>
     </g>
    </g>
    <g id="xtick_17">
     <g id="line2d_33">
      <path d="M 476.779295 354.958125 
L 476.779295 22.318125 
" clip-path="url(#p3915814156)" style="fill: none; stroke: #b0b0b0; stroke-width: 0.8; stroke-linecap: square"/>
     </g>
     <g id="line2d_34">
      <g>
       <use xlink:href="#m0850b445de" x="476.779295" y="354.958125" style="stroke: #000000; stroke-width: 0.8"/>
      </g>
     </g>
     <g id="text_17">
      <!-- Friday 00:00 -->
      <g transform="translate(431.250457 411.389308) rotate(-45) scale(0.1 -0.1)">
       <defs>
        <path id="DejaVuSans-46" d="M 628 4666 
L 3309 4666 
L 3309 4134 
L 1259 4134 
L 1259 2759 
L 3109 2759 
L 3109 2228 
L 1259 2228 
L 1259 0 
L 628 0 
L 628 4666 
z
" transform="scale(0.015625)"/>
        <path id="DejaVuSans-69" d="M 603 3500 
L 1178 3500 
L 1178 0 
L 603 0 
L 603 3500 
z
M 603 4863 
L 1178 4863 
L 1178 4134 
L 603 4134 
L 603 4863 
z
" transform="scale(0.015625)"/>
       </defs>
       <use xlink:href="#DejaVuSans-46"/>
       <use xlink:href="#DejaVuSans-72" x="50.269531"/>
       <use xlink:href="#DejaVuSans-69" x="91.382812"/>
       <use xlink:href="#DejaVuSans-64" x="119.166016"/>
       <use xlink:href="#DejaVuSans-61" x="182.642578"/>
       <use xlink:href="#DejaVuSans-79" x="243.921875"/>
       <use xlink:href="#DejaVuSans-20" x="303.101562"/>
       <use xlink:href="#DejaVuSans-30" x="334.888672"/>
       <use xlink:href="#DejaVuSans-30" x="398.511719"/>
       <use xlink:href="#DejaVuSans-3a" x="462.134766"/>
       <use xlink:href="#DejaVuSans-30" x="495.826172"/>
       <use xlink:href="#DejaVuSans-30" x="559.449219"/>
      </g>
     </g>
    </g>
    <g id="xtick_18">
     <g id="line2d_35">
      <path d="M 502.218644 354.958125 
L 502.218644 22.318125 
" clip-path="url(#p3915814156)" style="fill: none; stroke: #b0b0b0; stroke-width: 0.8; stroke-linecap: square"/>
     </g>
     <g id="line2d_36">
      <g>
       <use xlink:href="#m0850b445de" x="502.218644" y="354.958125" style="stroke: #000000; stroke-width: 0.8"/>
      </g>
     </g>
     <g id="text_18">
      <!-- 06:00 -->
      <g transform="translate(480.370149 387.708965) rotate(-45) scale(0.1 -0.1)">
       <use xlink:href="#DejaVuSans-30"/>
       <use xlink:href="#DejaVuSans-36" x="63.623047"/>
       <use xlink:href="#DejaVuSans-3a" x="127.246094"/>
       <use xlink:href="#DejaVuSans-30" x="160.9375"/>
       <use xlink:href="#DejaVuSans-30" x="224.560547"/>
      </g>
     </g>
    </g>
    <g id="xtick_19">
     <g id="line2d_37">
      <path d="M 527.657993 354.958125 
L 527.657993 22.318125 
" clip-path="url(#p3915814156)" style="fill: none; stroke: #b0b0b0; stroke-width: 0.8; stroke-linecap: square"/>
     </g>
     <g id="line2d_38">
      <g>
       <use xlink:href="#m0850b445de" x="527.657993" y="354.958125" style="stroke: #000000; stroke-width: 0.8"/>
      </g>
     </g>
     <g id="text_19">
      <!-- 12:00 -->
      <g transform="translate(505.809498 387.708965) rotate(-45) scale(0.1 -0.1)">
       <use xlink:href="#DejaVuSans-31"/>
       <use xlink:href="#DejaVuSans-32" x="63.623047"/>
       <use xlink:href="#DejaVuSans-3a" x="127.246094"/>
       <use xlink:href="#DejaVuSans-30" x="160.9375"/>
       <use xlink:href="#DejaVuSans-30" x="224.560547"/>
      </g>
     </g>
    </g>
    <g id="xtick_20">
     <g id="line2d_39">
      <path d="M 553.097341 354.958125 
L 553.097341 22.318125 
" clip-path="url(#p3915814156)" style="fill: none; stroke: #b0b0b0; stroke-width: 0.8; stroke-linecap: square"/>
     </g>
     <g id="line2d_40">
      <g>
       <use xlink:href="#m0850b445de" x="553.097341" y="354.958125" style="stroke: #000000; stroke-width: 0.8"/>
      </g>
     </g>
     <g id="text_20">
      <!-- 18:00 -->
      <g transform="translate(531.248847 387.708965) rotate(-45) scale(0.1 -0.1)">
       <use xlink:href="#DejaVuSans-31"/>
       <use xlink:href="#DejaVuSans-38" x="63.623047"/>
       <use xlink:href="#DejaVuSans-3a" x="127.246094"/>
       <use xlink:href="#DejaVuSans-30" x="160.9375"/>
       <use xlink:href="#DejaVuSans-30" x="224.560547"/>
      </g>
     </g>
    </g>
    <g id="xtick_21">
     <g id="line2d_41">
      <path d="M 578.53669 354.958125 
L 578.53669 22.318125 
" clip-path="url(#p3915814156)" style="fill: none; stroke: #b0b0b0; stroke-width: 0.8; stroke-linecap: square"/>
     </g>
     <g id="line2d_42">
      <g>
       <use xlink:href="#m0850b445de" x="578.53669" y="354.958125" style="stroke: #000000; stroke-width: 0.8"/>
      </g>
     </g>
     <g id="text_21">
      <!-- Saturday 00:00 -->
      <g transform="translate(522.574713 421.822448) rotate(-45) scale(0.1 -0.1)">
       <defs>
        <path id="DejaVuSans-53" d="M 3425 4513 
L 3425 3897 
Q 3066 4069 2747 4153 
Q 2428 4238 2131 4238 
Q 1616 4238 1336 4038 
Q 1056 3838 1056 3469 
Q 1056 3159 1242 3001 
Q 1428 2844 1947 2747 
L 2328 2669 
Q 3034 2534 3370 2195 
Q 3706 1856 3706 1288 
Q 3706 609 3251 259 
Q 2797 -91 1919 -91 
Q 1588 -91 1214 -16 
Q 841 59 441 206 
L 441 856 
Q 825 641 1194 531 
Q 1563 422 1919 422 
Q 2459 422 2753 634 
Q 3047 847 3047 1241 
Q 3047 1584 2836 1778 
Q 2625 1972 2144 2069 
L 1759 2144 
Q 1053 2284 737 2584 
Q 422 2884 422 3419 
Q 422 4038 858 4394 
Q 1294 4750 2059 4750 
Q 2388 4750 2728 4690 
Q 3069 4631 3425 4513 
z
" transform="scale(0.015625)"/>
        <path id="DejaVuSans-74" d="M 1172 4494 
L 1172 3500 
L 2356 3500 
L 2356 3053 
L 1172 3053 
L 1172 1153 
Q 1172 725 1289 603 
Q 1406 481 1766 481 
L 2356 481 
L 2356 0 
L 1766 0 
Q 1100 0 847 248 
Q 594 497 594 1153 
L 594 3053 
L 172 3053 
L 172 3500 
L 594 3500 
L 594 4494 
L 1172 4494 
z
" transform="scale(0.015625)"/>
       </defs>
       <use xlink:href="#DejaVuSans-53"/>
       <use xlink:href="#DejaVuSans-61" x="63.476562"/>
       <use xlink:href="#DejaVuSans-74" x="124.755859"/>
       <use xlink:href="#DejaVuSans-75" x="163.964844"/>
       <use xlink:href="#DejaVuSans-72" x="227.34375"/>
       <use xlink:href="#DejaVuSans-64" x="266.707031"/>
       <use xlink:href="#DejaVuSans-61" x="330.183594"/>
       <use xlink:href="#DejaVuSans-79" x="391.462891"/>
       <use xlink:href="#DejaVuSans-20" x="450.642578"/>
       <use xlink:href="#DejaVuSans-30" x="482.429688"/>
       <use xlink:href="#DejaVuSans-30" x="546.052734"/>
       <use xlink:href="#DejaVuSans-3a" x="609.675781"/>
       <use xlink:href="#DejaVuSans-30" x="643.367188"/>
       <use xlink:href="#DejaVuSans-30" x="706.990234"/>
      </g>
     </g>
    </g>
    <g id="xtick_22">
     <g id="line2d_43">
      <path d="M 603.976039 354.958125 
L 603.976039 22.318125 
" clip-path="url(#p3915814156)" style="fill: none; stroke: #b0b0b0; stroke-width: 0.8; stroke-linecap: square"/>
     </g>
     <g id="line2d_44">
      <g>
       <use xlink:href="#m0850b445de" x="603.976039" y="354.958125" style="stroke: #000000; stroke-width: 0.8"/>
      </g>
     </g>
     <g id="text_22">
      <!-- 06:00 -->
      <g transform="translate(582.127544 387.708965) rotate(-45) scale(0.1 -0.1)">
       <use xlink:href="#DejaVuSans-30"/>
       <use xlink:href="#DejaVuSans-36" x="63.623047"/>
       <use xlink:href="#DejaVuSans-3a" x="127.246094"/>
       <use xlink:href="#DejaVuSans-30" x="160.9375"/>
       <use xlink:href="#DejaVuSans-30" x="224.560547"/>
      </g>
     </g>
    </g>
    <g id="xtick_23">
     <g id="line2d_45">
      <path d="M 629.415388 354.958125 
L 629.415388 22.318125 
" clip-path="url(#p3915814156)" style="fill: none; stroke: #b0b0b0; stroke-width: 0.8; stroke-linecap: square"/>
     </g>
     <g id="line2d_46">
      <g>
       <use xlink:href="#m0850b445de" x="629.415388" y="354.958125" style="stroke: #000000; stroke-width: 0.8"/>
      </g>
     </g>
     <g id="text_23">
      <!-- 12:00 -->
      <g transform="translate(607.566893 387.708965) rotate(-45) scale(0.1 -0.1)">
       <use xlink:href="#DejaVuSans-31"/>
       <use xlink:href="#DejaVuSans-32" x="63.623047"/>
       <use xlink:href="#DejaVuSans-3a" x="127.246094"/>
       <use xlink:href="#DejaVuSans-30" x="160.9375"/>
       <use xlink:href="#DejaVuSans-30" x="224.560547"/>
      </g>
     </g>
    </g>
    <g id="xtick_24">
     <g id="line2d_47">
      <path d="M 654.854736 354.958125 
L 654.854736 22.318125 
" clip-path="url(#p3915814156)" style="fill: none; stroke: #b0b0b0; stroke-width: 0.8; stroke-linecap: square"/>
     </g>
     <g id="line2d_48">
      <g>
       <use xlink:href="#m0850b445de" x="654.854736" y="354.958125" style="stroke: #000000; stroke-width: 0.8"/>
      </g>
     </g>
     <g id="text_24">
      <!-- 18:00 -->
      <g transform="translate(633.006242 387.708965) rotate(-45) scale(0.1 -0.1)">
       <use xlink:href="#DejaVuSans-31"/>
       <use xlink:href="#DejaVuSans-38" x="63.623047"/>
       <use xlink:href="#DejaVuSans-3a" x="127.246094"/>
       <use xlink:href="#DejaVuSans-30" x="160.9375"/>
       <use xlink:href="#DejaVuSans-30" x="224.560547"/>
      </g>
     </g>
    </g>
    <g id="xtick_25">
     <g id="line2d_49">
      <path d="M 680.294085 354.958125 
L 680.294085 22.318125 
" clip-path="url(#p3915814156)" style="fill: none; stroke: #b0b0b0; stroke-width: 0.8; stroke-linecap: square"/>
     </g>
     <g id="line2d_50">
      <g>
       <use xlink:href="#m0850b445de" x="680.294085" y="354.958125" style="stroke: #000000; stroke-width: 0.8"/>
      </g>
     </g>
     <g id="text_25">
      <!-- Sunday 00:00 -->
      <g transform="translate(629.739265 416.415291) rotate(-45) scale(0.1 -0.1)">
       <use xlink:href="#DejaVuSans-53"/>
       <use xlink:href="#DejaVuSans-75" x="63.476562"/>
       <use xlink:href="#DejaVuSans-6e" x="126.855469"/>
       <use xlink:href="#DejaVuSans-64" x="190.234375"/>
       <use xlink:href="#DejaVuSans-61" x="253.710938"/>
       <use xlink:href="#DejaVuSans-79" x="314.990234"/>
       <use xlink:href="#DejaVuSans-20" x="374.169922"/>
       <use xlink:href="#DejaVuSans-30" x="405.957031"/>
       <use xlink:href="#DejaVuSans-30" x="469.580078"/>
       <use xlink:href="#DejaVuSans-3a" x="533.203125"/>
       <use xlink:href="#DejaVuSans-30" x="566.894531"/>
       <use xlink:href="#DejaVuSans-30" x="630.517578"/>
      </g>
     </g>
    </g>
    <g id="xtick_26">
     <g id="line2d_51">
      <path d="M 705.733434 354.958125 
L 705.733434 22.318125 
" clip-path="url(#p3915814156)" style="fill: none; stroke: #b0b0b0; stroke-width: 0.8; stroke-linecap: square"/>
     </g>
     <g id="line2d_52">
      <g>
       <use xlink:href="#m0850b445de" x="705.733434" y="354.958125" style="stroke: #000000; stroke-width: 0.8"/>
      </g>
     </g>
     <g id="text_26">
      <!-- 06:00 -->
      <g transform="translate(683.884939 387.708965) rotate(-45) scale(0.1 -0.1)">
       <use xlink:href="#DejaVuSans-30"/>
       <use xlink:href="#DejaVuSans-36" x="63.623047"/>
       <use xlink:href="#DejaVuSans-3a" x="127.246094"/>
       <use xlink:href="#DejaVuSans-30" x="160.9375"/>
       <use xlink:href="#DejaVuSans-30" x="224.560547"/>
      </g>
     </g>
    </g>
    <g id="xtick_27">
     <g id="line2d_53">
      <path d="M 731.172782 354.958125 
L 731.172782 22.318125 
" clip-path="url(#p3915814156)" style="fill: none; stroke: #b0b0b0; stroke-width: 0.8; stroke-linecap: square"/>
     </g>
     <g id="line2d_54">
      <g>
       <use xlink:href="#m0850b445de" x="731.172782" y="354.958125" style="stroke: #000000; stroke-width: 0.8"/>
      </g>
     </g>
     <g id="text_27">
      <!-- 12:00 -->
      <g transform="translate(709.324288 387.708965) rotate(-45) scale(0.1 -0.1)">
       <use xlink:href="#DejaVuSans-31"/>
       <use xlink:href="#DejaVuSans-32" x="63.623047"/>
       <use xlink:href="#DejaVuSans-3a" x="127.246094"/>
       <use xlink:href="#DejaVuSans-30" x="160.9375"/>
       <use xlink:href="#DejaVuSans-30" x="224.560547"/>
      </g>
     </g>
    </g>
    <g id="xtick_28">
     <g id="line2d_55">
      <path d="M 756.612131 354.958125 
L 756.612131 22.318125 
" clip-path="url(#p3915814156)" style="fill: none; stroke: #b0b0b0; stroke-width: 0.8; stroke-linecap: square"/>
     </g>
     <g id="line2d_56">
      <g>
       <use xlink:href="#m0850b445de" x="756.612131" y="354.958125" style="stroke: #000000; stroke-width: 0.8"/>
      </g>
     </g>
     <g id="text_28">
      <!-- 18:00 -->
      <g transform="translate(734.763636 387.708965) rotate(-45) scale(0.1 -0.1)">
       <use xlink:href="#DejaVuSans-31"/>
       <use xlink:href="#DejaVuSans-38" x="63.623047"/>
       <use xlink:href="#DejaVuSans-3a" x="127.246094"/>
       <use xlink:href="#DejaVuSans-30" x="160.9375"/>
       <use xlink:href="#DejaVuSans-30" x="224.560547"/>
      </g>
     </g>
    </g>
    <g id="text_29">
     <!-- Time -->
     <g transform="translate(412.607031 443.964511) scale(0.1 -0.1)">
      <defs>
       <path id="DejaVuSans-6d" d="M 3328 2828 
Q 3544 3216 3844 3400 
Q 4144 3584 4550 3584 
Q 5097 3584 5394 3201 
Q 5691 2819 5691 2113 
L 5691 0 
L 5113 0 
L 5113 2094 
Q 5113 2597 4934 2840 
Q 4756 3084 4391 3084 
Q 3944 3084 3684 2787 
Q 3425 2491 3425 1978 
L 3425 0 
L 2847 0 
L 2847 2094 
Q 2847 2600 2669 2842 
Q 2491 3084 2119 3084 
Q 1678 3084 1418 2786 
Q 1159 2488 1159 1978 
L 1159 0 
L 581 0 
L 581 3500 
L 1159 3500 
L 1159 2956 
Q 1356 3278 1631 3431 
Q 1906 3584 2284 3584 
Q 2666 3584 2933 3390 
Q 3200 3197 3328 2828 
z
" transform="scale(0.015625)"/>
      </defs>
      <use xlink:href="#DejaVuSans-54"/>
      <use xlink:href="#DejaVuSans-69" x="57.958984"/>
      <use xlink:href="#DejaVuSans-6d" x="85.742188"/>
      <use xlink:href="#DejaVuSans-65" x="183.154297"/>
     </g>
    </g>
   </g>
   <g id="matplotlib.axis_2">
    <g id="ytick_1">
     <g id="line2d_57">
      <path d="M 34.240625 324.894246 
L 815.440625 324.894246 
" clip-path="url(#p3915814156)" style="fill: none; stroke: #b0b0b0; stroke-width: 0.8; stroke-linecap: square"/>
     </g>
     <g id="line2d_58">
      <defs>
       <path id="mbee796d2ab" d="M 0 0 
L -3.5 0 
" style="stroke: #000000; stroke-width: 0.8"/>
      </defs>
      <g>
       <use xlink:href="#mbee796d2ab" x="34.240625" y="324.894246" style="stroke: #000000; stroke-width: 0.8"/>
      </g>
     </g>
     <g id="text_30">
      <!-- 0 -->
      <g transform="translate(20.878125 328.693465) scale(0.1 -0.1)">
       <use xlink:href="#DejaVuSans-30"/>
      </g>
     </g>
    </g>
    <g id="ytick_2">
     <g id="line2d_59">
      <path d="M 34.240625 257.891717 
L 815.440625 257.891717 
" clip-path="url(#p3915814156)" style="fill: none; stroke: #b0b0b0; stroke-width: 0.8; stroke-linecap: square"/>
     </g>
     <g id="line2d_60">
      <g>
       <use xlink:href="#mbee796d2ab" x="34.240625" y="257.891717" style="stroke: #000000; stroke-width: 0.8"/>
      </g>
     </g>
     <g id="text_31">
      <!-- 2 -->
      <g transform="translate(20.878125 261.690936) scale(0.1 -0.1)">
       <use xlink:href="#DejaVuSans-32"/>
      </g>
     </g>
    </g>
    <g id="ytick_3">
     <g id="line2d_61">
      <path d="M 34.240625 190.889188 
L 815.440625 190.889188 
" clip-path="url(#p3915814156)" style="fill: none; stroke: #b0b0b0; stroke-width: 0.8; stroke-linecap: square"/>
     </g>
     <g id="line2d_62">
      <g>
       <use xlink:href="#mbee796d2ab" x="34.240625" y="190.889188" style="stroke: #000000; stroke-width: 0.8"/>
      </g>
     </g>
     <g id="text_32">
      <!-- 4 -->
      <g transform="translate(20.878125 194.688407) scale(0.1 -0.1)">
       <defs>
        <path id="DejaVuSans-34" d="M 2419 4116 
L 825 1625 
L 2419 1625 
L 2419 4116 
z
M 2253 4666 
L 3047 4666 
L 3047 1625 
L 3713 1625 
L 3713 1100 
L 3047 1100 
L 3047 0 
L 2419 0 
L 2419 1100 
L 313 1100 
L 313 1709 
L 2253 4666 
z
" transform="scale(0.015625)"/>
       </defs>
       <use xlink:href="#DejaVuSans-34"/>
      </g>
     </g>
    </g>
    <g id="ytick_4">
     <g id="line2d_63">
      <path d="M 34.240625 123.886659 
L 815.440625 123.886659 
" clip-path="url(#p3915814156)" style="fill: none; stroke: #b0b0b0; stroke-width: 0.8; stroke-linecap: square"/>
     </g>
     <g id="line2d_64">
      <g>
       <use xlink:href="#mbee796d2ab" x="34.240625" y="123.886659" style="stroke: #000000; stroke-width: 0.8"/>
      </g>
     </g>
     <g id="text_33">
      <!-- 6 -->
      <g transform="translate(20.878125 127.685878) scale(0.1 -0.1)">
       <use xlink:href="#DejaVuSans-36"/>
      </g>
     </g>
    </g>
    <g id="ytick_5">
     <g id="line2d_65">
      <path d="M 34.240625 56.88413 
L 815.440625 56.88413 
" clip-path="url(#p3915814156)" style="fill: none; stroke: #b0b0b0; stroke-width: 0.8; stroke-linecap: square"/>
     </g>
     <g id="line2d_66">
      <g>
       <use xlink:href="#mbee796d2ab" x="34.240625" y="56.88413" style="stroke: #000000; stroke-width: 0.8"/>
      </g>
     </g>
     <g id="text_34">
      <!-- 8 -->
      <g transform="translate(20.878125 60.683349) scale(0.1 -0.1)">
       <use xlink:href="#DejaVuSans-38"/>
      </g>
     </g>
    </g>
    <g id="text_35">
     <!-- Power Usage (Wh/m^2, P1) -->
     <g transform="translate(14.798438 257.823281) rotate(-90) scale(0.1 -0.1)">
      <defs>
       <path id="DejaVuSans-50" d="M 1259 4147 
L 1259 2394 
L 2053 2394 
Q 2494 2394 2734 2622 
Q 2975 2850 2975 3272 
Q 2975 3691 2734 3919 
Q 2494 4147 2053 4147 
L 1259 4147 
z
M 628 4666 
L 2053 4666 
Q 2838 4666 3239 4311 
Q 3641 3956 3641 3272 
Q 3641 2581 3239 2228 
Q 2838 1875 2053 1875 
L 1259 1875 
L 1259 0 
L 628 0 
L 628 4666 
z
" transform="scale(0.015625)"/>
       <path id="DejaVuSans-77" d="M 269 3500 
L 844 3500 
L 1563 769 
L 2278 3500 
L 2956 3500 
L 3675 769 
L 4391 3500 
L 4966 3500 
L 4050 0 
L 3372 0 
L 2619 2869 
L 1863 0 
L 1184 0 
L 269 3500 
z
" transform="scale(0.015625)"/>
       <path id="DejaVuSans-55" d="M 556 4666 
L 1191 4666 
L 1191 1831 
Q 1191 1081 1462 751 
Q 1734 422 2344 422 
Q 2950 422 3222 751 
Q 3494 1081 3494 1831 
L 3494 4666 
L 4128 4666 
L 4128 1753 
Q 4128 841 3676 375 
Q 3225 -91 2344 -91 
Q 1459 -91 1007 375 
Q 556 841 556 1753 
L 556 4666 
z
" transform="scale(0.015625)"/>
       <path id="DejaVuSans-67" d="M 2906 1791 
Q 2906 2416 2648 2759 
Q 2391 3103 1925 3103 
Q 1463 3103 1205 2759 
Q 947 2416 947 1791 
Q 947 1169 1205 825 
Q 1463 481 1925 481 
Q 2391 481 2648 825 
Q 2906 1169 2906 1791 
z
M 3481 434 
Q 3481 -459 3084 -895 
Q 2688 -1331 1869 -1331 
Q 1566 -1331 1297 -1286 
Q 1028 -1241 775 -1147 
L 775 -588 
Q 1028 -725 1275 -790 
Q 1522 -856 1778 -856 
Q 2344 -856 2625 -561 
Q 2906 -266 2906 331 
L 2906 616 
Q 2728 306 2450 153 
Q 2172 0 1784 0 
Q 1141 0 747 490 
Q 353 981 353 1791 
Q 353 2603 747 3093 
Q 1141 3584 1784 3584 
Q 2172 3584 2450 3431 
Q 2728 3278 2906 2969 
L 2906 3500 
L 3481 3500 
L 3481 434 
z
" transform="scale(0.015625)"/>
       <path id="DejaVuSans-28" d="M 1984 4856 
Q 1566 4138 1362 3434 
Q 1159 2731 1159 2009 
Q 1159 1288 1364 580 
Q 1569 -128 1984 -844 
L 1484 -844 
Q 1016 -109 783 600 
Q 550 1309 550 2009 
Q 550 2706 781 3412 
Q 1013 4119 1484 4856 
L 1984 4856 
z
" transform="scale(0.015625)"/>
       <path id="DejaVuSans-2f" d="M 1625 4666 
L 2156 4666 
L 531 -594 
L 0 -594 
L 1625 4666 
z
" transform="scale(0.015625)"/>
       <path id="DejaVuSans-5e" d="M 2988 4666 
L 4684 2925 
L 4056 2925 
L 2681 4159 
L 1306 2925 
L 678 2925 
L 2375 4666 
L 2988 4666 
z
" transform="scale(0.015625)"/>
       <path id="DejaVuSans-2c" d="M 750 794 
L 1409 794 
L 1409 256 
L 897 -744 
L 494 -744 
L 750 256 
L 750 794 
z
" transform="scale(0.015625)"/>
       <path id="DejaVuSans-29" d="M 513 4856 
L 1013 4856 
Q 1481 4119 1714 3412 
Q 1947 2706 1947 2009 
Q 1947 1309 1714 600 
Q 1481 -109 1013 -844 
L 513 -844 
Q 928 -128 1133 580 
Q 1338 1288 1338 2009 
Q 1338 2731 1133 3434 
Q 928 4138 513 4856 
z
" transform="scale(0.015625)"/>
      </defs>
      <use xlink:href="#DejaVuSans-50"/>
      <use xlink:href="#DejaVuSans-6f" x="56.677734"/>
      <use xlink:href="#DejaVuSans-77" x="117.859375"/>
      <use xlink:href="#DejaVuSans-65" x="199.646484"/>
      <use xlink:href="#DejaVuSans-72" x="261.169922"/>
      <use xlink:href="#DejaVuSans-20" x="302.283203"/>
      <use xlink:href="#DejaVuSans-55" x="334.070312"/>
      <use xlink:href="#DejaVuSans-73" x="407.263672"/>
      <use xlink:href="#DejaVuSans-61" x="459.363281"/>
      <use xlink:href="#DejaVuSans-67" x="520.642578"/>
      <use xlink:href="#DejaVuSans-65" x="584.119141"/>
      <use xlink:href="#DejaVuSans-20" x="645.642578"/>
      <use xlink:href="#DejaVuSans-28" x="677.429688"/>
      <use xlink:href="#DejaVuSans-57" x="716.443359"/>
      <use xlink:href="#DejaVuSans-68" x="815.320312"/>
      <use xlink:href="#DejaVuSans-2f" x="878.699219"/>
      <use xlink:href="#DejaVuSans-6d" x="912.390625"/>
      <use xlink:href="#DejaVuSans-5e" x="1009.802734"/>
      <use xlink:href="#DejaVuSans-32" x="1093.591797"/>
      <use xlink:href="#DejaVuSans-2c" x="1157.214844"/>
      <use xlink:href="#DejaVuSans-20" x="1189.001953"/>
      <use xlink:href="#DejaVuSans-50" x="1220.789062"/>
      <use xlink:href="#DejaVuSans-31" x="1281.091797"/>
      <use xlink:href="#DejaVuSans-29" x="1344.714844"/>
     </g>
    </g>
   </g>
   <g id="line2d_67">
    <path d="M 69.749716 249.02379 
L 71.869662 250.170193 
L 73.989607 250.073768 
L 76.109553 248.819691 
L 78.229499 249.769837 
L 80.349445 251.167191 
L 82.46939 249.531308 
L 84.589336 247.633432 
L 86.709282 250.139193 
L 90.949173 250.39128 
L 93.069119 247.889704 
L 95.189065 248.999627 
L 97.30901 248.101879 
L 99.428956 251.317745 
L 101.548902 244.660193 
L 103.668848 226.62076 
L 105.788793 220.517274 
L 107.908739 183.754474 
L 110.028685 174.886625 
L 112.14863 178.531683 
L 114.268576 179.334932 
L 116.388522 174.333615 
L 118.508468 175.267672 
L 120.628413 175.321058 
L 122.748359 179.169185 
L 124.868305 177.513006 
L 126.988251 175.179181 
L 129.108196 179.167345 
L 131.228142 180.520177 
L 133.348088 179.328303 
L 135.468033 181.369868 
L 137.587979 181.801945 
L 139.707925 183.478939 
L 141.827871 184.692499 
L 143.947816 190.845177 
L 146.067762 195.028675 
L 148.187708 216.509976 
L 150.307653 233.243973 
L 152.427599 238.137141 
L 154.547545 240.735441 
L 156.667491 242.561214 
L 158.787436 241.091256 
L 160.907382 241.903807 
L 163.027328 243.41826 
L 165.147274 242.94702 
L 167.267219 246.583346 
L 169.387165 247.928823 
L 171.507111 249.803744 
L 173.627056 250.881782 
L 175.747002 249.840717 
L 177.866948 249.907659 
L 179.986894 249.389549 
L 182.106839 249.684701 
L 184.226785 246.55241 
L 186.346731 248.238471 
L 188.466677 248.931189 
L 190.586622 249.767462 
L 192.706568 249.697154 
L 194.826514 246.889545 
L 196.946459 247.441212 
L 199.066405 247.190602 
L 201.186351 251.27008 
L 203.306297 244.870214 
L 205.426242 223.771926 
L 207.546188 216.581578 
L 209.666134 183.982997 
L 211.78608 174.588424 
L 213.906025 179.133156 
L 216.025971 179.761967 
L 218.145917 176.606832 
L 220.265862 175.82032 
L 222.385808 177.185964 
L 224.505754 176.386518 
L 226.6257 176.290923 
L 228.745645 174.79036 
L 230.865591 172.280097 
L 232.985537 176.228079 
L 235.105483 172.061188 
L 237.225428 174.39758 
L 239.345374 177.056048 
L 241.46532 177.613662 
L 243.585265 180.753279 
L 245.705211 186.911096 
L 247.825157 190.411075 
L 249.945103 215.024544 
L 252.065048 232.177717 
L 254.184994 237.759845 
L 256.30494 241.864576 
L 258.424886 244.554333 
L 260.544831 241.779087 
L 262.664777 244.029334 
L 264.784723 243.521285 
L 266.904668 242.381391 
L 269.024614 245.098238 
L 271.14456 248.582726 
L 273.264506 249.72252 
L 275.384451 249.770074 
L 277.504397 247.662172 
L 281.744289 245.74192 
L 283.864234 249.112017 
L 285.98418 247.071745 
L 288.104126 246.549756 
L 290.224071 249.048159 
L 292.344017 250.048399 
L 294.463963 249.432614 
L 296.583909 246.876502 
L 298.703854 247.452617 
L 300.8238 248.209775 
L 302.943746 249.557263 
L 305.063691 245.518545 
L 307.183637 223.509157 
L 309.303583 207.985302 
L 311.423529 189.301108 
L 313.543474 179.197871 
L 315.66342 178.611197 
L 317.783366 177.01292 
L 319.903312 177.622726 
L 322.023257 174.132194 
L 324.143203 176.539699 
L 326.263149 179.773272 
L 328.383094 178.886775 
L 330.50304 176.753554 
L 332.622986 175.149563 
L 334.742932 178.798973 
L 336.862877 177.844373 
L 338.982823 179.284166 
L 341.102769 176.82309 
L 343.222715 180.88705 
L 345.34266 180.943691 
L 347.462606 185.016423 
L 349.582552 191.597775 
L 351.702497 213.916228 
L 353.822443 231.264465 
L 355.942389 232.153048 
L 358.062335 239.521816 
L 360.18228 241.84119 
L 362.302226 242.073977 
L 364.422172 241.773866 
L 366.542118 241.723913 
L 368.662063 243.318455 
L 370.782009 243.396805 
L 372.901955 246.933335 
L 375.0219 247.93902 
L 377.141846 250.736746 
L 379.261792 248.241411 
L 381.381738 247.864125 
L 383.501683 246.954122 
L 385.621629 247.296154 
L 387.741575 247.149457 
L 389.861521 247.524031 
L 391.981466 248.351924 
L 394.101412 249.643576 
L 396.221358 246.674541 
L 398.341303 246.798223 
L 400.461249 248.352309 
L 402.581195 247.457878 
L 404.701141 251.57407 
L 406.821086 243.361689 
L 411.060978 208.7964 
L 413.180924 183.807644 
L 415.300869 171.164428 
L 417.420815 174.625972 
L 419.540761 180.305244 
L 423.780652 175.486917 
L 425.900598 174.289246 
L 428.020544 177.678958 
L 430.140489 170.606643 
L 432.260435 173.59925 
L 434.380381 174.688399 
L 436.500326 177.149896 
L 438.620272 173.854955 
L 440.740218 175.012455 
L 442.860164 174.605889 
L 444.980109 181.752401 
L 447.100055 176.829515 
L 451.339947 190.268606 
L 453.459892 212.711099 
L 455.579838 231.66128 
L 457.699784 231.75187 
L 459.819729 242.304768 
L 461.939675 243.841978 
L 464.059621 241.739072 
L 466.179567 242.928355 
L 468.299512 241.40608 
L 470.419458 241.947186 
L 472.539404 243.320538 
L 474.65935 246.205163 
L 476.779295 247.320483 
L 478.899241 249.788271 
L 481.019187 247.713233 
L 483.139132 247.73424 
L 485.259078 246.702099 
L 487.379024 247.096934 
L 489.49897 248.348427 
L 491.618915 246.441054 
L 493.738861 248.272594 
L 495.858807 249.220918 
L 497.978753 247.259057 
L 500.098698 247.843307 
L 502.218644 247.121086 
L 504.33859 247.253108 
L 506.458535 249.965092 
L 508.578481 240.526666 
L 510.698427 218.734854 
L 512.818373 217.734675 
L 514.938318 190.360038 
L 517.058264 180.055414 
L 519.17821 180.790054 
L 521.298156 183.743044 
L 523.418101 181.655019 
L 525.538047 183.138177 
L 527.657993 180.535449 
L 529.777938 184.185666 
L 531.897884 180.678104 
L 534.01783 180.300437 
L 536.137776 177.002506 
L 538.257721 178.838073 
L 540.377667 175.717845 
L 544.617559 174.735016 
L 546.737504 179.752422 
L 548.85745 180.884208 
L 553.097341 190.841291 
L 555.217287 215.265211 
L 557.337233 233.464021 
L 559.457179 231.776849 
L 561.577124 238.861252 
L 563.69707 240.964467 
L 565.817016 240.558756 
L 567.936961 242.331216 
L 570.056907 244.645935 
L 572.176853 245.226937 
L 574.296799 247.696057 
L 576.416744 248.271099 
L 578.53669 248.673689 
L 580.656636 249.436807 
L 582.776582 249.064979 
L 584.896527 249.13073 
L 587.016473 248.369882 
L 589.136419 250.373534 
L 591.256364 248.589516 
L 593.37631 247.440797 
L 597.616202 251.903102 
L 599.736147 248.806091 
L 603.976039 247.711756 
L 606.095985 249.821032 
L 608.21593 252.801389 
L 610.335876 247.820493 
L 612.455822 229.316929 
L 614.575767 226.280495 
L 616.695713 204.652793 
L 618.815659 192.156713 
L 620.935605 192.666895 
L 623.05555 194.556958 
L 625.175496 190.974781 
L 627.295442 191.468162 
L 629.415388 192.425396 
L 631.535333 196.042702 
L 633.655279 191.821711 
L 635.775225 190.544646 
L 637.89517 191.132662 
L 640.015116 193.626752 
L 642.135062 192.207139 
L 644.255008 189.44988 
L 646.374953 190.758541 
L 648.494899 194.446122 
L 650.614845 189.712751 
L 652.734791 212.243883 
L 654.854736 230.296154 
L 656.974682 243.993165 
L 659.094628 245.806192 
L 661.214573 238.551665 
L 663.334519 244.628681 
L 665.454465 245.450692 
L 667.574411 245.465365 
L 669.694356 243.196793 
L 671.814302 245.755482 
L 673.934248 246.546738 
L 676.054194 249.00828 
L 678.174139 251.12897 
L 680.294085 249.873193 
L 682.414031 250.266817 
L 684.533976 248.184425 
L 686.653922 249.946645 
L 688.773868 250.159141 
L 690.893814 248.962415 
L 693.013759 248.767081 
L 695.133705 247.759979 
L 697.253651 248.653538 
L 699.373597 251.501054 
L 701.493542 249.974501 
L 703.613488 248.911767 
L 705.733434 249.827916 
L 709.973325 248.784863 
L 712.093271 241.99754 
L 714.213217 229.272677 
L 716.333162 234.653564 
L 718.453108 208.360214 
L 720.573054 194.090403 
L 722.692999 192.882433 
L 724.812945 192.326269 
L 726.932891 191.151779 
L 729.052837 188.691065 
L 731.172782 189.930101 
L 733.292728 192.025091 
L 735.412674 190.911866 
L 737.53262 191.164152 
L 739.652565 188.726476 
L 741.772511 193.520129 
L 743.892457 193.480674 
L 746.012402 196.403849 
L 748.132348 209.821151 
L 750.252294 237.95705 
L 752.37224 243.658576 
L 754.492185 236.20892 
L 756.612131 239.498604 
L 758.732077 243.410245 
L 760.852023 242.651155 
L 762.971968 244.528603 
L 765.091914 244.612098 
L 767.21186 244.02753 
L 769.331805 243.086684 
L 771.451751 240.841138 
L 773.571697 240.280507 
L 775.691643 240.863694 
L 777.811588 245.973799 
L 779.931534 248.464069 
L 779.931534 248.464069 
" clip-path="url(#p3915814156)" style="fill: none; stroke: #ff0000; stroke-opacity: 0.4; stroke-width: 1.5; stroke-linecap: square"/>
   </g>
   <g id="line2d_68">
    <path d="M 69.749716 324.894246 
L 419.540761 324.894246 
L 421.660706 311.358382 
L 423.780652 324.894246 
L 779.931534 324.894246 
L 779.931534 324.894246 
" clip-path="url(#p3915814156)" style="fill: none; stroke: #0000ff; stroke-width: 1.5; stroke-linecap: square"/>
   </g>
   <g id="patch_11">
    <path d="M 34.240625 354.958125 
L 34.240625 22.318125 
" style="fill: none; stroke: #000000; stroke-width: 0.8; stroke-linejoin: miter; stroke-linecap: square"/>
   </g>
   <g id="patch_12">
    <path d="M 815.440625 354.958125 
L 815.440625 22.318125 
" style="fill: none; stroke: #000000; stroke-width: 0.8; stroke-linejoin: miter; stroke-linecap: square"/>
   </g>
   <g id="patch_13">
    <path d="M 34.240625 354.958125 
L 815.440625 354.958125 
" style="fill: none; stroke: #000000; stroke-width: 0.8; stroke-linejoin: miter; stroke-linecap: square"/>
   </g>
   <g id="patch_14">
    <path d="M 34.240625 22.318125 
L 815.440625 22.318125 
" style="fill: none; stroke: #000000; stroke-width: 0.8; stroke-linejoin: miter; stroke-linecap: square"/>
   </g>
   <g id="text_36">
    <!-- benchmarkdata for "Shopping Mall/Retail centre" Market sector using 30 sampled meters, constructed with 372,477 samples -->
    <g transform="translate(48.55625 16.318125) scale(0.12 -0.12)">
     <defs>
      <path id="DejaVuSans-62" d="M 3116 1747 
Q 3116 2381 2855 2742 
Q 2594 3103 2138 3103 
Q 1681 3103 1420 2742 
Q 1159 2381 1159 1747 
Q 1159 1113 1420 752 
Q 1681 391 2138 391 
Q 2594 391 2855 752 
Q 3116 1113 3116 1747 
z
M 1159 2969 
Q 1341 3281 1617 3432 
Q 1894 3584 2278 3584 
Q 2916 3584 3314 3078 
Q 3713 2572 3713 1747 
Q 3713 922 3314 415 
Q 2916 -91 2278 -91 
Q 1894 -91 1617 61 
Q 1341 213 1159 525 
L 1159 0 
L 581 0 
L 581 4863 
L 1159 4863 
L 1159 2969 
z
" transform="scale(0.015625)"/>
      <path id="DejaVuSans-63" d="M 3122 3366 
L 3122 2828 
Q 2878 2963 2633 3030 
Q 2388 3097 2138 3097 
Q 1578 3097 1268 2742 
Q 959 2388 959 1747 
Q 959 1106 1268 751 
Q 1578 397 2138 397 
Q 2388 397 2633 464 
Q 2878 531 3122 666 
L 3122 134 
Q 2881 22 2623 -34 
Q 2366 -91 2075 -91 
Q 1284 -91 818 406 
Q 353 903 353 1747 
Q 353 2603 823 3093 
Q 1294 3584 2113 3584 
Q 2378 3584 2631 3529 
Q 2884 3475 3122 3366 
z
" transform="scale(0.015625)"/>
      <path id="DejaVuSans-6b" d="M 581 4863 
L 1159 4863 
L 1159 1991 
L 2875 3500 
L 3609 3500 
L 1753 1863 
L 3688 0 
L 2938 0 
L 1159 1709 
L 1159 0 
L 581 0 
L 581 4863 
z
" transform="scale(0.015625)"/>
      <path id="DejaVuSans-66" d="M 2375 4863 
L 2375 4384 
L 1825 4384 
Q 1516 4384 1395 4259 
Q 1275 4134 1275 3809 
L 1275 3500 
L 2222 3500 
L 2222 3053 
L 1275 3053 
L 1275 0 
L 697 0 
L 697 3053 
L 147 3053 
L 147 3500 
L 697 3500 
L 697 3744 
Q 697 4328 969 4595 
Q 1241 4863 1831 4863 
L 2375 4863 
z
" transform="scale(0.015625)"/>
      <path id="DejaVuSans-22" d="M 1147 4666 
L 1147 2931 
L 616 2931 
L 616 4666 
L 1147 4666 
z
M 2328 4666 
L 2328 2931 
L 1797 2931 
L 1797 4666 
L 2328 4666 
z
" transform="scale(0.015625)"/>
      <path id="DejaVuSans-70" d="M 1159 525 
L 1159 -1331 
L 581 -1331 
L 581 3500 
L 1159 3500 
L 1159 2969 
Q 1341 3281 1617 3432 
Q 1894 3584 2278 3584 
Q 2916 3584 3314 3078 
Q 3713 2572 3713 1747 
Q 3713 922 3314 415 
Q 2916 -91 2278 -91 
Q 1894 -91 1617 61 
Q 1341 213 1159 525 
z
M 3116 1747 
Q 3116 2381 2855 2742 
Q 2594 3103 2138 3103 
Q 1681 3103 1420 2742 
Q 1159 2381 1159 1747 
Q 1159 1113 1420 752 
Q 1681 391 2138 391 
Q 2594 391 2855 752 
Q 3116 1113 3116 1747 
z
" transform="scale(0.015625)"/>
      <path id="DejaVuSans-6c" d="M 603 4863 
L 1178 4863 
L 1178 0 
L 603 0 
L 603 4863 
z
" transform="scale(0.015625)"/>
      <path id="DejaVuSans-52" d="M 2841 2188 
Q 3044 2119 3236 1894 
Q 3428 1669 3622 1275 
L 4263 0 
L 3584 0 
L 2988 1197 
Q 2756 1666 2539 1819 
Q 2322 1972 1947 1972 
L 1259 1972 
L 1259 0 
L 628 0 
L 628 4666 
L 2053 4666 
Q 2853 4666 3247 4331 
Q 3641 3997 3641 3322 
Q 3641 2881 3436 2590 
Q 3231 2300 2841 2188 
z
M 1259 4147 
L 1259 2491 
L 2053 2491 
Q 2509 2491 2742 2702 
Q 2975 2913 2975 3322 
Q 2975 3731 2742 3939 
Q 2509 4147 2053 4147 
L 1259 4147 
z
" transform="scale(0.015625)"/>
      <path id="DejaVuSans-33" d="M 2597 2516 
Q 3050 2419 3304 2112 
Q 3559 1806 3559 1356 
Q 3559 666 3084 287 
Q 2609 -91 1734 -91 
Q 1441 -91 1130 -33 
Q 819 25 488 141 
L 488 750 
Q 750 597 1062 519 
Q 1375 441 1716 441 
Q 2309 441 2620 675 
Q 2931 909 2931 1356 
Q 2931 1769 2642 2001 
Q 2353 2234 1838 2234 
L 1294 2234 
L 1294 2753 
L 1863 2753 
Q 2328 2753 2575 2939 
Q 2822 3125 2822 3475 
Q 2822 3834 2567 4026 
Q 2313 4219 1838 4219 
Q 1578 4219 1281 4162 
Q 984 4106 628 3988 
L 628 4550 
Q 988 4650 1302 4700 
Q 1616 4750 1894 4750 
Q 2613 4750 3031 4423 
Q 3450 4097 3450 3541 
Q 3450 3153 3228 2886 
Q 3006 2619 2597 2516 
z
" transform="scale(0.015625)"/>
      <path id="DejaVuSans-37" d="M 525 4666 
L 3525 4666 
L 3525 4397 
L 1831 0 
L 1172 0 
L 2766 4134 
L 525 4134 
L 525 4666 
z
" transform="scale(0.015625)"/>
     </defs>
     <use xlink:href="#DejaVuSans-62"/>
     <use xlink:href="#DejaVuSans-65" x="63.476562"/>
     <use xlink:href="#DejaVuSans-6e" x="125"/>
     <use xlink:href="#DejaVuSans-63" x="188.378906"/>
     <use xlink:href="#DejaVuSans-68" x="243.359375"/>
     <use xlink:href="#DejaVuSans-6d" x="306.738281"/>
     <use xlink:href="#DejaVuSans-61" x="404.150391"/>
     <use xlink:href="#DejaVuSans-72" x="465.429688"/>
     <use xlink:href="#DejaVuSans-6b" x="506.542969"/>
     <use xlink:href="#DejaVuSans-64" x="564.453125"/>
     <use xlink:href="#DejaVuSans-61" x="627.929688"/>
     <use xlink:href="#DejaVuSans-74" x="689.208984"/>
     <use xlink:href="#DejaVuSans-61" x="728.417969"/>
     <use xlink:href="#DejaVuSans-20" x="789.697266"/>
     <use xlink:href="#DejaVuSans-66" x="821.484375"/>
     <use xlink:href="#DejaVuSans-6f" x="856.689453"/>
     <use xlink:href="#DejaVuSans-72" x="917.871094"/>
     <use xlink:href="#DejaVuSans-20" x="958.984375"/>
     <use xlink:href="#DejaVuSans-22" x="990.771484"/>
     <use xlink:href="#DejaVuSans-53" x="1036.767578"/>
     <use xlink:href="#DejaVuSans-68" x="1100.244141"/>
     <use xlink:href="#DejaVuSans-6f" x="1163.623047"/>
     <use xlink:href="#DejaVuSans-70" x="1224.804688"/>
     <use xlink:href="#DejaVuSans-70" x="1288.28125"/>
     <use xlink:href="#DejaVuSans-69" x="1351.757812"/>
     <use xlink:href="#DejaVuSans-6e" x="1379.541016"/>
     <use xlink:href="#DejaVuSans-67" x="1442.919922"/>
     <use xlink:href="#DejaVuSans-20" x="1506.396484"/>
     <use xlink:href="#DejaVuSans-4d" x="1538.183594"/>
     <use xlink:href="#DejaVuSans-61" x="1624.462891"/>
     <use xlink:href="#DejaVuSans-6c" x="1685.742188"/>
     <use xlink:href="#DejaVuSans-6c" x="1713.525391"/>
     <use xlink:href="#DejaVuSans-2f" x="1741.308594"/>
     <use xlink:href="#DejaVuSans-52" x="1775"/>
     <use xlink:href="#DejaVuSans-65" x="1839.982422"/>
     <use xlink:href="#DejaVuSans-74" x="1901.505859"/>
     <use xlink:href="#DejaVuSans-61" x="1940.714844"/>
     <use xlink:href="#DejaVuSans-69" x="2001.994141"/>
     <use xlink:href="#DejaVuSans-6c" x="2029.777344"/>
     <use xlink:href="#DejaVuSans-20" x="2057.560547"/>
     <use xlink:href="#DejaVuSans-63" x="2089.347656"/>
     <use xlink:href="#DejaVuSans-65" x="2144.328125"/>
     <use xlink:href="#DejaVuSans-6e" x="2205.851562"/>
     <use xlink:href="#DejaVuSans-74" x="2269.230469"/>
     <use xlink:href="#DejaVuSans-72" x="2308.439453"/>
     <use xlink:href="#DejaVuSans-65" x="2347.302734"/>
     <use xlink:href="#DejaVuSans-22" x="2408.826172"/>
     <use xlink:href="#DejaVuSans-20" x="2454.822266"/>
     <use xlink:href="#DejaVuSans-4d" x="2486.609375"/>
     <use xlink:href="#DejaVuSans-61" x="2572.888672"/>
     <use xlink:href="#DejaVuSans-72" x="2634.167969"/>
     <use xlink:href="#DejaVuSans-6b" x="2675.28125"/>
     <use xlink:href="#DejaVuSans-65" x="2729.566406"/>
     <use xlink:href="#DejaVuSans-74" x="2791.089844"/>
     <use xlink:href="#DejaVuSans-20" x="2830.298828"/>
     <use xlink:href="#DejaVuSans-73" x="2862.085938"/>
     <use xlink:href="#DejaVuSans-65" x="2914.185547"/>
     <use xlink:href="#DejaVuSans-63" x="2975.708984"/>
     <use xlink:href="#DejaVuSans-74" x="3030.689453"/>
     <use xlink:href="#DejaVuSans-6f" x="3069.898438"/>
     <use xlink:href="#DejaVuSans-72" x="3131.080078"/>
     <use xlink:href="#DejaVuSans-20" x="3172.193359"/>
     <use xlink:href="#DejaVuSans-75" x="3203.980469"/>
     <use xlink:href="#DejaVuSans-73" x="3267.359375"/>
     <use xlink:href="#DejaVuSans-69" x="3319.458984"/>
     <use xlink:href="#DejaVuSans-6e" x="3347.242188"/>
     <use xlink:href="#DejaVuSans-67" x="3410.621094"/>
     <use xlink:href="#DejaVuSans-20" x="3474.097656"/>
     <use xlink:href="#DejaVuSans-33" x="3505.884766"/>
     <use xlink:href="#DejaVuSans-30" x="3569.507812"/>
     <use xlink:href="#DejaVuSans-20" x="3633.130859"/>
     <use xlink:href="#DejaVuSans-73" x="3664.917969"/>
     <use xlink:href="#DejaVuSans-61" x="3717.017578"/>
     <use xlink:href="#DejaVuSans-6d" x="3778.296875"/>
     <use xlink:href="#DejaVuSans-70" x="3875.708984"/>
     <use xlink:href="#DejaVuSans-6c" x="3939.185547"/>
     <use xlink:href="#DejaVuSans-65" x="3966.96875"/>
     <use xlink:href="#DejaVuSans-64" x="4028.492188"/>
     <use xlink:href="#DejaVuSans-20" x="4091.96875"/>
     <use xlink:href="#DejaVuSans-6d" x="4123.755859"/>
     <use xlink:href="#DejaVuSans-65" x="4221.167969"/>
     <use xlink:href="#DejaVuSans-74" x="4282.691406"/>
     <use xlink:href="#DejaVuSans-65" x="4321.900391"/>
     <use xlink:href="#DejaVuSans-72" x="4383.423828"/>
     <use xlink:href="#DejaVuSans-73" x="4424.537109"/>
     <use xlink:href="#DejaVuSans-2c" x="4476.636719"/>
     <use xlink:href="#DejaVuSans-20" x="4508.423828"/>
     <use xlink:href="#DejaVuSans-63" x="4540.210938"/>
     <use xlink:href="#DejaVuSans-6f" x="4595.191406"/>
     <use xlink:href="#DejaVuSans-6e" x="4656.373047"/>
     <use xlink:href="#DejaVuSans-73" x="4719.751953"/>
     <use xlink:href="#DejaVuSans-74" x="4771.851562"/>
     <use xlink:href="#DejaVuSans-72" x="4811.060547"/>
     <use xlink:href="#DejaVuSans-75" x="4852.173828"/>
     <use xlink:href="#DejaVuSans-63" x="4915.552734"/>
     <use xlink:href="#DejaVuSans-74" x="4970.533203"/>
     <use xlink:href="#DejaVuSans-65" x="5009.742188"/>
     <use xlink:href="#DejaVuSans-64" x="5071.265625"/>
     <use xlink:href="#DejaVuSans-20" x="5134.742188"/>
     <use xlink:href="#DejaVuSans-77" x="5166.529297"/>
     <use xlink:href="#DejaVuSans-69" x="5248.316406"/>
     <use xlink:href="#DejaVuSans-74" x="5276.099609"/>
     <use xlink:href="#DejaVuSans-68" x="5315.308594"/>
     <use xlink:href="#DejaVuSans-20" x="5378.6875"/>
     <use xlink:href="#DejaVuSans-33" x="5410.474609"/>
     <use xlink:href="#DejaVuSans-37" x="5474.097656"/>
     <use xlink:href="#DejaVuSans-32" x="5537.720703"/>
     <use xlink:href="#DejaVuSans-2c" x="5601.34375"/>
     <use xlink:href="#DejaVuSans-34" x="5633.130859"/>
     <use xlink:href="#DejaVuSans-37" x="5696.753906"/>
     <use xlink:href="#DejaVuSans-37" x="5760.376953"/>
     <use xlink:href="#DejaVuSans-20" x="5824"/>
     <use xlink:href="#DejaVuSans-73" x="5855.787109"/>
     <use xlink:href="#DejaVuSans-61" x="5907.886719"/>
     <use xlink:href="#DejaVuSans-6d" x="5969.166016"/>
     <use xlink:href="#DejaVuSans-70" x="6066.578125"/>
     <use xlink:href="#DejaVuSans-6c" x="6130.054688"/>
     <use xlink:href="#DejaVuSans-65" x="6157.837891"/>
     <use xlink:href="#DejaVuSans-73" x="6219.361328"/>
    </g>
   </g>
   <g id="legend_1">
    <g id="patch_15">
     <path d="M 643.478125 85.550313 
L 808.440625 85.550313 
Q 810.440625 85.550313 810.440625 83.550313 
L 810.440625 29.318125 
Q 810.440625 27.318125 808.440625 27.318125 
L 643.478125 27.318125 
Q 641.478125 27.318125 641.478125 29.318125 
L 641.478125 83.550313 
Q 641.478125 85.550313 643.478125 85.550313 
z
" style="fill: #ffffff; opacity: 0.8; stroke: #cccccc; stroke-linejoin: miter"/>
    </g>
    <g id="line2d_69">
     <path d="M 645.478125 35.416562 
L 655.478125 35.416562 
L 665.478125 35.416562 
" style="fill: none; stroke: #ff0000; stroke-opacity: 0.4; stroke-width: 1.5; stroke-linecap: square"/>
    </g>
    <g id="text_37">
     <!-- Mean: 3.116 -->
     <g transform="translate(673.478125 38.916562) scale(0.1 -0.1)">
      <defs>
       <path id="DejaVuSans-2e" d="M 684 794 
L 1344 794 
L 1344 0 
L 684 0 
L 684 794 
z
" transform="scale(0.015625)"/>
      </defs>
      <use xlink:href="#DejaVuSans-4d"/>
      <use xlink:href="#DejaVuSans-65" x="86.279297"/>
      <use xlink:href="#DejaVuSans-61" x="147.802734"/>
      <use xlink:href="#DejaVuSans-6e" x="209.082031"/>
      <use xlink:href="#DejaVuSans-3a" x="272.460938"/>
      <use xlink:href="#DejaVuSans-20" x="306.152344"/>
      <use xlink:href="#DejaVuSans-33" x="337.939453"/>
      <use xlink:href="#DejaVuSans-2e" x="401.5625"/>
      <use xlink:href="#DejaVuSans-31" x="433.349609"/>
      <use xlink:href="#DejaVuSans-31" x="496.972656"/>
      <use xlink:href="#DejaVuSans-36" x="560.595703"/>
     </g>
    </g>
    <g id="patch_16">
     <path d="M 645.478125 53.594688 
L 665.478125 53.594688 
L 665.478125 46.594688 
L 645.478125 46.594688 
z
" style="fill: #ff0000; fill-opacity: 0.2; stroke: #ff0000; stroke-opacity: 0.2; stroke-linejoin: miter"/>
    </g>
    <g id="text_38">
     <!-- Std Dev: 3.047 -->
     <g transform="translate(673.478125 53.594688) scale(0.1 -0.1)">
      <defs>
       <path id="DejaVuSans-44" d="M 1259 4147 
L 1259 519 
L 2022 519 
Q 2988 519 3436 956 
Q 3884 1394 3884 2338 
Q 3884 3275 3436 3711 
Q 2988 4147 2022 4147 
L 1259 4147 
z
M 628 4666 
L 1925 4666 
Q 3281 4666 3915 4102 
Q 4550 3538 4550 2338 
Q 4550 1131 3912 565 
Q 3275 0 1925 0 
L 628 0 
L 628 4666 
z
" transform="scale(0.015625)"/>
       <path id="DejaVuSans-76" d="M 191 3500 
L 800 3500 
L 1894 563 
L 2988 3500 
L 3597 3500 
L 2284 0 
L 1503 0 
L 191 3500 
z
" transform="scale(0.015625)"/>
      </defs>
      <use xlink:href="#DejaVuSans-53"/>
      <use xlink:href="#DejaVuSans-74" x="63.476562"/>
      <use xlink:href="#DejaVuSans-64" x="102.685547"/>
      <use xlink:href="#DejaVuSans-20" x="166.162109"/>
      <use xlink:href="#DejaVuSans-44" x="197.949219"/>
      <use xlink:href="#DejaVuSans-65" x="274.951172"/>
      <use xlink:href="#DejaVuSans-76" x="336.474609"/>
      <use xlink:href="#DejaVuSans-3a" x="390.154297"/>
      <use xlink:href="#DejaVuSans-20" x="423.845703"/>
      <use xlink:href="#DejaVuSans-33" x="455.632812"/>
      <use xlink:href="#DejaVuSans-2e" x="519.255859"/>
      <use xlink:href="#DejaVuSans-30" x="551.042969"/>
      <use xlink:href="#DejaVuSans-34" x="614.666016"/>
      <use xlink:href="#DejaVuSans-37" x="678.289062"/>
     </g>
    </g>
    <g id="line2d_70">
     <path d="M 645.478125 71.411563 
L 655.478125 71.411563 
L 665.478125 71.411563 
" style="fill: none; stroke: #0000ff; stroke-width: 1.5; stroke-linecap: square"/>
    </g>
    <g id="text_39">
     <!-- Performance Comparison:  -->
     <g transform="translate(673.478125 68.272812) scale(0.1 -0.1)">
      <defs>
       <path id="DejaVuSans-43" d="M 4122 4306 
L 4122 3641 
Q 3803 3938 3442 4084 
Q 3081 4231 2675 4231 
Q 1875 4231 1450 3742 
Q 1025 3253 1025 2328 
Q 1025 1406 1450 917 
Q 1875 428 2675 428 
Q 3081 428 3442 575 
Q 3803 722 4122 1019 
L 4122 359 
Q 3791 134 3420 21 
Q 3050 -91 2638 -91 
Q 1578 -91 968 557 
Q 359 1206 359 2328 
Q 359 3453 968 4101 
Q 1578 4750 2638 4750 
Q 3056 4750 3426 4639 
Q 3797 4528 4122 4306 
z
" transform="scale(0.015625)"/>
      </defs>
      <use xlink:href="#DejaVuSans-50"/>
      <use xlink:href="#DejaVuSans-65" x="56.677734"/>
      <use xlink:href="#DejaVuSans-72" x="118.201172"/>
      <use xlink:href="#DejaVuSans-66" x="159.314453"/>
      <use xlink:href="#DejaVuSans-6f" x="194.519531"/>
      <use xlink:href="#DejaVuSans-72" x="255.701172"/>
      <use xlink:href="#DejaVuSans-6d" x="295.064453"/>
      <use xlink:href="#DejaVuSans-61" x="392.476562"/>
      <use xlink:href="#DejaVuSans-6e" x="453.755859"/>
      <use xlink:href="#DejaVuSans-63" x="517.134766"/>
      <use xlink:href="#DejaVuSans-65" x="572.115234"/>
      <use xlink:href="#DejaVuSans-20" x="633.638672"/>
      <use xlink:href="#DejaVuSans-43" x="665.425781"/>
      <use xlink:href="#DejaVuSans-6f" x="735.25"/>
      <use xlink:href="#DejaVuSans-6d" x="796.431641"/>
      <use xlink:href="#DejaVuSans-70" x="893.84375"/>
      <use xlink:href="#DejaVuSans-61" x="957.320312"/>
      <use xlink:href="#DejaVuSans-72" x="1018.599609"/>
      <use xlink:href="#DejaVuSans-69" x="1059.712891"/>
      <use xlink:href="#DejaVuSans-73" x="1087.496094"/>
      <use xlink:href="#DejaVuSans-6f" x="1139.595703"/>
      <use xlink:href="#DejaVuSans-6e" x="1200.777344"/>
      <use xlink:href="#DejaVuSans-3a" x="1264.15625"/>
      <use xlink:href="#DejaVuSans-20" x="1297.847656"/>
     </g>
     <!-- Mean: 0.001 -->
     <g transform="translate(673.478125 79.470625) scale(0.1 -0.1)">
      <use xlink:href="#DejaVuSans-4d"/>
      <use xlink:href="#DejaVuSans-65" x="86.279297"/>
      <use xlink:href="#DejaVuSans-61" x="147.802734"/>
      <use xlink:href="#DejaVuSans-6e" x="209.082031"/>
      <use xlink:href="#DejaVuSans-3a" x="272.460938"/>
      <use xlink:href="#DejaVuSans-20" x="306.152344"/>
      <use xlink:href="#DejaVuSans-30" x="337.939453"/>
      <use xlink:href="#DejaVuSans-2e" x="401.5625"/>
      <use xlink:href="#DejaVuSans-30" x="433.349609"/>
      <use xlink:href="#DejaVuSans-30" x="496.972656"/>
      <use xlink:href="#DejaVuSans-31" x="560.595703"/>
     </g>
    </g>
   </g>
  </g>
 </g>
 <defs>
  <clipPath id="p3915814156">
   <rect x="34.240625" y="22.318125" width="781.2" height="332.64"/>
  </clipPath>
 </defs>
</svg>
