<?xml version="1.0" encoding="utf-8" standalone="no"?>
<!DOCTYPE svg PUBLIC "-//W3C//DTD SVG 1.1//EN"
  "http://www.w3.org/Graphics/SVG/1.1/DTD/svg11.dtd">
<svg xmlns:xlink="http://www.w3.org/1999/xlink" width="829.003125pt" height="453.244198pt" viewBox="0 0 829.003125 453.244198" xmlns="http://www.w3.org/2000/svg" version="1.1">
 <metadata>
  <rdf:RDF xmlns:dc="http://purl.org/dc/elements/1.1/" xmlns:cc="http://creativecommons.org/ns#" xmlns:rdf="http://www.w3.org/1999/02/22-rdf-syntax-ns#">
   <cc:Work>
    <dc:type rdf:resource="http://purl.org/dc/dcmitype/StillImage"/>
    <dc:date>2024-07-22T21:58:15.446213</dc:date>
    <dc:format>image/svg+xml</dc:format>
    <dc:creator>
     <cc:Agent>
      <dc:title>Matplotlib v3.8.4, https://matplotlib.org/</dc:title>
     </cc:Agent>
    </dc:creator>
   </cc:Work>
  </rdf:RDF>
 </metadata>
 <defs>
  <style type="text/css">*{stroke-linejoin: round; stroke-linecap: butt}</style>
 </defs>
 <g id="figure_1">
  <g id="patch_1">
   <path d="M 0 453.244198 
L 829.003125 453.244198 
L 829.003125 0 
L 0 0 
z
" style="fill: #ffffff"/>
  </g>
  <g id="axes_1">
   <g id="patch_2">
    <path d="M 40.603125 354.958125 
L 821.803125 354.958125 
L 821.803125 22.318125 
L 40.603125 22.318125 
z
" style="fill: #ffffff"/>
   </g>
   <g id="PolyCollection_1">
    <defs>
     <path id="m70b04c5f55" d="M 76.112216 -251.107444 
L 76.112216 -116.619524 
L 78.232162 -115.372283 
L 80.352107 -115.387471 
L 82.472053 -116.144151 
L 84.591999 -116.577115 
L 86.711945 -116.107309 
L 88.83189 -116.315531 
L 90.951836 -116.310326 
L 93.071782 -116.233244 
L 95.191727 -116.551654 
L 97.311673 -116.230278 
L 99.431619 -114.635318 
L 101.551565 -115.295611 
L 103.67151 -116.315138 
L 105.791456 -118.311855 
L 107.911402 -118.830752 
L 110.031348 -119.492442 
L 112.151293 -121.3877 
L 114.271239 -152.809262 
L 116.391185 -199.313532 
L 118.51113 -206.387977 
L 120.631076 -204.575065 
L 122.751022 -206.761421 
L 124.870968 -206.804693 
L 126.990913 -206.62096 
L 129.110859 -204.752259 
L 131.230805 -206.687846 
L 133.350751 -204.645941 
L 135.470696 -204.716377 
L 137.590642 -204.189874 
L 139.710588 -203.862274 
L 141.830533 -202.397841 
L 143.950479 -202.913685 
L 146.070425 -199.694179 
L 148.190371 -199.37064 
L 150.310316 -189.517931 
L 152.430262 -174.60195 
L 154.550208 -149.177714 
L 156.670153 -137.199538 
L 158.790099 -124.528285 
L 160.910045 -120.328235 
L 163.029991 -118.910496 
L 165.149936 -118.371067 
L 167.269882 -117.464315 
L 169.389828 -116.980533 
L 171.509774 -117.011579 
L 173.629719 -116.420369 
L 175.749665 -116.652909 
L 177.869611 -115.998497 
L 179.989556 -113.406073 
L 182.109502 -118.435653 
L 184.229448 -118.642171 
L 186.349394 -117.848686 
L 188.469339 -117.391921 
L 190.589285 -115.846577 
L 192.709231 -116.987731 
L 194.829177 -115.573961 
L 196.949122 -115.800102 
L 199.069068 -115.481371 
L 201.189014 -115.965375 
L 203.308959 -116.537523 
L 205.428905 -116.775432 
L 207.548851 -117.581541 
L 209.668797 -119.147888 
L 211.788742 -119.600228 
L 213.908688 -123.980574 
L 216.028634 -151.781643 
L 218.14858 -192.125714 
L 220.268525 -201.629003 
L 222.388471 -205.01054 
L 224.508417 -207.880466 
L 226.628362 -207.333867 
L 228.748308 -207.689952 
L 230.868254 -205.803484 
L 232.9882 -206.783862 
L 235.108145 -206.99983 
L 237.228091 -206.873243 
L 239.348037 -207.870123 
L 241.467983 -206.529818 
L 243.587928 -205.728279 
L 245.707874 -206.017301 
L 247.82782 -196.45101 
L 249.947765 -202.802306 
L 252.067711 -198.566803 
L 254.187657 -180.990673 
L 256.307603 -153.124509 
L 258.427548 -139.880318 
L 260.547494 -125.385199 
L 262.66744 -120.235585 
L 264.787386 -119.60895 
L 266.907331 -118.879965 
L 269.027277 -117.942819 
L 271.147223 -117.840112 
L 273.267168 -117.111422 
L 275.387114 -117.797671 
L 277.50706 -116.765588 
L 279.627006 -116.873097 
L 281.746951 -116.186986 
L 283.866897 -116.176621 
L 285.986843 -116.664285 
L 288.106789 -116.172092 
L 290.226734 -114.416361 
L 292.34668 -118.377459 
L 294.466626 -119.095698 
L 296.586571 -119.201375 
L 298.706517 -117.802854 
L 300.826463 -117.496748 
L 302.946409 -116.632753 
L 305.066354 -117.028592 
L 307.1863 -117.006307 
L 309.306246 -117.998902 
L 311.426191 -118.958136 
L 313.546137 -119.735711 
L 315.666083 -123.785522 
L 317.786029 -151.107291 
L 319.905974 -191.96217 
L 322.02592 -203.250146 
L 324.145866 -204.7178 
L 326.265812 -207.648394 
L 328.385757 -208.569756 
L 330.505703 -209.437167 
L 332.625649 -206.936418 
L 334.745594 -207.212939 
L 336.86554 -208.273353 
L 338.985486 -207.656121 
L 341.105432 -207.050122 
L 343.225377 -206.456981 
L 345.345323 -206.181058 
L 347.465269 -206.74413 
L 349.585215 -203.80511 
L 351.70516 -203.869653 
L 353.825106 -193.30413 
L 355.945052 -176.861006 
L 358.064997 -141.131926 
L 360.184943 -143.081755 
L 362.304889 -132.203567 
L 364.424835 -125.217829 
L 366.54478 -120.357259 
L 368.664726 -119.62883 
L 370.784672 -118.387311 
L 372.904618 -117.919483 
L 375.024563 -117.69397 
L 377.144509 -117.332905 
L 379.264455 -117.605631 
L 381.3844 -117.014678 
L 383.504346 -115.803272 
L 385.624292 -116.169329 
L 387.744238 -116.245629 
L 389.864183 -116.685326 
L 391.984129 -116.196035 
L 394.104075 -115.910474 
L 396.224021 -116.365513 
L 398.343966 -116.043599 
L 400.463912 -116.215226 
L 402.583858 -116.391622 
L 404.703803 -116.272806 
L 406.823749 -116.884865 
L 408.943695 -115.014635 
L 411.063641 -119.103424 
L 413.183586 -120.421677 
L 415.303532 -121.315756 
L 417.423478 -124.74536 
L 419.543424 -151.610173 
L 421.663369 -191.981644 
L 423.783315 -202.325726 
L 425.903261 -203.326504 
L 428.023206 -206.786112 
L 430.143152 -207.143281 
L 432.263098 -206.769831 
L 434.383044 -206.226894 
L 436.502989 -206.495727 
L 438.622935 -207.270293 
L 440.742881 -206.51914 
L 442.862826 -206.722914 
L 444.982772 -206.865896 
L 447.102718 -205.552827 
L 449.222664 -205.932111 
L 451.342609 -203.932718 
L 453.462555 -204.380405 
L 455.582501 -192.508695 
L 457.702447 -177.024898 
L 459.822392 -151.894726 
L 461.942338 -139.965409 
L 464.062284 -124.891755 
L 466.182229 -120.023805 
L 468.302175 -119.066511 
L 470.422121 -118.746319 
L 472.542067 -116.964667 
L 474.662012 -117.988365 
L 476.781958 -116.632702 
L 478.901904 -117.66465 
L 481.02185 -116.291128 
L 483.141795 -116.634475 
L 485.261741 -115.346709 
L 487.381687 -116.023595 
L 489.501632 -115.604321 
L 491.621578 -116.377554 
L 493.741524 -115.068245 
L 495.86147 -116.296559 
L 497.981415 -115.531571 
L 500.101361 -116.169223 
L 502.221307 -114.353715 
L 504.341253 -117.368966 
L 506.461198 -116.788093 
L 508.581144 -117.149511 
L 510.70109 -117.012232 
L 512.821035 -118.233382 
L 514.940981 -117.860506 
L 517.060927 -118.957617 
L 519.180873 -123.329664 
L 521.300818 -152.863106 
L 523.420764 -191.84911 
L 525.54071 -200.230483 
L 527.660656 -203.178039 
L 529.780601 -205.815634 
L 531.900547 -206.575289 
L 534.020493 -206.254977 
L 536.140438 -191.146805 
L 538.260384 -205.799884 
L 540.38033 -213.278771 
L 542.500276 -215.007548 
L 544.620221 -205.080379 
L 546.740167 -206.883049 
L 548.860113 -204.650386 
L 550.980059 -205.471385 
L 553.100004 -204.553168 
L 555.21995 -203.810032 
L 557.339896 -193.104896 
L 559.459841 -181.475475 
L 561.579787 -161.344608 
L 563.699733 -156.665096 
L 565.819679 -141.620084 
L 567.939624 -130.869498 
L 570.05957 -123.224544 
L 572.179516 -119.654063 
L 574.299461 -116.972269 
L 576.419407 -115.601946 
L 578.539353 -116.35147 
L 580.659299 -114.301819 
L 582.779244 -116.514886 
L 584.89919 -117.394177 
L 587.019136 -114.185302 
L 589.139082 -115.495455 
L 591.259027 -115.161829 
L 593.378973 -116.238603 
L 595.498919 -114.383548 
L 597.618864 -117.366466 
L 599.73881 -117.849018 
L 601.858756 -117.33947 
L 603.978702 -116.514392 
L 606.098647 -116.352683 
L 608.218593 -115.783337 
L 610.338539 -116.848535 
L 612.458485 -115.898793 
L 614.57843 -117.680283 
L 616.698376 -117.701791 
L 618.818322 -119.507509 
L 620.938267 -119.560539 
L 623.058213 -142.376836 
L 625.178159 -185.181773 
L 627.298105 -194.014524 
L 629.41805 -197.4826 
L 631.537996 -199.62909 
L 633.657942 -200.33886 
L 635.777888 -200.250437 
L 637.897833 -197.666994 
L 640.017779 -199.108371 
L 642.137725 -197.487085 
L 644.25767 -197.986092 
L 646.377616 -191.628956 
L 648.497562 -198.387868 
L 650.617508 -198.49573 
L 652.737453 -197.536082 
L 654.857399 -193.666422 
L 656.977345 -191.835782 
L 659.097291 -175.183763 
L 661.217236 -164.435234 
L 663.337182 -155.188691 
L 665.457128 -150.9425 
L 667.577073 -137.869369 
L 669.697019 -128.008555 
L 671.816965 -122.38106 
L 673.936911 -120.318772 
L 676.056856 -117.15283 
L 678.176802 -116.770157 
L 680.296748 -117.14262 
L 682.416694 -115.98824 
L 684.536639 -116.546741 
L 686.656585 -114.658602 
L 688.776531 -114.567357 
L 690.896476 -115.247517 
L 693.016422 -115.488007 
L 695.136368 -115.884341 
L 697.256314 -115.2807 
L 699.376259 -115.562129 
L 701.496205 -115.838638 
L 703.616151 -115.804665 
L 705.736097 -115.480156 
L 707.856042 -115.913337 
L 709.975988 -115.885781 
L 712.095934 -116.273831 
L 714.215879 -115.61573 
L 716.335825 -115.836655 
L 718.455771 -116.638545 
L 720.575717 -118.243775 
L 722.695662 -118.577774 
L 724.815608 -137.710856 
L 726.935554 -177.90486 
L 729.055499 -188.077765 
L 731.175445 -192.803357 
L 733.295391 -195.364952 
L 735.415337 -196.035511 
L 737.535282 -195.922359 
L 739.655228 -194.31322 
L 741.775174 -194.465831 
L 743.89512 -191.580313 
L 746.015065 -190.915144 
L 748.135011 -185.5669 
L 750.254957 -182.727401 
L 752.374902 -172.512691 
L 754.494848 -168.377335 
L 756.614794 -164.455273 
L 758.73474 -163.101493 
L 760.854685 -143.229748 
L 762.974631 -128.366328 
L 765.094577 -120.34194 
L 767.214523 -119.283404 
L 769.334468 -121.174223 
L 771.454414 -119.430846 
L 773.57436 -117.042842 
L 775.694305 -118.253096 
L 777.814251 -117.966257 
L 779.934197 -117.938677 
L 782.054143 -118.053088 
L 784.174088 -117.406375 
L 786.294034 -117.780825 
L 786.294034 -248.622758 
L 786.294034 -248.622758 
L 784.174088 -252.971269 
L 782.054143 -250.7031 
L 779.934197 -262.607249 
L 777.814251 -260.358822 
L 775.694305 -268.404978 
L 773.57436 -263.833181 
L 771.454414 -271.787206 
L 769.334468 -280.438203 
L 767.214523 -297.896812 
L 765.094577 -307.911993 
L 762.974631 -336.19782 
L 760.854685 -351.948756 
L 758.73474 -367.752397 
L 756.614794 -379.678331 
L 754.494848 -379.098165 
L 752.374902 -385.064398 
L 750.254957 -397.001517 
L 748.135011 -404.050108 
L 746.015065 -400.26307 
L 743.89512 -404.552185 
L 741.775174 -407.155243 
L 739.655228 -405.334013 
L 737.535282 -410.148267 
L 735.415337 -408.45356 
L 733.295391 -407.918889 
L 731.175445 -403.185442 
L 729.055499 -405.710116 
L 726.935554 -389.855962 
L 724.815608 -335.546677 
L 722.695662 -287.095307 
L 720.575717 -259.310118 
L 718.455771 -255.61891 
L 716.335825 -250.439155 
L 714.215879 -250.699286 
L 712.095934 -246.647123 
L 709.975988 -248.385368 
L 707.856042 -246.99683 
L 705.736097 -247.99748 
L 703.616151 -246.605774 
L 701.496205 -247.042925 
L 699.376259 -248.477468 
L 697.256314 -250.080839 
L 695.136368 -246.923657 
L 693.016422 -246.196986 
L 690.896476 -251.210813 
L 688.776531 -249.550877 
L 686.656585 -248.248739 
L 684.536639 -249.963852 
L 682.416694 -254.630897 
L 680.296748 -254.05088 
L 678.176802 -263.583263 
L 676.056856 -266.765659 
L 673.936911 -285.980942 
L 671.816965 -298.12952 
L 669.697019 -313.271133 
L 667.577073 -325.529523 
L 665.457128 -354.017036 
L 663.337182 -367.86451 
L 661.217236 -377.743593 
L 659.097291 -386.62495 
L 656.977345 -398.352073 
L 654.857399 -405.526776 
L 652.737453 -405.742061 
L 650.617508 -411.575112 
L 648.497562 -405.915877 
L 646.377616 -409.786871 
L 644.25767 -405.435386 
L 642.137725 -409.576648 
L 640.017779 -406.231148 
L 637.897833 -409.173536 
L 635.777888 -408.237324 
L 633.657942 -409.555383 
L 631.537996 -407.805128 
L 629.41805 -405.260783 
L 627.298105 -407.242865 
L 625.178159 -397.014277 
L 623.058213 -349.505324 
L 620.938267 -291.135683 
L 618.818322 -260.416201 
L 616.698376 -255.099254 
L 614.57843 -248.140058 
L 612.458485 -252.008468 
L 610.338539 -243.662011 
L 608.218593 -249.356995 
L 606.098647 -245.243088 
L 603.978702 -250.202012 
L 601.858756 -248.223779 
L 599.73881 -252.597888 
L 597.618864 -248.0618 
L 595.498919 -249.640379 
L 593.378973 -245.493924 
L 591.259027 -250.625137 
L 589.139082 -245.908739 
L 587.019136 -254.546586 
L 584.89919 -247.296639 
L 582.779244 -255.02797 
L 580.659299 -254.143416 
L 578.539353 -259.132431 
L 576.419407 -261.299852 
L 574.299461 -271.628642 
L 572.179516 -286.098618 
L 570.05957 -305.535263 
L 567.939624 -314.809413 
L 565.819679 -336.963387 
L 563.699733 -359.960661 
L 561.579787 -377.877188 
L 559.459841 -391.575067 
L 557.339896 -405.66288 
L 555.21995 -403.856049 
L 553.100004 -410.005649 
L 550.980059 -411.184802 
L 548.860113 -411.514647 
L 546.740167 -410.856359 
L 544.620221 -409.039912 
L 542.500276 -415.612614 
L 540.38033 -415.440776 
L 538.260384 -412.690061 
L 536.140438 -407.111476 
L 534.020493 -411.654657 
L 531.900547 -407.371757 
L 529.780601 -409.797947 
L 527.660656 -409.361137 
L 525.54071 -406.64383 
L 523.420764 -402.971631 
L 521.300818 -354.515446 
L 519.180873 -308.072456 
L 517.060927 -273.679559 
L 514.940981 -262.640028 
L 512.821035 -248.085017 
L 510.70109 -249.568875 
L 508.581144 -247.159405 
L 506.461198 -249.202946 
L 504.341253 -245.935074 
L 502.221307 -248.397529 
L 500.101361 -242.815669 
L 497.981415 -248.029137 
L 495.86147 -242.412411 
L 493.741524 -249.6716 
L 491.621578 -243.352497 
L 489.501632 -246.695825 
L 487.381687 -246.30442 
L 485.261741 -249.564466 
L 483.141795 -250.556574 
L 481.02185 -253.028386 
L 478.901904 -249.705764 
L 476.781958 -255.681359 
L 474.662012 -258.771283 
L 472.542067 -263.445898 
L 470.422121 -264.999959 
L 468.302175 -274.308962 
L 466.182229 -288.147261 
L 464.062284 -306.328192 
L 461.942338 -344.797496 
L 459.822392 -364.672099 
L 457.702447 -390.478024 
L 455.582501 -404.611969 
L 453.462555 -405.71069 
L 451.342609 -409.048138 
L 449.222664 -412.224817 
L 447.102718 -410.411617 
L 444.982772 -413.550422 
L 442.862826 -410.811986 
L 440.742881 -413.626367 
L 438.622935 -410.947127 
L 436.502989 -413.402273 
L 434.383044 -409.56322 
L 432.263098 -413.180287 
L 430.143152 -410.365171 
L 428.023206 -411.392317 
L 425.903261 -410.577661 
L 423.783315 -405.524347 
L 421.663369 -403.753702 
L 419.543424 -356.247369 
L 417.423478 -304.051477 
L 415.303532 -279.974694 
L 413.183586 -262.975574 
L 411.063641 -254.806133 
L 408.943695 -247.272697 
L 406.823749 -245.855047 
L 404.703803 -245.715374 
L 402.583858 -246.40486 
L 400.463912 -246.684475 
L 398.343966 -246.51083 
L 396.224021 -245.621573 
L 394.104075 -247.319069 
L 391.984129 -245.841883 
L 389.864183 -246.187198 
L 387.744238 -246.952352 
L 385.624292 -248.027632 
L 383.504346 -248.366685 
L 381.3844 -249.942999 
L 379.264455 -249.330645 
L 377.144509 -253.070318 
L 375.024563 -251.46799 
L 372.904618 -265.165398 
L 370.784672 -260.991339 
L 368.664726 -271.079545 
L 366.54478 -273.384689 
L 364.424835 -297.886837 
L 362.304889 -313.185345 
L 360.184943 -357.281271 
L 358.064997 -360.969637 
L 355.945052 -393.502763 
L 353.825106 -399.561349 
L 351.70516 -407.956888 
L 349.585215 -410.518957 
L 347.465269 -411.891119 
L 345.345323 -411.055589 
L 343.225377 -412.874213 
L 341.105432 -409.608832 
L 338.985486 -415.806073 
L 336.86554 -409.854248 
L 334.745594 -411.868938 
L 332.625649 -411.525018 
L 330.505703 -412.350136 
L 328.385757 -413.966188 
L 326.265812 -410.038706 
L 324.145866 -412.431844 
L 322.02592 -408.057061 
L 319.905974 -404.65553 
L 317.786029 -359.018128 
L 315.666083 -303.865584 
L 313.546137 -277.830352 
L 311.426191 -259.463309 
L 309.306246 -250.347183 
L 307.1863 -247.004513 
L 305.066354 -244.572048 
L 302.946409 -245.035551 
L 300.826463 -244.441063 
L 298.706517 -245.133872 
L 296.586571 -251.062499 
L 294.466626 -249.393767 
L 292.34668 -249.994238 
L 290.226734 -245.070873 
L 288.106789 -246.413823 
L 285.986843 -244.587878 
L 283.866897 -246.257811 
L 281.746951 -246.964283 
L 279.627006 -248.82182 
L 277.50706 -250.959989 
L 275.387114 -249.229939 
L 273.267168 -253.622295 
L 271.147223 -258.874564 
L 269.027277 -260.470821 
L 266.907331 -264.444286 
L 264.787386 -273.667986 
L 262.66744 -286.896218 
L 260.547494 -303.923383 
L 258.427548 -346.255402 
L 256.307603 -367.699618 
L 254.187657 -395.327077 
L 252.067711 -406.127165 
L 249.947765 -411.284599 
L 247.82782 -405.381478 
L 245.707874 -412.601006 
L 243.587928 -407.996766 
L 241.467983 -412.964708 
L 239.348037 -411.089869 
L 237.228091 -414.370938 
L 235.108145 -412.766428 
L 232.9882 -413.816543 
L 230.868254 -413.366614 
L 228.748308 -413.194027 
L 226.628362 -414.518299 
L 224.508417 -411.416565 
L 222.388471 -409.713479 
L 220.268525 -407.080585 
L 218.14858 -402.976029 
L 216.028634 -357.477005 
L 213.908688 -303.29629 
L 211.788742 -278.329403 
L 209.668797 -262.955911 
L 207.548851 -252.825875 
L 205.428905 -248.907169 
L 203.308959 -245.365569 
L 201.189014 -248.210059 
L 199.069068 -247.311081 
L 196.949122 -246.687396 
L 194.829177 -248.179659 
L 192.709231 -245.447456 
L 190.589285 -249.045194 
L 188.469339 -248.832811 
L 186.349394 -253.668216 
L 184.229448 -254.2012 
L 182.109502 -252.231511 
L 179.989556 -249.281945 
L 177.869611 -252.07552 
L 175.749665 -250.106896 
L 173.629719 -254.522499 
L 171.509774 -251.82424 
L 169.389828 -263.115408 
L 167.269882 -259.155965 
L 165.149936 -265.477771 
L 163.029991 -271.329549 
L 160.910045 -281.186748 
L 158.790099 -299.051243 
L 156.670153 -340.001118 
L 154.550208 -361.539282 
L 152.430262 -387.026792 
L 150.310316 -397.339221 
L 148.190371 -401.777917 
L 146.070425 -406.355871 
L 143.950479 -407.138547 
L 141.830533 -407.42734 
L 139.710588 -409.542068 
L 137.590642 -410.199313 
L 135.470696 -410.039035 
L 133.350751 -412.485774 
L 131.230805 -408.753162 
L 129.110859 -411.313701 
L 126.990913 -411.129376 
L 124.870968 -412.406162 
L 122.751022 -410.51668 
L 120.631076 -409.232149 
L 118.51113 -413.25653 
L 116.391185 -404.328873 
L 114.271239 -357.875262 
L 112.151293 -300.950452 
L 110.031348 -277.874456 
L 107.911402 -257.508501 
L 105.791456 -251.653537 
L 103.67151 -246.293151 
L 101.551565 -249.997186 
L 99.431619 -242.652867 
L 97.311673 -247.299553 
L 95.191727 -242.499193 
L 93.071782 -248.148856 
L 90.951836 -244.570208 
L 88.83189 -248.151386 
L 86.711945 -246.528395 
L 84.591999 -246.984545 
L 82.472053 -245.227019 
L 80.352107 -249.578512 
L 78.232162 -247.273519 
L 76.112216 -251.107444 
z
" style="stroke: #ff0000; stroke-opacity: 0.2"/>
    </defs>
    <g clip-path="url(#p96617873e4)">
     <use xlink:href="#m70b04c5f55" x="0" y="453.244198" style="fill: #ff0000; fill-opacity: 0.2; stroke: #ff0000; stroke-opacity: 0.2"/>
    </g>
   </g>
   <g id="patch_3">
    <path d="M 76.112216 354.958125 
L 76.112216 22.318125 
L 101.551565 22.318125 
L 101.551565 354.958125 
z
" clip-path="url(#p96617873e4)" style="opacity: 0.3; stroke: #000000; stroke-linejoin: miter"/>
   </g>
   <g id="patch_4">
    <path d="M 152.430262 354.958125 
L 152.430262 22.318125 
L 203.308959 22.318125 
L 203.308959 354.958125 
z
" clip-path="url(#p96617873e4)" style="opacity: 0.3; stroke: #000000; stroke-linejoin: miter"/>
   </g>
   <g id="patch_5">
    <path d="M 254.187657 354.958125 
L 254.187657 22.318125 
L 305.066354 22.318125 
L 305.066354 354.958125 
z
" clip-path="url(#p96617873e4)" style="opacity: 0.3; stroke: #000000; stroke-linejoin: miter"/>
   </g>
   <g id="patch_6">
    <path d="M 355.945052 354.958125 
L 355.945052 22.318125 
L 406.823749 22.318125 
L 406.823749 354.958125 
z
" clip-path="url(#p96617873e4)" style="opacity: 0.3; stroke: #000000; stroke-linejoin: miter"/>
   </g>
   <g id="patch_7">
    <path d="M 457.702447 354.958125 
L 457.702447 22.318125 
L 508.581144 22.318125 
L 508.581144 354.958125 
z
" clip-path="url(#p96617873e4)" style="opacity: 0.3; stroke: #000000; stroke-linejoin: miter"/>
   </g>
   <g id="patch_8">
    <path d="M 559.459841 354.958125 
L 559.459841 22.318125 
L 610.338539 22.318125 
L 610.338539 354.958125 
z
" clip-path="url(#p96617873e4)" style="opacity: 0.3; stroke: #000000; stroke-linejoin: miter"/>
   </g>
   <g id="patch_9">
    <path d="M 661.217236 354.958125 
L 661.217236 22.318125 
L 712.095934 22.318125 
L 712.095934 354.958125 
z
" clip-path="url(#p96617873e4)" style="opacity: 0.3; stroke: #000000; stroke-linejoin: miter"/>
   </g>
   <g id="patch_10">
    <path d="M 762.974631 354.958125 
L 762.974631 22.318125 
L 786.294034 22.318125 
L 786.294034 354.958125 
z
" clip-path="url(#p96617873e4)" style="opacity: 0.3; stroke: #000000; stroke-linejoin: miter"/>
   </g>
   <g id="matplotlib.axis_1">
    <g id="xtick_1">
     <g id="line2d_1">
      <path d="M 76.112216 354.958125 
L 76.112216 22.318125 
" clip-path="url(#p96617873e4)" style="fill: none; stroke: #b0b0b0; stroke-width: 0.8; stroke-linecap: square"/>
     </g>
     <g id="line2d_2">
      <defs>
       <path id="m52d88260c3" d="M 0 0 
L 0 3.5 
" style="stroke: #000000; stroke-width: 0.8"/>
      </defs>
      <g>
       <use xlink:href="#m52d88260c3" x="76.112216" y="354.958125" style="stroke: #000000; stroke-width: 0.8"/>
      </g>
     </g>
     <g id="text_1">
      <!-- Monday 00:00 -->
      <g transform="translate(24.100093 417.872594) rotate(-45) scale(0.1 -0.1)">
       <defs>
        <path id="DejaVuSans-4d" d="M 628 4666 
L 1569 4666 
L 2759 1491 
L 3956 4666 
L 4897 4666 
L 4897 0 
L 4281 0 
L 4281 4097 
L 3078 897 
L 2444 897 
L 1241 4097 
L 1241 0 
L 628 0 
L 628 4666 
z
" transform="scale(0.015625)"/>
        <path id="DejaVuSans-6f" d="M 1959 3097 
Q 1497 3097 1228 2736 
Q 959 2375 959 1747 
Q 959 1119 1226 758 
Q 1494 397 1959 397 
Q 2419 397 2687 759 
Q 2956 1122 2956 1747 
Q 2956 2369 2687 2733 
Q 2419 3097 1959 3097 
z
M 1959 3584 
Q 2709 3584 3137 3096 
Q 3566 2609 3566 1747 
Q 3566 888 3137 398 
Q 2709 -91 1959 -91 
Q 1206 -91 779 398 
Q 353 888 353 1747 
Q 353 2609 779 3096 
Q 1206 3584 1959 3584 
z
" transform="scale(0.015625)"/>
        <path id="DejaVuSans-6e" d="M 3513 2113 
L 3513 0 
L 2938 0 
L 2938 2094 
Q 2938 2591 2744 2837 
Q 2550 3084 2163 3084 
Q 1697 3084 1428 2787 
Q 1159 2491 1159 1978 
L 1159 0 
L 581 0 
L 581 3500 
L 1159 3500 
L 1159 2956 
Q 1366 3272 1645 3428 
Q 1925 3584 2291 3584 
Q 2894 3584 3203 3211 
Q 3513 2838 3513 2113 
z
" transform="scale(0.015625)"/>
        <path id="DejaVuSans-64" d="M 2906 2969 
L 2906 4863 
L 3481 4863 
L 3481 0 
L 2906 0 
L 2906 525 
Q 2725 213 2448 61 
Q 2172 -91 1784 -91 
Q 1150 -91 751 415 
Q 353 922 353 1747 
Q 353 2572 751 3078 
Q 1150 3584 1784 3584 
Q 2172 3584 2448 3432 
Q 2725 3281 2906 2969 
z
M 947 1747 
Q 947 1113 1208 752 
Q 1469 391 1925 391 
Q 2381 391 2643 752 
Q 2906 1113 2906 1747 
Q 2906 2381 2643 2742 
Q 2381 3103 1925 3103 
Q 1469 3103 1208 2742 
Q 947 2381 947 1747 
z
" transform="scale(0.015625)"/>
        <path id="DejaVuSans-61" d="M 2194 1759 
Q 1497 1759 1228 1600 
Q 959 1441 959 1056 
Q 959 750 1161 570 
Q 1363 391 1709 391 
Q 2188 391 2477 730 
Q 2766 1069 2766 1631 
L 2766 1759 
L 2194 1759 
z
M 3341 1997 
L 3341 0 
L 2766 0 
L 2766 531 
Q 2569 213 2275 61 
Q 1981 -91 1556 -91 
Q 1019 -91 701 211 
Q 384 513 384 1019 
Q 384 1609 779 1909 
Q 1175 2209 1959 2209 
L 2766 2209 
L 2766 2266 
Q 2766 2663 2505 2880 
Q 2244 3097 1772 3097 
Q 1472 3097 1187 3025 
Q 903 2953 641 2809 
L 641 3341 
Q 956 3463 1253 3523 
Q 1550 3584 1831 3584 
Q 2591 3584 2966 3190 
Q 3341 2797 3341 1997 
z
" transform="scale(0.015625)"/>
        <path id="DejaVuSans-79" d="M 2059 -325 
Q 1816 -950 1584 -1140 
Q 1353 -1331 966 -1331 
L 506 -1331 
L 506 -850 
L 844 -850 
Q 1081 -850 1212 -737 
Q 1344 -625 1503 -206 
L 1606 56 
L 191 3500 
L 800 3500 
L 1894 763 
L 2988 3500 
L 3597 3500 
L 2059 -325 
z
" transform="scale(0.015625)"/>
        <path id="DejaVuSans-20" transform="scale(0.015625)"/>
        <path id="DejaVuSans-30" d="M 2034 4250 
Q 1547 4250 1301 3770 
Q 1056 3291 1056 2328 
Q 1056 1369 1301 889 
Q 1547 409 2034 409 
Q 2525 409 2770 889 
Q 3016 1369 3016 2328 
Q 3016 3291 2770 3770 
Q 2525 4250 2034 4250 
z
M 2034 4750 
Q 2819 4750 3233 4129 
Q 3647 3509 3647 2328 
Q 3647 1150 3233 529 
Q 2819 -91 2034 -91 
Q 1250 -91 836 529 
Q 422 1150 422 2328 
Q 422 3509 836 4129 
Q 1250 4750 2034 4750 
z
" transform="scale(0.015625)"/>
        <path id="DejaVuSans-3a" d="M 750 794 
L 1409 794 
L 1409 0 
L 750 0 
L 750 794 
z
M 750 3309 
L 1409 3309 
L 1409 2516 
L 750 2516 
L 750 3309 
z
" transform="scale(0.015625)"/>
       </defs>
       <use xlink:href="#DejaVuSans-4d"/>
       <use xlink:href="#DejaVuSans-6f" x="86.279297"/>
       <use xlink:href="#DejaVuSans-6e" x="147.460938"/>
       <use xlink:href="#DejaVuSans-64" x="210.839844"/>
       <use xlink:href="#DejaVuSans-61" x="274.316406"/>
       <use xlink:href="#DejaVuSans-79" x="335.595703"/>
       <use xlink:href="#DejaVuSans-20" x="394.775391"/>
       <use xlink:href="#DejaVuSans-30" x="426.5625"/>
       <use xlink:href="#DejaVuSans-30" x="490.185547"/>
       <use xlink:href="#DejaVuSans-3a" x="553.808594"/>
       <use xlink:href="#DejaVuSans-30" x="587.5"/>
       <use xlink:href="#DejaVuSans-30" x="651.123047"/>
      </g>
     </g>
    </g>
    <g id="xtick_2">
     <g id="line2d_3">
      <path d="M 101.551565 354.958125 
L 101.551565 22.318125 
" clip-path="url(#p96617873e4)" style="fill: none; stroke: #b0b0b0; stroke-width: 0.8; stroke-linecap: square"/>
     </g>
     <g id="line2d_4">
      <g>
       <use xlink:href="#m52d88260c3" x="101.551565" y="354.958125" style="stroke: #000000; stroke-width: 0.8"/>
      </g>
     </g>
     <g id="text_2">
      <!-- 06:00 -->
      <g transform="translate(79.70307 387.708965) rotate(-45) scale(0.1 -0.1)">
       <defs>
        <path id="DejaVuSans-36" d="M 2113 2584 
Q 1688 2584 1439 2293 
Q 1191 2003 1191 1497 
Q 1191 994 1439 701 
Q 1688 409 2113 409 
Q 2538 409 2786 701 
Q 3034 994 3034 1497 
Q 3034 2003 2786 2293 
Q 2538 2584 2113 2584 
z
M 3366 4563 
L 3366 3988 
Q 3128 4100 2886 4159 
Q 2644 4219 2406 4219 
Q 1781 4219 1451 3797 
Q 1122 3375 1075 2522 
Q 1259 2794 1537 2939 
Q 1816 3084 2150 3084 
Q 2853 3084 3261 2657 
Q 3669 2231 3669 1497 
Q 3669 778 3244 343 
Q 2819 -91 2113 -91 
Q 1303 -91 875 529 
Q 447 1150 447 2328 
Q 447 3434 972 4092 
Q 1497 4750 2381 4750 
Q 2619 4750 2861 4703 
Q 3103 4656 3366 4563 
z
" transform="scale(0.015625)"/>
       </defs>
       <use xlink:href="#DejaVuSans-30"/>
       <use xlink:href="#DejaVuSans-36" x="63.623047"/>
       <use xlink:href="#DejaVuSans-3a" x="127.246094"/>
       <use xlink:href="#DejaVuSans-30" x="160.9375"/>
       <use xlink:href="#DejaVuSans-30" x="224.560547"/>
      </g>
     </g>
    </g>
    <g id="xtick_3">
     <g id="line2d_5">
      <path d="M 126.990913 354.958125 
L 126.990913 22.318125 
" clip-path="url(#p96617873e4)" style="fill: none; stroke: #b0b0b0; stroke-width: 0.8; stroke-linecap: square"/>
     </g>
     <g id="line2d_6">
      <g>
       <use xlink:href="#m52d88260c3" x="126.990913" y="354.958125" style="stroke: #000000; stroke-width: 0.8"/>
      </g>
     </g>
     <g id="text_3">
      <!-- 12:00 -->
      <g transform="translate(105.142419 387.708965) rotate(-45) scale(0.1 -0.1)">
       <defs>
        <path id="DejaVuSans-31" d="M 794 531 
L 1825 531 
L 1825 4091 
L 703 3866 
L 703 4441 
L 1819 4666 
L 2450 4666 
L 2450 531 
L 3481 531 
L 3481 0 
L 794 0 
L 794 531 
z
" transform="scale(0.015625)"/>
        <path id="DejaVuSans-32" d="M 1228 531 
L 3431 531 
L 3431 0 
L 469 0 
L 469 531 
Q 828 903 1448 1529 
Q 2069 2156 2228 2338 
Q 2531 2678 2651 2914 
Q 2772 3150 2772 3378 
Q 2772 3750 2511 3984 
Q 2250 4219 1831 4219 
Q 1534 4219 1204 4116 
Q 875 4013 500 3803 
L 500 4441 
Q 881 4594 1212 4672 
Q 1544 4750 1819 4750 
Q 2544 4750 2975 4387 
Q 3406 4025 3406 3419 
Q 3406 3131 3298 2873 
Q 3191 2616 2906 2266 
Q 2828 2175 2409 1742 
Q 1991 1309 1228 531 
z
" transform="scale(0.015625)"/>
       </defs>
       <use xlink:href="#DejaVuSans-31"/>
       <use xlink:href="#DejaVuSans-32" x="63.623047"/>
       <use xlink:href="#DejaVuSans-3a" x="127.246094"/>
       <use xlink:href="#DejaVuSans-30" x="160.9375"/>
       <use xlink:href="#DejaVuSans-30" x="224.560547"/>
      </g>
     </g>
    </g>
    <g id="xtick_4">
     <g id="line2d_7">
      <path d="M 152.430262 354.958125 
L 152.430262 22.318125 
" clip-path="url(#p96617873e4)" style="fill: none; stroke: #b0b0b0; stroke-width: 0.8; stroke-linecap: square"/>
     </g>
     <g id="line2d_8">
      <g>
       <use xlink:href="#m52d88260c3" x="152.430262" y="354.958125" style="stroke: #000000; stroke-width: 0.8"/>
      </g>
     </g>
     <g id="text_4">
      <!-- 18:00 -->
      <g transform="translate(130.581767 387.708965) rotate(-45) scale(0.1 -0.1)">
       <defs>
        <path id="DejaVuSans-38" d="M 2034 2216 
Q 1584 2216 1326 1975 
Q 1069 1734 1069 1313 
Q 1069 891 1326 650 
Q 1584 409 2034 409 
Q 2484 409 2743 651 
Q 3003 894 3003 1313 
Q 3003 1734 2745 1975 
Q 2488 2216 2034 2216 
z
M 1403 2484 
Q 997 2584 770 2862 
Q 544 3141 544 3541 
Q 544 4100 942 4425 
Q 1341 4750 2034 4750 
Q 2731 4750 3128 4425 
Q 3525 4100 3525 3541 
Q 3525 3141 3298 2862 
Q 3072 2584 2669 2484 
Q 3125 2378 3379 2068 
Q 3634 1759 3634 1313 
Q 3634 634 3220 271 
Q 2806 -91 2034 -91 
Q 1263 -91 848 271 
Q 434 634 434 1313 
Q 434 1759 690 2068 
Q 947 2378 1403 2484 
z
M 1172 3481 
Q 1172 3119 1398 2916 
Q 1625 2713 2034 2713 
Q 2441 2713 2670 2916 
Q 2900 3119 2900 3481 
Q 2900 3844 2670 4047 
Q 2441 4250 2034 4250 
Q 1625 4250 1398 4047 
Q 1172 3844 1172 3481 
z
" transform="scale(0.015625)"/>
       </defs>
       <use xlink:href="#DejaVuSans-31"/>
       <use xlink:href="#DejaVuSans-38" x="63.623047"/>
       <use xlink:href="#DejaVuSans-3a" x="127.246094"/>
       <use xlink:href="#DejaVuSans-30" x="160.9375"/>
       <use xlink:href="#DejaVuSans-30" x="224.560547"/>
      </g>
     </g>
    </g>
    <g id="xtick_5">
     <g id="line2d_9">
      <path d="M 177.869611 354.958125 
L 177.869611 22.318125 
" clip-path="url(#p96617873e4)" style="fill: none; stroke: #b0b0b0; stroke-width: 0.8; stroke-linecap: square"/>
     </g>
     <g id="line2d_10">
      <g>
       <use xlink:href="#m52d88260c3" x="177.869611" y="354.958125" style="stroke: #000000; stroke-width: 0.8"/>
      </g>
     </g>
     <g id="text_5">
      <!-- Tuesday 00:00 -->
      <g transform="translate(125.001225 418.728856) rotate(-45) scale(0.1 -0.1)">
       <defs>
        <path id="DejaVuSans-54" d="M -19 4666 
L 3928 4666 
L 3928 4134 
L 2272 4134 
L 2272 0 
L 1638 0 
L 1638 4134 
L -19 4134 
L -19 4666 
z
" transform="scale(0.015625)"/>
        <path id="DejaVuSans-75" d="M 544 1381 
L 544 3500 
L 1119 3500 
L 1119 1403 
Q 1119 906 1312 657 
Q 1506 409 1894 409 
Q 2359 409 2629 706 
Q 2900 1003 2900 1516 
L 2900 3500 
L 3475 3500 
L 3475 0 
L 2900 0 
L 2900 538 
Q 2691 219 2414 64 
Q 2138 -91 1772 -91 
Q 1169 -91 856 284 
Q 544 659 544 1381 
z
M 1991 3584 
L 1991 3584 
z
" transform="scale(0.015625)"/>
        <path id="DejaVuSans-65" d="M 3597 1894 
L 3597 1613 
L 953 1613 
Q 991 1019 1311 708 
Q 1631 397 2203 397 
Q 2534 397 2845 478 
Q 3156 559 3463 722 
L 3463 178 
Q 3153 47 2828 -22 
Q 2503 -91 2169 -91 
Q 1331 -91 842 396 
Q 353 884 353 1716 
Q 353 2575 817 3079 
Q 1281 3584 2069 3584 
Q 2775 3584 3186 3129 
Q 3597 2675 3597 1894 
z
M 3022 2063 
Q 3016 2534 2758 2815 
Q 2500 3097 2075 3097 
Q 1594 3097 1305 2825 
Q 1016 2553 972 2059 
L 3022 2063 
z
" transform="scale(0.015625)"/>
        <path id="DejaVuSans-73" d="M 2834 3397 
L 2834 2853 
Q 2591 2978 2328 3040 
Q 2066 3103 1784 3103 
Q 1356 3103 1142 2972 
Q 928 2841 928 2578 
Q 928 2378 1081 2264 
Q 1234 2150 1697 2047 
L 1894 2003 
Q 2506 1872 2764 1633 
Q 3022 1394 3022 966 
Q 3022 478 2636 193 
Q 2250 -91 1575 -91 
Q 1294 -91 989 -36 
Q 684 19 347 128 
L 347 722 
Q 666 556 975 473 
Q 1284 391 1588 391 
Q 1994 391 2212 530 
Q 2431 669 2431 922 
Q 2431 1156 2273 1281 
Q 2116 1406 1581 1522 
L 1381 1569 
Q 847 1681 609 1914 
Q 372 2147 372 2553 
Q 372 3047 722 3315 
Q 1072 3584 1716 3584 
Q 2034 3584 2315 3537 
Q 2597 3491 2834 3397 
z
" transform="scale(0.015625)"/>
       </defs>
       <use xlink:href="#DejaVuSans-54"/>
       <use xlink:href="#DejaVuSans-75" x="45.958984"/>
       <use xlink:href="#DejaVuSans-65" x="109.337891"/>
       <use xlink:href="#DejaVuSans-73" x="170.861328"/>
       <use xlink:href="#DejaVuSans-64" x="222.960938"/>
       <use xlink:href="#DejaVuSans-61" x="286.4375"/>
       <use xlink:href="#DejaVuSans-79" x="347.716797"/>
       <use xlink:href="#DejaVuSans-20" x="406.896484"/>
       <use xlink:href="#DejaVuSans-30" x="438.683594"/>
       <use xlink:href="#DejaVuSans-30" x="502.306641"/>
       <use xlink:href="#DejaVuSans-3a" x="565.929688"/>
       <use xlink:href="#DejaVuSans-30" x="599.621094"/>
       <use xlink:href="#DejaVuSans-30" x="663.244141"/>
      </g>
     </g>
    </g>
    <g id="xtick_6">
     <g id="line2d_11">
      <path d="M 203.308959 354.958125 
L 203.308959 22.318125 
" clip-path="url(#p96617873e4)" style="fill: none; stroke: #b0b0b0; stroke-width: 0.8; stroke-linecap: square"/>
     </g>
     <g id="line2d_12">
      <g>
       <use xlink:href="#m52d88260c3" x="203.308959" y="354.958125" style="stroke: #000000; stroke-width: 0.8"/>
      </g>
     </g>
     <g id="text_6">
      <!-- 06:00 -->
      <g transform="translate(181.460465 387.708965) rotate(-45) scale(0.1 -0.1)">
       <use xlink:href="#DejaVuSans-30"/>
       <use xlink:href="#DejaVuSans-36" x="63.623047"/>
       <use xlink:href="#DejaVuSans-3a" x="127.246094"/>
       <use xlink:href="#DejaVuSans-30" x="160.9375"/>
       <use xlink:href="#DejaVuSans-30" x="224.560547"/>
      </g>
     </g>
    </g>
    <g id="xtick_7">
     <g id="line2d_13">
      <path d="M 228.748308 354.958125 
L 228.748308 22.318125 
" clip-path="url(#p96617873e4)" style="fill: none; stroke: #b0b0b0; stroke-width: 0.8; stroke-linecap: square"/>
     </g>
     <g id="line2d_14">
      <g>
       <use xlink:href="#m52d88260c3" x="228.748308" y="354.958125" style="stroke: #000000; stroke-width: 0.8"/>
      </g>
     </g>
     <g id="text_7">
      <!-- 12:00 -->
      <g transform="translate(206.899813 387.708965) rotate(-45) scale(0.1 -0.1)">
       <use xlink:href="#DejaVuSans-31"/>
       <use xlink:href="#DejaVuSans-32" x="63.623047"/>
       <use xlink:href="#DejaVuSans-3a" x="127.246094"/>
       <use xlink:href="#DejaVuSans-30" x="160.9375"/>
       <use xlink:href="#DejaVuSans-30" x="224.560547"/>
      </g>
     </g>
    </g>
    <g id="xtick_8">
     <g id="line2d_15">
      <path d="M 254.187657 354.958125 
L 254.187657 22.318125 
" clip-path="url(#p96617873e4)" style="fill: none; stroke: #b0b0b0; stroke-width: 0.8; stroke-linecap: square"/>
     </g>
     <g id="line2d_16">
      <g>
       <use xlink:href="#m52d88260c3" x="254.187657" y="354.958125" style="stroke: #000000; stroke-width: 0.8"/>
      </g>
     </g>
     <g id="text_8">
      <!-- 18:00 -->
      <g transform="translate(232.339162 387.708965) rotate(-45) scale(0.1 -0.1)">
       <use xlink:href="#DejaVuSans-31"/>
       <use xlink:href="#DejaVuSans-38" x="63.623047"/>
       <use xlink:href="#DejaVuSans-3a" x="127.246094"/>
       <use xlink:href="#DejaVuSans-30" x="160.9375"/>
       <use xlink:href="#DejaVuSans-30" x="224.560547"/>
      </g>
     </g>
    </g>
    <g id="xtick_9">
     <g id="line2d_17">
      <path d="M 279.627006 354.958125 
L 279.627006 22.318125 
" clip-path="url(#p96617873e4)" style="fill: none; stroke: #b0b0b0; stroke-width: 0.8; stroke-linecap: square"/>
     </g>
     <g id="line2d_18">
      <g>
       <use xlink:href="#m52d88260c3" x="279.627006" y="354.958125" style="stroke: #000000; stroke-width: 0.8"/>
      </g>
     </g>
     <g id="text_9">
      <!-- Wednesday 00:00 -->
      <g transform="translate(214.591964 430.895512) rotate(-45) scale(0.1 -0.1)">
       <defs>
        <path id="DejaVuSans-57" d="M 213 4666 
L 850 4666 
L 1831 722 
L 2809 4666 
L 3519 4666 
L 4500 722 
L 5478 4666 
L 6119 4666 
L 4947 0 
L 4153 0 
L 3169 4050 
L 2175 0 
L 1381 0 
L 213 4666 
z
" transform="scale(0.015625)"/>
       </defs>
       <use xlink:href="#DejaVuSans-57"/>
       <use xlink:href="#DejaVuSans-65" x="93.001953"/>
       <use xlink:href="#DejaVuSans-64" x="154.525391"/>
       <use xlink:href="#DejaVuSans-6e" x="218.001953"/>
       <use xlink:href="#DejaVuSans-65" x="281.380859"/>
       <use xlink:href="#DejaVuSans-73" x="342.904297"/>
       <use xlink:href="#DejaVuSans-64" x="395.003906"/>
       <use xlink:href="#DejaVuSans-61" x="458.480469"/>
       <use xlink:href="#DejaVuSans-79" x="519.759766"/>
       <use xlink:href="#DejaVuSans-20" x="578.939453"/>
       <use xlink:href="#DejaVuSans-30" x="610.726562"/>
       <use xlink:href="#DejaVuSans-30" x="674.349609"/>
       <use xlink:href="#DejaVuSans-3a" x="737.972656"/>
       <use xlink:href="#DejaVuSans-30" x="771.664062"/>
       <use xlink:href="#DejaVuSans-30" x="835.287109"/>
      </g>
     </g>
    </g>
    <g id="xtick_10">
     <g id="line2d_19">
      <path d="M 305.066354 354.958125 
L 305.066354 22.318125 
" clip-path="url(#p96617873e4)" style="fill: none; stroke: #b0b0b0; stroke-width: 0.8; stroke-linecap: square"/>
     </g>
     <g id="line2d_20">
      <g>
       <use xlink:href="#m52d88260c3" x="305.066354" y="354.958125" style="stroke: #000000; stroke-width: 0.8"/>
      </g>
     </g>
     <g id="text_10">
      <!-- 06:00 -->
      <g transform="translate(283.21786 387.708965) rotate(-45) scale(0.1 -0.1)">
       <use xlink:href="#DejaVuSans-30"/>
       <use xlink:href="#DejaVuSans-36" x="63.623047"/>
       <use xlink:href="#DejaVuSans-3a" x="127.246094"/>
       <use xlink:href="#DejaVuSans-30" x="160.9375"/>
       <use xlink:href="#DejaVuSans-30" x="224.560547"/>
      </g>
     </g>
    </g>
    <g id="xtick_11">
     <g id="line2d_21">
      <path d="M 330.505703 354.958125 
L 330.505703 22.318125 
" clip-path="url(#p96617873e4)" style="fill: none; stroke: #b0b0b0; stroke-width: 0.8; stroke-linecap: square"/>
     </g>
     <g id="line2d_22">
      <g>
       <use xlink:href="#m52d88260c3" x="330.505703" y="354.958125" style="stroke: #000000; stroke-width: 0.8"/>
      </g>
     </g>
     <g id="text_11">
      <!-- 12:00 -->
      <g transform="translate(308.657208 387.708965) rotate(-45) scale(0.1 -0.1)">
       <use xlink:href="#DejaVuSans-31"/>
       <use xlink:href="#DejaVuSans-32" x="63.623047"/>
       <use xlink:href="#DejaVuSans-3a" x="127.246094"/>
       <use xlink:href="#DejaVuSans-30" x="160.9375"/>
       <use xlink:href="#DejaVuSans-30" x="224.560547"/>
      </g>
     </g>
    </g>
    <g id="xtick_12">
     <g id="line2d_23">
      <path d="M 355.945052 354.958125 
L 355.945052 22.318125 
" clip-path="url(#p96617873e4)" style="fill: none; stroke: #b0b0b0; stroke-width: 0.8; stroke-linecap: square"/>
     </g>
     <g id="line2d_24">
      <g>
       <use xlink:href="#m52d88260c3" x="355.945052" y="354.958125" style="stroke: #000000; stroke-width: 0.8"/>
      </g>
     </g>
     <g id="text_12">
      <!-- 18:00 -->
      <g transform="translate(334.096557 387.708965) rotate(-45) scale(0.1 -0.1)">
       <use xlink:href="#DejaVuSans-31"/>
       <use xlink:href="#DejaVuSans-38" x="63.623047"/>
       <use xlink:href="#DejaVuSans-3a" x="127.246094"/>
       <use xlink:href="#DejaVuSans-30" x="160.9375"/>
       <use xlink:href="#DejaVuSans-30" x="224.560547"/>
      </g>
     </g>
    </g>
    <g id="xtick_13">
     <g id="line2d_25">
      <path d="M 381.3844 354.958125 
L 381.3844 22.318125 
" clip-path="url(#p96617873e4)" style="fill: none; stroke: #b0b0b0; stroke-width: 0.8; stroke-linecap: square"/>
     </g>
     <g id="line2d_26">
      <g>
       <use xlink:href="#m52d88260c3" x="381.3844" y="354.958125" style="stroke: #000000; stroke-width: 0.8"/>
      </g>
     </g>
     <g id="text_13">
      <!-- Thursday 00:00 -->
      <g transform="translate(324.409272 422.835599) rotate(-45) scale(0.1 -0.1)">
       <defs>
        <path id="DejaVuSans-68" d="M 3513 2113 
L 3513 0 
L 2938 0 
L 2938 2094 
Q 2938 2591 2744 2837 
Q 2550 3084 2163 3084 
Q 1697 3084 1428 2787 
Q 1159 2491 1159 1978 
L 1159 0 
L 581 0 
L 581 4863 
L 1159 4863 
L 1159 2956 
Q 1366 3272 1645 3428 
Q 1925 3584 2291 3584 
Q 2894 3584 3203 3211 
Q 3513 2838 3513 2113 
z
" transform="scale(0.015625)"/>
        <path id="DejaVuSans-72" d="M 2631 2963 
Q 2534 3019 2420 3045 
Q 2306 3072 2169 3072 
Q 1681 3072 1420 2755 
Q 1159 2438 1159 1844 
L 1159 0 
L 581 0 
L 581 3500 
L 1159 3500 
L 1159 2956 
Q 1341 3275 1631 3429 
Q 1922 3584 2338 3584 
Q 2397 3584 2469 3576 
Q 2541 3569 2628 3553 
L 2631 2963 
z
" transform="scale(0.015625)"/>
       </defs>
       <use xlink:href="#DejaVuSans-54"/>
       <use xlink:href="#DejaVuSans-68" x="61.083984"/>
       <use xlink:href="#DejaVuSans-75" x="124.462891"/>
       <use xlink:href="#DejaVuSans-72" x="187.841797"/>
       <use xlink:href="#DejaVuSans-73" x="228.955078"/>
       <use xlink:href="#DejaVuSans-64" x="281.054688"/>
       <use xlink:href="#DejaVuSans-61" x="344.53125"/>
       <use xlink:href="#DejaVuSans-79" x="405.810547"/>
       <use xlink:href="#DejaVuSans-20" x="464.990234"/>
       <use xlink:href="#DejaVuSans-30" x="496.777344"/>
       <use xlink:href="#DejaVuSans-30" x="560.400391"/>
       <use xlink:href="#DejaVuSans-3a" x="624.023438"/>
       <use xlink:href="#DejaVuSans-30" x="657.714844"/>
       <use xlink:href="#DejaVuSans-30" x="721.337891"/>
      </g>
     </g>
    </g>
    <g id="xtick_14">
     <g id="line2d_27">
      <path d="M 406.823749 354.958125 
L 406.823749 22.318125 
" clip-path="url(#p96617873e4)" style="fill: none; stroke: #b0b0b0; stroke-width: 0.8; stroke-linecap: square"/>
     </g>
     <g id="line2d_28">
      <g>
       <use xlink:href="#m52d88260c3" x="406.823749" y="354.958125" style="stroke: #000000; stroke-width: 0.8"/>
      </g>
     </g>
     <g id="text_14">
      <!-- 06:00 -->
      <g transform="translate(384.975254 387.708965) rotate(-45) scale(0.1 -0.1)">
       <use xlink:href="#DejaVuSans-30"/>
       <use xlink:href="#DejaVuSans-36" x="63.623047"/>
       <use xlink:href="#DejaVuSans-3a" x="127.246094"/>
       <use xlink:href="#DejaVuSans-30" x="160.9375"/>
       <use xlink:href="#DejaVuSans-30" x="224.560547"/>
      </g>
     </g>
    </g>
    <g id="xtick_15">
     <g id="line2d_29">
      <path d="M 432.263098 354.958125 
L 432.263098 22.318125 
" clip-path="url(#p96617873e4)" style="fill: none; stroke: #b0b0b0; stroke-width: 0.8; stroke-linecap: square"/>
     </g>
     <g id="line2d_30">
      <g>
       <use xlink:href="#m52d88260c3" x="432.263098" y="354.958125" style="stroke: #000000; stroke-width: 0.8"/>
      </g>
     </g>
     <g id="text_15">
      <!-- 12:00 -->
      <g transform="translate(410.414603 387.708965) rotate(-45) scale(0.1 -0.1)">
       <use xlink:href="#DejaVuSans-31"/>
       <use xlink:href="#DejaVuSans-32" x="63.623047"/>
       <use xlink:href="#DejaVuSans-3a" x="127.246094"/>
       <use xlink:href="#DejaVuSans-30" x="160.9375"/>
       <use xlink:href="#DejaVuSans-30" x="224.560547"/>
      </g>
     </g>
    </g>
    <g id="xtick_16">
     <g id="line2d_31">
      <path d="M 457.702447 354.958125 
L 457.702447 22.318125 
" clip-path="url(#p96617873e4)" style="fill: none; stroke: #b0b0b0; stroke-width: 0.8; stroke-linecap: square"/>
     </g>
     <g id="line2d_32">
      <g>
       <use xlink:href="#m52d88260c3" x="457.702447" y="354.958125" style="stroke: #000000; stroke-width: 0.8"/>
      </g>
     </g>
     <g id="text_16">
      <!-- 18:00 -->
      <g transform="translate(435.853952 387.708965) rotate(-45) scale(0.1 -0.1)">
       <use xlink:href="#DejaVuSans-31"/>
       <use xlink:href="#DejaVuSans-38" x="63.623047"/>
       <use xlink:href="#DejaVuSans-3a" x="127.246094"/>
       <use xlink:href="#DejaVuSans-30" x="160.9375"/>
       <use xlink:href="#DejaVuSans-30" x="224.560547"/>
      </g>
     </g>
    </g>
    <g id="xtick_17">
     <g id="line2d_33">
      <path d="M 483.141795 354.958125 
L 483.141795 22.318125 
" clip-path="url(#p96617873e4)" style="fill: none; stroke: #b0b0b0; stroke-width: 0.8; stroke-linecap: square"/>
     </g>
     <g id="line2d_34">
      <g>
       <use xlink:href="#m52d88260c3" x="483.141795" y="354.958125" style="stroke: #000000; stroke-width: 0.8"/>
      </g>
     </g>
     <g id="text_17">
      <!-- Friday 00:00 -->
      <g transform="translate(437.612957 411.389308) rotate(-45) scale(0.1 -0.1)">
       <defs>
        <path id="DejaVuSans-46" d="M 628 4666 
L 3309 4666 
L 3309 4134 
L 1259 4134 
L 1259 2759 
L 3109 2759 
L 3109 2228 
L 1259 2228 
L 1259 0 
L 628 0 
L 628 4666 
z
" transform="scale(0.015625)"/>
        <path id="DejaVuSans-69" d="M 603 3500 
L 1178 3500 
L 1178 0 
L 603 0 
L 603 3500 
z
M 603 4863 
L 1178 4863 
L 1178 4134 
L 603 4134 
L 603 4863 
z
" transform="scale(0.015625)"/>
       </defs>
       <use xlink:href="#DejaVuSans-46"/>
       <use xlink:href="#DejaVuSans-72" x="50.269531"/>
       <use xlink:href="#DejaVuSans-69" x="91.382812"/>
       <use xlink:href="#DejaVuSans-64" x="119.166016"/>
       <use xlink:href="#DejaVuSans-61" x="182.642578"/>
       <use xlink:href="#DejaVuSans-79" x="243.921875"/>
       <use xlink:href="#DejaVuSans-20" x="303.101562"/>
       <use xlink:href="#DejaVuSans-30" x="334.888672"/>
       <use xlink:href="#DejaVuSans-30" x="398.511719"/>
       <use xlink:href="#DejaVuSans-3a" x="462.134766"/>
       <use xlink:href="#DejaVuSans-30" x="495.826172"/>
       <use xlink:href="#DejaVuSans-30" x="559.449219"/>
      </g>
     </g>
    </g>
    <g id="xtick_18">
     <g id="line2d_35">
      <path d="M 508.581144 354.958125 
L 508.581144 22.318125 
" clip-path="url(#p96617873e4)" style="fill: none; stroke: #b0b0b0; stroke-width: 0.8; stroke-linecap: square"/>
     </g>
     <g id="line2d_36">
      <g>
       <use xlink:href="#m52d88260c3" x="508.581144" y="354.958125" style="stroke: #000000; stroke-width: 0.8"/>
      </g>
     </g>
     <g id="text_18">
      <!-- 06:00 -->
      <g transform="translate(486.732649 387.708965) rotate(-45) scale(0.1 -0.1)">
       <use xlink:href="#DejaVuSans-30"/>
       <use xlink:href="#DejaVuSans-36" x="63.623047"/>
       <use xlink:href="#DejaVuSans-3a" x="127.246094"/>
       <use xlink:href="#DejaVuSans-30" x="160.9375"/>
       <use xlink:href="#DejaVuSans-30" x="224.560547"/>
      </g>
     </g>
    </g>
    <g id="xtick_19">
     <g id="line2d_37">
      <path d="M 534.020493 354.958125 
L 534.020493 22.318125 
" clip-path="url(#p96617873e4)" style="fill: none; stroke: #b0b0b0; stroke-width: 0.8; stroke-linecap: square"/>
     </g>
     <g id="line2d_38">
      <g>
       <use xlink:href="#m52d88260c3" x="534.020493" y="354.958125" style="stroke: #000000; stroke-width: 0.8"/>
      </g>
     </g>
     <g id="text_19">
      <!-- 12:00 -->
      <g transform="translate(512.171998 387.708965) rotate(-45) scale(0.1 -0.1)">
       <use xlink:href="#DejaVuSans-31"/>
       <use xlink:href="#DejaVuSans-32" x="63.623047"/>
       <use xlink:href="#DejaVuSans-3a" x="127.246094"/>
       <use xlink:href="#DejaVuSans-30" x="160.9375"/>
       <use xlink:href="#DejaVuSans-30" x="224.560547"/>
      </g>
     </g>
    </g>
    <g id="xtick_20">
     <g id="line2d_39">
      <path d="M 559.459841 354.958125 
L 559.459841 22.318125 
" clip-path="url(#p96617873e4)" style="fill: none; stroke: #b0b0b0; stroke-width: 0.8; stroke-linecap: square"/>
     </g>
     <g id="line2d_40">
      <g>
       <use xlink:href="#m52d88260c3" x="559.459841" y="354.958125" style="stroke: #000000; stroke-width: 0.8"/>
      </g>
     </g>
     <g id="text_20">
      <!-- 18:00 -->
      <g transform="translate(537.611347 387.708965) rotate(-45) scale(0.1 -0.1)">
       <use xlink:href="#DejaVuSans-31"/>
       <use xlink:href="#DejaVuSans-38" x="63.623047"/>
       <use xlink:href="#DejaVuSans-3a" x="127.246094"/>
       <use xlink:href="#DejaVuSans-30" x="160.9375"/>
       <use xlink:href="#DejaVuSans-30" x="224.560547"/>
      </g>
     </g>
    </g>
    <g id="xtick_21">
     <g id="line2d_41">
      <path d="M 584.89919 354.958125 
L 584.89919 22.318125 
" clip-path="url(#p96617873e4)" style="fill: none; stroke: #b0b0b0; stroke-width: 0.8; stroke-linecap: square"/>
     </g>
     <g id="line2d_42">
      <g>
       <use xlink:href="#m52d88260c3" x="584.89919" y="354.958125" style="stroke: #000000; stroke-width: 0.8"/>
      </g>
     </g>
     <g id="text_21">
      <!-- Saturday 00:00 -->
      <g transform="translate(528.937213 421.822448) rotate(-45) scale(0.1 -0.1)">
       <defs>
        <path id="DejaVuSans-53" d="M 3425 4513 
L 3425 3897 
Q 3066 4069 2747 4153 
Q 2428 4238 2131 4238 
Q 1616 4238 1336 4038 
Q 1056 3838 1056 3469 
Q 1056 3159 1242 3001 
Q 1428 2844 1947 2747 
L 2328 2669 
Q 3034 2534 3370 2195 
Q 3706 1856 3706 1288 
Q 3706 609 3251 259 
Q 2797 -91 1919 -91 
Q 1588 -91 1214 -16 
Q 841 59 441 206 
L 441 856 
Q 825 641 1194 531 
Q 1563 422 1919 422 
Q 2459 422 2753 634 
Q 3047 847 3047 1241 
Q 3047 1584 2836 1778 
Q 2625 1972 2144 2069 
L 1759 2144 
Q 1053 2284 737 2584 
Q 422 2884 422 3419 
Q 422 4038 858 4394 
Q 1294 4750 2059 4750 
Q 2388 4750 2728 4690 
Q 3069 4631 3425 4513 
z
" transform="scale(0.015625)"/>
        <path id="DejaVuSans-74" d="M 1172 4494 
L 1172 3500 
L 2356 3500 
L 2356 3053 
L 1172 3053 
L 1172 1153 
Q 1172 725 1289 603 
Q 1406 481 1766 481 
L 2356 481 
L 2356 0 
L 1766 0 
Q 1100 0 847 248 
Q 594 497 594 1153 
L 594 3053 
L 172 3053 
L 172 3500 
L 594 3500 
L 594 4494 
L 1172 4494 
z
" transform="scale(0.015625)"/>
       </defs>
       <use xlink:href="#DejaVuSans-53"/>
       <use xlink:href="#DejaVuSans-61" x="63.476562"/>
       <use xlink:href="#DejaVuSans-74" x="124.755859"/>
       <use xlink:href="#DejaVuSans-75" x="163.964844"/>
       <use xlink:href="#DejaVuSans-72" x="227.34375"/>
       <use xlink:href="#DejaVuSans-64" x="266.707031"/>
       <use xlink:href="#DejaVuSans-61" x="330.183594"/>
       <use xlink:href="#DejaVuSans-79" x="391.462891"/>
       <use xlink:href="#DejaVuSans-20" x="450.642578"/>
       <use xlink:href="#DejaVuSans-30" x="482.429688"/>
       <use xlink:href="#DejaVuSans-30" x="546.052734"/>
       <use xlink:href="#DejaVuSans-3a" x="609.675781"/>
       <use xlink:href="#DejaVuSans-30" x="643.367188"/>
       <use xlink:href="#DejaVuSans-30" x="706.990234"/>
      </g>
     </g>
    </g>
    <g id="xtick_22">
     <g id="line2d_43">
      <path d="M 610.338539 354.958125 
L 610.338539 22.318125 
" clip-path="url(#p96617873e4)" style="fill: none; stroke: #b0b0b0; stroke-width: 0.8; stroke-linecap: square"/>
     </g>
     <g id="line2d_44">
      <g>
       <use xlink:href="#m52d88260c3" x="610.338539" y="354.958125" style="stroke: #000000; stroke-width: 0.8"/>
      </g>
     </g>
     <g id="text_22">
      <!-- 06:00 -->
      <g transform="translate(588.490044 387.708965) rotate(-45) scale(0.1 -0.1)">
       <use xlink:href="#DejaVuSans-30"/>
       <use xlink:href="#DejaVuSans-36" x="63.623047"/>
       <use xlink:href="#DejaVuSans-3a" x="127.246094"/>
       <use xlink:href="#DejaVuSans-30" x="160.9375"/>
       <use xlink:href="#DejaVuSans-30" x="224.560547"/>
      </g>
     </g>
    </g>
    <g id="xtick_23">
     <g id="line2d_45">
      <path d="M 635.777888 354.958125 
L 635.777888 22.318125 
" clip-path="url(#p96617873e4)" style="fill: none; stroke: #b0b0b0; stroke-width: 0.8; stroke-linecap: square"/>
     </g>
     <g id="line2d_46">
      <g>
       <use xlink:href="#m52d88260c3" x="635.777888" y="354.958125" style="stroke: #000000; stroke-width: 0.8"/>
      </g>
     </g>
     <g id="text_23">
      <!-- 12:00 -->
      <g transform="translate(613.929393 387.708965) rotate(-45) scale(0.1 -0.1)">
       <use xlink:href="#DejaVuSans-31"/>
       <use xlink:href="#DejaVuSans-32" x="63.623047"/>
       <use xlink:href="#DejaVuSans-3a" x="127.246094"/>
       <use xlink:href="#DejaVuSans-30" x="160.9375"/>
       <use xlink:href="#DejaVuSans-30" x="224.560547"/>
      </g>
     </g>
    </g>
    <g id="xtick_24">
     <g id="line2d_47">
      <path d="M 661.217236 354.958125 
L 661.217236 22.318125 
" clip-path="url(#p96617873e4)" style="fill: none; stroke: #b0b0b0; stroke-width: 0.8; stroke-linecap: square"/>
     </g>
     <g id="line2d_48">
      <g>
       <use xlink:href="#m52d88260c3" x="661.217236" y="354.958125" style="stroke: #000000; stroke-width: 0.8"/>
      </g>
     </g>
     <g id="text_24">
      <!-- 18:00 -->
      <g transform="translate(639.368742 387.708965) rotate(-45) scale(0.1 -0.1)">
       <use xlink:href="#DejaVuSans-31"/>
       <use xlink:href="#DejaVuSans-38" x="63.623047"/>
       <use xlink:href="#DejaVuSans-3a" x="127.246094"/>
       <use xlink:href="#DejaVuSans-30" x="160.9375"/>
       <use xlink:href="#DejaVuSans-30" x="224.560547"/>
      </g>
     </g>
    </g>
    <g id="xtick_25">
     <g id="line2d_49">
      <path d="M 686.656585 354.958125 
L 686.656585 22.318125 
" clip-path="url(#p96617873e4)" style="fill: none; stroke: #b0b0b0; stroke-width: 0.8; stroke-linecap: square"/>
     </g>
     <g id="line2d_50">
      <g>
       <use xlink:href="#m52d88260c3" x="686.656585" y="354.958125" style="stroke: #000000; stroke-width: 0.8"/>
      </g>
     </g>
     <g id="text_25">
      <!-- Sunday 00:00 -->
      <g transform="translate(636.101765 416.415291) rotate(-45) scale(0.1 -0.1)">
       <use xlink:href="#DejaVuSans-53"/>
       <use xlink:href="#DejaVuSans-75" x="63.476562"/>
       <use xlink:href="#DejaVuSans-6e" x="126.855469"/>
       <use xlink:href="#DejaVuSans-64" x="190.234375"/>
       <use xlink:href="#DejaVuSans-61" x="253.710938"/>
       <use xlink:href="#DejaVuSans-79" x="314.990234"/>
       <use xlink:href="#DejaVuSans-20" x="374.169922"/>
       <use xlink:href="#DejaVuSans-30" x="405.957031"/>
       <use xlink:href="#DejaVuSans-30" x="469.580078"/>
       <use xlink:href="#DejaVuSans-3a" x="533.203125"/>
       <use xlink:href="#DejaVuSans-30" x="566.894531"/>
       <use xlink:href="#DejaVuSans-30" x="630.517578"/>
      </g>
     </g>
    </g>
    <g id="xtick_26">
     <g id="line2d_51">
      <path d="M 712.095934 354.958125 
L 712.095934 22.318125 
" clip-path="url(#p96617873e4)" style="fill: none; stroke: #b0b0b0; stroke-width: 0.8; stroke-linecap: square"/>
     </g>
     <g id="line2d_52">
      <g>
       <use xlink:href="#m52d88260c3" x="712.095934" y="354.958125" style="stroke: #000000; stroke-width: 0.8"/>
      </g>
     </g>
     <g id="text_26">
      <!-- 06:00 -->
      <g transform="translate(690.247439 387.708965) rotate(-45) scale(0.1 -0.1)">
       <use xlink:href="#DejaVuSans-30"/>
       <use xlink:href="#DejaVuSans-36" x="63.623047"/>
       <use xlink:href="#DejaVuSans-3a" x="127.246094"/>
       <use xlink:href="#DejaVuSans-30" x="160.9375"/>
       <use xlink:href="#DejaVuSans-30" x="224.560547"/>
      </g>
     </g>
    </g>
    <g id="xtick_27">
     <g id="line2d_53">
      <path d="M 737.535282 354.958125 
L 737.535282 22.318125 
" clip-path="url(#p96617873e4)" style="fill: none; stroke: #b0b0b0; stroke-width: 0.8; stroke-linecap: square"/>
     </g>
     <g id="line2d_54">
      <g>
       <use xlink:href="#m52d88260c3" x="737.535282" y="354.958125" style="stroke: #000000; stroke-width: 0.8"/>
      </g>
     </g>
     <g id="text_27">
      <!-- 12:00 -->
      <g transform="translate(715.686788 387.708965) rotate(-45) scale(0.1 -0.1)">
       <use xlink:href="#DejaVuSans-31"/>
       <use xlink:href="#DejaVuSans-32" x="63.623047"/>
       <use xlink:href="#DejaVuSans-3a" x="127.246094"/>
       <use xlink:href="#DejaVuSans-30" x="160.9375"/>
       <use xlink:href="#DejaVuSans-30" x="224.560547"/>
      </g>
     </g>
    </g>
    <g id="xtick_28">
     <g id="line2d_55">
      <path d="M 762.974631 354.958125 
L 762.974631 22.318125 
" clip-path="url(#p96617873e4)" style="fill: none; stroke: #b0b0b0; stroke-width: 0.8; stroke-linecap: square"/>
     </g>
     <g id="line2d_56">
      <g>
       <use xlink:href="#m52d88260c3" x="762.974631" y="354.958125" style="stroke: #000000; stroke-width: 0.8"/>
      </g>
     </g>
     <g id="text_28">
      <!-- 18:00 -->
      <g transform="translate(741.126136 387.708965) rotate(-45) scale(0.1 -0.1)">
       <use xlink:href="#DejaVuSans-31"/>
       <use xlink:href="#DejaVuSans-38" x="63.623047"/>
       <use xlink:href="#DejaVuSans-3a" x="127.246094"/>
       <use xlink:href="#DejaVuSans-30" x="160.9375"/>
       <use xlink:href="#DejaVuSans-30" x="224.560547"/>
      </g>
     </g>
    </g>
    <g id="text_29">
     <!-- Time -->
     <g transform="translate(418.969531 443.964511) scale(0.1 -0.1)">
      <defs>
       <path id="DejaVuSans-6d" d="M 3328 2828 
Q 3544 3216 3844 3400 
Q 4144 3584 4550 3584 
Q 5097 3584 5394 3201 
Q 5691 2819 5691 2113 
L 5691 0 
L 5113 0 
L 5113 2094 
Q 5113 2597 4934 2840 
Q 4756 3084 4391 3084 
Q 3944 3084 3684 2787 
Q 3425 2491 3425 1978 
L 3425 0 
L 2847 0 
L 2847 2094 
Q 2847 2600 2669 2842 
Q 2491 3084 2119 3084 
Q 1678 3084 1418 2786 
Q 1159 2488 1159 1978 
L 1159 0 
L 581 0 
L 581 3500 
L 1159 3500 
L 1159 2956 
Q 1356 3278 1631 3431 
Q 1906 3584 2284 3584 
Q 2666 3584 2933 3390 
Q 3200 3197 3328 2828 
z
" transform="scale(0.015625)"/>
      </defs>
      <use xlink:href="#DejaVuSans-54"/>
      <use xlink:href="#DejaVuSans-69" x="57.958984"/>
      <use xlink:href="#DejaVuSans-6d" x="85.742188"/>
      <use xlink:href="#DejaVuSans-65" x="183.154297"/>
     </g>
    </g>
   </g>
   <g id="matplotlib.axis_2">
    <g id="ytick_1">
     <g id="line2d_57">
      <path d="M 40.603125 335.217148 
L 821.803125 335.217148 
" clip-path="url(#p96617873e4)" style="fill: none; stroke: #b0b0b0; stroke-width: 0.8; stroke-linecap: square"/>
     </g>
     <g id="line2d_58">
      <defs>
       <path id="ma1e3bc4b12" d="M 0 0 
L -3.5 0 
" style="stroke: #000000; stroke-width: 0.8"/>
      </defs>
      <g>
       <use xlink:href="#ma1e3bc4b12" x="40.603125" y="335.217148" style="stroke: #000000; stroke-width: 0.8"/>
      </g>
     </g>
     <g id="text_30">
      <!-- 0 -->
      <g transform="translate(27.240625 339.016367) scale(0.1 -0.1)">
       <use xlink:href="#DejaVuSans-30"/>
      </g>
     </g>
    </g>
    <g id="ytick_2">
     <g id="line2d_59">
      <path d="M 40.603125 267.321528 
L 821.803125 267.321528 
" clip-path="url(#p96617873e4)" style="fill: none; stroke: #b0b0b0; stroke-width: 0.8; stroke-linecap: square"/>
     </g>
     <g id="line2d_60">
      <g>
       <use xlink:href="#ma1e3bc4b12" x="40.603125" y="267.321528" style="stroke: #000000; stroke-width: 0.8"/>
      </g>
     </g>
     <g id="text_31">
      <!-- 5 -->
      <g transform="translate(27.240625 271.120747) scale(0.1 -0.1)">
       <defs>
        <path id="DejaVuSans-35" d="M 691 4666 
L 3169 4666 
L 3169 4134 
L 1269 4134 
L 1269 2991 
Q 1406 3038 1543 3061 
Q 1681 3084 1819 3084 
Q 2600 3084 3056 2656 
Q 3513 2228 3513 1497 
Q 3513 744 3044 326 
Q 2575 -91 1722 -91 
Q 1428 -91 1123 -41 
Q 819 9 494 109 
L 494 744 
Q 775 591 1075 516 
Q 1375 441 1709 441 
Q 2250 441 2565 725 
Q 2881 1009 2881 1497 
Q 2881 1984 2565 2268 
Q 2250 2553 1709 2553 
Q 1456 2553 1204 2497 
Q 953 2441 691 2322 
L 691 4666 
z
" transform="scale(0.015625)"/>
       </defs>
       <use xlink:href="#DejaVuSans-35"/>
      </g>
     </g>
    </g>
    <g id="ytick_3">
     <g id="line2d_61">
      <path d="M 40.603125 199.425909 
L 821.803125 199.425909 
" clip-path="url(#p96617873e4)" style="fill: none; stroke: #b0b0b0; stroke-width: 0.8; stroke-linecap: square"/>
     </g>
     <g id="line2d_62">
      <g>
       <use xlink:href="#ma1e3bc4b12" x="40.603125" y="199.425909" style="stroke: #000000; stroke-width: 0.8"/>
      </g>
     </g>
     <g id="text_32">
      <!-- 10 -->
      <g transform="translate(20.878125 203.225127) scale(0.1 -0.1)">
       <use xlink:href="#DejaVuSans-31"/>
       <use xlink:href="#DejaVuSans-30" x="63.623047"/>
      </g>
     </g>
    </g>
    <g id="ytick_4">
     <g id="line2d_63">
      <path d="M 40.603125 131.530289 
L 821.803125 131.530289 
" clip-path="url(#p96617873e4)" style="fill: none; stroke: #b0b0b0; stroke-width: 0.8; stroke-linecap: square"/>
     </g>
     <g id="line2d_64">
      <g>
       <use xlink:href="#ma1e3bc4b12" x="40.603125" y="131.530289" style="stroke: #000000; stroke-width: 0.8"/>
      </g>
     </g>
     <g id="text_33">
      <!-- 15 -->
      <g transform="translate(20.878125 135.329508) scale(0.1 -0.1)">
       <use xlink:href="#DejaVuSans-31"/>
       <use xlink:href="#DejaVuSans-35" x="63.623047"/>
      </g>
     </g>
    </g>
    <g id="ytick_5">
     <g id="line2d_65">
      <path d="M 40.603125 63.634669 
L 821.803125 63.634669 
" clip-path="url(#p96617873e4)" style="fill: none; stroke: #b0b0b0; stroke-width: 0.8; stroke-linecap: square"/>
     </g>
     <g id="line2d_66">
      <g>
       <use xlink:href="#ma1e3bc4b12" x="40.603125" y="63.634669" style="stroke: #000000; stroke-width: 0.8"/>
      </g>
     </g>
     <g id="text_34">
      <!-- 20 -->
      <g transform="translate(20.878125 67.433888) scale(0.1 -0.1)">
       <use xlink:href="#DejaVuSans-32"/>
       <use xlink:href="#DejaVuSans-30" x="63.623047"/>
      </g>
     </g>
    </g>
    <g id="text_35">
     <!-- Power Usage (Wh/m^2, P1) -->
     <g transform="translate(14.798438 257.823281) rotate(-90) scale(0.1 -0.1)">
      <defs>
       <path id="DejaVuSans-50" d="M 1259 4147 
L 1259 2394 
L 2053 2394 
Q 2494 2394 2734 2622 
Q 2975 2850 2975 3272 
Q 2975 3691 2734 3919 
Q 2494 4147 2053 4147 
L 1259 4147 
z
M 628 4666 
L 2053 4666 
Q 2838 4666 3239 4311 
Q 3641 3956 3641 3272 
Q 3641 2581 3239 2228 
Q 2838 1875 2053 1875 
L 1259 1875 
L 1259 0 
L 628 0 
L 628 4666 
z
" transform="scale(0.015625)"/>
       <path id="DejaVuSans-77" d="M 269 3500 
L 844 3500 
L 1563 769 
L 2278 3500 
L 2956 3500 
L 3675 769 
L 4391 3500 
L 4966 3500 
L 4050 0 
L 3372 0 
L 2619 2869 
L 1863 0 
L 1184 0 
L 269 3500 
z
" transform="scale(0.015625)"/>
       <path id="DejaVuSans-55" d="M 556 4666 
L 1191 4666 
L 1191 1831 
Q 1191 1081 1462 751 
Q 1734 422 2344 422 
Q 2950 422 3222 751 
Q 3494 1081 3494 1831 
L 3494 4666 
L 4128 4666 
L 4128 1753 
Q 4128 841 3676 375 
Q 3225 -91 2344 -91 
Q 1459 -91 1007 375 
Q 556 841 556 1753 
L 556 4666 
z
" transform="scale(0.015625)"/>
       <path id="DejaVuSans-67" d="M 2906 1791 
Q 2906 2416 2648 2759 
Q 2391 3103 1925 3103 
Q 1463 3103 1205 2759 
Q 947 2416 947 1791 
Q 947 1169 1205 825 
Q 1463 481 1925 481 
Q 2391 481 2648 825 
Q 2906 1169 2906 1791 
z
M 3481 434 
Q 3481 -459 3084 -895 
Q 2688 -1331 1869 -1331 
Q 1566 -1331 1297 -1286 
Q 1028 -1241 775 -1147 
L 775 -588 
Q 1028 -725 1275 -790 
Q 1522 -856 1778 -856 
Q 2344 -856 2625 -561 
Q 2906 -266 2906 331 
L 2906 616 
Q 2728 306 2450 153 
Q 2172 0 1784 0 
Q 1141 0 747 490 
Q 353 981 353 1791 
Q 353 2603 747 3093 
Q 1141 3584 1784 3584 
Q 2172 3584 2450 3431 
Q 2728 3278 2906 2969 
L 2906 3500 
L 3481 3500 
L 3481 434 
z
" transform="scale(0.015625)"/>
       <path id="DejaVuSans-28" d="M 1984 4856 
Q 1566 4138 1362 3434 
Q 1159 2731 1159 2009 
Q 1159 1288 1364 580 
Q 1569 -128 1984 -844 
L 1484 -844 
Q 1016 -109 783 600 
Q 550 1309 550 2009 
Q 550 2706 781 3412 
Q 1013 4119 1484 4856 
L 1984 4856 
z
" transform="scale(0.015625)"/>
       <path id="DejaVuSans-2f" d="M 1625 4666 
L 2156 4666 
L 531 -594 
L 0 -594 
L 1625 4666 
z
" transform="scale(0.015625)"/>
       <path id="DejaVuSans-5e" d="M 2988 4666 
L 4684 2925 
L 4056 2925 
L 2681 4159 
L 1306 2925 
L 678 2925 
L 2375 4666 
L 2988 4666 
z
" transform="scale(0.015625)"/>
       <path id="DejaVuSans-2c" d="M 750 794 
L 1409 794 
L 1409 256 
L 897 -744 
L 494 -744 
L 750 256 
L 750 794 
z
" transform="scale(0.015625)"/>
       <path id="DejaVuSans-29" d="M 513 4856 
L 1013 4856 
Q 1481 4119 1714 3412 
Q 1947 2706 1947 2009 
Q 1947 1309 1714 600 
Q 1481 -109 1013 -844 
L 513 -844 
Q 928 -128 1133 580 
Q 1338 1288 1338 2009 
Q 1338 2731 1133 3434 
Q 928 4138 513 4856 
z
" transform="scale(0.015625)"/>
      </defs>
      <use xlink:href="#DejaVuSans-50"/>
      <use xlink:href="#DejaVuSans-6f" x="56.677734"/>
      <use xlink:href="#DejaVuSans-77" x="117.859375"/>
      <use xlink:href="#DejaVuSans-65" x="199.646484"/>
      <use xlink:href="#DejaVuSans-72" x="261.169922"/>
      <use xlink:href="#DejaVuSans-20" x="302.283203"/>
      <use xlink:href="#DejaVuSans-55" x="334.070312"/>
      <use xlink:href="#DejaVuSans-73" x="407.263672"/>
      <use xlink:href="#DejaVuSans-61" x="459.363281"/>
      <use xlink:href="#DejaVuSans-67" x="520.642578"/>
      <use xlink:href="#DejaVuSans-65" x="584.119141"/>
      <use xlink:href="#DejaVuSans-20" x="645.642578"/>
      <use xlink:href="#DejaVuSans-28" x="677.429688"/>
      <use xlink:href="#DejaVuSans-57" x="716.443359"/>
      <use xlink:href="#DejaVuSans-68" x="815.320312"/>
      <use xlink:href="#DejaVuSans-2f" x="878.699219"/>
      <use xlink:href="#DejaVuSans-6d" x="912.390625"/>
      <use xlink:href="#DejaVuSans-5e" x="1009.802734"/>
      <use xlink:href="#DejaVuSans-32" x="1093.591797"/>
      <use xlink:href="#DejaVuSans-2c" x="1157.214844"/>
      <use xlink:href="#DejaVuSans-20" x="1189.001953"/>
      <use xlink:href="#DejaVuSans-50" x="1220.789062"/>
      <use xlink:href="#DejaVuSans-31" x="1281.091797"/>
      <use xlink:href="#DejaVuSans-29" x="1344.714844"/>
     </g>
    </g>
   </g>
   <g id="line2d_67">
    <path d="M 76.112216 269.380714 
L 78.232162 271.921297 
L 80.352107 270.761207 
L 82.472053 272.558613 
L 84.591999 271.463368 
L 86.711945 271.926346 
L 88.83189 271.010739 
L 90.951836 272.803931 
L 93.071782 271.053148 
L 95.191727 273.718775 
L 97.311673 271.479282 
L 99.431619 274.600106 
L 101.551565 270.5978 
L 103.67151 271.940053 
L 105.791456 268.261502 
L 107.911402 265.074571 
L 110.031348 254.560749 
L 112.151293 242.075122 
L 116.391185 151.422996 
L 118.51113 143.421944 
L 120.631076 146.340591 
L 122.751022 144.605148 
L 124.870968 143.638771 
L 129.110859 145.211218 
L 131.230805 145.523694 
L 133.350751 144.678341 
L 135.470696 145.866492 
L 137.590642 146.049604 
L 139.710588 146.542027 
L 141.830533 148.331608 
L 143.950479 148.218082 
L 146.070425 150.219173 
L 148.190371 152.66992 
L 150.310316 159.815622 
L 152.430262 172.429827 
L 154.550208 197.8857 
L 156.670153 214.64387 
L 158.790099 241.454434 
L 160.910045 252.486707 
L 163.029991 258.124175 
L 165.149936 261.319779 
L 167.269882 264.934058 
L 169.389828 263.196228 
L 171.509774 268.826289 
L 173.629719 267.772764 
L 175.749665 269.864296 
L 177.869611 269.20719 
L 179.989556 271.900189 
L 182.109502 267.910616 
L 184.229448 266.822513 
L 186.349394 267.485747 
L 188.469339 270.131832 
L 190.589285 270.798313 
L 192.709231 272.026604 
L 194.829177 271.367388 
L 196.949122 272.000449 
L 199.069068 271.847972 
L 201.189014 271.156481 
L 203.308959 272.292652 
L 205.428905 270.402898 
L 207.548851 268.04049 
L 209.668797 262.192298 
L 211.788742 254.279383 
L 213.908688 239.605766 
L 218.14858 155.693327 
L 220.268525 148.889404 
L 222.388471 145.882188 
L 224.508417 143.595683 
L 226.628362 142.318115 
L 228.748308 142.802209 
L 230.868254 143.65915 
L 232.9882 142.943996 
L 235.108145 143.361069 
L 237.228091 142.622108 
L 239.348037 143.764202 
L 241.467983 143.496935 
L 243.587928 146.381675 
L 245.707874 143.935044 
L 247.82782 152.327954 
L 249.947765 146.200746 
L 252.067711 150.897214 
L 254.187657 165.085323 
L 256.307603 192.832135 
L 258.427548 210.176338 
L 260.547494 238.589907 
L 262.66744 249.678297 
L 264.787386 256.60573 
L 266.907331 261.582073 
L 269.027277 264.037378 
L 271.147223 264.88686 
L 273.267168 267.87734 
L 275.387114 269.730393 
L 277.50706 269.38141 
L 279.627006 270.39674 
L 281.746951 271.668564 
L 283.866897 272.026982 
L 285.986843 272.618117 
L 288.106789 271.95124 
L 290.226734 273.500581 
L 292.34668 269.058349 
L 294.466626 268.999466 
L 296.586571 268.112261 
L 298.706517 271.775835 
L 300.826463 272.275292 
L 305.066354 272.443878 
L 307.1863 271.238788 
L 309.306246 269.071155 
L 311.426191 264.033476 
L 313.546137 254.461167 
L 315.666083 239.418645 
L 319.905974 154.935348 
L 322.02592 147.590594 
L 324.145866 144.669376 
L 326.265812 144.400648 
L 328.385757 141.976226 
L 330.505703 142.350546 
L 332.625649 144.01348 
L 334.745594 143.70326 
L 336.86554 144.180397 
L 338.985486 141.513101 
L 341.105432 144.914721 
L 343.225377 143.578601 
L 345.345323 144.625874 
L 347.465269 143.926573 
L 349.585215 146.082165 
L 351.70516 147.330927 
L 353.825106 156.811458 
L 355.945052 168.062313 
L 358.064997 202.193417 
L 360.184943 203.062685 
L 362.304889 230.549742 
L 364.424835 241.691865 
L 366.54478 256.373224 
L 368.664726 257.890011 
L 370.784672 263.554873 
L 372.904618 261.701757 
L 375.024563 268.663218 
L 377.144509 268.042586 
L 379.264455 269.77606 
L 381.3844 269.765359 
L 383.504346 271.159219 
L 385.624292 271.145718 
L 387.744238 271.645208 
L 389.864183 271.807936 
L 391.984129 272.225239 
L 394.104075 271.629426 
L 396.224021 272.250655 
L 400.463912 271.794348 
L 402.583858 271.845957 
L 404.703803 272.250108 
L 406.823749 271.874242 
L 408.943695 272.100532 
L 411.063641 266.28942 
L 413.183586 261.545573 
L 415.303532 252.598973 
L 417.423478 238.845779 
L 419.543424 199.315427 
L 421.663369 155.376525 
L 423.783315 149.319162 
L 425.903261 146.292116 
L 428.023206 144.154984 
L 430.143152 144.489972 
L 432.263098 143.269139 
L 434.383044 145.349141 
L 436.502989 143.295198 
L 438.622935 144.135488 
L 440.742881 143.171444 
L 442.862826 144.476748 
L 444.982772 143.036039 
L 447.102718 145.261976 
L 449.222664 144.165734 
L 451.342609 146.75377 
L 453.462555 148.198651 
L 455.582501 154.683866 
L 457.702447 169.492737 
L 459.822392 194.960786 
L 461.942338 210.862745 
L 464.062284 237.634224 
L 466.182229 249.158665 
L 468.302175 256.556461 
L 470.422121 261.371059 
L 472.542067 263.038916 
L 474.662012 264.864374 
L 476.781958 267.087167 
L 478.901904 269.558991 
L 481.02185 268.584441 
L 485.261741 270.78861 
L 487.381687 272.080191 
L 489.501632 272.094125 
L 491.621578 273.379172 
L 493.741524 270.874275 
L 495.86147 273.889713 
L 497.981415 271.463844 
L 500.101361 273.751752 
L 502.221307 271.868576 
L 504.341253 271.592178 
L 506.461198 270.248678 
L 508.581144 271.08974 
L 510.70109 269.953645 
L 512.821035 270.084998 
L 514.940981 262.993931 
L 517.060927 256.92561 
L 519.180873 237.543138 
L 521.300818 199.554922 
L 523.420764 155.833828 
L 525.54071 149.807041 
L 527.660656 146.97461 
L 529.780601 145.437408 
L 531.900547 146.270675 
L 534.020493 144.289381 
L 536.140438 154.115057 
L 538.260384 143.999225 
L 540.38033 138.884424 
L 542.500276 137.934117 
L 544.620221 146.184052 
L 546.740167 144.374494 
L 548.860113 145.161681 
L 550.980059 144.916104 
L 553.100004 145.96479 
L 555.21995 149.411157 
L 557.339896 153.86031 
L 559.459841 166.718927 
L 561.579787 183.6333 
L 563.699733 194.931319 
L 565.819679 213.952463 
L 567.939624 230.404743 
L 570.05957 238.864295 
L 572.179516 250.367858 
L 574.299461 258.943743 
L 576.419407 264.793299 
L 578.539353 265.502248 
L 580.659299 269.021581 
L 582.779244 267.47277 
L 584.89919 270.89879 
L 587.019136 268.878254 
L 589.139082 272.542101 
L 591.259027 270.350715 
L 593.378973 272.377935 
L 595.498919 271.232235 
L 597.618864 270.530065 
L 599.73881 268.020745 
L 601.858756 270.462574 
L 603.978702 269.885996 
L 606.098647 272.446313 
L 608.218593 270.674032 
L 610.338539 272.988925 
L 612.458485 269.290567 
L 614.57843 270.334028 
L 618.818322 263.282343 
L 620.938267 247.896087 
L 623.058213 207.303118 
L 625.178159 162.146173 
L 627.298105 152.615504 
L 629.41805 151.872507 
L 631.537996 149.527089 
L 633.657942 148.297077 
L 635.777888 149.000317 
L 640.017779 150.574439 
L 642.137725 149.712332 
L 644.25767 151.533459 
L 646.377616 152.536284 
L 648.497562 151.092325 
L 650.617508 148.208777 
L 652.737453 151.605126 
L 654.857399 153.647599 
L 656.977345 158.150271 
L 659.097291 172.339842 
L 663.337182 191.717598 
L 665.457128 200.76443 
L 667.577073 221.544752 
L 669.697019 232.604354 
L 671.816965 242.988908 
L 673.936911 250.094341 
L 676.056856 261.284953 
L 678.176802 263.067488 
L 680.296748 267.647448 
L 682.416694 267.93463 
L 684.536639 269.988901 
L 686.656585 271.790527 
L 688.776531 271.185081 
L 690.896476 270.015033 
L 693.016422 272.401702 
L 695.136368 271.840199 
L 697.256314 270.563429 
L 701.496205 271.803417 
L 703.616151 272.038979 
L 705.736097 271.50538 
L 707.856042 271.789115 
L 709.975988 271.108623 
L 712.095934 271.783721 
L 714.215879 270.08669 
L 716.335825 270.106293 
L 718.455771 267.11547 
L 720.575717 264.467251 
L 722.695662 250.407657 
L 724.815608 216.615432 
L 726.935554 169.363787 
L 729.055499 156.350258 
L 731.175445 155.249798 
L 733.295391 151.602278 
L 735.415337 150.999662 
L 737.535282 150.208885 
L 739.655228 153.420582 
L 741.775174 152.433661 
L 743.89512 155.177949 
L 746.015065 157.655091 
L 748.135011 158.435694 
L 750.254957 163.379739 
L 752.374902 174.455653 
L 754.494848 179.506448 
L 756.614794 181.177396 
L 758.73474 187.817253 
L 760.854685 205.654946 
L 762.974631 220.962124 
L 765.094577 239.117231 
L 767.214523 244.65409 
L 769.334468 252.437985 
L 773.57436 262.806187 
L 775.694305 259.915161 
L 777.814251 264.081658 
L 779.934197 262.971235 
L 782.054143 268.866104 
L 784.174088 268.055376 
L 786.294034 270.042407 
L 786.294034 270.042407 
" clip-path="url(#p96617873e4)" style="fill: none; stroke: #ff0000; stroke-opacity: 0.4; stroke-width: 1.5; stroke-linecap: square"/>
   </g>
   <g id="line2d_68">
    <path d="M 76.112216 221.490427 
L 163.029991 221.490427 
L 165.149936 252.274391 
L 167.269882 257.779441 
L 169.389828 324.574051 
L 171.509774 324.207048 
L 173.629719 322.005028 
L 175.749665 320.904018 
L 177.869611 321.638024 
L 179.989556 324.207048 
L 182.109502 324.207048 
L 184.229448 322.739034 
L 186.349394 320.904018 
L 188.469339 321.271021 
L 190.589285 324.574051 
L 192.709231 324.574051 
L 194.829177 323.106038 
L 196.949122 321.271021 
L 199.069068 321.271021 
L 201.189014 323.840044 
L 205.428905 324.574051 
L 207.548851 321.638024 
L 209.668797 312.829944 
L 211.788742 254.476411 
L 213.908688 241.631294 
L 216.028634 192.452845 
L 218.14858 74.64477 
L 220.268525 84.186857 
L 222.388471 104.372041 
L 224.508417 95.930964 
L 226.628362 92.994937 
L 228.748308 82.35184 
L 230.868254 139.237359 
L 232.9882 120.153185 
L 235.108145 140.338369 
L 237.228091 137.035339 
L 239.348037 121.988202 
L 241.467983 101.436014 
L 243.587928 56.661606 
L 245.707874 89.691907 
L 247.82782 99.600997 
L 249.947765 91.893927 
L 252.067711 275.878501 
L 290.226734 275.878501 
L 292.34668 324.574051 
L 294.466626 322.739034 
L 296.586571 320.170011 
L 298.706517 322.739034 
L 300.826463 324.941054 
L 302.946409 323.473041 
L 305.066354 320.537014 
L 307.1863 321.638024 
L 309.306246 324.941054 
L 311.426191 318.701997 
L 313.546137 252.274391 
L 315.666083 244.200317 
L 317.786029 213.372036 
L 319.905974 133.732309 
L 322.02592 86.388877 
L 324.145866 110.978101 
L 326.265812 57.762616 
L 328.385757 106.941064 
L 330.505703 113.547125 
L 332.625649 54.092582 
L 334.745594 113.180121 
L 336.86554 109.510088 
L 338.985486 102.170021 
L 341.105432 99.600997 
L 343.225377 64.001673 
L 345.345323 98.866991 
L 347.465269 59.597632 
L 349.585215 94.462951 
L 351.70516 94.829954 
L 358.064997 246.769341 
L 360.184943 255.210418 
L 362.304889 246.035334 
L 364.424835 255.210418 
L 366.54478 250.439374 
L 368.664726 257.045435 
L 370.784672 253.375401 
L 372.904618 316.866981 
L 375.024563 324.941054 
L 377.144509 319.436004 
L 379.264455 321.271021 
L 381.3844 324.941054 
L 383.504346 319.436004 
L 385.624292 321.271021 
L 387.744238 324.941054 
L 389.864183 320.170011 
L 391.984129 320.904018 
L 394.104075 324.941054 
L 396.224021 322.372031 
L 398.343966 319.436004 
L 400.463912 324.574051 
L 402.583858 324.574051 
L 404.703803 210.640848 
L 493.741524 210.640848 
L 495.86147 324.941054 
L 497.981415 320.537014 
L 500.101361 319.803007 
L 502.221307 324.574051 
L 504.341253 323.106038 
L 506.461198 319.069001 
L 508.581144 322.739034 
L 510.70109 324.941054 
L 512.821035 320.170011 
L 514.940981 319.803007 
L 517.060927 256.678431 
L 519.180873 243.466311 
L 521.300818 141.072376 
L 523.420764 116.850155 
L 525.54071 110.244095 
L 527.660656 141.072376 
L 529.780601 104.005038 
L 531.900547 98.866991 
L 534.020493 105.473051 
L 536.140438 78.681807 
L 538.260384 95.563961 
L 540.38033 102.904028 
L 542.500276 101.803018 
L 544.620221 58.129619 
L 546.740167 78.314803 
L 548.860113 73.54376 
L 550.980059 93.728944 
L 553.100004 88.9579 
L 555.21995 104.005038 
L 557.339896 107.675071 
L 559.459841 131.897292 
L 561.579787 242.732304 
L 563.699733 256.311428 
L 565.819679 255.210418 
L 567.939624 250.806378 
L 570.05957 257.412438 
L 572.179516 251.907388 
L 574.299461 249.705368 
L 576.419407 317.233984 
L 578.539353 322.739034 
L 580.659299 319.069001 
L 582.779244 325.308058 
L 584.89919 323.106038 
L 587.019136 318.701997 
L 589.139082 325.308058 
L 591.259027 323.840044 
L 593.378973 318.701997 
L 595.498919 324.574051 
L 597.618864 325.308058 
L 599.73881 319.436004 
L 603.978702 326.042064 
L 606.098647 320.904018 
L 608.218593 320.537014 
L 610.338539 325.308058 
L 612.458485 323.473041 
L 614.57843 319.803007 
L 616.698376 324.207048 
L 618.818322 261.449475 
L 620.938267 249.338364 
L 623.058213 208.600992 
L 627.298105 55.560595 
L 629.41805 73.910763 
L 631.537996 106.941064 
L 633.657942 113.547125 
L 635.777888 109.877091 
L 637.897833 86.021874 
L 640.017779 107.308068 
L 642.137725 106.207058 
L 644.25767 84.55386 
L 646.377616 91.526924 
L 648.497562 112.446115 
L 650.617508 111.712108 
L 652.737453 108.776081 
L 654.857399 111.712108 
L 656.977345 123.456215 
L 659.097291 242.732304 
L 661.217236 254.476411 
L 663.337182 252.641394 
L 665.457128 253.742404 
L 667.577073 257.779441 
L 669.697019 253.742404 
L 671.816965 252.274391 
L 673.936911 256.678431 
L 676.056856 251.540384 
L 678.176802 308.792907 
L 680.296748 325.675061 
L 682.416694 324.207048 
L 684.536639 320.170011 
L 686.656585 323.106038 
L 688.776531 325.675061 
L 690.896476 322.372031 
L 693.016422 320.537014 
L 695.136368 324.207048 
L 697.256314 233.121937 
L 786.294034 233.121937 
L 786.294034 233.121937 
" clip-path="url(#p96617873e4)" style="fill: none; stroke: #0000ff; stroke-width: 1.5; stroke-linecap: square"/>
   </g>
   <g id="patch_11">
    <path d="M 40.603125 354.958125 
L 40.603125 22.318125 
" style="fill: none; stroke: #000000; stroke-width: 0.8; stroke-linejoin: miter; stroke-linecap: square"/>
   </g>
   <g id="patch_12">
    <path d="M 821.803125 354.958125 
L 821.803125 22.318125 
" style="fill: none; stroke: #000000; stroke-width: 0.8; stroke-linejoin: miter; stroke-linecap: square"/>
   </g>
   <g id="patch_13">
    <path d="M 40.603125 354.958125 
L 821.803125 354.958125 
" style="fill: none; stroke: #000000; stroke-width: 0.8; stroke-linejoin: miter; stroke-linecap: square"/>
   </g>
   <g id="patch_14">
    <path d="M 40.603125 22.318125 
L 821.803125 22.318125 
" style="fill: none; stroke: #000000; stroke-width: 0.8; stroke-linejoin: miter; stroke-linecap: square"/>
   </g>
   <g id="text_36">
    <!-- benchmarkdata for "Jewellery" Market sector using 91 sampled meters, constructed with 2,425,392 samples -->
    <g transform="translate(104.415 16.318125) scale(0.12 -0.12)">
     <defs>
      <path id="DejaVuSans-62" d="M 3116 1747 
Q 3116 2381 2855 2742 
Q 2594 3103 2138 3103 
Q 1681 3103 1420 2742 
Q 1159 2381 1159 1747 
Q 1159 1113 1420 752 
Q 1681 391 2138 391 
Q 2594 391 2855 752 
Q 3116 1113 3116 1747 
z
M 1159 2969 
Q 1341 3281 1617 3432 
Q 1894 3584 2278 3584 
Q 2916 3584 3314 3078 
Q 3713 2572 3713 1747 
Q 3713 922 3314 415 
Q 2916 -91 2278 -91 
Q 1894 -91 1617 61 
Q 1341 213 1159 525 
L 1159 0 
L 581 0 
L 581 4863 
L 1159 4863 
L 1159 2969 
z
" transform="scale(0.015625)"/>
      <path id="DejaVuSans-63" d="M 3122 3366 
L 3122 2828 
Q 2878 2963 2633 3030 
Q 2388 3097 2138 3097 
Q 1578 3097 1268 2742 
Q 959 2388 959 1747 
Q 959 1106 1268 751 
Q 1578 397 2138 397 
Q 2388 397 2633 464 
Q 2878 531 3122 666 
L 3122 134 
Q 2881 22 2623 -34 
Q 2366 -91 2075 -91 
Q 1284 -91 818 406 
Q 353 903 353 1747 
Q 353 2603 823 3093 
Q 1294 3584 2113 3584 
Q 2378 3584 2631 3529 
Q 2884 3475 3122 3366 
z
" transform="scale(0.015625)"/>
      <path id="DejaVuSans-6b" d="M 581 4863 
L 1159 4863 
L 1159 1991 
L 2875 3500 
L 3609 3500 
L 1753 1863 
L 3688 0 
L 2938 0 
L 1159 1709 
L 1159 0 
L 581 0 
L 581 4863 
z
" transform="scale(0.015625)"/>
      <path id="DejaVuSans-66" d="M 2375 4863 
L 2375 4384 
L 1825 4384 
Q 1516 4384 1395 4259 
Q 1275 4134 1275 3809 
L 1275 3500 
L 2222 3500 
L 2222 3053 
L 1275 3053 
L 1275 0 
L 697 0 
L 697 3053 
L 147 3053 
L 147 3500 
L 697 3500 
L 697 3744 
Q 697 4328 969 4595 
Q 1241 4863 1831 4863 
L 2375 4863 
z
" transform="scale(0.015625)"/>
      <path id="DejaVuSans-22" d="M 1147 4666 
L 1147 2931 
L 616 2931 
L 616 4666 
L 1147 4666 
z
M 2328 4666 
L 2328 2931 
L 1797 2931 
L 1797 4666 
L 2328 4666 
z
" transform="scale(0.015625)"/>
      <path id="DejaVuSans-4a" d="M 628 4666 
L 1259 4666 
L 1259 325 
Q 1259 -519 939 -900 
Q 619 -1281 -91 -1281 
L -331 -1281 
L -331 -750 
L -134 -750 
Q 284 -750 456 -515 
Q 628 -281 628 325 
L 628 4666 
z
" transform="scale(0.015625)"/>
      <path id="DejaVuSans-6c" d="M 603 4863 
L 1178 4863 
L 1178 0 
L 603 0 
L 603 4863 
z
" transform="scale(0.015625)"/>
      <path id="DejaVuSans-39" d="M 703 97 
L 703 672 
Q 941 559 1184 500 
Q 1428 441 1663 441 
Q 2288 441 2617 861 
Q 2947 1281 2994 2138 
Q 2813 1869 2534 1725 
Q 2256 1581 1919 1581 
Q 1219 1581 811 2004 
Q 403 2428 403 3163 
Q 403 3881 828 4315 
Q 1253 4750 1959 4750 
Q 2769 4750 3195 4129 
Q 3622 3509 3622 2328 
Q 3622 1225 3098 567 
Q 2575 -91 1691 -91 
Q 1453 -91 1209 -44 
Q 966 3 703 97 
z
M 1959 2075 
Q 2384 2075 2632 2365 
Q 2881 2656 2881 3163 
Q 2881 3666 2632 3958 
Q 2384 4250 1959 4250 
Q 1534 4250 1286 3958 
Q 1038 3666 1038 3163 
Q 1038 2656 1286 2365 
Q 1534 2075 1959 2075 
z
" transform="scale(0.015625)"/>
      <path id="DejaVuSans-70" d="M 1159 525 
L 1159 -1331 
L 581 -1331 
L 581 3500 
L 1159 3500 
L 1159 2969 
Q 1341 3281 1617 3432 
Q 1894 3584 2278 3584 
Q 2916 3584 3314 3078 
Q 3713 2572 3713 1747 
Q 3713 922 3314 415 
Q 2916 -91 2278 -91 
Q 1894 -91 1617 61 
Q 1341 213 1159 525 
z
M 3116 1747 
Q 3116 2381 2855 2742 
Q 2594 3103 2138 3103 
Q 1681 3103 1420 2742 
Q 1159 2381 1159 1747 
Q 1159 1113 1420 752 
Q 1681 391 2138 391 
Q 2594 391 2855 752 
Q 3116 1113 3116 1747 
z
" transform="scale(0.015625)"/>
      <path id="DejaVuSans-34" d="M 2419 4116 
L 825 1625 
L 2419 1625 
L 2419 4116 
z
M 2253 4666 
L 3047 4666 
L 3047 1625 
L 3713 1625 
L 3713 1100 
L 3047 1100 
L 3047 0 
L 2419 0 
L 2419 1100 
L 313 1100 
L 313 1709 
L 2253 4666 
z
" transform="scale(0.015625)"/>
      <path id="DejaVuSans-33" d="M 2597 2516 
Q 3050 2419 3304 2112 
Q 3559 1806 3559 1356 
Q 3559 666 3084 287 
Q 2609 -91 1734 -91 
Q 1441 -91 1130 -33 
Q 819 25 488 141 
L 488 750 
Q 750 597 1062 519 
Q 1375 441 1716 441 
Q 2309 441 2620 675 
Q 2931 909 2931 1356 
Q 2931 1769 2642 2001 
Q 2353 2234 1838 2234 
L 1294 2234 
L 1294 2753 
L 1863 2753 
Q 2328 2753 2575 2939 
Q 2822 3125 2822 3475 
Q 2822 3834 2567 4026 
Q 2313 4219 1838 4219 
Q 1578 4219 1281 4162 
Q 984 4106 628 3988 
L 628 4550 
Q 988 4650 1302 4700 
Q 1616 4750 1894 4750 
Q 2613 4750 3031 4423 
Q 3450 4097 3450 3541 
Q 3450 3153 3228 2886 
Q 3006 2619 2597 2516 
z
" transform="scale(0.015625)"/>
     </defs>
     <use xlink:href="#DejaVuSans-62"/>
     <use xlink:href="#DejaVuSans-65" x="63.476562"/>
     <use xlink:href="#DejaVuSans-6e" x="125"/>
     <use xlink:href="#DejaVuSans-63" x="188.378906"/>
     <use xlink:href="#DejaVuSans-68" x="243.359375"/>
     <use xlink:href="#DejaVuSans-6d" x="306.738281"/>
     <use xlink:href="#DejaVuSans-61" x="404.150391"/>
     <use xlink:href="#DejaVuSans-72" x="465.429688"/>
     <use xlink:href="#DejaVuSans-6b" x="506.542969"/>
     <use xlink:href="#DejaVuSans-64" x="564.453125"/>
     <use xlink:href="#DejaVuSans-61" x="627.929688"/>
     <use xlink:href="#DejaVuSans-74" x="689.208984"/>
     <use xlink:href="#DejaVuSans-61" x="728.417969"/>
     <use xlink:href="#DejaVuSans-20" x="789.697266"/>
     <use xlink:href="#DejaVuSans-66" x="821.484375"/>
     <use xlink:href="#DejaVuSans-6f" x="856.689453"/>
     <use xlink:href="#DejaVuSans-72" x="917.871094"/>
     <use xlink:href="#DejaVuSans-20" x="958.984375"/>
     <use xlink:href="#DejaVuSans-22" x="990.771484"/>
     <use xlink:href="#DejaVuSans-4a" x="1036.767578"/>
     <use xlink:href="#DejaVuSans-65" x="1066.259766"/>
     <use xlink:href="#DejaVuSans-77" x="1127.783203"/>
     <use xlink:href="#DejaVuSans-65" x="1209.570312"/>
     <use xlink:href="#DejaVuSans-6c" x="1271.09375"/>
     <use xlink:href="#DejaVuSans-6c" x="1298.876953"/>
     <use xlink:href="#DejaVuSans-65" x="1326.660156"/>
     <use xlink:href="#DejaVuSans-72" x="1388.183594"/>
     <use xlink:href="#DejaVuSans-79" x="1429.296875"/>
     <use xlink:href="#DejaVuSans-22" x="1488.476562"/>
     <use xlink:href="#DejaVuSans-20" x="1534.472656"/>
     <use xlink:href="#DejaVuSans-4d" x="1566.259766"/>
     <use xlink:href="#DejaVuSans-61" x="1652.539062"/>
     <use xlink:href="#DejaVuSans-72" x="1713.818359"/>
     <use xlink:href="#DejaVuSans-6b" x="1754.931641"/>
     <use xlink:href="#DejaVuSans-65" x="1809.216797"/>
     <use xlink:href="#DejaVuSans-74" x="1870.740234"/>
     <use xlink:href="#DejaVuSans-20" x="1909.949219"/>
     <use xlink:href="#DejaVuSans-73" x="1941.736328"/>
     <use xlink:href="#DejaVuSans-65" x="1993.835938"/>
     <use xlink:href="#DejaVuSans-63" x="2055.359375"/>
     <use xlink:href="#DejaVuSans-74" x="2110.339844"/>
     <use xlink:href="#DejaVuSans-6f" x="2149.548828"/>
     <use xlink:href="#DejaVuSans-72" x="2210.730469"/>
     <use xlink:href="#DejaVuSans-20" x="2251.84375"/>
     <use xlink:href="#DejaVuSans-75" x="2283.630859"/>
     <use xlink:href="#DejaVuSans-73" x="2347.009766"/>
     <use xlink:href="#DejaVuSans-69" x="2399.109375"/>
     <use xlink:href="#DejaVuSans-6e" x="2426.892578"/>
     <use xlink:href="#DejaVuSans-67" x="2490.271484"/>
     <use xlink:href="#DejaVuSans-20" x="2553.748047"/>
     <use xlink:href="#DejaVuSans-39" x="2585.535156"/>
     <use xlink:href="#DejaVuSans-31" x="2649.158203"/>
     <use xlink:href="#DejaVuSans-20" x="2712.78125"/>
     <use xlink:href="#DejaVuSans-73" x="2744.568359"/>
     <use xlink:href="#DejaVuSans-61" x="2796.667969"/>
     <use xlink:href="#DejaVuSans-6d" x="2857.947266"/>
     <use xlink:href="#DejaVuSans-70" x="2955.359375"/>
     <use xlink:href="#DejaVuSans-6c" x="3018.835938"/>
     <use xlink:href="#DejaVuSans-65" x="3046.619141"/>
     <use xlink:href="#DejaVuSans-64" x="3108.142578"/>
     <use xlink:href="#DejaVuSans-20" x="3171.619141"/>
     <use xlink:href="#DejaVuSans-6d" x="3203.40625"/>
     <use xlink:href="#DejaVuSans-65" x="3300.818359"/>
     <use xlink:href="#DejaVuSans-74" x="3362.341797"/>
     <use xlink:href="#DejaVuSans-65" x="3401.550781"/>
     <use xlink:href="#DejaVuSans-72" x="3463.074219"/>
     <use xlink:href="#DejaVuSans-73" x="3504.1875"/>
     <use xlink:href="#DejaVuSans-2c" x="3556.287109"/>
     <use xlink:href="#DejaVuSans-20" x="3588.074219"/>
     <use xlink:href="#DejaVuSans-63" x="3619.861328"/>
     <use xlink:href="#DejaVuSans-6f" x="3674.841797"/>
     <use xlink:href="#DejaVuSans-6e" x="3736.023438"/>
     <use xlink:href="#DejaVuSans-73" x="3799.402344"/>
     <use xlink:href="#DejaVuSans-74" x="3851.501953"/>
     <use xlink:href="#DejaVuSans-72" x="3890.710938"/>
     <use xlink:href="#DejaVuSans-75" x="3931.824219"/>
     <use xlink:href="#DejaVuSans-63" x="3995.203125"/>
     <use xlink:href="#DejaVuSans-74" x="4050.183594"/>
     <use xlink:href="#DejaVuSans-65" x="4089.392578"/>
     <use xlink:href="#DejaVuSans-64" x="4150.916016"/>
     <use xlink:href="#DejaVuSans-20" x="4214.392578"/>
     <use xlink:href="#DejaVuSans-77" x="4246.179688"/>
     <use xlink:href="#DejaVuSans-69" x="4327.966797"/>
     <use xlink:href="#DejaVuSans-74" x="4355.75"/>
     <use xlink:href="#DejaVuSans-68" x="4394.958984"/>
     <use xlink:href="#DejaVuSans-20" x="4458.337891"/>
     <use xlink:href="#DejaVuSans-32" x="4490.125"/>
     <use xlink:href="#DejaVuSans-2c" x="4553.748047"/>
     <use xlink:href="#DejaVuSans-34" x="4585.535156"/>
     <use xlink:href="#DejaVuSans-32" x="4649.158203"/>
     <use xlink:href="#DejaVuSans-35" x="4712.78125"/>
     <use xlink:href="#DejaVuSans-2c" x="4776.404297"/>
     <use xlink:href="#DejaVuSans-33" x="4808.191406"/>
     <use xlink:href="#DejaVuSans-39" x="4871.814453"/>
     <use xlink:href="#DejaVuSans-32" x="4935.4375"/>
     <use xlink:href="#DejaVuSans-20" x="4999.060547"/>
     <use xlink:href="#DejaVuSans-73" x="5030.847656"/>
     <use xlink:href="#DejaVuSans-61" x="5082.947266"/>
     <use xlink:href="#DejaVuSans-6d" x="5144.226562"/>
     <use xlink:href="#DejaVuSans-70" x="5241.638672"/>
     <use xlink:href="#DejaVuSans-6c" x="5305.115234"/>
     <use xlink:href="#DejaVuSans-65" x="5332.898438"/>
     <use xlink:href="#DejaVuSans-73" x="5394.421875"/>
    </g>
   </g>
   <g id="legend_1">
    <g id="patch_15">
     <path d="M 649.840625 85.550313 
L 814.803125 85.550313 
Q 816.803125 85.550313 816.803125 83.550313 
L 816.803125 29.318125 
Q 816.803125 27.318125 814.803125 27.318125 
L 649.840625 27.318125 
Q 647.840625 27.318125 647.840625 29.318125 
L 647.840625 83.550313 
Q 647.840625 85.550313 649.840625 85.550313 
z
" style="fill: #ffffff; opacity: 0.8; stroke: #cccccc; stroke-linejoin: miter"/>
    </g>
    <g id="line2d_69">
     <path d="M 651.840625 35.416562 
L 661.840625 35.416562 
L 671.840625 35.416562 
" style="fill: none; stroke: #ff0000; stroke-opacity: 0.4; stroke-width: 1.5; stroke-linecap: square"/>
    </g>
    <g id="text_37">
     <!-- Mean: 8.587 -->
     <g transform="translate(679.840625 38.916562) scale(0.1 -0.1)">
      <defs>
       <path id="DejaVuSans-2e" d="M 684 794 
L 1344 794 
L 1344 0 
L 684 0 
L 684 794 
z
" transform="scale(0.015625)"/>
       <path id="DejaVuSans-37" d="M 525 4666 
L 3525 4666 
L 3525 4397 
L 1831 0 
L 1172 0 
L 2766 4134 
L 525 4134 
L 525 4666 
z
" transform="scale(0.015625)"/>
      </defs>
      <use xlink:href="#DejaVuSans-4d"/>
      <use xlink:href="#DejaVuSans-65" x="86.279297"/>
      <use xlink:href="#DejaVuSans-61" x="147.802734"/>
      <use xlink:href="#DejaVuSans-6e" x="209.082031"/>
      <use xlink:href="#DejaVuSans-3a" x="272.460938"/>
      <use xlink:href="#DejaVuSans-20" x="306.152344"/>
      <use xlink:href="#DejaVuSans-38" x="337.939453"/>
      <use xlink:href="#DejaVuSans-2e" x="401.5625"/>
      <use xlink:href="#DejaVuSans-35" x="433.349609"/>
      <use xlink:href="#DejaVuSans-38" x="496.972656"/>
      <use xlink:href="#DejaVuSans-37" x="560.595703"/>
     </g>
    </g>
    <g id="patch_16">
     <path d="M 651.840625 53.594688 
L 671.840625 53.594688 
L 671.840625 46.594688 
L 651.840625 46.594688 
z
" style="fill: #ff0000; fill-opacity: 0.2; stroke: #ff0000; stroke-opacity: 0.2; stroke-linejoin: miter"/>
    </g>
    <g id="text_38">
     <!-- Std Dev: 6.259 -->
     <g transform="translate(679.840625 53.594688) scale(0.1 -0.1)">
      <defs>
       <path id="DejaVuSans-44" d="M 1259 4147 
L 1259 519 
L 2022 519 
Q 2988 519 3436 956 
Q 3884 1394 3884 2338 
Q 3884 3275 3436 3711 
Q 2988 4147 2022 4147 
L 1259 4147 
z
M 628 4666 
L 1925 4666 
Q 3281 4666 3915 4102 
Q 4550 3538 4550 2338 
Q 4550 1131 3912 565 
Q 3275 0 1925 0 
L 628 0 
L 628 4666 
z
" transform="scale(0.015625)"/>
       <path id="DejaVuSans-76" d="M 191 3500 
L 800 3500 
L 1894 563 
L 2988 3500 
L 3597 3500 
L 2284 0 
L 1503 0 
L 191 3500 
z
" transform="scale(0.015625)"/>
      </defs>
      <use xlink:href="#DejaVuSans-53"/>
      <use xlink:href="#DejaVuSans-74" x="63.476562"/>
      <use xlink:href="#DejaVuSans-64" x="102.685547"/>
      <use xlink:href="#DejaVuSans-20" x="166.162109"/>
      <use xlink:href="#DejaVuSans-44" x="197.949219"/>
      <use xlink:href="#DejaVuSans-65" x="274.951172"/>
      <use xlink:href="#DejaVuSans-76" x="336.474609"/>
      <use xlink:href="#DejaVuSans-3a" x="390.154297"/>
      <use xlink:href="#DejaVuSans-20" x="423.845703"/>
      <use xlink:href="#DejaVuSans-36" x="455.632812"/>
      <use xlink:href="#DejaVuSans-2e" x="519.255859"/>
      <use xlink:href="#DejaVuSans-32" x="551.042969"/>
      <use xlink:href="#DejaVuSans-35" x="614.666016"/>
      <use xlink:href="#DejaVuSans-39" x="678.289062"/>
     </g>
    </g>
    <g id="line2d_70">
     <path d="M 651.840625 71.411563 
L 661.840625 71.411563 
L 671.840625 71.411563 
" style="fill: none; stroke: #0000ff; stroke-width: 1.5; stroke-linecap: square"/>
    </g>
    <g id="text_39">
     <!-- Performance Comparison:  -->
     <g transform="translate(679.840625 68.272812) scale(0.1 -0.1)">
      <defs>
       <path id="DejaVuSans-43" d="M 4122 4306 
L 4122 3641 
Q 3803 3938 3442 4084 
Q 3081 4231 2675 4231 
Q 1875 4231 1450 3742 
Q 1025 3253 1025 2328 
Q 1025 1406 1450 917 
Q 1875 428 2675 428 
Q 3081 428 3442 575 
Q 3803 722 4122 1019 
L 4122 359 
Q 3791 134 3420 21 
Q 3050 -91 2638 -91 
Q 1578 -91 968 557 
Q 359 1206 359 2328 
Q 359 3453 968 4101 
Q 1578 4750 2638 4750 
Q 3056 4750 3426 4639 
Q 3797 4528 4122 4306 
z
" transform="scale(0.015625)"/>
      </defs>
      <use xlink:href="#DejaVuSans-50"/>
      <use xlink:href="#DejaVuSans-65" x="56.677734"/>
      <use xlink:href="#DejaVuSans-72" x="118.201172"/>
      <use xlink:href="#DejaVuSans-66" x="159.314453"/>
      <use xlink:href="#DejaVuSans-6f" x="194.519531"/>
      <use xlink:href="#DejaVuSans-72" x="255.701172"/>
      <use xlink:href="#DejaVuSans-6d" x="295.064453"/>
      <use xlink:href="#DejaVuSans-61" x="392.476562"/>
      <use xlink:href="#DejaVuSans-6e" x="453.755859"/>
      <use xlink:href="#DejaVuSans-63" x="517.134766"/>
      <use xlink:href="#DejaVuSans-65" x="572.115234"/>
      <use xlink:href="#DejaVuSans-20" x="633.638672"/>
      <use xlink:href="#DejaVuSans-43" x="665.425781"/>
      <use xlink:href="#DejaVuSans-6f" x="735.25"/>
      <use xlink:href="#DejaVuSans-6d" x="796.431641"/>
      <use xlink:href="#DejaVuSans-70" x="893.84375"/>
      <use xlink:href="#DejaVuSans-61" x="957.320312"/>
      <use xlink:href="#DejaVuSans-72" x="1018.599609"/>
      <use xlink:href="#DejaVuSans-69" x="1059.712891"/>
      <use xlink:href="#DejaVuSans-73" x="1087.496094"/>
      <use xlink:href="#DejaVuSans-6f" x="1139.595703"/>
      <use xlink:href="#DejaVuSans-6e" x="1200.777344"/>
      <use xlink:href="#DejaVuSans-3a" x="1264.15625"/>
      <use xlink:href="#DejaVuSans-20" x="1297.847656"/>
     </g>
     <!-- Mean: 7.882 -->
     <g transform="translate(679.840625 79.470625) scale(0.1 -0.1)">
      <use xlink:href="#DejaVuSans-4d"/>
      <use xlink:href="#DejaVuSans-65" x="86.279297"/>
      <use xlink:href="#DejaVuSans-61" x="147.802734"/>
      <use xlink:href="#DejaVuSans-6e" x="209.082031"/>
      <use xlink:href="#DejaVuSans-3a" x="272.460938"/>
      <use xlink:href="#DejaVuSans-20" x="306.152344"/>
      <use xlink:href="#DejaVuSans-37" x="337.939453"/>
      <use xlink:href="#DejaVuSans-2e" x="401.5625"/>
      <use xlink:href="#DejaVuSans-38" x="433.349609"/>
      <use xlink:href="#DejaVuSans-38" x="496.972656"/>
      <use xlink:href="#DejaVuSans-32" x="560.595703"/>
     </g>
    </g>
   </g>
  </g>
 </g>
 <defs>
  <clipPath id="p96617873e4">
   <rect x="40.603125" y="22.318125" width="781.2" height="332.64"/>
  </clipPath>
 </defs>
</svg>
