<?xml version="1.0" encoding="utf-8" standalone="no"?>
<!DOCTYPE svg PUBLIC "-//W3C//DTD SVG 1.1//EN"
  "http://www.w3.org/Graphics/SVG/1.1/DTD/svg11.dtd">
<svg xmlns:xlink="http://www.w3.org/1999/xlink" width="829.003125pt" height="453.244198pt" viewBox="0 0 829.003125 453.244198" xmlns="http://www.w3.org/2000/svg" version="1.1">
 <metadata>
  <rdf:RDF xmlns:dc="http://purl.org/dc/elements/1.1/" xmlns:cc="http://creativecommons.org/ns#" xmlns:rdf="http://www.w3.org/1999/02/22-rdf-syntax-ns#">
   <cc:Work>
    <dc:type rdf:resource="http://purl.org/dc/dcmitype/StillImage"/>
    <dc:date>2024-07-22T22:34:53.903026</dc:date>
    <dc:format>image/svg+xml</dc:format>
    <dc:creator>
     <cc:Agent>
      <dc:title>Matplotlib v3.8.4, https://matplotlib.org/</dc:title>
     </cc:Agent>
    </dc:creator>
   </cc:Work>
  </rdf:RDF>
 </metadata>
 <defs>
  <style type="text/css">*{stroke-linejoin: round; stroke-linecap: butt}</style>
 </defs>
 <g id="figure_1">
  <g id="patch_1">
   <path d="M 0 453.244198 
L 829.003125 453.244198 
L 829.003125 0 
L 0 0 
z
" style="fill: #ffffff"/>
  </g>
  <g id="axes_1">
   <g id="patch_2">
    <path d="M 40.603125 354.958125 
L 821.803125 354.958125 
L 821.803125 22.318125 
L 40.603125 22.318125 
z
" style="fill: #ffffff"/>
   </g>
   <g id="PolyCollection_1">
    <defs>
     <path id="m9c40bfe8a9" d="M 76.112216 -184.554496 
L 76.112216 -118.148745 
L 78.232162 -117.673181 
L 80.352107 -118.029892 
L 82.472053 -117.445213 
L 84.591999 -117.589863 
L 86.711945 -118.224211 
L 88.83189 -118.361403 
L 90.951836 -118.088634 
L 93.071782 -118.170863 
L 95.191727 -118.110299 
L 97.311673 -117.829738 
L 99.431619 -117.489549 
L 101.551565 -117.191673 
L 103.67151 -116.968417 
L 105.791456 -116.420929 
L 107.911402 -117.640782 
L 110.031348 -118.986417 
L 112.151293 -120.066554 
L 114.271239 -127.878905 
L 116.391185 -131.478457 
L 118.51113 -130.077288 
L 120.631076 -130.614376 
L 122.751022 -130.770796 
L 124.870968 -130.675822 
L 126.990913 -130.896183 
L 129.110859 -130.785941 
L 131.230805 -130.567312 
L 133.350751 -130.471181 
L 135.470696 -130.668656 
L 137.590642 -130.074916 
L 139.710588 -129.884473 
L 141.830533 -129.02887 
L 143.950479 -129.214803 
L 146.070425 -128.745493 
L 148.190371 -129.021807 
L 150.310316 -128.589479 
L 152.430262 -129.208763 
L 154.550208 -126.118986 
L 156.670153 -125.224965 
L 158.790099 -120.727922 
L 160.910045 -118.561724 
L 163.029991 -121.200221 
L 165.149936 -118.26552 
L 167.269882 -118.0715 
L 169.389828 -118.313364 
L 171.509774 -117.452298 
L 173.629719 -117.086906 
L 175.749665 -116.600332 
L 177.869611 -117.723408 
L 179.989556 -115.065636 
L 182.109502 -116.790274 
L 184.229448 -116.884081 
L 186.349394 -117.914664 
L 188.469339 -118.032026 
L 190.589285 -117.856326 
L 192.709231 -117.367624 
L 194.829177 -117.73649 
L 196.949122 -117.746215 
L 199.069068 -117.734037 
L 201.189014 -116.813793 
L 203.308959 -117.355246 
L 205.428905 -117.313638 
L 207.548851 -117.346343 
L 209.668797 -117.625409 
L 211.788742 -118.925001 
L 213.908688 -122.069509 
L 216.028634 -128.905358 
L 218.14858 -131.415984 
L 220.268525 -131.204259 
L 222.388471 -129.231964 
L 224.508417 -129.973513 
L 226.628362 -130.081319 
L 228.748308 -130.540198 
L 230.868254 -130.293632 
L 232.9882 -130.910444 
L 235.108145 -130.341751 
L 237.228091 -130.329095 
L 239.348037 -130.39558 
L 241.467983 -130.33417 
L 243.587928 -129.634101 
L 245.707874 -130.160459 
L 247.82782 -126.677199 
L 249.947765 -128.76013 
L 252.067711 -129.279334 
L 254.187657 -129.728188 
L 256.307603 -127.455886 
L 258.427548 -125.698347 
L 260.547494 -121.339954 
L 262.66744 -119.069301 
L 264.787386 -119.842635 
L 266.907331 -118.700484 
L 269.027277 -118.724021 
L 271.147223 -118.974055 
L 273.267168 -117.449358 
L 275.387114 -117.676232 
L 277.50706 -117.495532 
L 279.627006 -118.187217 
L 281.746951 -117.37755 
L 283.866897 -118.287511 
L 285.986843 -117.744847 
L 288.106789 -118.377914 
L 290.226734 -115.739884 
L 292.34668 -117.418946 
L 294.466626 -117.672423 
L 296.586571 -117.334178 
L 298.706517 -118.390859 
L 300.826463 -118.391424 
L 302.946409 -118.847271 
L 305.066354 -117.486957 
L 307.1863 -118.11155 
L 309.306246 -118.908017 
L 311.426191 -118.663537 
L 313.546137 -119.814955 
L 315.666083 -121.704255 
L 317.786029 -129.758375 
L 319.905974 -131.25974 
L 322.02592 -130.773072 
L 324.145866 -129.156996 
L 326.265812 -129.848388 
L 328.385757 -129.413021 
L 330.505703 -130.180779 
L 332.625649 -130.723789 
L 334.745594 -130.675016 
L 336.86554 -130.758574 
L 338.985486 -130.789519 
L 341.105432 -130.550937 
L 343.225377 -130.029563 
L 345.345323 -129.382984 
L 347.465269 -130.167634 
L 349.585215 -130.226789 
L 351.70516 -130.019545 
L 353.825106 -129.799105 
L 355.945052 -130.084412 
L 358.064997 -121.167924 
L 360.184943 -122.814211 
L 362.304889 -121.136839 
L 364.424835 -118.975869 
L 366.54478 -120.095212 
L 368.664726 -118.882289 
L 370.784672 -119.608425 
L 372.904618 -119.421706 
L 375.024563 -117.829786 
L 377.144509 -118.166817 
L 379.264455 -117.75361 
L 381.3844 -117.885152 
L 383.504346 -118.348041 
L 385.624292 -118.906423 
L 387.744238 -118.741499 
L 389.864183 -118.586137 
L 391.984129 -118.42359 
L 394.104075 -118.643297 
L 396.224021 -117.880187 
L 398.343966 -118.505942 
L 400.463912 -118.791494 
L 402.583858 -118.452251 
L 404.703803 -117.750205 
L 406.823749 -118.188916 
L 408.943695 -116.815893 
L 411.063641 -117.149153 
L 413.183586 -117.718804 
L 415.303532 -118.898872 
L 417.423478 -122.366193 
L 419.543424 -128.983348 
L 421.663369 -132.142906 
L 423.783315 -131.329785 
L 425.903261 -129.693622 
L 428.023206 -129.850309 
L 430.143152 -129.541783 
L 432.263098 -130.125725 
L 434.383044 -130.128654 
L 436.502989 -130.583827 
L 438.622935 -130.279062 
L 440.742881 -130.604112 
L 442.862826 -130.466108 
L 444.982772 -129.973092 
L 447.102718 -129.724726 
L 449.222664 -130.498791 
L 451.342609 -130.164823 
L 453.462555 -130.524666 
L 455.582501 -129.641151 
L 457.702447 -129.719272 
L 459.822392 -126.509654 
L 461.942338 -125.326543 
L 464.062284 -121.085167 
L 466.182229 -118.733251 
L 468.302175 -120.277089 
L 470.422121 -118.352891 
L 472.542067 -119.074221 
L 474.662012 -118.378785 
L 476.781958 -116.678642 
L 478.901904 -117.477586 
L 481.02185 -117.981538 
L 483.141795 -118.375458 
L 485.261741 -118.163162 
L 487.381687 -118.972109 
L 489.501632 -118.609762 
L 491.621578 -118.488607 
L 493.741524 -118.663095 
L 495.86147 -118.636456 
L 497.981415 -117.943553 
L 500.101361 -118.568513 
L 502.221307 -117.049388 
L 504.341253 -117.864008 
L 506.461198 -117.831501 
L 508.581144 -118.057346 
L 510.70109 -118.072897 
L 512.821035 -118.084584 
L 514.940981 -118.370844 
L 517.060927 -119.815801 
L 519.180873 -122.32552 
L 521.300818 -129.147612 
L 523.420764 -132.119286 
L 525.54071 -131.591716 
L 527.660656 -129.389392 
L 529.780601 -130.462448 
L 531.900547 -130.475306 
L 534.020493 -131.432916 
L 536.140438 -126.57798 
L 538.260384 -128.707553 
L 540.38033 -130.987085 
L 542.500276 -131.085787 
L 544.620221 -131.238253 
L 546.740167 -130.769338 
L 548.860113 -130.516675 
L 550.980059 -131.094951 
L 553.100004 -130.743677 
L 555.21995 -131.057958 
L 557.339896 -130.147149 
L 559.459841 -130.714831 
L 561.579787 -128.347564 
L 563.699733 -128.421043 
L 565.819679 -123.906788 
L 567.939624 -121.988409 
L 570.05957 -120.719343 
L 572.179516 -120.860108 
L 574.299461 -119.189679 
L 576.419407 -118.76827 
L 578.539353 -117.576318 
L 580.659299 -118.093656 
L 582.779244 -118.055882 
L 584.89919 -118.208454 
L 587.019136 -118.237587 
L 589.139082 -118.191937 
L 591.259027 -117.633167 
L 593.378973 -118.112254 
L 595.498919 -116.861941 
L 597.618864 -117.992902 
L 599.73881 -117.98675 
L 601.858756 -118.072481 
L 603.978702 -118.161568 
L 606.098647 -117.908576 
L 608.218593 -117.942675 
L 610.338539 -118.434623 
L 612.458485 -117.548752 
L 614.57843 -118.112588 
L 616.698376 -117.116932 
L 618.818322 -117.98349 
L 620.938267 -120.568417 
L 623.058213 -128.750638 
L 625.178159 -132.583925 
L 627.298105 -130.742454 
L 629.41805 -129.812577 
L 631.537996 -130.802641 
L 633.657942 -130.552384 
L 635.777888 -131.349375 
L 637.897833 -130.946203 
L 640.017779 -130.959582 
L 642.137725 -131.137128 
L 644.25767 -131.233297 
L 646.377616 -128.990768 
L 648.497562 -129.527732 
L 650.617508 -130.89807 
L 652.737453 -130.721732 
L 654.857399 -130.540777 
L 656.977345 -130.636754 
L 659.097291 -128.926679 
L 661.217236 -128.177014 
L 663.337182 -126.385831 
L 665.457128 -125.870541 
L 667.577073 -123.036922 
L 669.697019 -121.766666 
L 671.816965 -120.547847 
L 673.936911 -121.603243 
L 676.056856 -119.844824 
L 678.176802 -118.90516 
L 680.296748 -118.407045 
L 682.416694 -118.484766 
L 684.536639 -118.818472 
L 686.656585 -118.185627 
L 688.776531 -118.336102 
L 690.896476 -118.304317 
L 693.016422 -118.328097 
L 695.136368 -118.926875 
L 697.256314 -118.567142 
L 699.376259 -118.08174 
L 701.496205 -117.627806 
L 703.616151 -118.598936 
L 705.736097 -118.403869 
L 707.856042 -118.110668 
L 709.975988 -118.387479 
L 712.095934 -117.72811 
L 714.215879 -117.885762 
L 716.335825 -117.205106 
L 718.455771 -117.859644 
L 720.575717 -119.494796 
L 722.695662 -122.214193 
L 724.815608 -128.467029 
L 726.935554 -131.761892 
L 729.055499 -131.350056 
L 731.175445 -130.724027 
L 733.295391 -130.567138 
L 735.415337 -130.829811 
L 737.535282 -131.22542 
L 739.655228 -130.959489 
L 741.775174 -130.790188 
L 743.89512 -130.408863 
L 746.015065 -130.247719 
L 748.135011 -130.143031 
L 750.254957 -128.986698 
L 752.374902 -127.616421 
L 754.494848 -127.18851 
L 756.614794 -126.47462 
L 758.73474 -125.788148 
L 760.854685 -123.190234 
L 762.974631 -122.217064 
L 765.094577 -120.098511 
L 767.214523 -119.456076 
L 769.334468 -118.3525 
L 771.454414 -117.734365 
L 773.57436 -117.449996 
L 775.694305 -118.165233 
L 777.814251 -118.019872 
L 779.934197 -117.923753 
L 782.054143 -117.985629 
L 784.174088 -117.61715 
L 786.294034 -117.425088 
L 786.294034 -185.213861 
L 786.294034 -185.213861 
L 784.174088 -185.663048 
L 782.054143 -184.870181 
L 779.934197 -186.148787 
L 777.814251 -185.595715 
L 775.694305 -185.470763 
L 773.57436 -187.638437 
L 771.454414 -192.54258 
L 769.334468 -192.083026 
L 767.214523 -195.869216 
L 765.094577 -204.226686 
L 762.974631 -203.537309 
L 760.854685 -206.858946 
L 758.73474 -211.333628 
L 756.614794 -211.684755 
L 754.494848 -214.652274 
L 752.374902 -217.540239 
L 750.254957 -219.833637 
L 748.135011 -218.334489 
L 746.015065 -219.154011 
L 743.89512 -218.350184 
L 741.775174 -216.478187 
L 739.655228 -217.072257 
L 737.535282 -217.169671 
L 735.415337 -220.115585 
L 733.295391 -216.55497 
L 731.175445 -212.361184 
L 729.055499 -214.679791 
L 726.935554 -213.412784 
L 724.815608 -209.236185 
L 722.695662 -202.655781 
L 720.575717 -189.91124 
L 718.455771 -186.535608 
L 716.335825 -184.217107 
L 714.215879 -183.621786 
L 712.095934 -183.403252 
L 709.975988 -184.377206 
L 707.856042 -185.176158 
L 705.736097 -185.703424 
L 703.616151 -185.734732 
L 701.496205 -185.403748 
L 699.376259 -186.275477 
L 697.256314 -185.70158 
L 695.136368 -185.059162 
L 693.016422 -184.642576 
L 690.896476 -185.33258 
L 688.776531 -185.713781 
L 686.656585 -185.050995 
L 684.536639 -186.223152 
L 682.416694 -188.573405 
L 680.296748 -190.103669 
L 678.176802 -191.790209 
L 676.056856 -191.610913 
L 673.936911 -195.330449 
L 671.816965 -199.23197 
L 669.697019 -199.417288 
L 667.577073 -202.059668 
L 665.457128 -208.408806 
L 663.337182 -210.68675 
L 661.217236 -213.659085 
L 659.097291 -214.758434 
L 656.977345 -217.287595 
L 654.857399 -217.115323 
L 652.737453 -220.291434 
L 650.617508 -222.287129 
L 648.497562 -220.3487 
L 646.377616 -219.815354 
L 644.25767 -220.246716 
L 642.137725 -218.267492 
L 640.017779 -218.851817 
L 637.897833 -217.845587 
L 635.777888 -218.81561 
L 633.657942 -218.559681 
L 631.537996 -215.575569 
L 629.41805 -214.041221 
L 627.298105 -212.487502 
L 625.178159 -211.217888 
L 623.058213 -208.368423 
L 620.938267 -199.030507 
L 618.818322 -186.151474 
L 616.698376 -184.537644 
L 614.57843 -183.613069 
L 612.458485 -184.41593 
L 610.338539 -183.582117 
L 608.218593 -184.511017 
L 606.098647 -185.258771 
L 603.978702 -185.66089 
L 601.858756 -186.610215 
L 599.73881 -185.761543 
L 597.618864 -184.99021 
L 595.498919 -184.489749 
L 593.378973 -185.80882 
L 591.259027 -184.785926 
L 589.139082 -185.301774 
L 587.019136 -184.283744 
L 584.89919 -185.215838 
L 582.779244 -185.097024 
L 580.659299 -186.912318 
L 578.539353 -190.474449 
L 576.419407 -191.813936 
L 574.299461 -192.953985 
L 572.179516 -195.829187 
L 570.05957 -198.977738 
L 567.939624 -198.852683 
L 565.819679 -202.724308 
L 563.699733 -211.199951 
L 561.579787 -215.256621 
L 559.459841 -216.264276 
L 557.339896 -215.927961 
L 555.21995 -218.627052 
L 553.100004 -218.296775 
L 550.980059 -219.440076 
L 548.860113 -219.709162 
L 546.740167 -218.534282 
L 544.620221 -217.909591 
L 542.500276 -220.449167 
L 540.38033 -220.518943 
L 538.260384 -219.92123 
L 536.140438 -217.943019 
L 534.020493 -218.728875 
L 531.900547 -219.767238 
L 529.780601 -217.143344 
L 527.660656 -212.746262 
L 525.54071 -214.028423 
L 523.420764 -212.705972 
L 521.300818 -210.864038 
L 519.180873 -199.366293 
L 517.060927 -188.86266 
L 514.940981 -184.902562 
L 512.821035 -184.00549 
L 510.70109 -184.046484 
L 508.581144 -184.663586 
L 506.461198 -184.192298 
L 504.341253 -184.660352 
L 502.221307 -184.299796 
L 500.101361 -184.966722 
L 497.981415 -184.857819 
L 495.86147 -184.607248 
L 493.741524 -184.239303 
L 491.621578 -184.110207 
L 489.501632 -184.613969 
L 487.381687 -183.803103 
L 485.261741 -184.460367 
L 483.141795 -184.787336 
L 481.02185 -184.982515 
L 478.901904 -184.06447 
L 476.781958 -185.211534 
L 474.662012 -185.263179 
L 472.542067 -185.103378 
L 470.422121 -189.455791 
L 468.302175 -198.119238 
L 466.182229 -192.948712 
L 464.062284 -199.850708 
L 461.942338 -207.910546 
L 459.822392 -211.080099 
L 457.702447 -212.594221 
L 455.582501 -215.465421 
L 453.462555 -216.474968 
L 451.342609 -216.507088 
L 449.222664 -217.824158 
L 447.102718 -219.214844 
L 444.982772 -217.797772 
L 442.862826 -216.89035 
L 440.742881 -217.406526 
L 438.622935 -217.249312 
L 436.502989 -216.407192 
L 434.383044 -216.952938 
L 432.263098 -217.659182 
L 430.143152 -216.254905 
L 428.023206 -214.46999 
L 425.903261 -211.397107 
L 423.783315 -213.737814 
L 421.663369 -213.515415 
L 419.543424 -210.887015 
L 417.423478 -200.761966 
L 415.303532 -189.363905 
L 413.183586 -185.658733 
L 411.063641 -185.185619 
L 408.943695 -183.464136 
L 406.823749 -183.758995 
L 404.703803 -184.408012 
L 402.583858 -184.285588 
L 400.463912 -185.144965 
L 398.343966 -186.87889 
L 396.224021 -185.826173 
L 394.104075 -184.621985 
L 391.984129 -186.056955 
L 389.864183 -184.486498 
L 387.744238 -184.503801 
L 385.624292 -184.354959 
L 383.504346 -184.486643 
L 381.3844 -184.983225 
L 379.264455 -184.335834 
L 377.144509 -185.469588 
L 375.024563 -185.774491 
L 372.904618 -185.960599 
L 370.784672 -186.322429 
L 368.664726 -191.569232 
L 366.54478 -198.308888 
L 364.424835 -195.991523 
L 362.304889 -201.72651 
L 360.184943 -208.061789 
L 358.064997 -208.472801 
L 355.945052 -214.009441 
L 353.825106 -214.313652 
L 351.70516 -215.874584 
L 349.585215 -216.003925 
L 347.465269 -217.889245 
L 345.345323 -219.571438 
L 343.225377 -219.275635 
L 341.105432 -218.423059 
L 338.985486 -216.858609 
L 336.86554 -216.862173 
L 334.745594 -216.10159 
L 332.625649 -217.109823 
L 330.505703 -217.60513 
L 328.385757 -219.45999 
L 326.265812 -216.874224 
L 324.145866 -213.935097 
L 322.02592 -214.704538 
L 319.905974 -211.549401 
L 317.786029 -210.224466 
L 315.666083 -200.56461 
L 313.546137 -191.571313 
L 311.426191 -186.675429 
L 309.306246 -185.658262 
L 307.1863 -183.699973 
L 305.066354 -184.111355 
L 302.946409 -184.380711 
L 300.826463 -184.826216 
L 298.706517 -187.086297 
L 296.586571 -186.905492 
L 294.466626 -186.811178 
L 292.34668 -186.381072 
L 290.226734 -184.299943 
L 288.106789 -184.528846 
L 285.986843 -184.548864 
L 283.866897 -185.171355 
L 281.746951 -184.010617 
L 279.627006 -183.70144 
L 277.50706 -185.226823 
L 275.387114 -185.365805 
L 273.267168 -185.765273 
L 271.147223 -186.125098 
L 269.027277 -185.334394 
L 266.907331 -190.289224 
L 264.787386 -197.790317 
L 262.66744 -193.522041 
L 260.547494 -198.591043 
L 258.427548 -207.28087 
L 256.307603 -210.536662 
L 254.187657 -214.704887 
L 252.067711 -215.615911 
L 249.947765 -216.887732 
L 247.82782 -214.964396 
L 245.707874 -216.834204 
L 243.587928 -218.048887 
L 241.467983 -217.025707 
L 239.348037 -217.019496 
L 237.228091 -215.62011 
L 235.108145 -215.89152 
L 232.9882 -215.469578 
L 230.868254 -215.855754 
L 228.748308 -217.236509 
L 226.628362 -216.367377 
L 224.508417 -216.106586 
L 222.388471 -209.575225 
L 220.268525 -212.86032 
L 218.14858 -211.575455 
L 216.028634 -209.096485 
L 213.908688 -199.564672 
L 211.788742 -188.79816 
L 209.668797 -184.592353 
L 207.548851 -184.571287 
L 205.428905 -184.83295 
L 203.308959 -184.384084 
L 201.189014 -184.608852 
L 199.069068 -184.823527 
L 196.949122 -186.60359 
L 194.829177 -186.466131 
L 192.709231 -186.095851 
L 190.589285 -186.027068 
L 188.469339 -184.890349 
L 186.349394 -187.198173 
L 184.229448 -186.017123 
L 182.109502 -185.181856 
L 179.989556 -184.679729 
L 177.869611 -184.159067 
L 175.749665 -185.316315 
L 173.629719 -184.506733 
L 171.509774 -184.512162 
L 169.389828 -185.032595 
L 167.269882 -185.729034 
L 165.149936 -188.916428 
L 163.029991 -197.2409 
L 160.910045 -193.518607 
L 158.790099 -197.481976 
L 156.670153 -205.744298 
L 154.550208 -209.519936 
L 152.430262 -211.372243 
L 150.310316 -212.574378 
L 148.190371 -215.292445 
L 146.070425 -214.340951 
L 143.950479 -215.394744 
L 141.830533 -217.766608 
L 139.710588 -216.315102 
L 137.590642 -216.677967 
L 135.470696 -215.908537 
L 133.350751 -216.993263 
L 131.230805 -216.170222 
L 129.110859 -215.627692 
L 126.990913 -215.533003 
L 124.870968 -217.07066 
L 122.751022 -215.462655 
L 120.631076 -212.531831 
L 118.51113 -212.504006 
L 116.391185 -211.821013 
L 114.271239 -209.954577 
L 112.151293 -197.87783 
L 110.031348 -187.46474 
L 107.911402 -183.285159 
L 105.791456 -183.34148 
L 103.67151 -183.584352 
L 101.551565 -182.994589 
L 99.431619 -183.062635 
L 97.311673 -184.228788 
L 95.191727 -183.67726 
L 93.071782 -184.89744 
L 90.951836 -183.832428 
L 88.83189 -184.855897 
L 86.711945 -186.154405 
L 84.591999 -186.221116 
L 82.472053 -186.101809 
L 80.352107 -185.081273 
L 78.232162 -184.612848 
L 76.112216 -184.554496 
z
" style="stroke: #ff0000; stroke-opacity: 0.2"/>
    </defs>
    <g clip-path="url(#pae0291f881)">
     <use xlink:href="#m9c40bfe8a9" x="0" y="453.244198" style="fill: #ff0000; fill-opacity: 0.2; stroke: #ff0000; stroke-opacity: 0.2"/>
    </g>
   </g>
   <g id="patch_3">
    <path d="M 76.112216 354.958125 
L 76.112216 22.318125 
L 101.551565 22.318125 
L 101.551565 354.958125 
z
" clip-path="url(#pae0291f881)" style="opacity: 0.3; stroke: #000000; stroke-linejoin: miter"/>
   </g>
   <g id="patch_4">
    <path d="M 152.430262 354.958125 
L 152.430262 22.318125 
L 203.308959 22.318125 
L 203.308959 354.958125 
z
" clip-path="url(#pae0291f881)" style="opacity: 0.3; stroke: #000000; stroke-linejoin: miter"/>
   </g>
   <g id="patch_5">
    <path d="M 254.187657 354.958125 
L 254.187657 22.318125 
L 305.066354 22.318125 
L 305.066354 354.958125 
z
" clip-path="url(#pae0291f881)" style="opacity: 0.3; stroke: #000000; stroke-linejoin: miter"/>
   </g>
   <g id="patch_6">
    <path d="M 355.945052 354.958125 
L 355.945052 22.318125 
L 406.823749 22.318125 
L 406.823749 354.958125 
z
" clip-path="url(#pae0291f881)" style="opacity: 0.3; stroke: #000000; stroke-linejoin: miter"/>
   </g>
   <g id="patch_7">
    <path d="M 457.702447 354.958125 
L 457.702447 22.318125 
L 508.581144 22.318125 
L 508.581144 354.958125 
z
" clip-path="url(#pae0291f881)" style="opacity: 0.3; stroke: #000000; stroke-linejoin: miter"/>
   </g>
   <g id="patch_8">
    <path d="M 559.459841 354.958125 
L 559.459841 22.318125 
L 610.338539 22.318125 
L 610.338539 354.958125 
z
" clip-path="url(#pae0291f881)" style="opacity: 0.3; stroke: #000000; stroke-linejoin: miter"/>
   </g>
   <g id="patch_9">
    <path d="M 661.217236 354.958125 
L 661.217236 22.318125 
L 712.095934 22.318125 
L 712.095934 354.958125 
z
" clip-path="url(#pae0291f881)" style="opacity: 0.3; stroke: #000000; stroke-linejoin: miter"/>
   </g>
   <g id="patch_10">
    <path d="M 762.974631 354.958125 
L 762.974631 22.318125 
L 786.294034 22.318125 
L 786.294034 354.958125 
z
" clip-path="url(#pae0291f881)" style="opacity: 0.3; stroke: #000000; stroke-linejoin: miter"/>
   </g>
   <g id="matplotlib.axis_1">
    <g id="xtick_1">
     <g id="line2d_1">
      <path d="M 76.112216 354.958125 
L 76.112216 22.318125 
" clip-path="url(#pae0291f881)" style="fill: none; stroke: #b0b0b0; stroke-width: 0.8; stroke-linecap: square"/>
     </g>
     <g id="line2d_2">
      <defs>
       <path id="m362b241bca" d="M 0 0 
L 0 3.5 
" style="stroke: #000000; stroke-width: 0.8"/>
      </defs>
      <g>
       <use xlink:href="#m362b241bca" x="76.112216" y="354.958125" style="stroke: #000000; stroke-width: 0.8"/>
      </g>
     </g>
     <g id="text_1">
      <!-- Monday 00:00 -->
      <g transform="translate(24.100093 417.872594) rotate(-45) scale(0.1 -0.1)">
       <defs>
        <path id="DejaVuSans-4d" d="M 628 4666 
L 1569 4666 
L 2759 1491 
L 3956 4666 
L 4897 4666 
L 4897 0 
L 4281 0 
L 4281 4097 
L 3078 897 
L 2444 897 
L 1241 4097 
L 1241 0 
L 628 0 
L 628 4666 
z
" transform="scale(0.015625)"/>
        <path id="DejaVuSans-6f" d="M 1959 3097 
Q 1497 3097 1228 2736 
Q 959 2375 959 1747 
Q 959 1119 1226 758 
Q 1494 397 1959 397 
Q 2419 397 2687 759 
Q 2956 1122 2956 1747 
Q 2956 2369 2687 2733 
Q 2419 3097 1959 3097 
z
M 1959 3584 
Q 2709 3584 3137 3096 
Q 3566 2609 3566 1747 
Q 3566 888 3137 398 
Q 2709 -91 1959 -91 
Q 1206 -91 779 398 
Q 353 888 353 1747 
Q 353 2609 779 3096 
Q 1206 3584 1959 3584 
z
" transform="scale(0.015625)"/>
        <path id="DejaVuSans-6e" d="M 3513 2113 
L 3513 0 
L 2938 0 
L 2938 2094 
Q 2938 2591 2744 2837 
Q 2550 3084 2163 3084 
Q 1697 3084 1428 2787 
Q 1159 2491 1159 1978 
L 1159 0 
L 581 0 
L 581 3500 
L 1159 3500 
L 1159 2956 
Q 1366 3272 1645 3428 
Q 1925 3584 2291 3584 
Q 2894 3584 3203 3211 
Q 3513 2838 3513 2113 
z
" transform="scale(0.015625)"/>
        <path id="DejaVuSans-64" d="M 2906 2969 
L 2906 4863 
L 3481 4863 
L 3481 0 
L 2906 0 
L 2906 525 
Q 2725 213 2448 61 
Q 2172 -91 1784 -91 
Q 1150 -91 751 415 
Q 353 922 353 1747 
Q 353 2572 751 3078 
Q 1150 3584 1784 3584 
Q 2172 3584 2448 3432 
Q 2725 3281 2906 2969 
z
M 947 1747 
Q 947 1113 1208 752 
Q 1469 391 1925 391 
Q 2381 391 2643 752 
Q 2906 1113 2906 1747 
Q 2906 2381 2643 2742 
Q 2381 3103 1925 3103 
Q 1469 3103 1208 2742 
Q 947 2381 947 1747 
z
" transform="scale(0.015625)"/>
        <path id="DejaVuSans-61" d="M 2194 1759 
Q 1497 1759 1228 1600 
Q 959 1441 959 1056 
Q 959 750 1161 570 
Q 1363 391 1709 391 
Q 2188 391 2477 730 
Q 2766 1069 2766 1631 
L 2766 1759 
L 2194 1759 
z
M 3341 1997 
L 3341 0 
L 2766 0 
L 2766 531 
Q 2569 213 2275 61 
Q 1981 -91 1556 -91 
Q 1019 -91 701 211 
Q 384 513 384 1019 
Q 384 1609 779 1909 
Q 1175 2209 1959 2209 
L 2766 2209 
L 2766 2266 
Q 2766 2663 2505 2880 
Q 2244 3097 1772 3097 
Q 1472 3097 1187 3025 
Q 903 2953 641 2809 
L 641 3341 
Q 956 3463 1253 3523 
Q 1550 3584 1831 3584 
Q 2591 3584 2966 3190 
Q 3341 2797 3341 1997 
z
" transform="scale(0.015625)"/>
        <path id="DejaVuSans-79" d="M 2059 -325 
Q 1816 -950 1584 -1140 
Q 1353 -1331 966 -1331 
L 506 -1331 
L 506 -850 
L 844 -850 
Q 1081 -850 1212 -737 
Q 1344 -625 1503 -206 
L 1606 56 
L 191 3500 
L 800 3500 
L 1894 763 
L 2988 3500 
L 3597 3500 
L 2059 -325 
z
" transform="scale(0.015625)"/>
        <path id="DejaVuSans-20" transform="scale(0.015625)"/>
        <path id="DejaVuSans-30" d="M 2034 4250 
Q 1547 4250 1301 3770 
Q 1056 3291 1056 2328 
Q 1056 1369 1301 889 
Q 1547 409 2034 409 
Q 2525 409 2770 889 
Q 3016 1369 3016 2328 
Q 3016 3291 2770 3770 
Q 2525 4250 2034 4250 
z
M 2034 4750 
Q 2819 4750 3233 4129 
Q 3647 3509 3647 2328 
Q 3647 1150 3233 529 
Q 2819 -91 2034 -91 
Q 1250 -91 836 529 
Q 422 1150 422 2328 
Q 422 3509 836 4129 
Q 1250 4750 2034 4750 
z
" transform="scale(0.015625)"/>
        <path id="DejaVuSans-3a" d="M 750 794 
L 1409 794 
L 1409 0 
L 750 0 
L 750 794 
z
M 750 3309 
L 1409 3309 
L 1409 2516 
L 750 2516 
L 750 3309 
z
" transform="scale(0.015625)"/>
       </defs>
       <use xlink:href="#DejaVuSans-4d"/>
       <use xlink:href="#DejaVuSans-6f" x="86.279297"/>
       <use xlink:href="#DejaVuSans-6e" x="147.460938"/>
       <use xlink:href="#DejaVuSans-64" x="210.839844"/>
       <use xlink:href="#DejaVuSans-61" x="274.316406"/>
       <use xlink:href="#DejaVuSans-79" x="335.595703"/>
       <use xlink:href="#DejaVuSans-20" x="394.775391"/>
       <use xlink:href="#DejaVuSans-30" x="426.5625"/>
       <use xlink:href="#DejaVuSans-30" x="490.185547"/>
       <use xlink:href="#DejaVuSans-3a" x="553.808594"/>
       <use xlink:href="#DejaVuSans-30" x="587.5"/>
       <use xlink:href="#DejaVuSans-30" x="651.123047"/>
      </g>
     </g>
    </g>
    <g id="xtick_2">
     <g id="line2d_3">
      <path d="M 101.551565 354.958125 
L 101.551565 22.318125 
" clip-path="url(#pae0291f881)" style="fill: none; stroke: #b0b0b0; stroke-width: 0.8; stroke-linecap: square"/>
     </g>
     <g id="line2d_4">
      <g>
       <use xlink:href="#m362b241bca" x="101.551565" y="354.958125" style="stroke: #000000; stroke-width: 0.8"/>
      </g>
     </g>
     <g id="text_2">
      <!-- 06:00 -->
      <g transform="translate(79.70307 387.708965) rotate(-45) scale(0.1 -0.1)">
       <defs>
        <path id="DejaVuSans-36" d="M 2113 2584 
Q 1688 2584 1439 2293 
Q 1191 2003 1191 1497 
Q 1191 994 1439 701 
Q 1688 409 2113 409 
Q 2538 409 2786 701 
Q 3034 994 3034 1497 
Q 3034 2003 2786 2293 
Q 2538 2584 2113 2584 
z
M 3366 4563 
L 3366 3988 
Q 3128 4100 2886 4159 
Q 2644 4219 2406 4219 
Q 1781 4219 1451 3797 
Q 1122 3375 1075 2522 
Q 1259 2794 1537 2939 
Q 1816 3084 2150 3084 
Q 2853 3084 3261 2657 
Q 3669 2231 3669 1497 
Q 3669 778 3244 343 
Q 2819 -91 2113 -91 
Q 1303 -91 875 529 
Q 447 1150 447 2328 
Q 447 3434 972 4092 
Q 1497 4750 2381 4750 
Q 2619 4750 2861 4703 
Q 3103 4656 3366 4563 
z
" transform="scale(0.015625)"/>
       </defs>
       <use xlink:href="#DejaVuSans-30"/>
       <use xlink:href="#DejaVuSans-36" x="63.623047"/>
       <use xlink:href="#DejaVuSans-3a" x="127.246094"/>
       <use xlink:href="#DejaVuSans-30" x="160.9375"/>
       <use xlink:href="#DejaVuSans-30" x="224.560547"/>
      </g>
     </g>
    </g>
    <g id="xtick_3">
     <g id="line2d_5">
      <path d="M 126.990913 354.958125 
L 126.990913 22.318125 
" clip-path="url(#pae0291f881)" style="fill: none; stroke: #b0b0b0; stroke-width: 0.8; stroke-linecap: square"/>
     </g>
     <g id="line2d_6">
      <g>
       <use xlink:href="#m362b241bca" x="126.990913" y="354.958125" style="stroke: #000000; stroke-width: 0.8"/>
      </g>
     </g>
     <g id="text_3">
      <!-- 12:00 -->
      <g transform="translate(105.142419 387.708965) rotate(-45) scale(0.1 -0.1)">
       <defs>
        <path id="DejaVuSans-31" d="M 794 531 
L 1825 531 
L 1825 4091 
L 703 3866 
L 703 4441 
L 1819 4666 
L 2450 4666 
L 2450 531 
L 3481 531 
L 3481 0 
L 794 0 
L 794 531 
z
" transform="scale(0.015625)"/>
        <path id="DejaVuSans-32" d="M 1228 531 
L 3431 531 
L 3431 0 
L 469 0 
L 469 531 
Q 828 903 1448 1529 
Q 2069 2156 2228 2338 
Q 2531 2678 2651 2914 
Q 2772 3150 2772 3378 
Q 2772 3750 2511 3984 
Q 2250 4219 1831 4219 
Q 1534 4219 1204 4116 
Q 875 4013 500 3803 
L 500 4441 
Q 881 4594 1212 4672 
Q 1544 4750 1819 4750 
Q 2544 4750 2975 4387 
Q 3406 4025 3406 3419 
Q 3406 3131 3298 2873 
Q 3191 2616 2906 2266 
Q 2828 2175 2409 1742 
Q 1991 1309 1228 531 
z
" transform="scale(0.015625)"/>
       </defs>
       <use xlink:href="#DejaVuSans-31"/>
       <use xlink:href="#DejaVuSans-32" x="63.623047"/>
       <use xlink:href="#DejaVuSans-3a" x="127.246094"/>
       <use xlink:href="#DejaVuSans-30" x="160.9375"/>
       <use xlink:href="#DejaVuSans-30" x="224.560547"/>
      </g>
     </g>
    </g>
    <g id="xtick_4">
     <g id="line2d_7">
      <path d="M 152.430262 354.958125 
L 152.430262 22.318125 
" clip-path="url(#pae0291f881)" style="fill: none; stroke: #b0b0b0; stroke-width: 0.8; stroke-linecap: square"/>
     </g>
     <g id="line2d_8">
      <g>
       <use xlink:href="#m362b241bca" x="152.430262" y="354.958125" style="stroke: #000000; stroke-width: 0.8"/>
      </g>
     </g>
     <g id="text_4">
      <!-- 18:00 -->
      <g transform="translate(130.581767 387.708965) rotate(-45) scale(0.1 -0.1)">
       <defs>
        <path id="DejaVuSans-38" d="M 2034 2216 
Q 1584 2216 1326 1975 
Q 1069 1734 1069 1313 
Q 1069 891 1326 650 
Q 1584 409 2034 409 
Q 2484 409 2743 651 
Q 3003 894 3003 1313 
Q 3003 1734 2745 1975 
Q 2488 2216 2034 2216 
z
M 1403 2484 
Q 997 2584 770 2862 
Q 544 3141 544 3541 
Q 544 4100 942 4425 
Q 1341 4750 2034 4750 
Q 2731 4750 3128 4425 
Q 3525 4100 3525 3541 
Q 3525 3141 3298 2862 
Q 3072 2584 2669 2484 
Q 3125 2378 3379 2068 
Q 3634 1759 3634 1313 
Q 3634 634 3220 271 
Q 2806 -91 2034 -91 
Q 1263 -91 848 271 
Q 434 634 434 1313 
Q 434 1759 690 2068 
Q 947 2378 1403 2484 
z
M 1172 3481 
Q 1172 3119 1398 2916 
Q 1625 2713 2034 2713 
Q 2441 2713 2670 2916 
Q 2900 3119 2900 3481 
Q 2900 3844 2670 4047 
Q 2441 4250 2034 4250 
Q 1625 4250 1398 4047 
Q 1172 3844 1172 3481 
z
" transform="scale(0.015625)"/>
       </defs>
       <use xlink:href="#DejaVuSans-31"/>
       <use xlink:href="#DejaVuSans-38" x="63.623047"/>
       <use xlink:href="#DejaVuSans-3a" x="127.246094"/>
       <use xlink:href="#DejaVuSans-30" x="160.9375"/>
       <use xlink:href="#DejaVuSans-30" x="224.560547"/>
      </g>
     </g>
    </g>
    <g id="xtick_5">
     <g id="line2d_9">
      <path d="M 177.869611 354.958125 
L 177.869611 22.318125 
" clip-path="url(#pae0291f881)" style="fill: none; stroke: #b0b0b0; stroke-width: 0.8; stroke-linecap: square"/>
     </g>
     <g id="line2d_10">
      <g>
       <use xlink:href="#m362b241bca" x="177.869611" y="354.958125" style="stroke: #000000; stroke-width: 0.8"/>
      </g>
     </g>
     <g id="text_5">
      <!-- Tuesday 00:00 -->
      <g transform="translate(125.001225 418.728856) rotate(-45) scale(0.1 -0.1)">
       <defs>
        <path id="DejaVuSans-54" d="M -19 4666 
L 3928 4666 
L 3928 4134 
L 2272 4134 
L 2272 0 
L 1638 0 
L 1638 4134 
L -19 4134 
L -19 4666 
z
" transform="scale(0.015625)"/>
        <path id="DejaVuSans-75" d="M 544 1381 
L 544 3500 
L 1119 3500 
L 1119 1403 
Q 1119 906 1312 657 
Q 1506 409 1894 409 
Q 2359 409 2629 706 
Q 2900 1003 2900 1516 
L 2900 3500 
L 3475 3500 
L 3475 0 
L 2900 0 
L 2900 538 
Q 2691 219 2414 64 
Q 2138 -91 1772 -91 
Q 1169 -91 856 284 
Q 544 659 544 1381 
z
M 1991 3584 
L 1991 3584 
z
" transform="scale(0.015625)"/>
        <path id="DejaVuSans-65" d="M 3597 1894 
L 3597 1613 
L 953 1613 
Q 991 1019 1311 708 
Q 1631 397 2203 397 
Q 2534 397 2845 478 
Q 3156 559 3463 722 
L 3463 178 
Q 3153 47 2828 -22 
Q 2503 -91 2169 -91 
Q 1331 -91 842 396 
Q 353 884 353 1716 
Q 353 2575 817 3079 
Q 1281 3584 2069 3584 
Q 2775 3584 3186 3129 
Q 3597 2675 3597 1894 
z
M 3022 2063 
Q 3016 2534 2758 2815 
Q 2500 3097 2075 3097 
Q 1594 3097 1305 2825 
Q 1016 2553 972 2059 
L 3022 2063 
z
" transform="scale(0.015625)"/>
        <path id="DejaVuSans-73" d="M 2834 3397 
L 2834 2853 
Q 2591 2978 2328 3040 
Q 2066 3103 1784 3103 
Q 1356 3103 1142 2972 
Q 928 2841 928 2578 
Q 928 2378 1081 2264 
Q 1234 2150 1697 2047 
L 1894 2003 
Q 2506 1872 2764 1633 
Q 3022 1394 3022 966 
Q 3022 478 2636 193 
Q 2250 -91 1575 -91 
Q 1294 -91 989 -36 
Q 684 19 347 128 
L 347 722 
Q 666 556 975 473 
Q 1284 391 1588 391 
Q 1994 391 2212 530 
Q 2431 669 2431 922 
Q 2431 1156 2273 1281 
Q 2116 1406 1581 1522 
L 1381 1569 
Q 847 1681 609 1914 
Q 372 2147 372 2553 
Q 372 3047 722 3315 
Q 1072 3584 1716 3584 
Q 2034 3584 2315 3537 
Q 2597 3491 2834 3397 
z
" transform="scale(0.015625)"/>
       </defs>
       <use xlink:href="#DejaVuSans-54"/>
       <use xlink:href="#DejaVuSans-75" x="45.958984"/>
       <use xlink:href="#DejaVuSans-65" x="109.337891"/>
       <use xlink:href="#DejaVuSans-73" x="170.861328"/>
       <use xlink:href="#DejaVuSans-64" x="222.960938"/>
       <use xlink:href="#DejaVuSans-61" x="286.4375"/>
       <use xlink:href="#DejaVuSans-79" x="347.716797"/>
       <use xlink:href="#DejaVuSans-20" x="406.896484"/>
       <use xlink:href="#DejaVuSans-30" x="438.683594"/>
       <use xlink:href="#DejaVuSans-30" x="502.306641"/>
       <use xlink:href="#DejaVuSans-3a" x="565.929688"/>
       <use xlink:href="#DejaVuSans-30" x="599.621094"/>
       <use xlink:href="#DejaVuSans-30" x="663.244141"/>
      </g>
     </g>
    </g>
    <g id="xtick_6">
     <g id="line2d_11">
      <path d="M 203.308959 354.958125 
L 203.308959 22.318125 
" clip-path="url(#pae0291f881)" style="fill: none; stroke: #b0b0b0; stroke-width: 0.8; stroke-linecap: square"/>
     </g>
     <g id="line2d_12">
      <g>
       <use xlink:href="#m362b241bca" x="203.308959" y="354.958125" style="stroke: #000000; stroke-width: 0.8"/>
      </g>
     </g>
     <g id="text_6">
      <!-- 06:00 -->
      <g transform="translate(181.460465 387.708965) rotate(-45) scale(0.1 -0.1)">
       <use xlink:href="#DejaVuSans-30"/>
       <use xlink:href="#DejaVuSans-36" x="63.623047"/>
       <use xlink:href="#DejaVuSans-3a" x="127.246094"/>
       <use xlink:href="#DejaVuSans-30" x="160.9375"/>
       <use xlink:href="#DejaVuSans-30" x="224.560547"/>
      </g>
     </g>
    </g>
    <g id="xtick_7">
     <g id="line2d_13">
      <path d="M 228.748308 354.958125 
L 228.748308 22.318125 
" clip-path="url(#pae0291f881)" style="fill: none; stroke: #b0b0b0; stroke-width: 0.8; stroke-linecap: square"/>
     </g>
     <g id="line2d_14">
      <g>
       <use xlink:href="#m362b241bca" x="228.748308" y="354.958125" style="stroke: #000000; stroke-width: 0.8"/>
      </g>
     </g>
     <g id="text_7">
      <!-- 12:00 -->
      <g transform="translate(206.899813 387.708965) rotate(-45) scale(0.1 -0.1)">
       <use xlink:href="#DejaVuSans-31"/>
       <use xlink:href="#DejaVuSans-32" x="63.623047"/>
       <use xlink:href="#DejaVuSans-3a" x="127.246094"/>
       <use xlink:href="#DejaVuSans-30" x="160.9375"/>
       <use xlink:href="#DejaVuSans-30" x="224.560547"/>
      </g>
     </g>
    </g>
    <g id="xtick_8">
     <g id="line2d_15">
      <path d="M 254.187657 354.958125 
L 254.187657 22.318125 
" clip-path="url(#pae0291f881)" style="fill: none; stroke: #b0b0b0; stroke-width: 0.8; stroke-linecap: square"/>
     </g>
     <g id="line2d_16">
      <g>
       <use xlink:href="#m362b241bca" x="254.187657" y="354.958125" style="stroke: #000000; stroke-width: 0.8"/>
      </g>
     </g>
     <g id="text_8">
      <!-- 18:00 -->
      <g transform="translate(232.339162 387.708965) rotate(-45) scale(0.1 -0.1)">
       <use xlink:href="#DejaVuSans-31"/>
       <use xlink:href="#DejaVuSans-38" x="63.623047"/>
       <use xlink:href="#DejaVuSans-3a" x="127.246094"/>
       <use xlink:href="#DejaVuSans-30" x="160.9375"/>
       <use xlink:href="#DejaVuSans-30" x="224.560547"/>
      </g>
     </g>
    </g>
    <g id="xtick_9">
     <g id="line2d_17">
      <path d="M 279.627006 354.958125 
L 279.627006 22.318125 
" clip-path="url(#pae0291f881)" style="fill: none; stroke: #b0b0b0; stroke-width: 0.8; stroke-linecap: square"/>
     </g>
     <g id="line2d_18">
      <g>
       <use xlink:href="#m362b241bca" x="279.627006" y="354.958125" style="stroke: #000000; stroke-width: 0.8"/>
      </g>
     </g>
     <g id="text_9">
      <!-- Wednesday 00:00 -->
      <g transform="translate(214.591964 430.895512) rotate(-45) scale(0.1 -0.1)">
       <defs>
        <path id="DejaVuSans-57" d="M 213 4666 
L 850 4666 
L 1831 722 
L 2809 4666 
L 3519 4666 
L 4500 722 
L 5478 4666 
L 6119 4666 
L 4947 0 
L 4153 0 
L 3169 4050 
L 2175 0 
L 1381 0 
L 213 4666 
z
" transform="scale(0.015625)"/>
       </defs>
       <use xlink:href="#DejaVuSans-57"/>
       <use xlink:href="#DejaVuSans-65" x="93.001953"/>
       <use xlink:href="#DejaVuSans-64" x="154.525391"/>
       <use xlink:href="#DejaVuSans-6e" x="218.001953"/>
       <use xlink:href="#DejaVuSans-65" x="281.380859"/>
       <use xlink:href="#DejaVuSans-73" x="342.904297"/>
       <use xlink:href="#DejaVuSans-64" x="395.003906"/>
       <use xlink:href="#DejaVuSans-61" x="458.480469"/>
       <use xlink:href="#DejaVuSans-79" x="519.759766"/>
       <use xlink:href="#DejaVuSans-20" x="578.939453"/>
       <use xlink:href="#DejaVuSans-30" x="610.726562"/>
       <use xlink:href="#DejaVuSans-30" x="674.349609"/>
       <use xlink:href="#DejaVuSans-3a" x="737.972656"/>
       <use xlink:href="#DejaVuSans-30" x="771.664062"/>
       <use xlink:href="#DejaVuSans-30" x="835.287109"/>
      </g>
     </g>
    </g>
    <g id="xtick_10">
     <g id="line2d_19">
      <path d="M 305.066354 354.958125 
L 305.066354 22.318125 
" clip-path="url(#pae0291f881)" style="fill: none; stroke: #b0b0b0; stroke-width: 0.8; stroke-linecap: square"/>
     </g>
     <g id="line2d_20">
      <g>
       <use xlink:href="#m362b241bca" x="305.066354" y="354.958125" style="stroke: #000000; stroke-width: 0.8"/>
      </g>
     </g>
     <g id="text_10">
      <!-- 06:00 -->
      <g transform="translate(283.21786 387.708965) rotate(-45) scale(0.1 -0.1)">
       <use xlink:href="#DejaVuSans-30"/>
       <use xlink:href="#DejaVuSans-36" x="63.623047"/>
       <use xlink:href="#DejaVuSans-3a" x="127.246094"/>
       <use xlink:href="#DejaVuSans-30" x="160.9375"/>
       <use xlink:href="#DejaVuSans-30" x="224.560547"/>
      </g>
     </g>
    </g>
    <g id="xtick_11">
     <g id="line2d_21">
      <path d="M 330.505703 354.958125 
L 330.505703 22.318125 
" clip-path="url(#pae0291f881)" style="fill: none; stroke: #b0b0b0; stroke-width: 0.8; stroke-linecap: square"/>
     </g>
     <g id="line2d_22">
      <g>
       <use xlink:href="#m362b241bca" x="330.505703" y="354.958125" style="stroke: #000000; stroke-width: 0.8"/>
      </g>
     </g>
     <g id="text_11">
      <!-- 12:00 -->
      <g transform="translate(308.657208 387.708965) rotate(-45) scale(0.1 -0.1)">
       <use xlink:href="#DejaVuSans-31"/>
       <use xlink:href="#DejaVuSans-32" x="63.623047"/>
       <use xlink:href="#DejaVuSans-3a" x="127.246094"/>
       <use xlink:href="#DejaVuSans-30" x="160.9375"/>
       <use xlink:href="#DejaVuSans-30" x="224.560547"/>
      </g>
     </g>
    </g>
    <g id="xtick_12">
     <g id="line2d_23">
      <path d="M 355.945052 354.958125 
L 355.945052 22.318125 
" clip-path="url(#pae0291f881)" style="fill: none; stroke: #b0b0b0; stroke-width: 0.8; stroke-linecap: square"/>
     </g>
     <g id="line2d_24">
      <g>
       <use xlink:href="#m362b241bca" x="355.945052" y="354.958125" style="stroke: #000000; stroke-width: 0.8"/>
      </g>
     </g>
     <g id="text_12">
      <!-- 18:00 -->
      <g transform="translate(334.096557 387.708965) rotate(-45) scale(0.1 -0.1)">
       <use xlink:href="#DejaVuSans-31"/>
       <use xlink:href="#DejaVuSans-38" x="63.623047"/>
       <use xlink:href="#DejaVuSans-3a" x="127.246094"/>
       <use xlink:href="#DejaVuSans-30" x="160.9375"/>
       <use xlink:href="#DejaVuSans-30" x="224.560547"/>
      </g>
     </g>
    </g>
    <g id="xtick_13">
     <g id="line2d_25">
      <path d="M 381.3844 354.958125 
L 381.3844 22.318125 
" clip-path="url(#pae0291f881)" style="fill: none; stroke: #b0b0b0; stroke-width: 0.8; stroke-linecap: square"/>
     </g>
     <g id="line2d_26">
      <g>
       <use xlink:href="#m362b241bca" x="381.3844" y="354.958125" style="stroke: #000000; stroke-width: 0.8"/>
      </g>
     </g>
     <g id="text_13">
      <!-- Thursday 00:00 -->
      <g transform="translate(324.409272 422.835599) rotate(-45) scale(0.1 -0.1)">
       <defs>
        <path id="DejaVuSans-68" d="M 3513 2113 
L 3513 0 
L 2938 0 
L 2938 2094 
Q 2938 2591 2744 2837 
Q 2550 3084 2163 3084 
Q 1697 3084 1428 2787 
Q 1159 2491 1159 1978 
L 1159 0 
L 581 0 
L 581 4863 
L 1159 4863 
L 1159 2956 
Q 1366 3272 1645 3428 
Q 1925 3584 2291 3584 
Q 2894 3584 3203 3211 
Q 3513 2838 3513 2113 
z
" transform="scale(0.015625)"/>
        <path id="DejaVuSans-72" d="M 2631 2963 
Q 2534 3019 2420 3045 
Q 2306 3072 2169 3072 
Q 1681 3072 1420 2755 
Q 1159 2438 1159 1844 
L 1159 0 
L 581 0 
L 581 3500 
L 1159 3500 
L 1159 2956 
Q 1341 3275 1631 3429 
Q 1922 3584 2338 3584 
Q 2397 3584 2469 3576 
Q 2541 3569 2628 3553 
L 2631 2963 
z
" transform="scale(0.015625)"/>
       </defs>
       <use xlink:href="#DejaVuSans-54"/>
       <use xlink:href="#DejaVuSans-68" x="61.083984"/>
       <use xlink:href="#DejaVuSans-75" x="124.462891"/>
       <use xlink:href="#DejaVuSans-72" x="187.841797"/>
       <use xlink:href="#DejaVuSans-73" x="228.955078"/>
       <use xlink:href="#DejaVuSans-64" x="281.054688"/>
       <use xlink:href="#DejaVuSans-61" x="344.53125"/>
       <use xlink:href="#DejaVuSans-79" x="405.810547"/>
       <use xlink:href="#DejaVuSans-20" x="464.990234"/>
       <use xlink:href="#DejaVuSans-30" x="496.777344"/>
       <use xlink:href="#DejaVuSans-30" x="560.400391"/>
       <use xlink:href="#DejaVuSans-3a" x="624.023438"/>
       <use xlink:href="#DejaVuSans-30" x="657.714844"/>
       <use xlink:href="#DejaVuSans-30" x="721.337891"/>
      </g>
     </g>
    </g>
    <g id="xtick_14">
     <g id="line2d_27">
      <path d="M 406.823749 354.958125 
L 406.823749 22.318125 
" clip-path="url(#pae0291f881)" style="fill: none; stroke: #b0b0b0; stroke-width: 0.8; stroke-linecap: square"/>
     </g>
     <g id="line2d_28">
      <g>
       <use xlink:href="#m362b241bca" x="406.823749" y="354.958125" style="stroke: #000000; stroke-width: 0.8"/>
      </g>
     </g>
     <g id="text_14">
      <!-- 06:00 -->
      <g transform="translate(384.975254 387.708965) rotate(-45) scale(0.1 -0.1)">
       <use xlink:href="#DejaVuSans-30"/>
       <use xlink:href="#DejaVuSans-36" x="63.623047"/>
       <use xlink:href="#DejaVuSans-3a" x="127.246094"/>
       <use xlink:href="#DejaVuSans-30" x="160.9375"/>
       <use xlink:href="#DejaVuSans-30" x="224.560547"/>
      </g>
     </g>
    </g>
    <g id="xtick_15">
     <g id="line2d_29">
      <path d="M 432.263098 354.958125 
L 432.263098 22.318125 
" clip-path="url(#pae0291f881)" style="fill: none; stroke: #b0b0b0; stroke-width: 0.8; stroke-linecap: square"/>
     </g>
     <g id="line2d_30">
      <g>
       <use xlink:href="#m362b241bca" x="432.263098" y="354.958125" style="stroke: #000000; stroke-width: 0.8"/>
      </g>
     </g>
     <g id="text_15">
      <!-- 12:00 -->
      <g transform="translate(410.414603 387.708965) rotate(-45) scale(0.1 -0.1)">
       <use xlink:href="#DejaVuSans-31"/>
       <use xlink:href="#DejaVuSans-32" x="63.623047"/>
       <use xlink:href="#DejaVuSans-3a" x="127.246094"/>
       <use xlink:href="#DejaVuSans-30" x="160.9375"/>
       <use xlink:href="#DejaVuSans-30" x="224.560547"/>
      </g>
     </g>
    </g>
    <g id="xtick_16">
     <g id="line2d_31">
      <path d="M 457.702447 354.958125 
L 457.702447 22.318125 
" clip-path="url(#pae0291f881)" style="fill: none; stroke: #b0b0b0; stroke-width: 0.8; stroke-linecap: square"/>
     </g>
     <g id="line2d_32">
      <g>
       <use xlink:href="#m362b241bca" x="457.702447" y="354.958125" style="stroke: #000000; stroke-width: 0.8"/>
      </g>
     </g>
     <g id="text_16">
      <!-- 18:00 -->
      <g transform="translate(435.853952 387.708965) rotate(-45) scale(0.1 -0.1)">
       <use xlink:href="#DejaVuSans-31"/>
       <use xlink:href="#DejaVuSans-38" x="63.623047"/>
       <use xlink:href="#DejaVuSans-3a" x="127.246094"/>
       <use xlink:href="#DejaVuSans-30" x="160.9375"/>
       <use xlink:href="#DejaVuSans-30" x="224.560547"/>
      </g>
     </g>
    </g>
    <g id="xtick_17">
     <g id="line2d_33">
      <path d="M 483.141795 354.958125 
L 483.141795 22.318125 
" clip-path="url(#pae0291f881)" style="fill: none; stroke: #b0b0b0; stroke-width: 0.8; stroke-linecap: square"/>
     </g>
     <g id="line2d_34">
      <g>
       <use xlink:href="#m362b241bca" x="483.141795" y="354.958125" style="stroke: #000000; stroke-width: 0.8"/>
      </g>
     </g>
     <g id="text_17">
      <!-- Friday 00:00 -->
      <g transform="translate(437.612957 411.389308) rotate(-45) scale(0.1 -0.1)">
       <defs>
        <path id="DejaVuSans-46" d="M 628 4666 
L 3309 4666 
L 3309 4134 
L 1259 4134 
L 1259 2759 
L 3109 2759 
L 3109 2228 
L 1259 2228 
L 1259 0 
L 628 0 
L 628 4666 
z
" transform="scale(0.015625)"/>
        <path id="DejaVuSans-69" d="M 603 3500 
L 1178 3500 
L 1178 0 
L 603 0 
L 603 3500 
z
M 603 4863 
L 1178 4863 
L 1178 4134 
L 603 4134 
L 603 4863 
z
" transform="scale(0.015625)"/>
       </defs>
       <use xlink:href="#DejaVuSans-46"/>
       <use xlink:href="#DejaVuSans-72" x="50.269531"/>
       <use xlink:href="#DejaVuSans-69" x="91.382812"/>
       <use xlink:href="#DejaVuSans-64" x="119.166016"/>
       <use xlink:href="#DejaVuSans-61" x="182.642578"/>
       <use xlink:href="#DejaVuSans-79" x="243.921875"/>
       <use xlink:href="#DejaVuSans-20" x="303.101562"/>
       <use xlink:href="#DejaVuSans-30" x="334.888672"/>
       <use xlink:href="#DejaVuSans-30" x="398.511719"/>
       <use xlink:href="#DejaVuSans-3a" x="462.134766"/>
       <use xlink:href="#DejaVuSans-30" x="495.826172"/>
       <use xlink:href="#DejaVuSans-30" x="559.449219"/>
      </g>
     </g>
    </g>
    <g id="xtick_18">
     <g id="line2d_35">
      <path d="M 508.581144 354.958125 
L 508.581144 22.318125 
" clip-path="url(#pae0291f881)" style="fill: none; stroke: #b0b0b0; stroke-width: 0.8; stroke-linecap: square"/>
     </g>
     <g id="line2d_36">
      <g>
       <use xlink:href="#m362b241bca" x="508.581144" y="354.958125" style="stroke: #000000; stroke-width: 0.8"/>
      </g>
     </g>
     <g id="text_18">
      <!-- 06:00 -->
      <g transform="translate(486.732649 387.708965) rotate(-45) scale(0.1 -0.1)">
       <use xlink:href="#DejaVuSans-30"/>
       <use xlink:href="#DejaVuSans-36" x="63.623047"/>
       <use xlink:href="#DejaVuSans-3a" x="127.246094"/>
       <use xlink:href="#DejaVuSans-30" x="160.9375"/>
       <use xlink:href="#DejaVuSans-30" x="224.560547"/>
      </g>
     </g>
    </g>
    <g id="xtick_19">
     <g id="line2d_37">
      <path d="M 534.020493 354.958125 
L 534.020493 22.318125 
" clip-path="url(#pae0291f881)" style="fill: none; stroke: #b0b0b0; stroke-width: 0.8; stroke-linecap: square"/>
     </g>
     <g id="line2d_38">
      <g>
       <use xlink:href="#m362b241bca" x="534.020493" y="354.958125" style="stroke: #000000; stroke-width: 0.8"/>
      </g>
     </g>
     <g id="text_19">
      <!-- 12:00 -->
      <g transform="translate(512.171998 387.708965) rotate(-45) scale(0.1 -0.1)">
       <use xlink:href="#DejaVuSans-31"/>
       <use xlink:href="#DejaVuSans-32" x="63.623047"/>
       <use xlink:href="#DejaVuSans-3a" x="127.246094"/>
       <use xlink:href="#DejaVuSans-30" x="160.9375"/>
       <use xlink:href="#DejaVuSans-30" x="224.560547"/>
      </g>
     </g>
    </g>
    <g id="xtick_20">
     <g id="line2d_39">
      <path d="M 559.459841 354.958125 
L 559.459841 22.318125 
" clip-path="url(#pae0291f881)" style="fill: none; stroke: #b0b0b0; stroke-width: 0.8; stroke-linecap: square"/>
     </g>
     <g id="line2d_40">
      <g>
       <use xlink:href="#m362b241bca" x="559.459841" y="354.958125" style="stroke: #000000; stroke-width: 0.8"/>
      </g>
     </g>
     <g id="text_20">
      <!-- 18:00 -->
      <g transform="translate(537.611347 387.708965) rotate(-45) scale(0.1 -0.1)">
       <use xlink:href="#DejaVuSans-31"/>
       <use xlink:href="#DejaVuSans-38" x="63.623047"/>
       <use xlink:href="#DejaVuSans-3a" x="127.246094"/>
       <use xlink:href="#DejaVuSans-30" x="160.9375"/>
       <use xlink:href="#DejaVuSans-30" x="224.560547"/>
      </g>
     </g>
    </g>
    <g id="xtick_21">
     <g id="line2d_41">
      <path d="M 584.89919 354.958125 
L 584.89919 22.318125 
" clip-path="url(#pae0291f881)" style="fill: none; stroke: #b0b0b0; stroke-width: 0.8; stroke-linecap: square"/>
     </g>
     <g id="line2d_42">
      <g>
       <use xlink:href="#m362b241bca" x="584.89919" y="354.958125" style="stroke: #000000; stroke-width: 0.8"/>
      </g>
     </g>
     <g id="text_21">
      <!-- Saturday 00:00 -->
      <g transform="translate(528.937213 421.822448) rotate(-45) scale(0.1 -0.1)">
       <defs>
        <path id="DejaVuSans-53" d="M 3425 4513 
L 3425 3897 
Q 3066 4069 2747 4153 
Q 2428 4238 2131 4238 
Q 1616 4238 1336 4038 
Q 1056 3838 1056 3469 
Q 1056 3159 1242 3001 
Q 1428 2844 1947 2747 
L 2328 2669 
Q 3034 2534 3370 2195 
Q 3706 1856 3706 1288 
Q 3706 609 3251 259 
Q 2797 -91 1919 -91 
Q 1588 -91 1214 -16 
Q 841 59 441 206 
L 441 856 
Q 825 641 1194 531 
Q 1563 422 1919 422 
Q 2459 422 2753 634 
Q 3047 847 3047 1241 
Q 3047 1584 2836 1778 
Q 2625 1972 2144 2069 
L 1759 2144 
Q 1053 2284 737 2584 
Q 422 2884 422 3419 
Q 422 4038 858 4394 
Q 1294 4750 2059 4750 
Q 2388 4750 2728 4690 
Q 3069 4631 3425 4513 
z
" transform="scale(0.015625)"/>
        <path id="DejaVuSans-74" d="M 1172 4494 
L 1172 3500 
L 2356 3500 
L 2356 3053 
L 1172 3053 
L 1172 1153 
Q 1172 725 1289 603 
Q 1406 481 1766 481 
L 2356 481 
L 2356 0 
L 1766 0 
Q 1100 0 847 248 
Q 594 497 594 1153 
L 594 3053 
L 172 3053 
L 172 3500 
L 594 3500 
L 594 4494 
L 1172 4494 
z
" transform="scale(0.015625)"/>
       </defs>
       <use xlink:href="#DejaVuSans-53"/>
       <use xlink:href="#DejaVuSans-61" x="63.476562"/>
       <use xlink:href="#DejaVuSans-74" x="124.755859"/>
       <use xlink:href="#DejaVuSans-75" x="163.964844"/>
       <use xlink:href="#DejaVuSans-72" x="227.34375"/>
       <use xlink:href="#DejaVuSans-64" x="266.707031"/>
       <use xlink:href="#DejaVuSans-61" x="330.183594"/>
       <use xlink:href="#DejaVuSans-79" x="391.462891"/>
       <use xlink:href="#DejaVuSans-20" x="450.642578"/>
       <use xlink:href="#DejaVuSans-30" x="482.429688"/>
       <use xlink:href="#DejaVuSans-30" x="546.052734"/>
       <use xlink:href="#DejaVuSans-3a" x="609.675781"/>
       <use xlink:href="#DejaVuSans-30" x="643.367188"/>
       <use xlink:href="#DejaVuSans-30" x="706.990234"/>
      </g>
     </g>
    </g>
    <g id="xtick_22">
     <g id="line2d_43">
      <path d="M 610.338539 354.958125 
L 610.338539 22.318125 
" clip-path="url(#pae0291f881)" style="fill: none; stroke: #b0b0b0; stroke-width: 0.8; stroke-linecap: square"/>
     </g>
     <g id="line2d_44">
      <g>
       <use xlink:href="#m362b241bca" x="610.338539" y="354.958125" style="stroke: #000000; stroke-width: 0.8"/>
      </g>
     </g>
     <g id="text_22">
      <!-- 06:00 -->
      <g transform="translate(588.490044 387.708965) rotate(-45) scale(0.1 -0.1)">
       <use xlink:href="#DejaVuSans-30"/>
       <use xlink:href="#DejaVuSans-36" x="63.623047"/>
       <use xlink:href="#DejaVuSans-3a" x="127.246094"/>
       <use xlink:href="#DejaVuSans-30" x="160.9375"/>
       <use xlink:href="#DejaVuSans-30" x="224.560547"/>
      </g>
     </g>
    </g>
    <g id="xtick_23">
     <g id="line2d_45">
      <path d="M 635.777888 354.958125 
L 635.777888 22.318125 
" clip-path="url(#pae0291f881)" style="fill: none; stroke: #b0b0b0; stroke-width: 0.8; stroke-linecap: square"/>
     </g>
     <g id="line2d_46">
      <g>
       <use xlink:href="#m362b241bca" x="635.777888" y="354.958125" style="stroke: #000000; stroke-width: 0.8"/>
      </g>
     </g>
     <g id="text_23">
      <!-- 12:00 -->
      <g transform="translate(613.929393 387.708965) rotate(-45) scale(0.1 -0.1)">
       <use xlink:href="#DejaVuSans-31"/>
       <use xlink:href="#DejaVuSans-32" x="63.623047"/>
       <use xlink:href="#DejaVuSans-3a" x="127.246094"/>
       <use xlink:href="#DejaVuSans-30" x="160.9375"/>
       <use xlink:href="#DejaVuSans-30" x="224.560547"/>
      </g>
     </g>
    </g>
    <g id="xtick_24">
     <g id="line2d_47">
      <path d="M 661.217236 354.958125 
L 661.217236 22.318125 
" clip-path="url(#pae0291f881)" style="fill: none; stroke: #b0b0b0; stroke-width: 0.8; stroke-linecap: square"/>
     </g>
     <g id="line2d_48">
      <g>
       <use xlink:href="#m362b241bca" x="661.217236" y="354.958125" style="stroke: #000000; stroke-width: 0.8"/>
      </g>
     </g>
     <g id="text_24">
      <!-- 18:00 -->
      <g transform="translate(639.368742 387.708965) rotate(-45) scale(0.1 -0.1)">
       <use xlink:href="#DejaVuSans-31"/>
       <use xlink:href="#DejaVuSans-38" x="63.623047"/>
       <use xlink:href="#DejaVuSans-3a" x="127.246094"/>
       <use xlink:href="#DejaVuSans-30" x="160.9375"/>
       <use xlink:href="#DejaVuSans-30" x="224.560547"/>
      </g>
     </g>
    </g>
    <g id="xtick_25">
     <g id="line2d_49">
      <path d="M 686.656585 354.958125 
L 686.656585 22.318125 
" clip-path="url(#pae0291f881)" style="fill: none; stroke: #b0b0b0; stroke-width: 0.8; stroke-linecap: square"/>
     </g>
     <g id="line2d_50">
      <g>
       <use xlink:href="#m362b241bca" x="686.656585" y="354.958125" style="stroke: #000000; stroke-width: 0.8"/>
      </g>
     </g>
     <g id="text_25">
      <!-- Sunday 00:00 -->
      <g transform="translate(636.101765 416.415291) rotate(-45) scale(0.1 -0.1)">
       <use xlink:href="#DejaVuSans-53"/>
       <use xlink:href="#DejaVuSans-75" x="63.476562"/>
       <use xlink:href="#DejaVuSans-6e" x="126.855469"/>
       <use xlink:href="#DejaVuSans-64" x="190.234375"/>
       <use xlink:href="#DejaVuSans-61" x="253.710938"/>
       <use xlink:href="#DejaVuSans-79" x="314.990234"/>
       <use xlink:href="#DejaVuSans-20" x="374.169922"/>
       <use xlink:href="#DejaVuSans-30" x="405.957031"/>
       <use xlink:href="#DejaVuSans-30" x="469.580078"/>
       <use xlink:href="#DejaVuSans-3a" x="533.203125"/>
       <use xlink:href="#DejaVuSans-30" x="566.894531"/>
       <use xlink:href="#DejaVuSans-30" x="630.517578"/>
      </g>
     </g>
    </g>
    <g id="xtick_26">
     <g id="line2d_51">
      <path d="M 712.095934 354.958125 
L 712.095934 22.318125 
" clip-path="url(#pae0291f881)" style="fill: none; stroke: #b0b0b0; stroke-width: 0.8; stroke-linecap: square"/>
     </g>
     <g id="line2d_52">
      <g>
       <use xlink:href="#m362b241bca" x="712.095934" y="354.958125" style="stroke: #000000; stroke-width: 0.8"/>
      </g>
     </g>
     <g id="text_26">
      <!-- 06:00 -->
      <g transform="translate(690.247439 387.708965) rotate(-45) scale(0.1 -0.1)">
       <use xlink:href="#DejaVuSans-30"/>
       <use xlink:href="#DejaVuSans-36" x="63.623047"/>
       <use xlink:href="#DejaVuSans-3a" x="127.246094"/>
       <use xlink:href="#DejaVuSans-30" x="160.9375"/>
       <use xlink:href="#DejaVuSans-30" x="224.560547"/>
      </g>
     </g>
    </g>
    <g id="xtick_27">
     <g id="line2d_53">
      <path d="M 737.535282 354.958125 
L 737.535282 22.318125 
" clip-path="url(#pae0291f881)" style="fill: none; stroke: #b0b0b0; stroke-width: 0.8; stroke-linecap: square"/>
     </g>
     <g id="line2d_54">
      <g>
       <use xlink:href="#m362b241bca" x="737.535282" y="354.958125" style="stroke: #000000; stroke-width: 0.8"/>
      </g>
     </g>
     <g id="text_27">
      <!-- 12:00 -->
      <g transform="translate(715.686788 387.708965) rotate(-45) scale(0.1 -0.1)">
       <use xlink:href="#DejaVuSans-31"/>
       <use xlink:href="#DejaVuSans-32" x="63.623047"/>
       <use xlink:href="#DejaVuSans-3a" x="127.246094"/>
       <use xlink:href="#DejaVuSans-30" x="160.9375"/>
       <use xlink:href="#DejaVuSans-30" x="224.560547"/>
      </g>
     </g>
    </g>
    <g id="xtick_28">
     <g id="line2d_55">
      <path d="M 762.974631 354.958125 
L 762.974631 22.318125 
" clip-path="url(#pae0291f881)" style="fill: none; stroke: #b0b0b0; stroke-width: 0.8; stroke-linecap: square"/>
     </g>
     <g id="line2d_56">
      <g>
       <use xlink:href="#m362b241bca" x="762.974631" y="354.958125" style="stroke: #000000; stroke-width: 0.8"/>
      </g>
     </g>
     <g id="text_28">
      <!-- 18:00 -->
      <g transform="translate(741.126136 387.708965) rotate(-45) scale(0.1 -0.1)">
       <use xlink:href="#DejaVuSans-31"/>
       <use xlink:href="#DejaVuSans-38" x="63.623047"/>
       <use xlink:href="#DejaVuSans-3a" x="127.246094"/>
       <use xlink:href="#DejaVuSans-30" x="160.9375"/>
       <use xlink:href="#DejaVuSans-30" x="224.560547"/>
      </g>
     </g>
    </g>
    <g id="text_29">
     <!-- Time -->
     <g transform="translate(418.969531 443.964511) scale(0.1 -0.1)">
      <defs>
       <path id="DejaVuSans-6d" d="M 3328 2828 
Q 3544 3216 3844 3400 
Q 4144 3584 4550 3584 
Q 5097 3584 5394 3201 
Q 5691 2819 5691 2113 
L 5691 0 
L 5113 0 
L 5113 2094 
Q 5113 2597 4934 2840 
Q 4756 3084 4391 3084 
Q 3944 3084 3684 2787 
Q 3425 2491 3425 1978 
L 3425 0 
L 2847 0 
L 2847 2094 
Q 2847 2600 2669 2842 
Q 2491 3084 2119 3084 
Q 1678 3084 1418 2786 
Q 1159 2488 1159 1978 
L 1159 0 
L 581 0 
L 581 3500 
L 1159 3500 
L 1159 2956 
Q 1356 3278 1631 3431 
Q 1906 3584 2284 3584 
Q 2666 3584 2933 3390 
Q 3200 3197 3328 2828 
z
" transform="scale(0.015625)"/>
      </defs>
      <use xlink:href="#DejaVuSans-54"/>
      <use xlink:href="#DejaVuSans-69" x="57.958984"/>
      <use xlink:href="#DejaVuSans-6d" x="85.742188"/>
      <use xlink:href="#DejaVuSans-65" x="183.154297"/>
     </g>
    </g>
   </g>
   <g id="matplotlib.axis_2">
    <g id="ytick_1">
     <g id="line2d_57">
      <path d="M 40.603125 339.838125 
L 821.803125 339.838125 
" clip-path="url(#pae0291f881)" style="fill: none; stroke: #b0b0b0; stroke-width: 0.8; stroke-linecap: square"/>
     </g>
     <g id="line2d_58">
      <defs>
       <path id="m7faaa17cbe" d="M 0 0 
L -3.5 0 
" style="stroke: #000000; stroke-width: 0.8"/>
      </defs>
      <g>
       <use xlink:href="#m7faaa17cbe" x="40.603125" y="339.838125" style="stroke: #000000; stroke-width: 0.8"/>
      </g>
     </g>
     <g id="text_30">
      <!-- 0 -->
      <g transform="translate(27.240625 343.637344) scale(0.1 -0.1)">
       <use xlink:href="#DejaVuSans-30"/>
      </g>
     </g>
    </g>
    <g id="ytick_2">
     <g id="line2d_59">
      <path d="M 40.603125 295.367537 
L 821.803125 295.367537 
" clip-path="url(#pae0291f881)" style="fill: none; stroke: #b0b0b0; stroke-width: 0.8; stroke-linecap: square"/>
     </g>
     <g id="line2d_60">
      <g>
       <use xlink:href="#m7faaa17cbe" x="40.603125" y="295.367537" style="stroke: #000000; stroke-width: 0.8"/>
      </g>
     </g>
     <g id="text_31">
      <!-- 10 -->
      <g transform="translate(20.878125 299.166756) scale(0.1 -0.1)">
       <use xlink:href="#DejaVuSans-31"/>
       <use xlink:href="#DejaVuSans-30" x="63.623047"/>
      </g>
     </g>
    </g>
    <g id="ytick_3">
     <g id="line2d_61">
      <path d="M 40.603125 250.896949 
L 821.803125 250.896949 
" clip-path="url(#pae0291f881)" style="fill: none; stroke: #b0b0b0; stroke-width: 0.8; stroke-linecap: square"/>
     </g>
     <g id="line2d_62">
      <g>
       <use xlink:href="#m7faaa17cbe" x="40.603125" y="250.896949" style="stroke: #000000; stroke-width: 0.8"/>
      </g>
     </g>
     <g id="text_32">
      <!-- 20 -->
      <g transform="translate(20.878125 254.696167) scale(0.1 -0.1)">
       <use xlink:href="#DejaVuSans-32"/>
       <use xlink:href="#DejaVuSans-30" x="63.623047"/>
      </g>
     </g>
    </g>
    <g id="ytick_4">
     <g id="line2d_63">
      <path d="M 40.603125 206.42636 
L 821.803125 206.42636 
" clip-path="url(#pae0291f881)" style="fill: none; stroke: #b0b0b0; stroke-width: 0.8; stroke-linecap: square"/>
     </g>
     <g id="line2d_64">
      <g>
       <use xlink:href="#m7faaa17cbe" x="40.603125" y="206.42636" style="stroke: #000000; stroke-width: 0.8"/>
      </g>
     </g>
     <g id="text_33">
      <!-- 30 -->
      <g transform="translate(20.878125 210.225579) scale(0.1 -0.1)">
       <defs>
        <path id="DejaVuSans-33" d="M 2597 2516 
Q 3050 2419 3304 2112 
Q 3559 1806 3559 1356 
Q 3559 666 3084 287 
Q 2609 -91 1734 -91 
Q 1441 -91 1130 -33 
Q 819 25 488 141 
L 488 750 
Q 750 597 1062 519 
Q 1375 441 1716 441 
Q 2309 441 2620 675 
Q 2931 909 2931 1356 
Q 2931 1769 2642 2001 
Q 2353 2234 1838 2234 
L 1294 2234 
L 1294 2753 
L 1863 2753 
Q 2328 2753 2575 2939 
Q 2822 3125 2822 3475 
Q 2822 3834 2567 4026 
Q 2313 4219 1838 4219 
Q 1578 4219 1281 4162 
Q 984 4106 628 3988 
L 628 4550 
Q 988 4650 1302 4700 
Q 1616 4750 1894 4750 
Q 2613 4750 3031 4423 
Q 3450 4097 3450 3541 
Q 3450 3153 3228 2886 
Q 3006 2619 2597 2516 
z
" transform="scale(0.015625)"/>
       </defs>
       <use xlink:href="#DejaVuSans-33"/>
       <use xlink:href="#DejaVuSans-30" x="63.623047"/>
      </g>
     </g>
    </g>
    <g id="ytick_5">
     <g id="line2d_65">
      <path d="M 40.603125 161.955772 
L 821.803125 161.955772 
" clip-path="url(#pae0291f881)" style="fill: none; stroke: #b0b0b0; stroke-width: 0.8; stroke-linecap: square"/>
     </g>
     <g id="line2d_66">
      <g>
       <use xlink:href="#m7faaa17cbe" x="40.603125" y="161.955772" style="stroke: #000000; stroke-width: 0.8"/>
      </g>
     </g>
     <g id="text_34">
      <!-- 40 -->
      <g transform="translate(20.878125 165.754991) scale(0.1 -0.1)">
       <defs>
        <path id="DejaVuSans-34" d="M 2419 4116 
L 825 1625 
L 2419 1625 
L 2419 4116 
z
M 2253 4666 
L 3047 4666 
L 3047 1625 
L 3713 1625 
L 3713 1100 
L 3047 1100 
L 3047 0 
L 2419 0 
L 2419 1100 
L 313 1100 
L 313 1709 
L 2253 4666 
z
" transform="scale(0.015625)"/>
       </defs>
       <use xlink:href="#DejaVuSans-34"/>
       <use xlink:href="#DejaVuSans-30" x="63.623047"/>
      </g>
     </g>
    </g>
    <g id="ytick_6">
     <g id="line2d_67">
      <path d="M 40.603125 117.485184 
L 821.803125 117.485184 
" clip-path="url(#pae0291f881)" style="fill: none; stroke: #b0b0b0; stroke-width: 0.8; stroke-linecap: square"/>
     </g>
     <g id="line2d_68">
      <g>
       <use xlink:href="#m7faaa17cbe" x="40.603125" y="117.485184" style="stroke: #000000; stroke-width: 0.8"/>
      </g>
     </g>
     <g id="text_35">
      <!-- 50 -->
      <g transform="translate(20.878125 121.284403) scale(0.1 -0.1)">
       <defs>
        <path id="DejaVuSans-35" d="M 691 4666 
L 3169 4666 
L 3169 4134 
L 1269 4134 
L 1269 2991 
Q 1406 3038 1543 3061 
Q 1681 3084 1819 3084 
Q 2600 3084 3056 2656 
Q 3513 2228 3513 1497 
Q 3513 744 3044 326 
Q 2575 -91 1722 -91 
Q 1428 -91 1123 -41 
Q 819 9 494 109 
L 494 744 
Q 775 591 1075 516 
Q 1375 441 1709 441 
Q 2250 441 2565 725 
Q 2881 1009 2881 1497 
Q 2881 1984 2565 2268 
Q 2250 2553 1709 2553 
Q 1456 2553 1204 2497 
Q 953 2441 691 2322 
L 691 4666 
z
" transform="scale(0.015625)"/>
       </defs>
       <use xlink:href="#DejaVuSans-35"/>
       <use xlink:href="#DejaVuSans-30" x="63.623047"/>
      </g>
     </g>
    </g>
    <g id="ytick_7">
     <g id="line2d_69">
      <path d="M 40.603125 73.014596 
L 821.803125 73.014596 
" clip-path="url(#pae0291f881)" style="fill: none; stroke: #b0b0b0; stroke-width: 0.8; stroke-linecap: square"/>
     </g>
     <g id="line2d_70">
      <g>
       <use xlink:href="#m7faaa17cbe" x="40.603125" y="73.014596" style="stroke: #000000; stroke-width: 0.8"/>
      </g>
     </g>
     <g id="text_36">
      <!-- 60 -->
      <g transform="translate(20.878125 76.813814) scale(0.1 -0.1)">
       <use xlink:href="#DejaVuSans-36"/>
       <use xlink:href="#DejaVuSans-30" x="63.623047"/>
      </g>
     </g>
    </g>
    <g id="ytick_8">
     <g id="line2d_71">
      <path d="M 40.603125 28.544007 
L 821.803125 28.544007 
" clip-path="url(#pae0291f881)" style="fill: none; stroke: #b0b0b0; stroke-width: 0.8; stroke-linecap: square"/>
     </g>
     <g id="line2d_72">
      <g>
       <use xlink:href="#m7faaa17cbe" x="40.603125" y="28.544007" style="stroke: #000000; stroke-width: 0.8"/>
      </g>
     </g>
     <g id="text_37">
      <!-- 70 -->
      <g transform="translate(20.878125 32.343226) scale(0.1 -0.1)">
       <defs>
        <path id="DejaVuSans-37" d="M 525 4666 
L 3525 4666 
L 3525 4397 
L 1831 0 
L 1172 0 
L 2766 4134 
L 525 4134 
L 525 4666 
z
" transform="scale(0.015625)"/>
       </defs>
       <use xlink:href="#DejaVuSans-37"/>
       <use xlink:href="#DejaVuSans-30" x="63.623047"/>
      </g>
     </g>
    </g>
    <g id="text_38">
     <!-- Power Usage (Wh/m^2, P1) -->
     <g transform="translate(14.798438 257.823281) rotate(-90) scale(0.1 -0.1)">
      <defs>
       <path id="DejaVuSans-50" d="M 1259 4147 
L 1259 2394 
L 2053 2394 
Q 2494 2394 2734 2622 
Q 2975 2850 2975 3272 
Q 2975 3691 2734 3919 
Q 2494 4147 2053 4147 
L 1259 4147 
z
M 628 4666 
L 2053 4666 
Q 2838 4666 3239 4311 
Q 3641 3956 3641 3272 
Q 3641 2581 3239 2228 
Q 2838 1875 2053 1875 
L 1259 1875 
L 1259 0 
L 628 0 
L 628 4666 
z
" transform="scale(0.015625)"/>
       <path id="DejaVuSans-77" d="M 269 3500 
L 844 3500 
L 1563 769 
L 2278 3500 
L 2956 3500 
L 3675 769 
L 4391 3500 
L 4966 3500 
L 4050 0 
L 3372 0 
L 2619 2869 
L 1863 0 
L 1184 0 
L 269 3500 
z
" transform="scale(0.015625)"/>
       <path id="DejaVuSans-55" d="M 556 4666 
L 1191 4666 
L 1191 1831 
Q 1191 1081 1462 751 
Q 1734 422 2344 422 
Q 2950 422 3222 751 
Q 3494 1081 3494 1831 
L 3494 4666 
L 4128 4666 
L 4128 1753 
Q 4128 841 3676 375 
Q 3225 -91 2344 -91 
Q 1459 -91 1007 375 
Q 556 841 556 1753 
L 556 4666 
z
" transform="scale(0.015625)"/>
       <path id="DejaVuSans-67" d="M 2906 1791 
Q 2906 2416 2648 2759 
Q 2391 3103 1925 3103 
Q 1463 3103 1205 2759 
Q 947 2416 947 1791 
Q 947 1169 1205 825 
Q 1463 481 1925 481 
Q 2391 481 2648 825 
Q 2906 1169 2906 1791 
z
M 3481 434 
Q 3481 -459 3084 -895 
Q 2688 -1331 1869 -1331 
Q 1566 -1331 1297 -1286 
Q 1028 -1241 775 -1147 
L 775 -588 
Q 1028 -725 1275 -790 
Q 1522 -856 1778 -856 
Q 2344 -856 2625 -561 
Q 2906 -266 2906 331 
L 2906 616 
Q 2728 306 2450 153 
Q 2172 0 1784 0 
Q 1141 0 747 490 
Q 353 981 353 1791 
Q 353 2603 747 3093 
Q 1141 3584 1784 3584 
Q 2172 3584 2450 3431 
Q 2728 3278 2906 2969 
L 2906 3500 
L 3481 3500 
L 3481 434 
z
" transform="scale(0.015625)"/>
       <path id="DejaVuSans-28" d="M 1984 4856 
Q 1566 4138 1362 3434 
Q 1159 2731 1159 2009 
Q 1159 1288 1364 580 
Q 1569 -128 1984 -844 
L 1484 -844 
Q 1016 -109 783 600 
Q 550 1309 550 2009 
Q 550 2706 781 3412 
Q 1013 4119 1484 4856 
L 1984 4856 
z
" transform="scale(0.015625)"/>
       <path id="DejaVuSans-2f" d="M 1625 4666 
L 2156 4666 
L 531 -594 
L 0 -594 
L 1625 4666 
z
" transform="scale(0.015625)"/>
       <path id="DejaVuSans-5e" d="M 2988 4666 
L 4684 2925 
L 4056 2925 
L 2681 4159 
L 1306 2925 
L 678 2925 
L 2375 4666 
L 2988 4666 
z
" transform="scale(0.015625)"/>
       <path id="DejaVuSans-2c" d="M 750 794 
L 1409 794 
L 1409 256 
L 897 -744 
L 494 -744 
L 750 256 
L 750 794 
z
" transform="scale(0.015625)"/>
       <path id="DejaVuSans-29" d="M 513 4856 
L 1013 4856 
Q 1481 4119 1714 3412 
Q 1947 2706 1947 2009 
Q 1947 1309 1714 600 
Q 1481 -109 1013 -844 
L 513 -844 
Q 928 -128 1133 580 
Q 1338 1288 1338 2009 
Q 1338 2731 1133 3434 
Q 928 4138 513 4856 
z
" transform="scale(0.015625)"/>
      </defs>
      <use xlink:href="#DejaVuSans-50"/>
      <use xlink:href="#DejaVuSans-6f" x="56.677734"/>
      <use xlink:href="#DejaVuSans-77" x="117.859375"/>
      <use xlink:href="#DejaVuSans-65" x="199.646484"/>
      <use xlink:href="#DejaVuSans-72" x="261.169922"/>
      <use xlink:href="#DejaVuSans-20" x="302.283203"/>
      <use xlink:href="#DejaVuSans-55" x="334.070312"/>
      <use xlink:href="#DejaVuSans-73" x="407.263672"/>
      <use xlink:href="#DejaVuSans-61" x="459.363281"/>
      <use xlink:href="#DejaVuSans-67" x="520.642578"/>
      <use xlink:href="#DejaVuSans-65" x="584.119141"/>
      <use xlink:href="#DejaVuSans-20" x="645.642578"/>
      <use xlink:href="#DejaVuSans-28" x="677.429688"/>
      <use xlink:href="#DejaVuSans-57" x="716.443359"/>
      <use xlink:href="#DejaVuSans-68" x="815.320312"/>
      <use xlink:href="#DejaVuSans-2f" x="878.699219"/>
      <use xlink:href="#DejaVuSans-6d" x="912.390625"/>
      <use xlink:href="#DejaVuSans-5e" x="1009.802734"/>
      <use xlink:href="#DejaVuSans-32" x="1093.591797"/>
      <use xlink:href="#DejaVuSans-2c" x="1157.214844"/>
      <use xlink:href="#DejaVuSans-20" x="1189.001953"/>
      <use xlink:href="#DejaVuSans-50" x="1220.789062"/>
      <use xlink:href="#DejaVuSans-31" x="1281.091797"/>
      <use xlink:href="#DejaVuSans-29" x="1344.714844"/>
     </g>
    </g>
   </g>
   <g id="line2d_73">
    <path d="M 76.112216 301.892577 
L 78.232162 302.101183 
L 80.352107 301.688616 
L 86.711945 301.05489 
L 90.951836 302.283667 
L 93.071782 301.710047 
L 95.191727 302.350419 
L 97.311673 302.214935 
L 99.431619 302.968106 
L 101.551565 303.151067 
L 103.67151 302.967813 
L 105.791456 303.362993 
L 107.911402 302.781228 
L 110.031348 300.018619 
L 112.151293 294.272006 
L 114.271239 284.327457 
L 116.391185 281.594463 
L 118.51113 281.953551 
L 120.631076 281.671094 
L 122.751022 280.127473 
L 124.870968 279.370957 
L 126.990913 280.029605 
L 129.110859 280.037382 
L 131.230805 279.875431 
L 133.350751 279.511976 
L 135.470696 279.955602 
L 137.590642 279.867756 
L 139.710588 280.14441 
L 141.830533 279.846459 
L 143.950479 280.939424 
L 146.070425 281.700976 
L 148.190371 281.087072 
L 150.310316 282.662269 
L 152.430262 282.953695 
L 156.670153 287.759566 
L 158.790099 294.139249 
L 160.910045 297.204033 
L 163.029991 294.023637 
L 165.149936 299.653224 
L 167.269882 301.343931 
L 169.389828 301.571219 
L 171.509774 302.261968 
L 173.629719 302.447379 
L 175.749665 302.285875 
L 177.869611 302.30296 
L 179.989556 303.371516 
L 182.109502 302.258133 
L 184.229448 301.793596 
L 186.349394 300.687779 
L 188.469339 301.783011 
L 190.589285 301.302501 
L 192.709231 301.51246 
L 194.829177 301.142888 
L 196.949122 301.069295 
L 199.069068 301.965416 
L 201.189014 302.532876 
L 205.428905 302.170904 
L 207.548851 302.285383 
L 209.668797 302.135317 
L 211.788742 299.382617 
L 213.908688 292.427108 
L 216.028634 284.243277 
L 218.14858 281.748478 
L 220.268525 281.211908 
L 222.388471 283.840604 
L 224.508417 280.204149 
L 226.628362 280.01985 
L 228.748308 279.355844 
L 230.868254 280.169505 
L 232.9882 280.054187 
L 237.228091 280.269596 
L 239.348037 279.53666 
L 241.467983 279.56426 
L 243.587928 279.402704 
L 245.707874 279.746866 
L 247.82782 282.4234 
L 249.947765 280.420267 
L 252.067711 280.796575 
L 254.187657 281.027661 
L 256.307603 284.247924 
L 258.427548 286.75459 
L 260.547494 293.2787 
L 262.66744 296.948527 
L 264.787386 294.427722 
L 266.907331 298.749344 
L 269.027277 301.21499 
L 271.147223 300.694621 
L 273.267168 301.636882 
L 277.50706 301.883021 
L 279.627006 302.29987 
L 281.746951 302.550115 
L 283.866897 301.514765 
L 285.986843 302.097343 
L 288.106789 301.790818 
L 290.226734 303.224285 
L 292.34668 301.344189 
L 294.466626 301.002397 
L 296.586571 301.124363 
L 298.706517 300.50562 
L 300.826463 301.635378 
L 302.946409 301.630207 
L 305.066354 302.445042 
L 307.1863 302.338436 
L 309.306246 300.961059 
L 311.426191 300.574715 
L 313.546137 297.551064 
L 315.666083 292.109765 
L 317.786029 283.252778 
L 322.02592 280.505393 
L 324.145866 281.698151 
L 326.265812 279.882892 
L 328.385757 278.807693 
L 330.505703 279.351244 
L 332.625649 279.327392 
L 334.745594 279.855895 
L 336.86554 279.433825 
L 338.985486 279.420134 
L 341.105432 278.7572 
L 343.225377 278.591599 
L 345.345323 278.766987 
L 347.465269 279.215759 
L 349.585215 280.128841 
L 351.70516 280.297134 
L 353.825106 281.18782 
L 355.945052 281.197271 
L 358.064997 288.423835 
L 360.184943 287.806198 
L 364.424835 295.760502 
L 366.54478 294.042148 
L 368.664726 298.018437 
L 370.784672 300.278771 
L 372.904618 300.553045 
L 375.024563 301.44206 
L 377.144509 301.425995 
L 379.264455 302.199476 
L 381.3844 301.810009 
L 383.504346 301.826856 
L 385.624292 301.613507 
L 389.864183 301.70788 
L 391.984129 301.003925 
L 394.104075 301.611557 
L 396.224021 301.391018 
L 398.343966 300.551782 
L 400.463912 301.275969 
L 402.583858 301.875278 
L 404.703803 302.16509 
L 406.823749 302.270243 
L 408.943695 303.104183 
L 411.063641 302.076812 
L 413.183586 301.555429 
L 415.303532 299.112809 
L 417.423478 291.680118 
L 419.543424 283.309016 
L 421.663369 280.415038 
L 423.783315 280.710398 
L 425.903261 282.698833 
L 428.023206 281.084049 
L 430.143152 280.345854 
L 432.263098 279.351745 
L 434.383044 279.703402 
L 436.502989 279.748688 
L 440.742881 279.238879 
L 442.862826 279.565969 
L 444.982772 279.358766 
L 447.102718 278.774413 
L 449.222664 279.082724 
L 451.342609 279.908242 
L 453.462555 279.744381 
L 455.582501 280.690912 
L 457.702447 282.087452 
L 459.822392 284.449321 
L 461.942338 286.625653 
L 464.062284 292.776261 
L 466.182229 297.403217 
L 468.302175 294.046035 
L 470.422121 299.339857 
L 472.542067 301.155399 
L 474.662012 301.423216 
L 476.781958 302.29911 
L 478.901904 302.47317 
L 481.02185 301.762172 
L 483.141795 301.662801 
L 485.261741 301.932433 
L 487.381687 301.856592 
L 489.501632 301.632333 
L 491.621578 301.944791 
L 495.86147 301.622346 
L 497.981415 301.843512 
L 500.101361 301.476581 
L 502.221307 302.569606 
L 504.341253 301.982018 
L 506.461198 302.232298 
L 508.581144 301.883732 
L 510.70109 302.184507 
L 512.821035 302.199161 
L 514.940981 301.607495 
L 517.060927 298.904968 
L 519.180873 292.398292 
L 521.300818 283.238373 
L 523.420764 280.831569 
L 525.54071 280.434129 
L 527.660656 282.176371 
L 529.780601 279.441302 
L 531.900547 278.122926 
L 534.020493 278.163303 
L 536.140438 280.983699 
L 538.260384 278.929807 
L 540.38033 277.491184 
L 542.500276 277.476721 
L 544.620221 278.670276 
L 546.740167 278.592388 
L 548.860113 278.13128 
L 550.980059 277.976685 
L 553.100004 278.723972 
L 555.21995 278.401693 
L 557.339896 280.206643 
L 559.459841 279.754644 
L 561.579787 281.442105 
L 563.699733 283.433701 
L 565.819679 289.92865 
L 567.939624 292.823652 
L 570.05957 293.395658 
L 572.179516 294.89955 
L 574.299461 297.172366 
L 576.419407 297.953095 
L 578.539353 299.218815 
L 580.659299 300.741211 
L 582.779244 301.667745 
L 584.89919 301.532052 
L 587.019136 301.983532 
L 589.139082 301.497342 
L 591.259027 302.034651 
L 593.378973 301.283661 
L 595.498919 302.568353 
L 597.618864 301.752642 
L 601.858756 300.90285 
L 606.098647 301.660525 
L 608.218593 302.017352 
L 610.338539 302.235828 
L 616.698376 302.41691 
L 618.818322 301.176716 
L 620.938267 293.444736 
L 623.058213 284.684667 
L 625.178159 281.343292 
L 627.298105 281.62922 
L 629.41805 281.317299 
L 633.657942 278.688166 
L 635.777888 278.161705 
L 637.897833 278.848303 
L 640.017779 278.338498 
L 642.137725 278.541888 
L 644.25767 277.504192 
L 646.377616 278.841137 
L 648.497562 278.305982 
L 650.617508 276.651599 
L 652.737453 277.737615 
L 654.857399 279.416148 
L 656.977345 279.282024 
L 659.097291 281.401641 
L 661.217236 282.326149 
L 663.337182 284.707907 
L 665.457128 286.104525 
L 667.577073 290.695903 
L 669.697019 292.652221 
L 671.816965 293.354289 
L 673.936911 294.777352 
L 676.056856 297.516329 
L 678.176802 297.896514 
L 680.296748 298.988841 
L 682.416694 299.715112 
L 686.656585 301.625887 
L 688.776531 301.219256 
L 690.896476 301.425749 
L 693.016422 301.758862 
L 695.136368 301.25118 
L 699.376259 301.065589 
L 701.496205 301.728421 
L 703.616151 301.077364 
L 705.736097 301.190551 
L 707.856042 301.600785 
L 709.975988 301.861856 
L 712.095934 302.678517 
L 714.215879 302.490424 
L 716.335825 302.533091 
L 718.455771 301.046572 
L 720.575717 298.54118 
L 722.695662 290.809211 
L 724.815608 284.392591 
L 726.935554 280.65686 
L 729.055499 280.229275 
L 731.175445 281.701593 
L 735.415337 277.7715 
L 737.535282 279.046653 
L 739.655228 279.228325 
L 741.775174 279.610011 
L 743.89512 278.864675 
L 746.015065 278.543333 
L 748.135011 279.005438 
L 750.254957 278.83403 
L 752.374902 280.665868 
L 754.494848 282.323806 
L 756.614794 284.164511 
L 758.73474 284.68331 
L 760.854685 288.219608 
L 762.974631 290.367012 
L 765.094577 291.081599 
L 767.214523 295.581552 
L 769.334468 298.026435 
L 771.454414 298.105726 
L 773.57436 300.699982 
L 775.694305 301.4262 
L 777.814251 301.436405 
L 779.934197 301.207928 
L 782.054143 301.816293 
L 784.174088 301.604099 
L 786.294034 301.924723 
L 786.294034 301.924723 
" clip-path="url(#pae0291f881)" style="fill: none; stroke: #ff0000; stroke-opacity: 0.4; stroke-width: 1.5; stroke-linecap: square"/>
   </g>
   <g id="line2d_74">
    <path d="M 76.112216 233.044825 
L 468.302175 233.044825 
L 470.422121 121.932243 
L 472.542067 330.944007 
L 474.662012 339.838125 
L 478.901904 339.838125 
L 481.02185 144.167537 
L 483.141795 117.485184 
L 485.261741 117.485184 
L 487.381687 121.932243 
L 489.501632 117.485184 
L 491.621578 121.932243 
L 500.101361 121.932243 
L 502.221307 126.379301 
L 504.341253 121.932243 
L 506.461198 335.391066 
L 508.581144 339.838125 
L 512.821035 339.838125 
L 514.940981 148.614596 
L 517.060927 135.273419 
L 521.300818 135.273419 
L 523.420764 77.461654 
L 525.54071 135.273419 
L 529.780601 135.273419 
L 531.900547 117.485184 
L 534.020493 90.802831 
L 536.140438 135.273419 
L 538.260384 108.591066 
L 540.38033 117.485184 
L 542.500276 139.720478 
L 544.620221 108.591066 
L 546.740167 135.273419 
L 550.980059 108.591066 
L 553.100004 126.379301 
L 555.21995 139.720478 
L 557.339896 121.932243 
L 559.459841 201.979301 
L 561.579787 339.838125 
L 580.659299 339.838125 
L 582.779244 322.04989 
L 584.89919 322.04989 
L 587.019136 339.838125 
L 595.498919 339.838125 
L 597.618864 335.391066 
L 599.73881 322.04989 
L 603.978702 322.04989 
L 606.098647 326.496949 
L 608.218593 339.838125 
L 620.938267 339.838125 
L 625.178159 77.461654 
L 627.298105 135.273419 
L 629.41805 126.379301 
L 631.537996 37.438125 
L 633.657942 130.82636 
L 635.777888 81.908713 
L 637.897833 113.038125 
L 640.017779 113.038125 
L 642.137725 339.838125 
L 648.497562 339.838125 
L 650.617508 161.955772 
L 652.737453 139.720478 
L 654.857399 81.908713 
L 656.977345 108.591066 
L 659.097291 117.485184 
L 661.217236 295.367537 
L 663.337182 339.838125 
L 680.296748 339.838125 
L 682.416694 335.391066 
L 684.536639 339.838125 
L 705.736097 339.838125 
L 707.856042 335.391066 
L 709.975988 339.838125 
L 722.695662 339.838125 
L 724.815608 148.614596 
L 726.935554 68.567537 
L 729.055499 135.273419 
L 731.175445 104.144007 
L 733.295391 135.273419 
L 735.415337 121.932243 
L 737.535282 104.144007 
L 739.655228 135.273419 
L 741.775174 135.273419 
L 743.89512 335.391066 
L 746.015065 339.838125 
L 786.294034 339.838125 
L 786.294034 339.838125 
" clip-path="url(#pae0291f881)" style="fill: none; stroke: #0000ff; stroke-width: 1.5; stroke-linecap: square"/>
   </g>
   <g id="patch_11">
    <path d="M 40.603125 354.958125 
L 40.603125 22.318125 
" style="fill: none; stroke: #000000; stroke-width: 0.8; stroke-linejoin: miter; stroke-linecap: square"/>
   </g>
   <g id="patch_12">
    <path d="M 821.803125 354.958125 
L 821.803125 22.318125 
" style="fill: none; stroke: #000000; stroke-width: 0.8; stroke-linejoin: miter; stroke-linecap: square"/>
   </g>
   <g id="patch_13">
    <path d="M 40.603125 354.958125 
L 821.803125 354.958125 
" style="fill: none; stroke: #000000; stroke-width: 0.8; stroke-linejoin: miter; stroke-linecap: square"/>
   </g>
   <g id="patch_14">
    <path d="M 40.603125 22.318125 
L 821.803125 22.318125 
" style="fill: none; stroke: #000000; stroke-width: 0.8; stroke-linejoin: miter; stroke-linecap: square"/>
   </g>
   <g id="text_39">
    <!-- benchmarkdata for "Food Speciality" Market sector using 45 sampled meters, constructed with 849,847 samples -->
    <g transform="translate(91.761563 16.318125) scale(0.12 -0.12)">
     <defs>
      <path id="DejaVuSans-62" d="M 3116 1747 
Q 3116 2381 2855 2742 
Q 2594 3103 2138 3103 
Q 1681 3103 1420 2742 
Q 1159 2381 1159 1747 
Q 1159 1113 1420 752 
Q 1681 391 2138 391 
Q 2594 391 2855 752 
Q 3116 1113 3116 1747 
z
M 1159 2969 
Q 1341 3281 1617 3432 
Q 1894 3584 2278 3584 
Q 2916 3584 3314 3078 
Q 3713 2572 3713 1747 
Q 3713 922 3314 415 
Q 2916 -91 2278 -91 
Q 1894 -91 1617 61 
Q 1341 213 1159 525 
L 1159 0 
L 581 0 
L 581 4863 
L 1159 4863 
L 1159 2969 
z
" transform="scale(0.015625)"/>
      <path id="DejaVuSans-63" d="M 3122 3366 
L 3122 2828 
Q 2878 2963 2633 3030 
Q 2388 3097 2138 3097 
Q 1578 3097 1268 2742 
Q 959 2388 959 1747 
Q 959 1106 1268 751 
Q 1578 397 2138 397 
Q 2388 397 2633 464 
Q 2878 531 3122 666 
L 3122 134 
Q 2881 22 2623 -34 
Q 2366 -91 2075 -91 
Q 1284 -91 818 406 
Q 353 903 353 1747 
Q 353 2603 823 3093 
Q 1294 3584 2113 3584 
Q 2378 3584 2631 3529 
Q 2884 3475 3122 3366 
z
" transform="scale(0.015625)"/>
      <path id="DejaVuSans-6b" d="M 581 4863 
L 1159 4863 
L 1159 1991 
L 2875 3500 
L 3609 3500 
L 1753 1863 
L 3688 0 
L 2938 0 
L 1159 1709 
L 1159 0 
L 581 0 
L 581 4863 
z
" transform="scale(0.015625)"/>
      <path id="DejaVuSans-66" d="M 2375 4863 
L 2375 4384 
L 1825 4384 
Q 1516 4384 1395 4259 
Q 1275 4134 1275 3809 
L 1275 3500 
L 2222 3500 
L 2222 3053 
L 1275 3053 
L 1275 0 
L 697 0 
L 697 3053 
L 147 3053 
L 147 3500 
L 697 3500 
L 697 3744 
Q 697 4328 969 4595 
Q 1241 4863 1831 4863 
L 2375 4863 
z
" transform="scale(0.015625)"/>
      <path id="DejaVuSans-22" d="M 1147 4666 
L 1147 2931 
L 616 2931 
L 616 4666 
L 1147 4666 
z
M 2328 4666 
L 2328 2931 
L 1797 2931 
L 1797 4666 
L 2328 4666 
z
" transform="scale(0.015625)"/>
      <path id="DejaVuSans-70" d="M 1159 525 
L 1159 -1331 
L 581 -1331 
L 581 3500 
L 1159 3500 
L 1159 2969 
Q 1341 3281 1617 3432 
Q 1894 3584 2278 3584 
Q 2916 3584 3314 3078 
Q 3713 2572 3713 1747 
Q 3713 922 3314 415 
Q 2916 -91 2278 -91 
Q 1894 -91 1617 61 
Q 1341 213 1159 525 
z
M 3116 1747 
Q 3116 2381 2855 2742 
Q 2594 3103 2138 3103 
Q 1681 3103 1420 2742 
Q 1159 2381 1159 1747 
Q 1159 1113 1420 752 
Q 1681 391 2138 391 
Q 2594 391 2855 752 
Q 3116 1113 3116 1747 
z
" transform="scale(0.015625)"/>
      <path id="DejaVuSans-6c" d="M 603 4863 
L 1178 4863 
L 1178 0 
L 603 0 
L 603 4863 
z
" transform="scale(0.015625)"/>
      <path id="DejaVuSans-39" d="M 703 97 
L 703 672 
Q 941 559 1184 500 
Q 1428 441 1663 441 
Q 2288 441 2617 861 
Q 2947 1281 2994 2138 
Q 2813 1869 2534 1725 
Q 2256 1581 1919 1581 
Q 1219 1581 811 2004 
Q 403 2428 403 3163 
Q 403 3881 828 4315 
Q 1253 4750 1959 4750 
Q 2769 4750 3195 4129 
Q 3622 3509 3622 2328 
Q 3622 1225 3098 567 
Q 2575 -91 1691 -91 
Q 1453 -91 1209 -44 
Q 966 3 703 97 
z
M 1959 2075 
Q 2384 2075 2632 2365 
Q 2881 2656 2881 3163 
Q 2881 3666 2632 3958 
Q 2384 4250 1959 4250 
Q 1534 4250 1286 3958 
Q 1038 3666 1038 3163 
Q 1038 2656 1286 2365 
Q 1534 2075 1959 2075 
z
" transform="scale(0.015625)"/>
     </defs>
     <use xlink:href="#DejaVuSans-62"/>
     <use xlink:href="#DejaVuSans-65" x="63.476562"/>
     <use xlink:href="#DejaVuSans-6e" x="125"/>
     <use xlink:href="#DejaVuSans-63" x="188.378906"/>
     <use xlink:href="#DejaVuSans-68" x="243.359375"/>
     <use xlink:href="#DejaVuSans-6d" x="306.738281"/>
     <use xlink:href="#DejaVuSans-61" x="404.150391"/>
     <use xlink:href="#DejaVuSans-72" x="465.429688"/>
     <use xlink:href="#DejaVuSans-6b" x="506.542969"/>
     <use xlink:href="#DejaVuSans-64" x="564.453125"/>
     <use xlink:href="#DejaVuSans-61" x="627.929688"/>
     <use xlink:href="#DejaVuSans-74" x="689.208984"/>
     <use xlink:href="#DejaVuSans-61" x="728.417969"/>
     <use xlink:href="#DejaVuSans-20" x="789.697266"/>
     <use xlink:href="#DejaVuSans-66" x="821.484375"/>
     <use xlink:href="#DejaVuSans-6f" x="856.689453"/>
     <use xlink:href="#DejaVuSans-72" x="917.871094"/>
     <use xlink:href="#DejaVuSans-20" x="958.984375"/>
     <use xlink:href="#DejaVuSans-22" x="990.771484"/>
     <use xlink:href="#DejaVuSans-46" x="1036.767578"/>
     <use xlink:href="#DejaVuSans-6f" x="1090.662109"/>
     <use xlink:href="#DejaVuSans-6f" x="1151.84375"/>
     <use xlink:href="#DejaVuSans-64" x="1213.025391"/>
     <use xlink:href="#DejaVuSans-20" x="1276.501953"/>
     <use xlink:href="#DejaVuSans-53" x="1308.289062"/>
     <use xlink:href="#DejaVuSans-70" x="1371.765625"/>
     <use xlink:href="#DejaVuSans-65" x="1435.242188"/>
     <use xlink:href="#DejaVuSans-63" x="1496.765625"/>
     <use xlink:href="#DejaVuSans-69" x="1551.746094"/>
     <use xlink:href="#DejaVuSans-61" x="1579.529297"/>
     <use xlink:href="#DejaVuSans-6c" x="1640.808594"/>
     <use xlink:href="#DejaVuSans-69" x="1668.591797"/>
     <use xlink:href="#DejaVuSans-74" x="1696.375"/>
     <use xlink:href="#DejaVuSans-79" x="1735.583984"/>
     <use xlink:href="#DejaVuSans-22" x="1794.763672"/>
     <use xlink:href="#DejaVuSans-20" x="1840.759766"/>
     <use xlink:href="#DejaVuSans-4d" x="1872.546875"/>
     <use xlink:href="#DejaVuSans-61" x="1958.826172"/>
     <use xlink:href="#DejaVuSans-72" x="2020.105469"/>
     <use xlink:href="#DejaVuSans-6b" x="2061.21875"/>
     <use xlink:href="#DejaVuSans-65" x="2115.503906"/>
     <use xlink:href="#DejaVuSans-74" x="2177.027344"/>
     <use xlink:href="#DejaVuSans-20" x="2216.236328"/>
     <use xlink:href="#DejaVuSans-73" x="2248.023438"/>
     <use xlink:href="#DejaVuSans-65" x="2300.123047"/>
     <use xlink:href="#DejaVuSans-63" x="2361.646484"/>
     <use xlink:href="#DejaVuSans-74" x="2416.626953"/>
     <use xlink:href="#DejaVuSans-6f" x="2455.835938"/>
     <use xlink:href="#DejaVuSans-72" x="2517.017578"/>
     <use xlink:href="#DejaVuSans-20" x="2558.130859"/>
     <use xlink:href="#DejaVuSans-75" x="2589.917969"/>
     <use xlink:href="#DejaVuSans-73" x="2653.296875"/>
     <use xlink:href="#DejaVuSans-69" x="2705.396484"/>
     <use xlink:href="#DejaVuSans-6e" x="2733.179688"/>
     <use xlink:href="#DejaVuSans-67" x="2796.558594"/>
     <use xlink:href="#DejaVuSans-20" x="2860.035156"/>
     <use xlink:href="#DejaVuSans-34" x="2891.822266"/>
     <use xlink:href="#DejaVuSans-35" x="2955.445312"/>
     <use xlink:href="#DejaVuSans-20" x="3019.068359"/>
     <use xlink:href="#DejaVuSans-73" x="3050.855469"/>
     <use xlink:href="#DejaVuSans-61" x="3102.955078"/>
     <use xlink:href="#DejaVuSans-6d" x="3164.234375"/>
     <use xlink:href="#DejaVuSans-70" x="3261.646484"/>
     <use xlink:href="#DejaVuSans-6c" x="3325.123047"/>
     <use xlink:href="#DejaVuSans-65" x="3352.90625"/>
     <use xlink:href="#DejaVuSans-64" x="3414.429688"/>
     <use xlink:href="#DejaVuSans-20" x="3477.90625"/>
     <use xlink:href="#DejaVuSans-6d" x="3509.693359"/>
     <use xlink:href="#DejaVuSans-65" x="3607.105469"/>
     <use xlink:href="#DejaVuSans-74" x="3668.628906"/>
     <use xlink:href="#DejaVuSans-65" x="3707.837891"/>
     <use xlink:href="#DejaVuSans-72" x="3769.361328"/>
     <use xlink:href="#DejaVuSans-73" x="3810.474609"/>
     <use xlink:href="#DejaVuSans-2c" x="3862.574219"/>
     <use xlink:href="#DejaVuSans-20" x="3894.361328"/>
     <use xlink:href="#DejaVuSans-63" x="3926.148438"/>
     <use xlink:href="#DejaVuSans-6f" x="3981.128906"/>
     <use xlink:href="#DejaVuSans-6e" x="4042.310547"/>
     <use xlink:href="#DejaVuSans-73" x="4105.689453"/>
     <use xlink:href="#DejaVuSans-74" x="4157.789062"/>
     <use xlink:href="#DejaVuSans-72" x="4196.998047"/>
     <use xlink:href="#DejaVuSans-75" x="4238.111328"/>
     <use xlink:href="#DejaVuSans-63" x="4301.490234"/>
     <use xlink:href="#DejaVuSans-74" x="4356.470703"/>
     <use xlink:href="#DejaVuSans-65" x="4395.679688"/>
     <use xlink:href="#DejaVuSans-64" x="4457.203125"/>
     <use xlink:href="#DejaVuSans-20" x="4520.679688"/>
     <use xlink:href="#DejaVuSans-77" x="4552.466797"/>
     <use xlink:href="#DejaVuSans-69" x="4634.253906"/>
     <use xlink:href="#DejaVuSans-74" x="4662.037109"/>
     <use xlink:href="#DejaVuSans-68" x="4701.246094"/>
     <use xlink:href="#DejaVuSans-20" x="4764.625"/>
     <use xlink:href="#DejaVuSans-38" x="4796.412109"/>
     <use xlink:href="#DejaVuSans-34" x="4860.035156"/>
     <use xlink:href="#DejaVuSans-39" x="4923.658203"/>
     <use xlink:href="#DejaVuSans-2c" x="4987.28125"/>
     <use xlink:href="#DejaVuSans-38" x="5019.068359"/>
     <use xlink:href="#DejaVuSans-34" x="5082.691406"/>
     <use xlink:href="#DejaVuSans-37" x="5146.314453"/>
     <use xlink:href="#DejaVuSans-20" x="5209.9375"/>
     <use xlink:href="#DejaVuSans-73" x="5241.724609"/>
     <use xlink:href="#DejaVuSans-61" x="5293.824219"/>
     <use xlink:href="#DejaVuSans-6d" x="5355.103516"/>
     <use xlink:href="#DejaVuSans-70" x="5452.515625"/>
     <use xlink:href="#DejaVuSans-6c" x="5515.992188"/>
     <use xlink:href="#DejaVuSans-65" x="5543.775391"/>
     <use xlink:href="#DejaVuSans-73" x="5605.298828"/>
    </g>
   </g>
   <g id="legend_1">
    <g id="patch_15">
     <path d="M 47.603125 85.550313 
L 212.565625 85.550313 
Q 214.565625 85.550313 214.565625 83.550313 
L 214.565625 29.318125 
Q 214.565625 27.318125 212.565625 27.318125 
L 47.603125 27.318125 
Q 45.603125 27.318125 45.603125 29.318125 
L 45.603125 83.550313 
Q 45.603125 85.550313 47.603125 85.550313 
z
" style="fill: #ffffff; opacity: 0.8; stroke: #cccccc; stroke-linejoin: miter"/>
    </g>
    <g id="line2d_75">
     <path d="M 49.603125 35.416562 
L 59.603125 35.416562 
L 69.603125 35.416562 
" style="fill: none; stroke: #ff0000; stroke-opacity: 0.4; stroke-width: 1.5; stroke-linecap: square"/>
    </g>
    <g id="text_40">
     <!-- Mean: 10.797 -->
     <g transform="translate(77.603125 38.916562) scale(0.1 -0.1)">
      <defs>
       <path id="DejaVuSans-2e" d="M 684 794 
L 1344 794 
L 1344 0 
L 684 0 
L 684 794 
z
" transform="scale(0.015625)"/>
      </defs>
      <use xlink:href="#DejaVuSans-4d"/>
      <use xlink:href="#DejaVuSans-65" x="86.279297"/>
      <use xlink:href="#DejaVuSans-61" x="147.802734"/>
      <use xlink:href="#DejaVuSans-6e" x="209.082031"/>
      <use xlink:href="#DejaVuSans-3a" x="272.460938"/>
      <use xlink:href="#DejaVuSans-20" x="306.152344"/>
      <use xlink:href="#DejaVuSans-31" x="337.939453"/>
      <use xlink:href="#DejaVuSans-30" x="401.5625"/>
      <use xlink:href="#DejaVuSans-2e" x="465.185547"/>
      <use xlink:href="#DejaVuSans-37" x="496.972656"/>
      <use xlink:href="#DejaVuSans-39" x="560.595703"/>
      <use xlink:href="#DejaVuSans-37" x="624.21875"/>
     </g>
    </g>
    <g id="patch_16">
     <path d="M 49.603125 53.594688 
L 69.603125 53.594688 
L 69.603125 46.594688 
L 49.603125 46.594688 
z
" style="fill: #ff0000; fill-opacity: 0.2; stroke: #ff0000; stroke-opacity: 0.2; stroke-linejoin: miter"/>
    </g>
    <g id="text_41">
     <!-- Std Dev: 8.573 -->
     <g transform="translate(77.603125 53.594688) scale(0.1 -0.1)">
      <defs>
       <path id="DejaVuSans-44" d="M 1259 4147 
L 1259 519 
L 2022 519 
Q 2988 519 3436 956 
Q 3884 1394 3884 2338 
Q 3884 3275 3436 3711 
Q 2988 4147 2022 4147 
L 1259 4147 
z
M 628 4666 
L 1925 4666 
Q 3281 4666 3915 4102 
Q 4550 3538 4550 2338 
Q 4550 1131 3912 565 
Q 3275 0 1925 0 
L 628 0 
L 628 4666 
z
" transform="scale(0.015625)"/>
       <path id="DejaVuSans-76" d="M 191 3500 
L 800 3500 
L 1894 563 
L 2988 3500 
L 3597 3500 
L 2284 0 
L 1503 0 
L 191 3500 
z
" transform="scale(0.015625)"/>
      </defs>
      <use xlink:href="#DejaVuSans-53"/>
      <use xlink:href="#DejaVuSans-74" x="63.476562"/>
      <use xlink:href="#DejaVuSans-64" x="102.685547"/>
      <use xlink:href="#DejaVuSans-20" x="166.162109"/>
      <use xlink:href="#DejaVuSans-44" x="197.949219"/>
      <use xlink:href="#DejaVuSans-65" x="274.951172"/>
      <use xlink:href="#DejaVuSans-76" x="336.474609"/>
      <use xlink:href="#DejaVuSans-3a" x="390.154297"/>
      <use xlink:href="#DejaVuSans-20" x="423.845703"/>
      <use xlink:href="#DejaVuSans-38" x="455.632812"/>
      <use xlink:href="#DejaVuSans-2e" x="519.255859"/>
      <use xlink:href="#DejaVuSans-35" x="551.042969"/>
      <use xlink:href="#DejaVuSans-37" x="614.666016"/>
      <use xlink:href="#DejaVuSans-33" x="678.289062"/>
     </g>
    </g>
    <g id="line2d_76">
     <path d="M 49.603125 71.411563 
L 59.603125 71.411563 
L 69.603125 71.411563 
" style="fill: none; stroke: #0000ff; stroke-width: 1.5; stroke-linecap: square"/>
    </g>
    <g id="text_42">
     <!-- Performance Comparison:  -->
     <g transform="translate(77.603125 68.272812) scale(0.1 -0.1)">
      <defs>
       <path id="DejaVuSans-43" d="M 4122 4306 
L 4122 3641 
Q 3803 3938 3442 4084 
Q 3081 4231 2675 4231 
Q 1875 4231 1450 3742 
Q 1025 3253 1025 2328 
Q 1025 1406 1450 917 
Q 1875 428 2675 428 
Q 3081 428 3442 575 
Q 3803 722 4122 1019 
L 4122 359 
Q 3791 134 3420 21 
Q 3050 -91 2638 -91 
Q 1578 -91 968 557 
Q 359 1206 359 2328 
Q 359 3453 968 4101 
Q 1578 4750 2638 4750 
Q 3056 4750 3426 4639 
Q 3797 4528 4122 4306 
z
" transform="scale(0.015625)"/>
      </defs>
      <use xlink:href="#DejaVuSans-50"/>
      <use xlink:href="#DejaVuSans-65" x="56.677734"/>
      <use xlink:href="#DejaVuSans-72" x="118.201172"/>
      <use xlink:href="#DejaVuSans-66" x="159.314453"/>
      <use xlink:href="#DejaVuSans-6f" x="194.519531"/>
      <use xlink:href="#DejaVuSans-72" x="255.701172"/>
      <use xlink:href="#DejaVuSans-6d" x="295.064453"/>
      <use xlink:href="#DejaVuSans-61" x="392.476562"/>
      <use xlink:href="#DejaVuSans-6e" x="453.755859"/>
      <use xlink:href="#DejaVuSans-63" x="517.134766"/>
      <use xlink:href="#DejaVuSans-65" x="572.115234"/>
      <use xlink:href="#DejaVuSans-20" x="633.638672"/>
      <use xlink:href="#DejaVuSans-43" x="665.425781"/>
      <use xlink:href="#DejaVuSans-6f" x="735.25"/>
      <use xlink:href="#DejaVuSans-6d" x="796.431641"/>
      <use xlink:href="#DejaVuSans-70" x="893.84375"/>
      <use xlink:href="#DejaVuSans-61" x="957.320312"/>
      <use xlink:href="#DejaVuSans-72" x="1018.599609"/>
      <use xlink:href="#DejaVuSans-69" x="1059.712891"/>
      <use xlink:href="#DejaVuSans-73" x="1087.496094"/>
      <use xlink:href="#DejaVuSans-6f" x="1139.595703"/>
      <use xlink:href="#DejaVuSans-6e" x="1200.777344"/>
      <use xlink:href="#DejaVuSans-3a" x="1264.15625"/>
      <use xlink:href="#DejaVuSans-20" x="1297.847656"/>
     </g>
     <!-- Mean: 21.832 -->
     <g transform="translate(77.603125 79.470625) scale(0.1 -0.1)">
      <use xlink:href="#DejaVuSans-4d"/>
      <use xlink:href="#DejaVuSans-65" x="86.279297"/>
      <use xlink:href="#DejaVuSans-61" x="147.802734"/>
      <use xlink:href="#DejaVuSans-6e" x="209.082031"/>
      <use xlink:href="#DejaVuSans-3a" x="272.460938"/>
      <use xlink:href="#DejaVuSans-20" x="306.152344"/>
      <use xlink:href="#DejaVuSans-32" x="337.939453"/>
      <use xlink:href="#DejaVuSans-31" x="401.5625"/>
      <use xlink:href="#DejaVuSans-2e" x="465.185547"/>
      <use xlink:href="#DejaVuSans-38" x="496.972656"/>
      <use xlink:href="#DejaVuSans-33" x="560.595703"/>
      <use xlink:href="#DejaVuSans-32" x="624.21875"/>
     </g>
    </g>
   </g>
  </g>
 </g>
 <defs>
  <clipPath id="pae0291f881">
   <rect x="40.603125" y="22.318125" width="781.2" height="332.64"/>
  </clipPath>
 </defs>
</svg>
